<svg width="103" height="191" viewBox="0 0 103 191" fill="none" xmlns="http://www.w3.org/2000/svg">
<path d="M101.799 122.079C98.1862 109.661 94.5653 97.2431 90.9524 84.8253C88.7074 77.1191 85.352 76.818 81.6264 77.9247C76.5973 79.422 78.3756 91.8805 80.862 100.417C83.445 109.295 86.0279 118.165 88.6108 127.043" fill="#714119"/>
<path d="M69.8141 145.499H40.9029V155.003H69.8141V145.499Z" fill="#5F3713"/>
<path d="M72.6787 185.079C72.5821 185.787 71.8177 186.259 70.9728 186.145L63.916 185.152C63.0711 185.03 62.4596 184.363 62.5561 183.655L63.1676 179.196C63.2642 178.488 64.0286 178.016 64.8816 178.13L71.9384 179.123C72.7833 179.245 73.3948 179.912 73.2982 180.62L72.6867 185.079H72.6787Z" fill="#EBA87C"/>
<path d="M75.149 185.649C75.3501 186.462 75.0363 187.244 74.4489 187.398C73.8535 187.553 73.2098 187.016 73.0086 186.202L71.9625 182.044C71.7614 181.23 72.0752 180.449 72.6626 180.294C73.258 180.139 73.9018 180.677 74.1029 181.49L75.149 185.649Z" fill="#EBA87C"/>
<path d="M59.3938 186.633C58.5248 186.633 57.8248 186.023 57.8248 185.274C57.8248 184.526 58.5329 183.923 59.4019 183.923L63.8436 183.94C64.7126 183.94 65.4127 184.55 65.4127 185.299C65.4127 186.047 64.7046 186.649 63.8355 186.649L59.3938 186.633Z" fill="#EBA87C"/>
<path d="M62.7976 188.163C61.824 188.35 60.9227 187.878 60.7859 187.113C60.6492 186.348 61.317 185.584 62.2907 185.405L67.2634 184.469C68.2371 184.282 69.1383 184.754 69.2751 185.518C69.4118 186.283 68.744 187.048 67.7703 187.227L62.7976 188.163Z" fill="#EBA87C"/>
<path d="M67.3036 188.432C66.4829 188.717 65.638 188.424 65.4207 187.765C65.2035 187.114 65.6863 186.357 66.507 186.072L70.7153 184.615C71.5361 184.331 72.381 184.632 72.5982 185.283C72.8155 185.934 72.3327 186.69 71.512 186.975L67.3036 188.432Z" fill="#EBA87C"/>
<path d="M42.5203 184.876C42.5766 185.584 41.9248 186.218 41.0719 186.283L33.9668 186.829C33.1139 186.894 32.3816 186.373 32.3253 185.657L31.9873 181.173C31.931 180.465 32.5828 179.83 33.4357 179.765L40.5408 179.22C41.3937 179.155 42.126 179.676 42.1823 180.392L42.5203 184.876Z" fill="#EBA87C"/>
<path d="M45.0549 184.908C45.4251 185.657 45.2883 186.495 44.7411 186.772C44.1939 187.049 43.4536 186.666 43.0835 185.909L41.1845 182.068C40.8144 181.32 40.9592 180.482 41.5064 180.205C42.0536 179.928 42.7938 180.311 43.164 181.067L45.063 184.908H45.0549Z" fill="#EBA87C"/>
<path d="M29.8711 189.254C29.0181 189.441 28.2054 188.993 28.0526 188.261C27.8997 187.528 28.4629 186.788 29.3078 186.601L33.653 185.657C34.4978 185.47 35.3186 185.917 35.4715 186.65C35.6244 187.382 35.0611 188.123 34.2162 188.31L29.8711 189.254Z" fill="#EBA87C"/>
<path d="M33.5162 190.019C32.6069 190.409 31.6252 190.141 31.3275 189.425C31.0298 188.709 31.5287 187.813 32.4379 187.431L37.0969 185.445C38.0061 185.055 38.9878 185.323 39.2855 186.039C39.5833 186.756 39.0844 187.651 38.1751 188.033L33.5162 190.019Z" fill="#EBA87C"/>
<path d="M37.974 189.311C37.2337 189.766 36.3405 189.661 35.9945 189.067C35.6405 188.481 35.9623 187.634 36.7026 187.179L40.5086 184.851C41.2489 184.396 42.1421 184.51 42.4881 185.095C42.8421 185.681 42.5283 186.528 41.78 186.983L37.974 189.311Z" fill="#EBA87C"/>
<path d="M30.5792 182.996L30.8287 179.603L28.2135 153.514L25.0351 121.786C24.3914 115.39 27.1192 114.104 30.6034 113.746C35.3186 113.266 37.9096 123.023 38.6177 130.119L40.8305 152.228L43.6468 179.831L44.1376 181.613L41.2811 180.042L40.573 182.41L38.4487 180.831L36.9682 182.784L35.7451 180.652L33.9266 183.102L32.3736 181.255L30.5873 183.012L30.5792 182.996Z" fill="#714119"/>
<path d="M61.9205 181.759L62.878 178.496L65.8069 152.44C66.853 142.903 65.2115 156.989 66.2656 147.451C66.8208 142.707 69.9429 140.266 73.3466 140.624C76.9192 140.99 79.8804 145.002 78.8021 149.266C77.7722 158.681 79.4378 144.481 78.4078 153.896L75.3582 181.474L75.4628 183.321L73.0006 181.173L71.8097 183.33L70.0636 181.328L68.2048 182.915L67.4565 180.563L65.1632 182.565L64.0287 180.425L61.9205 181.759Z" fill="#714119"/>
<path d="M21.6717 116.602C21.9211 136.71 35.6485 152.846 52.337 152.635L58.8869 152.553C75.5754 152.342 88.9005 135.872 88.6591 115.764L88.4177 96.3478C88.1683 76.2401 74.4409 60.1035 57.7524 60.315L51.2025 60.3964C34.5139 60.608 21.1808 77.0783 21.4303 97.186L21.6717 116.602Z" fill="#714119"/>
<path d="M52.523 91.7152L57.4874 91.653C70.1275 91.4946 80.5213 101.749 80.678 114.532L80.8293 126.883C80.986 139.666 70.8466 150.178 58.2065 150.336L53.2502 150.398C40.61 150.557 30.2162 140.303 30.0596 127.52L29.9082 115.168C29.7516 102.385 39.8909 91.8735 52.5311 91.7151L52.523 91.7152Z" fill="#EBA87C"/>
<path d="M56.5937 0C56.5937 0 54.9602 3.17362 57.0684 3.26313C65.9196 3.66187 88.1603 6.1438 90.6547 21.0354C94.1067 41.607 92.6261 72.562 92.6261 72.562L90.2685 72.1388L93.0043 77.1922L88.4741 76.1262L89.4236 81.204L84.9577 79.2103L80.6046 86.7049L73.757 81.6434L54.4292 91.091L39.3017 81.6597L30.9332 85.9725L26.9985 79.5358L23.3534 80.9843L24.1983 75.3613L19.7486 75.5891L22.1625 69.4941L18.0025 72.0737C18.0025 72.0737 16.7633 37.1232 19.5554 20.4088C21.728 7.3156 36.3083 4.07688 45.3929 3.34451C46.2458 3.27941 47.7264 0.976498 48.4586 0.943948C48.4586 0.943948 49.7139 3.59677 50.2852 3.14107C52.2405 1.59495 56.5856 0 56.5856 0L56.5937 0Z" fill="#714119"/>
<g filter="url(#filter0_d_57_1840)">
<path d="M24.0696 33.7217C24.0696 33.7217 24.6811 20.8401 34.8037 20.1809C45.9642 19.4567 50.5508 24.8844 52.3129 28.2452C54.043 24.7054 58.6375 18.9034 69.8625 20.2379C80.9506 21.5562 81.6748 34.0228 81.6748 34.0228C81.6748 34.0228 82.3265 48.5075 74.7789 51.1766L74.6823 58.9642C74.6823 58.9642 72.7914 73.929 53.5843 74.9137V74.9299C53.2544 74.9381 52.9245 74.9462 52.6107 74.9544C52.2969 74.9625 51.975 74.9706 51.6451 74.9706V74.9544C32.4219 74.7021 30.2091 59.8837 30.2091 59.8837L30.1608 52.0311C23.273 49.2155 24.0776 33.7217 24.0776 33.7217H24.0696Z" fill="#EBA87C"/>
</g>
<path d="M57.6317 47.0509C57.6156 45.7163 58.6697 44.6178 59.9973 44.6015C61.317 44.5852 62.4032 45.6594 62.4193 46.9939C62.4354 48.3285 61.3813 49.427 60.0537 49.4433C58.734 49.4596 57.6477 48.3936 57.6317 47.0509Z" fill="#714119"/>
<path d="M40.0822 46.2211C40.0661 44.9517 41.0719 43.902 42.3352 43.8857C43.5985 43.8694 44.6285 44.8866 44.6446 46.1642C44.6606 47.4418 43.6468 48.4834 42.3915 48.4996C41.1363 48.5159 40.0983 47.4987 40.0822 46.2211Z" fill="#714119"/>
<path d="M67.9553 58.8666C67.9553 58.8666 50.3334 72.4155 37.6601 57.0601C46.8251 63.6433 67.9553 58.8422 67.9553 58.8422V58.8666Z" fill="#432918"/>
<path d="M46.7689 53.1705C46.7689 53.1705 48.2011 54.977 49.1909 53.4878L49.2713 51.7952L46.5194 51.665L46.7689 53.1705Z" fill="#432918"/>
<path d="M53.6003 53.439C53.6003 53.439 52.0232 55.1153 51.1622 53.5529L51.2266 51.8604L53.9785 51.9661L53.6003 53.4472V53.439Z" fill="#432918"/>
<path d="M44.6599 105.361C33.9658 106.374 24.3496 101.864 18.6194 91.6053C19.293 90.9781 20.2685 90.3726 21.1837 89.9537C21.6996 89.7175 22.1727 89.5516 22.5376 89.4736C22.7212 89.4343 22.8587 89.4214 22.951 89.425C22.9577 89.4253 22.9639 89.4256 22.9696 89.426C23.98 91.0399 25.0436 92.1806 26.1616 92.8492C27.3265 93.5457 28.5345 93.7187 29.7429 93.3998C30.9334 93.0856 32.0825 92.3058 33.1808 91.1754C34.1719 90.1554 35.1416 88.8294 36.0829 87.2456C38.951 89.7171 42.1944 90.7109 45.7765 90.2079C47.5282 91.6361 49.2544 92.4078 50.9474 92.434C52.6103 92.4597 54.1575 91.7653 55.5815 90.4319C60.2842 92.6167 63.6624 93.2406 66.1941 92.9382C68.8092 92.6259 70.4529 91.3341 71.6669 89.9135C72.2134 89.274 72.6778 88.6024 73.0982 87.9944C73.1391 87.9353 73.1795 87.8767 73.2196 87.8189C73.6813 87.1528 74.0844 86.5908 74.5126 86.1784C74.9318 85.7748 75.3403 85.5491 75.8065 85.5072C76.1787 85.4738 76.6386 85.5528 77.2279 85.8297C67.1743 97.7999 55.3565 104.348 44.6599 105.361Z" fill="#F2B073" stroke="#F2B073"/>
<path d="M63.8149 155.488L64.0741 155.325C65.4611 154.448 67.0765 154.083 68.7228 153.71L68.8462 153.682C70.5579 153.295 72.3465 152.878 74.1727 151.907C83.7724 146.798 86.6072 140.024 90.1347 131.594C90.6499 130.363 91.1799 129.096 91.7479 127.795C93.3102 124.214 93.6983 119.932 93.4142 116.02C93.1297 112.103 92.1766 108.624 91.1189 106.659C91.1189 106.659 91.1188 106.659 91.1188 106.659L91.5591 106.422C90.7719 104.961 90.0271 102.522 89.3032 100.152C88.6033 97.8597 87.9229 95.6316 87.2425 94.4124L63.8149 155.488ZM63.8149 155.488C61.9072 156.614 59.375 157.223 56.5317 157.424C53.5611 157.634 50.2925 157.395 47.1277 156.867C43.9638 156.339 40.9182 155.524 38.3963 154.589C35.8583 153.648 33.9044 152.606 32.8774 151.649L32.8772 151.648C31.9382 150.774 30.7593 149.907 29.4961 148.979L29.4718 148.961C28.191 148.019 26.8099 147.003 25.4388 145.816C22.7023 143.447 20.0202 140.407 18.3508 135.994L18.3508 135.994C15.3535 128.075 13.7754 122.823 14.8243 114.679L63.8149 155.488ZM84.6782 92.1379C85.6482 93.0874 86.4135 93.9551 86.8059 94.656L14.8243 114.679C14.9609 113.619 15.0855 112.538 15.2113 111.447C15.5154 108.809 15.8266 106.109 16.3316 103.491C17.0439 99.7986 18.1304 96.3445 20.0775 93.5813L20.078 93.5805C20.5631 92.8895 21.0681 92.2424 21.5825 91.6273C23.6339 92.0663 25.3231 91.7641 26.5436 90.6226C28.3758 93.3692 30.3303 94.8626 32.432 94.7117C33.5428 94.632 34.6122 94.093 35.6371 93.1714C36.5535 92.3474 37.4537 91.2007 38.3424 89.7479C41.0622 92.0433 44.1359 92.966 47.528 92.5001C49.1904 93.8301 50.8298 94.5496 52.4385 94.5741C54.0171 94.5981 55.4864 93.9519 56.8387 92.7115C61.2841 94.7283 65.2448 95.1816 68.6754 93.9649C72.0753 92.7591 74.8529 89.9489 77.0386 85.6417L78.111 86.0893C78.6385 86.5572 79.149 87.0494 79.6792 87.5606L79.7214 87.6013C80.2849 88.1446 80.8701 88.7075 81.5064 89.2673L81.5087 89.2693C82.5908 90.2097 83.7166 91.1965 84.6782 92.1379Z" fill="#FCCE8E" stroke="#F2B073"/>
<path fill-rule="evenodd" clip-rule="evenodd" d="M85.3761 105.641C90.7673 112.737 88.0798 130.916 84.7404 135.318C81.9483 138.988 79.5263 146.247 71.6407 150.137C64.6965 153.555 59.9893 155.491 52.4014 155.174C45.8113 154.897 38.1107 155.223 32.6069 151.976C24.15 146.996 21.3578 139.517 19.3864 137.41C12.9411 130.509 15.8942 109.571 18.9036 101.499C19.8853 98.8626 21.6314 97.2025 23.2488 94.924C23.7396 94.2242 24.2546 93.4999 24.7696 92.8164C25.196 92.5804 25.5742 92.2549 25.9041 91.848C29.6779 97.8372 33.4759 97.5687 37.3061 91.0343C40.0419 93.5162 43.1398 94.4846 46.5918 93.9556C49.8748 96.641 52.8439 96.6817 55.4993 94.094C63.7068 97.9023 69.9509 96.1853 74.2397 88.9592C76.8146 90.7658 79.2044 93.1744 81.4333 96.6247C83.5817 99.953 83.622 103.322 85.3842 105.641H85.3761Z" fill="#FCCE8E"/>
<path fill-rule="evenodd" clip-rule="evenodd" d="M72.389 146.418C67.4163 153.05 50.5588 155.198 45.8032 153.294C41.8363 151.707 34.7714 151.349 29.34 145.222C24.5604 139.835 21.6636 136.075 20.0543 129.166C18.6542 123.161 16.4414 116.317 17.9622 110.54C20.2877 101.67 26.2421 97.2838 27.6342 94.9809C27.7307 94.8181 27.8434 94.6554 27.956 94.4926C31.0539 97.5442 34.1679 96.3968 37.3061 91.0423C40.0419 93.5242 43.1398 94.4926 46.5918 93.9637C49.8748 96.649 52.844 96.6897 55.4993 94.102C62.8861 97.5279 68.6796 96.4782 72.896 90.9609C74.7708 92.8488 77.5308 97.0722 79.4458 98.7322C82.4311 101.312 86.7843 108.847 86.4141 115.699C85.8992 125.155 86.6234 132.389 79.4378 140.6C77.0077 143.374 74.0225 144.253 72.3971 146.426L72.389 146.418Z" fill="#FCCE8E"/>
<path fill-rule="evenodd" clip-rule="evenodd" d="M80.3148 130.875C80.7252 119.418 88.6108 125.138 74.5937 107.472C70.8199 102.72 62.7573 102.248 55.789 99.0334C47.2033 95.0704 37.0969 99.7413 32.5667 104.29C28.9538 107.911 23.0315 107.464 23.1924 115.976C23.289 121.216 22.4602 122.233 24.2143 128.092C26.6203 136.108 24.6489 135.978 30.5389 144.001C34.6668 149.624 49.5046 154.311 56.5695 149.811C67.0702 143.122 79.7274 147.15 80.3148 130.883V130.875Z" fill="#FCCE8E"/>
<path fill-rule="evenodd" clip-rule="evenodd" d="M30.5148 139.737C29.8147 138.061 27.964 138.679 26.58 139.094C25.7351 139.346 24.7776 140.266 24.9466 141.308C25.2121 142.959 25.5179 143.529 26.5237 144.888C28.0043 146.898 29.6297 146.768 31.4079 145.262C33.1862 143.749 31.4079 141.828 30.5228 139.737H30.5148Z" fill="#EDA169"/>
<path fill-rule="evenodd" clip-rule="evenodd" d="M30.547 140.535C29.9676 139.143 28.4227 139.656 27.272 139.997C26.5639 140.209 25.7673 140.966 25.9122 141.837C26.1375 143.212 26.3869 143.684 27.2238 144.815C28.4549 146.491 29.8067 146.377 31.2873 145.124C32.7678 143.871 31.2873 142.268 30.555 140.526L30.547 140.535Z" fill="#5E2F23"/>
<path fill-rule="evenodd" clip-rule="evenodd" d="M29.4124 141.584C28.5514 140.925 27.7709 141.812 27.1755 142.447C26.8134 142.837 26.5881 143.602 26.9824 144.09C27.61 144.864 27.9399 145.067 28.8653 145.474C30.2332 146.068 31.0378 145.506 31.5126 144.18C31.9873 142.854 30.4907 142.398 29.4124 141.584Z" fill="#87665E"/>
<path fill-rule="evenodd" clip-rule="evenodd" d="M29.171 142.805C28.471 142.683 28.2779 143.431 28.117 143.985C28.0204 144.326 28.1169 144.839 28.4871 145.01C29.0825 145.279 29.34 145.295 29.9998 145.254C30.9735 145.189 31.2792 144.619 31.1746 143.7C31.062 142.78 30.0481 142.967 29.1791 142.813L29.171 142.805Z" fill="#A75F47"/>
<path fill-rule="evenodd" clip-rule="evenodd" d="M50.591 151.439C50.6714 150.845 50.5588 150.568 50.2691 150.031C49.3116 148.273 45.9079 149.811 46.6321 151.724C46.8413 152.277 47.0585 152.659 47.5091 153.058C48.9575 154.328 50.4622 152.424 50.591 151.439Z" fill="#EDA169"/>
<path fill-rule="evenodd" clip-rule="evenodd" d="M50.2771 151.667C50.3415 151.186 50.253 150.959 50.0116 150.519C49.2311 149.087 46.455 150.34 47.0424 151.903C47.2114 152.358 47.3884 152.659 47.7586 152.985C48.9414 154.018 50.1725 152.472 50.2691 151.667H50.2771Z" fill="#5E2F23"/>
<path fill-rule="evenodd" clip-rule="evenodd" d="M49.8346 152C49.8829 151.642 49.8185 151.479 49.6415 151.162C49.0702 150.112 47.0344 151.032 47.4689 152.171C47.5976 152.505 47.7264 152.724 47.9919 152.969C48.8609 153.725 49.7541 152.594 49.8346 152Z" fill="#87665E"/>
<path fill-rule="evenodd" clip-rule="evenodd" d="M49.0219 152.366C49.046 152.163 49.0138 152.065 48.9092 151.878C48.5793 151.268 47.3965 151.805 47.6459 152.464C47.7183 152.659 47.7907 152.79 47.9517 152.928C48.4506 153.367 48.9736 152.708 49.0219 152.366Z" fill="#A75F47"/>
<path fill-rule="evenodd" clip-rule="evenodd" d="M43.0812 138.829C43.9274 139.015 46.7902 140.765 47.3616 138.554C47.7188 137.183 49.5925 136.991 49.6255 135.916C49.7244 132.591 45.1253 134.863 44.0593 135.488C43.4329 135.855 41.0482 138.379 43.0812 138.829Z" fill="#EDA169"/>
<path fill-rule="evenodd" clip-rule="evenodd" d="M43.7985 138.967C44.433 139.125 46.5774 140.578 47.0102 138.743C47.2807 137.596 48.6825 137.438 48.7071 136.542C48.7808 133.769 45.333 135.663 44.5313 136.182C44.0641 136.488 42.2738 138.596 43.7985 138.967Z" fill="#5E2F23"/>
<path fill-rule="evenodd" clip-rule="evenodd" d="M43.692 138.326C44.2222 138.419 46.0111 139.294 46.3724 138.191C46.5938 137.503 47.765 137.41 47.7883 136.87C47.8524 135.208 44.9739 136.344 44.3096 136.656C43.9192 136.837 42.4275 138.103 43.6978 138.326H43.692Z" fill="#87665E"/>
<path fill-rule="evenodd" clip-rule="evenodd" d="M41.7317 135.652C42.4317 136.547 44.1617 137.914 44.9342 136.311C45.7147 134.692 43.4134 134.342 42.8662 134.309C42.5444 134.293 41.0477 134.773 41.7397 135.652H41.7317Z" fill="#A75F47"/>
<path fill-rule="evenodd" clip-rule="evenodd" d="M74.9478 145.042C77.056 145.531 77.7802 145.222 79.1964 143.618C79.5665 143.203 79.8401 142.17 79.7194 141.519C79.4136 139.843 79.0435 140.282 78.4883 139.11C77.9974 138.069 74.6581 139.094 73.8696 139.485C69.4601 141.706 69.6451 143.806 74.9398 145.034L74.9478 145.042Z" fill="#EDA169"/>
<path fill-rule="evenodd" clip-rule="evenodd" d="M75.1973 144.758C76.887 145.148 77.4584 144.904 78.5929 143.619C78.8826 143.285 79.1079 142.463 79.0113 141.942C78.7699 140.6 78.4642 140.95 78.0297 140.022C77.6354 139.184 74.972 140.006 74.3363 140.323C70.8119 142.097 70.9567 143.781 75.1973 144.766V144.758Z" fill="#5E2F23"/>
<path fill-rule="evenodd" clip-rule="evenodd" d="M75.9376 144.489C77.1043 144.758 77.5066 144.587 78.2952 143.7C78.4964 143.472 78.6492 142.894 78.5849 142.536C78.4159 141.609 78.2067 141.845 77.9009 141.202C77.6273 140.624 75.7766 141.194 75.3421 141.413C72.896 142.642 73.0006 143.806 75.9376 144.489Z" fill="#87665E"/>
<path fill-rule="evenodd" clip-rule="evenodd" d="M76.4445 144.4C77.1284 144.554 77.3618 144.457 77.8285 143.936C77.9492 143.798 78.0377 143.464 77.9974 143.252C77.9009 142.707 77.7802 142.854 77.5951 142.471C77.4342 142.129 76.3479 142.471 76.0985 142.593C74.6662 143.318 74.7225 143.993 76.4445 144.4Z" fill="#A75F47"/>
<path fill-rule="evenodd" clip-rule="evenodd" d="M23.3051 118.881C22.3154 117.522 19.4589 115.292 17.8335 116.586C10.4387 122.478 26.749 123.609 23.3051 118.881Z" fill="#EDA169"/>
<path fill-rule="evenodd" clip-rule="evenodd" d="M22.7177 119.353C21.9211 118.262 19.6279 116.472 18.3243 117.514C12.386 122.241 25.4777 123.153 22.7177 119.353Z" fill="#5E2F23"/>
<path fill-rule="evenodd" clip-rule="evenodd" d="M21.2452 119.67C20.7061 118.921 19.137 117.701 18.2439 118.417C14.1884 121.648 23.1281 122.266 21.2452 119.67Z" fill="#87665E"/>
<path fill-rule="evenodd" clip-rule="evenodd" d="M19.4428 118.881C18.9198 118.734 17.745 118.742 17.5841 119.401C16.8599 122.404 21.2533 119.401 19.4428 118.881Z" fill="#A75F47"/>
<path fill-rule="evenodd" clip-rule="evenodd" d="M40.3477 112.94C40.8385 111.98 40.7902 111.191 40.2431 110.231C39.4384 108.815 36.1796 110.654 35.2059 110.873C34.2726 111.085 33.5886 111.126 33.5645 112.346C33.5484 112.997 34.5944 114.063 34.7956 114.755C35.6566 117.693 39.5189 114.56 40.3477 112.94Z" fill="#EDA169"/>
<path fill-rule="evenodd" clip-rule="evenodd" d="M39.4947 113.144C39.9051 112.354 39.8568 111.695 39.4062 110.906C38.7384 109.734 36.0347 111.256 35.2301 111.443C34.4576 111.622 33.8944 111.655 33.8702 112.664C33.8541 113.201 34.7231 114.088 34.8921 114.657C35.6083 117.09 38.8027 114.495 39.4947 113.152V113.144Z" fill="#5E2F23"/>
<path fill-rule="evenodd" clip-rule="evenodd" d="M38.3924 113.583C38.674 113.038 38.6419 112.59 38.3361 112.053C37.8774 111.248 36.0348 112.289 35.4796 112.419C34.9485 112.541 34.5623 112.566 34.5462 113.249C34.5381 113.616 35.1336 114.226 35.2462 114.616C35.7371 116.277 37.9177 114.503 38.3924 113.591V113.583Z" fill="#87665E"/>
<path fill-rule="evenodd" clip-rule="evenodd" d="M37.5716 114.161C37.7406 113.827 37.7245 113.559 37.5395 113.225C37.2578 112.737 36.1394 113.372 35.8014 113.445C35.4795 113.518 35.2462 113.534 35.2301 113.949C35.2301 114.177 35.5841 114.543 35.6566 114.779C35.9543 115.788 37.282 114.714 37.5716 114.153V114.161Z" fill="#A75F47"/>
<path fill-rule="evenodd" clip-rule="evenodd" d="M38.2878 94.1672C38.4246 93.1175 38.2395 92.6292 37.7165 91.669C37.5877 91.4411 37.4429 91.2377 37.2739 91.075C35.4956 94.094 33.7334 95.7621 31.9632 96.0876C32.1885 96.4131 32.4621 96.7224 32.8242 97.0397C35.391 99.2857 38.0625 95.9168 38.2958 94.1753L38.2878 94.1672Z" fill="#EDA169"/>
<path fill-rule="evenodd" clip-rule="evenodd" d="M37.4428 94.5577C37.5555 93.7114 37.4026 93.3208 36.9842 92.5559C36.8876 92.3769 36.775 92.2222 36.6382 92.092C35.1898 94.2973 33.7495 95.5993 32.3091 96.0062C32.5023 96.3073 32.7356 96.5758 33.0575 96.8525C35.1174 98.6509 37.2578 95.9573 37.4428 94.5577Z" fill="#5E2F23"/>
<path fill-rule="evenodd" clip-rule="evenodd" d="M36.7348 95.0867C36.8153 94.4764 36.7026 94.1997 36.4049 93.6464C36.2762 93.4185 36.1152 93.2395 35.9221 93.1174C34.9002 94.4601 33.8864 95.3552 32.8644 95.8028C33.0334 96.1527 33.2426 96.4375 33.5806 96.7386C35.0611 98.0325 36.6061 96.0876 36.7348 95.0867Z" fill="#87665E"/>
<path fill-rule="evenodd" clip-rule="evenodd" d="M35.906 95.64C35.9543 95.2494 35.8899 95.0703 35.6968 94.7204C35.5358 94.4275 35.2783 94.2729 34.9806 94.2322C34.4093 94.8344 33.83 95.29 33.2587 95.6074C33.2667 95.6806 33.2828 95.7539 33.315 95.8271C33.4518 96.1933 33.5966 96.4374 33.8943 96.6978C34.8438 97.5279 35.8255 96.2828 35.914 95.64H35.906Z" fill="#A75F47"/>
<path fill-rule="evenodd" clip-rule="evenodd" d="M54.8717 104.16C54.3326 103.306 51.0818 101.051 49.3437 103.745C48.7805 104.624 49.6817 105.193 48.3218 106.382C47.1711 107.391 47.2758 109.417 48.8126 109.62C50.2771 109.816 49.8667 109.034 51.7094 109.205C52.6267 109.295 60.3997 112.892 54.8636 104.152L54.8717 104.16Z" fill="#EDA169"/>
<path fill-rule="evenodd" clip-rule="evenodd" d="M53.9222 104.86C53.4716 104.152 50.776 102.272 49.3357 104.518C48.869 105.242 49.6173 105.722 48.4827 106.707C47.5252 107.545 47.6137 109.23 48.8931 109.4C50.1081 109.563 49.7702 108.912 51.299 109.059C52.0635 109.132 58.5168 112.118 53.9222 104.86Z" fill="#5E2F23"/>
<path fill-rule="evenodd" clip-rule="evenodd" d="M52.8198 106.145C52.5221 105.673 50.7438 104.436 49.7863 105.917C49.4805 106.398 49.9713 106.715 49.223 107.366C48.5954 107.919 48.6517 109.034 49.4966 109.14C50.3012 109.246 50.0759 108.823 51.0898 108.912C51.5887 108.961 55.8534 110.938 52.8198 106.137V106.145Z" fill="#87665E"/>
<path fill-rule="evenodd" clip-rule="evenodd" d="M51.6933 107.073C50.5668 105.291 48.9173 108.522 49.9392 108.652C51.3393 108.839 52.9244 109.018 51.6933 107.073Z" fill="#A75F47"/>
<path fill-rule="evenodd" clip-rule="evenodd" d="M84.9255 119.231C86.1567 118.059 88.2085 115.023 85.7704 113.526C85.1106 113.119 84.4428 113.526 83.6783 113.396C81.7633 113.079 80.1861 114.682 80.0252 115.951C79.9206 116.732 79.816 117.139 80.4758 117.75C80.6528 117.912 81.2885 118.767 81.2805 119.052C81.2402 120.948 84.2255 119.89 84.9175 119.231H84.9255Z" fill="#EDA169"/>
<path fill-rule="evenodd" clip-rule="evenodd" d="M84.6439 119.206C85.69 118.213 87.4361 115.626 85.3601 114.356C84.7968 114.014 84.2336 114.356 83.5818 114.242C81.9483 113.974 80.6126 115.341 80.4758 116.415C80.3873 117.082 80.2988 117.424 80.8621 117.945C81.0069 118.083 81.5541 118.807 81.546 119.052C81.5058 120.663 84.0485 119.768 84.6359 119.206H84.6439Z" fill="#5E2F23"/>
<path fill-rule="evenodd" clip-rule="evenodd" d="M83.8714 118.978C84.5876 118.295 85.7865 116.529 84.3622 115.658C83.976 115.422 83.5898 115.658 83.1472 115.585C82.0288 115.398 81.1114 116.334 81.0149 117.074C80.9586 117.53 80.8942 117.766 81.2804 118.124C81.385 118.221 81.7552 118.718 81.7471 118.881C81.723 119.987 83.461 119.369 83.8634 118.986L83.8714 118.978Z" fill="#87665E"/>
<path fill-rule="evenodd" clip-rule="evenodd" d="M83.1956 118.816C83.5979 118.433 84.2577 117.449 83.4691 116.968C83.2519 116.838 83.0427 116.968 82.7932 116.928C82.1736 116.822 81.6587 117.343 81.6104 117.758C81.5782 118.01 81.538 118.14 81.7552 118.344C81.8115 118.392 82.0208 118.677 82.0208 118.767C82.0047 119.377 82.9783 119.035 83.2036 118.824L83.1956 118.816Z" fill="#A75F47"/>
<path fill-rule="evenodd" clip-rule="evenodd" d="M63.9643 122.372C61.8078 122.502 61.9366 124.406 61.9768 125.814C62.0009 126.676 62.7573 127.848 64.0126 128.011C66.0081 128.271 66.7645 128.174 68.6554 127.661C71.4476 126.912 71.8177 125.374 70.6349 123.259C69.452 121.143 66.6679 122.201 63.9643 122.364V122.372Z" fill="#EDA169"/>
<path fill-rule="evenodd" clip-rule="evenodd" d="M63.8194 123.055C62.0975 123.161 62.2021 124.674 62.2343 125.797C62.2504 126.489 62.8538 127.417 63.8597 127.547C65.4448 127.758 66.0483 127.677 67.5611 127.27C69.79 126.668 70.0796 125.447 69.1382 123.763C68.1968 122.079 65.9759 122.925 63.8275 123.055H63.8194Z" fill="#5E2F23"/>
<path fill-rule="evenodd" clip-rule="evenodd" d="M63.8919 124.39C62.7412 124.463 62.8136 125.472 62.8378 126.221C62.8539 126.676 63.2481 127.303 63.924 127.384C64.9781 127.523 65.3805 127.466 66.3863 127.197C67.8749 126.798 68.068 125.985 67.4404 124.862C66.8128 123.739 65.3322 124.3 63.8999 124.39H63.8919Z" fill="#87665E"/>
<path fill-rule="evenodd" clip-rule="evenodd" d="M63.6665 125.236C62.9424 125.277 62.9906 125.919 62.9987 126.391C62.9987 126.684 63.2562 127.075 63.6826 127.124C64.3505 127.213 64.5999 127.181 65.2356 127.01C66.169 126.758 66.2978 126.245 65.9035 125.537C65.5092 124.829 64.5758 125.187 63.6665 125.236Z" fill="#A75F47"/>
<path fill-rule="evenodd" clip-rule="evenodd" d="M69.4439 138.183C69.629 138.012 69.9267 137.565 69.5727 137.345C69.4761 137.288 69.3796 137.345 69.2669 137.329C68.9853 137.28 68.7519 137.516 68.7278 137.703C68.7117 137.817 68.6956 137.882 68.7922 137.971C68.8163 137.996 68.9129 138.118 68.9129 138.167C68.9129 138.443 69.3474 138.289 69.452 138.191L69.4439 138.183Z" fill="#EDA169"/>
<path fill-rule="evenodd" clip-rule="evenodd" d="M67.2553 105.666C67.2714 105.519 67.2553 105.454 67.1749 105.316C66.9335 104.884 66.0966 105.259 66.2736 105.739C66.3219 105.877 66.3783 105.967 66.4909 106.072C66.853 106.39 67.2231 105.918 67.2553 105.674V105.666Z" fill="#EDA169"/>
<path fill-rule="evenodd" clip-rule="evenodd" d="M73.6201 106.797C73.5236 106.65 72.9683 106.259 72.6706 106.723C72.5741 106.878 72.7269 106.976 72.4936 107.179C72.2924 107.35 72.3166 107.7 72.5821 107.74C72.8316 107.773 72.7672 107.643 73.081 107.667C73.2419 107.684 74.5777 108.302 73.6282 106.797H73.6201Z" fill="#EDA169"/>
<path fill-rule="evenodd" clip-rule="evenodd" d="M71.9867 96.9583C72.1316 96.6817 72.1155 96.4538 71.9545 96.1771C71.7212 95.7703 70.7797 96.2992 70.4981 96.3643C70.2326 96.4294 70.0314 96.4375 70.0234 96.7874C70.0234 96.9746 70.3211 97.2838 70.3774 97.4791C70.6269 98.3254 71.7373 97.4222 71.9787 96.9583H71.9867Z" fill="#EDA169"/>
<path fill-rule="evenodd" clip-rule="evenodd" d="M67.8025 142.617C68.0922 142.683 68.1968 142.642 68.3899 142.422C68.4382 142.365 68.4784 142.219 68.4623 142.129C68.4221 141.893 68.3658 141.958 68.2934 141.796C68.221 141.649 67.7623 141.796 67.6496 141.844C67.0381 142.154 67.0622 142.447 67.8025 142.617Z" fill="#EDA169"/>
<path fill-rule="evenodd" clip-rule="evenodd" d="M25.6547 126.831C26.2823 126.969 28.1733 126.579 28.1974 125.684C28.2377 124.374 26.5479 125.643 26.1375 125.887C25.8961 126.034 24.8662 126.652 25.6547 126.831Z" fill="#EDA169"/>
<path fill-rule="evenodd" clip-rule="evenodd" d="M26.5398 134.497C26.3708 134.106 25.9363 134.244 25.6145 134.342C25.4133 134.399 25.188 134.619 25.2282 134.863C25.2926 135.253 25.365 135.384 25.5984 135.709C25.9444 136.181 26.3306 136.157 26.749 135.799C27.1674 135.44 26.749 134.993 26.5398 134.497Z" fill="#EDA169"/>
<path fill-rule="evenodd" clip-rule="evenodd" d="M65.9035 138.907C65.6541 138.923 65.6702 139.143 65.6702 139.306C65.6702 139.403 65.7587 139.542 65.9035 139.558C66.1369 139.591 66.2254 139.574 66.4427 139.517C66.7645 139.428 66.8128 139.249 66.676 139.005C66.5392 138.761 66.2174 138.883 65.9035 138.899V138.907Z" fill="#EDA169"/>
<path fill-rule="evenodd" clip-rule="evenodd" d="M32.1322 137.654C32.1483 137.516 32.1322 137.45 32.0597 137.328C31.8344 136.922 31.0539 137.28 31.2229 137.719C31.2712 137.849 31.3195 137.931 31.4241 138.028C31.762 138.321 32.108 137.882 32.1402 137.654H32.1322Z" fill="#EDA169"/>
<path fill-rule="evenodd" clip-rule="evenodd" d="M86.2451 122.648C86.4865 122.421 86.8889 121.818 86.4141 121.525C86.2854 121.444 86.1566 121.525 86.0038 121.501C85.6256 121.436 85.3198 121.753 85.2876 122.006C85.2715 122.16 85.2474 122.242 85.3761 122.355C85.4083 122.388 85.5371 122.559 85.5371 122.608C85.529 122.982 86.1164 122.77 86.2532 122.64L86.2451 122.648Z" fill="#EDA169"/>
<path fill-rule="evenodd" clip-rule="evenodd" d="M79.47 126.676C79.8562 126.766 79.993 126.709 80.2505 126.416C80.3149 126.343 80.3712 126.147 80.3471 126.025C80.2907 125.716 80.2183 125.797 80.1218 125.578C80.0332 125.382 79.4137 125.578 79.2688 125.651C78.4561 126.058 78.4883 126.448 79.47 126.676Z" fill="#EDA169"/>
<path fill-rule="evenodd" clip-rule="evenodd" d="M74.111 118.677C73.781 118.693 73.7971 118.994 73.8052 119.206C73.8052 119.336 73.9259 119.523 74.119 119.548C74.4248 119.588 74.5455 119.572 74.8351 119.491C75.2697 119.377 75.326 119.141 75.1409 118.807C74.9558 118.482 74.5294 118.644 74.111 118.669V118.677Z" fill="#EDA169"/>
<path fill-rule="evenodd" clip-rule="evenodd" d="M84.1691 124.837C84.1128 124.642 84.0565 124.601 83.8634 124.561C83.8151 124.553 83.7185 124.577 83.6703 124.618C83.5496 124.723 83.6059 124.732 83.5335 124.829C83.4771 124.919 83.7105 125.138 83.7749 125.187C84.1531 125.439 84.314 125.334 84.1611 124.845L84.1691 124.837Z" fill="#EDA169"/>
<path fill-rule="evenodd" clip-rule="evenodd" d="M38.5292 142.455C38.6338 142.284 38.6258 142.211 38.5292 142.04C38.5051 141.999 38.4246 141.942 38.3602 141.934C38.2074 141.91 38.2315 141.959 38.1188 141.975C38.0142 141.991 38.0062 142.317 38.0223 142.398C38.0867 142.854 38.2798 142.894 38.5373 142.463L38.5292 142.455Z" fill="#EDA169"/>
<path fill-rule="evenodd" clip-rule="evenodd" d="M29.1871 134.228C29.1469 134.391 29.2837 134.423 29.3883 134.456C29.4527 134.472 29.5573 134.448 29.5975 134.358C29.6619 134.22 29.678 134.155 29.686 134.008C29.6941 133.78 29.5975 133.715 29.4124 133.756C29.2274 133.797 29.2435 134.025 29.1871 134.228Z" fill="#EDA169"/>
<path fill-rule="evenodd" clip-rule="evenodd" d="M41.3696 96.7712C41.611 96.5434 42.0133 95.9412 41.5386 95.6482C41.4098 95.5669 41.2811 95.6482 41.1282 95.6238C40.75 95.5587 40.4443 95.8761 40.4121 96.1283C40.396 96.283 40.3718 96.3643 40.5006 96.4783C40.5328 96.5108 40.6615 96.6817 40.6615 96.7305C40.6535 97.1048 41.2409 96.8933 41.3776 96.7631L41.3696 96.7712Z" fill="#EDA169"/>
<path fill-rule="evenodd" clip-rule="evenodd" d="M39.2855 98.9599C39.2292 98.7646 39.1729 98.7239 38.9798 98.6832C38.9315 98.6751 38.8349 98.6995 38.7867 98.7402C38.666 98.8459 38.7223 98.8541 38.6499 98.9517C38.5935 99.0413 38.8269 99.261 38.8913 99.3098C39.2695 99.5621 39.4304 99.4563 39.2775 98.968L39.2855 98.9599Z" fill="#EDA169"/>
<path fill-rule="evenodd" clip-rule="evenodd" d="M27.4008 108.814C27.2318 108.416 26.7973 108.562 26.4755 108.66C26.2743 108.717 26.049 108.937 26.0892 109.181C26.1536 109.571 26.226 109.701 26.4594 110.027C26.8054 110.499 27.1916 110.475 27.61 110.116C28.0285 109.758 27.61 109.311 27.4008 108.814Z" fill="#EDA169"/>
<path fill-rule="evenodd" clip-rule="evenodd" d="M37.6682 108.139C37.6843 108.001 37.6682 107.936 37.5958 107.813C37.3705 107.407 36.59 107.765 36.7509 108.204C36.7992 108.334 36.8475 108.416 36.9521 108.513C37.29 108.806 37.636 108.367 37.6682 108.139Z" fill="#EDA169"/>
<path fill-rule="evenodd" clip-rule="evenodd" d="M32.7115 100.457C32.6713 100.62 32.8081 100.653 32.9127 100.685C32.9771 100.702 33.0817 100.677 33.1219 100.588C33.1863 100.449 33.2024 100.384 33.2104 100.238C33.2185 100.01 33.1219 99.9448 32.9368 99.9855C32.7518 100.026 32.7679 100.254 32.7115 100.457Z" fill="#EDA169"/>
<path fill-rule="evenodd" clip-rule="evenodd" d="M56.8512 146.206C56.8672 146.068 56.8512 146.003 56.7787 145.881C56.5534 145.474 55.7729 145.832 55.9419 146.271C55.9902 146.402 56.0385 146.483 56.1431 146.581C56.481 146.874 56.827 146.434 56.8592 146.206H56.8512Z" fill="#EDA169"/>
<path fill-rule="evenodd" clip-rule="evenodd" d="M55.9338 116.537C55.9499 116.399 55.9338 116.334 55.8614 116.212C55.6361 115.805 54.8556 116.163 55.0245 116.602C55.0728 116.732 55.1211 116.814 55.2257 116.912C55.5637 117.204 55.9097 116.765 55.9418 116.537H55.9338Z" fill="#EDA169"/>
<path fill-rule="evenodd" clip-rule="evenodd" d="M62.3309 121.346C62.4355 121.175 62.4274 121.102 62.3309 120.931C62.3067 120.891 62.2262 120.834 62.1619 120.826C62.009 120.801 62.0331 120.85 61.9205 120.866C61.8159 120.883 61.8078 121.208 61.8239 121.289C61.8883 121.745 62.0814 121.786 62.3389 121.355L62.3309 121.346Z" fill="#EDA169"/>
<path fill-rule="evenodd" clip-rule="evenodd" d="M52.9888 113.111C52.9486 113.274 53.0854 113.307 53.19 113.339C53.2544 113.355 53.359 113.331 53.3992 113.241C53.4636 113.103 53.4797 113.038 53.4877 112.892C53.4958 112.664 53.3992 112.599 53.2141 112.639C53.0291 112.68 53.0452 112.908 52.9888 113.111Z" fill="#EDA169"/>
<path fill-rule="evenodd" clip-rule="evenodd" d="M51.2588 125.659C51.2025 125.464 51.1462 125.423 50.953 125.382C50.9048 125.374 50.8082 125.399 50.7599 125.439C50.6392 125.545 50.6956 125.553 50.6231 125.651C50.5668 125.74 50.8002 125.96 50.8645 126.009C51.2427 126.261 51.4036 126.155 51.2508 125.667L51.2588 125.659Z" fill="#EDA169"/>
<path fill-rule="evenodd" clip-rule="evenodd" d="M46.6642 115.666C46.5515 116.098 46.9297 116.187 47.2033 116.269C47.3723 116.317 47.6378 116.244 47.7505 116.008C47.9275 115.634 47.9516 115.479 47.9758 115.08C48.008 114.486 47.7344 114.316 47.2596 114.413C46.7769 114.511 46.809 115.121 46.6722 115.666H46.6642Z" fill="#EDA169"/>
<path fill-rule="evenodd" clip-rule="evenodd" d="M43.2365 150.129C43.0675 149.738 42.633 149.876 42.3111 149.974C42.1099 150.031 41.8846 150.251 41.9249 150.495C41.9892 150.885 42.0617 151.016 42.295 151.341C42.641 151.813 43.0272 151.789 43.4457 151.431C43.8641 151.073 43.4457 150.625 43.2365 150.129Z" fill="#EDA169"/>
<path fill-rule="evenodd" clip-rule="evenodd" d="M35.8899 134.985C35.906 134.838 35.8899 134.773 35.8094 134.635C35.5681 134.203 34.7312 134.578 34.9082 135.058C34.9565 135.196 35.0128 135.286 35.1255 135.392C35.4876 135.709 35.8577 135.237 35.8899 134.993V134.985Z" fill="#EDA169"/>
<path fill-rule="evenodd" clip-rule="evenodd" d="M40.6294 126.278C40.7742 126.001 40.7581 125.773 40.5972 125.496C40.3638 125.09 39.4224 125.619 39.1408 125.684C38.8752 125.749 38.6741 125.757 38.666 126.107C38.666 126.294 38.9637 126.603 39.0201 126.798C39.2695 127.645 40.3799 126.741 40.6213 126.278H40.6294Z" fill="#EDA169"/>
<path fill-rule="evenodd" clip-rule="evenodd" d="M55.5476 94.5738C58.034 96.063 61.0515 96.535 64.592 95.9898C61.4618 96.1932 58.4283 95.5585 55.4994 94.0937C52.7394 96.7384 49.7702 96.6896 46.5918 93.9554C43.9526 94.346 41.5386 93.8903 39.3741 92.572C41.7398 94.2728 44.0089 94.9563 46.1815 94.6308C49.2633 97.1046 52.3934 97.0883 55.5637 94.5738H55.5476Z" fill="#FCCE8E"/>
<path d="M56.7626 131.648C56.1994 132.332 56.3281 133.39 57.0523 134L63.0872 139.127C63.8114 139.745 64.8575 139.688 65.4288 139.005L69.0014 134.7C69.5647 134.025 69.4359 132.967 68.7118 132.348L62.6768 127.222C61.9527 126.603 60.8986 126.66 60.3353 127.336L56.7626 131.64V131.648Z" fill="#EAA77C"/>
<path d="M55.2419 128.865C54.4533 129.15 54.0349 129.899 54.3085 130.533C54.582 131.168 55.443 131.453 56.2396 131.16L60.287 129.687C61.0756 129.402 61.5021 128.654 61.2124 128.019C60.9388 127.392 60.0778 127.108 59.2893 127.392L55.2419 128.865Z" fill="#EAA77C"/>
<path d="M59.7157 138.753C59.0801 139.648 59.2169 140.803 60.0054 141.357C60.802 141.91 61.9527 141.625 62.5884 140.73L65.807 136.173C66.4427 135.278 66.3059 134.114 65.5093 133.569C64.7127 133.016 63.562 133.292 62.9263 134.187L59.7077 138.753H59.7157Z" fill="#EAA77C"/>
<path d="M57.2293 137.206C56.4488 138.28 56.4488 139.615 57.2374 140.168C58.026 140.73 59.2973 140.307 60.0778 139.224L64.0689 133.683C64.8494 132.609 64.8494 131.274 64.0528 130.721C63.2723 130.159 61.9929 130.582 61.2124 131.665L57.2213 137.206H57.2293Z" fill="#EAA77C"/>
<path d="M54.0992 135.725C53.3589 136.702 53.3831 137.963 54.1555 138.541C54.92 139.127 56.1511 138.801 56.8914 137.825L60.6732 132.82C61.4135 131.835 61.3894 130.574 60.6169 129.996C59.8525 129.419 58.6214 129.736 57.8811 130.713L54.0992 135.725Z" fill="#EAA77C"/>
<path d="M95.0159 114.478L62.5561 125.618L60.3112 126.025L63.4413 128.117L61.1158 130.037L63.908 131.388L62.4113 133.878L65.4046 134.041L63.5137 137.125L66.33 137.768L65.1954 140.469L68.9049 138.492C78.9148 135.204 88.9247 131.917 98.9265 128.629C99.4093 128.409 100.206 127.978 100.874 127.132C100.874 127.132 101.92 125.805 102 123.592C102.097 120.825 99.4495 117.196 95.0239 114.47L95.0159 114.478Z" fill="#714119"/>
<path d="M43.4135 131.429C43.8641 132.194 43.5663 133.211 42.7536 133.699L35.9785 137.768C35.1658 138.256 34.1358 138.028 33.6852 137.263L30.8448 132.43C30.3942 131.665 30.6919 130.648 31.5046 130.159L38.2798 126.091C39.0925 125.602 40.1224 125.83 40.573 126.587L43.4135 131.421V131.429Z" fill="#EAA77C"/>
<path d="M45.3607 128.93C46.0929 129.345 46.3826 130.151 46.0125 130.729C45.6423 131.306 44.7492 131.445 44.0089 131.03L40.2511 128.914C39.5189 128.499 39.2212 127.693 39.5994 127.116C39.9695 126.538 40.8707 126.4 41.5949 126.815L45.3526 128.938L45.3607 128.93Z" fill="#EAA77C"/>
<path d="M39.366 137.963C39.8488 138.948 39.535 140.071 38.6579 140.486C37.7889 140.901 36.6865 140.429 36.2118 139.444L33.7656 134.415C33.2828 133.431 33.5966 132.299 34.4737 131.893C35.3427 131.478 36.4451 131.941 36.9198 132.926L39.366 137.955V137.963Z" fill="#EAA77C"/>
<path d="M42.0696 136.832C42.6651 138.02 42.4478 139.338 41.5868 139.753C40.7178 140.176 39.535 139.55 38.9395 138.354L35.8818 132.234C35.2864 131.046 35.5037 129.728 36.3727 129.313C37.2337 128.89 38.4245 129.516 39.02 130.704L42.0696 136.824V136.832Z" fill="#EAA77C"/>
<path d="M45.3929 135.888C45.9722 136.979 45.7389 138.215 44.8859 138.663C44.033 139.111 42.8823 138.59 42.303 137.508L39.374 131.95C38.7947 130.859 39.028 129.614 39.889 129.175C40.7339 128.727 41.9007 129.248 42.472 130.33L45.4009 135.888H45.3929Z" fill="#EAA77C"/>
<path d="M8.41097 108.221L38.6579 124.536L40.8064 125.309L37.3785 126.864L39.366 129.142L36.3888 130.013L37.467 132.715L34.4898 132.389L35.8658 135.742L32.9771 135.913L33.6691 138.769L30.3298 136.206C20.9797 131.323 11.6296 126.441 2.27951 121.558C1.83695 121.265 1.1208 120.704 0.59778 119.76C0.59778 119.76 -0.222968 118.279 0.0586611 116.09C0.404663 113.339 3.59914 110.198 8.40293 108.237L8.41097 108.221Z" fill="#714119"/>
<path d="M0.509277 114.617C6.06944 102.955 11.6216 91.2945 17.1817 79.6335C20.6256 72.3911 23.9971 72.6434 27.4893 74.3522C32.2127 76.6551 28.463 88.6579 24.6409 96.6734C20.6739 105.006 16.6989 113.347 12.732 121.68" fill="#714119"/>
<defs>
<filter id="filter0_d_57_1840" x="24.0488" y="20.0422" width="58.3701" height="55.6585" filterUnits="userSpaceOnUse" color-interpolation-filters="sRGB">
<feFlood flood-opacity="0" result="BackgroundImageFix"/>
<feColorMatrix in="SourceAlpha" type="matrix" values="0 0 0 0 0 0 0 0 0 0 0 0 0 0 0 0 0 0 127 0" result="hardAlpha"/>
<feOffset dx="0.73" dy="0.73"/>
<feColorMatrix type="matrix" values="0 0 0 0 0.00392157 0 0 0 0 0.00784314 0 0 0 0 0.00784314 0 0 0 0.42 0"/>
<feBlend mode="normal" in2="BackgroundImageFix" result="effect1_dropShadow_57_1840"/>
<feBlend mode="normal" in="SourceGraphic" in2="effect1_dropShadow_57_1840" result="shape"/>
</filter>
</defs>
</svg>
