<svg width="35" height="30" viewBox="0 0 35 30" fill="none" xmlns="http://www.w3.org/2000/svg">
<g clip-path="url(#clip0_68_3367)">
<path fill-rule="evenodd" clip-rule="evenodd" d="M28.0478 0.260912C19.826 9.71164 8.54102 10.6696 3.85736 2.49492C4.44101 1.89442 5.75692 1.34753 5.99618 1.54055C7.63111 4.06766 9.44367 3.31346 11.0967 0.557588C12.2821 1.60131 13.6198 2.01595 15.1134 1.79076C16.5344 2.92027 17.8177 2.94172 18.9669 1.84795C26.75 5.35087 25.1477 -1.37259 28.0442 0.257338L28.0478 0.260912Z" fill="#FAC080"/>
<path fill-rule="evenodd" clip-rule="evenodd" d="M22.1098 29.0744C18.6514 31.1976 10.4623 29.2281 8.59174 27.541C7.02931 26.1327 3.81746 24.7387 2.36378 21.032C1.08774 17.7686 0.398968 15.5703 0.855733 12.1711C1.25087 9.22219 1.41763 5.74786 3.12506 3.40663C3.36432 3.08136 3.6072 2.77753 3.85733 2.49158C4.85424 2.72749 5.59377 2.55592 6.07228 1.97329C7.70721 4.5004 9.34939 4.38601 11.0024 1.63015C12.1879 2.67387 13.5255 3.08851 15.0191 2.86332C16.4401 3.99283 17.7234 4.01428 18.8726 2.92051C22.6971 4.65052 25.5392 3.67828 27.3989 -0.00335693L28.0731 0.268298C28.5589 0.682929 29.0084 1.14403 29.5449 1.5944C30.4621 2.36648 31.4771 3.23148 31.8433 3.86058C32.4342 4.87928 33.0178 7.6137 33.6776 8.79326C34.6129 10.4732 35.3198 14.6338 33.9531 17.6578C32.068 21.8327 31.1472 25.2212 26.3875 27.6661C24.7815 28.4918 23.2445 28.3667 22.1098 29.0637V29.0744Z" fill="#FAC080"/>
<path fill-rule="evenodd" clip-rule="evenodd" d="M8.07335 22.1756C7.76884 21.4679 6.97132 21.7324 6.36955 21.9039C6.00341 22.0112 5.59015 22.3972 5.66265 22.8369C5.77865 23.5339 5.90916 23.7734 6.34417 24.3488C6.98582 25.196 7.68547 25.1424 8.45399 24.5061C9.22614 23.8699 8.45399 23.0585 8.07335 22.1756Z" fill="#FAC080"/>
<path fill-rule="evenodd" clip-rule="evenodd" d="M8.08424 22.5117C7.83048 21.9255 7.16709 22.1435 6.66682 22.2865C6.36231 22.3758 6.01792 22.6975 6.07955 23.0621C6.1738 23.6412 6.28618 23.8413 6.64507 24.3203C7.17796 25.0245 7.76161 24.9816 8.40325 24.4526C9.0449 23.9235 8.40325 23.248 8.08424 22.5152V22.5117Z" fill="#5E2F23"/>
<path fill-rule="evenodd" clip-rule="evenodd" d="M7.59484 22.9549C7.22145 22.6797 6.88794 23.0514 6.62693 23.3195C6.46743 23.4839 6.37317 23.8056 6.54355 24.0129C6.81544 24.3382 6.95682 24.4275 7.35921 24.5955C7.9501 24.8457 8.29811 24.6098 8.50474 24.0522C8.71137 23.491 8.06248 23.3016 7.59484 22.9549Z" fill="#87665E"/>
<path fill-rule="evenodd" clip-rule="evenodd" d="M7.48968 23.4696C7.1888 23.416 7.10179 23.7341 7.03291 23.9664C6.98941 24.1094 7.03292 24.3275 7.19242 24.399C7.4498 24.5098 7.55856 24.5205 7.84494 24.5026C8.26908 24.474 8.39958 24.2345 8.35246 23.8485C8.30533 23.4589 7.86669 23.5375 7.48968 23.4732V23.4696Z" fill="#A75F47"/>
<path fill-rule="evenodd" clip-rule="evenodd" d="M16.7555 27.1119C16.7881 26.8617 16.741 26.7437 16.6141 26.5185C16.1972 25.7786 14.7254 26.4256 15.0408 27.2334C15.1314 27.4657 15.2257 27.6266 15.4215 27.7946C16.0486 28.3308 16.7011 27.5265 16.7555 27.1119Z" fill="#FAC080"/>
<path fill-rule="evenodd" clip-rule="evenodd" d="M16.6178 27.2084C16.6468 27.0047 16.6069 26.9082 16.5018 26.7223C16.1646 26.1182 14.9611 26.6473 15.2185 27.3049C15.291 27.4944 15.3671 27.6266 15.5302 27.7625C16.0414 28.1986 16.5743 27.5444 16.6178 27.2084Z" fill="#5E2F23"/>
<path fill-rule="evenodd" clip-rule="evenodd" d="M16.4293 27.3478C16.451 27.1976 16.422 27.1297 16.3459 26.9939C16.0994 26.5507 15.2185 26.9367 15.4033 27.4193C15.4577 27.5587 15.5121 27.6552 15.6317 27.7553C16.0051 28.0734 16.3966 27.5944 16.4293 27.3478Z" fill="#87665E"/>
<path fill-rule="evenodd" clip-rule="evenodd" d="M16.0776 27.5015C16.0885 27.4157 16.074 27.3764 16.0305 27.2942C15.8855 27.0368 15.378 27.262 15.4867 27.5408C15.5193 27.623 15.552 27.6766 15.6172 27.7338C15.8347 27.9197 16.0595 27.6409 16.0776 27.4979V27.5015Z" fill="#A75F47"/>
<path fill-rule="evenodd" clip-rule="evenodd" d="M12.2096 20.896C12.7461 21.0139 14.5587 22.1077 14.9212 20.7244C15.1496 19.8666 16.335 19.745 16.3567 19.073C16.4184 16.9927 13.5038 18.4154 12.8295 18.805C12.4344 19.0337 10.9227 20.6136 12.2096 20.896Z" fill="#FAC080"/>
<path fill-rule="evenodd" clip-rule="evenodd" d="M12.438 20.8674C12.8875 20.9639 14.4064 21.8826 14.711 20.7244C14.8995 20.006 15.8964 19.9059 15.9109 19.3411C15.9652 17.6004 13.5219 18.7907 12.9564 19.116C12.6265 19.309 11.3577 20.6315 12.438 20.8674Z" fill="#5E2F23"/>
<path fill-rule="evenodd" clip-rule="evenodd" d="M12.8512 20.8495C13.1666 20.9174 14.236 21.5644 14.4499 20.7494C14.5841 20.2419 15.2837 20.174 15.2946 19.7736C15.3308 18.5476 13.6125 19.384 13.2138 19.6164C12.9817 19.7522 12.09 20.6815 12.8476 20.8495H12.8512Z" fill="#87665E"/>
<path fill-rule="evenodd" clip-rule="evenodd" d="M12.9201 20.4492C13.2247 20.8281 13.9714 21.4036 14.3049 20.728C14.6421 20.0453 13.6488 19.8952 13.4095 19.8809C13.2682 19.8737 12.6229 20.0775 12.9201 20.4456V20.4492Z" fill="#A75F47"/>
<path fill-rule="evenodd" clip-rule="evenodd" d="M27.2937 24.4132C28.2073 24.6169 28.519 24.4883 29.1317 23.8127C29.2912 23.6376 29.4108 23.2015 29.3564 22.9262C29.2259 22.2185 29.0628 22.4044 28.8235 21.9111C28.6097 21.4715 27.1669 21.904 26.8261 22.0684C24.9193 23.0049 24.999 23.8913 27.2901 24.4096L27.2937 24.4132Z" fill="#FAC080"/>
<path fill-rule="evenodd" clip-rule="evenodd" d="M27.4025 24.2916C28.1311 24.456 28.3812 24.3524 28.8743 23.8126C29.0011 23.6732 29.0954 23.3265 29.0555 23.1049C28.9504 22.5401 28.8199 22.6867 28.6314 22.2935C28.461 21.9396 27.3082 22.2864 27.0363 22.4186C25.5102 23.1692 25.5754 23.877 27.4061 24.2916H27.4025Z" fill="#5E2F23"/>
<path fill-rule="evenodd" clip-rule="evenodd" d="M27.7215 24.1772C28.229 24.2916 28.3994 24.2201 28.7402 23.8448C28.8272 23.7483 28.8924 23.5053 28.867 23.3551C28.7945 22.9619 28.7039 23.0656 28.5734 22.794C28.4538 22.5509 27.6563 22.7904 27.4677 22.8833C26.4092 23.4016 26.4527 23.8949 27.7251 24.1808L27.7215 24.1772Z" fill="#87665E"/>
<path fill-rule="evenodd" clip-rule="evenodd" d="M27.939 24.1415C28.2363 24.2095 28.3378 24.1666 28.5371 23.9449C28.5879 23.8878 28.6278 23.7484 28.6096 23.659C28.5661 23.4302 28.5154 23.4874 28.4356 23.3301C28.3668 23.1872 27.8991 23.3301 27.7867 23.3802C27.1669 23.684 27.1922 23.9735 27.939 24.1415Z" fill="#A75F47"/>
<path fill-rule="evenodd" clip-rule="evenodd" d="M4.95211 13.3755C4.52435 12.8 3.28818 11.8599 2.58491 12.4068C-0.616074 14.891 6.44203 15.37 4.95211 13.3755Z" fill="#FAC080"/>
<path fill-rule="evenodd" clip-rule="evenodd" d="M4.69838 13.5792C4.35399 13.1181 3.36433 12.3639 2.79519 12.8035C0.224979 14.7981 5.89104 15.1841 4.69838 13.5792Z" fill="#5E2F23"/>
<path fill-rule="evenodd" clip-rule="evenodd" d="M4.06034 13.7114C3.8247 13.3969 3.14681 12.8822 2.76254 13.1824C1.00799 14.5443 4.87599 14.8052 4.06034 13.7114Z" fill="#87665E"/>
<path fill-rule="evenodd" clip-rule="evenodd" d="M3.28094 13.379C3.05618 13.3183 2.54867 13.3183 2.47979 13.5971C2.1644 14.866 4.06759 13.5971 3.28094 13.379Z" fill="#A75F47"/>
<path fill-rule="evenodd" clip-rule="evenodd" d="M12.3256 10.8733C12.5395 10.4694 12.5178 10.1334 12.2821 9.73309C11.9341 9.13616 10.5239 9.91181 10.1034 10.0047C9.70104 10.0941 9.40378 10.112 9.39291 10.6231C9.38566 10.8983 9.8388 11.3487 9.9258 11.6382C10.2992 12.875 11.9667 11.556 12.3293 10.8733H12.3256Z" fill="#FAC080"/>
<path fill-rule="evenodd" clip-rule="evenodd" d="M11.9559 10.9591C12.1335 10.6231 12.1154 10.3479 11.9196 10.0119C11.6296 9.51863 10.4623 10.1584 10.1143 10.2371C9.78079 10.3121 9.53428 10.3264 9.5234 10.7518C9.51978 10.9806 9.89317 11.3523 9.96567 11.5918C10.2738 12.6176 11.6586 11.5239 11.9559 10.9555V10.9591Z" fill="#5E2F23"/>
<path fill-rule="evenodd" clip-rule="evenodd" d="M11.4773 11.1414C11.597 10.9127 11.5861 10.7232 11.4519 10.4945C11.2526 10.1549 10.455 10.5946 10.2158 10.6482C9.9874 10.6982 9.82064 10.7089 9.81339 10.9985C9.80977 11.1557 10.0672 11.4095 10.1143 11.5739C10.3245 12.2745 11.2707 11.5275 11.4737 11.1414H11.4773Z" fill="#87665E"/>
<path fill-rule="evenodd" clip-rule="evenodd" d="M11.1257 11.3881C11.1982 11.2487 11.191 11.1343 11.1112 10.9949C10.9916 10.7876 10.5058 11.0557 10.3608 11.0878C10.2231 11.12 10.1179 11.1236 10.1143 11.3023C10.1143 11.3988 10.2666 11.5525 10.2992 11.6526C10.4297 12.0815 11.0025 11.624 11.1294 11.3881H11.1257Z" fill="#A75F47"/>
<path fill-rule="evenodd" clip-rule="evenodd" d="M11.4339 2.95603C11.4919 2.5128 11.4121 2.30548 11.1837 1.90158C11.1294 1.80507 11.0641 1.72286 10.9916 1.65137C10.2231 2.92386 9.45817 3.62801 8.6969 3.76384C8.79478 3.90324 8.91441 4.03192 9.07029 4.16418C10.1832 5.11139 11.336 3.69235 11.4375 2.95603H11.4339Z" fill="#FAC080"/>
<path fill-rule="evenodd" clip-rule="evenodd" d="M11.0677 3.11687C11.1148 2.76301 11.0496 2.59501 10.8683 2.27331C10.8248 2.19825 10.7777 2.13391 10.7197 2.07672C10.0925 3.00607 9.46902 3.55653 8.84912 3.7281C8.9325 3.8532 9.034 3.96758 9.17176 4.08554C10.0635 4.84331 10.9879 3.70665 11.0677 3.11687Z" fill="#5E2F23"/>
<path fill-rule="evenodd" clip-rule="evenodd" d="M10.7632 3.34208C10.7958 3.08472 10.7487 2.96677 10.6182 2.73443C10.5638 2.63792 10.4913 2.56286 10.4079 2.51282C9.96568 3.07757 9.52704 3.45646 9.08478 3.6459C9.15728 3.79603 9.24791 3.91399 9.39654 4.03909C10.0382 4.58597 10.7052 3.76743 10.7596 3.34208H10.7632Z" fill="#87665E"/>
<path fill-rule="evenodd" clip-rule="evenodd" d="M10.4043 3.57801C10.426 3.41358 10.397 3.33852 10.3137 3.18839C10.2448 3.06686 10.1324 3.00253 10.0019 2.98108C9.75177 3.23486 9.50526 3.42788 9.25513 3.56371C9.25875 3.5923 9.266 3.62447 9.2805 3.65664C9.3385 3.81034 9.40013 3.914 9.53064 4.02481C9.94027 4.3751 10.368 3.84966 10.4043 3.57801Z" fill="#A75F47"/>
<path fill-rule="evenodd" clip-rule="evenodd" d="M18.6079 7.17027C18.3759 6.80926 16.9694 5.85847 16.219 6.99513C15.9761 7.36329 16.364 7.60635 15.7767 8.10677C15.2801 8.53212 15.3272 9.38641 15.9906 9.47219C16.625 9.5544 16.4474 9.22556 17.2449 9.29705C17.64 9.33279 21.0041 10.8519 18.6116 7.1667L18.6079 7.17027Z" fill="#FAC080"/>
<path fill-rule="evenodd" clip-rule="evenodd" d="M18.1983 7.46335C18.0026 7.1631 16.8389 6.37315 16.2118 7.3168C16.0088 7.6242 16.3314 7.82436 15.8456 8.24257C15.4324 8.59644 15.4722 9.30774 16.0233 9.37923C16.5489 9.44714 16.4003 9.17549 17.0637 9.23625C17.3936 9.26485 20.1849 10.5302 18.1983 7.46692V7.46335Z" fill="#5E2F23"/>
<path fill-rule="evenodd" clip-rule="evenodd" d="M17.7198 8.00669C17.5929 7.8101 16.8208 7.28824 16.4075 7.91018C16.2734 8.11393 16.4872 8.24618 16.1646 8.52141C15.8927 8.75374 15.9181 9.22557 16.2806 9.27203C16.6286 9.3185 16.5307 9.13621 16.9694 9.17552C17.1869 9.19697 19.0321 10.0298 17.7198 8.00669Z" fill="#87665E"/>
<path fill-rule="evenodd" clip-rule="evenodd" d="M17.2304 8.39987C16.741 7.64925 16.0305 9.00752 16.4728 9.06829C17.0782 9.14692 17.7633 9.22199 17.2304 8.39987Z" fill="#A75F47"/>
<path fill-rule="evenodd" clip-rule="evenodd" d="M31.6077 13.5255C32.1405 13.0323 33.0287 11.7491 31.9738 11.12C31.6874 10.9484 31.401 11.12 31.0711 11.0628C30.241 10.9269 29.5631 11.6061 29.4906 12.1387C29.4471 12.4675 29.4 12.6391 29.6863 12.8964C29.7625 12.9644 30.038 13.3254 30.0344 13.4469C30.0162 14.244 31.3068 13.8008 31.6077 13.522V13.5255Z" fill="#FAC080"/>
<path fill-rule="evenodd" clip-rule="evenodd" d="M31.488 13.5148C31.9412 13.0966 32.6952 12.0064 31.7998 11.4703C31.5569 11.3237 31.314 11.4703 31.0313 11.4238C30.328 11.3094 29.748 11.8849 29.6863 12.3389C29.6501 12.6212 29.6102 12.7642 29.8531 12.9858C29.9183 13.043 30.154 13.3504 30.1504 13.4541C30.1359 14.1332 31.2343 13.7543 31.488 13.5184V13.5148Z" fill="#5E2F23"/>
<path fill-rule="evenodd" clip-rule="evenodd" d="M31.1545 13.4219C31.4663 13.1324 31.981 12.3889 31.3684 12.0208C31.2016 11.9207 31.0349 12.0208 30.8427 11.9886C30.3606 11.91 29.9618 12.3067 29.922 12.6177C29.8966 12.8107 29.8676 12.9108 30.0343 13.0609C30.0778 13.1002 30.241 13.3111 30.2374 13.3826C30.2265 13.8473 30.9805 13.5899 31.1545 13.4255V13.4219Z" fill="#87665E"/>
<path fill-rule="evenodd" clip-rule="evenodd" d="M30.8608 13.3504C31.0348 13.1896 31.3212 12.7749 30.9805 12.5712C30.8862 12.514 30.7956 12.5712 30.6868 12.5533C30.4186 12.5104 30.1974 12.7285 30.1757 12.9036C30.1612 13.0108 30.1467 13.0645 30.2373 13.1502C30.2627 13.1717 30.3533 13.2896 30.3497 13.329C30.3424 13.5863 30.763 13.4433 30.8608 13.354V13.3504Z" fill="#A75F47"/>
<path fill-rule="evenodd" clip-rule="evenodd" d="M22.5412 14.8517C21.6059 14.9053 21.6639 15.7095 21.6784 16.3029C21.6893 16.6675 22.0156 17.1607 22.5593 17.2287C23.4221 17.3395 23.7484 17.2966 24.5677 17.0821C25.7785 16.764 25.9343 16.117 25.4232 15.227C24.912 14.3334 23.7049 14.7802 22.5376 14.8517H22.5412Z" fill="#FAC080"/>
<path fill-rule="evenodd" clip-rule="evenodd" d="M22.4796 15.1376C21.7364 15.1805 21.7799 15.8203 21.7944 16.2957C21.8017 16.5852 22.0627 16.9784 22.4977 17.0356C23.1828 17.125 23.4438 17.0892 24.0964 16.9177C25.0607 16.6639 25.1875 16.1492 24.7779 15.4379C24.3683 14.7265 23.4076 15.084 22.4796 15.1376Z" fill="#5E2F23"/>
<path fill-rule="evenodd" clip-rule="evenodd" d="M22.5122 15.6988C22.0156 15.7274 22.0446 16.1563 22.0554 16.4709C22.0591 16.6639 22.2331 16.9248 22.5231 16.9641C22.9798 17.0249 23.1538 16.9999 23.5889 16.8855C24.2305 16.7175 24.3139 16.3708 24.0456 15.899C23.7737 15.4236 23.1321 15.6631 22.5122 15.6988Z" fill="#87665E"/>
<path fill-rule="evenodd" clip-rule="evenodd" d="M22.4107 16.0598C22.099 16.0777 22.1171 16.3457 22.1207 16.5459C22.1207 16.6674 22.2331 16.8319 22.4143 16.8569C22.7044 16.8926 22.8131 16.8783 23.0886 16.8068C23.4946 16.6996 23.5454 16.4816 23.375 16.1849C23.2046 15.8846 22.7986 16.0348 22.4071 16.0598H22.4107Z" fill="#A75F47"/>
<path fill-rule="evenodd" clip-rule="evenodd" d="M24.9084 21.5215C24.9882 21.45 25.1187 21.2606 24.9628 21.1677C24.9193 21.1426 24.8794 21.1677 24.8287 21.1605C24.7054 21.1391 24.6075 21.2391 24.5967 21.3178C24.5894 21.3678 24.5822 21.3928 24.6257 21.4286C24.6365 21.4393 24.6764 21.4929 24.6764 21.5108C24.6764 21.6288 24.8649 21.5644 24.9084 21.5215Z" fill="#FAC080"/>
<path fill-rule="evenodd" clip-rule="evenodd" d="M23.9623 7.80292C23.9695 7.74215 23.9623 7.71356 23.926 7.65637C23.8245 7.47407 23.4584 7.63492 23.5345 7.83151C23.5563 7.8887 23.5816 7.92802 23.6288 7.97091C23.7846 8.10317 23.9441 7.90657 23.9586 7.80292H23.9623Z" fill="#FAC080"/>
<path fill-rule="evenodd" clip-rule="evenodd" d="M26.7174 8.28188C26.6775 8.22111 26.4346 8.05669 26.3041 8.25328C26.2606 8.31762 26.3295 8.35694 26.228 8.4463C26.141 8.51779 26.1518 8.66791 26.2642 8.68221C26.373 8.69651 26.344 8.63932 26.4817 8.65361C26.5506 8.66076 27.1306 8.9217 26.7174 8.28545V8.28188Z" fill="#FAC080"/>
<path fill-rule="evenodd" clip-rule="evenodd" d="M26.0141 4.13203C26.0757 4.01407 26.0684 3.91756 25.9996 3.80318C25.8981 3.63161 25.4921 3.85322 25.3688 3.88182C25.2528 3.90684 25.1658 3.91399 25.1622 4.06054C25.1622 4.13918 25.2927 4.27143 25.3181 4.35364C25.4268 4.71108 25.9089 4.32862 26.0104 4.13203H26.0141Z" fill="#FAC080"/>
<path fill-rule="evenodd" clip-rule="evenodd" d="M24.2015 23.3909C24.3284 23.4195 24.3719 23.4016 24.4553 23.3087C24.477 23.2837 24.4951 23.2229 24.4879 23.1872C24.4698 23.0907 24.448 23.1157 24.4154 23.0478C24.3864 22.987 24.187 23.0478 24.1399 23.0692C23.8752 23.1979 23.8861 23.323 24.2051 23.3945L24.2015 23.3909Z" fill="#FAC080"/>
<path fill-rule="evenodd" clip-rule="evenodd" d="M5.97076 16.7318C6.24265 16.7926 7.0583 16.6246 7.0728 16.2492C7.09093 15.6988 6.35865 16.2314 6.18102 16.335C6.07589 16.3958 5.63 16.6567 5.97439 16.7318H5.97076Z" fill="#FAC080"/>
<path fill-rule="evenodd" clip-rule="evenodd" d="M6.35142 19.9631C6.27892 19.7951 6.09041 19.8594 5.94903 19.8987C5.86203 19.9237 5.76415 20.0131 5.78228 20.1168C5.80766 20.2812 5.84028 20.3384 5.94178 20.4742C6.09404 20.6744 6.25717 20.6601 6.43843 20.5099C6.61968 20.3598 6.43843 20.1704 6.3478 19.9595L6.35142 19.9631Z" fill="#FAC080"/>
<path fill-rule="evenodd" clip-rule="evenodd" d="M23.3786 21.8253C23.2698 21.8325 23.2771 21.9254 23.2771 21.9933C23.2771 22.0362 23.317 22.0934 23.3786 22.1005C23.4801 22.1148 23.5163 22.1077 23.6106 22.0827C23.752 22.0469 23.7701 21.9719 23.7085 21.8682C23.6505 21.7646 23.5091 21.8182 23.375 21.8253H23.3786Z" fill="#FAC080"/>
<path fill-rule="evenodd" clip-rule="evenodd" d="M8.76937 21.2963C8.77662 21.2391 8.76937 21.2105 8.73675 21.1605C8.6425 20.9889 8.30173 21.139 8.37424 21.3249C8.39599 21.3785 8.41774 21.4143 8.46124 21.4536C8.60624 21.5787 8.75487 21.3928 8.76937 21.2963Z" fill="#FAC080"/>
<path fill-rule="evenodd" clip-rule="evenodd" d="M32.1804 14.966C32.2855 14.8695 32.4595 14.6193 32.2529 14.4942C32.1985 14.4621 32.1405 14.4942 32.0753 14.4835C31.9121 14.4585 31.778 14.5907 31.7635 14.6944C31.7562 14.7587 31.7454 14.7909 31.8034 14.8445C31.8179 14.8588 31.8722 14.9303 31.8722 14.9518C31.8686 15.109 32.1224 15.0197 32.1804 14.966Z" fill="#FAC080"/>
<path fill-rule="evenodd" clip-rule="evenodd" d="M29.2477 16.6674C29.4144 16.7068 29.4724 16.6817 29.5884 16.5566C29.6175 16.5245 29.6392 16.4422 29.6319 16.3922C29.6066 16.26 29.5776 16.2957 29.5341 16.2063C29.4942 16.1241 29.2296 16.2063 29.1643 16.2349C28.8127 16.4065 28.8272 16.5709 29.2513 16.6674H29.2477Z" fill="#FAC080"/>
<path fill-rule="evenodd" clip-rule="evenodd" d="M26.9313 13.2932C26.7862 13.3004 26.7971 13.4255 26.7971 13.5184C26.7971 13.5756 26.8479 13.6507 26.9349 13.6614C27.069 13.6793 27.1198 13.6721 27.2466 13.64C27.4351 13.5899 27.4569 13.4898 27.3808 13.354C27.301 13.2146 27.1161 13.2861 26.9349 13.2968L26.9313 13.2932Z" fill="#FAC080"/>
<path fill-rule="evenodd" clip-rule="evenodd" d="M31.2814 15.8918C31.256 15.8096 31.2306 15.7918 31.1472 15.7739C31.1255 15.7703 31.0856 15.781 31.0639 15.7953C31.0131 15.8382 31.0349 15.8418 31.0059 15.8847C30.9805 15.9204 31.082 16.0169 31.111 16.0348C31.2741 16.142 31.343 16.0956 31.2814 15.8918Z" fill="#FAC080"/>
<path fill-rule="evenodd" clip-rule="evenodd" d="M11.539 23.323C11.5825 23.2515 11.5788 23.2193 11.539 23.1478C11.5281 23.1299 11.4918 23.1049 11.4665 23.1049C11.4012 23.0978 11.4121 23.1157 11.3613 23.1228C11.3178 23.1299 11.3142 23.2658 11.3178 23.3015C11.3468 23.4945 11.4266 23.5124 11.539 23.3265V23.323Z" fill="#FAC080"/>
<path fill-rule="evenodd" clip-rule="evenodd" d="M7.49697 19.8522C7.47885 19.9202 7.54047 19.9345 7.58398 19.9488C7.61298 19.9559 7.65648 19.9452 7.6746 19.9059C7.7036 19.8451 7.70723 19.8201 7.71085 19.7557C7.71448 19.6592 7.67098 19.6342 7.59122 19.6485C7.51147 19.6628 7.51872 19.7629 7.49335 19.8487L7.49697 19.8522Z" fill="#FAC080"/>
<path fill-rule="evenodd" clip-rule="evenodd" d="M12.7642 4.05339C12.8694 3.95688 13.0434 3.70667 12.8367 3.58157C12.7824 3.5494 12.7244 3.58157 12.6591 3.57084C12.496 3.54582 12.3619 3.67808 12.3474 3.78173C12.3401 3.84607 12.3292 3.87824 12.3872 3.93186C12.4017 3.94616 12.4561 4.01764 12.4561 4.03909C12.4525 4.19636 12.7062 4.107 12.7642 4.05339Z" fill="#FAC080"/>
<path fill-rule="evenodd" clip-rule="evenodd" d="M11.8652 4.97912C11.8399 4.89691 11.8145 4.87904 11.7311 4.86117C11.7094 4.85759 11.6695 4.86832 11.6477 4.88261C11.597 4.92551 11.6187 4.92908 11.5897 4.97197C11.5644 5.00772 11.6659 5.10423 11.6949 5.1221C11.858 5.22933 11.9269 5.18286 11.8652 4.97912Z" fill="#FAC080"/>
<path fill-rule="evenodd" clip-rule="evenodd" d="M6.72477 9.13262C6.65227 8.96462 6.46377 9.02896 6.32239 9.06828C6.23538 9.0933 6.13751 9.18266 6.15563 9.28632C6.18101 9.45074 6.21363 9.50793 6.31514 9.64376C6.46739 9.84392 6.63052 9.82963 6.81178 9.6795C6.99303 9.52938 6.81178 9.33993 6.72115 9.12904L6.72477 9.13262Z" fill="#FAC080"/>
<path fill-rule="evenodd" clip-rule="evenodd" d="M11.1656 8.84666C11.1728 8.78947 11.1656 8.76088 11.1329 8.71083C11.0387 8.53926 10.6979 8.68939 10.7704 8.87526C10.7922 8.92887 10.8139 8.96462 10.8574 9.00394C11.0024 9.12904 11.1511 8.94317 11.1656 8.84666Z" fill="#FAC080"/>
<path fill-rule="evenodd" clip-rule="evenodd" d="M9.02316 5.60468C9.00503 5.6726 9.06666 5.68689 9.11016 5.70119C9.13916 5.70834 9.18266 5.69762 9.20079 5.6583C9.22979 5.59753 9.23341 5.57251 9.23704 5.50817C9.24066 5.41166 9.19716 5.38664 9.11741 5.40094C9.03766 5.41524 9.04491 5.51532 9.01953 5.60111L9.02316 5.60468Z" fill="#FAC080"/>
<path fill-rule="evenodd" clip-rule="evenodd" d="M19.4635 24.9029C19.4707 24.8457 19.4635 24.8171 19.4308 24.7671C19.3366 24.5955 18.9958 24.7457 19.0683 24.9315C19.0901 24.9851 19.1118 25.0209 19.1553 25.0602C19.3003 25.1853 19.449 24.9994 19.4635 24.9029Z" fill="#FAC080"/>
<path fill-rule="evenodd" clip-rule="evenodd" d="M19.0683 12.3889C19.0756 12.3317 19.0683 12.3031 19.0357 12.2531C18.9414 12.0815 18.6007 12.2316 18.6732 12.4175C18.6949 12.4711 18.7167 12.5069 18.7602 12.5462C18.9052 12.6713 19.0538 12.4854 19.0683 12.3889Z" fill="#FAC080"/>
<path fill-rule="evenodd" clip-rule="evenodd" d="M21.8343 14.4156C21.8778 14.3441 21.8742 14.3119 21.8343 14.2404C21.8234 14.2225 21.7872 14.1975 21.7618 14.1975C21.6966 14.1904 21.7074 14.2082 21.6567 14.2154C21.6132 14.2225 21.6096 14.3584 21.6132 14.3941C21.6422 14.5871 21.7219 14.605 21.8343 14.4191V14.4156Z" fill="#FAC080"/>
<path fill-rule="evenodd" clip-rule="evenodd" d="M17.7959 10.9448C17.7778 11.0127 17.8394 11.027 17.8829 11.0413C17.9119 11.0485 17.9554 11.0378 17.9736 10.9984C18.0026 10.9377 18.0062 10.9127 18.0098 10.8483C18.0134 10.7518 17.9699 10.7268 17.8902 10.7411C17.8104 10.7554 17.8177 10.8555 17.7923 10.9413L17.7959 10.9448Z" fill="#FAC080"/>
<path fill-rule="evenodd" clip-rule="evenodd" d="M17.0455 16.2385C17.0202 16.1563 16.9948 16.1384 16.9114 16.1206C16.8897 16.117 16.8498 16.1277 16.828 16.142C16.7773 16.1849 16.799 16.1885 16.77 16.2314C16.7446 16.2671 16.8462 16.3636 16.8752 16.3815C17.0383 16.4887 17.1072 16.4423 17.0455 16.2385Z" fill="#FAC080"/>
<path fill-rule="evenodd" clip-rule="evenodd" d="M15.0553 12.0207C15.0082 12.203 15.1677 12.2423 15.2874 12.2745C15.3599 12.296 15.4759 12.2638 15.523 12.1637C15.5991 12.0064 15.61 11.9421 15.6209 11.7705C15.6354 11.5203 15.5157 11.4488 15.3091 11.4917C15.1025 11.5346 15.1133 11.792 15.0553 12.0207Z" fill="#FAC080"/>
<path fill-rule="evenodd" clip-rule="evenodd" d="M13.5763 26.5578C13.5038 26.3898 13.3153 26.4541 13.1739 26.4934C13.0869 26.5185 12.989 26.6078 13.0071 26.7115C13.0325 26.8759 13.0651 26.9331 13.1666 27.0689C13.3189 27.2691 13.482 27.2548 13.6633 27.1047C13.8445 26.9545 13.6633 26.7651 13.5727 26.5542L13.5763 26.5578Z" fill="#FAC080"/>
<path fill-rule="evenodd" clip-rule="evenodd" d="M10.3971 20.1704C10.4043 20.1096 10.3971 20.081 10.3608 20.0239C10.2593 19.8416 9.89319 20.0024 9.96932 20.199C9.99107 20.2562 10.0164 20.2955 10.0636 20.3384C10.2195 20.4707 10.379 20.2741 10.3935 20.1704H10.3971Z" fill="#FAC080"/>
<path fill-rule="evenodd" clip-rule="evenodd" d="M12.4489 16.4995C12.5105 16.3815 12.5033 16.285 12.4344 16.1706C12.3329 15.999 11.9269 16.2207 11.8036 16.2492C11.6876 16.2743 11.6006 16.2814 11.597 16.428C11.597 16.5066 11.7275 16.6389 11.7529 16.7211C11.8616 17.0785 12.3438 16.6961 12.4453 16.4995H12.4489Z" fill="#FAC080"/>
</g>
<defs>
<clipPath id="clip0_68_3367">
<rect width="34" height="30" fill="white" transform="translate(0.714355)"/>
</clipPath>
</defs>
</svg>
