<svg width="29" height="26" viewBox="0 0 29 26" fill="none" xmlns="http://www.w3.org/2000/svg">
<g clip-path="url(#clip0_68_3589)">
<path fill-rule="evenodd" clip-rule="evenodd" d="M9.43959 1.27892C12.037 -0.742562 18.9573 -0.0310531 20.6757 1.1016C22.108 2.04806 24.893 2.81277 26.4871 5.57679C27.889 8.00833 28.6931 9.66409 28.6931 12.3771C28.6931 14.7333 28.9346 17.4774 27.7929 19.49C26.0417 22.5776 23.2567 23.677 22.4902 24.4085C19.9818 26.8046 12.0159 26.0332 8.91447 25.0712C7.90409 24.7565 7.24769 24.1536 6.35921 23.6083C5.5223 23.0941 4.59632 22.5222 4.22827 22.0634C3.63282 21.3231 2.85452 19.2351 2.1864 18.3773C1.23697 17.1516 0.203149 13.9597 0.988481 11.4462C2.07388 7.9773 2.45834 5.22214 6.08493 2.81498C7.31099 2.00151 8.58158 1.94167 9.4349 1.28114L9.43959 1.27892Z" fill="#5E2F23"/>
<path fill-rule="evenodd" clip-rule="evenodd" d="M21.6886 5.25979C22.0144 5.78289 22.6404 5.49696 23.1116 5.29747C23.3999 5.17556 23.6976 4.832 23.5898 4.49287C23.4187 3.95868 23.285 3.78358 22.8677 3.37573C22.2489 2.77505 21.6815 2.89031 21.1213 3.46661C20.561 4.04513 21.283 4.60148 21.6886 5.25757V5.25979Z" fill="#5E2F23"/>
<path fill-rule="evenodd" clip-rule="evenodd" d="M21.6417 4.99834C21.9136 5.435 22.434 5.19561 22.8255 5.03159C23.0647 4.93184 23.3131 4.64369 23.2217 4.36219C23.0787 3.91667 22.9685 3.77259 22.6192 3.43346C22.1058 2.93474 21.6323 3.03005 21.1658 3.50882C20.6993 3.98981 21.2994 4.45307 21.6393 4.99834H21.6417Z" fill="#5E2F23"/>
<path fill-rule="evenodd" clip-rule="evenodd" d="M21.9933 4.60159C22.3286 4.78113 22.563 4.45308 22.7458 4.21591C22.8584 4.07183 22.9006 3.80807 22.7388 3.66178C22.4809 3.43347 22.3543 3.38027 22.0074 3.28718C21.4963 3.15197 21.2361 3.37141 21.1306 3.83023C21.0228 4.29127 21.576 4.37328 21.9957 4.59715L21.9933 4.60159Z" fill="#87665E"/>
<path fill-rule="evenodd" clip-rule="evenodd" d="M22.0238 4.1848C22.277 4.19588 22.3121 3.93655 22.3426 3.74814C22.3614 3.63288 22.3051 3.46442 22.1644 3.42674C21.9417 3.36468 21.8503 3.36911 21.6182 3.41344C21.276 3.47772 21.1939 3.67943 21.276 3.97866C21.358 4.27789 21.7073 4.1715 22.0238 4.1848Z" fill="#A75F47"/>
<path fill-rule="evenodd" clip-rule="evenodd" d="M14.0392 2.27421C14.0392 2.47369 14.0908 2.56014 14.2197 2.72638C14.6417 3.265 15.7763 2.60669 15.4317 2.00379C15.3309 1.82868 15.2395 1.71342 15.059 1.60259C14.487 1.24795 14.0416 1.94173 14.0416 2.27421H14.0392Z" fill="#5E2F23"/>
<path fill-rule="evenodd" clip-rule="evenodd" d="M14.14 2.18323C14.14 2.34726 14.1822 2.41597 14.2877 2.55118C14.63 2.99005 15.556 2.45365 15.2746 1.9638C15.1926 1.82194 15.1176 1.72663 14.9699 1.63575C14.5034 1.34538 14.14 1.91282 14.14 2.18323Z" fill="#5E2F23"/>
<path fill-rule="evenodd" clip-rule="evenodd" d="M14.2807 2.05474C14.2807 2.17444 14.3111 2.22542 14.3885 2.32516C14.6393 2.64656 15.3168 2.25423 15.1129 1.89515C15.0543 1.79098 14.998 1.72226 14.8902 1.65577C14.5479 1.44298 14.283 1.85969 14.283 2.05696L14.2807 2.05474Z" fill="#87665E"/>
<path fill-rule="evenodd" clip-rule="evenodd" d="M14.5503 1.89741C14.5503 1.96612 14.5667 1.99715 14.6136 2.05478C14.7589 2.24097 15.1527 2.01267 15.0332 1.80431C14.998 1.74446 14.9652 1.70457 14.9042 1.66467C14.7073 1.54054 14.5526 1.78215 14.5526 1.89741H14.5503Z" fill="#A75F47"/>
<path fill-rule="evenodd" clip-rule="evenodd" d="M18.4418 6.68952C17.9893 6.65184 16.3858 5.97801 16.2381 7.09958C16.1467 7.79779 15.1879 8.01058 15.2442 8.54255C15.42 10.1806 17.6517 8.76864 18.1604 8.39404C18.4582 8.1746 19.5248 6.77818 18.4394 6.68952H18.4418Z" fill="#5E2F23"/>
<path fill-rule="evenodd" clip-rule="evenodd" d="M18.2566 6.73381C17.8791 6.70278 16.5359 6.13757 16.4116 7.07738C16.3343 7.66254 15.5325 7.84208 15.5794 8.28761C15.7271 9.65965 17.5955 8.47601 18.0221 8.16348C18.273 7.97951 19.1638 6.81139 18.2566 6.73603V6.73381Z" fill="#5E2F23"/>
<path fill-rule="evenodd" clip-rule="evenodd" d="M17.919 6.79149C17.6517 6.76932 16.707 6.37256 16.6202 7.03309C16.5663 7.44537 16.0014 7.57171 16.0342 7.88424C16.1373 8.85065 17.4525 8.01723 17.7549 7.79558C17.9307 7.66702 18.559 6.84247 17.919 6.79149Z" fill="#87665E"/>
<path fill-rule="evenodd" clip-rule="evenodd" d="M17.9072 7.11063C17.6166 6.84465 16.9437 6.47005 16.7421 7.03306C16.5405 7.60271 17.3704 7.61822 17.5673 7.60492C17.6822 7.59606 18.1909 7.36997 17.9049 7.11063H17.9072Z" fill="#A75F47"/>
<path fill-rule="evenodd" clip-rule="evenodd" d="M5.70531 5.46823C4.93639 5.39952 4.69493 5.53251 4.26592 6.12654C4.15574 6.27948 4.10651 6.63413 4.17684 6.8447C4.36204 7.38775 4.47456 7.22595 4.72306 7.58724C4.94576 7.91086 6.08039 7.42543 6.34061 7.25919C7.79874 6.32825 7.63699 5.64112 5.70296 5.46823H5.70531Z" fill="#5E2F23"/>
<path fill-rule="evenodd" clip-rule="evenodd" d="M5.63029 5.57461C5.01374 5.5192 4.82151 5.62559 4.47925 6.10215C4.39016 6.22405 4.35031 6.50777 4.40892 6.67623C4.55661 7.11067 4.64803 6.97989 4.8473 7.27026C5.02546 7.5296 5.9327 7.13949 6.14134 7.00871C7.30879 6.26395 7.17751 5.71647 5.63263 5.57683L5.63029 5.57461Z" fill="#5E2F23"/>
<path fill-rule="evenodd" clip-rule="evenodd" d="M5.37945 5.69429C4.95279 5.65661 4.81917 5.72976 4.58005 6.06002C4.5191 6.14425 4.49097 6.34152 4.53082 6.459C4.63397 6.76045 4.69492 6.66957 4.83324 6.87127C4.95748 7.05081 5.58575 6.7804 5.73109 6.68952C6.53987 6.17306 6.45078 5.79182 5.37711 5.69651L5.37945 5.69429Z" fill="#87665E"/>
<path fill-rule="evenodd" clip-rule="evenodd" d="M5.20832 5.74532C4.95749 5.72316 4.88013 5.76749 4.74181 5.96033C4.70665 6.00909 4.69024 6.12435 4.71368 6.19306C4.77463 6.37039 4.8098 6.31719 4.89185 6.43467C4.96452 6.53884 5.33257 6.38147 5.41696 6.32827C5.89051 6.02682 5.83893 5.80295 5.21067 5.74532H5.20832Z" fill="#A75F47"/>
<path fill-rule="evenodd" clip-rule="evenodd" d="M25.205 11.8496C25.6176 12.2575 26.7334 12.8692 27.2492 12.3661C29.5958 10.0897 23.7679 10.4332 25.205 11.8496Z" fill="#5E2F23"/>
<path fill-rule="evenodd" clip-rule="evenodd" d="M25.3925 11.6656C25.723 11.9915 26.6185 12.4835 27.0335 12.0801C28.9183 10.2515 24.2391 10.5285 25.3925 11.6656Z" fill="#5E2F23"/>
<path fill-rule="evenodd" clip-rule="evenodd" d="M25.8989 11.4972C26.1263 11.7211 26.7358 12.0558 27.0194 11.7809C28.3065 10.533 25.1112 10.7214 25.8989 11.4972Z" fill="#87665E"/>
<path fill-rule="evenodd" clip-rule="evenodd" d="M26.5741 11.6789C26.7663 11.7055 27.1812 11.6501 27.207 11.424C27.3266 10.3977 25.9059 11.588 26.5741 11.6789Z" fill="#A75F47"/>
<path fill-rule="evenodd" clip-rule="evenodd" d="M19.4428 14.5693C19.3115 14.9085 19.3677 15.17 19.6045 15.4604C19.9562 15.8926 21.0251 15.1412 21.3604 15.0237C21.6815 14.9107 21.9207 14.8686 21.8738 14.4651C21.848 14.2479 21.4284 13.9398 21.3252 13.7226C20.8845 12.7894 19.6631 13.9975 19.4428 14.5693Z" fill="#5E2F23"/>
<path fill-rule="evenodd" clip-rule="evenodd" d="M19.7381 14.4629C19.6303 14.7444 19.6748 14.9594 19.8718 15.201C20.1625 15.5601 21.0486 14.9373 21.3252 14.8397C21.5901 14.7466 21.7894 14.7112 21.7519 14.3765C21.7308 14.1969 21.3838 13.942 21.2971 13.7603C20.9314 12.9867 19.921 13.9864 19.7381 14.4607V14.4629Z" fill="#5E2F23"/>
<path fill-rule="evenodd" clip-rule="evenodd" d="M20.1085 14.2701C20.0335 14.4629 20.0663 14.6092 20.2 14.7754C20.3992 15.0215 21.004 14.5937 21.1939 14.5272C21.3744 14.4629 21.5128 14.4385 21.4846 14.2102C21.4706 14.0883 21.2314 13.9132 21.1728 13.7891C20.922 13.2593 20.2304 13.9442 20.1062 14.2678L20.1085 14.2701Z" fill="#87665E"/>
<path fill-rule="evenodd" clip-rule="evenodd" d="M20.3711 14.0418C20.3265 14.1592 20.3453 14.2479 20.4273 14.3499C20.5492 14.4984 20.9173 14.239 21.0322 14.1991C21.1423 14.1592 21.2267 14.1459 21.2103 14.0063C21.2009 13.9309 21.0579 13.8246 21.0204 13.7492C20.8681 13.4278 20.4461 13.8445 20.3711 14.0418Z" fill="#A75F47"/>
<path fill-rule="evenodd" clip-rule="evenodd" d="M21.0392 20.6936C21.0392 21.0482 21.1283 21.2012 21.358 21.496C22.1035 22.4513 24.1172 21.2832 23.5054 20.217C23.3296 19.9089 23.1631 19.7028 22.8443 19.5033C21.8316 18.8738 21.0392 20.1062 21.0392 20.6936Z" fill="#5E2F23"/>
<path fill-rule="evenodd" clip-rule="evenodd" d="M21.3205 20.5295C21.3205 20.8133 21.3932 20.9374 21.5761 21.1723C22.1738 21.937 23.7867 21.0017 23.2967 20.1483C23.1561 19.9 23.0225 19.736 22.7669 19.5764C21.9535 19.0711 21.3205 20.0596 21.3205 20.5295Z" fill="#5E2F23"/>
<path fill-rule="evenodd" clip-rule="evenodd" d="M21.5479 20.3212C21.5479 20.5251 21.5995 20.6138 21.7331 20.7845C22.1645 21.3342 23.3249 20.6626 22.9709 20.0464C22.8677 19.869 22.774 19.7493 22.5888 19.6341C22.005 19.2706 21.5479 19.9821 21.5479 20.3212Z" fill="#87665E"/>
<path fill-rule="evenodd" clip-rule="evenodd" d="M21.8152 20.1018C21.8152 20.2325 21.848 20.2902 21.9324 20.3988C22.209 20.7512 22.9498 20.3212 22.7247 19.9267C22.6591 19.8136 22.5981 19.736 22.4809 19.6629C22.1058 19.4302 21.8152 19.8845 21.8152 20.1018Z" fill="#A75F47"/>
<path fill-rule="evenodd" clip-rule="evenodd" d="M14.705 18.118C14.9347 18.3774 16.1912 18.9803 16.6812 18.0116C16.8406 17.6969 16.496 17.5462 16.9227 17.0918C17.2837 16.7083 17.1524 16.0411 16.5991 16.0411C16.0459 16.0411 16.2522 16.2805 15.5911 16.3049C15.2629 16.3182 12.3443 15.4671 14.7073 18.118H14.705Z" fill="#5E2F23"/>
<path fill-rule="evenodd" clip-rule="evenodd" d="M15.0097 17.8453C15.202 18.0603 16.2428 18.5613 16.6507 17.7567C16.782 17.4951 16.496 17.371 16.85 16.9942C17.1501 16.675 17.0399 16.1208 16.5804 16.1208C16.1209 16.1208 16.2921 16.3203 15.7435 16.3403C15.4716 16.3514 13.0452 15.6443 15.0097 17.8453Z" fill="#5E2F23"/>
<path fill-rule="evenodd" clip-rule="evenodd" d="M15.3426 17.3688C15.4692 17.5107 16.1584 17.8431 16.4257 17.3089C16.5124 17.1361 16.3249 17.054 16.557 16.8058C16.7539 16.5952 16.6835 16.2295 16.3788 16.2295C16.074 16.2295 16.1889 16.3603 15.8255 16.3736C15.645 16.3802 14.0439 15.9147 15.3403 17.3688H15.3426Z" fill="#87665E"/>
<path fill-rule="evenodd" clip-rule="evenodd" d="M15.6989 17.0119C16.1819 17.5528 16.6156 16.4113 16.2452 16.4113C15.7388 16.4113 15.1715 16.4223 15.6989 17.0119Z" fill="#A75F47"/>
<path fill-rule="evenodd" clip-rule="evenodd" d="M11.3269 22.1898C11.573 23.502 12.6467 24.5726 13.929 23.3911C15.931 21.547 11.1018 20.9951 11.3269 22.1898Z" fill="#5E2F23"/>
<path fill-rule="evenodd" clip-rule="evenodd" d="M11.566 22.161C11.7746 23.2692 12.6795 24.1714 13.7626 23.1739C15.4505 21.6179 11.3785 21.1524 11.566 22.161Z" fill="#5E2F23"/>
<path fill-rule="evenodd" clip-rule="evenodd" d="M11.7863 22.0568C11.9247 22.7905 12.5224 23.3868 13.2398 22.7284C14.358 21.7 11.6598 21.3897 11.7863 22.0568Z" fill="#87665E"/>
<path fill-rule="evenodd" clip-rule="evenodd" d="M12.0489 21.9658C12.1286 22.3959 12.4826 22.7461 12.9022 22.3604C13.5586 21.7553 11.9762 21.5757 12.0489 21.9658Z" fill="#A75F47"/>
<path fill-rule="evenodd" clip-rule="evenodd" d="M3.36574 14.4541C2.98363 14.8974 2.39756 15.9924 3.33058 16.3803C3.58376 16.4844 3.79943 16.3226 4.07606 16.3315C4.76996 16.3514 5.25288 15.7508 5.25288 15.3252C5.25288 15.0614 5.27164 14.9218 5.01142 14.7489C4.94109 14.7023 4.67619 14.4474 4.66447 14.3521C4.5918 13.7226 3.58142 14.2058 3.36809 14.4541H3.36574Z" fill="#5E2F23"/>
<path fill-rule="evenodd" clip-rule="evenodd" d="M3.46653 14.4518C3.14067 14.8286 2.64134 15.7595 3.43605 16.0898C3.65172 16.1785 3.83458 16.041 4.069 16.0477C4.65976 16.0654 5.07001 15.5534 5.07001 15.1921C5.07001 14.9682 5.08642 14.8508 4.86371 14.7023C4.80511 14.6624 4.57771 14.4474 4.56833 14.3653C4.50738 13.8312 3.64938 14.2412 3.46653 14.4518Z" fill="#5E2F23"/>
<path fill-rule="evenodd" clip-rule="evenodd" d="M3.74785 14.4917C3.52514 14.7488 3.18288 15.3872 3.72675 15.6133C3.87444 15.6753 4.00103 15.58 4.16044 15.5845C4.56366 15.5955 4.84497 15.2453 4.84497 14.9971C4.84497 14.8441 4.85669 14.7621 4.70431 14.6624C4.66446 14.6358 4.50974 14.4873 4.5027 14.4319C4.46051 14.0661 3.87209 14.3454 3.74785 14.4917Z" fill="#87665E"/>
<path fill-rule="evenodd" clip-rule="evenodd" d="M3.99868 14.5161C3.87443 14.6602 3.68455 15.0148 3.98696 15.1412C4.06901 15.1744 4.13934 15.1234 4.22842 15.1257C4.45347 15.1323 4.61053 14.9372 4.61053 14.7998C4.61053 14.7134 4.61757 14.669 4.53083 14.6136C4.50739 14.5981 4.42299 14.5161 4.4183 14.4851C4.39486 14.2812 4.06666 14.4363 3.99868 14.5183V14.5161Z" fill="#A75F47"/>
<path fill-rule="evenodd" clip-rule="evenodd" d="M10.6447 12.4902C11.4043 12.3506 11.2683 11.7277 11.1909 11.2623C11.144 10.9785 10.8205 10.6239 10.3681 10.6239C9.65074 10.6239 9.38818 10.6926 8.74116 10.9453C7.78469 11.3177 7.72843 11.843 8.24183 12.4902C8.75757 13.1397 9.69762 12.6653 10.6447 12.4902Z" fill="#5E2F23"/>
<path fill-rule="evenodd" clip-rule="evenodd" d="M10.6635 12.2574C11.2683 12.1466 11.1604 11.6501 11.0972 11.2777C11.0596 11.0516 10.8018 10.7701 10.4408 10.7701C9.86875 10.7701 9.66011 10.8256 9.14437 11.025C8.38248 11.3221 8.3356 11.741 8.74819 12.2552C9.16078 12.7717 9.9086 12.3949 10.6635 12.2552V12.2574Z" fill="#5E2F23"/>
<path fill-rule="evenodd" clip-rule="evenodd" d="M10.5767 11.8186C10.9799 11.7454 10.9072 11.4129 10.8674 11.1669C10.8416 11.0162 10.6705 10.8278 10.429 10.8278C10.0469 10.8278 9.90859 10.8632 9.56398 10.9984C9.05761 11.1957 9.02479 11.475 9.29907 11.8186C9.57335 12.1621 10.0727 11.9116 10.5767 11.8186Z" fill="#87665E"/>
<path fill-rule="evenodd" clip-rule="evenodd" d="M10.6189 11.5259C10.8721 11.4794 10.8275 11.271 10.8018 11.1137C10.7853 11.0184 10.6775 10.9009 10.5251 10.9009C10.2837 10.9009 10.1969 10.923 9.97892 11.0073C9.65775 11.1314 9.639 11.3087 9.81248 11.5259C9.98595 11.7432 10.3001 11.5836 10.6189 11.5259Z" fill="#A75F47"/>
<path fill-rule="evenodd" clip-rule="evenodd" d="M7.97457 7.49409C7.9183 7.55837 7.83157 7.72018 7.96988 7.77781C8.00739 7.79332 8.04021 7.76894 8.08006 7.77116C8.18321 7.77337 8.25353 7.68471 8.25353 7.62265C8.25353 7.58275 8.25588 7.5628 8.21837 7.53842C8.20899 7.53177 8.16914 7.49409 8.1668 7.48079C8.15507 7.3877 8.00739 7.45863 7.97457 7.49631V7.49409Z" fill="#5E2F23"/>
<path fill-rule="evenodd" clip-rule="evenodd" d="M10.2509 18.1667C10.2509 18.2155 10.2626 18.2376 10.2954 18.2798C10.3985 18.4128 10.6799 18.2509 10.5955 18.1002C10.5697 18.0581 10.5486 18.0293 10.504 18.0005C10.3634 17.9118 10.2509 18.0847 10.2509 18.1667Z" fill="#5E2F23"/>
<path fill-rule="evenodd" clip-rule="evenodd" d="M7.9441 18.0737C7.98395 18.118 8.19962 18.2222 8.28401 18.0559C8.31215 18.0027 8.2512 17.9761 8.32621 17.8986C8.38716 17.8321 8.36606 17.7168 8.26995 17.7168C8.17383 17.7168 8.21134 17.7589 8.09647 17.7633C8.04021 17.7633 7.53619 17.6193 7.9441 18.0759V18.0737Z" fill="#5E2F23"/>
<path fill-rule="evenodd" clip-rule="evenodd" d="M8.97557 21.2611C8.93806 21.3586 8.95447 21.4339 9.02246 21.5182C9.12326 21.6423 9.4327 21.4251 9.52882 21.3918C9.62025 21.3586 9.69057 21.3475 9.67651 21.23C9.66948 21.168 9.54757 21.0793 9.5171 21.015C9.39051 20.7446 9.03652 21.0948 8.97323 21.2588L8.97557 21.2611Z" fill="#5E2F23"/>
<path fill-rule="evenodd" clip-rule="evenodd" d="M8.34965 5.95363C8.24181 5.94477 8.20899 5.9625 8.15038 6.04451C8.13397 6.06668 8.12694 6.11544 8.13866 6.14425C8.16445 6.21962 8.18086 6.19745 8.21368 6.24622C8.24416 6.29055 8.40122 6.22405 8.43873 6.19967C8.64034 6.07111 8.61924 5.9758 8.34965 5.95142V5.95363Z" fill="#5E2F23"/>
<path fill-rule="evenodd" clip-rule="evenodd" d="M24.0047 9.3205C23.7773 9.30055 23.1256 9.51555 23.1561 9.81257C23.2029 10.247 23.7421 9.75272 23.8781 9.65298C23.9578 9.59535 24.293 9.34488 24.0047 9.3205Z" fill="#5E2F23"/>
<path fill-rule="evenodd" clip-rule="evenodd" d="M23.3389 6.82034C23.4163 6.94447 23.564 6.87576 23.6741 6.82921C23.7421 6.80039 23.8125 6.71838 23.7867 6.6408C23.7468 6.51446 23.714 6.47456 23.6155 6.37703C23.4702 6.23518 23.3366 6.26178 23.2029 6.3992C23.0717 6.53663 23.2405 6.6674 23.3366 6.82034H23.3389Z" fill="#5E2F23"/>
<path fill-rule="evenodd" clip-rule="evenodd" d="M9.19359 7.09953C9.28267 7.08401 9.26626 7.01086 9.25688 6.95767C9.25219 6.92442 9.21469 6.88452 9.16077 6.88452C9.07637 6.88452 9.0459 6.89339 8.97088 6.9222C8.8607 6.96653 8.85367 7.02638 8.91228 7.10174C8.97323 7.1771 9.08106 7.12169 9.19124 7.10174L9.19359 7.09953Z" fill="#5E2F23"/>
<path fill-rule="evenodd" clip-rule="evenodd" d="M21.2127 6.02453C21.2127 6.07108 21.2244 6.09103 21.2549 6.12871C21.351 6.25283 21.6135 6.10211 21.5338 5.96247C21.5104 5.92257 21.4893 5.89597 21.4471 5.86937C21.3158 5.78736 21.2127 5.94695 21.2127 6.02453Z" fill="#5E2F23"/>
<path fill-rule="evenodd" clip-rule="evenodd" d="M2.73981 13.3834C2.66479 13.4699 2.54992 13.6849 2.73277 13.7625C2.782 13.7824 2.8242 13.7514 2.87812 13.7536C3.01409 13.758 3.1102 13.6406 3.1102 13.5563C3.1102 13.5054 3.11489 13.4765 3.06332 13.4433C3.04925 13.4344 2.99768 13.3834 2.99533 13.3657C2.98127 13.2416 2.782 13.3369 2.73981 13.3857V13.3834Z" fill="#5E2F23"/>
<path fill-rule="evenodd" clip-rule="evenodd" d="M4.95515 11.7477C4.81215 11.7344 4.7676 11.7588 4.69024 11.8696C4.66914 11.8984 4.65977 11.9627 4.67383 12.0026C4.709 12.1023 4.72775 12.0735 4.77464 12.14C4.81683 12.1998 5.02547 12.109 5.07236 12.0802C5.34195 11.9095 5.31148 11.7809 4.95515 11.7499V11.7477Z" fill="#5E2F23"/>
<path fill-rule="evenodd" clip-rule="evenodd" d="M7.21972 14.1614C7.33694 14.1393 7.31584 14.044 7.30412 13.9708C7.29709 13.9265 7.24786 13.8733 7.17753 13.8733C7.06735 13.8733 7.02515 13.8844 6.92669 13.9221C6.779 13.9797 6.76962 14.0617 6.84933 14.1614C6.92903 14.2612 7.07438 14.188 7.21972 14.1614Z" fill="#5E2F23"/>
<path fill-rule="evenodd" clip-rule="evenodd" d="M3.3751 12.5633C3.40557 12.6253 3.42667 12.6364 3.497 12.6409C3.51575 12.6409 3.54623 12.6298 3.56264 12.6143C3.60015 12.5744 3.58139 12.5744 3.60015 12.5389C3.61656 12.5079 3.52513 12.4436 3.497 12.4325C3.35166 12.3638 3.30008 12.4081 3.3751 12.5633Z" fill="#5E2F23"/>
<path fill-rule="evenodd" clip-rule="evenodd" d="M18.7254 4.71453C18.6973 4.77659 18.702 4.80097 18.7465 4.85195C18.7582 4.86525 18.7887 4.87855 18.8098 4.87855C18.8661 4.87855 18.8544 4.86525 18.8942 4.85417C18.9317 4.8453 18.9177 4.73669 18.9106 4.7101C18.8661 4.56159 18.7981 4.55715 18.7254 4.7101V4.71453Z" fill="#5E2F23"/>
<path fill-rule="evenodd" clip-rule="evenodd" d="M22.4129 7.02647C22.42 6.97106 22.3684 6.96441 22.3309 6.95997C22.3074 6.95554 22.2723 6.97106 22.2629 7.00209C22.2465 7.05085 22.2441 7.0708 22.2488 7.12178C22.2559 7.19714 22.2934 7.21266 22.3567 7.19271C22.42 7.17276 22.4036 7.09518 22.4129 7.02647Z" fill="#5E2F23"/>
<path fill-rule="evenodd" clip-rule="evenodd" d="M19.8296 19.9688C19.7545 20.0552 19.6397 20.2702 19.8225 20.3478C19.8718 20.3678 19.914 20.3367 19.9679 20.3389C20.1038 20.3434 20.2 20.2259 20.2 20.1417C20.2 20.0907 20.2046 20.0619 20.1531 20.0286C20.139 20.0198 20.0874 19.9688 20.0851 19.951C20.071 19.8269 19.8718 19.9222 19.8296 19.971V19.9688Z" fill="#5E2F23"/>
<path fill-rule="evenodd" clip-rule="evenodd" d="M20.4649 19.1509C20.4953 19.213 20.5164 19.2241 20.5868 19.2285C20.6055 19.2285 20.636 19.2174 20.6524 19.2019C20.6899 19.162 20.6711 19.162 20.6899 19.1266C20.7063 19.0955 20.6149 19.0312 20.5868 19.0202C20.4414 18.9514 20.3898 18.9958 20.4649 19.1509Z" fill="#5E2F23"/>
<path fill-rule="evenodd" clip-rule="evenodd" d="M24.2204 15.3628C24.2977 15.4869 24.4454 15.4182 24.5556 15.3717C24.6236 15.3429 24.6939 15.2609 24.6681 15.1833C24.6283 15.0569 24.5955 15.0148 24.497 14.9195C24.3517 14.7777 24.218 14.8043 24.0844 14.9417C23.9531 15.0791 24.1219 15.2099 24.218 15.3628H24.2204Z" fill="#5E2F23"/>
<path fill-rule="evenodd" clip-rule="evenodd" d="M20.6149 16.0411C20.6149 16.0877 20.6266 16.1076 20.6571 16.1453C20.7532 16.2694 21.0158 16.1187 20.9361 15.9791C20.9126 15.9392 20.8915 15.9126 20.8493 15.886C20.718 15.804 20.6149 15.9636 20.6149 16.0411Z" fill="#5E2F23"/>
<path fill-rule="evenodd" clip-rule="evenodd" d="M22.7248 18.3662C22.7318 18.3108 22.6802 18.3041 22.6427 18.2997C22.6193 18.2953 22.5841 18.3108 22.5747 18.3418C22.5583 18.3906 22.556 18.4105 22.5607 18.4615C22.5677 18.5369 22.6052 18.5524 22.6685 18.5324C22.7318 18.5125 22.7154 18.4349 22.7248 18.3662Z" fill="#5E2F23"/>
<path fill-rule="evenodd" clip-rule="evenodd" d="M12.063 4.28234C12.063 4.32889 12.0747 4.34884 12.1052 4.38652C12.2013 4.51065 12.4639 4.35992 12.3842 4.22028C12.3607 4.18038 12.3396 4.15378 12.2974 4.12719C12.1661 4.04517 12.063 4.20476 12.063 4.28234Z" fill="#5E2F23"/>
<path fill-rule="evenodd" clip-rule="evenodd" d="M13.7579 14.0662C13.7579 14.1127 13.7696 14.1327 13.8001 14.1703C13.8962 14.2945 14.1588 14.1437 14.0791 14.0041C14.0556 13.9642 14.0345 13.9376 13.9923 13.911C13.8611 13.829 13.7579 13.9886 13.7579 14.0662Z" fill="#5E2F23"/>
<path fill-rule="evenodd" clip-rule="evenodd" d="M11.2706 12.7584C11.2425 12.8204 11.2472 12.8448 11.2917 12.8958C11.3034 12.9091 11.3339 12.9224 11.355 12.9224C11.4113 12.9224 11.3996 12.9091 11.4394 12.898C11.4769 12.8891 11.4628 12.7805 11.4558 12.7539C11.4113 12.6054 11.3433 12.601 11.2706 12.7539V12.7584Z" fill="#5E2F23"/>
<path fill-rule="evenodd" clip-rule="evenodd" d="M14.9582 15.0703C14.9652 15.0149 14.9136 15.0082 14.8761 15.0038C14.8527 14.9994 14.8175 15.0149 14.8081 15.0459C14.7917 15.0947 14.7894 15.1146 14.7941 15.1656C14.8011 15.241 14.8386 15.2565 14.9019 15.2365C14.9652 15.2166 14.9488 15.139 14.9582 15.0703Z" fill="#5E2F23"/>
<path fill-rule="evenodd" clip-rule="evenodd" d="M14.9933 10.8389C15.0238 10.901 15.0449 10.9121 15.1152 10.9165C15.134 10.9165 15.1645 10.9054 15.1809 10.8899C15.2184 10.85 15.1996 10.85 15.2184 10.8145C15.2348 10.7835 15.1434 10.7192 15.1152 10.7081C14.9699 10.6394 14.9183 10.6838 14.9933 10.8389Z" fill="#5E2F23"/>
<path fill-rule="evenodd" clip-rule="evenodd" d="M17.0821 13.9464C17.1008 13.7979 16.9648 13.7846 16.864 13.7691C16.8031 13.7602 16.7093 13.7979 16.6812 13.8799C16.6366 14.0107 16.6343 14.0639 16.646 14.1991C16.6624 14.3964 16.7656 14.4407 16.932 14.3875C17.0961 14.3343 17.0586 14.1326 17.0821 13.9464Z" fill="#5E2F23"/>
<path fill-rule="evenodd" clip-rule="evenodd" d="M16.7023 2.38272C16.7797 2.50685 16.9274 2.43813 17.0375 2.39159C17.1055 2.36277 17.1759 2.28076 17.1501 2.20318C17.1102 2.07684 17.0774 2.03472 16.9789 1.93941C16.8336 1.79755 16.7 1.82415 16.5663 1.96158C16.4351 2.099 16.6039 2.22978 16.7 2.38272H16.7023Z" fill="#5E2F23"/>
<path fill-rule="evenodd" clip-rule="evenodd" d="M20.0031 7.07296C20.0031 7.12173 20.0148 7.14389 20.0476 7.18601C20.1507 7.319 20.4321 7.15719 20.3477 7.00647C20.3219 6.96435 20.3008 6.93554 20.2562 6.90672C20.1156 6.81806 20.0031 6.99095 20.0031 7.07296Z" fill="#5E2F23"/>
<path fill-rule="evenodd" clip-rule="evenodd" d="M18.7277 10.165C18.6902 10.2625 18.7066 10.3379 18.7746 10.4221C18.8754 10.5462 19.1849 10.329 19.281 10.2958C19.3724 10.2625 19.4427 10.2514 19.4287 10.134C19.4216 10.0719 19.2997 9.98323 19.2693 9.91895C19.1427 9.64854 18.7887 9.99875 18.7254 10.1628L18.7277 10.165Z" fill="#5E2F23"/>
</g>
<defs>
<clipPath id="clip0_68_3589">
<rect width="28" height="26" fill="white" transform="translate(0.714355)"/>
</clipPath>
</defs>
</svg>
