<svg width="24" height="23" viewBox="0 0 24 23" fill="none" xmlns="http://www.w3.org/2000/svg">
<g clip-path="url(#clip0_68_3736)">
<path fill-rule="evenodd" clip-rule="evenodd" d="M20.707 6.52369C14.5741 9.11975 8.98963 6.93612 8.69355 1.92925C9.11231 1.77863 9.86614 1.82509 9.93422 1.97343C10.1146 3.56503 11.1531 3.62859 12.588 2.69729C12.9047 3.47407 13.4421 3.98557 14.2044 4.22749C14.6128 5.10048 15.2171 5.41116 16.0207 5.15697C18.8903 8.65468 19.7151 5.06337 20.7061 6.52113L20.707 6.52369Z" fill="#EBA87C"/>
<path fill-rule="evenodd" clip-rule="evenodd" d="M11.0921 18.9166C8.94924 19.1226 5.5252 16.2634 5.03487 15.0184C4.6251 13.979 3.42875 12.5603 3.61266 10.4468C3.77639 8.58703 3.96777 7.37423 4.98634 5.8551C5.86943 4.53699 6.76799 2.91406 8.1309 2.19383C8.32122 2.09425 8.5082 2.00577 8.69441 1.92754C9.11215 2.27377 9.50376 2.36483 9.86839 2.19815C10.0487 3.78975 10.8555 4.11947 12.2903 3.18817C12.6071 3.96496 13.1445 4.47645 13.9068 4.71838C14.3152 5.59136 14.9195 5.90205 15.7231 5.64786C17.1311 7.37075 18.7099 7.57102 20.4612 6.24525L20.7174 6.53305C20.8502 6.84511 20.9549 7.17091 21.1035 7.51195C21.3569 8.09599 21.6349 8.74739 21.6604 9.13404C21.7007 9.75968 21.3329 11.2043 21.368 11.923C21.4159 12.9456 20.7704 15.1014 19.4083 16.2279C17.5286 17.7837 16.2922 19.1891 13.4555 19.2443C12.4982 19.2634 11.7978 18.8437 11.0947 18.9115L11.0921 18.9166Z" fill="#EBA87C"/>
<path fill-rule="evenodd" clip-rule="evenodd" d="M6.05403 12.3306C6.07635 11.9208 5.63527 11.8606 5.30906 11.8018C5.10992 11.7674 4.82264 11.8553 4.75338 12.0826C4.64408 12.4432 4.64957 12.5883 4.72041 12.9654C4.8253 13.5209 5.17017 13.659 5.68515 13.5346C6.20184 13.411 6.02655 12.8421 6.05403 12.3306Z" fill="#EBA87C"/>
<path fill-rule="evenodd" clip-rule="evenodd" d="M5.97995 12.4939C5.99771 12.154 5.63128 12.103 5.36001 12.0543C5.19435 12.0258 4.95495 12.099 4.89823 12.2879C4.80642 12.5869 4.81258 12.709 4.87003 13.0221C4.957 13.4837 5.24425 13.5998 5.67369 13.497C6.10313 13.3941 5.95778 12.9208 5.97911 12.4956L5.97995 12.4939Z" fill="#5E2F23"/>
<path fill-rule="evenodd" clip-rule="evenodd" d="M5.64303 12.5913C5.53065 12.3723 5.28461 12.472 5.09745 12.5392C4.98293 12.5805 4.86231 12.7123 4.89432 12.8513C4.94671 13.0706 4.99277 13.1464 5.14422 13.321C5.36579 13.579 5.58668 13.5476 5.8163 13.3293C6.04676 13.1092 5.78332 12.8667 5.64303 12.5913Z" fill="#87665E"/>
<path fill-rule="evenodd" clip-rule="evenodd" d="M5.47174 12.813C5.34151 12.7169 5.22518 12.8487 5.13768 12.9437C5.0833 13.0019 5.05253 13.1164 5.11141 13.1879C5.2075 13.3012 5.25661 13.3318 5.39681 13.3903C5.60495 13.4759 5.7234 13.3919 5.79206 13.1962C5.86157 12.9988 5.63474 12.9337 5.4709 12.8147L5.47174 12.813Z" fill="#A75F47"/>
<path fill-rule="evenodd" clip-rule="evenodd" d="M9.01251 16.7244C9.08701 16.6124 9.09245 16.5449 9.08531 16.4075C9.06185 15.956 8.2104 15.9209 8.16965 16.3812C8.15789 16.5135 8.16471 16.6125 8.21804 16.7387C8.38939 17.142 8.8889 16.9101 9.01251 16.7244Z" fill="#EBA87C"/>
<path fill-rule="evenodd" clip-rule="evenodd" d="M8.92433 16.7384C8.98615 16.6477 8.98997 16.5922 8.98389 16.4787C8.96627 16.1108 8.27002 16.0821 8.23713 16.457C8.22688 16.5646 8.23183 16.6456 8.27726 16.7488C8.41713 17.0771 8.82443 16.8889 8.92433 16.7384Z" fill="#5E2F23"/>
<path fill-rule="evenodd" clip-rule="evenodd" d="M8.80194 16.7609C8.84767 16.6942 8.84992 16.6549 8.84581 16.5721C8.83328 16.3024 8.32395 16.2808 8.29794 16.5549C8.29088 16.6343 8.29394 16.6932 8.32714 16.7691C8.42942 17.0087 8.72828 16.8712 8.80194 16.7609Z" fill="#87665E"/>
<path fill-rule="evenodd" clip-rule="evenodd" d="M8.5987 16.7521C8.6241 16.7136 8.62649 16.6914 8.62522 16.6419C8.61706 16.4849 8.32296 16.4738 8.30885 16.6326C8.30495 16.6796 8.3078 16.7129 8.3253 16.7555C8.38475 16.8953 8.55722 16.8146 8.59955 16.7504L8.5987 16.7521Z" fill="#A75F47"/>
<path fill-rule="evenodd" clip-rule="evenodd" d="M8.31986 12.6868C8.54681 12.8689 9.14953 13.8164 9.6479 13.2396C9.95866 12.8827 10.5502 13.102 10.719 12.7857C11.2389 11.805 9.51942 11.8032 9.10736 11.8317C8.86578 11.8486 7.77538 12.2505 8.31986 12.6868Z" fill="#EBA87C"/>
<path fill-rule="evenodd" clip-rule="evenodd" d="M8.43506 12.7266C8.62574 12.878 9.13034 13.673 9.54806 13.1903C9.80701 12.8908 10.304 13.0763 10.4441 12.8095C10.8804 11.9895 9.43951 11.9869 9.09427 12.0101C8.89211 12.0252 7.97773 12.3608 8.43506 12.7266Z" fill="#5E2F23"/>
<path fill-rule="evenodd" clip-rule="evenodd" d="M8.63551 12.8148C8.76925 12.9211 9.12447 13.481 9.41823 13.1412C9.60163 12.9298 9.94986 13.0611 10.0494 12.8721C10.3558 12.2941 9.34262 12.292 9.09848 12.3098C8.95628 12.3204 8.31365 12.5562 8.63379 12.8139L8.63551 12.8148Z" fill="#87665E"/>
<path fill-rule="evenodd" clip-rule="evenodd" d="M8.76261 12.6394C8.81785 12.892 9.03673 13.3421 9.35442 13.097C9.67551 12.8493 9.23927 12.545 9.12903 12.4821C9.06358 12.4456 8.70913 12.392 8.76346 12.6377L8.76261 12.6394Z" fill="#A75F47"/>
<path fill-rule="evenodd" clip-rule="evenodd" d="M14.6529 17.9006C15.0386 18.2119 15.217 18.2233 15.6672 18.0436C15.7843 17.9971 15.9439 17.8165 15.983 17.6722C16.088 17.3031 15.9667 17.3538 15.9694 17.0618C15.9715 16.8014 15.1844 16.6706 14.9838 16.6694C13.8576 16.671 13.6864 17.1137 14.652 17.898L14.6529 17.9006Z" fill="#EBA87C"/>
<path fill-rule="evenodd" clip-rule="evenodd" d="M14.7332 17.8679C15.0404 18.1171 15.1836 18.1261 15.545 17.9833C15.6381 17.9463 15.7647 17.8025 15.798 17.6872C15.8813 17.3924 15.7847 17.432 15.788 17.1998C15.7905 16.9906 15.1614 16.8866 15.0011 16.8862C14.0993 16.888 13.9634 17.2418 14.7349 17.8687L14.7332 17.8679Z" fill="#5E2F23"/>
<path fill-rule="evenodd" clip-rule="evenodd" d="M14.9117 17.8878C15.1257 18.0614 15.2234 18.0671 15.4738 17.9673C15.5378 17.9415 15.6261 17.8405 15.6495 17.7628C15.7078 17.5577 15.6403 17.5861 15.6424 17.4256C15.6429 17.2813 15.2078 17.2091 15.0963 17.2095C14.4715 17.2096 14.3758 17.4557 14.9125 17.8904L14.9117 17.8878Z" fill="#87665E"/>
<path fill-rule="evenodd" clip-rule="evenodd" d="M15.0234 17.9217C15.1485 18.0238 15.2068 18.027 15.3537 17.9677C15.3913 17.9522 15.4431 17.8948 15.4556 17.8479C15.4889 17.7282 15.4513 17.7437 15.4505 17.6498C15.4515 17.5653 15.1958 17.5242 15.1306 17.5218C14.7646 17.5221 14.7084 17.6665 15.0234 17.9217Z" fill="#A75F47"/>
<path fill-rule="evenodd" clip-rule="evenodd" d="M6.64738 7.39031C6.57998 7.01489 6.21471 6.27581 5.75179 6.37278C3.64596 6.81175 6.88447 8.6932 6.64738 7.39031Z" fill="#EBA87C"/>
<path fill-rule="evenodd" clip-rule="evenodd" d="M6.47881 7.42834C6.42403 7.12715 6.13197 6.53469 5.75803 6.61176C4.06721 6.96415 6.66663 8.47527 6.47881 7.42834Z" fill="#5E2F23"/>
<path fill-rule="evenodd" clip-rule="evenodd" d="M6.14466 7.34226C6.10696 7.13664 5.90645 6.73172 5.65318 6.78539C4.49887 7.02609 6.27401 8.05642 6.14466 7.34226Z" fill="#87665E"/>
<path fill-rule="evenodd" clip-rule="evenodd" d="M5.85299 7.00076C5.76059 6.91908 5.51961 6.80026 5.42115 6.91751C4.97213 7.45067 6.1751 7.28922 5.85299 7.00076Z" fill="#A75F47"/>
<path fill-rule="evenodd" clip-rule="evenodd" d="M10.7387 7.91959C10.9355 7.77645 11.0044 7.61063 10.9869 7.36397C10.9625 6.99695 10.1099 7.03786 9.88833 6.98387C9.67619 6.93242 9.53082 6.87138 9.40511 7.11334C9.33676 7.2433 9.44571 7.56482 9.41874 7.72368C9.30437 8.4027 10.4072 8.16215 10.7404 7.92044L10.7387 7.91959Z" fill="#EBA87C"/>
<path fill-rule="evenodd" clip-rule="evenodd" d="M10.5429 7.87405C10.7065 7.75491 10.7628 7.61901 10.749 7.41246C10.7277 7.10861 10.0225 7.1414 9.8387 7.09755C9.66264 7.05538 9.54221 7.00451 9.43673 7.20543C9.38106 7.31401 9.47069 7.57925 9.44864 7.71078C9.35302 8.27364 10.2685 8.07462 10.5437 7.87234L10.5429 7.87405Z" fill="#5E2F23"/>
<path fill-rule="evenodd" clip-rule="evenodd" d="M10.2727 7.84923C10.3834 7.76781 10.4229 7.67464 10.4132 7.53381C10.3986 7.3247 9.91622 7.3483 9.78997 7.31794C9.66972 7.28841 9.58801 7.2545 9.51629 7.3913C9.47748 7.46569 9.53984 7.64734 9.52344 7.73703C9.45805 8.12138 10.0835 7.98552 10.2709 7.84838L10.2727 7.84923Z" fill="#87665E"/>
<path fill-rule="evenodd" clip-rule="evenodd" d="M10.0475 7.88489C10.1148 7.83518 10.1384 7.77876 10.1334 7.69341C10.1254 7.56623 9.83156 7.58075 9.75512 7.56219C9.68212 7.54533 9.63136 7.52243 9.58749 7.60707C9.56473 7.65324 9.60078 7.76241 9.59267 7.81792C9.55348 8.05365 9.93335 7.96888 10.0492 7.88573L10.0475 7.88489Z" fill="#A75F47"/>
<path fill-rule="evenodd" clip-rule="evenodd" d="M12.1824 3.92352C12.3145 3.72508 12.3255 3.60724 12.3123 3.36056C12.3093 3.30166 12.2977 3.24706 12.2801 3.19589C11.6151 3.62468 11.0858 3.78245 10.6923 3.66921C10.7059 3.7588 10.7323 3.84836 10.7752 3.94812C11.0802 4.66177 11.9623 4.25283 12.1841 3.92437L12.1824 3.92352Z" fill="#EBA87C"/>
<path fill-rule="evenodd" clip-rule="evenodd" d="M11.9706 3.91477C12.0765 3.75653 12.0851 3.66089 12.0749 3.46457C12.0719 3.41848 12.0647 3.37667 12.0507 3.33573C11.5337 3.63347 11.1078 3.75082 10.773 3.68777C10.7831 3.76714 10.8043 3.84561 10.8419 3.93429C11.0867 4.50554 11.7937 4.17822 11.9706 3.91477Z" fill="#5E2F23"/>
<path fill-rule="evenodd" clip-rule="evenodd" d="M11.773 3.95117C11.8491 3.8357 11.8546 3.76824 11.8474 3.62655C11.8443 3.56766 11.8276 3.51478 11.7998 3.47132C11.4566 3.63794 11.159 3.71649 10.9043 3.70358C10.9033 3.79237 10.9186 3.87001 10.9596 3.96465C11.1353 4.37646 11.6451 4.14106 11.7712 3.95032L11.773 3.95117Z" fill="#87665E"/>
<path fill-rule="evenodd" clip-rule="evenodd" d="M11.5469 3.97998C11.596 3.90642 11.5999 3.86373 11.5957 3.77239C11.5917 3.69813 11.5535 3.64105 11.4966 3.60024C11.318 3.66308 11.1554 3.6977 11.0046 3.70412C10.9996 3.71865 10.9954 3.73573 10.9947 3.75452C10.986 3.84162 10.9908 3.90563 11.0267 3.98919C11.1386 4.25265 11.4656 4.10144 11.5469 3.97998Z" fill="#A75F47"/>
<path fill-rule="evenodd" clip-rule="evenodd" d="M14.5951 7.61888C14.5701 7.39187 14.1264 6.60778 13.502 6.97583C13.2999 7.09509 13.4267 7.30216 13.0299 7.40406C12.6937 7.49126 12.5146 7.91095 12.8094 8.10729C13.0913 8.29513 13.0845 8.09624 13.4463 8.31714C13.6255 8.42674 14.8646 9.94098 14.5977 7.61802L14.5951 7.61888Z" fill="#EBA87C"/>
<path fill-rule="evenodd" clip-rule="evenodd" d="M14.3315 7.66321C14.3093 7.47375 13.9431 6.82346 13.4227 7.12804C13.2538 7.22756 13.3598 7.39884 13.0305 7.48517C12.7508 7.5577 12.602 7.90729 12.8468 8.07049C13.0804 8.22603 13.0739 8.06129 13.3746 8.24566C13.5245 8.33656 14.5515 9.59531 14.3306 7.66492L14.3315 7.66321Z" fill="#5E2F23"/>
<path fill-rule="evenodd" clip-rule="evenodd" d="M13.9761 7.8111C13.9622 7.68736 13.7187 7.25696 13.3757 7.45772C13.264 7.52378 13.3344 7.63712 13.1163 7.69325C12.9324 7.74074 12.8331 7.97238 12.9943 8.07947C13.1486 8.18317 13.1451 8.07305 13.3441 8.19455C13.4424 8.25573 14.1221 9.08609 13.9761 7.8111Z" fill="#87665E"/>
<path fill-rule="evenodd" clip-rule="evenodd" d="M13.651 7.88461C13.5956 7.41098 12.9379 7.89438 13.1336 8.02698C13.4025 8.20632 13.7101 8.40263 13.651 7.88461Z" fill="#A75F47"/>
<path fill-rule="evenodd" clip-rule="evenodd" d="M19.269 13.7023C19.6384 13.5911 20.3628 13.1851 20.0102 12.6373C19.9147 12.4881 19.7383 12.5032 19.5951 12.3986C19.2329 12.1393 18.7509 12.3054 18.5909 12.5432C18.4926 12.6903 18.4298 12.7614 18.5051 12.9515C18.5252 13.0019 18.5709 13.239 18.5405 13.2963C18.3439 13.6734 19.0613 13.7635 19.2699 13.7006L19.269 13.7023Z" fill="#EBA87C"/>
<path fill-rule="evenodd" clip-rule="evenodd" d="M19.2147 13.6691C19.5285 13.5752 20.1437 13.2302 19.845 12.7641C19.7642 12.6371 19.6143 12.6504 19.491 12.5619C19.184 12.3426 18.7729 12.4821 18.6366 12.6848C18.5528 12.8114 18.5001 12.8705 18.5632 13.0333C18.5807 13.076 18.6201 13.2782 18.5939 13.3269C18.4268 13.6484 19.0378 13.7243 19.2139 13.6708L19.2147 13.6691Z" fill="#5E2F23"/>
<path fill-rule="evenodd" clip-rule="evenodd" d="M19.0783 13.5466C19.2946 13.4811 19.7144 13.246 19.5103 12.9264C19.4547 12.8395 19.352 12.8484 19.2683 12.788C19.0579 12.6375 18.775 12.7339 18.6827 12.8734C18.6252 12.9598 18.5878 13.0008 18.6316 13.1117C18.6429 13.1407 18.6707 13.2798 18.6521 13.3131C18.5373 13.5328 18.9561 13.5862 19.0775 13.5483L19.0783 13.5466Z" fill="#87665E"/>
<path fill-rule="evenodd" clip-rule="evenodd" d="M18.9557 13.4437C19.0763 13.4075 19.3101 13.2762 19.1963 13.0989C19.165 13.0495 19.1085 13.0557 19.0611 13.0216C18.9438 12.9383 18.7874 12.9909 18.7358 13.0695C18.7036 13.1174 18.6841 13.1397 18.7069 13.202C18.7139 13.2182 18.7291 13.2958 18.7181 13.3138C18.6539 13.4352 18.8873 13.4652 18.9549 13.4454L18.9557 13.4437Z" fill="#A75F47"/>
<path fill-rule="evenodd" clip-rule="evenodd" d="M14.6512 12.2141C14.1944 12.0208 14.0323 12.4191 13.8993 12.7063C13.8184 12.8833 13.857 13.1956 14.0992 13.3554C14.4828 13.6104 14.6478 13.6662 15.0874 13.7555C15.7374 13.8867 15.964 13.6137 15.9312 13.0683C15.8992 12.5212 15.2206 12.4523 14.6495 12.2133L14.6512 12.2141Z" fill="#EBA87C"/>
<path fill-rule="evenodd" clip-rule="evenodd" d="M14.5545 12.3365C14.1915 12.183 14.0613 12.4993 13.956 12.7301C13.8912 12.8703 13.9224 13.1195 14.1155 13.2487C14.4197 13.4518 14.5521 13.4958 14.9024 13.5665C15.4201 13.6708 15.6018 13.4543 15.575 13.0182C15.5483 12.582 15.0078 12.5281 14.5545 12.3365Z" fill="#5E2F23"/>
<path fill-rule="evenodd" clip-rule="evenodd" d="M14.4376 12.6126C14.1951 12.51 14.1077 12.722 14.0387 12.875C13.9949 12.9682 14.016 13.1337 14.1444 13.2204C14.3469 13.3564 14.4355 13.3852 14.669 13.4323C15.0133 13.5022 15.1347 13.3558 15.1186 13.0673C15.1016 12.7763 14.7404 12.7406 14.4376 12.6126Z" fill="#87665E"/>
<path fill-rule="evenodd" clip-rule="evenodd" d="M14.3043 12.7615C14.1521 12.6971 14.0974 12.8296 14.0519 12.9262C14.0233 12.9843 14.0379 13.0893 14.118 13.1437C14.2473 13.2287 14.3023 13.2473 14.45 13.2776C14.6681 13.3213 14.7436 13.2289 14.7327 13.0471C14.7226 12.8636 14.4944 12.8404 14.3026 12.7607L14.3043 12.7615Z" fill="#A75F47"/>
<path fill-rule="evenodd" clip-rule="evenodd" d="M14.2022 15.9589C14.2569 15.9434 14.3636 15.8833 14.3115 15.8024C14.2967 15.7802 14.2719 15.7828 14.2495 15.7675C14.196 15.7284 14.1259 15.7534 14.1022 15.7885C14.087 15.8107 14.0776 15.821 14.0899 15.8482C14.0925 15.8559 14.0988 15.8909 14.0946 15.8995C14.0668 15.9559 14.1714 15.9692 14.2022 15.9589Z" fill="#EBA87C"/>
<path fill-rule="evenodd" clip-rule="evenodd" d="M16.9883 9.17499C17.0061 9.14762 17.0094 9.13225 17.0057 9.0964C17.0005 8.98544 16.7887 8.97667 16.7785 9.08853C16.7753 9.12098 16.7781 9.14573 16.7903 9.17728C16.8332 9.27703 16.9553 9.22034 16.9866 9.17414L16.9883 9.17499Z" fill="#EBA87C"/>
<path fill-rule="evenodd" clip-rule="evenodd" d="M18.1836 10.0491C18.179 10.0107 18.1024 9.8752 17.9941 9.93868C17.9583 9.95928 17.9817 9.99421 17.9124 10.0132C17.8542 10.027 17.824 10.1014 17.874 10.1345C17.9223 10.1668 17.922 10.1327 17.984 10.1718C18.015 10.1913 18.2289 10.4519 18.1827 10.0508L18.1836 10.0491Z" fill="#EBA87C"/>
<path fill-rule="evenodd" clip-rule="evenodd" d="M18.8283 7.89933C18.8854 7.85733 18.9047 7.80947 18.899 7.73863C18.8913 7.63279 18.6462 7.64375 18.581 7.62858C18.52 7.61339 18.477 7.59644 18.4407 7.6657C18.4221 7.70331 18.4529 7.79713 18.4456 7.8424C18.4129 8.03884 18.7321 7.96876 18.8266 7.89848L18.8283 7.89933Z" fill="#EBA87C"/>
<path fill-rule="evenodd" clip-rule="evenodd" d="M13.4257 16.6877C13.4792 16.731 13.5041 16.7327 13.5656 16.7077C13.5818 16.7009 13.6047 16.676 13.6097 16.6572C13.6239 16.6068 13.6077 16.6137 13.6082 16.5736C13.6087 16.5377 13.4997 16.5201 13.4723 16.5193C13.3163 16.5189 13.292 16.5813 13.4266 16.6902L13.4257 16.6877Z" fill="#EBA87C"/>
<path fill-rule="evenodd" clip-rule="evenodd" d="M6.33951 9.23432C6.45428 9.32704 6.88121 9.43763 6.97661 9.26149C7.11503 9.00242 6.64171 9.08575 6.53292 9.09375C6.46867 9.09821 6.19541 9.11864 6.34123 9.23517L6.33951 9.23432Z" fill="#EBA87C"/>
<path fill-rule="evenodd" clip-rule="evenodd" d="M5.75819 10.8691C5.76338 10.7718 5.6587 10.7584 5.58229 10.7442C5.53508 10.7358 5.46753 10.7556 5.45169 10.8094C5.42496 10.894 5.42696 10.929 5.44313 11.0177C5.46822 11.1491 5.54905 11.1805 5.67052 11.1511C5.792 11.1217 5.75061 10.9887 5.75731 10.8666L5.75819 10.8691Z" fill="#EBA87C"/>
<path fill-rule="evenodd" clip-rule="evenodd" d="M13.4042 15.7461C13.3508 15.7241 13.3324 15.7702 13.3164 15.8027C13.3062 15.8232 13.3117 15.8599 13.3393 15.8778C13.3841 15.9084 13.403 15.9134 13.4536 15.9235C13.5292 15.9395 13.5555 15.9079 13.5507 15.8438C13.5476 15.7807 13.4678 15.7732 13.4024 15.7452L13.4042 15.7461Z" fill="#EBA87C"/>
<path fill-rule="evenodd" clip-rule="evenodd" d="M6.5919 12.0729C6.60883 12.0473 6.61214 12.0319 6.60845 12.0003C6.60415 11.8962 6.40694 11.8882 6.39753 11.9941C6.39522 12.0249 6.39712 12.047 6.4085 12.076C6.44785 12.1698 6.56226 12.1157 6.5919 12.0729Z" fill="#EBA87C"/>
<path fill-rule="evenodd" clip-rule="evenodd" d="M19.2013 14.5254C19.274 14.5039 19.4156 14.4249 19.347 14.3167C19.3288 14.2886 19.2936 14.2904 19.2652 14.27C19.1936 14.2198 19.0987 14.2517 19.0674 14.2979C19.0488 14.327 19.036 14.3398 19.0509 14.379C19.0544 14.3893 19.0634 14.4362 19.0583 14.4465C19.0195 14.5208 19.1611 14.5375 19.2013 14.5254Z" fill="#EBA87C"/>
<path fill-rule="evenodd" clip-rule="evenodd" d="M17.4074 14.6528C17.4774 14.7106 17.5108 14.7122 17.5954 14.6795C17.6167 14.6709 17.6465 14.6367 17.6548 14.6111C17.674 14.5419 17.6518 14.5522 17.6522 14.4992C17.6526 14.4506 17.5076 14.428 17.4699 14.4264C17.2624 14.4261 17.2305 14.5082 17.4092 14.6536L17.4074 14.6528Z" fill="#EBA87C"/>
<path fill-rule="evenodd" clip-rule="evenodd" d="M17.1033 12.4964C17.0327 12.4658 17.0084 12.5282 16.9865 12.5727C16.973 12.6 16.9794 12.6478 17.0182 12.6733C17.0777 12.7133 17.1034 12.7217 17.1713 12.736C17.2726 12.7562 17.3065 12.7134 17.3024 12.6307C17.2974 12.5453 17.1928 12.5362 17.1042 12.4989L17.1033 12.4964Z" fill="#EBA87C"/>
<path fill-rule="evenodd" clip-rule="evenodd" d="M18.5561 14.7578C18.5634 14.7126 18.5556 14.6981 18.5202 14.67C18.5107 14.6632 18.4892 14.659 18.4755 14.6607C18.4413 14.6694 18.4508 14.6762 18.4269 14.6899C18.4064 14.7011 18.4319 14.771 18.4414 14.7863C18.4936 14.8758 18.5373 14.8697 18.5561 14.7578Z" fill="#EBA87C"/>
<path fill-rule="evenodd" clip-rule="evenodd" d="M7.42903 13.6908C7.46655 13.6668 7.47241 13.6506 7.47034 13.607C7.46939 13.5959 7.45807 13.5755 7.44602 13.5695C7.41673 13.5508 7.41768 13.5619 7.39189 13.5535C7.36955 13.5467 7.33579 13.6108 7.32909 13.6288C7.29734 13.7279 7.33099 13.7551 7.42819 13.6925L7.42903 13.6908Z" fill="#EBA87C"/>
<path fill-rule="evenodd" clip-rule="evenodd" d="M6.32828 11.0843C6.30366 11.1125 6.32955 11.1338 6.34683 11.1508C6.35892 11.161 6.3821 11.1661 6.39998 11.1515C6.42808 11.1292 6.43571 11.1181 6.4526 11.0882C6.47708 11.0429 6.46233 11.0207 6.42109 11.0089C6.37984 10.9971 6.35968 11.0466 6.3274 11.0817L6.32828 11.0843Z" fill="#EBA87C"/>
<path fill-rule="evenodd" clip-rule="evenodd" d="M12.5554 4.75988C12.6281 4.73832 12.7697 4.65937 12.7011 4.55115C12.6828 4.52303 12.6477 4.52484 12.6193 4.50444C12.5477 4.45428 12.4528 4.48614 12.4215 4.53233C12.4029 4.56141 12.3901 4.57426 12.405 4.61348C12.4085 4.62372 12.4175 4.67064 12.4124 4.6809C12.3736 4.75529 12.5152 4.77195 12.5554 4.75988Z" fill="#EBA87C"/>
<path fill-rule="evenodd" clip-rule="evenodd" d="M11.9101 4.99225C11.9175 4.94699 11.9096 4.9325 11.8743 4.90443C11.8648 4.89763 11.8433 4.89342 11.8296 4.89517C11.7954 4.90381 11.8049 4.91061 11.781 4.92434C11.7605 4.93549 11.786 5.00542 11.7955 5.02076C11.8477 5.11025 11.8914 5.10414 11.9101 4.99225Z" fill="#EBA87C"/>
<path fill-rule="evenodd" clip-rule="evenodd" d="M8.48972 5.77568C8.49492 5.67835 8.39023 5.665 8.31383 5.65071C8.26661 5.64231 8.19906 5.66214 8.18322 5.71597C8.1565 5.80056 8.1585 5.83556 8.17466 5.92429C8.19975 6.05569 8.28059 6.08704 8.40206 6.05766C8.52353 6.02828 8.48214 5.89522 8.48884 5.77313L8.48972 5.77568Z" fill="#EBA87C"/>
<path fill-rule="evenodd" clip-rule="evenodd" d="M10.6658 6.67853C10.6827 6.65287 10.686 6.6375 10.6824 6.60592C10.6781 6.50178 10.4809 6.49382 10.4714 6.59971C10.4691 6.63045 10.471 6.65264 10.4824 6.68163C10.5218 6.77542 10.6362 6.7213 10.6658 6.67853Z" fill="#EBA87C"/>
<path fill-rule="evenodd" clip-rule="evenodd" d="M10.4131 4.62615C10.3885 4.6544 10.4144 4.67566 10.4316 4.69269C10.4437 4.7029 10.4669 4.70795 10.4848 4.69339C10.5129 4.67111 10.5205 4.65999 10.5374 4.63006C10.5619 4.58474 10.5471 4.56259 10.5059 4.55076C10.4647 4.53893 10.4445 4.5885 10.4122 4.62359L10.4131 4.62615Z" fill="#EBA87C"/>
<path fill-rule="evenodd" clip-rule="evenodd" d="M10.8193 16.3017C10.8362 16.276 10.8395 16.2607 10.8358 16.2291C10.8315 16.125 10.6343 16.117 10.6249 16.2229C10.6226 16.2536 10.6245 16.2758 10.6359 16.3048C10.6752 16.3986 10.7896 16.3445 10.8193 16.3017Z" fill="#EBA87C"/>
<path fill-rule="evenodd" clip-rule="evenodd" d="M13.583 10.223C13.5999 10.1974 13.6032 10.182 13.5995 10.1504C13.5952 10.0463 13.398 10.0383 13.3886 10.1442C13.3863 10.1749 13.3882 10.1971 13.3996 10.2261C13.4389 10.3199 13.5533 10.2658 13.583 10.223Z" fill="#EBA87C"/>
<path fill-rule="evenodd" clip-rule="evenodd" d="M14.4184 11.84C14.4559 11.816 14.4618 11.7998 14.4597 11.7562C14.4587 11.7452 14.4474 11.7247 14.4354 11.7188C14.4061 11.7001 14.407 11.7112 14.3812 11.7027C14.3589 11.6959 14.3251 11.7601 14.3184 11.778C14.2867 11.8771 14.3203 11.9043 14.4175 11.8417L14.4184 11.84Z" fill="#EBA87C"/>
<path fill-rule="evenodd" clip-rule="evenodd" d="M13.3193 9.23437C13.2947 9.26261 13.3206 9.28388 13.3379 9.3009C13.35 9.31111 13.3732 9.31617 13.391 9.3016C13.4191 9.27932 13.4268 9.2682 13.4437 9.23827C13.4681 9.19296 13.4534 9.1708 13.4121 9.15897C13.3709 9.14714 13.3507 9.19671 13.3185 9.23181L13.3193 9.23437Z" fill="#EBA87C"/>
<path fill-rule="evenodd" clip-rule="evenodd" d="M11.7146 11.591C11.7219 11.5457 11.7141 11.5313 11.6787 11.5032C11.6692 11.4964 11.6477 11.4922 11.634 11.4939C11.5998 11.5026 11.6093 11.5094 11.5854 11.5231C11.5649 11.5342 11.5904 11.6042 11.5999 11.6195C11.6521 11.709 11.6958 11.7029 11.7146 11.591Z" fill="#EBA87C"/>
<path fill-rule="evenodd" clip-rule="evenodd" d="M11.7643 9.10748C11.6989 9.18365 11.7654 9.2398 11.8146 9.2832C11.8439 9.31043 11.9066 9.3222 11.9526 9.28535C12.0258 9.22794 12.0462 9.19971 12.0918 9.12019C12.1577 9.00389 12.1178 8.94169 12.0095 8.91383C11.9013 8.88598 11.8458 9.01163 11.7643 9.10748Z" fill="#EBA87C"/>
<path fill-rule="evenodd" clip-rule="evenodd" d="M7.63352 15.7151C7.63872 15.6178 7.53403 15.6044 7.45763 15.5902C7.41041 15.5818 7.34286 15.6016 7.32702 15.6554C7.30029 15.74 7.3023 15.775 7.31846 15.8637C7.34355 15.9951 7.42439 16.0265 7.54586 15.9971C7.66733 15.9677 7.62594 15.8347 7.63264 15.7126L7.63352 15.7151Z" fill="#EBA87C"/>
<path fill-rule="evenodd" clip-rule="evenodd" d="M7.63033 11.9154C7.6481 11.888 7.6514 11.8727 7.64768 11.8368C7.64247 11.7259 7.43068 11.7171 7.42047 11.8289C7.41731 11.8614 7.42008 11.8861 7.43234 11.9177C7.47517 12.0175 7.59728 11.9608 7.62861 11.9146L7.63033 11.9154Z" fill="#EBA87C"/>
<path fill-rule="evenodd" clip-rule="evenodd" d="M9.47034 10.6397C9.52742 10.5977 9.54674 10.5499 9.54101 10.479C9.53328 10.3732 9.28822 10.3842 9.22295 10.369C9.16197 10.3538 9.11897 10.3369 9.08269 10.4061C9.06414 10.4437 9.09492 10.5375 9.08758 10.5828C9.05492 10.7793 9.37406 10.7092 9.46862 10.6389L9.47034 10.6397Z" fill="#EBA87C"/>
</g>
<defs>
<clipPath id="clip0_68_3736">
<rect width="18" height="16" fill="white" transform="translate(7.78955) rotate(26.2442)"/>
</clipPath>
</defs>
</svg>
