<svg width="28" height="27" viewBox="0 0 28 27" fill="none" xmlns="http://www.w3.org/2000/svg">
<g clip-path="url(#clip0_68_3079)">
<path fill-rule="evenodd" clip-rule="evenodd" d="M11.6685 1.87246C10.9986 8.3116 9.79326 10.4397 2.17868 9.51675C2.21562 9.50544 1.96127 8.55214 4.51565 8.95712C4.97512 9.03094 6.78839 8.4306 7.27357 8.09466C7.81417 7.72095 7.87353 7.72421 8.28106 7.21735C9.0566 6.25295 9.67949 5.67714 10.1735 4.52195C10.2888 4.25366 11.0341 3.64024 11.1511 2.86666C11.2183 2.42117 11.297 2.68305 11.2959 2.0613C11.2953 1.86136 11.5074 1.89588 11.6705 1.87217L11.6685 1.87246Z" fill="#BF7644"/>
<path fill-rule="evenodd" clip-rule="evenodd" d="M20.2101 22.7177C18.2641 24.8069 12.3036 25.0378 10.702 24.2586C9.36658 23.607 6.90699 23.2814 5.20317 21.0593C3.7047 19.1045 2.812 17.7549 2.46683 15.3809C2.19131 13.4859 1.70106 11.3291 2.17669 9.51701C2.27438 9.53252 2.38741 9.54183 2.528 9.54516C3.294 9.56252 4.15855 9.57347 4.90882 9.69215C5.3683 9.76597 7.18156 9.16563 7.66674 8.82969C8.20734 8.45598 8.2667 8.45924 8.67423 7.95237C9.44977 6.98797 9.87074 6.12662 10.3647 4.97143C10.48 4.70314 11.2254 4.08972 11.3424 3.31614C11.4096 2.87065 11.491 2.92812 11.49 2.30638C11.4895 2.24704 11.5331 2.08621 11.5966 1.8809C13.8717 1.56595 16.2572 1.60532 17.6245 1.83432C18.5216 1.98512 19.1551 2.43173 19.9781 2.79928C20.7534 3.14605 21.6116 3.53225 21.9821 3.88834C22.5814 4.46272 23.5072 6.19379 24.1831 6.862C25.1441 7.81554 26.4274 10.4829 26.081 12.7793C25.6017 15.9485 25.6261 18.4068 22.8562 20.9604C21.9197 21.8234 20.8496 22.0325 20.2098 22.7157L20.2101 22.7177Z" fill="#BF7644"/>
<path fill-rule="evenodd" clip-rule="evenodd" d="M9.31389 20.7449C8.97094 20.3274 8.4764 20.6548 8.1021 20.8875C7.87303 21.0297 7.6642 21.3671 7.79882 21.6505C8.01194 22.0968 8.14756 22.2336 8.5534 22.539C9.15478 22.9883 9.62132 22.8175 10.0232 22.2441C10.4249 21.6688 9.74165 21.271 9.31418 20.7469L9.31389 20.7449Z" fill="#BF7644"/>
<path fill-rule="evenodd" clip-rule="evenodd" d="M9.38695 20.968C9.10073 20.6194 8.68975 20.8931 8.37854 21.0849C8.18841 21.2016 8.01429 21.4844 8.12766 21.7195C8.30564 22.0917 8.41771 22.2061 8.75685 22.4578C9.25777 22.8306 9.64532 22.6891 9.98012 22.2126C10.3146 21.7342 9.74664 21.4029 9.38894 20.9677L9.38695 20.968Z" fill="#5E2F23"/>
<path fill-rule="evenodd" clip-rule="evenodd" d="M9.13915 21.3585C8.83196 21.2428 8.67485 21.5587 8.54992 21.7888C8.4728 21.9288 8.47057 22.1648 8.62639 22.2729C8.87417 22.4408 8.98831 22.4718 9.29445 22.5104C9.74514 22.5657 9.93794 22.3416 9.96905 21.9271C10.0019 21.5104 9.52214 21.5069 9.13773 21.3627L9.13915 21.3585Z" fill="#87665E"/>
<path fill-rule="evenodd" clip-rule="evenodd" d="M9.16633 21.7269C8.95017 21.7485 8.95334 21.9797 8.95146 22.1484C8.95021 22.2515 9.01937 22.392 9.14347 22.4076C9.34027 22.4345 9.41726 22.4193 9.60848 22.3519C9.89061 22.2534 9.93455 22.0668 9.82688 21.8151C9.71921 21.5634 9.43647 21.6995 9.16633 21.7269Z" fill="#A75F47"/>
<path fill-rule="evenodd" clip-rule="evenodd" d="M16.1821 22.414C16.1568 22.2395 16.102 22.1702 15.9715 22.0406C15.545 21.6214 14.6664 22.3374 15.0354 22.8224C15.1432 22.9632 15.2354 23.0528 15.4026 23.1275C15.9329 23.3673 16.2224 22.7053 16.1801 22.4143L16.1821 22.414Z" fill="#BF7644"/>
<path fill-rule="evenodd" clip-rule="evenodd" d="M16.1082 22.5061C16.0873 22.3626 16.0428 22.3076 15.9361 22.2023C15.59 21.8605 14.8728 22.4441 15.1737 22.838C15.2613 22.9521 15.3371 23.0262 15.4739 23.0875C15.9066 23.2841 16.1426 22.7427 16.1082 22.5061Z" fill="#5E2F23"/>
<path fill-rule="evenodd" clip-rule="evenodd" d="M16.0052 22.6359C15.99 22.5312 15.9577 22.4903 15.8794 22.4126C15.6257 22.1623 15.101 22.5891 15.3196 22.8782C15.3826 22.9621 15.4391 23.0153 15.539 23.0602C15.8564 23.2042 16.0281 22.8069 16.003 22.6343L16.0052 22.6359Z" fill="#87665E"/>
<path fill-rule="evenodd" clip-rule="evenodd" d="M15.7966 22.8069C15.7878 22.7468 15.77 22.7216 15.7229 22.677C15.5759 22.532 15.2709 22.7803 15.3988 22.9479C15.4362 22.9959 15.4692 23.0268 15.5259 23.0542C15.7085 23.1366 15.8093 22.908 15.7946 22.8072L15.7966 22.8069Z" fill="#A75F47"/>
<path fill-rule="evenodd" clip-rule="evenodd" d="M11.886 19.0935C12.2746 19.0707 13.7204 19.4625 13.703 18.4629C13.6917 17.8407 14.478 17.5362 14.3626 17.0777C14.005 15.666 12.2916 17.1768 11.9078 17.5673C11.6832 17.796 10.9561 19.1495 11.888 19.0932L11.886 19.0935Z" fill="#BF7644"/>
<path fill-rule="evenodd" clip-rule="evenodd" d="M12.0375 19.0318C12.3616 19.0124 13.5729 19.3414 13.5587 18.5037C13.5499 17.9821 14.2071 17.7261 14.1106 17.342C13.8108 16.1597 12.3766 17.4258 12.0544 17.7519C11.8651 17.9438 11.2581 19.0758 12.0372 19.0299L12.0375 19.0318Z" fill="#5E2F23"/>
<path fill-rule="evenodd" clip-rule="evenodd" d="M12.3165 18.9397C12.546 18.9262 13.3978 19.1568 13.3874 18.5682C13.3807 18.2007 13.8438 18.0205 13.7762 17.7511C13.5658 16.9182 12.5563 17.8096 12.3279 18.0409C12.1952 18.1751 11.7672 18.9741 12.3165 18.9397Z" fill="#87665E"/>
<path fill-rule="evenodd" clip-rule="evenodd" d="M12.2878 18.6588C12.5682 18.8557 13.1866 19.1005 13.286 18.583C13.3845 18.0597 12.6786 18.1484 12.5133 18.1844C12.417 18.2063 12.0142 18.4669 12.2898 18.6585L12.2878 18.6588Z" fill="#A75F47"/>
<path fill-rule="evenodd" clip-rule="evenodd" d="M22.8448 18.5914C23.5057 18.5566 23.6936 18.4105 23.9819 17.8378C24.0559 17.6904 24.0526 17.374 23.9661 17.1984C23.7399 16.746 23.6651 16.9015 23.4083 16.616C23.1783 16.3603 22.2776 16.925 22.078 17.1025C20.9596 18.097 21.1843 18.6783 22.8468 18.5911L22.8448 18.5914Z" fill="#BF7644"/>
<path fill-rule="evenodd" clip-rule="evenodd" d="M22.8949 18.4891C23.4249 18.4615 23.5744 18.3447 23.8041 17.8855C23.8641 17.7678 23.8618 17.5146 23.7907 17.3745C23.6102 17.0125 23.5492 17.1382 23.3433 16.9087C23.1592 16.7038 22.4393 17.157 22.2789 17.2972C21.3834 18.0929 21.5647 18.5577 22.8926 18.4874L22.8949 18.4891Z" fill="#5E2F23"/>
<path fill-rule="evenodd" clip-rule="evenodd" d="M23.0924 18.3534C23.4591 18.3337 23.5631 18.2532 23.7239 17.9347C23.7649 17.8535 23.7637 17.6774 23.7149 17.5795C23.5891 17.3285 23.5489 17.4155 23.406 17.2561C23.2777 17.1143 22.7792 17.4284 22.6675 17.5259C22.0472 18.0775 22.1712 18.4001 23.0941 18.3511L23.0924 18.3534Z" fill="#87665E"/>
<path fill-rule="evenodd" clip-rule="evenodd" d="M23.2311 18.2877C23.4466 18.2761 23.5066 18.2278 23.5994 18.042C23.623 17.995 23.6223 17.8921 23.5937 17.8349C23.5197 17.6892 23.4963 17.7381 23.4118 17.6454C23.3366 17.5613 23.0447 17.7463 22.9799 17.8033C22.6166 18.1255 22.6888 18.315 23.2291 18.2879L23.2311 18.2877Z" fill="#A75F47"/>
<path fill-rule="evenodd" clip-rule="evenodd" d="M5.49279 15.4123C5.09093 15.1063 4.06658 14.7086 3.69313 15.2125C1.9923 17.4938 6.89192 16.4744 5.49279 15.4123Z" fill="#BF7644"/>
<path fill-rule="evenodd" clip-rule="evenodd" d="M5.35712 15.5964C5.03529 15.352 4.21309 15.0319 3.91246 15.4361C2.54638 17.2686 6.48011 16.4491 5.35712 15.5964Z" fill="#5E2F23"/>
<path fill-rule="evenodd" clip-rule="evenodd" d="M4.94904 15.8063C4.72768 15.6384 4.16809 15.4207 3.96246 15.6962C3.02956 16.9469 5.71587 16.388 4.94904 15.8063Z" fill="#87665E"/>
<path fill-rule="evenodd" clip-rule="evenodd" d="M4.35323 15.7305C4.18679 15.7309 3.84188 15.8306 3.84877 16.0316C3.87793 16.9444 4.93151 15.7276 4.35323 15.7305Z" fill="#A75F47"/>
<path fill-rule="evenodd" clip-rule="evenodd" d="M10.0344 12.3218C10.1026 12.0089 10.0219 11.7889 9.78386 11.5621C9.4306 11.2272 8.61945 12.0166 8.35005 12.1607C8.09201 12.2992 7.89454 12.3656 7.98564 12.7128C8.03515 12.8997 8.43028 13.1175 8.54541 13.2949C9.03797 14.0571 9.92027 12.8494 10.0344 12.3218Z" fill="#BF7644"/>
<path fill-rule="evenodd" clip-rule="evenodd" d="M9.79742 12.4514C9.85308 12.1918 9.78794 12.0091 9.59017 11.822C9.29792 11.5436 8.62552 12.1979 8.40329 12.3174C8.19044 12.4315 8.02593 12.4871 8.10033 12.7754C8.14107 12.9299 8.46779 13.1101 8.56449 13.2585C8.97311 13.8903 9.70295 12.8909 9.79771 12.4533L9.79742 12.4514Z" fill="#5E2F23"/>
<path fill-rule="evenodd" clip-rule="evenodd" d="M9.50776 12.6658C9.54686 12.4878 9.50041 12.3638 9.36591 12.2348C9.16559 12.0441 8.70699 12.493 8.55439 12.5747C8.40945 12.6532 8.29524 12.6916 8.34814 12.8879C8.37558 12.9928 8.60069 13.1165 8.66619 13.2179C8.94636 13.6505 9.44581 12.9659 9.51003 12.6674L9.50776 12.6658Z" fill="#87665E"/>
<path fill-rule="evenodd" clip-rule="evenodd" d="M9.3141 12.8979C9.33694 12.7896 9.30975 12.7144 9.22718 12.6353C9.10489 12.5203 8.82569 12.7927 8.73333 12.8417C8.64495 12.8902 8.57506 12.9123 8.60674 13.0325C8.62429 13.0972 8.75912 13.1727 8.80052 13.234C8.97066 13.4965 9.27557 13.0798 9.3141 12.8979Z" fill="#A75F47"/>
<path fill-rule="evenodd" clip-rule="evenodd" d="M13.6016 8.63231C13.3738 8.43371 12.2312 8.06112 11.9389 8.96913C11.8437 9.26421 12.1552 9.3536 11.8511 9.80383C11.5937 10.1839 11.7899 10.7515 12.2592 10.6833C12.7285 10.615 12.523 10.431 13.0807 10.3282C13.3574 10.276 15.9413 10.6609 13.5996 8.6326L13.6016 8.63231Z" fill="#BF7644"/>
<path fill-rule="evenodd" clip-rule="evenodd" d="M13.3778 8.9084C13.1874 8.74397 12.2408 8.434 11.9972 9.18836C11.9191 9.43342 12.1775 9.50676 11.9252 9.88014C11.7112 10.1964 11.8752 10.6677 12.2649 10.6111C12.6547 10.5544 12.4841 10.401 12.9469 10.3158C13.1762 10.2726 15.3242 10.5921 13.3778 8.9084Z" fill="#5E2F23"/>
<path fill-rule="evenodd" clip-rule="evenodd" d="M13.1561 9.36646C13.0306 9.25794 12.4037 9.05201 12.245 9.5524C12.1934 9.71438 12.3629 9.76301 12.1977 10.0089C12.0574 10.2174 12.1636 10.5288 12.4221 10.4912C12.6806 10.4536 12.5665 10.3533 12.8731 10.2969C13.0253 10.2688 14.4427 10.4786 13.1581 9.36617L13.1561 9.36646Z" fill="#87665E"/>
<path fill-rule="evenodd" clip-rule="evenodd" d="M12.8992 9.72269C12.4208 9.309 12.1982 10.3614 12.5123 10.3157C12.9418 10.2532 13.4216 10.1736 12.8992 9.72269Z" fill="#A75F47"/>
<path fill-rule="evenodd" clip-rule="evenodd" d="M15.949 4.65264C15.5732 3.53478 14.5263 2.73039 13.5889 3.92232C12.1254 5.78294 16.2919 5.67031 15.949 4.65264Z" fill="#BF7644"/>
<path fill-rule="evenodd" clip-rule="evenodd" d="M15.7498 4.70745C15.4318 3.7634 14.5495 3.0856 13.7577 4.09197C12.524 5.66171 16.0372 5.56681 15.7498 4.70745Z" fill="#5E2F23"/>
<path fill-rule="evenodd" clip-rule="evenodd" d="M15.5762 4.82578C15.3655 4.20084 14.7826 3.75283 14.2579 4.41734C13.4402 5.45521 15.7684 5.39397 15.5762 4.82578Z" fill="#87665E"/>
<path fill-rule="evenodd" clip-rule="evenodd" d="M15.365 4.93759C15.2427 4.57115 14.8979 4.30835 14.591 4.69759C14.1112 5.30804 15.4763 5.26999 15.365 4.93759Z" fill="#A75F47"/>
<path fill-rule="evenodd" clip-rule="evenodd" d="M23.686 10.4399C23.9537 10.0048 24.3115 8.97442 23.4708 8.75007C23.2428 8.69014 23.0804 8.85832 22.8446 8.88468C22.2535 8.9528 21.9203 9.53798 21.9745 9.91038C22.008 10.1412 22.0099 10.2657 22.2526 10.3849C22.3182 10.4169 22.5753 10.6073 22.5974 10.6893C22.7391 11.2311 23.5346 10.6837 23.684 10.4402L23.686 10.4399Z" fill="#BF7644"/>
<path fill-rule="evenodd" clip-rule="evenodd" d="M23.6008 10.4543C23.8293 10.0844 24.1344 9.20818 23.4182 9.0172C23.224 8.96621 23.0864 9.10902 22.8867 9.13211C22.3834 9.18945 22.1005 9.68808 22.1465 10.0042C22.175 10.2001 22.176 10.3049 22.3838 10.4074C22.4386 10.4351 22.6588 10.5952 22.6772 10.6658C22.7969 11.1257 23.4725 10.6611 23.6008 10.4543Z" fill="#5E2F23"/>
<path fill-rule="evenodd" clip-rule="evenodd" d="M23.3571 10.4541C23.5133 10.2017 23.7224 9.60085 23.2323 9.47009C23.0991 9.434 23.0039 9.53301 22.8681 9.54879C22.5247 9.58882 22.3306 9.92996 22.3622 10.1472C22.3816 10.281 22.3821 10.3542 22.5241 10.4227C22.5613 10.4411 22.7114 10.5519 22.7244 10.5996C22.8067 10.9144 23.2703 10.5974 23.3571 10.4541Z" fill="#87665E"/>
<path fill-rule="evenodd" clip-rule="evenodd" d="M23.1412 10.4636C23.2283 10.3222 23.3442 9.98846 23.0717 9.9152C22.9978 9.89623 22.9447 9.94951 22.8688 9.95856C22.6771 9.9805 22.5687 10.1705 22.5862 10.2908C22.5972 10.3664 22.5968 10.4061 22.6775 10.4439C22.6993 10.4546 22.7813 10.5159 22.7893 10.5425C22.8351 10.7181 23.0937 10.5418 23.141 10.4617L23.1412 10.4636Z" fill="#A75F47"/>
<path fill-rule="evenodd" clip-rule="evenodd" d="M17.7617 13.056C17.1352 13.2719 17.3297 13.8002 17.4546 14.1979C17.5304 14.4404 17.85 14.7108 18.2337 14.655C18.8422 14.5666 19.0562 14.4741 19.5729 14.1731C20.3368 13.7293 20.3177 13.2627 19.7998 12.7597C19.2797 12.255 18.5427 12.786 17.7617 13.056Z" fill="#BF7644"/>
<path fill-rule="evenodd" clip-rule="evenodd" d="M17.7754 13.262C17.2765 13.4336 17.4311 13.8548 17.5322 14.1728C17.5927 14.366 17.8473 14.5805 18.1535 14.536C18.6387 14.4655 18.8086 14.3912 19.2207 14.1531C19.8292 13.7992 19.8156 13.4268 19.4002 13.0278C18.9846 12.6267 18.3982 13.0487 17.7757 13.264L17.7754 13.262Z" fill="#5E2F23"/>
<path fill-rule="evenodd" clip-rule="evenodd" d="M17.9048 13.6353C17.5721 13.749 17.676 14.031 17.7411 14.2414C17.7822 14.3701 17.9513 14.5138 18.1561 14.4841C18.4802 14.4369 18.593 14.3888 18.8681 14.228C19.2726 13.993 19.2649 13.7445 18.9885 13.4777C18.7121 13.2109 18.3205 13.4917 17.9048 13.6353Z" fill="#87665E"/>
<path fill-rule="evenodd" clip-rule="evenodd" d="M17.9062 13.8966C17.6974 13.9686 17.7617 14.1454 17.8036 14.2799C17.8296 14.3613 17.936 14.4508 18.0653 14.432C18.2701 14.4022 18.3408 14.3721 18.5151 14.2715C18.7717 14.1233 18.765 13.9658 18.5902 13.7972C18.4155 13.6285 18.1693 13.8069 17.9062 13.8966Z" fill="#A75F47"/>
<path fill-rule="evenodd" clip-rule="evenodd" d="M20.6622 17.0985C20.7017 17.0353 20.7547 16.883 20.6301 16.8497C20.5963 16.8407 20.5715 16.8661 20.5374 16.8691C20.4497 16.8798 20.4013 16.9661 20.4092 17.0204C20.4143 17.0553 20.4148 17.0731 20.4497 17.0898C20.4585 17.0944 20.4971 17.1225 20.5008 17.1338C20.5226 17.2139 20.6388 17.1336 20.6619 17.0966L20.6622 17.0985Z" fill="#BF7644"/>
<path fill-rule="evenodd" clip-rule="evenodd" d="M17.3735 8.04024C17.3673 7.99757 17.3545 7.97962 17.3213 7.94682C17.2169 7.84317 16.9989 8.01945 17.0897 8.14093C17.1169 8.1746 17.1385 8.19721 17.1799 8.21694C17.3105 8.27717 17.3839 8.11201 17.3735 8.04024Z" fill="#BF7644"/>
<path fill-rule="evenodd" clip-rule="evenodd" d="M19.342 7.83723C19.3026 7.80335 19.1064 7.73879 19.0559 7.89466C19.0388 7.94468 19.0939 7.96044 19.0402 8.03758C18.9969 8.10328 19.0295 8.20153 19.111 8.18968C19.1925 8.17783 19.1554 8.1456 19.2522 8.12756C19.3 8.12062 19.7458 8.18453 19.3417 7.83529L19.342 7.83723Z" fill="#BF7644"/>
<path fill-rule="evenodd" clip-rule="evenodd" d="M18.0616 5.17538C18.081 5.08542 18.0575 5.0215 17.9891 4.95618C17.8878 4.85999 17.653 5.08823 17.5757 5.12918C17.5023 5.16955 17.4441 5.18792 17.471 5.28898C17.4848 5.34242 17.5995 5.40497 17.6335 5.45746C17.7753 5.67847 18.031 5.32837 18.0638 5.17703L18.0616 5.17538Z" fill="#BF7644"/>
<path fill-rule="evenodd" clip-rule="evenodd" d="M20.54 18.4928C20.6326 18.4873 20.6582 18.4677 20.6975 18.3887C20.7086 18.3673 20.7064 18.324 20.6947 18.3C20.6633 18.2372 20.6522 18.2586 20.6181 18.22C20.5866 18.185 20.4619 18.2625 20.4332 18.2885C20.2785 18.4259 20.3085 18.5067 20.5403 18.4947L20.54 18.4928Z" fill="#BF7644"/>
<path fill-rule="evenodd" clip-rule="evenodd" d="M6.83266 17.4773C7.02808 17.4667 7.55352 17.1982 7.48988 16.9421C7.39484 16.5677 7.00038 17.0667 6.89774 17.1708C6.83746 17.231 6.58498 17.4915 6.83266 17.4773Z" fill="#BF7644"/>
<path fill-rule="evenodd" clip-rule="evenodd" d="M7.71549 19.583C7.63408 19.484 7.51755 19.5623 7.43001 19.6166C7.37601 19.6502 7.32679 19.7307 7.35853 19.7954C7.40841 19.901 7.44161 19.9338 7.53725 20.0051C7.67858 20.1113 7.78854 20.0715 7.8844 19.9348C7.97827 19.7983 7.81846 19.7047 7.71748 19.5827L7.71549 19.583Z" fill="#BF7644"/>
<path fill-rule="evenodd" clip-rule="evenodd" d="M19.6784 17.5941C19.6048 17.6187 19.628 17.6806 19.6427 17.726C19.6509 17.7545 19.6878 17.7848 19.7335 17.7782C19.8051 17.7678 19.8299 17.7563 19.8898 17.7218C19.9779 17.6713 19.976 17.6162 19.9167 17.5575C19.8554 17.499 19.771 17.5608 19.6801 17.5919L19.6784 17.5941Z" fill="#BF7644"/>
<path fill-rule="evenodd" clip-rule="evenodd" d="M9.62027 20.0171C9.61435 19.9764 9.60187 19.9604 9.57122 19.9312C9.4739 19.8344 9.27037 19.9987 9.35575 20.111C9.38071 20.1431 9.40199 20.1637 9.44116 20.1818C9.56295 20.2374 9.63014 20.085 9.62027 20.0171Z" fill="#BF7644"/>
<path fill-rule="evenodd" clip-rule="evenodd" d="M24.3531 11.2995C24.4058 11.2146 24.4758 11.0123 24.3109 10.967C24.2666 10.9556 24.2347 10.988 24.1887 10.9927C24.0728 11.0056 24.0062 11.1202 24.0169 11.1939C24.0234 11.2385 24.0231 11.2643 24.0711 11.2871C24.0842 11.2931 24.1344 11.3313 24.1386 11.3466C24.1664 11.4534 24.3233 11.3455 24.3528 11.2976L24.3531 11.2995Z" fill="#BF7644"/>
<path fill-rule="evenodd" clip-rule="evenodd" d="M22.6822 13.0041C22.8052 12.9981 22.8398 12.9712 22.8914 12.8647C22.9056 12.8369 22.9054 12.7795 22.8884 12.7463C22.8458 12.6634 22.8336 12.6909 22.7854 12.6385C22.742 12.5913 22.5766 12.6966 22.5404 12.7276C22.3335 12.9102 22.3757 13.0189 22.6819 13.0021L22.6822 13.0041Z" fill="#BF7644"/>
<path fill-rule="evenodd" clip-rule="evenodd" d="M20.4542 11.1713C20.3576 11.2051 20.3876 11.2859 20.4069 11.3485C20.4185 11.3864 20.467 11.4269 20.5267 11.4182C20.6201 11.4046 20.6545 11.3897 20.7332 11.3446C20.8512 11.2759 20.8487 11.203 20.7684 11.1256C20.6881 11.0481 20.5741 11.1301 20.4542 11.1713Z" fill="#BF7644"/>
<path fill-rule="evenodd" clip-rule="evenodd" d="M23.9186 12.0955C23.8849 12.0449 23.8656 12.0378 23.8053 12.0426C23.7894 12.0449 23.765 12.0584 23.753 12.074C23.7263 12.1135 23.7422 12.1112 23.7308 12.1446C23.7209 12.1737 23.8066 12.2187 23.8319 12.2249C23.9636 12.2652 24.002 12.222 23.9186 12.0955Z" fill="#BF7644"/>
<path fill-rule="evenodd" clip-rule="evenodd" d="M11.8967 20.8566C11.9127 20.7989 11.9056 20.7781 11.8613 20.739C11.8497 20.7288 11.8221 20.7209 11.8042 20.7235C11.7565 20.7305 11.7682 20.7407 11.7358 20.7553C11.7051 20.7676 11.7308 20.861 11.7402 20.8834C11.7968 21.0078 11.8551 21.0033 11.8973 20.8605L11.8967 20.8566Z" fill="#BF7644"/>
<path fill-rule="evenodd" clip-rule="evenodd" d="M8.47471 19.2884C8.4758 19.3378 8.52039 19.3373 8.55277 19.3365C8.57322 19.3375 8.60107 19.3196 8.60507 19.2913C8.61279 19.2466 8.61224 19.2288 8.60178 19.1848C8.58622 19.1197 8.55243 19.1108 8.50128 19.136C8.45013 19.1613 8.47392 19.2272 8.47471 19.2884Z" fill="#BF7644"/>
<path fill-rule="evenodd" clip-rule="evenodd" d="M9.01938 7.6447C9.05238 7.59237 9.09082 7.49369 9.07756 7.4164C9.0036 7.52222 8.92567 7.62861 8.84376 7.73559C8.90083 7.75106 8.99605 7.67978 9.01909 7.64276L9.01938 7.6447Z" fill="#BF7644"/>
<path fill-rule="evenodd" clip-rule="evenodd" d="M8.58454 8.43886C8.55079 8.38832 8.53149 8.38122 8.47127 8.38601C8.45536 8.38833 8.43092 8.40178 8.41897 8.41739C8.39223 8.45692 8.40814 8.45461 8.39675 8.48796C8.38678 8.51713 8.4725 8.56211 8.49778 8.56833C8.62952 8.60859 8.66791 8.56538 8.58454 8.43886Z" fill="#BF7644"/>
<path fill-rule="evenodd" clip-rule="evenodd" d="M5.88099 12.2167C5.79957 12.1176 5.68304 12.196 5.59551 12.2503C5.54151 12.2839 5.49229 12.3643 5.52403 12.429C5.57391 12.5347 5.60682 12.5655 5.70275 12.6387C5.84408 12.7449 5.95404 12.7052 6.0499 12.5684C6.14377 12.432 5.98396 12.3384 5.88297 12.2164L5.88099 12.2167Z" fill="#BF7644"/>
<path fill-rule="evenodd" clip-rule="evenodd" d="M8.85294 11.1785C8.84701 11.1378 8.83453 11.1218 8.80389 11.0925C8.70657 10.9958 8.50304 11.1601 8.58841 11.2724C8.61337 11.3044 8.63465 11.3251 8.67383 11.3432C8.79562 11.3987 8.86281 11.2464 8.85294 11.1785Z" fill="#BF7644"/>
<path fill-rule="evenodd" clip-rule="evenodd" d="M6.7675 9.40417C6.76858 9.45352 6.81317 9.45298 6.84555 9.45224C6.866 9.45322 6.89385 9.43531 6.89786 9.407C6.90529 9.36037 6.90503 9.34456 6.89456 9.30053C6.87901 9.23545 6.84522 9.2265 6.79407 9.25176C6.74292 9.27702 6.76671 9.34288 6.7675 9.40417Z" fill="#BF7644"/>
<path fill-rule="evenodd" clip-rule="evenodd" d="M17.6029 20.4131C17.597 20.3724 17.5845 20.3564 17.5539 20.3272C17.4565 20.2304 17.253 20.3947 17.3384 20.507C17.3633 20.5391 17.3846 20.5597 17.4238 20.5778C17.5456 20.6334 17.6128 20.481 17.6029 20.4131Z" fill="#BF7644"/>
<path fill-rule="evenodd" clip-rule="evenodd" d="M14.9205 12.0609C14.9145 12.0202 14.9021 12.0042 14.8714 11.975C14.7741 11.8782 14.5706 12.0425 14.6559 12.1549C14.6809 12.1869 14.7022 12.2076 14.7414 12.2256C14.8632 12.2812 14.9303 12.1288 14.9205 12.0609Z" fill="#BF7644"/>
<path fill-rule="evenodd" clip-rule="evenodd" d="M17.1966 12.8985C17.2126 12.8407 17.2055 12.82 17.1612 12.7809C17.1496 12.7707 17.1221 12.7628 17.1042 12.7654C17.0564 12.7723 17.0681 12.7825 17.0357 12.7971C17.005 12.8095 17.0307 12.9028 17.0401 12.9252C17.0968 13.0497 17.155 13.0452 17.1972 12.9024L17.1966 12.8985Z" fill="#BF7644"/>
<path fill-rule="evenodd" clip-rule="evenodd" d="M13.7746 11.3304C13.7757 11.3798 13.8203 11.3793 13.8527 11.3785C13.8731 11.3795 13.901 11.3616 13.905 11.3333C13.9124 11.2866 13.9122 11.2708 13.9017 11.2268C13.8862 11.1617 13.8524 11.1528 13.8012 11.178C13.7501 11.2033 13.7738 11.2692 13.7746 11.3304Z" fill="#BF7644"/>
<path fill-rule="evenodd" clip-rule="evenodd" d="M14.2831 15.0374C14.2494 14.9868 14.2301 14.9797 14.1699 14.9845C14.154 14.9868 14.1295 15.0003 14.1176 15.0159C14.0908 15.0554 14.1067 15.0531 14.0954 15.0865C14.0854 15.1156 14.1711 15.1606 14.1964 15.1668C14.3284 15.209 14.3665 15.1639 14.2831 15.0374Z" fill="#BF7644"/>
<path fill-rule="evenodd" clip-rule="evenodd" d="M12.1161 12.5757C12.119 12.708 12.2361 12.7029 12.3235 12.704C12.3764 12.7043 12.4511 12.6597 12.4645 12.5845C12.4857 12.4646 12.4809 12.4177 12.4538 12.3008C12.4147 12.1303 12.3216 12.1042 12.1872 12.1713C12.0548 12.238 12.1123 12.4099 12.1161 12.5757Z" fill="#BF7644"/>
<path fill-rule="evenodd" clip-rule="evenodd" d="M13.9094 22.6475C13.828 22.5484 13.7115 22.6268 13.6239 22.6811C13.57 22.7147 13.5207 22.7951 13.5525 22.8598C13.6024 22.9655 13.6355 22.9983 13.7312 23.0695C13.8725 23.1757 13.9825 23.136 14.0783 22.9992C14.1722 22.8628 14.0124 22.7692 13.9114 22.6472L13.9094 22.6475Z" fill="#BF7644"/>
<path fill-rule="evenodd" clip-rule="evenodd" d="M10.5129 18.9505C10.5067 18.9079 10.4939 18.8899 10.4608 18.8571C10.3563 18.7534 10.1383 18.9297 10.2291 19.0512C10.2563 19.0849 10.2779 19.1075 10.3193 19.1272C10.4499 19.1874 10.5233 19.0223 10.5129 18.9505Z" fill="#BF7644"/>
<path fill-rule="evenodd" clip-rule="evenodd" d="M11.2013 16.0875C11.2207 15.9975 11.1972 15.9336 11.1288 15.8683C11.0275 15.7721 10.7926 16.0003 10.7153 16.0413C10.642 16.0817 10.5838 16.1 10.6107 16.2011C10.6245 16.2545 10.7392 16.3171 10.7732 16.3696C10.915 16.5906 11.1707 16.2405 11.2035 16.0891L11.2013 16.0875Z" fill="#BF7644"/>
</g>
<defs>
<clipPath id="clip0_68_3079">
<rect width="24" height="23" fill="white" transform="translate(27.7739 22.7607) rotate(171.727)"/>
</clipPath>
</defs>
</svg>
