<svg width="19" height="16" viewBox="0 0 19 16" fill="none" xmlns="http://www.w3.org/2000/svg">
<g clip-path="url(#clip0_68_3151)">
<path fill-rule="evenodd" clip-rule="evenodd" d="M15.185 0.139161C10.8323 5.17955 4.85788 5.69045 2.3783 1.33063C2.68728 1.01036 3.38395 0.718692 3.51061 0.821635C4.37616 2.16942 5.33575 1.76718 6.2109 0.297388C6.83847 0.854043 7.54665 1.07518 8.33735 0.955079C9.08967 1.55749 9.76906 1.56892 10.3774 0.985581C14.4979 2.8538 13.6496 -0.732041 15.1831 0.137255L15.185 0.139161Z" fill="#704019"/>
<path fill-rule="evenodd" clip-rule="evenodd" d="M12.0414 15.5062C10.2105 16.6386 5.87503 15.5882 4.88474 14.6884C4.05757 13.9373 2.35717 13.1938 1.58758 11.2169C0.91203 9.47642 0.547386 8.30402 0.789202 6.49108C0.998393 4.91834 1.08668 3.06536 1.99061 1.81671C2.11728 1.64323 2.24586 1.48119 2.37828 1.32868C2.90606 1.4545 3.29757 1.36299 3.5509 1.05226C4.41646 2.40005 5.28584 2.33905 6.16099 0.869249C6.78856 1.4259 7.49674 1.64704 8.28744 1.52694C9.03976 2.12935 9.71915 2.14078 10.3275 1.55744C12.3523 2.48012 13.8569 1.96159 14.8414 -0.00195312L15.1984 0.14293C15.4556 0.364066 15.6936 0.609985 15.9776 0.850186C16.4632 1.26196 17.0005 1.72329 17.1944 2.05881C17.5072 2.60212 17.8162 4.06048 18.1655 4.68958C18.6606 5.58556 19.0349 7.80455 18.3113 9.41733C17.3134 11.6439 16.8259 13.4512 14.306 14.7551C13.4558 15.1955 12.6421 15.1288 12.0414 15.5005V15.5062Z" fill="#704019"/>
<path fill-rule="evenodd" clip-rule="evenodd" d="M4.6103 11.827C4.44909 11.4496 4.02687 11.5907 3.70828 11.6822C3.51445 11.7393 3.29566 11.9452 3.33404 12.1797C3.39546 12.5515 3.46455 12.6792 3.69485 12.9861C4.03454 13.4379 4.40495 13.4093 4.81181 13.07C5.2206 12.7307 4.81181 12.2979 4.6103 11.827Z" fill="#704019"/>
<path fill-rule="evenodd" clip-rule="evenodd" d="M4.61607 12.0062C4.48172 11.6935 4.13051 11.8098 3.86567 11.8861C3.70445 11.9337 3.52213 12.1053 3.55476 12.2998C3.60466 12.6086 3.66415 12.7153 3.85415 12.9708C4.13627 13.3463 4.44526 13.3235 4.78495 13.0413C5.12465 12.7592 4.78495 12.3989 4.61607 12.0081V12.0062Z" fill="#5E2F23"/>
<path fill-rule="evenodd" clip-rule="evenodd" d="M4.35697 12.2426C4.1593 12.0958 3.98273 12.294 3.84455 12.437C3.76011 12.5247 3.71021 12.6963 3.80041 12.8068C3.94435 12.9803 4.0192 13.028 4.23223 13.1176C4.54505 13.251 4.72929 13.1252 4.83869 12.8278C4.94808 12.5285 4.60455 12.4275 4.35697 12.2426Z" fill="#87665E"/>
<path fill-rule="evenodd" clip-rule="evenodd" d="M4.30131 12.5171C4.14202 12.4885 4.09596 12.6582 4.0595 12.7821C4.03647 12.8583 4.0595 12.9746 4.14394 13.0128C4.2802 13.0719 4.33778 13.0776 4.48939 13.068C4.71394 13.0528 4.78303 12.9251 4.75808 12.7192C4.73313 12.5114 4.50091 12.5533 4.30131 12.519V12.5171Z" fill="#A75F47"/>
<path fill-rule="evenodd" clip-rule="evenodd" d="M9.20673 14.4597C9.224 14.3262 9.19905 14.2633 9.13188 14.1432C8.91117 13.7486 8.13199 14.0936 8.29896 14.5245C8.34693 14.6484 8.39683 14.7342 8.50047 14.8238C8.83249 15.1097 9.17794 14.6808 9.20673 14.4597Z" fill="#704019"/>
<path fill-rule="evenodd" clip-rule="evenodd" d="M9.13381 14.5111C9.14916 14.4024 9.12805 14.351 9.07239 14.2518C8.89391 13.9297 8.25674 14.2118 8.393 14.5626C8.43139 14.6636 8.47169 14.7341 8.55805 14.8066C8.82866 15.0392 9.11078 14.6903 9.13381 14.5111Z" fill="#5E2F23"/>
<path fill-rule="evenodd" clip-rule="evenodd" d="M9.034 14.5854C9.04551 14.5054 9.03016 14.4691 8.98986 14.3967C8.85935 14.1603 8.39299 14.3662 8.49087 14.6236C8.51966 14.6979 8.54845 14.7494 8.61178 14.8028C8.80945 14.9724 9.01673 14.717 9.034 14.5854Z" fill="#87665E"/>
<path fill-rule="evenodd" clip-rule="evenodd" d="M8.84785 14.6674C8.85361 14.6217 8.84594 14.6007 8.82291 14.5569C8.74614 14.4196 8.47745 14.5397 8.53503 14.6884C8.5523 14.7322 8.56957 14.7608 8.60412 14.7913C8.71927 14.8905 8.83826 14.7418 8.84785 14.6655V14.6674Z" fill="#A75F47"/>
<path fill-rule="evenodd" clip-rule="evenodd" d="M6.80007 11.1445C7.08411 11.2074 8.0437 11.7907 8.23562 11.053C8.35653 10.5955 8.9841 10.5306 8.99562 10.1722C9.02824 9.06275 7.48522 9.82147 7.12825 10.0293C6.91906 10.1513 6.11876 10.9939 6.80007 11.1445Z" fill="#704019"/>
<path fill-rule="evenodd" clip-rule="evenodd" d="M6.92099 11.1292C7.15897 11.1807 7.96311 11.6706 8.12432 11.053C8.22412 10.6698 8.75189 10.6164 8.75957 10.3152C8.78836 9.38681 7.49483 10.0216 7.19544 10.1951C7.02079 10.298 6.34908 11.0034 6.92099 11.1292Z" fill="#5E2F23"/>
<path fill-rule="evenodd" clip-rule="evenodd" d="M7.13976 11.1197C7.30673 11.156 7.87289 11.501 7.98612 11.0664C8.05713 10.7957 8.42753 10.7594 8.43329 10.5459C8.45248 9.89205 7.54279 10.3381 7.33168 10.4621C7.20885 10.5345 6.73674 11.0301 7.13784 11.1197H7.13976Z" fill="#87665E"/>
<path fill-rule="evenodd" clip-rule="evenodd" d="M7.17624 10.9062C7.33745 11.1083 7.73281 11.4152 7.90937 11.0549C8.08786 10.6908 7.562 10.6107 7.43533 10.6031C7.36049 10.5993 7.01887 10.708 7.17624 10.9043V10.9062Z" fill="#A75F47"/>
<path fill-rule="evenodd" clip-rule="evenodd" d="M14.7858 13.0203C15.2694 13.129 15.4345 13.0604 15.7588 12.7001C15.8432 12.6066 15.9066 12.3741 15.8778 12.2273C15.8087 11.8498 15.7223 11.949 15.5957 11.6859C15.4824 11.4514 14.7186 11.6821 14.5382 11.7698C13.5287 12.2692 13.5709 12.742 14.7839 13.0184L14.7858 13.0203Z" fill="#704019"/>
<path fill-rule="evenodd" clip-rule="evenodd" d="M14.8434 12.9555C15.2291 13.0432 15.3616 12.9879 15.6226 12.7001C15.6897 12.6257 15.7396 12.4408 15.7185 12.3226C15.6629 12.0214 15.5938 12.0996 15.494 11.8899C15.4038 11.7012 14.7935 11.8861 14.6495 11.9566C13.8416 12.3569 13.8761 12.7344 14.8453 12.9555H14.8434Z" fill="#5E2F23"/>
<path fill-rule="evenodd" clip-rule="evenodd" d="M15.0123 12.8946C15.2809 12.9556 15.3711 12.9175 15.5515 12.7173C15.5976 12.6658 15.6322 12.5362 15.6187 12.4561C15.5803 12.2464 15.5324 12.3017 15.4633 12.1568C15.3999 12.0272 14.9777 12.1549 14.8779 12.2045C14.3175 12.4809 14.3405 12.744 15.0142 12.8965L15.0123 12.8946Z" fill="#87665E"/>
<path fill-rule="evenodd" clip-rule="evenodd" d="M15.1274 12.8755C15.2848 12.9117 15.3385 12.8889 15.4441 12.7707C15.4709 12.7402 15.4921 12.6658 15.4825 12.6182C15.4594 12.4961 15.4326 12.5266 15.3903 12.4428C15.3539 12.3665 15.1063 12.4428 15.0468 12.4695C14.7186 12.6315 14.7321 12.7859 15.1274 12.8755Z" fill="#A75F47"/>
<path fill-rule="evenodd" clip-rule="evenodd" d="M2.95788 7.13354C2.73142 6.82661 2.07698 6.32524 1.70465 6.61692C0.0100176 7.94183 3.74666 8.19728 2.95788 7.13354Z" fill="#704019"/>
<path fill-rule="evenodd" clip-rule="evenodd" d="M2.82353 7.2422C2.64121 6.99629 2.11727 6.59405 1.81596 6.82853C0.455263 7.89227 3.45494 8.09816 2.82353 7.2422Z" fill="#5E2F23"/>
<path fill-rule="evenodd" clip-rule="evenodd" d="M2.48576 7.31272C2.36102 7.14496 2.00213 6.87044 1.7987 7.03058C0.869813 7.7569 2.91758 7.89606 2.48576 7.31272Z" fill="#87665E"/>
<path fill-rule="evenodd" clip-rule="evenodd" d="M2.07313 7.13551C1.95414 7.1031 1.68546 7.1031 1.64899 7.2518C1.48202 7.92855 2.48959 7.2518 2.07313 7.13551Z" fill="#A75F47"/>
<path fill-rule="evenodd" clip-rule="evenodd" d="M6.8615 5.79915C6.97473 5.58373 6.96322 5.40453 6.83847 5.19102C6.65423 4.87266 5.90767 5.28634 5.68504 5.3359C5.47201 5.38356 5.31464 5.39309 5.30888 5.6657C5.30505 5.81249 5.54494 6.05269 5.591 6.20711C5.78868 6.8667 6.6715 6.16326 6.86342 5.79915H6.8615Z" fill="#704019"/>
<path fill-rule="evenodd" clip-rule="evenodd" d="M6.66574 5.84488C6.75978 5.66568 6.75019 5.51889 6.64655 5.3397C6.49302 5.07662 5.87504 5.41786 5.6908 5.4598C5.51424 5.49983 5.38373 5.50745 5.37797 5.73431C5.37605 5.85632 5.57373 6.05458 5.61211 6.1823C5.77524 6.72942 6.50837 6.14608 6.66574 5.84297V5.84488Z" fill="#5E2F23"/>
<path fill-rule="evenodd" clip-rule="evenodd" d="M6.41242 5.94215C6.47575 5.82015 6.46999 5.71911 6.39898 5.5971C6.29343 5.416 5.87121 5.65048 5.74454 5.67908C5.62363 5.70576 5.53535 5.71148 5.53151 5.8659C5.5296 5.94978 5.66586 6.08513 5.69081 6.17282C5.80212 6.54647 6.30303 6.14804 6.4105 5.94215H6.41242Z" fill="#87665E"/>
<path fill-rule="evenodd" clip-rule="evenodd" d="M6.22625 6.07367C6.26463 5.99932 6.26079 5.93832 6.21857 5.86397C6.15524 5.75341 5.89807 5.89638 5.8213 5.91354C5.74837 5.9307 5.69272 5.9326 5.6908 6.02792C5.6908 6.07939 5.7714 6.16136 5.78867 6.21474C5.85776 6.4435 6.161 6.19949 6.22817 6.07367H6.22625Z" fill="#A75F47"/>
<path fill-rule="evenodd" clip-rule="evenodd" d="M6.38938 1.57656C6.42009 1.34017 6.37787 1.2296 6.25696 1.01418C6.22817 0.96271 6.19362 0.918864 6.15524 0.880737C5.74837 1.5594 5.34343 1.93495 4.9404 2.00739C4.99222 2.08174 5.05555 2.15037 5.13807 2.2209C5.72726 2.72608 6.33756 1.96926 6.3913 1.57656H6.38938Z" fill="#704019"/>
<path fill-rule="evenodd" clip-rule="evenodd" d="M6.19553 1.66229C6.22048 1.47356 6.18594 1.38396 6.08998 1.21239C6.06695 1.17236 6.042 1.13805 6.01129 1.10754C5.67928 1.6032 5.34918 1.89677 5.021 1.98828C5.06514 2.055 5.11887 2.116 5.1918 2.17891C5.66392 2.58306 6.15331 1.97684 6.19553 1.66229Z" fill="#5E2F23"/>
<path fill-rule="evenodd" clip-rule="evenodd" d="M6.03433 1.78248C6.05161 1.64523 6.02666 1.58232 5.95757 1.4584C5.92878 1.40693 5.89039 1.3669 5.84625 1.34021C5.61211 1.64141 5.37989 1.84349 5.14575 1.94452C5.18414 2.02459 5.23212 2.0875 5.3108 2.15422C5.6505 2.44589 6.00363 2.00934 6.03241 1.78248H6.03433Z" fill="#87665E"/>
<path fill-rule="evenodd" clip-rule="evenodd" d="M5.84431 1.9082C5.85583 1.82051 5.84047 1.78048 5.79633 1.70041C5.75987 1.6356 5.70037 1.60128 5.63128 1.58984C5.49886 1.72519 5.36835 1.82814 5.23593 1.90058C5.23785 1.91583 5.24169 1.93299 5.24937 1.95014C5.28007 2.03212 5.3127 2.0874 5.38179 2.1465C5.59866 2.33332 5.82512 2.05309 5.84431 1.9082Z" fill="#A75F47"/>
<path fill-rule="evenodd" clip-rule="evenodd" d="M10.1874 3.82416C10.0646 3.63162 9.31995 3.12453 8.92268 3.73075C8.7941 3.92711 8.99945 4.05674 8.68854 4.32363C8.42561 4.55048 8.45056 5.0061 8.80177 5.05185C9.13763 5.0957 9.04359 4.92031 9.46581 4.95844C9.675 4.9775 11.456 5.7877 10.1893 3.82226L10.1874 3.82416Z" fill="#704019"/>
<path fill-rule="evenodd" clip-rule="evenodd" d="M9.97056 3.9805C9.86693 3.82037 9.25087 3.39906 8.91885 3.90234C8.81138 4.06629 8.98218 4.17304 8.72501 4.39609C8.50623 4.58481 8.52734 4.96418 8.81905 5.0023C9.09734 5.03853 9.01865 4.89364 9.36986 4.92605C9.5445 4.9413 11.0223 5.61615 9.97056 3.98241V3.9805Z" fill="#5E2F23"/>
<path fill-rule="evenodd" clip-rule="evenodd" d="M9.71722 4.2702C9.65005 4.16535 9.24127 3.88703 9.02248 4.21873C8.95147 4.32739 9.0647 4.39793 8.8939 4.54472C8.74996 4.66863 8.76339 4.92027 8.95531 4.94505C9.13955 4.96983 9.08773 4.87261 9.31995 4.89358C9.4351 4.90502 10.412 5.3492 9.71722 4.2702Z" fill="#87665E"/>
<path fill-rule="evenodd" clip-rule="evenodd" d="M9.45814 4.47992C9.19905 4.07958 8.82289 4.804 9.05703 4.8364C9.37753 4.87834 9.74026 4.91838 9.45814 4.47992Z" fill="#A75F47"/>
<path fill-rule="evenodd" clip-rule="evenodd" d="M17.0696 7.21368C17.3518 6.9506 17.822 6.26622 17.2635 5.9307C17.1119 5.8392 16.9602 5.9307 16.7856 5.9002C16.3461 5.82776 15.9872 6.18996 15.9488 6.47401C15.9258 6.6494 15.9009 6.7409 16.0525 6.87816C16.0928 6.91438 16.2386 7.10692 16.2367 7.17174C16.2271 7.59685 16.9103 7.36046 17.0696 7.21177V7.21368Z" fill="#704019"/>
<path fill-rule="evenodd" clip-rule="evenodd" d="M17.0063 7.20796C17.2462 6.98492 17.6454 6.40348 17.1713 6.11753C17.0427 6.03937 16.9141 6.11753 16.7645 6.09274C16.3921 6.03174 16.0851 6.33866 16.0524 6.58077C16.0332 6.73137 16.0121 6.80763 16.1407 6.92582C16.1753 6.95632 16.3 7.12027 16.2981 7.17555C16.2904 7.53776 16.8719 7.33568 17.0063 7.20987V7.20796Z" fill="#5E2F23"/>
<path fill-rule="evenodd" clip-rule="evenodd" d="M16.8297 7.1583C16.9948 7.00389 17.2673 6.60737 16.9429 6.41101C16.8547 6.35764 16.7664 6.41101 16.6647 6.39386C16.4094 6.35192 16.1983 6.56352 16.1772 6.72937C16.1638 6.83232 16.1484 6.8857 16.2367 6.96576C16.2597 6.98673 16.3461 7.09921 16.3442 7.13733C16.3384 7.38516 16.7376 7.2479 16.8297 7.16021V7.1583Z" fill="#87665E"/>
<path fill-rule="evenodd" clip-rule="evenodd" d="M16.6743 7.1202C16.7664 7.03441 16.918 6.81328 16.7376 6.70461C16.6877 6.67411 16.6397 6.70461 16.5822 6.69508C16.4401 6.67221 16.3231 6.78849 16.3115 6.88191C16.3039 6.9391 16.2962 6.96769 16.3442 7.01344C16.3576 7.02488 16.4056 7.08779 16.4037 7.10876C16.3998 7.24602 16.6225 7.16976 16.6743 7.12211V7.1202Z" fill="#A75F47"/>
<path fill-rule="evenodd" clip-rule="evenodd" d="M12.2697 7.92083C11.7746 7.94943 11.8053 8.37836 11.813 8.69481C11.8187 8.88926 11.9915 9.15233 12.2793 9.18855C12.7361 9.24765 12.9088 9.22477 13.3426 9.11039C13.9836 8.94073 14.0661 8.59568 13.7955 8.121C13.5249 7.64441 12.8858 7.8827 12.2678 7.92083H12.2697Z" fill="#704019"/>
<path fill-rule="evenodd" clip-rule="evenodd" d="M12.2371 8.07337C11.8437 8.09625 11.8667 8.43748 11.8744 8.69103C11.8782 8.84544 12.0164 9.05514 12.2467 9.08564C12.6094 9.1333 12.7476 9.11424 13.0931 9.02273C13.6036 8.88738 13.6708 8.61287 13.4539 8.2335C13.237 7.85414 12.7284 8.04478 12.2371 8.07337Z" fill="#5E2F23"/>
<path fill-rule="evenodd" clip-rule="evenodd" d="M12.2544 8.37273C11.9915 8.38798 12.0068 8.61674 12.0126 8.7845C12.0145 8.88744 12.1066 9.02661 12.2602 9.04758C12.502 9.07998 12.5941 9.06664 12.8244 9.00564C13.1641 8.91604 13.2082 8.73112 13.0662 8.47948C12.9223 8.22594 12.5826 8.35366 12.2544 8.37273Z" fill="#87665E"/>
<path fill-rule="evenodd" clip-rule="evenodd" d="M12.2007 8.56523C12.0356 8.57477 12.0452 8.71774 12.0471 8.8245C12.0471 8.88931 12.1066 8.97701 12.2026 8.99035C12.3561 9.00941 12.4137 9.00179 12.5595 8.96366C12.7745 8.90647 12.8014 8.79018 12.7112 8.63196C12.621 8.47182 12.406 8.55189 12.1987 8.56523H12.2007Z" fill="#A75F47"/>
<path fill-rule="evenodd" clip-rule="evenodd" d="M13.523 11.4781C13.5652 11.44 13.6343 11.339 13.5518 11.2894C13.5287 11.2761 13.5076 11.2894 13.4807 11.2856C13.4155 11.2742 13.3637 11.3275 13.3579 11.3695C13.3541 11.3962 13.3502 11.4095 13.3733 11.4286C13.379 11.4343 13.4001 11.4629 13.4001 11.4724C13.4001 11.5353 13.4999 11.501 13.523 11.4781Z" fill="#704019"/>
<path fill-rule="evenodd" clip-rule="evenodd" d="M13.0221 4.1616C13.0259 4.12919 13.0221 4.11394 13.0029 4.08344C12.9491 3.98621 12.7553 4.072 12.7956 4.17685C12.8071 4.20735 12.8205 4.22832 12.8455 4.25119C12.928 4.32173 13.0125 4.21688 13.0201 4.1616H13.0221Z" fill="#704019"/>
<path fill-rule="evenodd" clip-rule="evenodd" d="M14.4806 4.41702C14.4595 4.38461 14.3309 4.29692 14.2619 4.40177C14.2388 4.43608 14.2753 4.45705 14.2215 4.50471C14.1755 4.54284 14.1812 4.6229 14.2407 4.63053C14.2983 4.63815 14.283 4.60765 14.3559 4.61528C14.3924 4.61909 14.6994 4.75825 14.4806 4.41892V4.41702Z" fill="#704019"/>
<path fill-rule="evenodd" clip-rule="evenodd" d="M14.1083 2.2037C14.141 2.14079 14.1371 2.08932 14.1006 2.02831C14.0469 1.93681 13.832 2.055 13.7667 2.07025C13.7053 2.0836 13.6592 2.08741 13.6573 2.16557C13.6573 2.20751 13.7264 2.27805 13.7398 2.32189C13.7974 2.51253 14.0527 2.30855 14.1064 2.2037H14.1083Z" fill="#704019"/>
<path fill-rule="evenodd" clip-rule="evenodd" d="M13.1487 12.4751C13.2159 12.4903 13.2389 12.4808 13.2831 12.4313C13.2946 12.4179 13.3042 12.3855 13.3004 12.3664C13.2908 12.315 13.2792 12.3283 13.262 12.2921C13.2466 12.2597 13.1411 12.2921 13.1161 12.3035C12.976 12.3722 12.9818 12.4389 13.1507 12.477L13.1487 12.4751Z" fill="#704019"/>
<path fill-rule="evenodd" clip-rule="evenodd" d="M3.49717 8.92367C3.64111 8.95608 4.07292 8.86648 4.0806 8.66631C4.0902 8.37273 3.70252 8.65678 3.60848 8.71206C3.55283 8.74447 3.31677 8.88364 3.49909 8.92367H3.49717Z" fill="#704019"/>
<path fill-rule="evenodd" clip-rule="evenodd" d="M3.69868 10.647C3.6603 10.5574 3.5605 10.5917 3.48565 10.6127C3.43959 10.626 3.38777 10.6737 3.39737 10.729C3.4108 10.8167 3.42808 10.8472 3.48181 10.9196C3.56242 11.0264 3.64878 11.0187 3.74474 10.9387C3.8407 10.8586 3.74474 10.7576 3.69676 10.6451L3.69868 10.647Z" fill="#704019"/>
<path fill-rule="evenodd" clip-rule="evenodd" d="M12.7131 11.6402C12.6555 11.644 12.6593 11.6935 12.6593 11.7298C12.6593 11.7526 12.6804 11.7831 12.7131 11.787C12.7668 11.7946 12.786 11.7908 12.8359 11.7774C12.9107 11.7584 12.9203 11.7183 12.8877 11.663C12.857 11.6078 12.7822 11.6364 12.7111 11.6402H12.7131Z" fill="#704019"/>
<path fill-rule="evenodd" clip-rule="evenodd" d="M4.97879 11.358C4.98263 11.3275 4.97879 11.3122 4.96152 11.2855C4.91162 11.194 4.73121 11.2741 4.7696 11.3732C4.78111 11.4018 4.79263 11.4209 4.81566 11.4419C4.89243 11.5086 4.97111 11.4095 4.97879 11.358Z" fill="#704019"/>
<path fill-rule="evenodd" clip-rule="evenodd" d="M17.3729 7.98191C17.4285 7.93044 17.5206 7.79699 17.4112 7.73027C17.3825 7.71311 17.3517 7.73027 17.3172 7.72455C17.2308 7.71121 17.1598 7.78174 17.1522 7.83703C17.1483 7.87134 17.1426 7.8885 17.1733 7.91709C17.1809 7.92472 17.2097 7.96284 17.2097 7.97428C17.2078 8.05816 17.3422 8.0105 17.3729 7.98191Z" fill="#704019"/>
<path fill-rule="evenodd" clip-rule="evenodd" d="M15.8202 8.88927C15.9085 8.91024 15.9392 8.8969 16.0006 8.83018C16.016 8.81302 16.0275 8.76917 16.0237 8.74249C16.0102 8.67195 15.9949 8.69101 15.9718 8.64336C15.9507 8.59951 15.8106 8.64336 15.7761 8.65861C15.5899 8.75011 15.5976 8.8378 15.8221 8.88927H15.8202Z" fill="#704019"/>
<path fill-rule="evenodd" clip-rule="evenodd" d="M14.5939 7.08972C14.5171 7.09353 14.5229 7.16025 14.5229 7.20982C14.5229 7.24032 14.5497 7.28035 14.5958 7.28607C14.6668 7.2956 14.6937 7.29179 14.7608 7.27463C14.8606 7.24794 14.8722 7.19457 14.8319 7.12212C14.7896 7.04778 14.6918 7.0859 14.5958 7.09162L14.5939 7.08972Z" fill="#704019"/>
<path fill-rule="evenodd" clip-rule="evenodd" d="M16.8969 8.47563C16.8835 8.43179 16.87 8.42225 16.8259 8.41272C16.8144 8.41082 16.7933 8.41654 16.7817 8.42416C16.7549 8.44704 16.7664 8.44894 16.751 8.47182C16.7376 8.49088 16.7913 8.54235 16.8067 8.55189C16.8931 8.60908 16.9295 8.58429 16.8969 8.47563Z" fill="#704019"/>
<path fill-rule="evenodd" clip-rule="evenodd" d="M6.44503 12.4389C6.46806 12.4008 6.46614 12.3837 6.44503 12.3455C6.43927 12.336 6.42008 12.3227 6.40664 12.3227C6.3721 12.3188 6.37785 12.3284 6.35099 12.3322C6.32796 12.336 6.32604 12.4084 6.32796 12.4275C6.34331 12.5305 6.38553 12.54 6.44503 12.4409V12.4389Z" fill="#704019"/>
<path fill-rule="evenodd" clip-rule="evenodd" d="M4.30514 10.5878C4.29555 10.624 4.32817 10.6317 4.3512 10.6393C4.36656 10.6431 4.38959 10.6374 4.39918 10.6164C4.41454 10.584 4.41645 10.5707 4.41837 10.5363C4.42029 10.4849 4.39726 10.4715 4.35504 10.4792C4.31282 10.4868 4.31666 10.5402 4.30322 10.5859L4.30514 10.5878Z" fill="#704019"/>
<path fill-rule="evenodd" clip-rule="evenodd" d="M7.09371 2.16184C7.14937 2.11037 7.24149 1.97692 7.1321 1.9102C7.10331 1.89304 7.0726 1.9102 7.03806 1.90448C6.95169 1.89114 6.88068 1.96167 6.87301 2.01696C6.86917 2.05127 6.86341 2.06843 6.89412 2.09702C6.9018 2.10465 6.93058 2.14278 6.93058 2.15421C6.92866 2.23809 7.06301 2.19043 7.09371 2.16184Z" fill="#704019"/>
<path fill-rule="evenodd" clip-rule="evenodd" d="M6.61775 2.65556C6.60432 2.61172 6.59088 2.60219 6.54674 2.59265C6.53523 2.59075 6.51411 2.59647 6.5026 2.60409C6.47573 2.62697 6.48725 2.62888 6.47189 2.65175C6.45846 2.67081 6.5122 2.72229 6.52755 2.73182C6.61391 2.78901 6.65038 2.76423 6.61775 2.65556Z" fill="#704019"/>
<path fill-rule="evenodd" clip-rule="evenodd" d="M3.89637 4.87075C3.85799 4.78116 3.75819 4.81547 3.68334 4.83644C3.63728 4.84978 3.58547 4.89744 3.59506 4.95273C3.6085 5.04042 3.62577 5.07092 3.67951 5.14336C3.76011 5.25012 3.84647 5.24249 3.94243 5.16243C4.03839 5.08236 3.94243 4.98132 3.89445 4.86885L3.89637 4.87075Z" fill="#704019"/>
<path fill-rule="evenodd" clip-rule="evenodd" d="M6.24734 4.71821C6.25118 4.68771 6.24734 4.67246 6.23007 4.64577C6.18017 4.55427 5.99977 4.63433 6.03815 4.73346C6.04967 4.76206 6.06118 4.78112 6.08421 4.80209C6.16098 4.86881 6.23967 4.76968 6.24734 4.71821Z" fill="#704019"/>
<path fill-rule="evenodd" clip-rule="evenodd" d="M5.11313 2.98919C5.10353 3.02541 5.13616 3.03303 5.15919 3.04066C5.17454 3.04447 5.19757 3.03875 5.20717 3.01778C5.22252 2.98538 5.22444 2.97203 5.22636 2.93772C5.22828 2.88625 5.20525 2.8729 5.16302 2.88053C5.1208 2.88815 5.12464 2.94153 5.11121 2.98728L5.11313 2.98919Z" fill="#704019"/>
<path fill-rule="evenodd" clip-rule="evenodd" d="M10.6403 13.2816C10.6442 13.2511 10.6403 13.2358 10.6231 13.2091C10.5732 13.1176 10.3928 13.1977 10.4312 13.2968C10.4427 13.3254 10.4542 13.3445 10.4772 13.3654C10.554 13.4322 10.6327 13.333 10.6403 13.2816Z" fill="#704019"/>
<path fill-rule="evenodd" clip-rule="evenodd" d="M10.4312 6.60737C10.435 6.57687 10.4312 6.56162 10.4139 6.53493C10.364 6.44343 10.1836 6.52349 10.222 6.62262C10.2335 6.65122 10.245 6.67028 10.268 6.69125C10.3448 6.75797 10.4235 6.65884 10.4312 6.60737Z" fill="#704019"/>
<path fill-rule="evenodd" clip-rule="evenodd" d="M11.8955 7.68834C11.9185 7.65021 11.9166 7.63305 11.8955 7.59493C11.8897 7.58539 11.8705 7.57205 11.8571 7.57205C11.8226 7.56824 11.8283 7.57777 11.8015 7.58158C11.7784 7.58539 11.7765 7.65784 11.7784 7.6769C11.7938 7.77984 11.836 7.78937 11.8955 7.69024V7.68834Z" fill="#704019"/>
<path fill-rule="evenodd" clip-rule="evenodd" d="M9.75753 5.83721C9.74794 5.87343 9.78056 5.88106 9.80359 5.88868C9.81895 5.8925 9.84198 5.88678 9.85157 5.86581C9.86693 5.8334 9.86885 5.82005 9.87077 5.78574C9.87268 5.73427 9.84966 5.72092 9.80743 5.72855C9.76521 5.73617 9.76905 5.78955 9.75562 5.8353L9.75753 5.83721Z" fill="#704019"/>
<path fill-rule="evenodd" clip-rule="evenodd" d="M9.36027 8.66057C9.34684 8.61672 9.3334 8.60719 9.28926 8.59766C9.27775 8.59575 9.25664 8.60147 9.24512 8.6091C9.21825 8.63197 9.22977 8.63388 9.21442 8.65676C9.20098 8.67582 9.25472 8.72729 9.27007 8.73682C9.35644 8.79401 9.3929 8.76923 9.36027 8.66057Z" fill="#704019"/>
<path fill-rule="evenodd" clip-rule="evenodd" d="M8.30664 6.41104C8.28169 6.50827 8.36613 6.52924 8.42947 6.5464C8.46785 6.55783 8.52926 6.54068 8.55421 6.4873C8.59452 6.40342 8.60027 6.3691 8.60603 6.2776C8.61371 6.14416 8.55037 6.10603 8.44098 6.1289C8.33159 6.15178 8.33735 6.28904 8.30664 6.41104Z" fill="#704019"/>
<path fill-rule="evenodd" clip-rule="evenodd" d="M7.5236 14.1642C7.48522 14.0746 7.38542 14.1089 7.31057 14.1299C7.26451 14.1432 7.21269 14.1909 7.22229 14.2462C7.23572 14.3339 7.253 14.3644 7.30673 14.4368C7.38734 14.5436 7.4737 14.5359 7.56966 14.4559C7.66562 14.3758 7.56966 14.2748 7.52168 14.1623L7.5236 14.1642Z" fill="#704019"/>
<path fill-rule="evenodd" clip-rule="evenodd" d="M5.84048 10.7575C5.84432 10.7251 5.84048 10.7099 5.82129 10.6794C5.76756 10.5822 5.57372 10.6679 5.61402 10.7728C5.62554 10.8033 5.63897 10.8243 5.66392 10.8471C5.74644 10.9177 5.83089 10.8128 5.83857 10.7575H5.84048Z" fill="#704019"/>
<path fill-rule="evenodd" clip-rule="evenodd" d="M6.92675 8.79977C6.95937 8.73686 6.95553 8.68539 6.91907 8.62438C6.86533 8.53288 6.65038 8.65107 6.58513 8.66632C6.52372 8.67967 6.47766 8.68348 6.47574 8.76164C6.47574 8.80358 6.54483 8.87412 6.55826 8.91796C6.61584 9.1086 6.87109 8.90462 6.92483 8.79977H6.92675Z" fill="#704019"/>
</g>
<defs>
<clipPath id="clip0_68_3151">
<rect width="18" height="16" fill="white" transform="translate(0.714355)"/>
</clipPath>
</defs>
</svg>
