<svg width="263" height="56" viewBox="0 0 263 56" fill="none" xmlns="http://www.w3.org/2000/svg">
<path d="M66.3725 41.1491L78.1752 13.4225C79.0062 11.5176 80.4985 10.3535 82.5334 10.3535H82.9743C85.0093 10.3535 86.4507 11.5176 87.2816 13.4225L99.0843 41.1491C99.3217 41.6959 99.4744 42.2074 99.4744 42.7012C99.4744 44.7649 97.9312 46.4228 95.9471 46.4228C94.2005 46.4228 93.0473 45.3645 92.369 43.7595L90.0966 38.2212H75.1907L72.8165 44.0064C72.1891 45.5233 70.9342 46.4228 69.3741 46.4228C67.4409 46.4228 65.9316 44.8178 65.9316 42.8071C65.9316 42.2603 66.1182 41.6959 66.3725 41.1491ZM87.3155 31.3954L82.6182 19.7721L77.9209 31.3954H87.2986H87.3155Z" fill="white"/>
<path d="M101.053 38.3801V38.2743C101.053 32.3832 105.36 29.667 111.499 29.667C114.11 29.667 115.993 30.1256 117.841 30.7782V30.3196C117.841 27.1448 115.959 25.381 112.279 25.381C110.244 25.381 108.599 25.6809 107.208 26.1394C106.768 26.2982 106.479 26.3335 106.14 26.3335C104.444 26.3335 103.088 24.9754 103.088 23.2116C103.088 21.8535 103.919 20.6894 105.072 20.2484C107.395 19.3489 109.905 18.8374 113.347 18.8374C117.366 18.8374 120.266 19.9486 122.097 21.8535C124.031 23.8642 124.896 26.8273 124.896 30.4607V42.7366C124.896 44.8002 123.301 46.4053 121.317 46.4053C119.181 46.4053 117.79 44.8531 117.79 43.2305V43.1776C115.993 45.2412 113.534 46.5993 109.956 46.5993C105.072 46.5993 101.053 43.6891 101.053 38.3448M117.943 36.581V35.2229C116.688 34.6232 115.043 34.2176 113.245 34.2176C110.108 34.2176 108.158 35.5228 108.158 37.9391V38.045C108.158 40.1086 109.803 41.308 112.177 41.308C115.62 41.308 117.926 39.3502 117.926 36.581" fill="white"/>
<path d="M128.338 22.6821C128.338 20.5655 129.983 18.8547 132.018 18.8547C134.053 18.8547 135.698 20.5655 135.698 22.6821V23.0348C137.495 20.5126 139.954 18.6606 143.77 18.6606C149.824 18.6606 155.572 23.5992 155.572 32.5945V32.7003C155.572 41.7132 149.908 46.6342 143.77 46.6342C139.852 46.6342 137.427 44.7646 135.698 42.6128V50.6556C135.698 52.7721 134.053 54.483 132.018 54.483C129.983 54.483 128.338 52.7721 128.338 50.6556V22.6821ZM148.213 32.7003V32.5945C148.213 28.1145 145.313 25.1514 141.87 25.1514C138.428 25.1514 135.579 28.1145 135.579 32.5945V32.7003C135.579 37.1803 138.428 40.1435 141.87 40.1435C145.313 40.1435 148.213 37.2332 148.213 32.7003Z" fill="white"/>
<path d="M158.574 22.6824C158.574 20.5658 160.219 18.855 162.254 18.855C164.289 18.855 165.934 20.5658 165.934 22.6824V23.8818C167.002 21.2714 168.732 18.855 170.92 18.855C173.107 18.855 174.498 20.4071 174.498 22.5766C174.498 24.5873 173.243 25.8043 171.734 26.1394C168.003 27.0389 165.934 30.0197 165.934 35.4521V42.5955C165.934 44.712 164.289 46.4229 162.254 46.4229C160.219 46.4229 158.574 44.712 158.574 42.5955V22.6647V22.6824Z" fill="white"/>
<path d="M187.928 46.74C180.145 46.74 174.379 41.0606 174.379 32.8062V32.7003C174.379 25.0103 179.653 18.6606 187.199 18.6606C195.865 18.6606 199.68 26.0509 199.68 31.6421C199.68 33.8644 198.188 35.3107 196.255 35.3107H181.688C182.417 38.7854 184.74 40.6021 188.03 40.6021C190.065 40.6021 191.761 39.9495 193.253 38.7854C193.779 38.3797 194.271 38.1857 195.051 38.1857C196.695 38.1857 197.899 39.4909 197.899 41.2018C197.899 42.2071 197.459 42.9655 196.933 43.4594C194.661 45.4701 191.71 46.7224 187.928 46.7224M192.676 30.5309C192.236 27.1091 190.302 24.7986 187.216 24.7986C184.13 24.7986 182.18 27.0562 181.603 30.5309H192.676Z" fill="white"/>
<path d="M202.206 43.5653C201.426 43.0538 200.799 42.1543 200.799 40.9549C200.799 39.2441 202.054 37.9389 203.699 37.9389C204.224 37.9389 204.767 38.0976 205.157 38.3446C207.633 39.9496 210.092 40.7609 212.178 40.7609C214.263 40.7609 215.281 39.9496 215.281 38.7502V38.6444C215.281 36.9864 212.771 36.422 209.905 35.5225C206.276 34.4113 202.172 32.6475 202.172 27.4268V27.3209C202.172 21.8356 206.429 18.7666 211.652 18.7666C214.365 18.7666 217.163 19.525 219.673 20.8302C220.741 21.377 221.42 22.3823 221.42 23.7052C221.42 25.416 220.114 26.7212 218.469 26.7212C217.943 26.7212 217.604 26.6154 217.112 26.3685C215.026 25.3102 213.042 24.6576 211.499 24.6576C209.702 24.6576 208.786 25.469 208.786 26.5272V26.6331C208.786 28.1499 211.262 28.8378 214.06 29.8608C217.689 31.1131 221.894 32.9298 221.894 37.8683V37.9742C221.894 43.9534 217.587 46.6872 211.974 46.6872C208.786 46.6872 205.344 45.7348 202.206 43.6183" fill="white"/>
<path d="M224.641 12.7167C224.641 10.512 226.421 9.13623 228.744 9.13623C231.068 9.13623 232.848 10.4943 232.848 12.7167V12.8225C232.848 15.0449 231.068 16.4383 228.744 16.4383C226.421 16.4383 224.641 15.0273 224.641 12.8225V12.7167ZM225.082 22.6821C225.082 20.5655 226.726 18.8547 228.761 18.8547C230.796 18.8547 232.441 20.5655 232.441 22.6821V42.6128C232.441 44.7293 230.796 46.4402 228.761 46.4402C226.726 46.4402 225.082 44.7293 225.082 42.6128V22.6821Z" fill="white"/>
<path d="M263 42.6129C263 44.7294 261.355 46.4403 259.32 46.4403C257.285 46.4403 255.64 44.7294 255.64 42.6129V42.2601C253.86 44.7823 251.384 46.6343 247.568 46.6343C241.514 46.6343 235.766 41.6957 235.766 32.7004V32.5946C235.766 23.5817 241.43 18.6608 247.568 18.6608C251.486 18.6608 253.911 20.5304 255.64 22.6822V12.9285C255.64 10.8119 257.285 9.10107 259.32 9.10107C261.355 9.10107 263 10.8119 263 12.9285V42.6129ZM243.125 32.5946V32.7004C243.125 37.1804 246.025 40.1436 249.468 40.1436C252.91 40.1436 255.759 37.1804 255.759 32.7004V32.5946C255.759 28.1146 252.91 25.1515 249.468 25.1515C246.025 25.1515 243.125 28.0617 243.125 32.5946Z" fill="white"/>
<mask id="mask0_1970_1135" style="mask-type:luminance" maskUnits="userSpaceOnUse" x="0" y="0" width="57" height="56">
<path d="M31.0499 36.7572C31.0499 33.7058 33.5258 31.1307 36.4595 31.1307C39.3932 31.1307 41.869 33.7058 41.869 36.7572C41.869 39.8085 39.4441 42.3836 36.4595 42.3836C33.4749 42.3836 31.0499 39.8614 31.0499 36.7572ZM14.1429 37.9742C14.1429 36.6337 14.7873 35.2756 15.7708 33.3354L25.369 14.3043C26.2847 12.4699 27.5566 9.98299 30.202 9.98299C32.6948 9.98299 34.5093 11.835 34.5093 14.3924C34.5093 15.7329 33.8649 17.091 32.8814 19.0312L23.3001 38.0447C22.3844 39.8791 21.1126 42.366 18.4671 42.366C15.9743 42.366 14.1598 40.514 14.1598 37.9565M22.554 2.64567C22.2488 3.01606 21.9096 3.36882 21.5535 3.70394C19.6203 5.32661 17.1783 6.33197 14.5329 6.42016H14.2277C10.5309 6.42016 7.51235 9.45386 7.20711 13.2989C7.00361 16.7559 5.40957 19.8072 3.01851 21.8885C1.18705 23.1761 0 25.4337 0 27.9383C0 30.4428 1.13618 32.6123 2.88284 34.0057C5.3587 36.0164 7.00361 39.1206 7.27494 42.5953C7.44452 44.5883 8.36024 46.3521 9.75079 47.5691C11.0057 48.8214 12.7354 49.5798 14.6516 49.5798C17.4666 49.6328 20.0442 50.7968 22.0453 52.6312C22.2996 52.8781 22.537 53.1427 22.7745 53.4072C24.0463 54.977 25.9286 55.9824 28.0314 55.9824C30.1342 55.9824 32.1352 54.9241 33.4579 53.3367C33.7801 52.9663 34.1193 52.6135 34.4754 52.2784C36.4086 50.6557 38.8505 49.6504 41.496 49.5798H41.8012C45.498 49.5798 48.5165 46.5461 48.8218 42.7011C49.0253 39.2441 50.6193 36.1928 53.0104 34.1115C54.8418 32.7887 56.0458 30.5487 56.0458 28.0265C56.0458 25.5043 54.8927 23.3701 53.163 21.9591C50.7041 19.9483 49.0422 16.8441 48.7709 13.3694C48.6013 11.3764 47.6686 9.6126 46.2951 8.39559C45.0232 7.14331 43.3105 6.38488 41.3942 6.38488C38.5792 6.31433 36.0016 5.16787 34.0006 3.33354C33.7462 3.08661 33.4918 2.82205 33.2714 2.55748C31.9996 0.987717 30.1172 0 28.0144 0C25.9117 0 23.9106 1.05827 22.5879 2.64567" fill="white"/>
</mask>
<g mask="url(#mask0_1970_1135)">
<path d="M56.0458 0H0V56H56.0458V0Z" fill="white"/>
</g>
</svg>
