<svg width="152" height="64" viewBox="0 0 152 64" fill="none" xmlns="http://www.w3.org/2000/svg">
<g clip-path="url(#clip0_1970_961)">
<path fill-rule="evenodd" clip-rule="evenodd" d="M51.8487 10.5172V11.98H54.7474V16.1529C54.3079 16.3582 53.4864 16.5225 52.2777 16.5225C48.9447 16.5225 46.7681 14.4232 46.7681 10.8662C46.7681 7.36055 49.0337 5.24073 52.5132 5.24073C53.9625 5.24073 54.9044 5.4871 55.6787 5.83613L56.1339 4.36303C55.5375 4.06533 54.2137 3.71631 52.5603 3.71631C47.7779 3.71631 44.8164 6.77028 44.8164 10.9586C44.8164 13.14 45.5856 15.0134 46.8152 16.1734C48.2174 17.4772 49.9964 18.0264 52.1521 18.0264C54.0881 18.0264 55.7415 17.5644 56.5735 17.2564V10.5172H51.8539H51.8487Z" fill="white"/>
<path fill-rule="evenodd" clip-rule="evenodd" d="M68.0897 7.60669C66.8287 7.60669 65.6985 8.45873 65.2224 9.80864H65.1596L65.0654 7.812H63.4434C63.5061 8.74616 63.5375 9.76757 63.5375 10.9584V17.8773H65.3793V12.5085C65.3793 12.221 65.4107 11.9028 65.4578 11.6564C65.709 10.286 66.6403 9.33129 67.9589 9.33129C68.21 9.33129 68.3984 9.33129 68.5868 9.37235V7.64262C68.4298 7.62209 68.2728 7.60156 68.0844 7.60156" fill="white"/>
<path fill-rule="evenodd" clip-rule="evenodd" d="M83.2734 15.1159V7.81201H81.4159V13.9713C81.4159 14.3203 81.3374 14.6488 81.2432 14.9054C80.8979 15.7267 80.0293 16.5838 78.7892 16.5838C77.1044 16.5838 76.5079 15.2801 76.5079 13.3656V7.81201H74.6348V13.6941C74.6348 17.21 76.5707 18.1083 78.1771 18.1083C79.9874 18.1083 81.0862 17.0509 81.5624 16.2348H81.6095L81.7193 17.8824H83.3571C83.2943 17.092 83.2786 16.1732 83.2786 15.1159" fill="white"/>
<path fill-rule="evenodd" clip-rule="evenodd" d="M95.9723 7.60693C94.2874 7.60693 93.0578 8.31525 92.3201 9.54197H92.273L92.1788 7.81224H90.5254C90.5725 8.76693 90.6039 9.80887 90.6039 11.1023V21.994H92.4457V16.5225H92.4927C93.1049 17.5182 94.2874 18.1085 95.6531 18.1085C98.06 18.1085 100.326 16.3172 100.326 12.6986C100.326 9.66516 98.4681 7.60693 95.967 7.60693M95.3234 16.6662C93.9892 16.6662 92.8695 15.8039 92.5398 14.5259C92.4614 14.3 92.4457 14.0536 92.4457 13.7765V12.0365C92.4457 11.8004 92.5241 11.5335 92.5869 11.3076C92.9166 9.93206 94.1148 9.06463 95.3862 9.06463C97.3536 9.06463 98.4367 10.7841 98.4367 12.7756C98.4367 15.0905 97.2856 16.6611 95.3234 16.6611V16.6662Z" fill="white"/>
<path fill-rule="evenodd" clip-rule="evenodd" d="M111.234 7.60693C108.419 7.60693 106.148 9.58303 106.148 12.9347C106.148 16.1119 108.32 18.1085 111.072 18.1085C113.526 18.1085 116.168 16.4814 116.168 12.7602C116.168 9.70622 114.185 7.60693 111.229 7.60693M111.151 16.7278C109.324 16.7278 108.063 15.0751 108.063 12.8731C108.063 10.9791 109.005 8.98764 111.192 8.98764C113.395 8.98764 114.264 11.128 114.264 12.8218C114.264 15.0956 112.924 16.7278 111.151 16.7278Z" fill="white"/>
<path fill-rule="evenodd" clip-rule="evenodd" d="M37.2289 0.180024V51.0146C37.2289 51.148 37.0876 51.2353 36.9621 51.1686L0.623479 30.5863C0.497903 30.5196 0.497903 30.3451 0.623479 30.2783L11.0411 24.3757C11.1038 24.3449 11.1666 24.3449 11.2294 24.3757L13.809 25.8899C13.9345 25.9617 13.9345 26.1311 13.809 26.1978L6.60404 30.2783C6.47846 30.3451 6.47846 30.5196 6.60404 30.5863L33.9744 46.0769C34.1 46.1436 34.2412 46.0615 34.2412 45.9229V5.26143C34.2412 5.12284 34.1 5.04072 33.9744 5.10744L7.99061 19.823C7.94352 19.8538 7.86503 19.8538 7.81794 19.823L5.20701 18.314C5.09713 18.2421 5.09713 18.0727 5.20701 18.006L36.9621 0.0260419C37.0876 -0.0406835 37.2289 0.0414401 37.2289 0.180024Z" fill="white"/>
<path fill-rule="evenodd" clip-rule="evenodd" d="M31.6569 10.2193V17.8568L18.7697 25.1453L12.0356 21.3368C11.8944 21.2547 11.8944 21.0545 12.0356 20.9724L31.343 10.0396C31.4842 9.95752 31.6569 10.0602 31.6569 10.2244" fill="white"/>
<path fill-rule="evenodd" clip-rule="evenodd" d="M31.6568 19.5662V40.7438C31.6568 40.985 31.4057 41.1339 31.1859 41.0107L21.6945 35.6316L12.946 30.6837C12.742 30.5656 12.742 30.2679 12.946 30.1447L20.2817 25.9975L31.6621 19.561L31.6568 19.5662Z" fill="white"/>
<path fill-rule="evenodd" clip-rule="evenodd" d="M115.075 46.7897L106.264 36.5807L115.012 25.9868C115.201 25.802 115.044 25.5864 114.761 25.5864H110.293C110.23 25.5864 110.073 25.648 110.041 25.6788L103.48 33.7629L103.433 33.8245L101.795 35.78L101.146 36.5499L103.443 39.337C103.443 39.337 103.459 39.337 103.459 39.3267L106.876 43.4637L109.884 47.1028C109.916 47.1336 110.073 47.2055 110.136 47.2055H114.829C115.112 47.2055 115.269 46.9796 115.08 46.7949" fill="white"/>
<path fill-rule="evenodd" clip-rule="evenodd" d="M56.7245 36.4732C58.3936 35.7957 59.775 34.3739 59.775 31.8384C59.775 25.5097 52.3136 25.6688 52.3136 25.6688H45.1401C44.9517 25.6688 44.8262 25.792 44.8262 25.9152V47.0415C44.8262 47.1647 44.9517 47.2879 45.1401 47.2879H52.3189C53.7996 47.2879 60.0941 47.0107 60.0941 40.9849C60.0941 40.9849 60.2197 37.6537 56.7297 36.4784M49.0173 29.5286H52.3241C52.4811 29.5286 55.5629 29.5594 55.5629 32.0899C55.5629 34.4766 52.3189 34.4766 52.3189 34.4766H49.012V29.5286H49.0173ZM52.3241 43.3305H49.0173V38.516H52.3241C52.3241 38.516 55.8821 38.3313 55.8821 40.8925C55.8821 42.961 53.7107 43.3305 52.3241 43.3305Z" fill="white"/>
<path fill-rule="evenodd" clip-rule="evenodd" d="M78.3979 46.944L69.8221 25.2017C69.7122 24.9861 69.3459 24.9861 69.236 25.2017L60.6446 46.944C60.5504 47.1287 60.6759 47.2827 60.9271 47.2827H64.799C64.9246 47.2827 65.0502 47.2211 65.0816 47.1287L69.5343 34.7178L73.987 47.1287C74.0184 47.2211 74.144 47.2827 74.2382 47.2827H78.1415C78.3612 47.2827 78.5025 47.1287 78.3926 46.944" fill="white"/>
<path fill-rule="evenodd" clip-rule="evenodd" d="M98.898 25.6328H95.3714C95.183 25.6328 95.0574 25.756 95.0574 25.8792V40.2354L84.9538 25.7252C84.9224 25.6636 84.7968 25.6328 84.734 25.6328H81.1185C80.9301 25.6328 80.8359 25.756 80.8359 25.8792V47.0363C80.8359 47.1595 80.9301 47.2827 81.1185 47.2827H84.7079C84.8648 47.2827 84.9904 47.1595 84.9904 47.0363V32.8032L95.0627 47.1903C95.0941 47.2519 95.251 47.2827 95.3138 47.2827H98.9032C99.0916 47.2827 99.2171 47.1595 99.2171 47.0363V25.8792C99.2171 25.756 99.0916 25.6328 98.9032 25.6328" fill="white"/>
<path fill-rule="evenodd" clip-rule="evenodd" d="M132.515 29.5852C132.704 29.5852 132.829 29.462 132.829 29.3388V25.9153C132.829 25.7921 132.704 25.6689 132.515 25.6689H118.257C118.1 25.6689 117.975 25.7921 117.975 25.9153V47.0416C117.975 47.1648 118.1 47.288 118.257 47.288H132.515C132.704 47.288 132.829 47.1648 132.829 47.0416V43.6386C132.829 43.5154 132.704 43.3923 132.515 43.3923H122.129V38.4546H130.721C130.909 38.4546 131.003 38.3314 131.003 38.2082V34.8463C131.003 34.7231 130.909 34.5999 130.721 34.5999H122.129V29.5904H132.515V29.5852Z" fill="white"/>
<path fill-rule="evenodd" clip-rule="evenodd" d="M151.508 46.9338C150.121 43.9312 148.641 40.9799 147.259 37.9464C147.259 37.9156 147.259 37.8848 147.291 37.8746C149.478 37.0944 151.304 35.3647 151.304 32.0951C151.304 25.7305 145.104 25.6689 143.843 25.6689H136.732C136.575 25.6689 136.449 25.7921 136.449 25.9153V47.0416C136.449 47.1648 136.575 47.288 136.732 47.288H140.321C140.51 47.288 140.635 47.1648 140.635 47.0416V29.6417C140.635 29.6417 140.666 29.5904 140.698 29.5904H143.848C144.507 29.5904 147.118 29.7135 147.118 32.1003C147.118 34.4767 144.758 34.5896 143.843 34.5896H141.498C141.404 34.5896 141.341 34.6923 141.373 34.7744L147.024 47.134C147.055 47.1956 147.212 47.288 147.306 47.288H151.241C151.461 47.288 151.586 47.134 151.508 46.939" fill="white"/>
<path d="M6.12819 58.5439H5.29102V63.8923H6.12819V58.5439Z" fill="white"/>
<path fill-rule="evenodd" clip-rule="evenodd" d="M12.5636 58.5437V61.726C12.5636 61.9159 12.5636 62.1058 12.5636 62.2957C12.595 62.4856 12.6107 62.6756 12.6264 62.8809C12.5636 62.7063 12.4642 62.5318 12.4014 62.3727C12.3072 62.229 12.2392 62.0904 12.145 61.9621L9.9213 58.5437H9.05273V63.892H9.88991V60.6789C9.88991 60.3607 9.87421 60.1246 9.85851 59.9655C9.85851 59.8218 9.82712 59.6832 9.81142 59.5549C9.89514 59.7448 9.97362 59.9039 10.0207 60.0117C10.0835 60.14 10.1515 60.2324 10.1986 60.3299L12.5218 63.8869H13.3746V58.5386H12.5689L12.5636 58.5437Z" fill="white"/>
<path fill-rule="evenodd" clip-rule="evenodd" d="M19.9668 58.5439L18.193 62.9427L16.435 58.5439H15.5664L17.7745 63.8871H18.5802L20.804 58.5439H19.9668Z" fill="white"/>
<path fill-rule="evenodd" clip-rule="evenodd" d="M27.386 59.2369V58.5439H22.9961V63.8871H27.386V63.1788H23.8385V61.4388H27.1715V60.7562H23.8385V59.2369H27.386Z" fill="white"/>
<path fill-rule="evenodd" clip-rule="evenodd" d="M32.6397 61.6439C33.2204 61.5823 33.639 61.4386 33.9268 61.1871C34.2041 60.9201 34.3454 60.5711 34.3454 60.1143C34.3454 59.5908 34.1675 59.2109 33.796 58.944C33.4402 58.6771 32.8908 58.5488 32.1687 58.5488H30.1543V63.8971H30.9915V61.649H31.5723L33.8117 63.8971H34.9262L32.6344 61.649L32.6397 61.6439ZM30.9967 60.9817V59.211H31.6874C32.4147 59.211 32.8803 59.2725 33.121 59.4009C33.346 59.5446 33.4768 59.7807 33.4768 60.0989C33.4768 60.4325 33.346 60.6532 33.0896 60.7816C32.8333 60.9253 32.3623 60.9869 31.6874 60.9869H30.9967V60.9817Z" fill="white"/>
<path fill-rule="evenodd" clip-rule="evenodd" d="M40.0286 61.6132C39.8821 61.4079 39.6414 61.1872 39.2856 60.9973C39.2385 60.9665 39.0763 60.8843 38.82 60.792C38.5636 60.6944 38.3386 60.602 38.145 60.5251C37.9357 60.4275 37.7735 60.3197 37.6793 60.2068C37.5851 60.0785 37.5328 59.9553 37.5328 59.7808C37.5328 59.5909 37.6113 59.4318 37.7578 59.3086C37.9043 59.1803 38.0979 59.1187 38.3386 59.1187C38.5322 59.1187 38.7101 59.1649 38.888 59.2778C39.0659 59.3702 39.2438 59.5293 39.406 59.75L39.9868 59.2419C39.7618 58.975 39.5002 58.7697 39.2438 58.6413C38.9717 58.4976 38.663 58.436 38.3386 58.436C37.8572 58.436 37.4543 58.5644 37.1456 58.8313C36.8421 59.1136 36.6799 59.4472 36.6799 59.8732C36.6799 60.2068 36.8107 60.5199 37.0357 60.7406C37.2607 60.9921 37.6793 61.2128 38.2287 61.4233C38.731 61.5978 39.0345 61.7569 39.181 61.8955C39.3275 62.0392 39.3903 62.2137 39.3903 62.419C39.3903 62.7013 39.3118 62.9118 39.1339 63.0658C38.956 63.2249 38.731 63.3019 38.4223 63.3019C38.1345 63.3019 37.8729 63.2249 37.6636 63.0812C37.4543 62.922 37.3078 62.7013 37.2293 62.3985L36.4863 62.6346C36.5857 63.0452 36.8107 63.3943 37.1613 63.6304C37.5171 63.8665 37.9357 63.9948 38.4537 63.9948C38.9717 63.9948 39.406 63.8511 39.7251 63.5534C40.0652 63.2711 40.2431 62.8707 40.2431 62.4139C40.2431 62.0803 40.1647 61.8134 40.0339 61.6081" fill="white"/>
<path d="M43.6029 58.5439H42.75V63.8923H43.6029V58.5439Z" fill="white"/>
<path fill-rule="evenodd" clip-rule="evenodd" d="M50.8634 60.0942C50.7326 59.7451 50.5547 59.4474 50.314 59.1754C50.1047 58.9239 49.8327 58.7494 49.5396 58.6211C49.2362 58.4927 48.8961 58.4312 48.5089 58.4312C48.1217 58.4312 47.7973 58.4927 47.4938 58.6211C47.1903 58.734 46.9287 58.9239 46.7037 59.1754C46.4787 59.4423 46.3008 59.7451 46.1857 60.0788C46.0549 60.4278 46.0078 60.8076 46.0078 61.2182C46.0078 61.6288 46.0549 62.0087 46.1857 62.3423C46.3008 62.6759 46.4735 62.989 46.7194 63.2611C46.9287 63.4972 47.206 63.6871 47.5095 63.8154C47.7973 63.9437 48.1531 64.0053 48.5089 64.0053C48.8961 64.0053 49.2362 63.9437 49.5396 63.8154C49.8483 63.6871 50.1047 63.4972 50.314 63.2611C50.5704 62.9942 50.7326 62.6759 50.8634 62.3577C50.9785 62.0087 51.0256 61.6288 51.0256 61.2182C51.0256 60.8076 50.9785 60.4278 50.8634 60.0942ZM49.7018 62.7375C49.4141 63.1173 49.0059 63.3072 48.5089 63.3072C48.0118 63.3072 47.6037 63.1173 47.3159 62.7375C47.0281 62.3577 46.8816 61.8496 46.8816 61.2182C46.8816 60.5715 47.0281 60.0634 47.3159 59.6989C47.6246 59.3191 48.0275 59.1292 48.5089 59.1292C49.0112 59.1292 49.4141 59.3191 49.7018 59.6989C49.9949 60.0788 50.1518 60.5869 50.1518 61.2182C50.1518 61.8496 49.9896 62.3577 49.7018 62.7375Z" fill="white"/>
<path fill-rule="evenodd" clip-rule="evenodd" d="M56.9073 58.5437V61.726C56.9073 61.9159 56.923 62.1058 56.9387 62.2957C56.9387 62.4856 56.9701 62.6756 57.0015 62.8809C56.9073 62.7063 56.8236 62.5318 56.7451 62.3727C56.6823 62.229 56.5829 62.0904 56.5201 61.9621L54.2807 58.5437H53.4121V63.892H54.2336V60.6789C54.2336 60.3607 54.2336 60.1246 54.2179 59.9655C54.2022 59.8218 54.2022 59.6832 54.1708 59.5549C54.2545 59.7448 54.333 59.9039 54.3958 60.0117C54.4429 60.14 54.49 60.2324 54.558 60.3299L56.8811 63.8869H57.734V58.5386H56.9125L56.9073 58.5437Z" fill="white"/>
<path fill-rule="evenodd" clip-rule="evenodd" d="M65.0384 59.2369V58.5439H60.6484V63.8871H65.0384V63.1788H61.4856V61.4388H64.8238V60.7562H61.4856V59.2369H65.0384Z" fill="white"/>
<path fill-rule="evenodd" clip-rule="evenodd" d="M70.8255 61.6132C70.679 61.4079 70.4383 61.1872 70.0825 60.9973C70.0354 60.9665 69.8732 60.8843 69.6168 60.792C69.3604 60.6944 69.1354 60.602 68.9419 60.5251C68.7326 60.4275 68.5704 60.3197 68.4762 60.2068C68.382 60.0785 68.3297 59.9553 68.3297 59.7808C68.3297 59.5909 68.4082 59.4318 68.539 59.3086C68.7012 59.1803 68.8948 59.1187 69.1354 59.1187C69.329 59.1187 69.5069 59.1649 69.6848 59.2778C69.8627 59.3702 70.0406 59.5293 70.2028 59.75L70.7836 59.2419C70.5586 58.975 70.297 58.7697 70.0406 58.6413C69.7686 58.4976 69.4599 58.436 69.1354 58.436C68.6541 58.436 68.246 58.5644 67.9425 58.8313C67.639 59.1136 67.4768 59.4472 67.4768 59.8732C67.4768 60.2068 67.6076 60.5199 67.8326 60.7406C68.0576 60.9921 68.4605 61.2128 69.0256 61.4233C69.5279 61.5978 69.8313 61.7569 69.9779 61.8955C70.1087 62.0392 70.1872 62.2137 70.1872 62.419C70.1872 62.7013 70.1087 62.9118 69.9308 63.0658C69.7529 63.2249 69.5279 63.3019 69.2192 63.3019C68.9314 63.3019 68.6698 63.2249 68.4605 63.0812C68.2512 62.922 68.1047 62.7013 68.0105 62.3985L67.2832 62.6346C67.3826 63.0452 67.6076 63.3943 67.9582 63.6304C68.314 63.8665 68.7326 63.9948 69.2296 63.9948C69.7633 63.9948 70.1976 63.8511 70.522 63.5534C70.8621 63.2711 71.0243 62.8707 71.0243 62.4139C71.0243 62.0803 70.9615 61.8134 70.8307 61.6081" fill="white"/>
<path d="M77.5501 58.5439H76.6973V63.8923H77.5501V58.5439Z" fill="white"/>
<path fill-rule="evenodd" clip-rule="evenodd" d="M83.9855 58.5437V61.726C83.9855 61.9159 83.9855 62.1058 84.0012 62.2957C84.0169 62.4856 84.0326 62.6756 84.064 62.8809C83.9855 62.7063 83.8861 62.5318 83.8233 62.3727C83.7448 62.229 83.6611 62.0904 83.5826 61.9621L81.3432 58.5437H80.4746V63.892H81.3118V60.6789C81.3118 60.3607 81.3118 60.1246 81.2961 59.9655C81.2804 59.8218 81.2647 59.6832 81.249 59.5549C81.3275 59.7448 81.3955 59.9039 81.4583 60.0117C81.5054 60.14 81.5734 60.2324 81.6205 60.3299L83.9437 63.8869H84.7965V58.5386H83.9907L83.9855 58.5437Z" fill="white"/>
<path fill-rule="evenodd" clip-rule="evenodd" d="M92.9802 58.5437H92.075L90.8977 62.306C90.8349 62.5113 90.7983 62.6704 90.7669 62.8141C90.7198 62.9579 90.7041 63.0964 90.6727 63.2248C90.6727 63.0964 90.6413 62.9579 90.6099 62.8141C90.5785 62.6704 90.5314 62.5113 90.4791 62.306L89.2862 58.5386H88.3862L87.2246 63.8869H87.999L88.6792 60.643C88.7106 60.4223 88.742 60.217 88.7891 59.9809C88.8205 59.7756 88.8519 59.5395 88.8885 59.3033C88.9513 59.6216 89.0664 60.0168 89.2129 60.5044C89.2286 60.566 89.26 60.6122 89.26 60.6635L90.296 63.892H91.1018L92.1168 60.6635C92.1168 60.6327 92.1325 60.5865 92.1482 60.5198C92.3104 60.0425 92.4203 59.6318 92.4883 59.3033C92.5354 59.601 92.5668 59.8731 92.6035 60.0784C92.6348 60.2991 92.6662 60.489 92.6976 60.6481L93.3726 63.892H94.147L92.9854 58.5437H92.9802Z" fill="white"/>
<path fill-rule="evenodd" clip-rule="evenodd" d="M100.897 60.0942C100.782 59.7451 100.609 59.4474 100.379 59.1754C100.154 58.9239 99.892 58.7494 99.5728 58.6211C99.2851 58.4927 98.945 58.4312 98.5578 58.4312C98.1706 58.4312 97.8462 58.4927 97.5584 58.6211C97.2549 58.734 96.9776 58.9239 96.7683 59.1754C96.5276 59.4423 96.3497 59.7451 96.2346 60.0788C96.1038 60.4278 96.041 60.8076 96.041 61.2182C96.041 61.6288 96.1038 62.0087 96.2346 62.3423C96.3497 62.6759 96.5224 62.989 96.784 63.2611C96.9933 63.4972 97.2497 63.6871 97.5584 63.8154C97.8671 63.9437 98.202 64.0053 98.5735 64.0053C98.945 64.0053 99.2851 63.9437 99.5885 63.8154C99.8973 63.6871 100.154 63.4972 100.379 63.2611C100.604 62.9942 100.797 62.6759 100.912 62.3577C101.027 62.0087 101.09 61.6288 101.09 61.2182C101.09 60.8076 101.027 60.4278 100.897 60.0942ZM99.7507 62.7375C99.442 63.1173 99.0548 63.3072 98.5578 63.3072C98.0764 63.3072 97.6735 63.1173 97.3805 62.7375C97.077 62.3577 96.9462 61.8496 96.9462 61.2182C96.9462 60.5715 97.077 60.0634 97.3805 59.6989C97.6735 59.3191 98.0764 59.1292 98.5578 59.1292C99.0601 59.1292 99.4473 59.3191 99.7507 59.6989C100.039 60.0788 100.185 60.5869 100.185 61.2182C100.185 61.8496 100.039 62.3577 99.7507 62.7375Z" fill="white"/>
<path fill-rule="evenodd" clip-rule="evenodd" d="M107.399 61.4026C107.19 61.1819 106.865 61.0228 106.447 60.9458C106.719 60.8688 106.933 60.7405 107.074 60.5814C107.205 60.3915 107.284 60.1708 107.284 59.8987C107.284 59.6472 107.237 59.4265 107.106 59.2161C107.006 59.0262 106.834 58.8671 106.604 58.7439C106.473 58.6669 106.295 58.6156 106.086 58.5848C105.861 58.554 105.505 58.5386 105.023 58.5386H103.475V63.8869H105.264C106.117 63.8869 106.729 63.7586 107.101 63.5071C107.504 63.2556 107.697 62.8603 107.697 62.3214C107.697 61.9416 107.582 61.6233 107.394 61.4026M104.312 59.2366H104.924C105.552 59.2366 105.955 59.2828 106.148 59.3957C106.326 59.5087 106.42 59.6986 106.42 59.9809C106.42 60.2632 106.305 60.4582 106.096 60.566C105.887 60.6738 105.5 60.7405 104.919 60.7405H104.307V59.2366H104.312ZM106.441 62.9835C106.185 63.1272 105.73 63.2042 105.055 63.2042H104.317V61.3872H105.06C105.772 61.3872 106.253 61.4488 106.478 61.5771C106.703 61.7209 106.834 61.9416 106.834 62.2906C106.834 62.6242 106.703 62.8603 106.447 62.9886L106.441 62.9835Z" fill="white"/>
<path d="M111.12 58.5439H110.268V63.8923H111.12V58.5439Z" fill="white"/>
<path fill-rule="evenodd" clip-rule="evenodd" d="M114.892 63.1788V58.5439H114.039V63.8871H118.282V63.1788H114.892Z" fill="white"/>
<path d="M121.181 58.5439H120.328V63.8923H121.181V58.5439Z" fill="white"/>
<path fill-rule="evenodd" clip-rule="evenodd" d="M126.456 58.5439H125.556L123.379 63.8923H124.247L124.745 62.5167H127.23L127.764 63.8923H128.648L126.456 58.5439ZM124.975 61.911L125.99 59.2677L127.005 61.911H124.975Z" fill="white"/>
<path fill-rule="evenodd" clip-rule="evenodd" d="M133.341 61.6439C133.906 61.5823 134.34 61.4386 134.612 61.1871C134.905 60.9201 135.047 60.5711 135.047 60.1143C135.047 59.5908 134.853 59.2109 134.497 58.944C134.126 58.6771 133.576 58.5488 132.854 58.5488H130.84V63.8971H131.693V61.649H132.258L134.502 63.8971H135.612L133.341 61.649V61.6439ZM131.698 60.9817V59.211H132.378C133.105 59.211 133.571 59.2725 133.812 59.4009C134.052 59.5446 134.168 59.7807 134.168 60.0989C134.168 60.4325 134.037 60.6532 133.78 60.7816C133.524 60.9253 133.053 60.9869 132.378 60.9869H131.703L131.698 60.9817Z" fill="white"/>
<path d="M138.548 58.5439H137.695V63.8923H138.548V58.5439Z" fill="white"/>
<path fill-rule="evenodd" clip-rule="evenodd" d="M143.838 58.5439H142.933L140.74 63.8923H141.609L142.122 62.5167H144.607L145.125 63.8923H146.009L143.833 58.5439H143.838ZM142.352 61.911L143.351 59.2677L144.382 61.911H142.352Z" fill="white"/>
<path fill-rule="evenodd" clip-rule="evenodd" d="M151.242 61.6132C151.111 61.4079 150.855 61.1872 150.499 60.9973C150.452 60.9665 150.29 60.8843 150.033 60.792C149.761 60.6944 149.531 60.602 149.338 60.5251C149.128 60.4275 148.982 60.3197 148.888 60.2068C148.793 60.0785 148.725 59.9553 148.725 59.7808C148.725 59.5909 148.804 59.4318 148.95 59.3086C149.113 59.1803 149.306 59.1187 149.547 59.1187C149.725 59.1187 149.918 59.1649 150.096 59.2778C150.274 59.3702 150.452 59.5293 150.63 59.75L151.179 59.2419C150.97 58.975 150.729 58.7697 150.436 58.6413C150.18 58.4976 149.871 58.436 149.552 58.436C149.055 58.436 148.663 58.5644 148.359 58.8313C148.056 59.1136 147.893 59.4472 147.893 59.8732C147.893 60.2068 148.024 60.5199 148.249 60.7406C148.474 60.9921 148.877 61.2128 149.442 61.4233C149.929 61.5978 150.248 61.7569 150.395 61.8955C150.541 62.0392 150.604 62.2137 150.604 62.419C150.604 62.7013 150.504 62.9118 150.347 63.0658C150.17 63.2249 149.929 63.3019 149.641 63.3019C149.353 63.3019 149.092 63.2249 148.882 63.0812C148.673 62.922 148.511 62.7013 148.432 62.3985L147.705 62.6346C147.799 63.0452 148.029 63.3943 148.38 63.6304C148.736 63.8665 149.154 63.9948 149.672 63.9948C150.19 63.9948 150.625 63.8511 150.965 63.5534C151.289 63.2711 151.446 62.8707 151.446 62.4139C151.446 62.0803 151.383 61.8134 151.253 61.6081" fill="white"/>
</g>
<defs>
<clipPath id="clip0_1970_961">
<rect width="151" height="64" fill="white" transform="translate(0.529297)"/>
</clipPath>
</defs>
</svg>
