<svg width="187" height="52" viewBox="0 0 187 52" fill="none" xmlns="http://www.w3.org/2000/svg">
<path d="M67.1041 23.8861C66.0381 24.3859 64.88 24.6388 63.5937 24.6388C59.5502 24.6388 55.8851 21.628 55.8851 17.4851C55.8851 13.3422 59.5502 10.4209 63.5937 10.4209C64.8899 10.4209 66.0513 10.6739 67.1238 11.1644C67.364 11.2723 67.6174 11.3279 67.8608 11.3279C68.7886 11.3279 69.6406 10.5937 69.6406 9.64049C68.0154 8.15361 65.7617 7.25586 63.054 7.25586C56.8919 7.25586 52.1445 11.9448 52.1445 17.4851C52.1445 23.0255 56.8952 27.8038 63.054 27.8038C64.4095 27.8038 65.6466 27.5786 66.7487 27.1683C67.8607 26.7519 68.828 26.1534 69.6406 25.4193C69.6406 24.1946 68.2787 23.3432 67.1074 23.8861" fill="white"/>
<path d="M72.5137 7.64404V27.4053C74.4877 27.4053 76.0933 25.9093 76.0933 24.0491V7.64404H72.5137Z" fill="white"/>
<path d="M91.7996 7.25586C88.174 7.25586 85.4235 8.97106 83.5087 11.0842L83.3442 7.64764H79.9688V27.4089H83.5482V17.334C83.5482 14.5237 85.5519 10.424 90.5494 10.424C93.7999 10.424 96.0536 12.2934 96.0536 17.2538V27.412H99.6331V15.8471C99.6331 10.2605 96.672 7.25895 91.7996 7.25895" fill="white"/>
<path d="M122.671 17.7192C122.671 12.1326 118.589 7.25244 112.13 7.25244C105.672 7.25244 101.586 11.8611 101.586 17.4107C101.586 23.386 106.093 27.8034 112.466 27.8034C118.01 27.8034 121.257 24.3577 122.089 21.6647L118.918 21.276C118.01 23.0343 115.92 24.7926 112.466 24.7926C108.133 24.7926 105.3 22.1737 105.172 18.5799H122.668V17.7192H122.671ZM105.175 16.1582C105.3 12.913 108.172 10.254 112.13 10.254C116.088 10.254 118.882 13.0734 119.095 16.1582H105.179H105.175Z" fill="white"/>
<path d="M133.543 7.25586C131.589 7.25586 129.963 8.46206 128.667 10.1494L128.503 7.64764H125.127V27.4089H128.713V17.5684C128.713 13.8605 130.088 10.4209 133.336 10.4209C134.332 10.4209 135.165 10.7664 135.579 11.0471L136.208 8.11653C135.754 7.72476 134.836 7.25586 133.536 7.25586" fill="white"/>
<path d="M144.795 24.2039C142.252 24.2039 140.712 23.8954 140.712 22.8805C140.712 22.3715 141.166 21.9365 141.923 21.628C142.88 21.9365 143.962 22.1 145.084 22.1C150.006 22.1 153.799 18.8887 153.799 14.6718C153.799 13.0769 153.257 11.624 152.299 10.4548L154.757 10.6553C154.757 9.03272 153.276 7.77106 151.556 7.91605L149.253 8.11653C148.006 7.56435 146.584 7.25586 145.084 7.25586C140.133 7.25586 136.379 10.4209 136.379 14.6748C136.379 17.1766 137.675 19.2835 139.755 20.6162C138.544 21.1591 137.336 22.1031 137.336 23.4296C137.336 24.5278 138.129 25.3792 139.251 25.9684C137.715 26.866 136.379 28.319 136.379 30.503C136.379 30.577 136.379 30.6387 136.389 30.7035H139.774C139.754 30.614 139.755 30.5215 139.755 30.4228C139.755 28.8989 141.34 27.5293 142.627 26.9864C143.041 27.0234 143.42 27.0666 143.834 27.0666C148.256 27.0666 151.417 27.9643 151.417 30.5401C151.417 30.5956 151.418 30.648 151.408 30.7035H154.783C154.793 30.6387 154.793 30.577 154.793 30.503C154.793 26.6779 151.039 24.21 144.791 24.21M145.081 10.0723C148.039 10.0723 150.371 12.0219 150.371 14.6779C150.371 17.3339 148.042 19.2496 145.081 19.2496C142.12 19.2496 139.751 17.3 139.751 14.6779C139.751 12.0558 142.169 10.0723 145.081 10.0723Z" fill="white"/>
<path d="M157.125 7.64404V27.4053C159.109 27.4053 160.714 25.9093 160.714 24.0491V7.64404H157.125Z" fill="white"/>
<path d="M183.122 7.64414L182.958 12.1326C181.622 9.35623 178.411 7.25244 174.457 7.25244C168.41 7.25244 163.787 11.8611 163.787 17.4816C163.787 23.1022 168.41 27.8003 174.457 27.8003C178.411 27.8003 181.622 25.6872 182.958 22.9109L183.122 27.3993C185.008 27.3993 186.537 25.9649 186.537 24.1973V7.63804H183.122V7.64414ZM174.996 24.6384C170.703 24.6384 167.373 21.3901 167.373 17.4847C167.373 13.5794 170.703 10.4205 174.996 10.4205C179.29 10.4205 182.58 13.6565 182.58 17.4847C182.58 21.313 179.329 24.6384 174.996 24.6384Z" fill="white"/>
<path d="M61.821 34.7656V35.3702H58.3831V37.2859H61.4559V37.8843H58.3831V39.8771H61.933V40.4787H57.6855V34.7656H61.821Z" fill="white"/>
<path d="M67.9096 35.3767C67.1266 35.3767 66.61 35.6698 66.61 36.1603C66.61 37.6471 70.0415 36.8698 70.0316 38.9458C70.0316 39.8929 69.1334 40.5036 67.8306 40.5036C66.9423 40.5036 66.0705 40.1458 65.498 39.6307L65.8107 39.0661C66.3765 39.572 67.153 39.8651 67.8406 39.8651C68.719 39.8651 69.2684 39.5288 69.2684 38.9766C69.2782 37.4497 65.8468 38.2579 65.8468 36.2096C65.8468 35.3119 66.6924 34.7412 67.9557 34.7412C68.6598 34.7412 69.3835 34.9541 69.8868 35.2718L69.5908 35.8518C69.0414 35.5155 68.3966 35.3767 67.9096 35.3767Z" fill="white"/>
<path d="M78.1023 34.7656V35.3702H76.1051V40.4787H75.411V35.3702H73.4238V34.7656H78.1023Z" fill="white"/>
<path d="M84.3298 39.908C85.4879 39.908 86.1854 39.254 86.1854 38.128V34.7656H86.8829V38.128C86.8829 39.6211 85.9255 40.5033 84.3332 40.5033C82.7408 40.5033 81.7637 39.6211 81.7637 38.128V34.7656H82.4612V38.128C82.4612 39.254 83.1751 39.908 84.3332 39.908" fill="white"/>
<path d="M96.9765 37.6223C96.9765 39.248 95.6078 40.4789 93.8147 40.4789H91.377V34.7627H93.8411C95.6177 34.7627 96.9765 35.9966 96.9765 37.6192M96.2691 37.6285C96.2691 36.339 95.19 35.3673 93.8213 35.3673H92.0711V39.8742H93.8477C95.2064 39.8742 96.2691 38.9118 96.2691 37.6285Z" fill="white"/>
<path d="M101.735 34.7656H101.037V40.4818H101.735V34.7656Z" fill="white"/>
<path d="M112.181 37.6225C112.181 39.2296 110.769 40.5036 108.993 40.5036C107.216 40.5036 105.795 39.2296 105.795 37.6225C105.795 36.0153 107.206 34.7505 108.993 34.7505C110.779 34.7505 112.181 36.0153 112.181 37.6225ZM106.502 37.6225C106.502 38.8872 107.634 39.9083 108.993 39.9083C110.352 39.9083 111.467 38.8872 111.467 37.6225C111.467 36.3577 110.352 35.352 108.993 35.352C107.634 35.352 106.502 36.3577 106.502 37.6225Z" fill="white"/>
<path d="M124.253 35.3455C122.874 35.3455 121.769 36.3481 121.769 37.616C121.769 38.8838 122.874 39.8925 124.253 39.8925C124.924 39.8925 125.576 39.6303 126.056 39.2077L126.484 39.6396C125.882 40.1702 125.062 40.5033 124.22 40.5033C122.46 40.5033 121.068 39.2293 121.068 37.6129C121.068 35.9964 122.476 34.7471 124.246 34.7471C125.082 34.7471 125.891 35.0648 126.477 35.58L126.059 36.0519C125.589 35.6108 124.928 35.3424 124.256 35.3424" fill="white"/>
<path d="M134.511 40.4789L133.234 38.6495C133.109 38.6588 132.981 38.6649 132.84 38.6649H131.221V40.4789H130.523V34.7627H132.84C134.363 34.7627 135.245 35.4629 135.245 36.6814C135.245 37.6192 134.748 38.2639 133.866 38.5261L135.304 40.4789H134.511ZM132.84 38.0634C133.948 38.0634 134.573 37.5976 134.573 36.7C134.573 35.8023 133.945 35.3704 132.84 35.3704H131.221V38.0634H132.84Z" fill="white"/>
<path d="M143.747 34.7656V35.3702H140.309V37.2859H143.382V37.8843H140.309V39.8771H143.859V40.4787H139.611V34.7656H143.747Z" fill="white"/>
<path d="M151.919 39.0196H148.603L147.922 40.4818H147.182L149.916 34.7656H150.636L153.364 40.4818H152.607L151.919 39.0196ZM151.64 38.4149L150.255 35.4751L148.889 38.4149H151.64Z" fill="white"/>
<path d="M160.387 34.7656V35.3702H158.394V40.4787H157.696V35.3702H155.709V34.7656H160.387Z" fill="white"/>
<path d="M164.883 34.7656H164.186V40.4818H164.883V34.7656Z" fill="white"/>
<path d="M169.397 34.7656L171.496 39.7445L173.601 34.7656H174.332L171.841 40.4787H171.121L168.646 34.7656H169.397Z" fill="white"/>
<path d="M183.862 37.622C183.862 39.2292 182.451 40.5031 180.675 40.5031C178.898 40.5031 177.477 39.2292 177.477 37.622C177.477 36.0148 178.888 34.75 180.675 34.75C182.461 34.75 183.862 36.0148 183.862 37.622ZM178.184 37.622C178.184 38.8867 179.316 39.9078 180.675 39.9078C182.033 39.9078 183.149 38.8867 183.149 37.622C183.149 36.3572 182.033 35.3515 180.675 35.3515C179.316 35.3515 178.184 36.3572 178.184 37.622Z" fill="white"/>
<path d="M14.3617 2.31658C13.1444 2.76388 11.9766 3.33146 10.8678 3.98853C14.2269 1.85075 18.244 0.589079 22.3696 0.453347C19.5764 0.348463 16.7536 0.820439 14.1183 1.76439C11.4896 2.73302 9.06806 4.20445 7.02168 6.05533C2.91905 9.76327 0.553559 15.0845 0.537109 20.4459C0.556849 25.8043 2.91905 31.1287 7.02168 34.8335C9.06477 36.6844 11.4895 38.1558 14.1149 39.1245C16.7502 40.0684 19.5731 40.5404 22.3663 40.4386C18.2143 40.3029 14.1643 39.0289 10.7954 36.8634C11.9238 37.5389 13.1181 38.1157 14.3585 38.5723C16.9181 39.4854 19.6553 39.942 22.3663 39.8371C18.3393 39.7014 14.4177 38.4613 11.1507 36.3605C12.243 37.0145 13.4011 37.5729 14.6052 38.014C17.0859 38.8993 19.7408 39.3374 22.3663 39.2325C18.4643 39.0967 14.6678 37.8937 11.5061 35.8608C12.5654 36.4932 13.6839 37.033 14.8486 37.4587C17.2536 38.3132 19.8231 38.7358 22.3663 38.6309C18.5894 38.4952 14.9178 37.3291 11.8614 35.3579C12.8846 35.9687 13.9669 36.4901 15.0953 36.9003C17.4214 37.724 19.9086 38.1311 22.3663 38.0294C18.7144 37.8905 15.1678 36.7616 12.2134 34.8551C13.2037 35.4443 14.2499 35.9471 15.3389 36.3451C17.5892 37.1379 19.9909 37.5296 22.3663 37.4278C18.8427 37.289 15.4179 36.197 12.5687 34.3554C13.5261 34.923 14.5327 35.4073 15.5823 35.7898C17.7537 36.5517 20.0731 36.9312 22.3663 36.8263C18.9677 36.6875 15.6679 35.6325 12.9241 33.8557C13.8453 34.4017 14.819 34.8675 15.829 35.2346C17.9214 35.9657 20.1587 36.3297 22.3663 36.2248C19.0927 36.086 15.9179 35.0649 13.276 33.3528C14.1643 33.8772 15.0987 34.3245 16.0725 34.6793C18.0893 35.3826 20.2409 35.7281 22.3663 35.6263C19.2177 35.4875 16.1646 34.5004 13.628 32.8531C14.4801 33.3559 15.3816 33.7878 16.3159 34.124C18.2537 34.7965 20.3233 35.1265 22.3631 35.0217C19.3395 34.8828 16.4147 33.9358 13.9801 32.3533C14.7994 32.8346 15.6613 33.2448 16.5595 33.5687C18.4216 34.2104 20.4054 34.5281 22.3597 34.4201C19.4612 34.2813 16.6581 33.3683 14.3321 31.8505C15.1151 32.3102 15.9441 32.705 16.8028 33.0134C18.586 33.6273 20.4877 33.9266 22.3597 33.8217C19.5862 33.6829 16.9081 32.8068 14.6841 31.3508C15.4342 31.7888 16.2272 32.1652 17.0464 32.4582C18.7539 33.0413 20.5732 33.3251 22.3597 33.2202C19.7112 33.0814 17.1583 32.2392 15.0362 30.8511C15.7502 31.2706 16.5069 31.6253 17.2899 31.906C18.9185 32.4582 20.6522 32.7266 22.3565 32.6217C19.833 32.4798 17.4018 31.6747 15.385 30.3513C16.066 30.7492 16.7865 31.0855 17.5333 31.3508C19.0862 31.8721 20.7378 32.125 22.3565 32.0201C19.9581 31.8782 17.6517 31.1101 15.7402 29.8515C16.3883 30.2248 17.0695 30.5456 17.7768 30.7955C19.254 31.286 20.82 31.5235 22.3565 31.4186C20.0831 31.2767 17.9018 30.5426 16.0923 29.3487C16.7075 29.7035 17.3524 30.0058 18.0236 30.2402C19.4218 30.6998 20.9023 30.922 22.3565 30.8171C20.2081 30.6752 18.1485 29.9781 16.4443 28.8459C17.0233 29.1791 17.6353 29.4629 18.2669 29.685C19.5862 30.1169 20.9845 30.3235 22.3565 30.2156C19.6258 30.0243 17.0563 28.8922 15.2566 27.0875C13.457 25.286 12.4108 22.8737 12.4306 20.4306C12.4141 17.9874 13.4602 15.5751 15.2598 13.7735C17.0595 11.9689 19.629 10.8368 22.3597 10.6456C20.991 10.5407 19.5929 10.7443 18.2703 11.1761C17.6485 11.3921 17.053 11.6728 16.4838 11.9967C18.1814 10.88 20.2245 10.189 22.3597 10.0471C20.9088 9.94218 19.425 10.1643 18.0268 10.624C17.3688 10.8553 16.7371 11.1514 16.135 11.4969C17.9347 10.3154 20.1028 9.59052 22.3631 9.44862C20.8266 9.34066 19.2606 9.58128 17.7834 10.0718C17.0892 10.3185 16.4213 10.6301 15.7831 10.9972C17.688 9.75094 19.9777 8.99209 22.3597 8.85019C20.741 8.74531 19.0895 8.99824 17.5367 9.51957C16.8063 9.78178 16.1021 10.1118 15.4309 10.4974C17.4378 9.18947 19.8527 8.39057 22.3597 8.25175C20.6555 8.14687 18.9217 8.41519 17.2899 8.96429C16.52 9.23884 15.783 9.58745 15.079 9.99464C17.1911 8.6219 19.7277 7.78897 22.3597 7.64707C20.5732 7.54218 18.7539 7.82605 17.0464 8.40599C16.2403 8.69597 15.4672 9.06306 14.7302 9.48877C16.9444 8.05124 19.606 7.18436 22.3597 7.04555C20.4877 6.94066 18.586 7.23992 16.8028 7.85071C15.9606 8.15302 15.1514 8.53861 14.3782 8.98899C16.6977 7.48977 19.4809 6.58284 22.3597 6.44402C20.4054 6.33914 18.4182 6.65379 16.5561 7.29543C15.6744 7.61317 14.8289 8.01731 14.0261 8.4862C16.4475 6.9222 19.3559 5.9844 22.3597 5.8425C20.3199 5.73762 18.2505 6.06766 16.3127 6.74015C15.3948 7.07331 14.513 7.49285 13.6773 7.98334C16.2041 6.35456 19.2343 5.37979 22.3631 5.24098C20.241 5.13609 18.0859 5.48153 16.0692 6.18487C15.1151 6.53037 14.1972 6.97156 13.3254 7.48055C15.9574 5.79008 19.1092 4.7782 22.3631 4.63938C20.1555 4.5345 17.9215 4.89548 15.8258 5.62967C14.8322 5.99059 13.8814 6.4471 12.9766 6.98078C15.7106 5.22552 18.9875 4.17976 22.3631 4.04094C20.0732 3.93606 17.7537 4.31244 15.579 5.07747C14.5493 5.45382 13.5622 5.9289 12.6213 6.48108C15.4572 4.66104 18.8591 3.57824 22.3597 3.44251C19.9843 3.33763 17.5826 3.73248 15.3323 4.52528C14.2663 4.91397 13.2398 5.41061 12.2693 5.9813C15.2105 4.09648 18.7342 2.9798 22.3631 2.84099C19.9054 2.7361 17.4182 3.14636 15.0921 3.97C13.9867 4.37411 12.9273 4.88623 11.9205 5.47851C14.9638 3.532 18.6125 2.37821 22.3631 2.24248C19.8199 2.13759 17.2504 2.56331 14.8454 3.41472C13.7038 3.83425 12.6082 4.36486 11.5686 4.97874C14.7171 2.96744 18.4874 1.77977 22.3631 1.64095C19.7376 1.53607 17.0825 1.97718 14.6018 2.85944C13.424 3.29131 12.2923 3.84048 11.2164 4.47595C14.4702 2.40296 18.3624 1.17825 22.3631 1.03943C19.6521 0.934547 16.9147 1.39113 14.3551 2.30423" fill="white"/>
<path d="M30.709 49.6838C31.9263 49.2365 33.0943 48.6689 34.203 48.0118C30.8472 50.1496 26.8268 51.4113 22.7012 51.547C25.4944 51.6519 28.3172 51.1799 30.9525 50.236C33.5812 49.2673 36.0026 47.7959 38.049 45.945C42.1483 42.2371 44.5138 36.9157 44.5335 31.5543C44.5138 26.196 42.1516 20.8717 38.049 17.1637C36.0059 15.3128 33.5811 13.8414 30.9557 12.8728C28.3171 11.9288 25.4978 11.4569 22.7045 11.5617C26.8565 11.6975 30.9032 12.9715 34.2754 15.1401C33.147 14.4645 31.9527 13.8876 30.7123 13.428C28.1527 12.5149 25.4155 12.0584 22.7045 12.1633C26.7315 12.299 30.6531 13.5391 33.9201 15.6368C32.8278 14.9828 31.6697 14.4244 30.4656 13.9833C27.9849 13.0979 25.33 12.6599 22.7045 12.7648C26.6065 12.9005 30.4031 14.1036 33.5647 16.1396C32.5054 15.5072 31.3867 14.9673 30.2221 14.5416C27.8171 13.6872 25.2477 13.2645 22.7045 13.3663C26.4815 13.502 30.153 14.6681 33.2094 16.6393C32.1829 16.0285 31.1005 15.5072 29.9753 15.0938C27.6493 14.2702 25.1622 13.8629 22.7045 13.9647C26.3564 14.1005 29.903 15.2326 32.8574 17.139C31.8671 16.5498 30.8209 16.0471 29.7319 15.6491C27.4816 14.8563 25.0799 14.4615 22.7045 14.5663C26.2281 14.7052 29.6529 15.7972 32.5021 17.6388C31.548 17.0712 30.5379 16.5868 29.4884 16.2043C27.317 15.4424 24.9976 15.063 22.7078 15.1679C26.1063 15.3067 29.4063 16.3647 32.1501 18.1385C31.2289 17.5925 30.255 17.1267 29.245 16.7596C27.1493 16.0254 24.9153 15.6645 22.7078 15.7694C25.9813 15.9082 29.1561 16.9293 31.798 18.6414C30.9097 18.1169 29.9753 17.6696 29.0015 17.3149C26.9847 16.6115 24.8331 16.266 22.7078 16.3709C25.8563 16.5097 28.9061 17.4938 31.446 19.1411C30.5939 18.6382 29.6924 18.2095 28.7547 17.8702C26.8169 17.1977 24.7476 16.8676 22.7078 16.9724C25.7313 17.1113 28.6561 18.0614 31.0907 19.6408C30.2715 19.1596 29.4095 18.7494 28.5114 18.4254C26.6492 17.7838 24.6653 17.4692 22.7078 17.574C25.6062 17.7129 28.4093 18.6259 30.7353 20.1436C29.9523 19.684 29.1233 19.2922 28.2646 18.9807C26.4814 18.3699 24.5798 18.0676 22.7078 18.1725C25.4812 18.3113 28.1593 19.1905 30.3833 20.6434C29.6332 20.2023 28.8404 19.829 28.0179 19.5359C26.3103 18.956 24.4943 18.6691 22.7045 18.774C25.353 18.9159 27.906 19.7549 30.0248 21.1431C29.3109 20.7267 28.5541 20.3688 27.7711 20.0881C26.1426 19.5359 24.4088 19.2675 22.7045 19.3724C25.228 19.5143 27.6593 20.3195 29.676 21.6429C28.995 21.2449 28.2744 20.9087 27.5276 20.6434C25.9747 20.1221 24.3232 19.8661 22.7045 19.974C25.103 20.1159 27.4092 20.884 29.3207 22.1426C28.6726 21.7693 27.9915 21.4486 27.2842 21.1987C25.8103 20.7082 24.2409 20.4707 22.7078 20.5755C24.9811 20.7174 27.1624 21.4485 28.9719 22.6454C28.3567 22.2907 27.7118 21.9883 27.0407 21.7539C25.6424 21.2943 24.1586 21.0722 22.7078 21.1771C24.8561 21.319 26.9157 22.0161 28.62 23.1482C28.0409 22.8151 27.429 22.5313 26.7973 22.3123C25.478 21.8804 24.0798 21.6737 22.7111 21.7786C25.4418 21.9699 28.0112 23.102 29.8108 24.9066C31.6104 26.7082 32.6568 29.1204 32.637 31.5636C32.6535 34.0068 31.6072 36.4191 29.8076 38.2206C28.008 40.0253 25.4385 41.1573 22.7078 41.3486C24.0764 41.4535 25.4747 41.2468 26.7973 40.818C27.4191 40.599 28.0145 40.3214 28.5836 39.9975C26.886 41.1142 24.843 41.8052 22.7078 41.9471C24.1586 42.0551 25.6424 41.8299 27.0407 41.3702C27.6987 41.1389 28.3304 40.8427 28.9358 40.4972C27.1362 41.6787 24.968 42.4036 22.7078 42.5455C24.2442 42.6535 25.8102 42.4129 27.2874 41.9224C27.9816 41.6756 28.6495 41.361 29.2877 40.997C27.3828 42.2432 25.0931 43.0052 22.7111 43.144C24.3298 43.2489 25.9813 42.9959 27.5342 42.4746C28.2678 42.2155 28.9686 41.8854 29.6397 41.4967C27.6328 42.8046 25.2181 43.6036 22.7111 43.7455C24.4153 43.8504 26.1491 43.5821 27.7777 43.0299C28.5476 42.7553 29.2877 42.4067 29.9885 41.9995C27.8763 43.3723 25.3398 44.2052 22.7078 44.3471C24.4942 44.452 26.3136 44.1681 28.0211 43.5882C28.8271 43.2982 29.6003 42.9311 30.3372 42.5054C28.1231 43.9429 25.4615 44.8098 22.7078 44.9517C24.5798 45.0566 26.4814 44.7573 28.2646 44.1465C29.1068 43.8411 29.9195 43.4556 30.6894 43.0083C28.3699 44.5075 25.5865 45.4113 22.7078 45.5532C24.662 45.6581 26.6492 45.3435 28.5114 44.7018C29.3931 44.3841 30.2386 43.9799 31.0413 43.5111C28.6199 45.0751 25.7115 46.0159 22.7078 46.1548C24.7476 46.2596 26.8169 45.9296 28.7547 45.2571C29.6726 44.9239 30.5544 44.5044 31.3901 44.0139C28.8634 45.6427 25.8333 46.6175 22.7045 46.7563C24.8266 46.8612 26.9782 46.5157 28.9983 45.8124C29.9524 45.4638 30.8702 45.0257 31.7421 44.5167C29.1134 46.2072 25.9584 47.219 22.7045 47.3578C24.9121 47.4627 27.1459 47.1018 29.2416 46.3707C30.2352 46.0098 31.1861 45.5532 32.0908 45.0196C29.3568 46.7748 26.0801 47.8206 22.7045 47.9594C24.9944 48.0643 27.317 47.6879 29.4884 46.9229C30.5182 46.5465 31.5052 46.0715 32.4462 45.5193C29.6102 47.3393 26.2083 48.4221 22.7078 48.5578C25.0831 48.6627 27.4848 48.271 29.7351 47.4782C30.8011 47.0864 31.8243 46.5928 32.7981 46.0221C29.8569 47.907 26.3333 49.0236 22.7078 49.1624C25.1654 49.2673 27.6527 48.8571 29.9787 48.0334C31.0841 47.6293 32.1435 47.1172 33.1503 46.5249C30.1037 48.4714 26.4584 49.6252 22.7078 49.7609C25.2509 49.8658 27.8204 49.4401 30.2254 48.5887C31.3671 48.1692 32.4626 47.6386 33.5023 47.0247C30.3537 49.036 26.5834 50.2237 22.7078 50.3625C25.3332 50.4674 27.9882 50.0262 30.4688 49.1439C31.6466 48.709 32.7784 48.163 33.8542 47.5275C30.6004 49.6005 26.7084 50.8252 22.7078 50.964C25.4187 51.0689 28.1559 50.6123 30.7156 49.6992" fill="white"/>
</svg>
