<svg width="254" height="58" viewBox="0 0 254 58" fill="none" xmlns="http://www.w3.org/2000/svg">
<path d="M139.206 11.5317C139.196 11.4061 139.177 11.2813 139.149 11.1584C139.116 11.0119 139.052 10.8747 138.961 10.7565C138.851 10.619 138.711 10.5092 138.553 10.4352C138.33 10.3387 138.089 10.2942 137.848 10.3051C137.394 10.3051 137.05 10.4274 136.812 10.6732C136.575 10.9191 136.458 11.3028 136.458 11.8244V15.0438C136.458 15.5642 136.577 15.9544 136.817 16.195C137.058 16.4357 137.412 16.5645 137.878 16.5645C138.115 16.5755 138.351 16.531 138.568 16.4344C138.719 16.3601 138.849 16.2499 138.95 16.1131C139.038 15.9902 139.1 15.8497 139.131 15.7007C139.161 15.5651 139.184 15.4279 139.2 15.2897C139.22 15.0829 139.368 14.9788 139.638 14.9788C139.756 14.9699 139.873 15.004 139.969 15.0751C140.041 15.1401 140.078 15.2754 140.078 15.4822C140.08 15.7387 140.026 15.9924 139.92 16.225C139.816 16.4576 139.663 16.664 139.472 16.8298C139.261 17.0102 139.017 17.1468 138.755 17.2318C138.45 17.3317 138.13 17.3804 137.81 17.3761C137.516 17.3778 137.224 17.3362 136.942 17.2526C136.679 17.1753 136.436 17.0383 136.232 16.8519C136.02 16.6515 135.855 16.4041 135.751 16.1287C135.623 15.782 135.563 15.413 135.573 15.0425V11.8218C135.563 11.4514 135.623 11.0824 135.751 10.7357C135.856 10.4594 136.022 10.2121 136.237 10.0137C136.443 9.82741 136.688 9.69016 136.952 9.61179C137.234 9.52865 137.526 9.48747 137.82 9.48952C138.139 9.48525 138.457 9.53357 138.762 9.6326C139.02 9.71686 139.261 9.84915 139.472 10.0228C139.661 10.1835 139.814 10.3841 139.92 10.6108C140.027 10.8399 140.08 11.0908 140.078 11.3444C140.078 11.5513 140.041 11.6852 139.969 11.7451C139.872 11.8131 139.755 11.8452 139.638 11.8361C139.363 11.8426 139.22 11.7399 139.206 11.5317Z" fill="white"/>
<path d="M143.326 17.3746C143.025 17.3772 142.725 17.3356 142.436 17.251C142.164 17.1753 141.914 17.0336 141.706 16.838C141.499 16.6424 141.34 16.3986 141.244 16.1272C141.12 15.7795 141.061 15.411 141.071 15.041V11.8216C141.061 11.4516 141.12 11.0831 141.244 10.7354C141.341 10.4643 141.499 10.2208 141.707 10.0253C141.914 9.82978 142.164 9.68791 142.436 9.61154C143.014 9.4485 143.624 9.4485 144.202 9.61154C144.469 9.68896 144.715 9.82628 144.923 10.0135C145.137 10.2113 145.302 10.4589 145.404 10.7354C145.527 11.0833 145.586 11.4517 145.576 11.8216V15.041C145.586 15.4108 145.527 15.7793 145.404 16.1272C145.302 16.4039 145.137 16.6518 144.923 16.8504C144.714 17.0367 144.468 17.1735 144.202 17.251C143.917 17.3342 143.622 17.3758 143.326 17.3746ZM144.7 11.8216C144.7 11.3013 144.573 10.9175 144.336 10.6704C144.098 10.4232 143.754 10.3023 143.319 10.3023C142.885 10.3023 142.557 10.4245 142.31 10.6704C142.064 10.9162 141.949 11.3 141.949 11.8216V15.041C141.949 15.5613 142.07 15.9515 142.31 16.1922C142.55 16.4328 142.887 16.5616 143.319 16.5616C143.751 16.5616 144.089 16.438 144.336 16.1922C144.582 15.9463 144.7 15.5626 144.7 15.041V11.8216Z" fill="white"/>
<path d="M147.339 17.3096C147.243 17.31 147.148 17.2825 147.067 17.2303C147.026 17.2053 146.993 17.1697 146.971 17.1271C146.949 17.0846 146.938 17.0366 146.94 16.9883V9.79891C146.937 9.75032 146.949 9.70206 146.973 9.66018C146.997 9.6183 147.033 9.58466 147.076 9.56347C147.169 9.51349 147.273 9.48801 147.378 9.48932C147.484 9.48779 147.588 9.51328 147.682 9.56347C147.724 9.58492 147.76 9.61863 147.784 9.66044C147.808 9.70226 147.82 9.75038 147.818 9.79891V16.4966H150.673C150.717 16.4945 150.761 16.5057 150.799 16.5288C150.838 16.5519 150.868 16.586 150.888 16.6267C150.932 16.7123 150.956 16.808 150.955 16.9051C150.956 17.0017 150.933 17.097 150.888 17.1821C150.868 17.2229 150.838 17.2569 150.799 17.28C150.761 17.3031 150.717 17.3143 150.673 17.3122L147.339 17.3096Z" fill="white"/>
<path d="M152.659 13.02H154.289C154.334 13.0178 154.378 13.0274 154.417 13.0479C154.456 13.0685 154.49 13.0992 154.514 13.1371C154.567 13.2161 154.594 13.3096 154.593 13.405C154.592 13.4925 154.567 13.5779 154.519 13.6509C154.495 13.6898 154.46 13.7213 154.42 13.7421C154.38 13.7629 154.334 13.7723 154.289 13.7692H152.659V16.5009H155.899C155.945 16.5 155.989 16.5116 156.029 16.5345C156.069 16.5574 156.101 16.5907 156.124 16.631C156.178 16.7188 156.205 16.8212 156.202 16.9249C156.203 17.0211 156.178 17.1156 156.129 17.1981C156.105 17.2377 156.071 17.27 156.031 17.2915C155.99 17.313 155.945 17.323 155.899 17.3204H152.177C152.082 17.321 151.988 17.2935 151.907 17.241C151.866 17.2163 151.833 17.1807 151.81 17.1381C151.788 17.0955 151.777 17.0474 151.78 16.9991V9.80966C151.777 9.76143 151.787 9.71336 151.81 9.67086C151.832 9.62836 151.866 9.59309 151.907 9.56901C151.988 9.51654 152.082 9.489 152.177 9.48967H155.899C155.945 9.48705 155.99 9.49702 156.031 9.51854C156.071 9.54005 156.105 9.57231 156.129 9.61194C156.178 9.69439 156.203 9.78895 156.202 9.8851C156.205 9.98882 156.178 10.0912 156.124 10.1791C156.101 10.2182 156.067 10.2502 156.028 10.2719C155.988 10.2936 155.944 10.3042 155.899 10.3027H152.659V13.02Z" fill="white"/>
<path d="M160.539 11.5315C160.513 11.1987 160.379 10.8844 160.158 10.6392C159.944 10.4146 159.611 10.3023 159.159 10.3023C158.727 10.3023 158.397 10.4245 158.15 10.6704C157.904 10.9162 157.791 11.3 157.791 11.8216V15.041C157.791 15.5613 157.91 15.9516 158.15 16.1922C158.39 16.4328 158.727 16.5616 159.159 16.5616C159.591 16.5616 159.929 16.438 160.176 16.1922C160.422 15.9463 160.542 15.5626 160.542 15.041V13.951H159.298C159.254 13.9536 159.21 13.9446 159.171 13.9247C159.131 13.9049 159.097 13.8749 159.073 13.8378C159.02 13.7618 158.993 13.6707 158.994 13.5776C158.993 13.4847 159.021 13.3938 159.073 13.3175C159.097 13.2796 159.131 13.2489 159.17 13.2283C159.209 13.2078 159.253 13.1982 159.298 13.2004H161.116C161.159 13.1978 161.201 13.2057 161.24 13.2233C161.279 13.241 161.314 13.2679 161.341 13.3019C161.392 13.367 161.42 13.4483 161.42 13.5321V15.0397C161.43 15.4097 161.371 15.7782 161.247 16.1259C161.145 16.4025 160.98 16.6504 160.766 16.8491C160.558 17.0357 160.311 17.1726 160.045 17.2497C159.467 17.4145 158.856 17.4145 158.279 17.2497C158.014 17.1733 157.769 17.0364 157.563 16.8491C157.351 16.6495 157.188 16.4018 157.087 16.1259C156.964 15.778 156.905 15.4095 156.915 15.0397V11.8216C156.905 11.4517 156.964 11.0833 157.087 10.7354C157.184 10.4654 157.342 10.2228 157.548 10.0275C157.754 9.83215 158.003 9.6896 158.273 9.61155C158.864 9.44335 159.489 9.44876 160.077 9.62716C160.339 9.70925 160.583 9.84169 160.797 10.0174C160.993 10.1805 161.15 10.3868 161.257 10.621C161.367 10.8656 161.422 11.1322 161.42 11.4014C161.428 11.4645 161.421 11.5286 161.401 11.5888C161.381 11.649 161.348 11.7037 161.304 11.7487C161.209 11.8153 161.095 11.8474 160.98 11.8398C160.875 11.8427 160.771 11.819 160.678 11.7708C160.636 11.7474 160.601 11.7128 160.576 11.6707C160.552 11.6286 160.539 11.5805 160.539 11.5315Z" fill="white"/>
<path d="M162.66 9.79891C162.658 9.75038 162.67 9.70226 162.694 9.66044C162.718 9.61863 162.754 9.58492 162.796 9.56347C162.89 9.51328 162.994 9.48779 163.1 9.48932C163.205 9.48801 163.309 9.51349 163.402 9.56347C163.445 9.58466 163.481 9.6183 163.505 9.66018C163.529 9.70206 163.541 9.75032 163.538 9.79891V16.9883C163.541 17.0377 163.529 17.0867 163.505 17.1295C163.481 17.1724 163.445 17.2073 163.402 17.2303C163.31 17.2839 163.206 17.3113 163.1 17.3096C162.994 17.3112 162.889 17.2838 162.796 17.2303C162.754 17.2073 162.718 17.1724 162.694 17.1295C162.67 17.0867 162.658 17.0377 162.66 16.9883V9.79891Z" fill="white"/>
<path d="M167.145 17.3746C166.844 17.3771 166.544 17.3355 166.255 17.251C165.99 17.1746 165.745 17.0377 165.54 16.8504C165.328 16.6504 165.165 16.4028 165.063 16.1272C164.94 15.7793 164.882 15.4108 164.892 15.041V11.8216C164.882 11.4517 164.94 11.0833 165.063 10.7354C165.165 10.46 165.328 10.2127 165.54 10.0135C165.745 9.82534 165.99 9.68784 166.255 9.61154C166.833 9.4485 167.443 9.4485 168.021 9.61154C168.288 9.68866 168.535 9.826 168.743 10.0135C168.957 10.2114 169.122 10.459 169.223 10.7354C169.347 11.0831 169.406 11.4516 169.396 11.8216V15.041C169.406 15.411 169.347 15.7795 169.223 16.1272C169.122 16.4038 168.957 16.6517 168.743 16.8504C168.534 17.037 168.288 17.1738 168.021 17.251C167.736 17.3344 167.441 17.376 167.145 17.3746ZM168.525 11.8216C168.525 11.3013 168.397 10.9175 168.159 10.6704C167.92 10.4232 167.577 10.3023 167.142 10.3023C166.707 10.3023 166.38 10.4245 166.133 10.6704C165.887 10.9162 165.773 11.3 165.773 11.8216V15.041C165.773 15.5613 165.893 15.9515 166.133 16.1922C166.373 16.4328 166.71 16.5616 167.142 16.5616C167.574 16.5616 167.912 16.438 168.159 16.1922C168.405 15.9463 168.525 15.5626 168.525 15.041V11.8216Z" fill="white"/>
<path d="M175.047 9.48979C175.347 9.48696 175.647 9.52813 175.936 9.61207C176.203 9.68948 176.449 9.8268 176.657 10.014C176.871 10.2116 177.036 10.4592 177.137 10.7359C177.261 11.0836 177.32 11.4521 177.31 11.8221V14.9778C177.32 15.3478 177.261 15.7163 177.137 16.0639C177.036 16.3406 176.871 16.5883 176.657 16.7859C176.449 16.9731 176.203 17.1104 175.936 17.1878C175.647 17.2718 175.347 17.3129 175.047 17.3101H173.197C173.092 17.3155 172.989 17.2812 172.908 17.2138C172.876 17.1889 172.849 17.1567 172.83 17.1198C172.811 17.0829 172.8 17.0421 172.799 17.0005V9.79938C172.801 9.75759 172.811 9.71669 172.83 9.6796C172.849 9.6425 172.876 9.61012 172.908 9.58475C172.99 9.51828 173.092 9.48452 173.197 9.48979H175.047ZM173.672 10.3028V16.4971H175.042C175.472 16.4971 175.804 16.3748 176.058 16.1277C176.312 15.8805 176.424 15.4981 176.424 14.9778V11.8221C176.424 11.3018 176.297 10.9181 176.058 10.6709C175.819 10.4238 175.476 10.3028 175.042 10.3028H173.672Z" fill="white"/>
<path d="M179.54 13.02H181.169C181.213 13.018 181.257 13.0277 181.296 13.0483C181.335 13.0688 181.368 13.0994 181.393 13.1371C181.445 13.2158 181.473 13.3095 181.471 13.405C181.471 13.4926 181.445 13.5782 181.398 13.6509C181.373 13.6896 181.339 13.7209 181.299 13.7417C181.259 13.7625 181.214 13.772 181.169 13.7692H179.537V16.5009H182.778C182.823 16.5 182.868 16.5116 182.907 16.5345C182.947 16.5574 182.98 16.5907 183.002 16.631C183.057 16.7187 183.084 16.8211 183.081 16.9249C183.082 17.0213 183.057 17.116 183.008 17.1981C182.983 17.2377 182.949 17.27 182.909 17.2915C182.868 17.313 182.823 17.323 182.778 17.3204H179.06C178.963 17.3208 178.869 17.2933 178.788 17.241C178.747 17.2163 178.714 17.1807 178.691 17.1381C178.669 17.0955 178.658 17.0474 178.661 16.9991V9.80966C178.658 9.76143 178.668 9.71336 178.691 9.67086C178.713 9.62836 178.747 9.59309 178.788 9.56901C178.869 9.51677 178.963 9.48925 179.06 9.48967H182.78C182.826 9.48705 182.871 9.49702 182.911 9.51854C182.952 9.54005 182.986 9.57231 183.01 9.61194C183.059 9.69401 183.085 9.78874 183.084 9.8851C183.087 9.98895 183.059 10.0913 183.005 10.1791C182.981 10.2182 182.948 10.2502 182.909 10.2719C182.869 10.2936 182.825 10.3042 182.78 10.3027H179.54V13.02Z" fill="white"/>
<path d="M186.02 9.79856C186.021 9.75817 186.03 9.71835 186.046 9.68148C186.062 9.64461 186.085 9.61144 186.114 9.58393C186.15 9.55089 186.191 9.52544 186.236 9.50913C186.281 9.49281 186.329 9.48595 186.376 9.48898H188.351C188.644 9.48676 188.937 9.52795 189.219 9.61125C189.487 9.68729 189.734 9.82805 189.939 10.0218C190.143 10.2155 190.299 10.4565 190.394 10.7247C190.518 11.0684 190.576 11.433 190.567 11.7992V11.898C190.576 12.2629 190.518 12.6263 190.394 12.9686C190.292 13.243 190.127 13.4887 189.914 13.6853C189.705 13.873 189.459 14.0115 189.192 14.0911C188.904 14.1798 188.604 14.2237 188.302 14.2212H186.892V16.9919C186.894 17.0404 186.883 17.0886 186.859 17.1309C186.836 17.1732 186.802 17.2079 186.76 17.2312C186.667 17.2829 186.563 17.31 186.457 17.31C186.351 17.31 186.247 17.2829 186.154 17.2312C186.111 17.2083 186.076 17.1733 186.051 17.1305C186.027 17.0876 186.016 17.0387 186.018 16.9893L186.02 9.79856ZM186.898 10.302V13.4681H188.309C188.741 13.4681 189.08 13.3432 189.325 13.0934C189.569 12.845 189.691 12.4626 189.691 11.9488V11.8187C189.691 11.2984 189.564 10.9146 189.325 10.6675C189.086 10.4203 188.743 10.2994 188.309 10.2994L186.898 10.302Z" fill="white"/>
<path d="M191.559 9.79888C191.559 9.76025 191.566 9.72198 191.581 9.68627C191.595 9.65056 191.616 9.6181 191.643 9.59075C191.703 9.52735 191.786 9.4909 191.873 9.48929H193.779C194.078 9.48797 194.377 9.52378 194.668 9.59596C194.936 9.66078 195.189 9.78071 195.41 9.94847C195.629 10.121 195.802 10.3474 195.912 10.6067C196.042 10.9306 196.104 11.279 196.094 11.6291C196.1 11.9174 196.059 12.2048 195.974 12.4798C195.903 12.702 195.791 12.9085 195.645 13.0886C195.507 13.2558 195.338 13.3941 195.148 13.4957C194.956 13.5991 194.75 13.6731 194.537 13.7155L196.084 16.7216C196.11 16.7668 196.125 16.8184 196.126 16.8712C196.124 16.9343 196.108 16.9961 196.079 17.0519C196.05 17.1076 196.009 17.1558 195.959 17.1925C195.86 17.2802 195.734 17.3295 195.603 17.3317C195.56 17.3321 195.516 17.3227 195.477 17.304C195.437 17.2853 195.402 17.2579 195.373 17.2237C195.308 17.149 195.252 17.0664 195.206 16.9779L193.639 13.8495H192.437V16.9948C192.439 17.0442 192.427 17.0932 192.403 17.136C192.379 17.1789 192.344 17.2138 192.301 17.2367C192.209 17.2904 192.104 17.3178 191.998 17.3161C191.892 17.3177 191.787 17.2903 191.695 17.2367C191.652 17.2138 191.617 17.1789 191.592 17.136C191.568 17.0932 191.557 17.0442 191.559 16.9948V9.79888ZM192.437 10.3023V13.0938H193.785C194.159 13.1122 194.528 12.9993 194.831 12.7738C195.095 12.5596 195.227 12.1993 195.227 11.6928C195.227 11.1864 195.095 10.8295 194.831 10.6223C194.528 10.3967 194.159 10.2838 193.785 10.3023H192.437Z" fill="white"/>
<path d="M199.357 17.3746C199.056 17.3772 198.757 17.3356 198.467 17.251C198.195 17.1753 197.945 17.0336 197.737 16.838C197.53 16.6424 197.372 16.3986 197.275 16.1272C197.151 15.7795 197.093 15.411 197.103 15.041V11.8216C197.093 11.4516 197.151 11.0831 197.275 10.7354C197.372 10.4643 197.531 10.2208 197.738 10.0253C197.945 9.82978 198.195 9.68791 198.467 9.61154C199.045 9.4485 199.656 9.4485 200.234 9.61154C200.5 9.68896 200.746 9.82628 200.954 10.0135C201.169 10.2113 201.334 10.4589 201.436 10.7354C201.559 11.0833 201.617 11.4517 201.607 11.8216V15.041C201.617 15.4108 201.559 15.7793 201.436 16.1272C201.333 16.4039 201.168 16.6518 200.954 16.8504C200.746 17.0367 200.5 17.1735 200.234 17.251C199.948 17.3342 199.653 17.3758 199.357 17.3746ZM200.737 11.8216C200.737 11.3013 200.61 10.9175 200.371 10.6704C200.132 10.4232 199.79 10.3023 199.354 10.3023C198.918 10.3023 198.586 10.4245 198.345 10.6704C198.105 10.9162 197.984 11.3 197.984 11.8216V15.041C197.984 15.5613 198.112 15.9515 198.345 16.1922C198.579 16.4328 198.922 16.5616 199.354 16.5616C199.786 16.5616 200.117 16.438 200.371 16.1922C200.625 15.9463 200.737 15.5626 200.737 15.041V11.8216Z" fill="white"/>
<path d="M202.971 9.80966C202.968 9.76143 202.979 9.71336 203.001 9.67086C203.024 9.62836 203.057 9.59309 203.098 9.56901C203.18 9.51677 203.274 9.48925 203.37 9.48967H207.055C207.101 9.48705 207.146 9.49702 207.186 9.51854C207.227 9.54005 207.261 9.57231 207.285 9.61194C207.334 9.69401 207.36 9.78874 207.359 9.8851C207.362 9.98895 207.334 10.0913 207.28 10.1791C207.256 10.2182 207.223 10.2502 207.184 10.2719C207.144 10.2936 207.1 10.3042 207.055 10.3027H203.849V13.02H205.481C205.525 13.018 205.568 13.0277 205.608 13.0483C205.647 13.0688 205.68 13.0994 205.704 13.1371C205.757 13.2158 205.785 13.3095 205.783 13.405C205.783 13.4924 205.758 13.5778 205.711 13.6509C205.686 13.6898 205.652 13.7213 205.611 13.7421C205.571 13.7629 205.526 13.7723 205.481 13.7692H203.849V17.0004C203.851 17.0489 203.84 17.0971 203.816 17.139C203.792 17.1808 203.756 17.2145 203.713 17.2358C203.62 17.2858 203.516 17.3113 203.411 17.31C203.305 17.3115 203.201 17.286 203.107 17.2358C203.065 17.2142 203.029 17.1805 203.005 17.1387C202.981 17.0969 202.969 17.0489 202.971 17.0004V9.80966Z" fill="white"/>
<path d="M208.997 13.02H210.627C210.671 13.0178 210.715 13.0274 210.755 13.0479C210.794 13.0685 210.828 13.0992 210.852 13.1371C210.904 13.2161 210.932 13.3096 210.931 13.405C210.931 13.4926 210.905 13.5782 210.857 13.6509C210.833 13.6898 210.798 13.7213 210.758 13.7421C210.717 13.7629 210.672 13.7723 210.627 13.7692H208.997V16.5009H212.237C212.283 16.5 212.327 16.5116 212.367 16.5345C212.406 16.5574 212.439 16.5907 212.462 16.631C212.516 16.7187 212.544 16.8211 212.541 16.9249C212.541 17.0212 212.516 17.1158 212.467 17.1981C212.443 17.2377 212.409 17.27 212.369 17.2915C212.328 17.313 212.283 17.323 212.237 17.3204H208.517C208.42 17.3208 208.326 17.2933 208.245 17.241C208.204 17.2163 208.171 17.1807 208.148 17.1381C208.126 17.0955 208.115 17.0474 208.118 16.9991V9.80966C208.115 9.76143 208.125 9.71336 208.148 9.67086C208.17 9.62836 208.204 9.59309 208.245 9.56901C208.326 9.51677 208.42 9.48925 208.517 9.48967H212.237C212.283 9.48705 212.328 9.49702 212.369 9.51854C212.409 9.54005 212.443 9.57231 212.467 9.61194C212.516 9.69426 212.541 9.78882 212.541 9.8851C212.544 9.98895 212.516 10.0913 212.462 10.1791C212.439 10.2182 212.405 10.2502 212.366 10.2719C212.326 10.2936 212.282 10.3042 212.237 10.3027H208.997V13.02Z" fill="white"/>
<path d="M215.211 16.5619C215.589 16.5813 215.962 16.4659 216.266 16.2354C216.531 16.0169 216.664 15.6839 216.664 15.2338C216.681 14.9303 216.591 14.6307 216.41 14.3896C216.234 14.1747 216.018 13.9978 215.775 13.8693C215.508 13.7287 215.233 13.607 214.95 13.5051C214.661 13.4022 214.385 13.2679 214.124 13.1044C213.872 12.9453 213.656 12.7339 213.489 12.484C213.304 12.1739 213.215 11.8138 213.235 11.4511C213.222 11.1134 213.296 10.7781 213.448 10.4781C213.58 10.2323 213.768 10.0229 213.997 9.86808C214.223 9.7169 214.475 9.60975 214.739 9.55199C215 9.49296 215.266 9.46244 215.533 9.46094C215.734 9.46184 215.935 9.47618 216.134 9.50386C216.334 9.53026 216.532 9.57377 216.725 9.63394C216.887 9.68194 217.041 9.75569 217.18 9.85247C217.234 9.88573 217.278 9.93196 217.31 9.98709C217.342 10.0422 217.36 10.1045 217.363 10.1686C217.355 10.279 217.321 10.3858 217.263 10.4794C217.238 10.5336 217.199 10.5794 217.15 10.6115C217.101 10.6436 217.044 10.6605 216.986 10.6603C216.914 10.6575 216.844 10.6355 216.782 10.5965C216.709 10.5536 216.618 10.5081 216.51 10.4573C216.382 10.4005 216.249 10.3539 216.114 10.3182C215.924 10.2716 215.729 10.2502 215.533 10.2544C215.349 10.2533 215.165 10.2729 214.984 10.3129C214.825 10.3473 214.673 10.4107 214.536 10.5003C214.406 10.586 214.3 10.7036 214.227 10.8424C214.147 11.0032 214.107 11.1821 214.111 11.3627C214.104 11.492 214.123 11.6213 214.167 11.7428C214.211 11.8643 214.278 11.9754 214.366 12.069C214.55 12.2511 214.766 12.3978 215.001 12.5022C215.255 12.6205 215.529 12.7324 215.827 12.8391C216.119 12.9445 216.396 13.0884 216.651 13.267C216.911 13.452 217.128 13.6931 217.287 13.9733C217.473 14.3331 217.56 14.7375 217.541 15.144C217.548 15.4859 217.489 15.8258 217.368 16.1443C217.263 16.4113 217.1 16.6508 216.893 16.8455C216.684 17.0342 216.438 17.1745 216.171 17.2565C215.873 17.3477 215.563 17.3916 215.251 17.3866C214.942 17.3906 214.635 17.3489 214.338 17.263C214.091 17.1942 213.855 17.0899 213.636 16.9534C213.468 16.8499 213.318 16.7179 213.193 16.5632C213.101 16.4571 213.046 16.3233 213.035 16.1821C213.042 16.0624 213.086 15.9481 213.162 15.8569C213.19 15.8091 213.229 15.769 213.276 15.74C213.322 15.711 213.375 15.694 213.429 15.6904C213.475 15.6942 213.519 15.7077 213.56 15.7301C213.6 15.7525 213.636 15.7833 213.664 15.8205C213.762 15.9272 213.867 16.0271 213.978 16.1196C214.125 16.2423 214.289 16.3434 214.463 16.4201C214.7 16.5192 214.955 16.5674 215.211 16.5619Z" fill="white"/>
<path d="M218.629 9.79892C218.627 9.75039 218.639 9.70227 218.663 9.66045C218.687 9.61863 218.723 9.58493 218.765 9.56348C218.859 9.51469 218.963 9.48926 219.068 9.48926C219.173 9.48926 219.277 9.51469 219.371 9.56348C219.414 9.58493 219.449 9.61863 219.473 9.66045C219.498 9.70227 219.509 9.75039 219.507 9.79892V16.9883C219.509 17.0377 219.498 17.0867 219.474 17.1296C219.45 17.1724 219.414 17.2073 219.371 17.2303C219.278 17.282 219.174 17.309 219.068 17.309C218.962 17.309 218.858 17.282 218.765 17.2303C218.722 17.2073 218.687 17.1724 218.663 17.1296C218.639 17.0867 218.627 17.0377 218.629 16.9883V9.79892Z" fill="white"/>
<path d="M223.114 17.3746C222.815 17.3766 222.518 17.335 222.231 17.251C221.965 17.1747 221.72 17.0377 221.514 16.8504C221.303 16.6503 221.14 16.4027 221.039 16.1272C220.916 15.7794 220.857 15.4109 220.866 15.041V11.8216C220.857 11.4516 220.916 11.0832 221.039 10.7354C221.14 10.4601 221.303 10.2128 221.514 10.0135C221.72 9.82532 221.965 9.68783 222.231 9.61154C222.809 9.4485 223.419 9.4485 223.997 9.61154C224.264 9.68867 224.51 9.82603 224.718 10.0135C224.932 10.2113 225.097 10.4589 225.199 10.7354C225.322 11.0833 225.38 11.4517 225.371 11.8216V15.041C225.38 15.4108 225.322 15.7793 225.199 16.1272C225.097 16.4039 224.932 16.6518 224.718 16.8504C224.509 17.037 224.263 17.1738 223.997 17.251C223.71 17.3349 223.413 17.3765 223.114 17.3746ZM224.499 11.8216C224.499 11.3013 224.372 10.9175 224.133 10.6704C223.894 10.4232 223.551 10.3023 223.117 10.3023C222.682 10.3023 222.354 10.4245 222.108 10.6704C221.861 10.9162 221.747 11.3 221.747 11.8216V15.041C221.747 15.5613 221.874 15.9515 222.108 16.1922C222.341 16.4328 222.685 16.5616 223.117 16.5616C223.549 16.5616 223.887 16.438 224.133 16.1922C224.38 15.9463 224.499 15.5626 224.499 15.041V11.8216Z" fill="white"/>
<path d="M230.878 17.3102C230.763 17.3112 230.65 17.2717 230.559 17.1983C230.462 17.1184 230.381 17.0182 230.324 16.9044L227.607 11.5217V16.985C227.61 17.0344 227.598 17.0834 227.574 17.1262C227.55 17.1691 227.514 17.204 227.472 17.227C227.379 17.2805 227.274 17.3079 227.168 17.3063C227.062 17.308 226.957 17.2806 226.865 17.227C226.823 17.204 226.787 17.1691 226.763 17.1262C226.739 17.0834 226.727 17.0344 226.729 16.985V9.79951C226.725 9.75107 226.735 9.70245 226.758 9.65967C226.78 9.61689 226.815 9.58184 226.857 9.55886C226.952 9.51055 227.058 9.48689 227.165 9.48992C227.235 9.48636 227.305 9.4972 227.37 9.52178C227.436 9.54636 227.496 9.58419 227.546 9.63301C227.661 9.75973 227.758 9.90198 227.835 10.0558L230.437 15.2667V9.80341C230.435 9.75482 230.446 9.70656 230.471 9.66468C230.495 9.6228 230.53 9.58915 230.573 9.56797C230.666 9.51799 230.77 9.49251 230.876 9.49382C230.981 9.49229 231.086 9.51778 231.179 9.56797C231.222 9.58942 231.257 9.62312 231.282 9.66494C231.306 9.70676 231.317 9.75488 231.315 9.80341V16.9928C231.317 17.0422 231.306 17.0912 231.282 17.134C231.258 17.1769 231.222 17.2118 231.179 17.2348C231.087 17.2865 230.983 17.3125 230.878 17.3102Z" fill="white"/>
<path d="M232.719 17.3102C232.594 17.3085 232.471 17.2735 232.363 17.2087C232.312 17.1851 232.267 17.1469 232.236 17.0985C232.204 17.0501 232.187 16.9936 232.186 16.9355C232.189 16.9065 232.196 16.8781 232.207 16.851L234.339 9.73571C234.355 9.68343 234.382 9.63534 234.418 9.5947C234.454 9.55407 234.498 9.52186 234.548 9.50027C234.652 9.44974 234.766 9.42395 234.882 9.42483C234.998 9.42449 235.113 9.45211 235.217 9.50548C235.265 9.52771 235.308 9.55952 235.344 9.59906C235.38 9.6386 235.408 9.68506 235.426 9.73571L237.558 16.851C237.556 16.863 237.556 16.8754 237.558 16.8874C237.56 16.8999 237.56 16.9126 237.558 16.9251C237.555 16.9828 237.537 17.0387 237.506 17.0867C237.474 17.1348 237.431 17.1733 237.38 17.1983C237.271 17.2698 237.145 17.3085 237.015 17.3102C236.946 17.3123 236.877 17.2957 236.816 17.262C236.788 17.2456 236.763 17.2234 236.743 17.1967C236.723 17.1701 236.709 17.1397 236.702 17.1072L236.242 15.5125H233.493L233.043 17.102C233.022 17.1702 232.978 17.2284 232.918 17.2665C232.859 17.3046 232.789 17.32 232.719 17.3102ZM236.042 14.7749L234.882 10.7516L233.701 14.7749H236.042Z" fill="white"/>
<path d="M238.843 17.3096C238.746 17.31 238.652 17.2825 238.571 17.2303C238.53 17.2055 238.497 17.17 238.474 17.1273C238.452 17.0847 238.441 17.0367 238.444 16.9883V9.79892C238.441 9.75039 238.453 9.70227 238.477 9.66045C238.501 9.61863 238.537 9.58493 238.58 9.56348C238.674 9.51469 238.777 9.48926 238.883 9.48926C238.988 9.48926 239.092 9.51469 239.186 9.56348C239.228 9.58493 239.264 9.61863 239.288 9.66045C239.312 9.70227 239.324 9.75039 239.322 9.79892V16.4966H242.176C242.22 16.4946 242.263 16.5059 242.301 16.529C242.339 16.5521 242.37 16.5861 242.389 16.6267C242.435 16.712 242.458 16.8078 242.458 16.9051C242.459 17.0019 242.435 17.0974 242.389 17.1821C242.37 17.2228 242.339 17.2568 242.301 17.2799C242.263 17.303 242.22 17.3142 242.176 17.3122L238.843 17.3096Z" fill="white"/>
<path d="M244.163 13.02H245.795C245.839 13.018 245.882 13.0277 245.921 13.0483C245.961 13.0688 245.994 13.0994 246.018 13.1371C246.071 13.2158 246.099 13.3095 246.097 13.405C246.097 13.4926 246.071 13.5782 246.023 13.6509C245.999 13.6896 245.965 13.7209 245.925 13.7417C245.884 13.7625 245.84 13.772 245.795 13.7692H244.163V16.5009H247.403C247.449 16.5 247.493 16.5116 247.533 16.5345C247.573 16.5574 247.605 16.5907 247.628 16.631C247.682 16.7187 247.71 16.8211 247.707 16.9249C247.708 17.0213 247.683 17.116 247.633 17.1981C247.609 17.2377 247.575 17.27 247.535 17.2915C247.494 17.313 247.449 17.323 247.403 17.3204H243.687C243.59 17.3208 243.496 17.2933 243.415 17.241C243.374 17.2163 243.341 17.1807 243.318 17.1381C243.296 17.0955 243.285 17.0474 243.288 16.9991V9.80966C243.285 9.76143 243.295 9.71336 243.318 9.67086C243.34 9.62836 243.374 9.59309 243.415 9.56901C243.496 9.51677 243.59 9.48925 243.687 9.48967H247.407C247.453 9.48705 247.498 9.49702 247.538 9.51854C247.579 9.54005 247.613 9.57231 247.637 9.61194C247.686 9.69401 247.712 9.78874 247.711 9.8851C247.714 9.98895 247.686 10.0913 247.632 10.1791C247.608 10.2182 247.575 10.2502 247.536 10.2719C247.496 10.2936 247.452 10.3042 247.407 10.3027H244.167L244.163 13.02Z" fill="white"/>
<path d="M250.382 16.5619C250.76 16.5813 251.133 16.4659 251.438 16.2354C251.703 16.0169 251.835 15.6839 251.835 15.2338C251.853 14.9302 251.762 14.6305 251.581 14.3896C251.405 14.1747 251.189 13.9978 250.946 13.8693C250.679 13.7287 250.404 13.607 250.121 13.5051C249.833 13.402 249.556 13.2677 249.295 13.1044C249.043 12.9453 248.827 12.7339 248.66 12.484C248.475 12.1739 248.387 11.8138 248.406 11.4511C248.393 11.1134 248.467 10.7781 248.619 10.4781C248.752 10.2325 248.94 10.0233 249.168 9.86808C249.395 9.71714 249.646 9.61 249.91 9.55199C250.171 9.49296 250.437 9.46244 250.704 9.46094C250.905 9.46184 251.106 9.47618 251.305 9.50386C251.506 9.53026 251.703 9.57377 251.896 9.63394C252.058 9.68194 252.212 9.75569 252.351 9.85247C252.405 9.88573 252.449 9.93196 252.481 9.98709C252.513 10.0422 252.531 10.1045 252.534 10.1686C252.527 10.279 252.493 10.3857 252.435 10.4794C252.41 10.5334 252.371 10.5791 252.322 10.6111C252.273 10.6431 252.216 10.6602 252.158 10.6603C252.083 10.6595 252.01 10.6379 251.946 10.5978C251.873 10.5549 251.782 10.5094 251.674 10.4586C251.546 10.4018 251.413 10.3552 251.277 10.3195C251.087 10.2729 250.892 10.2515 250.697 10.2557C250.512 10.2546 250.328 10.2743 250.148 10.3143C249.989 10.3486 249.837 10.412 249.699 10.5016C249.57 10.5873 249.464 10.7049 249.391 10.8437C249.311 11.0046 249.271 11.1835 249.276 11.364C249.269 11.4933 249.288 11.6227 249.332 11.7442C249.375 11.8657 249.443 11.9767 249.53 12.0703C249.715 12.2522 249.93 12.3988 250.166 12.5035C250.42 12.6214 250.695 12.7337 250.992 12.8404C251.283 12.9458 251.561 13.0897 251.816 13.2683C252.076 13.4531 252.293 13.6942 252.452 13.9746C252.637 14.3344 252.725 14.7388 252.706 15.1453C252.713 15.4872 252.654 15.8271 252.533 16.1456C252.428 16.4129 252.265 16.6525 252.058 16.8468C251.849 17.0355 251.603 17.1758 251.336 17.2578C251.038 17.349 250.727 17.3929 250.416 17.3879C250.107 17.3919 249.799 17.3502 249.502 17.2643C249.256 17.1957 249.02 17.0915 248.802 16.9547C248.633 16.8515 248.483 16.7195 248.357 16.5645C248.266 16.4582 248.211 16.3244 248.201 16.1834C248.205 16.0646 248.247 15.9504 248.321 15.8582C248.349 15.8104 248.388 15.7703 248.434 15.7413C248.48 15.7123 248.533 15.6953 248.587 15.6917C248.633 15.6955 248.678 15.709 248.718 15.7314C248.759 15.7538 248.794 15.7846 248.823 15.8218C248.921 15.9285 249.025 16.0285 249.136 16.1209C249.284 16.2433 249.447 16.3444 249.622 16.4214C249.863 16.5218 250.122 16.5696 250.382 16.5619Z" fill="white"/>
<path d="M137.9 22.3286C138.201 22.3261 138.5 22.3677 138.79 22.4521C139.056 22.5293 139.302 22.6662 139.51 22.8528C139.724 23.0511 139.889 23.2985 139.992 23.5747C140.115 23.9226 140.173 24.291 140.163 24.6609V27.8179C140.173 28.1873 140.115 28.5553 139.992 28.9027C139.889 29.1795 139.724 29.4274 139.51 29.626C139.302 29.813 139.056 29.9499 138.79 30.0266C138.5 30.1111 138.201 30.1527 137.9 30.1502H136.05C135.946 30.155 135.844 30.1208 135.763 30.0539C135.73 30.0289 135.703 29.9967 135.684 29.9595C135.665 29.9224 135.654 29.8813 135.652 29.8393V22.6395C135.654 22.5975 135.664 22.5563 135.684 22.5192C135.703 22.482 135.73 22.4497 135.763 22.4248C135.844 22.358 135.946 22.3237 136.05 22.3286H137.9ZM136.53 23.1416V29.3372H137.9C138.332 29.3372 138.671 29.214 138.917 28.9678C139.162 28.7215 139.284 28.3382 139.283 27.8179V24.6609C139.283 24.1406 139.161 23.7573 138.917 23.511C138.673 23.2647 138.334 23.1416 137.9 23.1416H136.53Z" fill="white"/>
<path d="M142.655 25.8588H144.285C144.33 25.8567 144.374 25.8666 144.413 25.8873C144.453 25.9081 144.486 25.9391 144.51 25.9772C144.561 26.0539 144.589 26.1445 144.589 26.2373C144.589 26.3253 144.563 26.4112 144.515 26.4845C144.491 26.5232 144.456 26.5544 144.416 26.575C144.375 26.5955 144.33 26.6047 144.285 26.6016H142.655V29.3332H145.895C145.94 29.3315 145.984 29.3419 146.024 29.3634C146.063 29.3849 146.097 29.4166 146.12 29.4555C146.174 29.5434 146.202 29.6457 146.199 29.7494C146.2 29.8457 146.174 29.9403 146.125 30.0226C146.101 30.0625 146.067 30.095 146.027 30.1167C145.986 30.1385 145.941 30.1487 145.895 30.1462H142.175C142.079 30.1462 141.984 30.1182 141.903 30.0655C141.862 30.0415 141.828 30.0062 141.806 29.9637C141.784 29.9212 141.773 29.8731 141.776 29.8249V22.6498C141.773 22.6015 141.784 22.5535 141.806 22.511C141.828 22.4685 141.862 22.4332 141.903 22.4091C141.984 22.3557 142.078 22.3277 142.175 22.3285H145.895C145.941 22.326 145.986 22.3362 146.027 22.3579C146.067 22.3797 146.101 22.4122 146.125 22.4521C146.175 22.5376 146.202 22.6354 146.202 22.735C146.202 22.8346 146.175 22.9324 146.125 23.0179C146.102 23.057 146.069 23.089 146.029 23.1107C145.99 23.1324 145.945 23.143 145.9 23.1415H142.66L142.655 25.8588Z" fill="white"/>
<path d="M150.056 30.1498C149.959 30.1498 149.865 30.1218 149.784 30.0691C149.743 30.0451 149.709 30.0098 149.687 29.9673C149.664 29.9248 149.654 29.8767 149.657 29.8285V22.6391C149.654 22.5905 149.666 22.5423 149.69 22.5005C149.714 22.4586 149.75 22.425 149.793 22.4036C149.886 22.354 149.99 22.3281 150.096 22.3281C150.201 22.3281 150.305 22.354 150.399 22.4036C150.441 22.425 150.477 22.4586 150.501 22.5005C150.525 22.5423 150.537 22.5905 150.535 22.6391V29.3368H153.389C153.433 29.3346 153.477 29.3458 153.515 29.3689C153.552 29.3921 153.583 29.4261 153.602 29.4669C153.647 29.5524 153.671 29.6481 153.671 29.7452C153.671 29.8424 153.647 29.9381 153.602 30.0236C153.583 30.0642 153.552 30.0982 153.514 30.1213C153.476 30.1444 153.433 30.1557 153.389 30.1537L150.056 30.1498Z" fill="white"/>
<path d="M154.728 30.15C154.603 30.1482 154.481 30.1132 154.373 30.0485C154.321 30.0252 154.277 29.987 154.245 29.9386C154.214 29.8902 154.196 29.8335 154.195 29.7754C154.198 29.746 154.205 29.7171 154.216 29.6895L156.348 22.5743C156.365 22.5221 156.392 22.4742 156.428 22.4336C156.464 22.3931 156.508 22.3607 156.558 22.3388C156.662 22.2893 156.776 22.264 156.892 22.2647C157.008 22.2639 157.122 22.2911 157.226 22.344C157.274 22.3664 157.317 22.3983 157.353 22.4378C157.389 22.4773 157.417 22.5237 157.436 22.5743L159.568 29.6895C159.566 29.702 159.566 29.7148 159.568 29.7272C159.57 29.7397 159.57 29.7525 159.568 29.765C159.565 29.8224 159.546 29.878 159.515 29.9258C159.484 29.9736 159.441 30.012 159.39 30.0368C159.281 30.1095 159.154 30.1487 159.024 30.15C158.955 30.1514 158.887 30.1348 158.826 30.1019C158.797 30.085 158.773 30.0625 158.753 30.0357C158.733 30.0088 158.719 29.9783 158.711 29.9458L158.251 28.3523H155.502L155.042 29.9458C155.02 30.0114 154.977 30.0675 154.92 30.1046C154.863 30.1418 154.795 30.1578 154.728 30.15ZM158.052 27.6135L156.892 23.5915L155.711 27.6135H158.052Z" fill="white"/>
<path d="M162.984 30.15C162.859 30.1482 162.737 30.1132 162.629 30.0485C162.577 30.0252 162.533 29.987 162.501 29.9386C162.47 29.8902 162.452 29.8335 162.451 29.7754C162.454 29.746 162.461 29.7171 162.472 29.6895L164.604 22.5743C164.621 22.5221 164.648 22.4742 164.684 22.4336C164.72 22.3931 164.764 22.3607 164.813 22.3388C164.918 22.2893 165.032 22.264 165.148 22.2647C165.263 22.2639 165.378 22.2911 165.482 22.344C165.53 22.3664 165.573 22.3983 165.609 22.4378C165.645 22.4773 165.673 22.5237 165.691 22.5743L167.824 29.6895C167.821 29.702 167.821 29.7148 167.824 29.7272C167.826 29.7397 167.826 29.7525 167.824 29.765C167.82 29.8224 167.802 29.878 167.771 29.9258C167.74 29.9736 167.696 30.012 167.646 30.0368C167.537 30.1095 167.41 30.1487 167.28 30.15C167.211 30.1514 167.143 30.1348 167.082 30.1019C167.053 30.085 167.029 30.0625 167.009 30.0357C166.989 30.0088 166.975 29.9783 166.967 29.9458L166.507 28.3523H163.757L163.297 29.9458C163.276 30.0114 163.233 30.0675 163.176 30.1046C163.119 30.1418 163.051 30.1578 162.984 30.15ZM166.308 27.6135L165.148 23.5915L163.967 27.6135H166.308Z" fill="white"/>
<path d="M172.527 24.3716C172.502 24.0384 172.367 23.7237 172.146 23.478C171.934 23.2534 171.601 23.1411 171.147 23.1411C170.715 23.1411 170.379 23.2642 170.14 23.5105C169.898 23.7564 169.779 24.1401 169.779 24.6604V27.8811C169.779 28.4015 169.898 28.7852 170.14 29.031C170.381 29.2769 170.715 29.4005 171.147 29.4005C171.579 29.4005 171.917 29.2769 172.164 29.031C172.41 28.7852 172.53 28.4015 172.53 27.8811V26.7898H171.286C171.242 26.7918 171.199 26.7827 171.16 26.7631C171.12 26.7436 171.086 26.7143 171.061 26.6779C171.01 26.6011 170.983 26.5105 170.983 26.4178C170.983 26.325 171.01 26.2344 171.061 26.1576C171.085 26.1195 171.119 26.0885 171.158 26.0678C171.198 26.047 171.242 26.0372 171.286 26.0392H173.104C173.147 26.0367 173.19 26.0445 173.229 26.0622C173.268 26.0798 173.302 26.1067 173.329 26.1407C173.381 26.2058 173.408 26.2872 173.408 26.3709V27.8798C173.418 28.2498 173.359 28.6183 173.235 28.966C173.134 29.2427 172.969 29.4904 172.755 29.6879C172.547 29.8754 172.3 30.0128 172.033 30.0899C171.455 30.2529 170.845 30.2529 170.267 30.0899C169.995 30.0132 169.745 29.8712 169.538 29.6757C169.331 29.4802 169.173 29.2369 169.076 28.966C168.952 28.6183 168.894 28.2498 168.903 27.8798V24.6604C168.894 24.2904 168.952 23.9219 169.076 23.5743C169.177 23.299 169.34 23.0518 169.551 22.8523C169.756 22.6659 169.999 22.529 170.262 22.4517C170.852 22.2818 171.477 22.2872 172.065 22.4673C172.327 22.5492 172.572 22.6817 172.787 22.8575C172.982 23.0218 173.139 23.2284 173.247 23.4624C173.356 23.7073 173.411 23.9737 173.408 24.2429C173.416 24.306 173.409 24.3702 173.39 24.4305C173.37 24.4909 173.337 24.5459 173.294 24.5915C173.198 24.6571 173.084 24.6891 172.97 24.6825C172.864 24.6858 172.76 24.6616 172.666 24.6123C172.623 24.589 172.588 24.5542 172.564 24.5118C172.539 24.4694 172.527 24.4209 172.527 24.3716Z" fill="white"/>
<path d="M174.91 22.639C174.91 22.5606 174.94 22.4853 174.994 22.4296C175.055 22.3667 175.137 22.3303 175.224 22.3282H177.13C177.43 22.3268 177.728 22.3627 178.019 22.4348C178.288 22.5 178.54 22.6204 178.761 22.7886C178.98 22.9612 179.153 23.1876 179.263 23.4468C179.394 23.7703 179.455 24.1183 179.445 24.4679C179.451 24.7563 179.411 25.0437 179.326 25.3187C179.254 25.5413 179.143 25.7482 178.997 25.9287C178.858 26.0957 178.689 26.2335 178.5 26.3346C178.308 26.4385 178.102 26.5126 177.889 26.5544L179.435 29.5605C179.461 29.6058 179.476 29.6573 179.477 29.7101C179.475 29.7732 179.46 29.8351 179.431 29.8908C179.402 29.9466 179.361 29.9947 179.31 30.0314C179.211 30.1191 179.085 30.1683 178.955 30.1706C178.911 30.1712 178.868 30.162 178.828 30.1436C178.788 30.1252 178.753 30.0979 178.725 30.0639C178.66 29.9887 178.604 29.9062 178.557 29.8181L176.979 26.6832H175.777V29.8285C175.779 29.8776 175.767 29.9263 175.743 29.9689C175.719 30.0115 175.683 30.0463 175.641 30.0691C175.549 30.1232 175.444 30.151 175.338 30.1498C175.232 30.1509 175.127 30.123 175.035 30.0691C174.992 30.0463 174.957 30.0115 174.933 29.9689C174.909 29.9263 174.897 29.8776 174.899 29.8285L174.91 22.639ZM175.788 23.1411V25.9339H177.136C177.511 25.9526 177.88 25.8392 178.182 25.6126C178.446 25.3993 178.58 25.039 178.58 24.5317C178.58 24.0244 178.453 23.6758 178.182 23.4624C177.88 23.2359 177.511 23.1224 177.136 23.1411H175.788Z" fill="white"/>
<path d="M180.793 22.6391C180.791 22.5905 180.803 22.5423 180.827 22.5005C180.851 22.4586 180.887 22.425 180.929 22.4036C181.023 22.354 181.127 22.3281 181.232 22.3281C181.338 22.3281 181.442 22.354 181.535 22.4036C181.578 22.4248 181.614 22.4585 181.638 22.5003C181.662 22.5422 181.674 22.5905 181.671 22.6391V29.8285C181.673 29.8777 181.661 29.9264 181.637 29.969C181.613 30.0116 181.578 30.0463 181.535 30.0691C181.443 30.122 181.338 30.1497 181.232 30.1497C181.126 30.1497 181.022 30.122 180.929 30.0691C180.887 30.0463 180.851 30.0116 180.827 29.969C180.803 29.9264 180.791 29.8777 180.793 29.8285V22.6391Z" fill="white"/>
<path d="M186.481 27.2481C186.444 27.3261 186.388 27.3926 186.318 27.4406C186.263 27.4748 186.2 27.4933 186.136 27.4939C186.077 27.4926 186.019 27.4741 185.969 27.4406C185.901 27.391 185.848 27.3247 185.812 27.2481L184.244 24.1666V29.8262C184.246 29.8754 184.234 29.9241 184.21 29.9667C184.186 30.0093 184.151 30.044 184.108 30.0669C184.016 30.1208 183.911 30.1487 183.805 30.1475C183.699 30.1488 183.594 30.121 183.502 30.0669C183.46 30.044 183.424 30.0093 183.4 29.9667C183.376 29.9241 183.364 29.8754 183.366 29.8262V22.7669C183.358 22.7036 183.366 22.6393 183.388 22.5797C183.41 22.52 183.446 22.4668 183.493 22.4248C183.583 22.3595 183.691 22.3257 183.801 22.3285C183.946 22.3231 184.089 22.3748 184.199 22.4729C184.322 22.5957 184.424 22.7386 184.501 22.8957L186.143 26.1164L187.795 22.8957C187.872 22.7385 187.975 22.5956 188.098 22.4729C188.208 22.3745 188.35 22.3229 188.496 22.3285C188.606 22.3263 188.714 22.36 188.803 22.4248C188.85 22.4668 188.886 22.52 188.909 22.5797C188.931 22.6393 188.938 22.7036 188.931 22.7669V29.8288C188.932 29.878 188.921 29.9267 188.897 29.9693C188.873 30.0119 188.837 30.0466 188.795 30.0695C188.702 30.1223 188.598 30.1501 188.492 30.1501C188.385 30.1501 188.281 30.1223 188.188 30.0695C188.146 30.0466 188.11 30.0119 188.086 29.9693C188.062 29.9267 188.051 29.878 188.052 29.8288V24.2121L186.481 27.2481Z" fill="white"/>
<path d="M191.507 25.8588H193.137C193.181 25.8567 193.225 25.8666 193.265 25.8873C193.304 25.9081 193.338 25.9391 193.362 25.9772C193.413 26.0539 193.44 26.1445 193.441 26.2373C193.44 26.3253 193.415 26.4112 193.367 26.4845C193.342 26.5232 193.308 26.5544 193.267 26.575C193.227 26.5955 193.182 26.6047 193.137 26.6016H191.507V29.3332H194.747C194.792 29.3315 194.836 29.3419 194.875 29.3634C194.915 29.3849 194.948 29.4166 194.972 29.4555C195.026 29.5434 195.053 29.6457 195.051 29.7494C195.051 29.8457 195.026 29.9403 194.977 30.0226C194.953 30.0625 194.919 30.095 194.878 30.1167C194.838 30.1385 194.793 30.1487 194.747 30.1462H191.026C190.93 30.1462 190.836 30.1182 190.754 30.0655C190.714 30.0415 190.68 30.0062 190.658 29.9637C190.635 29.9212 190.625 29.8731 190.627 29.8249V22.6498C190.625 22.6015 190.635 22.5535 190.658 22.511C190.68 22.4685 190.714 22.4332 190.754 22.4091C190.835 22.3557 190.93 22.3277 191.026 22.3285H194.747C194.793 22.326 194.838 22.3362 194.878 22.3579C194.919 22.3797 194.953 22.4122 194.977 22.4521C195.027 22.5376 195.053 22.6354 195.053 22.735C195.053 22.8346 195.027 22.9324 194.977 23.0179C194.953 23.057 194.92 23.089 194.881 23.1107C194.841 23.1324 194.797 23.143 194.752 23.1415H191.512L191.507 25.8588Z" fill="white"/>
<path d="M200.355 30.1494C200.239 30.15 200.126 30.1101 200.036 30.0363C199.938 29.9565 199.858 29.8563 199.801 29.7423L197.084 24.361V29.8242C197.086 29.8734 197.074 29.9221 197.05 29.9647C197.026 30.0073 196.991 30.042 196.948 30.0649C196.856 30.1188 196.751 30.1467 196.644 30.1455C196.538 30.1468 196.434 30.119 196.342 30.0649C196.299 30.042 196.264 30.0073 196.24 29.9647C196.216 29.9221 196.204 29.8734 196.206 29.8242V22.6387C196.202 22.5901 196.212 22.5414 196.234 22.4984C196.257 22.4554 196.291 22.4201 196.333 22.3968C196.429 22.3491 196.535 22.3255 196.642 22.3278C196.712 22.3242 196.781 22.3351 196.847 22.3599C196.912 22.3847 196.972 22.4229 197.023 22.4722C197.138 22.5987 197.235 22.741 197.311 22.895L199.914 28.1059V22.6426C199.911 22.5941 199.923 22.5458 199.947 22.5039C199.971 22.462 200.007 22.4284 200.05 22.4072C200.143 22.356 200.247 22.33 200.352 22.3318C200.458 22.3301 200.563 22.3561 200.656 22.4072C200.699 22.4285 200.734 22.4622 200.758 22.504C200.783 22.5459 200.794 22.5941 200.792 22.6426V29.8321C200.794 29.8812 200.782 29.9299 200.758 29.9725C200.734 30.0151 200.698 30.0499 200.656 30.0727C200.564 30.1248 200.46 30.1513 200.355 30.1494Z" fill="white"/>
<path d="M204.269 29.4008C204.647 29.4208 205.02 29.3054 205.324 29.0743C205.589 28.857 205.722 28.524 205.722 28.074C205.74 27.77 205.649 27.4698 205.468 27.2285C205.292 27.0139 205.076 26.8371 204.833 26.7081C204.567 26.5675 204.291 26.4462 204.008 26.3452C203.72 26.2417 203.443 26.107 203.182 25.9433C202.93 25.7845 202.714 25.5731 202.547 25.3228C202.362 25.0129 202.273 24.6527 202.293 24.29C202.28 23.9522 202.354 23.6169 202.506 23.317C202.639 23.0714 202.827 22.8621 203.055 22.7069C203.281 22.5558 203.533 22.4486 203.797 22.3909C204.058 22.3318 204.324 22.3013 204.591 22.2998C204.792 22.3014 204.993 22.3157 205.192 22.3427C205.393 22.3691 205.59 22.4126 205.783 22.4728C205.945 22.5207 206.099 22.5949 206.238 22.6926C206.292 22.7252 206.337 22.7712 206.369 22.8261C206.401 22.8811 206.419 22.9435 206.421 23.0074C206.414 23.1181 206.38 23.2251 206.321 23.3183C206.296 23.3724 206.258 23.4183 206.209 23.4506C206.16 23.4828 206.103 23.5001 206.045 23.5004C205.973 23.4972 205.902 23.4753 205.84 23.4367C205.767 23.3938 205.676 23.3469 205.568 23.2962C205.44 23.2398 205.307 23.1937 205.172 23.1583C204.982 23.1113 204.787 23.0895 204.591 23.0933C204.407 23.0922 204.223 23.1118 204.042 23.1518C203.883 23.1873 203.732 23.2507 203.594 23.3391C203.464 23.425 203.358 23.5432 203.285 23.6825C203.205 23.8434 203.166 24.0223 203.171 24.2028C203.164 24.3321 203.183 24.4615 203.226 24.583C203.27 24.7045 203.338 24.8155 203.425 24.9092C203.611 25.0901 203.826 25.2367 204.06 25.3423C204.314 25.4594 204.589 25.5726 204.886 25.6792C205.178 25.7841 205.455 25.928 205.711 26.1072C205.971 26.2919 206.188 26.5331 206.346 26.8135C206.532 27.1732 206.62 27.5777 206.6 27.9842C206.608 28.326 206.549 28.666 206.427 28.9845C206.323 29.2518 206.16 29.4915 205.952 29.6856C205.744 29.8748 205.497 30.0155 205.23 30.098C204.932 30.1886 204.622 30.2324 204.31 30.2281C204.001 30.2293 203.694 30.1855 203.397 30.098C203.151 30.0288 202.915 29.9246 202.697 29.7884C202.527 29.6836 202.377 29.5493 202.252 29.3917C202.161 29.2857 202.106 29.1524 202.096 29.0118C202.1 28.8926 202.142 28.778 202.215 28.6853C202.238 28.6384 202.272 28.5984 202.314 28.5694C202.357 28.5404 202.406 28.5234 202.457 28.5201C202.508 28.5168 202.559 28.5273 202.604 28.5506C202.65 28.5739 202.689 28.6092 202.717 28.6528C202.815 28.76 202.92 28.8604 203.031 28.9533C203.178 29.0757 203.342 29.1764 203.516 29.2525C203.754 29.3551 204.01 29.4056 204.269 29.4008Z" fill="white"/>
<path d="M211.606 22.6392C211.603 22.5917 211.613 22.5442 211.636 22.5025C211.658 22.4608 211.692 22.4265 211.733 22.4038C211.827 22.3515 211.934 22.3255 212.042 22.3283C212.146 22.3281 212.248 22.354 212.34 22.4038C212.384 22.4242 212.421 22.4575 212.446 22.4995C212.471 22.5414 212.483 22.5901 212.481 22.6392V27.8814C212.491 28.2518 212.43 28.6206 212.303 28.9675C212.202 29.2394 212.039 29.4829 211.829 29.6783C211.618 29.8736 211.365 30.0151 211.091 30.0914C210.502 30.2544 209.882 30.2544 209.293 30.0914C209.025 30.016 208.778 29.8785 208.571 29.6895C208.359 29.4898 208.195 29.2427 208.091 28.9675C207.964 28.6206 207.904 28.2518 207.913 27.8814V22.6392C207.911 22.5907 207.922 22.5425 207.947 22.5006C207.971 22.4588 208.006 22.4251 208.049 22.4038C208.143 22.3542 208.247 22.3283 208.352 22.3283C208.458 22.3283 208.561 22.3542 208.655 22.4038C208.698 22.4251 208.733 22.4588 208.758 22.5006C208.782 22.5425 208.793 22.5907 208.791 22.6392V27.8814C208.791 28.4017 208.915 28.785 209.162 29.0313C209.41 29.2775 209.753 29.4007 210.191 29.4007C210.631 29.4007 210.975 29.2771 211.227 29.0313C211.479 28.7854 211.608 28.4017 211.608 27.8814L211.606 22.6392Z" fill="white"/>
<path d="M214.144 22.639C214.144 22.5606 214.174 22.4853 214.228 22.4296C214.289 22.3667 214.372 22.3303 214.458 22.3282H216.364C216.664 22.3268 216.963 22.3627 217.254 22.4348C217.522 22.5 217.774 22.6204 217.996 22.7886C218.215 22.9612 218.387 23.1876 218.498 23.4468C218.628 23.7703 218.69 24.1183 218.679 24.4679C218.685 24.7563 218.645 25.0437 218.56 25.3187C218.489 25.5413 218.377 25.7482 218.231 25.9287C218.093 26.0957 217.924 26.2335 217.734 26.3346C217.542 26.4385 217.336 26.5126 217.123 26.5544L218.669 29.5605C218.696 29.6058 218.71 29.6573 218.711 29.7101C218.71 29.7732 218.694 29.8351 218.665 29.8908C218.636 29.9466 218.595 29.9947 218.545 30.0314C218.446 30.1191 218.32 30.1683 218.189 30.1706C218.145 30.1712 218.102 30.162 218.062 30.1436C218.023 30.1252 217.987 30.0979 217.959 30.0639C217.894 29.9887 217.838 29.9062 217.791 29.8181L216.213 26.6832H215.011V29.8285C215.013 29.8776 215.001 29.9263 214.977 29.9689C214.953 30.0115 214.918 30.0463 214.875 30.0691C214.783 30.1232 214.679 30.151 214.573 30.1498C214.466 30.1509 214.361 30.123 214.269 30.0691C214.226 30.0463 214.191 30.0115 214.167 29.9689C214.143 29.9263 214.131 29.8776 214.133 29.8285L214.144 22.639ZM215.022 23.1411V25.9339H216.366C216.74 25.9526 217.109 25.8392 217.411 25.6126C217.676 25.3993 217.809 25.039 217.809 24.5317C217.809 24.0244 217.676 23.6758 217.411 23.4624C217.109 23.2359 216.74 23.1224 216.366 23.1411H215.022Z" fill="white"/>
<path d="M219.999 30.15C219.873 30.1483 219.751 30.1134 219.643 30.0485C219.591 30.0249 219.547 29.9867 219.515 29.9383C219.484 29.89 219.466 29.8335 219.465 29.7754C219.469 29.746 219.476 29.7171 219.486 29.6895L221.619 22.5743C221.635 22.5222 221.662 22.4744 221.698 22.4338C221.734 22.3933 221.778 22.3609 221.827 22.3388C221.932 22.2893 222.046 22.264 222.161 22.2647C222.277 22.2639 222.392 22.2911 222.495 22.344C222.544 22.3662 222.587 22.398 222.623 22.4376C222.659 22.4771 222.687 22.5236 222.705 22.5743L224.837 29.6895C224.835 29.702 224.835 29.7148 224.837 29.7272C224.839 29.7397 224.839 29.7525 224.837 29.765C224.834 29.8225 224.816 29.8782 224.785 29.9261C224.754 29.9739 224.71 30.0122 224.659 30.0368C224.55 30.1095 224.423 30.1487 224.293 30.15C224.224 30.1514 224.156 30.1348 224.095 30.1019C224.067 30.085 224.042 30.0625 224.023 30.0357C224.003 30.0088 223.989 29.9783 223.981 29.9458L223.521 28.3523H220.772L220.312 29.9458C220.291 30.0113 220.248 30.0672 220.19 30.1043C220.133 30.1414 220.066 30.1576 219.999 30.15ZM223.321 27.6135L222.161 23.5915L220.981 27.6135H223.321Z" fill="white"/>
<path d="M230.535 22.3286C230.836 22.3262 231.135 22.3678 231.424 22.4522C231.69 22.5297 231.937 22.6665 232.145 22.8528C232.359 23.0512 232.524 23.2986 232.626 23.5748C232.749 23.9227 232.808 24.2911 232.798 24.6609V27.8179C232.808 28.1873 232.749 28.5553 232.626 28.9028C232.524 29.1795 232.359 29.4274 232.145 29.626C231.937 29.8128 231.691 29.9497 231.424 30.0266C231.135 30.111 230.836 30.1526 230.535 30.1502H228.685C228.581 30.1553 228.479 30.121 228.398 30.054C228.365 30.029 228.338 29.9967 228.318 29.9596C228.299 29.9224 228.289 29.8813 228.287 29.8393V22.6395C228.289 22.5975 228.299 22.5564 228.318 22.5192C228.337 22.482 228.365 22.4498 228.398 22.4249C228.479 22.3578 228.581 22.3235 228.685 22.3286H230.535ZM229.165 23.1416V29.3372H230.535C230.967 29.3372 231.306 29.2141 231.551 28.9678C231.797 28.7215 231.919 28.3382 231.916 27.8179V24.6609C231.916 24.1406 231.795 23.7573 231.551 23.511C231.308 23.2647 230.969 23.1416 230.535 23.1416H229.165Z" fill="white"/>
<path d="M235.29 25.8588H236.92C236.964 25.8567 237.009 25.8666 237.048 25.8873C237.087 25.9081 237.121 25.9391 237.145 25.9772C237.196 26.0539 237.224 26.1445 237.224 26.2373C237.223 26.3253 237.198 26.4112 237.15 26.4845C237.125 26.5232 237.091 26.5544 237.051 26.575C237.01 26.5955 236.965 26.6047 236.92 26.6016H235.29V29.3332H238.53C238.575 29.3315 238.619 29.3419 238.659 29.3634C238.698 29.3849 238.731 29.4166 238.755 29.4555C238.809 29.5434 238.836 29.6457 238.834 29.7494C238.834 29.8457 238.809 29.9403 238.76 30.0226C238.736 30.0625 238.702 30.095 238.662 30.1167C238.621 30.1385 238.576 30.1487 238.53 30.1462H234.81C234.713 30.1462 234.619 30.1182 234.538 30.0655C234.497 30.0415 234.463 30.0062 234.441 29.9637C234.418 29.9212 234.408 29.8731 234.411 29.8249V22.6498C234.408 22.6015 234.418 22.5535 234.441 22.511C234.463 22.4685 234.497 22.4332 234.538 22.4091C234.619 22.3557 234.713 22.3277 234.81 22.3285H238.53C238.576 22.326 238.621 22.3362 238.662 22.3579C238.702 22.3797 238.736 22.4122 238.76 22.4521C238.81 22.5376 238.836 22.6354 238.836 22.735C238.836 22.8346 238.81 22.9324 238.76 23.0179C238.737 23.057 238.703 23.089 238.664 23.1107C238.624 23.1324 238.58 23.143 238.535 23.1415H235.295L235.29 25.8588Z" fill="white"/>
<path d="M247.361 30.15C247.236 30.1482 247.114 30.1132 247.006 30.0485C246.954 30.0252 246.91 29.987 246.878 29.9386C246.846 29.8902 246.829 29.8335 246.828 29.7754C246.831 29.746 246.838 29.7171 246.848 29.6895L248.981 22.5743C248.997 22.5221 249.025 22.4742 249.061 22.4336C249.097 22.3931 249.141 22.3607 249.19 22.3388C249.295 22.2893 249.409 22.264 249.524 22.2647C249.64 22.2639 249.755 22.2911 249.859 22.344C249.955 22.3897 250.031 22.4724 250.068 22.5743L252.201 29.6895C252.198 29.702 252.198 29.7148 252.201 29.7272C252.203 29.7397 252.203 29.7525 252.201 29.765C252.197 29.8224 252.179 29.878 252.148 29.9258C252.117 29.9736 252.073 30.012 252.023 30.0368C251.914 30.1095 251.787 30.1487 251.657 30.15C251.588 30.1514 251.519 30.1348 251.458 30.1019C251.402 30.0672 251.36 30.0112 251.343 29.9458L250.884 28.3523H248.134L247.674 29.9458C247.653 30.0113 247.61 30.0672 247.552 30.1043C247.495 30.1414 247.428 30.1576 247.361 30.15ZM250.685 27.6135L249.531 23.5915L248.35 27.6135H250.685Z" fill="white"/>
<path d="M135.653 35.4782C135.654 35.4378 135.663 35.398 135.679 35.3611C135.695 35.3243 135.718 35.2911 135.747 35.2636C135.782 35.2306 135.824 35.2052 135.869 35.1889C135.914 35.1726 135.961 35.1657 136.009 35.1686H137.985C138.278 35.1665 138.57 35.2077 138.851 35.2909C139.113 35.3668 139.355 35.5025 139.558 35.6876C139.767 35.8857 139.928 36.1311 140.028 36.4044C140.15 36.7484 140.209 37.1128 140.2 37.4788V37.5751C140.209 37.9398 140.151 38.3031 140.028 38.6456C139.925 38.9199 139.76 39.1655 139.546 39.3623C139.338 39.5497 139.092 39.6882 138.826 39.7682C138.537 39.8567 138.238 39.9005 137.936 39.8983H136.525V42.6689C136.527 42.7183 136.515 42.7673 136.491 42.8101C136.467 42.853 136.432 42.8879 136.389 42.9109C136.296 42.9626 136.192 42.9896 136.086 42.9896C135.98 42.9896 135.876 42.9626 135.783 42.9109C135.74 42.8879 135.704 42.853 135.68 42.8101C135.656 42.7673 135.645 42.7183 135.647 42.6689L135.653 35.4782ZM136.531 35.9816V39.1477H137.943C138.375 39.1477 138.714 39.0228 138.959 38.7731C139.202 38.5246 139.324 38.1422 139.324 37.6284V37.4983C139.324 36.978 139.197 36.5943 138.959 36.3471C138.722 36.1 138.377 35.979 137.943 35.979L136.531 35.9816Z" fill="white"/>
<path d="M141.035 35.4776C141.035 35.439 141.042 35.4007 141.057 35.365C141.071 35.3293 141.092 35.2968 141.119 35.2695C141.18 35.2061 141.262 35.1696 141.349 35.168H143.255C143.555 35.1667 143.853 35.2025 144.144 35.2747C144.413 35.3395 144.665 35.4594 144.887 35.6272C145.105 35.7998 145.277 36.0262 145.387 36.2854C145.518 36.609 145.581 36.9576 145.57 37.3078C145.576 37.5961 145.536 37.8835 145.451 38.1585C145.379 38.3807 145.268 38.5872 145.122 38.7673C144.983 38.9345 144.815 39.0728 144.625 39.1744C144.433 39.2778 144.227 39.3518 144.014 39.3942L145.56 42.4003C145.587 42.4455 145.601 42.4971 145.602 42.5499C145.6 42.6131 145.584 42.6751 145.555 42.7309C145.526 42.7866 145.485 42.8347 145.434 42.8712C145.336 42.9589 145.21 43.0082 145.08 43.0104C145.036 43.0109 144.993 43.0015 144.953 42.9828C144.913 42.9642 144.878 42.9367 144.85 42.9024C144.784 42.828 144.728 42.7454 144.682 42.6566L143.104 39.5217H141.902V42.667C141.904 42.7164 141.892 42.7654 141.868 42.8082C141.844 42.8511 141.809 42.886 141.766 42.9089C141.673 42.9606 141.569 42.9877 141.463 42.9877C141.357 42.9877 141.253 42.9606 141.16 42.9089C141.117 42.886 141.081 42.8511 141.057 42.8082C141.033 42.7654 141.022 42.7164 141.024 42.667L141.035 35.4776ZM141.913 35.981V38.7725H143.261C143.635 38.7908 144.004 38.6779 144.307 38.4525C144.571 38.2383 144.704 37.878 144.704 37.3715C144.704 36.8651 144.571 36.5082 144.307 36.301C144.004 36.0755 143.635 35.9626 143.261 35.981H141.913Z" fill="white"/>
<path d="M148.676 43.0533C148.375 43.0558 148.076 43.0142 147.786 42.9297C147.521 42.8534 147.277 42.7164 147.071 42.5291C146.859 42.3295 146.696 42.0818 146.594 41.8059C146.471 41.458 146.413 41.0896 146.423 40.7197V37.5003C146.413 37.1304 146.471 36.762 146.594 36.4141C146.696 36.1384 146.859 35.8911 147.071 35.6922C147.276 35.5041 147.521 35.3666 147.786 35.2903C148.364 35.1272 148.975 35.1272 149.553 35.2903C149.819 35.3674 150.066 35.5047 150.274 35.6922C150.488 35.8901 150.653 36.1377 150.755 36.4141C150.879 36.7618 150.937 37.1303 150.927 37.5003V40.7197C150.937 41.0897 150.879 41.4582 150.755 41.8059C150.653 42.0825 150.488 42.3304 150.274 42.5291C150.066 42.7157 149.819 42.8526 149.553 42.9297C149.267 43.013 148.972 43.0546 148.676 43.0533ZM150.056 37.5003C150.056 36.98 149.929 36.5962 149.69 36.3491C149.451 36.1019 149.108 35.981 148.673 35.981C148.239 35.981 147.911 36.1032 147.664 36.3491C147.418 36.5949 147.305 36.9787 147.305 37.5003V40.7197C147.305 41.24 147.424 41.6238 147.664 41.8709C147.904 42.1181 148.241 42.2403 148.673 42.2403C149.105 42.2403 149.443 42.1168 149.69 41.8709C149.936 41.6251 150.056 41.2413 150.056 40.7197V37.5003Z" fill="white"/>
<path d="M151.592 35.6274C151.581 35.5997 151.574 35.5709 151.57 35.5415C151.572 35.4836 151.589 35.4273 151.621 35.3792C151.652 35.331 151.696 35.293 151.748 35.2696C151.856 35.205 151.979 35.17 152.104 35.1682C152.173 35.158 152.243 35.1727 152.302 35.2098C152.361 35.2468 152.406 35.3039 152.428 35.3711L154.268 41.7267L156.096 35.3711C156.119 35.3061 156.162 35.2508 156.219 35.214C156.276 35.1771 156.343 35.161 156.41 35.1682C156.54 35.1691 156.667 35.2079 156.776 35.28C156.827 35.305 156.871 35.3435 156.902 35.3916C156.933 35.4397 156.951 35.4955 156.954 35.5532C156.956 35.5653 156.956 35.5776 156.954 35.5896C156.953 35.6022 156.953 35.6148 156.954 35.6274L154.833 42.7426C154.815 42.7932 154.787 42.8396 154.751 42.8791C154.715 42.9186 154.672 42.9505 154.624 42.9729C154.518 43.0242 154.403 43.0508 154.286 43.0508C154.17 43.0508 154.054 43.0242 153.949 42.9729C153.901 42.9502 153.858 42.9175 153.823 42.877C153.788 42.8365 153.762 42.7889 153.746 42.7374L151.592 35.6274Z" fill="white"/>
<path d="M157.372 41.93C157.443 41.9286 157.514 41.9426 157.58 41.971C157.646 41.9995 157.705 42.0418 157.753 42.0952C157.804 42.1482 157.844 42.211 157.871 42.2801C157.898 42.3491 157.911 42.4229 157.91 42.4971C157.91 42.5695 157.896 42.6412 157.869 42.7082C157.843 42.7752 157.803 42.8361 157.753 42.8874C157.706 42.9424 157.647 42.9863 157.581 43.0159C157.515 43.0456 157.444 43.0603 157.372 43.0591C157.298 43.0613 157.225 43.0471 157.157 43.0175C157.089 42.9878 157.029 42.9434 156.979 42.8874C156.882 42.7822 156.827 42.6423 156.828 42.4971C156.826 42.3481 156.88 42.2039 156.979 42.0952C157.03 42.0408 157.091 41.9979 157.158 41.9694C157.226 41.941 157.299 41.9275 157.372 41.93Z" fill="white"/>
<path d="M162.942 35.1685C163.243 35.1657 163.543 35.2068 163.832 35.2908C164.098 35.3682 164.344 35.5055 164.552 35.6927C164.767 35.8906 164.932 36.1381 165.034 36.4146C165.157 36.7625 165.215 37.1309 165.206 37.5008V40.6565C165.215 41.0263 165.157 41.3947 165.034 41.7426C164.932 42.0192 164.767 42.2667 164.552 42.4646C164.344 42.6518 164.098 42.7891 163.832 42.8665C163.543 42.9504 163.243 42.9916 162.942 42.9888H161.091C160.987 42.9942 160.885 42.9599 160.804 42.8925C160.771 42.8678 160.744 42.8358 160.725 42.7988C160.706 42.7619 160.695 42.721 160.693 42.6792V35.4781C160.695 35.4361 160.706 35.3951 160.725 35.358C160.744 35.3208 160.771 35.2886 160.804 35.2634C160.885 35.1971 160.987 35.1633 161.091 35.1685H162.942ZM161.573 35.9815V42.1758H162.942C163.374 42.1758 163.712 42.0535 163.959 41.8064C164.205 41.5592 164.324 41.1768 164.324 40.6565V37.5008C164.324 36.9805 164.197 36.5967 163.959 36.3496C163.721 36.1024 163.377 35.9815 162.942 35.9815H161.573Z" fill="white"/>
<path d="M167.28 38.6948H168.91C168.955 38.6926 168.999 38.7022 169.038 38.7227C169.077 38.7433 169.111 38.774 169.135 38.8119C169.188 38.8909 169.215 38.9844 169.214 39.0798C169.214 39.1674 169.188 39.253 169.14 39.3257C169.116 39.3646 169.082 39.3961 169.041 39.4169C169.001 39.4377 168.956 39.4471 168.91 39.444H167.28V42.1757H170.52C170.565 42.1741 170.61 42.1848 170.649 42.2065C170.689 42.2282 170.722 42.2602 170.745 42.2993C170.8 42.387 170.827 42.4894 170.824 42.5932C170.825 42.6895 170.799 42.7841 170.75 42.8664C170.726 42.906 170.692 42.9383 170.652 42.9598C170.611 42.9813 170.566 42.9913 170.52 42.9887H166.8C166.704 42.9891 166.609 42.9616 166.528 42.9093C166.487 42.8846 166.454 42.849 166.432 42.8064C166.409 42.7638 166.399 42.7157 166.401 42.6674V35.4884C166.398 35.4401 166.409 35.3921 166.431 35.3496C166.453 35.3071 166.487 35.2718 166.528 35.2477C166.609 35.1955 166.704 35.168 166.8 35.1684H170.52C170.566 35.1658 170.611 35.1757 170.652 35.1972C170.692 35.2188 170.726 35.251 170.75 35.2906C170.799 35.373 170.825 35.4675 170.824 35.5638C170.827 35.6677 170.8 35.77 170.745 35.8578C170.722 35.8969 170.689 35.9289 170.649 35.9506C170.61 35.9723 170.565 35.9829 170.52 35.9814H167.28V38.6948Z" fill="white"/>
<path d="M175.224 42.2409C175.602 42.2604 175.975 42.145 176.28 41.9144C176.544 41.6959 176.677 41.3629 176.677 40.9128C176.695 40.6093 176.604 40.3095 176.423 40.0686C176.247 39.856 176.031 39.6814 175.788 39.5548C175.521 39.4142 175.246 39.2925 174.963 39.1906C174.675 39.0875 174.398 38.9532 174.137 38.79C173.885 38.6308 173.669 38.4195 173.502 38.1695C173.317 37.8594 173.229 37.4993 173.248 37.1367C173.235 36.7989 173.309 36.4636 173.461 36.1637C173.594 35.9181 173.782 35.7088 174.01 35.5536C174.236 35.4024 174.488 35.2953 174.752 35.2375C175.013 35.1785 175.279 35.148 175.546 35.1465C175.747 35.1474 175.948 35.1617 176.147 35.1894C176.348 35.2158 176.545 35.2593 176.738 35.3195C176.9 35.3675 177.054 35.4412 177.193 35.538C177.247 35.5713 177.291 35.6175 177.323 35.6726C177.355 35.7278 177.373 35.7901 177.376 35.8541C177.369 35.9647 177.334 36.0716 177.276 36.165C177.251 36.219 177.213 36.2647 177.164 36.2967C177.115 36.3287 177.058 36.3458 177 36.3458C176.928 36.3433 176.857 36.3213 176.795 36.2821C176.722 36.2391 176.632 36.1936 176.524 36.1429C176.395 36.086 176.263 36.0395 176.127 36.0037C175.937 35.9571 175.742 35.9357 175.546 35.94C175.362 35.9389 175.178 35.9585 174.997 35.9985C174.838 36.0328 174.686 36.0963 174.549 36.1858C174.42 36.2715 174.313 36.3892 174.24 36.5279C174.16 36.6889 174.121 36.8677 174.126 37.0482C174.119 37.1775 174.137 37.3069 174.181 37.4284C174.225 37.5499 174.293 37.6609 174.38 37.7545C174.565 37.9364 174.78 38.0831 175.015 38.1877C175.269 38.3061 175.544 38.4179 175.841 38.5246C176.133 38.6301 176.41 38.7739 176.666 38.9526C176.926 39.1373 177.143 39.3785 177.301 39.6589C177.487 40.0187 177.575 40.4231 177.555 40.8296C177.562 41.1714 177.504 41.5113 177.383 41.8299C177.277 42.0969 177.115 42.3364 176.907 42.531C176.699 42.7198 176.452 42.86 176.186 42.9421C175.887 43.0332 175.577 43.0771 175.266 43.0721C174.957 43.0761 174.649 43.0345 174.352 42.9486C174.105 42.88 173.87 42.7757 173.652 42.639C173.483 42.5358 173.333 42.4038 173.207 42.2487C173.116 42.1425 173.061 42.0087 173.051 41.8676C173.055 41.7488 173.097 41.6346 173.17 41.5424C173.198 41.4947 173.237 41.4546 173.284 41.4256C173.33 41.3966 173.383 41.3795 173.437 41.3759C173.483 41.3797 173.527 41.3933 173.568 41.4157C173.608 41.438 173.644 41.4688 173.672 41.506C173.77 41.6127 173.875 41.7127 173.986 41.8052C174.134 41.9275 174.297 42.0286 174.471 42.1057C174.71 42.2032 174.966 42.2493 175.224 42.2409Z" fill="white"/>
<path d="M178.452 42.9876C178.327 42.9856 178.205 42.9506 178.097 42.8861C178.045 42.8624 178.001 42.8242 177.969 42.7758C177.938 42.7274 177.921 42.671 177.92 42.613C177.923 42.584 177.93 42.5555 177.94 42.5284L180.072 35.4131C180.089 35.362 180.116 35.3151 180.151 35.2754C180.187 35.2357 180.23 35.2042 180.278 35.1829C180.383 35.1322 180.497 35.1064 180.612 35.1075C180.729 35.1071 180.843 35.1348 180.947 35.1881C180.995 35.2103 181.038 35.2422 181.074 35.2817C181.109 35.3212 181.137 35.3677 181.155 35.4183L183.287 42.5336C183.285 42.5457 183.285 42.558 183.287 42.57C183.289 42.5826 183.289 42.5952 183.287 42.6078C183.284 42.6654 183.266 42.7211 183.235 42.7691C183.203 42.8171 183.16 42.8557 183.109 42.8809C183 42.9525 182.873 42.9912 182.743 42.9928C182.674 42.9949 182.606 42.9783 182.545 42.9447C182.517 42.928 182.492 42.9058 182.472 42.8792C182.452 42.8526 182.438 42.8223 182.43 42.7899L181.97 41.1951H179.236L178.776 42.7899C178.753 42.8561 178.708 42.912 178.649 42.9481C178.59 42.9841 178.52 42.9981 178.452 42.9876ZM181.776 40.4524L180.616 36.429L179.435 40.4524H181.776Z" fill="white"/>
<path d="M188.174 42.9876C188.059 42.9886 187.946 42.9491 187.856 42.8758C187.758 42.796 187.677 42.6958 187.62 42.5818L184.902 37.1991V42.6624C184.905 42.7118 184.893 42.7608 184.869 42.8036C184.845 42.8465 184.809 42.8814 184.767 42.9044C184.673 42.9561 184.569 42.9831 184.463 42.9831C184.358 42.9831 184.253 42.9561 184.16 42.9044C184.118 42.8814 184.082 42.8465 184.058 42.8036C184.034 42.7608 184.022 42.7118 184.024 42.6624V35.4782C184.02 35.4298 184.03 35.3811 184.052 35.3383C184.075 35.2954 184.11 35.2604 184.152 35.2376C184.247 35.189 184.353 35.1653 184.46 35.1686C184.53 35.1651 184.6 35.1759 184.665 35.2005C184.731 35.2251 184.791 35.2629 184.841 35.3117C184.956 35.4385 185.052 35.5808 185.129 35.7345L187.731 40.9454V35.4821C187.729 35.4336 187.741 35.3855 187.765 35.3436C187.789 35.3018 187.824 35.2681 187.867 35.2467C187.961 35.1979 188.065 35.1725 188.17 35.1725C188.275 35.1725 188.379 35.1979 188.473 35.2467C188.516 35.2681 188.551 35.3018 188.575 35.3436C188.599 35.3855 188.611 35.4336 188.609 35.4821V42.6715C188.611 42.7209 188.6 42.7699 188.575 42.8127C188.551 42.8556 188.516 42.8905 188.473 42.9135C188.382 42.9645 188.279 42.99 188.174 42.9876Z" fill="white"/>
<path d="M193.849 35.1684C193.897 35.1656 193.944 35.1763 193.985 35.1993C194.027 35.2222 194.061 35.2566 194.085 35.2985C194.136 35.3818 194.163 35.4783 194.163 35.5768C194.164 35.6804 194.137 35.7822 194.085 35.8708C194.061 35.9127 194.027 35.9471 193.985 35.97C193.944 35.993 193.897 36.0037 193.849 36.0009H192.167V42.6661C192.169 42.7155 192.158 42.7645 192.133 42.8073C192.109 42.8502 192.074 42.8851 192.031 42.9081C191.939 42.9616 191.834 42.989 191.727 42.9874C191.622 42.9891 191.517 42.9617 191.425 42.9081C191.382 42.8851 191.347 42.8502 191.323 42.8073C191.299 42.7645 191.287 42.7155 191.289 42.6661V36.0022H189.595C189.549 36.0032 189.504 35.9917 189.463 35.9689C189.423 35.946 189.389 35.9126 189.365 35.8721C189.308 35.7835 189.279 35.6791 189.281 35.5729C189.281 35.4744 189.309 35.3779 189.36 35.2946C189.384 35.2527 189.418 35.2183 189.46 35.1954C189.501 35.1724 189.548 35.1617 189.595 35.1645L193.849 35.1684Z" fill="white"/>
<path d="M194.215 42.9869C194.09 42.9852 193.968 42.9503 193.86 42.8854C193.808 42.8618 193.763 42.8236 193.732 42.7753C193.7 42.7269 193.683 42.6704 193.682 42.6123C193.685 42.5833 193.693 42.5549 193.703 42.5277L195.835 35.4125C195.852 35.3602 195.879 35.3121 195.915 35.2715C195.95 35.2308 195.995 35.1986 196.044 35.177C196.148 35.1266 196.263 35.1008 196.378 35.1016C196.494 35.1012 196.609 35.1289 196.713 35.1822C196.761 35.2045 196.805 35.2363 196.84 35.2758C196.876 35.3153 196.904 35.3618 196.922 35.4125L199.054 42.5277C199.052 42.5398 199.052 42.5521 199.054 42.5642C199.056 42.5766 199.056 42.5894 199.054 42.6019C199.051 42.6594 199.033 42.7151 199.002 42.7631C198.971 42.8112 198.928 42.8498 198.877 42.875C198.768 42.9464 198.641 42.9851 198.511 42.9869C198.442 42.989 198.373 42.9724 198.312 42.9388C198.284 42.9223 198.259 42.9001 198.239 42.8735C198.219 42.8469 198.205 42.8164 198.198 42.784L197.738 41.1892H194.989L194.529 42.784C194.507 42.8492 194.464 42.9049 194.407 42.9417C194.35 42.9786 194.282 42.9945 194.215 42.9869ZM197.538 40.4517L196.378 36.4284L195.198 40.4517H197.538Z" fill="white"/>
<path d="M201.666 35.4884C201.664 35.4401 201.674 35.3921 201.697 35.3496C201.719 35.3071 201.753 35.2718 201.794 35.2477C201.875 35.1955 201.969 35.168 202.065 35.1684H205.75C205.796 35.1658 205.841 35.1757 205.882 35.1972C205.922 35.2188 205.956 35.251 205.98 35.2906C206.03 35.3727 206.055 35.4674 206.054 35.5638C206.057 35.6677 206.03 35.77 205.975 35.8578C205.952 35.8969 205.919 35.9289 205.879 35.9506C205.84 35.9723 205.795 35.9829 205.75 35.9814H202.552V38.6948H204.184C204.228 38.6928 204.271 38.7025 204.311 38.7231C204.35 38.7436 204.383 38.7742 204.407 38.8119C204.46 38.8909 204.487 38.9844 204.486 39.0798C204.486 39.1674 204.46 39.253 204.412 39.3257C204.388 39.3644 204.354 39.3957 204.314 39.4165C204.273 39.4373 204.229 39.4468 204.184 39.444H202.552V42.6752C202.554 42.7237 202.543 42.7719 202.519 42.8138C202.494 42.8556 202.459 42.8893 202.416 42.9106C202.323 42.9606 202.219 42.9861 202.114 42.9848C202.008 42.9863 201.904 42.9608 201.81 42.9106C201.768 42.889 201.732 42.8553 201.708 42.8135C201.684 42.7717 201.672 42.7237 201.674 42.6752L201.666 35.4884Z" fill="white"/>
<path d="M207.529 38.6948H209.159C209.203 38.6926 209.247 38.7022 209.287 38.7227C209.326 38.7433 209.36 38.774 209.384 38.8119C209.436 38.891 209.463 38.9845 209.462 39.0798C209.461 39.1672 209.436 39.2526 209.389 39.3257C209.365 39.3646 209.33 39.3961 209.29 39.4169C209.25 39.4377 209.204 39.4471 209.159 39.444H207.529V42.1757H210.774C210.819 42.1741 210.863 42.1848 210.903 42.2065C210.942 42.2282 210.976 42.2602 210.999 42.2993C211.053 42.3871 211.08 42.4895 211.077 42.5932C211.078 42.6894 211.053 42.7839 211.004 42.8664C210.98 42.906 210.946 42.9383 210.906 42.9598C210.865 42.9813 210.82 42.9913 210.774 42.9887H207.052C206.957 42.9893 206.863 42.9618 206.782 42.9093C206.741 42.8846 206.708 42.849 206.685 42.8064C206.663 42.7638 206.652 42.7157 206.655 42.6674V35.4884C206.652 35.4401 206.662 35.3921 206.685 35.3496C206.707 35.3071 206.741 35.2718 206.782 35.2477C206.863 35.1952 206.957 35.1677 207.052 35.1684H210.774C210.82 35.1658 210.865 35.1757 210.906 35.1972C210.946 35.2188 210.98 35.251 211.004 35.2906C211.053 35.3731 211.078 35.4677 211.077 35.5638C211.08 35.6675 211.053 35.7699 210.999 35.8578C210.976 35.8969 210.942 35.9289 210.903 35.9506C210.863 35.9723 210.819 35.9829 210.774 35.9814H207.534L207.529 38.6948Z" fill="white"/>
<path d="M215.944 35.1685C216.242 35.1661 216.54 35.2072 216.827 35.2907C217.094 35.3679 217.34 35.5052 217.549 35.6927C217.763 35.8906 217.927 36.1382 218.029 36.4146C218.153 36.7622 218.212 37.1308 218.202 37.5008V40.6565C218.212 41.0264 218.153 41.395 218.029 41.7426C217.927 42.0191 217.763 42.2666 217.549 42.4645C217.34 42.652 217.094 42.7894 216.827 42.8665C216.54 42.95 216.242 42.9912 215.944 42.9888H214.094C213.99 42.9939 213.887 42.9597 213.807 42.8925C213.774 42.8675 213.747 42.8354 213.728 42.7985C213.709 42.7616 213.699 42.7208 213.697 42.6792V35.478C213.699 35.4363 213.71 35.3954 213.729 35.3583C213.747 35.3212 213.774 35.2888 213.807 35.2634C213.888 35.1971 213.99 35.1634 214.094 35.1685H215.944ZM214.575 35.9815V42.1758H215.944C216.376 42.1758 216.714 42.0535 216.96 41.8063C217.207 41.5592 217.326 41.1768 217.326 40.6565V37.5008C217.326 36.9805 217.199 36.5967 216.96 36.3496C216.721 36.1024 216.378 35.9815 215.944 35.9815H214.575Z" fill="white"/>
<path d="M223.207 35.1684C223.254 35.1656 223.301 35.1763 223.342 35.1993C223.384 35.2222 223.418 35.2566 223.442 35.2985C223.493 35.3818 223.521 35.4783 223.521 35.5768C223.522 35.6804 223.494 35.7822 223.442 35.8708C223.418 35.9127 223.384 35.9471 223.342 35.97C223.301 35.993 223.254 36.0037 223.207 36.0009H221.525V42.6661C221.527 42.7155 221.515 42.7645 221.491 42.8073C221.467 42.8502 221.431 42.8851 221.389 42.9081C221.296 42.9616 221.191 42.989 221.085 42.9874C220.979 42.9891 220.875 42.9617 220.782 42.9081C220.74 42.8851 220.704 42.8502 220.68 42.8073C220.656 42.7645 220.644 42.7155 220.646 42.6661V36.0022H218.953C218.907 36.0032 218.861 35.9917 218.821 35.9689C218.78 35.946 218.746 35.9126 218.723 35.8721C218.666 35.7835 218.636 35.6791 218.639 35.5729C218.639 35.4744 218.666 35.3779 218.718 35.2946C218.741 35.2527 218.776 35.2183 218.817 35.1954C218.859 35.1724 218.906 35.1617 218.953 35.1645L223.207 35.1684Z" fill="white"/>
<path d="M228.162 35.1684C228.209 35.1665 228.256 35.1775 228.297 35.2004C228.338 35.2233 228.373 35.2572 228.397 35.2985C228.448 35.3819 228.475 35.4784 228.475 35.5768C228.476 35.6803 228.449 35.782 228.397 35.8708C228.374 35.9127 228.339 35.9471 228.298 35.97C228.256 35.993 228.209 36.0037 228.162 36.0009H226.478V42.6661C226.48 42.7155 226.469 42.7645 226.445 42.8073C226.421 42.8502 226.385 42.8851 226.342 42.908C226.249 42.9597 226.145 42.9868 226.039 42.9868C225.933 42.9868 225.829 42.9597 225.736 42.908C225.693 42.8851 225.658 42.8502 225.634 42.8073C225.61 42.7645 225.598 42.7155 225.6 42.6661V36.0022H223.908C223.862 36.0032 223.816 35.9917 223.776 35.9689C223.735 35.946 223.702 35.9126 223.678 35.8721C223.621 35.7835 223.591 35.6791 223.594 35.5729C223.594 35.4744 223.621 35.3779 223.673 35.2946C223.696 35.2527 223.731 35.2183 223.772 35.1954C223.814 35.1724 223.861 35.1617 223.908 35.1645L228.162 35.1684Z" fill="white"/>
<path d="M231.17 43.0533C230.869 43.0557 230.57 43.0141 230.281 42.9297C230.009 42.8537 229.759 42.7119 229.551 42.5163C229.344 42.3208 229.186 42.0771 229.09 41.8059C228.966 41.4582 228.907 41.0897 228.917 40.7197V37.5003C228.907 37.1303 228.966 36.7618 229.09 36.4141C229.187 36.1432 229.345 35.8999 229.552 35.7044C229.759 35.5089 230.009 35.3669 230.281 35.2903C230.858 35.1272 231.469 35.1272 232.047 35.2903C232.314 35.3674 232.56 35.5047 232.768 35.6922C232.983 35.8898 233.148 36.1374 233.249 36.4141C233.373 36.7618 233.432 37.1303 233.422 37.5003V40.7197C233.432 41.0897 233.373 41.4582 233.249 41.8059C233.147 42.0828 232.983 42.3308 232.768 42.5291C232.56 42.7157 232.313 42.8526 232.047 42.9297C231.762 43.0131 231.466 43.0547 231.17 43.0533ZM232.55 37.5003C232.55 36.98 232.423 36.5962 232.184 36.3491C231.945 36.1019 231.602 35.981 231.167 35.981C230.733 35.981 230.405 36.1032 230.16 36.3491C229.915 36.5949 229.799 36.9787 229.799 37.5003V40.7197C229.799 41.24 229.918 41.6238 230.16 41.8709C230.401 42.1181 230.735 42.2403 231.167 42.2403C231.599 42.2403 231.937 42.1168 232.184 41.8709C232.43 41.6251 232.55 41.2413 232.55 40.7197V37.5003Z" fill="white"/>
<path d="M234.819 41.9299C234.891 41.9286 234.961 41.9426 235.027 41.971C235.093 41.9995 235.152 42.0418 235.201 42.0951C235.251 42.1482 235.291 42.211 235.318 42.28C235.345 42.349 235.358 42.4228 235.357 42.4971C235.357 42.5695 235.344 42.6412 235.317 42.7082C235.29 42.7751 235.25 42.836 235.201 42.8873C235.153 42.9425 235.094 42.9864 235.028 43.016C234.963 43.0457 234.891 43.0603 234.819 43.059C234.746 43.0613 234.672 43.0471 234.605 43.0174C234.537 42.9878 234.476 42.9434 234.427 42.8873C234.329 42.7822 234.275 42.6423 234.275 42.4971C234.273 42.3481 234.327 42.2039 234.427 42.0951C234.477 42.0409 234.538 41.9981 234.606 41.9696C234.673 41.9412 234.746 41.9276 234.819 41.9299Z" fill="white"/>
<path d="M239.92 42.2409C240.298 42.26 240.671 42.1447 240.976 41.9144C241.24 41.6959 241.373 41.3629 241.373 40.9128C241.389 40.6094 241.299 40.3098 241.118 40.0686C240.941 39.8566 240.726 39.6821 240.483 39.5548C240.216 39.4142 239.94 39.2925 239.657 39.1906C239.369 39.0873 239.092 38.953 238.831 38.79C238.579 38.6309 238.363 38.4196 238.196 38.1695C238.011 37.8597 237.922 37.4994 237.942 37.1367C237.929 36.7987 238.003 36.4632 238.157 36.1637C238.289 35.9178 238.477 35.7085 238.705 35.5536C238.932 35.4024 239.183 35.2953 239.448 35.2375C239.708 35.1784 239.975 35.1479 240.242 35.1465C240.443 35.1474 240.644 35.1618 240.843 35.1894C241.043 35.2157 241.24 35.2592 241.432 35.3195C241.594 35.3672 241.748 35.441 241.887 35.538C241.941 35.5713 241.985 35.6175 242.017 35.6726C242.049 35.7278 242.067 35.7901 242.07 35.8541C242.063 35.9645 242.029 36.0713 241.971 36.165C241.947 36.2191 241.907 36.2648 241.858 36.2968C241.809 36.3289 241.752 36.3459 241.694 36.3458C241.622 36.3432 241.552 36.3212 241.491 36.2821C241.417 36.2391 241.327 36.1936 241.219 36.1429C241.09 36.0858 240.957 36.0393 240.821 36.0037C240.631 35.9571 240.437 35.9357 240.242 35.94C240.057 35.9388 239.873 35.9584 239.693 35.9985C239.533 36.0328 239.381 36.0963 239.243 36.1858C239.114 36.2723 239.008 36.3898 238.934 36.5279C238.854 36.6889 238.815 36.8677 238.82 37.0482C238.812 37.1775 238.831 37.307 238.875 37.4286C238.919 37.5501 238.986 37.6611 239.074 37.7545C239.259 37.9364 239.474 38.0831 239.709 38.1877C239.963 38.3056 240.239 38.4179 240.535 38.5246C240.827 38.6301 241.105 38.7739 241.361 38.9526C241.62 39.138 241.837 39.3791 241.996 39.6589C242.182 40.0187 242.27 40.4231 242.251 40.8296C242.258 41.1715 242.2 41.5115 242.078 41.8299C241.973 42.0971 241.81 42.3367 241.603 42.531C241.394 42.7197 241.148 42.86 240.882 42.9421C240.584 43.0331 240.273 43.077 239.962 43.0721C239.653 43.076 239.345 43.0344 239.047 42.9486C238.801 42.8797 238.565 42.7755 238.347 42.639C238.179 42.5354 238.028 42.4035 237.902 42.2487C237.811 42.1425 237.756 42.0087 237.746 41.8676C237.75 41.7486 237.793 41.6342 237.867 41.5424C237.895 41.4948 237.933 41.4547 237.98 41.4257C238.026 41.3967 238.078 41.3796 238.132 41.3759C238.178 41.3796 238.223 41.393 238.263 41.4154C238.304 41.4378 238.339 41.4687 238.367 41.506C238.466 41.6124 238.571 41.7124 238.681 41.8052C238.829 41.9275 238.993 42.0286 239.168 42.1057C239.407 42.2033 239.663 42.2494 239.92 42.2409Z" fill="white"/>
<path d="M246.838 35.4778C246.835 35.4302 246.846 35.3828 246.868 35.341C246.891 35.2993 246.924 35.2651 246.965 35.2423C247.06 35.1908 247.167 35.1653 247.274 35.1682C247.378 35.168 247.48 35.1934 247.571 35.2423C247.615 35.2629 247.652 35.2962 247.677 35.3381C247.702 35.3801 247.714 35.4287 247.712 35.4778V40.7199C247.722 41.0903 247.662 41.4592 247.535 41.8061C247.434 42.0786 247.272 42.3227 247.061 42.5181C246.85 42.7136 246.597 42.8547 246.322 42.9299C245.734 43.0947 245.113 43.0947 244.524 42.9299C244.258 42.8542 244.011 42.7172 243.804 42.5293C243.592 42.3287 243.427 42.0814 243.322 41.8061C243.196 41.4591 243.136 41.0902 243.146 40.7199V35.4778C243.143 35.4294 243.155 35.3813 243.179 35.3394C243.202 35.2976 243.238 35.2638 243.28 35.2423C243.374 35.1936 243.478 35.1683 243.584 35.1683C243.689 35.1683 243.794 35.1936 243.888 35.2423C243.93 35.2638 243.966 35.2975 243.99 35.3393C244.014 35.3811 244.026 35.4292 244.024 35.4778V40.7199C244.024 41.2402 244.151 41.624 244.395 41.8711C244.639 42.1183 244.984 42.2405 245.424 42.2405C245.864 42.2405 246.208 42.117 246.458 41.8711C246.709 41.6253 246.839 41.2415 246.839 40.7199L246.838 35.4778Z" fill="white"/>
<path d="M248.961 35.4776C248.961 35.439 248.968 35.4007 248.983 35.365C248.997 35.3293 249.018 35.2968 249.045 35.2695C249.105 35.2058 249.188 35.1693 249.275 35.168H251.183C251.483 35.1666 251.782 35.2024 252.073 35.2747C252.341 35.3393 252.594 35.4592 252.815 35.6272C253.034 35.7997 253.207 36.0261 253.317 36.2854C253.448 36.6091 253.51 36.9576 253.5 37.3078C253.505 37.5962 253.465 37.8836 253.379 38.1585C253.308 38.3809 253.196 38.5875 253.05 38.7673C252.912 38.9342 252.744 39.0724 252.554 39.1744C252.362 39.2778 252.156 39.3519 251.942 39.3942L253.49 42.4003C253.516 42.4455 253.531 42.4972 253.532 42.5499C253.53 42.6131 253.514 42.6751 253.485 42.7309C253.456 42.7866 253.414 42.8347 253.364 42.8712C253.265 42.9589 253.139 43.0082 253.008 43.0104C252.964 43.0107 252.921 43.0011 252.881 42.9825C252.842 42.9638 252.806 42.9365 252.778 42.9024C252.713 42.828 252.657 42.7454 252.612 42.6566L251.033 39.5217H249.831V42.667C249.834 42.7164 249.822 42.7654 249.798 42.8082C249.774 42.8511 249.738 42.886 249.695 42.909C249.602 42.9606 249.498 42.9877 249.392 42.9877C249.287 42.9877 249.182 42.9606 249.089 42.909C249.047 42.886 249.011 42.8511 248.987 42.8082C248.963 42.7654 248.951 42.7164 248.953 42.667L248.961 35.4776ZM249.839 35.981V38.7725H251.183C251.557 38.7909 251.926 38.678 252.228 38.4525C252.494 38.2383 252.626 37.878 252.626 37.3715C252.625 36.8651 252.492 36.5082 252.228 36.301C251.926 36.0754 251.557 35.9625 251.183 35.981H249.839Z" fill="white"/>
<path d="M14.6581 19.7477C14.6301 19.4061 14.5742 19.0011 14.4904 18.5328C14.3966 18.0365 14.2055 17.5648 13.9287 17.1462C13.6036 16.6618 13.1673 16.2665 12.6581 15.995C12.1024 15.6828 11.3251 15.5267 10.3264 15.5267C8.91 15.5267 7.82696 15.9243 7.07726 16.7195C6.32757 17.5147 5.95272 18.7513 5.95272 20.4293V32.3211C5.95272 33.9973 6.33392 35.2335 7.09633 36.0296C7.85873 36.8257 8.96252 37.2237 10.4077 37.2237C11.3514 37.2237 12.1011 37.0676 12.6568 36.7554C13.1633 36.488 13.5939 36.0916 13.9071 35.6042C14.1815 35.1567 14.3723 34.661 14.47 34.1422C14.562 33.6562 14.6248 33.1649 14.6581 32.671C14.7132 32.0163 14.9906 31.5614 15.4904 31.3065C16.0637 31.0346 16.6911 30.9032 17.3227 30.9227C18.2672 30.9227 18.9615 31.1075 19.4053 31.4769C19.8492 31.8463 20.0716 32.5713 20.0724 33.6518C20.0872 34.8584 19.838 36.0531 19.3431 37.1483C18.8668 38.1876 18.1613 39.0996 17.282 39.8123C16.3365 40.568 15.2631 41.139 14.1155 41.4968C12.8211 41.9059 11.4726 42.1073 10.118 42.0938C8.86332 42.101 7.61431 41.9214 6.41016 41.5605C5.28467 41.2282 4.24119 40.6544 3.34911 39.8773C2.43882 39.0576 1.73195 38.0282 1.28681 36.8738C0.787008 35.6372 0.537109 34.1235 0.537109 32.3328V20.4293C0.537109 18.6386 0.794208 17.1249 1.30841 15.8883C1.76416 14.7338 2.47736 13.7043 3.39104 12.8822C4.28299 12.1053 5.32591 11.5312 6.45082 11.1977C7.65461 10.8374 8.9032 10.6581 10.1574 10.6657C11.5109 10.6523 12.8587 10.8461 14.1562 11.2406C15.2929 11.5793 16.3593 12.1287 17.3024 12.8614C18.1653 13.5428 18.8635 14.4182 19.3431 15.42C19.8364 16.4627 20.0861 17.6085 20.0724 18.7669C20.0724 19.8752 19.8501 20.6071 19.4053 20.9627C18.9606 21.3182 18.2804 21.496 17.3646 21.496C16.587 21.496 15.9483 21.3681 15.4485 21.1123C14.9487 20.8564 14.6852 20.4016 14.6581 19.7477Z" fill="white"/>
<path d="M33.1504 42.0893C31.8478 42.1011 30.5504 41.9215 29.2977 41.556C28.1645 41.2267 27.1134 40.6528 26.215 39.8727C25.3052 39.0545 24.5987 38.0263 24.154 36.8731C23.6534 35.6365 23.4035 34.1229 23.4043 32.3321V20.4287C23.4043 18.6379 23.6542 17.1243 24.154 15.8877C24.5976 14.7321 25.3042 13.7015 26.215 12.8816C27.1136 12.1016 28.1646 11.5273 29.2977 11.197C31.8125 10.4877 34.4679 10.4877 36.9827 11.197C38.1282 11.5269 39.1925 12.101 40.106 12.8816C41.0278 13.6962 41.7425 14.7278 42.1887 15.8877C42.6893 17.1251 42.9392 18.6388 42.9384 20.4287V32.3204C42.9384 34.1103 42.6885 35.624 42.1887 36.8614C41.7422 38.0212 41.0275 39.0527 40.106 39.8675C39.1932 40.65 38.1287 41.2255 36.9827 41.556C35.7364 41.9186 34.446 42.0982 33.1504 42.0893ZM37.524 20.4287C37.524 18.7229 37.1352 17.4794 36.3575 16.698C35.5799 15.9167 34.5108 15.5265 33.1504 15.5273C31.7619 15.5273 30.6929 15.9176 29.9432 16.698C29.1935 17.4785 28.8174 18.7221 28.8148 20.4287V32.3204C28.8148 34.0253 29.1897 35.2689 29.9394 36.0511C30.6891 36.8333 31.7581 37.2235 33.1466 37.2218C34.507 37.2218 35.5761 36.8315 36.3537 36.0511C37.1314 35.2706 37.5215 34.027 37.524 32.3204V20.4287Z" fill="white"/>
<path d="M47.5625 12.3709C47.5633 12.1436 47.612 11.9193 47.7055 11.7131C47.7989 11.507 47.9348 11.324 48.1038 11.1767C48.4638 10.8359 48.9636 10.6655 49.6032 10.6655H57.9744C59.2278 10.6545 60.4763 10.8266 61.6822 11.1767C62.7883 11.5004 63.8118 12.0678 64.681 12.8391C65.5761 13.6588 66.2685 14.6842 66.7014 15.8309C67.1868 17.0537 67.4295 18.5318 67.4295 20.2653V20.5255C67.4295 22.2876 67.1796 23.78 66.6798 25.0027C66.228 26.1502 65.5138 27.17 64.5971 27.9763C63.6832 28.7577 62.6178 29.3318 61.4713 29.6608C60.225 30.0235 58.9346 30.2031 57.6389 30.1942H52.9768V40.0866C52.9768 40.6555 52.6922 41.0891 52.1229 41.3874C51.5436 41.6817 50.9056 41.8348 50.2589 41.8348C49.6121 41.8348 48.9741 41.6817 48.3948 41.3874C47.8399 41.0891 47.5625 40.6555 47.5625 40.0866V12.3709ZM52.9768 15.5266V25.8443H57.6415C59.0028 25.8443 60.0719 25.4463 60.8487 24.6502C61.6255 23.8542 62.0143 22.618 62.0151 20.9417V20.4292C62.0151 18.7521 61.6263 17.5154 60.8487 16.7194C60.071 15.9233 59.002 15.5257 57.6415 15.5266H52.9768Z" fill="white"/>
<path d="M70.4287 41.8336C70.0417 41.83 69.657 41.7727 69.285 41.6632C68.899 41.5571 68.5282 41.3997 68.1821 41.1949C67.8625 41.0083 67.5798 40.7621 67.3485 40.4691C67.1336 40.2061 67.0157 39.8741 67.0156 39.5312C67.0311 39.3872 67.0587 39.2449 67.0982 39.1058L75.1352 12.289C75.3284 11.636 75.7587 11.159 76.4262 10.8581C77.1081 10.557 77.8438 10.4046 78.5864 10.4106C79.3466 10.4005 80.1005 10.5529 80.7999 10.8581C81.4657 11.1573 81.8961 11.6342 82.0909 12.289L90.1292 39.1097C90.1688 39.2489 90.1969 39.3911 90.213 39.5351C90.2145 39.872 90.0961 40.198 89.8801 40.4522C89.6407 40.7365 89.3595 40.9809 89.0466 41.1767C88.7039 41.3945 88.3318 41.5597 87.9423 41.6671C87.5704 41.7766 87.1857 41.8339 86.7987 41.8375C86.3884 41.8502 85.9812 41.7609 85.6119 41.5773C85.4514 41.4901 85.3108 41.3689 85.1995 41.2217C85.0882 41.0746 85.0088 40.905 84.9664 40.724L83.3819 35.0526H73.8442L72.261 40.7227C72.2181 40.9035 72.1385 41.0729 72.0273 41.22C71.916 41.367 71.7757 41.4884 71.6155 41.576C71.2458 41.7583 70.8387 41.8467 70.4287 41.8336ZM82.2154 30.7054L78.5915 17.6222L74.9688 30.7054H82.2154Z" fill="white"/>
<path d="M126.75 30.3242H101.584V37.1871H126.75V30.3242Z" fill="white"/>
<path d="M126.75 0.25H101.584V7.16365H126.75V0.25Z" fill="white"/>
<path d="M126.75 45.3359H101.584V52.2496H126.75V45.3359Z" fill="white"/>
<path d="M126.75 15.3135H101.584V22.1764H126.75V15.3135Z" fill="white"/>
</svg>
