<svg width="210" height="62" viewBox="0 0 210 62" fill="none" xmlns="http://www.w3.org/2000/svg">
<path d="M74.9453 17.7259C76.2899 17.8449 77.6423 17.8449 78.9868 17.7259C79.8113 17.4304 80.5754 16.988 81.2423 16.4202L88.4959 11.7095C88.5915 11.6495 88.668 11.5633 88.7162 11.4612C88.7644 11.3591 88.7824 11.2453 88.768 11.1333C88.7536 11.0213 88.7074 10.9158 88.6349 10.8292C88.5625 10.7426 88.4667 10.6786 88.359 10.6447L80.2979 7.42713C79.0339 6.80977 77.7256 6.28779 76.3837 5.86555C75.5941 5.68627 74.9796 6.27613 74.2953 6.68671C72.7653 7.47833 71.2812 8.35563 69.85 9.31443C69.5571 9.513 69.3446 9.80948 69.2506 10.1506C68.6142 11.8997 68.1393 13.7268 67.5864 15.5032C63.5955 28.3362 59.6056 41.1686 55.6166 54.0006C55.5132 54.4055 55.389 54.8048 55.2443 55.1968C55.4551 54.7082 55.0842 55.3227 54.9008 55.5403L53.0723 57.7109L51.4396 59.6488C51.2888 59.8009 51.1514 59.9658 51.029 60.1415C51.0427 60.1169 51.5477 60.1717 51.0988 60.0704C50.4198 60.0264 49.7379 60.0641 49.0678 60.1826L46.0117 60.3509C45.0708 60.4018 44.1277 60.3995 43.1869 60.3441L40.4032 60.1908C39.6666 60.05 38.9145 60.0086 38.1669 60.0676C37.781 60.173 38.2572 60.0813 38.3216 60.1744C38.1957 59.9896 38.0218 59.8199 37.8795 59.6488L36.1496 57.5959L34.4799 55.6156C34.3294 55.4363 34.1638 55.2625 34.0242 55.0681C33.8148 54.7944 34.0967 55.2515 34.0666 55.1776C33.5315 53.8911 33.2208 52.4582 32.8075 51.1293L29.969 42.0048L23.0753 19.8499L20.6474 12.0407C20.3368 11.0402 20.2369 9.83997 19.3418 9.23916C17.9595 8.30851 16.4486 7.52841 15.0129 6.68124C14.2698 6.24192 13.684 5.65479 12.8355 5.89977C9.67948 6.80989 6.5837 8.39473 3.52898 9.61278L0.945063 10.6433C0.837349 10.6772 0.741592 10.7412 0.669114 10.8278C0.596636 10.9144 0.55047 11.02 0.536075 11.132C0.521679 11.2439 0.539657 11.3577 0.587881 11.4598C0.636105 11.5619 0.71256 11.6481 0.808203 11.7081L8.47237 16.6857C9.074 17.2203 9.81045 17.58 10.6019 17.7259C12.0827 17.8121 13.5909 17.7259 15.0745 17.7259C15.2241 17.7186 15.3651 17.6541 15.4684 17.5457C15.5717 17.4372 15.6293 17.2932 15.6293 17.1435C15.6293 16.9938 15.5717 16.8498 15.4684 16.7414C15.3651 16.6329 15.2241 16.5684 15.0745 16.5612C13.6471 16.5612 12.21 16.5064 10.7853 16.5612C10.6635 16.5612 10.101 16.5092 10.398 16.5981C10.695 16.6871 10.3309 16.5174 10.2611 16.4613C9.79991 16.0958 9.24974 15.8043 8.75567 15.4841L1.39944 10.7022L1.26258 11.767L9.32501 8.54938L11.6516 7.6201C12.2093 7.48723 12.7445 7.27376 13.2406 6.98644C13.2857 6.94264 13.3856 6.93169 13.4431 6.90569C12.9614 7.12467 12.971 6.70861 13.3419 7.04255C13.9892 7.51219 14.6793 7.92 15.403 8.26061L17.7802 9.66616C18.0539 9.82902 18.3277 10.0234 18.6219 10.163C18.7588 10.23 19.2419 10.6338 18.9572 10.267C18.6726 9.90019 19.0722 10.8733 19.1324 11.0662L21.1415 17.5301C25.0215 30.0077 28.7961 42.5249 32.7828 54.9682C33.3467 56.7283 35.1095 58.1543 36.27 59.5394C36.8736 60.2565 37.2842 61.0804 38.2203 61.2282C39.9103 61.4052 41.6082 61.4965 43.3074 61.5019C44.2482 61.5547 45.1913 61.5547 46.1322 61.5019C47.8093 61.5026 49.4851 61.4112 51.1522 61.2282C52.102 61.0681 52.6248 60.0416 53.227 59.3259C54.2903 58.2236 55.278 57.0508 56.1832 55.8154C56.6626 54.8206 57.0183 53.7708 57.2425 52.6895L59.8072 44.4437L66.7159 22.2272L69.4066 13.5721L70.199 11.0211C70.2929 10.8048 70.3631 10.5791 70.4084 10.3477C70.4317 9.96451 70.7273 10.1794 70.2332 10.4367C71.5348 9.75238 72.7788 8.93122 74.0407 8.1867C74.7197 7.86731 75.3672 7.48469 75.9745 7.04392C76.1347 6.89885 76.4932 6.88516 76.084 6.87968C75.6023 6.87968 76.084 6.95907 76.1634 7.01655C77.3729 7.67666 78.6571 8.18944 79.9886 8.54391L85.463 10.7337L88.0483 11.7656C88.0018 11.4107 87.9562 11.0557 87.9115 10.7008L80.9877 15.2008L79.4015 16.2313C79.2414 16.3354 79.084 16.4503 78.9184 16.5447C78.6146 16.7172 79.0375 16.5543 78.9909 16.5625C77.6458 16.6682 76.2945 16.6682 74.9494 16.5625C74.7999 16.5698 74.6588 16.6343 74.5556 16.7427C74.4523 16.8511 74.3947 16.9951 74.3947 17.1449C74.3947 17.2946 74.4523 17.4386 74.5556 17.547C74.6588 17.6554 74.7999 17.72 74.9494 17.7272L74.9453 17.7259Z" fill="white"/>
<path d="M35.4778 31.5686C34.6676 39.5019 33.8569 47.4352 33.0458 55.3685C32.9855 55.9652 33.9176 55.9611 33.9778 55.3685C34.7889 47.4352 35.5996 39.5019 36.4098 31.5686C36.4714 30.9718 35.538 30.9759 35.4778 31.5686Z" fill="white"/>
<path d="M31.822 1.68015C30.2262 6.22299 28.6295 10.7663 27.0319 15.3101C26.8105 15.7045 26.715 16.1572 26.7582 16.6075C26.9945 17.1644 27.2984 17.6903 27.6629 18.1732L32.1395 25.929L35.5323 31.8044C35.5977 31.905 35.6993 31.9765 35.816 32.0041C35.9328 32.0317 36.0556 32.0133 36.1592 31.9528C36.2627 31.8922 36.3389 31.7941 36.3721 31.6788C36.4052 31.5635 36.3926 31.4399 36.337 31.3336L29.1355 18.8616C28.7302 18.0302 28.2698 17.2269 27.7573 16.4569C27.5055 16.1353 27.6984 16.008 27.6136 16.472C27.6582 16.2748 27.7252 16.0833 27.8134 15.9013C28.9014 13.5596 29.5652 10.9114 30.4206 8.47662L32.7198 1.92649C32.9196 1.35853 32.0191 1.11628 31.8207 1.67878L31.822 1.68015Z" fill="white"/>
<path d="M56.2341 55.3692L55.1926 44.3958C54.7957 40.2106 54.1867 35.9884 53.9965 31.7896C53.9855 31.5555 53.9965 31.5405 53.9157 31.8019C53.9782 31.6521 54.0596 31.5109 54.158 31.3817C54.6055 30.7138 54.9709 29.9748 55.3719 29.2782L59.3778 22.3407C60.407 20.5616 61.5279 18.8029 62.475 16.9758C62.9252 16.1081 62.4558 15.5032 62.1068 14.604C60.3805 10.1497 58.6543 5.6949 56.928 1.23965C56.7131 0.692205 55.8112 0.926235 56.0288 1.48736L60.5753 13.2218L61.5785 15.8111C61.6579 16.0137 61.7455 16.2217 61.8153 16.4229C61.8413 16.4996 62.0124 15.9713 61.8002 16.286C60.7875 17.7587 59.9841 19.4338 59.0904 20.979L55.0024 28.0601C54.175 29.1284 53.5138 30.3156 53.0412 31.5815C53.0145 32.6794 53.1188 33.7766 53.3519 34.8498C53.5909 37.3689 53.8299 39.8876 54.069 42.4058C54.4787 46.7315 54.8892 51.0567 55.3007 55.3815C55.3569 55.9741 56.2889 55.9796 56.2328 55.3815L56.2341 55.3692Z" fill="white"/>
<path d="M19.0721 16.9511C19.0721 17.3125 18.965 17.6657 18.7642 17.9662C18.5635 18.2666 18.2781 18.5008 17.9442 18.6391C17.6104 18.7774 17.243 18.8136 16.8886 18.7431C16.5342 18.6726 16.2086 18.4986 15.9531 18.243C15.6976 17.9875 15.5236 17.662 15.4531 17.3075C15.3826 16.9531 15.4188 16.5858 15.557 16.2519C15.6953 15.9181 15.9295 15.6327 16.23 15.4319C16.5304 15.2312 16.8837 15.124 17.2451 15.124C17.7296 15.124 18.1943 15.3165 18.537 15.6592C18.8796 16.0018 19.0721 16.4665 19.0721 16.9511Z" fill="white"/>
<path d="M74.5768 16.9511C74.5771 17.3128 74.4701 17.6664 74.2693 17.9673C74.0686 18.2682 73.7831 18.5027 73.449 18.6413C73.115 18.78 72.7473 18.8164 72.3925 18.746C72.0377 18.6756 71.7118 18.5015 71.4559 18.2459C71.2001 17.9902 71.0258 17.6644 70.9552 17.3097C70.8845 16.955 70.9206 16.5873 71.059 16.2531C71.1973 15.9189 71.4317 15.6332 71.7324 15.4323C72.0331 15.2313 72.3867 15.124 72.7484 15.124C73.2331 15.124 73.6979 15.3165 74.0408 15.6591C74.3837 16.0017 74.5765 16.4664 74.5768 16.9511Z" fill="white"/>
<path d="M62.1024 2.72548C59.9529 1.862 57.7471 1.14593 55.5003 0.582248C53.7379 0.429559 51.9659 0.422689 50.2024 0.561715H40.0747C38.0927 0.42409 36.1034 0.42409 34.1213 0.561715C33.0169 0.830043 31.9405 1.20261 30.9065 1.67439L26.9991 3.07584C26.2984 3.32766 26.6009 4.45402 27.3098 4.19946C29.5505 3.25729 31.8398 2.43497 34.1679 1.73598C34.2582 1.71408 34.031 1.74692 34.3567 1.72092C34.6825 1.69492 35.0109 1.72092 35.3325 1.72092H48.8078C50.9018 1.72092 53.1148 1.51289 55.2005 1.72092C55.2717 1.72092 55.4743 1.7524 55.2074 1.70587C55.3606 1.74272 55.5108 1.79169 55.6563 1.85231C56.4022 2.11371 57.1617 2.3409 57.9131 2.58451L61.7945 3.84362C62.5089 4.07629 62.8154 2.9513 62.1038 2.72L62.1024 2.72548Z" fill="white"/>
<path d="M34.3946 50.8889H48.0518C48.1751 50.8871 48.2927 50.8374 48.3799 50.7502C48.467 50.6631 48.5168 50.5454 48.5185 50.4222V36.4419C48.5121 36.3227 48.4601 36.2105 48.3735 36.1284C48.2868 36.0463 48.1719 36.0005 48.0525 36.0005C47.9331 36.0005 47.8182 36.0463 47.7316 36.1284C47.6449 36.2105 47.593 36.3227 47.5865 36.4419V50.4222L48.0518 49.9569H34.3946C34.2753 49.9633 34.1631 50.0152 34.081 50.1019C33.9989 50.1886 33.9531 50.3035 33.9531 50.4229C33.9531 50.5423 33.9989 50.6571 34.081 50.7438C34.1631 50.8305 34.2753 50.8824 34.3946 50.8889Z" fill="white"/>
<path d="M50.0346 34.4582C50.0346 34.8504 49.9183 35.2338 49.7004 35.56C49.4824 35.8861 49.1727 36.1402 48.8104 36.2903C48.448 36.4404 48.0493 36.4797 47.6646 36.4032C47.2799 36.3267 46.9265 36.1378 46.6492 35.8605C46.3719 35.5831 46.183 35.2298 46.1065 34.8451C46.0299 34.4604 46.0692 34.0617 46.2193 33.6993C46.3694 33.3369 46.6236 33.0272 46.9497 32.8093C47.2758 32.5914 47.6592 32.4751 48.0515 32.4751C48.5774 32.4751 49.0818 32.684 49.4537 33.0559C49.8256 33.4278 50.0346 33.9322 50.0346 34.4582Z" fill="white"/>
<path d="M29.1692 12.2108L34.1427 10.021C34.4985 9.86499 34.8502 9.68707 35.2129 9.55021C35.6303 9.39282 35.1199 9.52695 35.3033 9.50779C35.89 9.47841 36.4779 9.47841 37.0646 9.50779H48.1216C48.2452 9.50779 48.3637 9.45869 48.4511 9.37129C48.5385 9.2839 48.5876 9.16537 48.5876 9.04178C48.5876 8.91818 48.5385 8.79966 48.4511 8.71226C48.3637 8.62487 48.2452 8.57577 48.1216 8.57577H36.743C35.7626 8.51449 34.7827 8.70284 33.895 9.12321L28.6943 11.4088C28.1468 11.6496 28.6204 12.453 29.1651 12.2135L29.1692 12.2108Z" fill="white"/>
<path d="M52.0932 9.04414C52.0932 9.43636 51.9769 9.81978 51.759 10.1459C51.541 10.472 51.2313 10.7262 50.869 10.8763C50.5066 11.0264 50.1079 11.0657 49.7232 10.9891C49.3385 10.9126 48.9851 10.7237 48.7078 10.4464C48.4304 10.1691 48.2416 9.81571 48.1651 9.43102C48.0885 9.04634 48.1278 8.6476 48.2779 8.28524C48.428 7.92287 48.6822 7.61316 49.0083 7.39525C49.3344 7.17734 49.7178 7.06104 50.1101 7.06104C50.636 7.06104 51.1404 7.26997 51.5123 7.64188C51.8842 8.01378 52.0932 8.51819 52.0932 9.04414Z" fill="white"/>
<path d="M57.9019 22.9883H40.0649C39.9421 22.99 39.8247 23.0396 39.7379 23.1265C39.651 23.2134 39.6014 23.3307 39.5996 23.4536V40.7801C39.6061 40.8993 39.658 41.0115 39.7447 41.0936C39.8314 41.1758 39.9462 41.2215 40.0656 41.2215C40.185 41.2215 40.2999 41.1758 40.3866 41.0936C40.4733 41.0115 40.5252 40.8993 40.5316 40.7801V23.4536L40.0649 23.9203H57.9019C58.0211 23.9138 58.1334 23.8619 58.2155 23.7752C58.2976 23.6885 58.3433 23.5737 58.3433 23.4543C58.3433 23.3349 58.2976 23.22 58.2155 23.1333C58.1334 23.0467 58.0211 22.9947 57.9019 22.9883Z" fill="white"/>
<path d="M42.0463 42.7604C42.0463 43.1527 41.93 43.5361 41.7121 43.8622C41.4942 44.1883 41.1844 44.4425 40.8221 44.5926C40.4597 44.7427 40.061 44.782 39.6763 44.7054C39.2916 44.6289 38.9383 44.4401 38.6609 44.1627C38.3836 43.8854 38.1947 43.532 38.1182 43.1473C38.0417 42.7626 38.0809 42.3639 38.231 42.0015C38.3811 41.6392 38.6353 41.3295 38.9614 41.1115C39.2875 40.8936 39.671 40.7773 40.0632 40.7773C40.5891 40.7773 41.0935 40.9863 41.4654 41.3582C41.8374 41.7301 42.0463 42.2345 42.0463 42.7604Z" fill="white"/>
<path d="M40.5316 23.4557V17.7212C40.5252 17.602 40.4733 17.4898 40.3866 17.4077C40.2999 17.3256 40.185 17.2798 40.0656 17.2798C39.9462 17.2798 39.8314 17.3256 39.7447 17.4077C39.658 17.4898 39.6061 17.602 39.5996 17.7212V23.4557C39.6061 23.5749 39.658 23.6871 39.7447 23.7692C39.8314 23.8513 39.9462 23.8971 40.0656 23.8971C40.185 23.8971 40.2999 23.8513 40.3866 23.7692C40.4733 23.6871 40.5252 23.5749 40.5316 23.4557Z" fill="white"/>
<path d="M42.0463 15.6022C42.0463 15.9945 41.93 16.3779 41.7121 16.704C41.4942 17.0301 41.1844 17.2843 40.8221 17.4344C40.4597 17.5845 40.061 17.6238 39.6763 17.5472C39.2916 17.4707 38.9383 17.2819 38.6609 17.0045C38.3836 16.7272 38.1947 16.3738 38.1182 15.9891C38.0417 15.6044 38.0809 15.2057 38.231 14.8433C38.3811 14.481 38.6353 14.1713 38.9614 13.9534C39.2875 13.7354 39.671 13.6191 40.0632 13.6191C40.5891 13.6191 41.0935 13.8281 41.4654 14.2C41.8374 14.5719 42.0463 15.0763 42.0463 15.6022Z" fill="white"/>
<path d="M79.3935 43.4166C80.2407 37.3646 84.2712 34.0854 90.7857 34.0854C97.4672 34.0854 100.396 37.7807 99.6721 42.954L99.3121 45.5187C99.2977 45.8233 99.2207 46.1217 99.086 46.3953C98.9514 46.6689 98.7618 46.9118 98.5292 47.109C98.2966 47.3062 98.0259 47.4534 97.734 47.5414C97.442 47.6295 97.1351 47.6566 96.8322 47.6209H85.1485L85.002 48.672C84.69 50.8987 85.7986 51.9922 88.3195 51.9922C89.1045 52.0409 89.8905 51.9154 90.6214 51.6249C91.3522 51.3343 92.0098 50.8859 92.5471 50.3116C93.4039 49.3029 93.9308 49.1346 95.0612 49.7641L96.9773 50.8152C97.9942 51.3627 98.0859 52.203 97.303 53.2951C95.2994 55.8955 92.049 57.2039 87.5107 57.2039C80.6184 57.2039 77.9784 53.547 78.7735 47.8741L79.3935 43.4166ZM93.3669 42.3655C93.6666 40.2223 92.5594 39.1301 90.0823 39.1301C87.6051 39.1301 86.1886 40.225 85.8889 42.3655L85.7945 43.0375H93.2752L93.3669 42.3655Z" fill="white"/>
<path d="M125.15 25.4688C126.327 25.4688 126.656 25.8465 126.482 27.0659L126.141 29.5034C125.972 30.7214 125.541 31.0992 124.362 31.0992H116.545C114.023 31.0992 112.603 32.2342 112.286 34.5043L112.257 34.7136H123.898C125.033 34.7136 125.357 35.0928 125.193 36.2697L122.569 55.0196C122.405 56.1966 121.974 56.5757 120.839 56.5757H117.562C116.385 56.5757 116.056 56.1966 116.224 55.0196L118.277 40.3509H111.47L109.417 55.0196C109.253 56.1966 108.779 56.5757 107.602 56.5757H104.409C103.232 56.5757 102.866 56.1966 103.03 55.0196L105.083 40.3509H103.276C102.142 40.3509 101.771 39.9732 101.939 38.7962L102.292 36.2739C102.458 35.0969 102.93 34.7178 104.071 34.7178H105.878L105.901 34.5494C106.73 28.6234 110.619 25.4715 117.174 25.4715L125.15 25.4688Z" fill="white"/>
<path d="M137.254 29.6723C138.388 29.6723 138.713 30.0514 138.548 31.2284L138.06 34.7169H141.969C143.103 34.7169 143.427 35.096 143.263 36.273L142.91 38.7954C142.745 39.9724 142.315 40.3501 141.18 40.3501H137.271L136.283 47.4107C135.843 50.5585 136.704 51.3194 139.602 51.3194C140.779 51.3194 141.108 51.6985 140.934 52.9166L140.563 55.5648C140.393 56.7829 139.968 57.1196 138.784 57.162C135.11 57.2879 132.557 56.6146 131.195 55.2282C129.833 53.8418 129.388 51.3194 129.9 47.6625L130.924 40.3487H128.699C127.523 40.3487 127.193 39.971 127.361 38.794L127.715 36.2717C127.879 35.0947 128.31 34.7156 129.494 34.7156H131.72L132.209 31.227C132.375 30.05 132.847 29.6709 133.988 29.6709L137.254 29.6723Z" fill="white"/>
<path d="M144.618 43.4166C145.465 37.3646 149.495 34.0854 156.01 34.0854C162.693 34.0854 165.62 37.7807 164.898 42.954L164.538 45.5187C164.523 45.8233 164.446 46.1217 164.312 46.3953C164.177 46.6689 163.987 46.9118 163.755 47.109C163.522 47.3062 163.251 47.4534 162.959 47.5414C162.668 47.6295 162.361 47.6566 162.058 47.6209H150.374L150.228 48.672C149.916 50.8987 151.023 51.9922 153.545 51.9922C154.33 52.0409 155.116 51.9154 155.847 51.6249C156.578 51.3343 157.235 50.8859 157.773 50.3116C158.629 49.3029 159.156 49.1346 160.287 49.7641L162.203 50.8152C163.22 51.3627 163.311 52.203 162.529 53.2951C160.525 55.8955 157.275 57.2039 152.736 57.2039C145.844 57.2039 143.204 53.547 143.998 47.8741L144.618 43.4166ZM158.591 42.3655C158.891 40.2223 157.784 39.1301 155.306 39.1301C152.829 39.1301 151.413 40.225 151.113 42.3655L151.019 43.0375H158.499L158.591 42.3655Z" fill="white"/>
<path d="M167.539 42.9964C168.334 37.3222 172.064 34.0854 178.789 34.0854C183.623 34.0854 186.504 36.3122 187.21 39.6748C187.418 40.8942 187.053 41.3979 185.811 41.8646L182.998 42.7473C181.714 43.2099 181.209 42.9157 180.917 41.6962C180.748 41.0144 180.333 40.4189 179.753 40.0235C179.172 39.6281 178.466 39.4606 177.77 39.553C177.308 39.4913 176.838 39.525 176.39 39.6523C175.942 39.7795 175.525 39.9974 175.164 40.2926C174.804 40.5877 174.508 40.9538 174.295 41.368C174.081 41.7823 173.956 42.2359 173.925 42.7008L173.104 48.5858C172.81 50.6843 173.798 51.7336 176.067 51.7336C176.832 51.7768 177.593 51.5973 178.257 51.2169C178.922 50.8365 179.463 50.2715 179.813 49.5903C180.44 48.4133 181.016 48.2039 182.182 48.5817L184.796 49.422C185.92 49.7997 186.199 50.5169 185.577 51.6501C183.504 55.3453 180.009 57.197 175.134 57.197C168.746 57.197 165.964 54.2135 166.799 48.2874L167.539 42.9964Z" fill="white"/>
<path d="M197.269 25.4688C198.444 25.4688 198.774 25.8465 198.604 27.0235L197.575 34.3783L198.176 34.2949C199.287 34.1508 200.405 34.0808 201.525 34.0855C207.577 34.0855 210.197 36.9855 209.385 42.7857L207.673 55.0169C207.507 56.1938 207.077 56.573 205.942 56.573H202.665C201.488 56.573 201.16 56.1938 201.328 55.0169L203.01 42.9964C203.304 40.8943 202.274 39.8486 199.879 39.8486C198.891 39.8438 197.905 39.9425 196.937 40.1429L196.764 40.184L194.686 55.0155C194.522 56.1925 194.091 56.5716 192.914 56.5716H189.677C188.501 56.5716 188.172 56.1925 188.34 55.0155L192.258 27.0235C192.422 25.8465 192.854 25.4688 194.031 25.4688H197.269Z" fill="white"/>
</svg>
