<svg width="179" height="56" viewBox="0 0 179 56" fill="none" xmlns="http://www.w3.org/2000/svg">
<path d="M129.386 0.583984C130.27 0.861461 131.182 1.03595 132.106 1.10398C134.259 1.31798 136.42 1.31798 138.577 1.31798H159.577C159.803 1.31347 160.029 1.32215 160.254 1.34398C160.664 1.38298 160.826 1.62298 160.717 2.02498C160.567 2.49508 160.342 2.93757 160.049 3.33498C158.334 5.94866 156.781 8.66509 155.399 11.469C152.041 18.049 149.042 24.847 146.326 31.75C144.699 35.7836 143.278 39.8976 142.069 44.076C141.589 45.703 141.242 47.366 141.03 49.049C140.949 49.5729 140.949 50.1061 141.03 50.63C141.105 50.9736 141.082 51.3314 140.965 51.6629C140.848 51.9945 140.64 52.2868 140.366 52.507C139.044 53.7478 137.477 54.6982 135.766 55.297C135.53 55.3823 135.279 55.4224 135.028 55.415C134.591 55.415 134.443 55.262 134.434 54.826C134.458 53.7828 134.651 52.7505 135.005 51.769C136.721 46.269 138.821 40.91 141.03 35.614C143.917 28.672 147.07 21.8533 150.487 15.158C152.036 12.1247 153.657 9.12665 155.351 6.16398C155.587 5.75398 155.587 5.75398 155.137 5.75398H137.76C135.964 5.68975 134.165 5.80094 132.39 6.08598C131.796 6.19022 131.222 6.38765 130.69 6.67098C130.154 6.99921 129.7 7.44485 129.362 7.97426C129.024 8.50367 128.811 9.103 128.738 9.72698C128.603 10.427 128.538 11.142 128.445 11.849C128.445 11.958 128.445 12.128 128.318 12.128C128.191 12.128 128.148 11.962 128.13 11.84C128.029 11.0538 128.009 10.2593 128.069 9.46898C128.169 8.15898 128.331 6.84898 128.506 5.53898C128.756 4.02702 128.902 2.49984 128.945 0.967984C128.952 0.82877 129.001 0.694878 129.085 0.583984L129.386 0.583984Z" fill="white"/>
<path d="M0.529297 13.853C0.5852 13.812 0.649002 13.7831 0.716656 13.7682C0.784309 13.7532 0.854337 13.7524 0.922297 13.766H15.2393C15.5713 13.766 15.6323 13.884 15.6283 14.181V17.949C15.6283 18.281 15.5283 18.386 15.1913 18.386C12.6803 18.364 10.1703 18.36 7.6593 18.351H7.2223C7.0173 18.351 6.9433 18.443 6.9433 18.651V21.742C6.9433 22.069 7.1223 22.065 7.3533 22.065H13.3043C13.8193 22.065 13.8193 22.065 13.8193 22.576V25.969C13.8193 26.469 13.8193 26.469 13.3343 26.469H7.3453C7.0353 26.469 6.9393 26.552 6.9393 26.869V32.938C6.9393 33.248 6.8523 33.348 6.5393 33.344H0.922297C0.782519 33.3486 0.644881 33.3087 0.529297 33.23L0.529297 13.853Z" fill="white"/>
<path d="M131.919 31.2331C131.102 32.3768 129.899 33.1862 128.531 33.5121C127.531 33.7542 126.503 33.8585 125.475 33.8221C123.736 33.7698 122.037 33.2852 120.532 32.4121C119.11 31.5787 118.02 30.2789 117.446 28.7331C116.165 25.6735 116.13 22.2348 117.346 19.1491C117.819 17.9543 118.542 16.8738 119.464 15.9795C120.387 15.0852 121.49 14.3975 122.699 13.9621C124.778 13.1469 127.067 13.0346 129.216 13.6424C131.365 14.2502 133.255 15.5447 134.599 17.3281C135.196 18.1252 135.579 19.0615 135.712 20.0481C135.769 20.4851 135.738 20.5241 135.275 20.5281C133.581 20.5281 131.887 20.5541 130.193 20.5761C130.076 20.5986 129.955 20.5754 129.854 20.5113C129.754 20.4471 129.681 20.3469 129.652 20.2311C129.416 19.5222 128.942 18.917 128.31 18.5189C127.677 18.1208 126.927 17.9544 126.185 18.0481C125.656 18.0717 125.143 18.2358 124.699 18.5235C124.255 18.8112 123.895 19.2122 123.657 19.6851C122.969 20.8992 122.616 22.2742 122.633 23.6697C122.651 25.0651 123.039 26.4308 123.757 27.6271C125.119 29.9541 127.822 29.6831 129.433 28.2341C129.761 27.9395 130.028 27.5835 130.219 27.1861C130.354 26.9201 130.293 26.8281 130.001 26.8321H127.701C127.339 26.8321 127.264 26.7231 127.264 26.3951C127.286 25.3121 127.286 24.2341 127.264 23.1511C127.264 22.8151 127.364 22.7141 127.701 22.7141H135.538C135.866 22.7141 135.953 22.7931 135.948 23.1141V33.1041C135.948 33.4231 135.878 33.5411 135.533 33.5411C134.45 33.5191 133.372 33.5411 132.293 33.5411C131.979 33.5411 131.909 33.4411 131.913 33.1521C131.927 32.5621 131.919 31.9601 131.919 31.2331Z" fill="white"/>
<path d="M36.709 23.568V14.215C36.709 13.835 36.818 13.73 37.198 13.73H52.008C52.388 13.73 52.508 13.83 52.497 14.215C52.4763 15.4463 52.4763 16.6776 52.497 17.909C52.497 18.289 52.37 18.372 52.021 18.367H43.464C42.992 18.367 42.984 18.367 42.988 18.847V20.729C42.988 21.27 42.988 21.284 43.512 21.284L50.406 21.258C50.965 21.258 50.965 21.258 50.965 21.826V25.293C50.965 25.603 50.878 25.699 50.559 25.699H43.437C43.127 25.699 43.027 25.782 43.037 26.099C43.059 26.899 43.059 27.71 43.037 28.514C43.037 28.824 43.129 28.889 43.421 28.889H52.315C52.691 28.889 52.815 28.976 52.804 29.369C52.778 30.587 52.804 31.805 52.804 33.024C52.804 33.334 52.717 33.424 52.404 33.424H37.119C36.792 33.424 36.719 33.31 36.719 33.014C36.713 29.838 36.709 26.707 36.709 23.568Z" fill="white"/>
<path d="M81.6444 23.5588V14.2148C81.6444 13.8568 81.7314 13.7388 82.0814 13.7388H96.9264C97.2844 13.7388 97.4064 13.8308 97.3984 14.2018V17.8568C97.3984 18.3628 97.3984 18.3678 96.9054 18.3678H88.4054C87.9164 18.3678 87.9164 18.3678 87.9164 18.8398V20.7998C87.9164 21.2718 87.9164 21.2848 88.4014 21.2848L95.2784 21.2628C95.8784 21.2628 95.8784 21.2628 95.8784 21.8628V25.2558C95.8784 25.5968 95.7954 25.6928 95.4414 25.6928H88.3904C87.9534 25.6928 87.9534 25.7188 87.9534 26.1648V28.4648C87.9534 28.7838 88.0234 28.8748 88.3424 28.8748H97.2364C97.6074 28.8748 97.7364 28.9538 97.7294 29.3508V33.0058C97.7294 33.3158 97.6464 33.4118 97.3294 33.4118H82.0464C81.6754 33.4118 81.6094 33.2718 81.6094 32.9748C81.6484 29.8378 81.6444 26.6898 81.6444 23.5588Z" fill="white"/>
<path d="M61.1628 23.6198V32.8548C61.1628 33.3958 61.1628 33.3958 60.6038 33.3958H54.8038C54.4938 33.3958 54.4238 33.2958 54.4238 33.0118V14.1668C54.4238 13.8528 54.5238 13.7568 54.8338 13.7568H60.7498C61.0908 13.7568 61.1868 13.8748 61.1868 14.1938C61.1588 17.3368 61.1628 20.4808 61.1628 23.6198Z" fill="white"/>
<path d="M155.725 38.3258C155.425 39.7618 155.153 41.1118 154.874 42.4608C154.774 42.9608 154.66 43.4608 154.574 43.9718C154.539 44.1988 154.434 44.2598 154.225 44.2508C153.948 44.2355 153.671 44.2355 153.395 44.2508C153.129 44.2508 153.102 44.1418 153.142 43.9318C153.657 41.4691 154.168 39.0051 154.675 36.5398C154.727 36.2908 154.832 36.2038 155.075 36.2258C155.475 36.2568 155.948 36.0908 156.258 36.2868C156.568 36.4828 156.616 36.9808 156.769 37.3478C157.38 38.8188 157.978 40.2948 158.581 41.7668C158.629 41.8808 158.69 41.9898 158.781 42.1728C158.943 41.3998 159.091 40.7058 159.218 39.9898C159.449 38.8368 159.685 37.6848 159.912 36.5318C159.956 36.3008 160.052 36.1778 160.312 36.2088C160.524 36.2197 160.737 36.2197 160.949 36.2088C161.412 36.2088 161.421 36.2088 161.329 36.6458C160.954 38.4971 160.576 40.3411 160.198 42.1778C160.076 42.7668 159.953 43.3568 159.84 43.9238C159.801 44.1418 159.713 44.2468 159.469 44.2338C159.059 44.2078 158.596 44.3338 158.251 44.1638C157.906 43.9938 157.893 43.4788 157.736 43.1118C157.11 41.6184 156.489 40.1251 155.872 38.6318L155.725 38.3258Z" fill="white"/>
<path d="M174.864 36.021C175.463 35.996 176.06 36.1064 176.61 36.344C176.979 36.508 177.294 36.7739 177.517 37.1104C177.741 37.4469 177.864 37.8401 177.872 38.244C177.872 38.493 177.828 38.633 177.549 38.593H177.249C177.04 38.6306 176.825 38.6306 176.616 38.593C176.402 38.506 176.485 38.222 176.411 38.03C176.3 37.7672 176.109 37.5462 175.866 37.3987C175.622 37.2512 175.337 37.1847 175.053 37.209C174.7 37.1802 174.345 37.2358 174.018 37.371C173.815 37.4411 173.638 37.5731 173.514 37.7485C173.39 37.9239 173.323 38.1339 173.324 38.349C173.315 38.5518 173.374 38.7518 173.49 38.9178C173.607 39.0837 173.776 39.2062 173.97 39.266C174.546 39.519 175.175 39.602 175.77 39.803C176.87 40.174 177.37 40.716 177.421 41.611C177.483 42.1279 177.376 42.651 177.115 43.1018C176.855 43.5526 176.455 43.9067 175.976 44.111C174.898 44.5947 173.673 44.6403 172.562 44.238C172.079 44.0632 171.666 43.7353 171.386 43.3043C171.106 42.8732 170.975 42.3625 171.012 41.85C171.012 41.688 171.064 41.614 171.226 41.627H171.414C171.689 41.5892 171.967 41.598 172.239 41.653C172.523 41.762 172.374 42.133 172.47 42.378C172.539 42.5666 172.65 42.7369 172.796 42.8756C172.941 43.0144 173.116 43.1178 173.308 43.178C173.932 43.3901 174.612 43.3666 175.22 43.112C175.444 43.041 175.64 42.9011 175.779 42.7121C175.919 42.5232 175.995 42.2949 175.997 42.06C175.999 41.8315 175.929 41.6082 175.797 41.4222C175.664 41.2363 175.476 41.0971 175.259 41.025C174.794 40.8467 174.317 40.7007 173.831 40.588C173.602 40.5217 173.378 40.4416 173.159 40.348C172.821 40.2399 172.523 40.035 172.301 39.7587C172.079 39.4824 171.943 39.1469 171.91 38.794C171.846 38.349 171.917 37.8951 172.113 37.4906C172.309 37.0861 172.621 36.7494 173.01 36.524C173.565 36.1785 174.208 36.0023 174.861 36.017L174.864 36.021Z" fill="white"/>
<path d="M6.01357 43.3948C6.51957 41.9098 6.99557 40.5348 7.46357 39.1638C7.49534 39.0606 7.54841 38.9651 7.61935 38.8836C7.69028 38.8021 7.77752 38.7364 7.87542 38.6907C7.97332 38.645 8.07971 38.6204 8.18773 38.6183C8.29575 38.6163 8.403 38.6369 8.50257 38.6788C8.65057 38.7358 8.61657 38.8578 8.61657 38.9628V43.9708C8.61657 44.2638 8.45057 44.2498 8.25457 44.2498C8.05857 44.2498 7.89257 44.2498 7.89657 43.9708V39.8798H7.83557L7.22857 41.5958C6.95357 42.3908 6.66557 43.1768 6.41257 43.9798C6.32557 44.2548 6.16757 44.2638 5.94057 44.2728C5.89262 44.2824 5.84325 44.2825 5.7953 44.2729C5.74735 44.2634 5.70175 44.2444 5.66114 44.2172C5.62053 44.19 5.5857 44.155 5.55866 44.1142C5.53162 44.0735 5.51289 44.0278 5.50357 43.9798C5.06657 42.7088 4.63057 41.4388 4.21557 40.1728C4.17657 40.0638 4.17657 39.9278 4.02357 39.8278V43.9018C4.02357 44.1728 3.96657 44.2768 3.67457 44.2768C3.38257 44.2768 3.31257 44.2028 3.31657 43.9188V39.0188C3.31657 38.7568 3.39057 38.6778 3.65257 38.6778C4.43457 38.6778 4.43457 38.6778 4.67857 39.4028C5.10957 40.6918 5.54657 41.9928 6.01357 43.3948Z" fill="white"/>
<path d="M135.274 42.8788V38.9358C135.274 38.5908 135.492 38.6778 135.68 38.6698C135.868 38.6618 136.034 38.6698 136.029 38.9488V43.9658C136.029 44.0658 136.073 44.2408 135.911 44.2318C135.645 44.2318 135.335 44.3888 135.125 44.0658C134.618 43.3018 134.103 42.5418 133.592 41.7818C133.209 41.1867 132.792 40.6138 132.343 40.0658V43.8858C132.343 44.1608 132.282 44.2618 131.994 44.2568C131.706 44.2518 131.623 44.1868 131.623 43.8988V39.0988C131.623 38.9588 131.523 38.7148 131.771 38.7058C132.019 38.6968 132.295 38.5658 132.491 38.8628C132.971 39.6008 133.465 40.3258 133.954 41.0458L135.198 42.9148L135.274 42.8788Z" fill="white"/>
<path d="M56.6932 40.0932V43.8092C56.704 43.8901 56.6921 43.9724 56.6586 44.0468C56.6251 44.1212 56.5714 44.1847 56.5036 44.2302C56.4359 44.2757 56.3567 44.3013 56.2752 44.3041C56.1936 44.3069 56.1129 44.2869 56.0422 44.2462C55.9332 44.1982 55.9502 44.1062 55.9502 44.0282V38.8932C55.9502 38.7932 55.9502 38.6662 56.0902 38.6752C56.3562 38.6972 56.6532 38.5572 56.8672 38.8892C57.4132 39.7622 57.9892 40.5832 58.5572 41.4302C58.885 41.9428 59.2451 42.4342 59.6352 42.9012V39.0112C59.6352 38.7532 59.6962 38.6532 59.9672 38.6622C60.2382 38.6712 60.3562 38.6882 60.3512 39.0032V43.8032C60.3512 43.9472 60.4512 44.1922 60.2202 44.2092C59.9892 44.2262 59.6612 44.3572 59.4602 44.0522C59.2022 43.6522 58.9322 43.2622 58.6652 42.8642L56.7892 40.0522L56.6932 40.0932Z" fill="white"/>
<path d="M85.0952 44.325C84.5543 44.38 84.0108 44.2491 83.5542 43.954C83.3535 43.8129 83.1835 43.6325 83.0544 43.4239C82.9254 43.2152 82.8399 42.9826 82.8032 42.74C82.7772 42.609 82.7462 42.421 82.9692 42.447C83.1922 42.473 83.4892 42.247 83.5242 42.604C83.6242 43.63 85.3102 44.014 86.1442 43.394C86.2692 43.3115 86.3674 43.1942 86.4266 43.0566C86.4858 42.919 86.5035 42.7671 86.4774 42.6195C86.4514 42.472 86.3828 42.3353 86.28 42.2263C86.1773 42.1173 86.0449 42.0407 85.8992 42.006C85.3712 41.814 84.8162 41.696 84.2752 41.539C84.1422 41.5045 84.0121 41.4593 83.8862 41.404C83.6184 41.3097 83.3885 41.131 83.231 40.8947C83.0736 40.6585 82.9971 40.3774 83.0132 40.094C83.0078 39.8079 83.0926 39.5274 83.2556 39.2923C83.4186 39.0571 83.6515 38.8793 83.9212 38.784C84.2853 38.6278 84.679 38.5531 85.075 38.5652C85.4709 38.5773 85.8594 38.6759 86.2132 38.854C86.4359 38.9598 86.6277 39.1209 86.7706 39.3218C86.9134 39.5228 87.0024 39.7569 87.0292 40.002C87.0292 40.12 87.1032 40.29 86.9022 40.277C86.7012 40.264 86.4652 40.447 86.3302 40.177C86.2624 39.9863 86.1563 39.8115 86.0186 39.6632C85.8809 39.5149 85.7143 39.3963 85.5292 39.3146C85.344 39.2329 85.1442 39.1898 84.9418 39.188C84.7394 39.1861 84.5388 39.2256 84.3522 39.304C84.1844 39.3389 84.0325 39.4278 83.9199 39.5571C83.8072 39.6863 83.7399 39.8489 83.7282 40.02C83.7199 40.1855 83.7735 40.3482 83.8785 40.4765C83.9834 40.6047 84.1323 40.6894 84.2962 40.714C84.8512 40.88 85.4092 41.007 85.9602 41.177C86.8772 41.456 87.3142 42.05 87.2312 42.793C87.1718 43.2 86.9706 43.5729 86.663 43.8461C86.3555 44.1192 85.9614 44.275 85.5502 44.286C85.4011 44.3202 85.248 44.3334 85.0952 44.325Z" fill="white"/>
<path d="M113.798 40.8671C113.83 41.5523 113.801 42.239 113.711 42.9191C113.643 43.3061 113.442 43.6574 113.144 43.9128C112.845 44.1682 112.467 44.3118 112.074 44.3191C111.65 44.37 111.221 44.3508 110.803 44.2621C110.448 44.1791 110.128 43.984 109.893 43.7056C109.657 43.4272 109.517 43.0802 109.493 42.7161C109.449 42.3307 109.428 41.943 109.432 41.5551C109.432 40.7251 109.454 39.8961 109.432 39.0661C109.432 38.7171 109.546 38.6291 109.869 38.6601C110.192 38.6911 110.214 38.7391 110.21 39.0011V42.0191C110.211 42.2703 110.239 42.5207 110.293 42.7661C110.328 42.9751 110.424 43.1692 110.568 43.3244C110.712 43.4795 110.899 43.589 111.105 43.6391C111.482 43.746 111.881 43.746 112.258 43.6391C112.508 43.5663 112.725 43.4099 112.874 43.196C113.023 42.9821 113.093 42.7238 113.074 42.4641C113.161 41.3461 113.113 40.2281 113.122 39.1111C113.122 38.8581 113.122 38.7011 113.471 38.7011C113.82 38.7011 113.86 38.8411 113.851 39.1381C113.8 39.7129 113.782 40.2902 113.798 40.8671Z" fill="white"/>
<path d="M118.094 44.333C116.404 44.412 115.675 43.22 115.531 41.827C115.417 41.0706 115.571 40.2982 115.968 39.644C116.199 39.3184 116.505 39.0521 116.858 38.8666C117.212 38.6812 117.605 38.5819 118.005 38.5769C118.404 38.5718 118.799 38.6611 119.158 38.8375C119.516 39.0139 119.828 39.2724 120.068 39.592C120.096 39.6337 120.12 39.6775 120.142 39.723C120.208 39.871 120.36 40.068 120.282 40.16C120.099 40.2615 119.899 40.3292 119.693 40.36C119.558 40.395 119.549 40.246 119.505 40.16C119.392 39.8273 119.16 39.5483 118.854 39.3772C118.547 39.206 118.188 39.155 117.846 39.234C117.518 39.2583 117.205 39.3834 116.951 39.5921C116.697 39.8008 116.514 40.083 116.427 40.4C116.189 41.0932 116.189 41.8458 116.427 42.539C116.532 42.8784 116.745 43.1741 117.034 43.3813C117.323 43.5885 117.671 43.6958 118.027 43.687C118.375 43.7048 118.718 43.6014 118.998 43.3944C119.279 43.1875 119.478 42.8898 119.564 42.552C119.721 42.076 120.001 42.39 120.215 42.421C120.521 42.46 120.355 42.687 120.302 42.827C120.159 43.2909 119.862 43.6926 119.461 43.9662C119.06 44.2397 118.578 44.3691 118.094 44.333Z" fill="white"/>
<path d="M40.6292 41.566C40.6176 41.9156 40.674 42.264 40.7952 42.592C40.9069 42.9355 41.1296 43.2321 41.4283 43.4352C41.727 43.6383 42.0847 43.7364 42.4452 43.714C42.788 43.7197 43.1224 43.6087 43.3938 43.3991C43.6651 43.1896 43.8571 42.8941 43.9382 42.561C44.0912 42.076 44.3752 42.439 44.5622 42.439C44.8552 42.439 44.7242 42.653 44.6802 42.793C44.543 43.2461 44.2622 43.6423 43.8802 43.9219C43.4981 44.2015 43.0356 44.3493 42.5622 44.343C42.2205 44.381 41.8746 44.3457 41.5475 44.2397C41.2204 44.1336 40.9197 43.9591 40.6652 43.7279C40.4108 43.4966 40.2085 43.2138 40.0717 42.8983C39.935 42.5828 39.867 42.2419 39.8722 41.898C39.7789 41.4163 39.8072 40.9189 39.9543 40.4508C40.1015 39.9827 40.363 39.5587 40.7152 39.217C40.9907 38.9664 41.3193 38.7812 41.6764 38.6756C42.0335 38.57 42.41 38.5465 42.7775 38.607C43.145 38.6675 43.494 38.8104 43.7984 39.025C44.1028 39.2396 44.3547 39.5203 44.5352 39.846C44.5872 39.973 44.7972 40.2 44.4872 40.283C44.2732 40.331 43.9872 40.61 43.8192 40.161C43.7185 39.8823 43.5278 39.6451 43.2771 39.487C43.0264 39.3288 42.7302 39.2588 42.4352 39.288C42.1131 39.2683 41.7923 39.3449 41.5139 39.5083C41.2355 39.6716 41.0121 39.9142 40.8722 40.205C40.6782 40.6311 40.5946 41.0992 40.6292 41.566Z" fill="white"/>
<path d="M31.4519 41.8279V43.9409C31.4519 44.2859 31.2639 44.2409 31.0459 44.2509C30.8279 44.2609 30.6789 44.2508 30.6839 43.9368V39.7189C30.6839 39.4129 30.5969 39.3259 30.2999 39.3429H29.1329C28.8329 39.3429 28.8579 39.1809 28.8579 38.9849C28.8579 38.7889 28.8579 38.6528 29.1239 38.6578H33.0539C33.3329 38.6578 33.3159 38.8149 33.3119 38.9989C33.3079 39.1829 33.3469 39.3529 33.0589 39.3439H31.7489C31.5219 39.3439 31.4429 39.4138 31.4489 39.6438C31.4609 40.3738 31.4519 41.0989 31.4519 41.8279Z" fill="white"/>
<path d="M91.0839 41.7928V43.9408C91.0839 44.2858 90.9009 44.2468 90.6839 44.2508C90.4669 44.2548 90.3129 44.2508 90.3169 43.9448V39.7228C90.3169 39.4348 90.2509 39.3228 89.9459 39.3428C89.5459 39.3688 89.1379 39.3428 88.7369 39.3428C88.4529 39.3428 88.4969 39.1678 88.4929 38.9938C88.4889 38.8198 88.4929 38.6528 88.7509 38.6578H92.6319C92.9069 38.6578 92.8979 38.8108 92.8939 38.9988C92.8899 39.1868 92.9199 39.3528 92.6409 39.3438H91.3569C91.1259 39.3438 91.0569 39.4138 91.0569 39.6438C91.0929 40.3578 91.0839 41.0768 91.0839 41.7928Z" fill="white"/>
<path d="M46.4615 41.4868V39.0418C46.4615 38.7418 46.5705 38.6618 46.8615 38.6578C47.1525 38.6538 47.2615 38.7498 47.2615 39.0418V43.9368C47.2615 44.2778 47.0785 44.2508 46.8555 44.2508C46.6325 44.2508 46.4455 44.2508 46.4555 43.9368C46.4825 43.1198 46.4615 42.3038 46.4615 41.4868Z" fill="white"/>
<path d="M81.0553 41.4477V43.8927C81.0553 44.2197 80.9333 44.2597 80.6623 44.2547C80.3913 44.2497 80.2823 44.2238 80.2873 43.9138V38.9848C80.2873 38.6528 80.4493 38.6748 80.6803 38.6658C80.9113 38.6568 81.0643 38.6917 81.0563 39.0017C81.0423 39.8187 81.0553 40.6357 81.0553 41.4477Z" fill="white"/>
<path d="M100.803 41.4478V38.9678C100.803 38.6538 100.965 38.6618 101.183 38.6678C101.401 38.6738 101.572 38.6238 101.572 38.9558V43.9558C101.572 44.3098 101.362 44.2348 101.135 44.2558C100.908 44.2768 100.777 44.2118 100.781 43.9328C100.811 43.1028 100.803 42.2728 100.803 41.4478Z" fill="white"/>
<path d="M0.603516 41.451V39.081C0.603516 38.797 0.629516 38.644 0.978516 38.644C1.32752 38.644 1.37152 38.744 1.37152 39.05V43.827C1.37152 44.111 1.34552 44.264 1.00052 44.264C0.655516 44.264 0.600516 44.116 0.607516 43.827C0.616516 43.032 0.603516 42.237 0.603516 41.451Z" fill="white"/>
<path d="M122.15 41.4532V39.0432C122.15 38.7502 122.22 38.6502 122.526 38.6632C122.832 38.6762 122.926 38.6982 122.919 39.0252V43.9152C122.919 44.2252 122.801 44.2562 122.544 44.2562C122.287 44.2562 122.138 44.2252 122.151 43.8982C122.167 43.0802 122.15 42.2642 122.15 41.4532Z" fill="white"/>
<path d="M158.958 35.3528C158.567 35.305 158.189 35.1821 157.845 34.9908C157.408 34.7858 157.16 34.6548 156.845 35.2008C156.701 35.4498 156.408 35.3668 156.229 35.3008C156.05 35.2348 156.194 35.0348 156.229 34.9118C156.268 34.7227 156.354 34.5462 156.477 34.3979C156.601 34.2496 156.76 34.1341 156.939 34.0616C157.118 33.989 157.312 33.9617 157.504 33.9819C157.696 34.0022 157.881 34.0695 158.041 34.1778L158.587 34.4308C158.652 34.4764 158.727 34.5061 158.805 34.5174C158.884 34.5287 158.964 34.5212 159.039 34.4957C159.115 34.4702 159.183 34.4273 159.239 34.3705C159.294 34.3137 159.336 34.2446 159.36 34.1688C159.5 33.8548 159.797 33.9508 159.976 34.0118C160.155 34.0728 160.041 34.3118 159.976 34.4488C159.919 34.6859 159.792 34.8998 159.609 35.0616C159.427 35.2234 159.2 35.325 158.958 35.3528Z" fill="white"/>
<path d="M51.1777 38.3339C51.3307 38.0109 51.4777 37.7229 51.6147 37.4259C51.6847 37.2729 51.8147 37.2989 51.9337 37.2949H52.4887C52.4256 37.5938 52.2601 37.8612 52.0207 38.0509C51.7813 38.2406 51.4831 38.3407 51.1777 38.3339Z" fill="white"/>
<path d="M128.251 37.3252L127.57 38.1982C127.55 38.23 127.527 38.2593 127.5 38.2851C127.427 38.3452 127.338 38.3823 127.244 38.3915C127.15 38.4008 127.055 38.3819 126.972 38.3372C126.815 38.2582 126.972 38.1061 127.037 37.9961C127.369 37.2341 127.369 37.2602 128.251 37.3252Z" fill="white"/>
<path d="M80.4322 26.2488C80.3575 25.723 80.174 25.2184 79.8936 24.7673C79.6131 24.3162 79.2417 23.9285 78.8032 23.6288C78.3882 23.3767 77.9494 23.166 77.4932 22.9998C78.126 22.604 78.6632 22.0729 79.0664 21.4447C79.4696 20.8166 79.7287 20.107 79.8252 19.3668C80.0265 18.3828 79.8707 17.3593 79.3859 16.4797C78.901 15.6001 78.1187 14.922 77.1792 14.5668C75.8139 14.015 74.3516 13.743 72.8792 13.7668C69.6872 13.7358 66.4962 13.7668 63.3042 13.7358C62.9422 13.7358 62.8672 13.8358 62.8672 14.1988V32.9208C62.8672 33.2568 62.9372 33.3578 63.3042 33.3578H73.0672C74.0705 33.3684 75.0714 33.26 76.0492 33.0348C76.8053 32.9217 77.5287 32.6487 78.1711 32.2342C78.8135 31.8197 79.3603 31.2731 79.7751 30.6309C80.1898 29.9886 80.463 29.2653 80.5765 28.5092C80.69 27.7532 80.6411 26.9816 80.4332 26.2458L80.4322 26.2488ZM69.1322 21.2798C69.1542 20.8428 69.1322 20.4068 69.1322 19.9698V18.5428C69.1322 18.3768 69.1322 18.2288 69.3592 18.2368C70.3592 18.2848 71.3672 18.1848 72.3672 18.2938C72.5915 18.3199 72.8116 18.3743 73.0222 18.4558C73.338 18.5491 73.6143 18.7436 73.8086 19.0094C74.0029 19.2753 74.1043 19.5977 74.0972 19.9268C74.113 20.2683 74.0171 20.6056 73.824 20.8876C73.6309 21.1696 73.3512 21.3811 73.0272 21.4898C72.6764 21.6254 72.3032 21.6932 71.9272 21.6898H69.5172C69.1972 21.6988 69.1242 21.5768 69.1372 21.2798H69.1322ZM73.8782 28.5668C73.3277 28.8026 72.73 28.9073 72.1322 28.8728H69.4552C69.2412 28.8728 69.1412 28.8338 69.1412 28.5848V25.4208C69.1412 25.2638 69.1672 25.1498 69.3592 25.1548C70.6145 25.1096 71.8713 25.1386 73.1232 25.2418C73.4181 25.2663 73.7044 25.3534 73.9631 25.4972C74.2217 25.641 74.4468 25.8383 74.6232 26.0758C74.7515 26.2853 74.8343 26.5194 74.8659 26.763C74.8976 27.0065 74.8776 27.2541 74.8071 27.4893C74.7366 27.7246 74.6172 27.9424 74.4568 28.1284C74.2964 28.3144 74.0986 28.4645 73.8762 28.5688L73.8782 28.5668Z" fill="white"/>
<path d="M117.011 32.6538C116.788 32.5339 116.605 32.3522 116.484 32.1306C116.362 31.909 116.307 31.6569 116.326 31.4048C116.326 30.2478 116.361 29.0948 116.274 27.9378C116.277 27.1421 116.024 26.3665 115.552 25.7257C115.08 25.0849 114.415 24.613 113.654 24.3798C113.527 24.3358 113.405 24.2798 113.239 24.2138C113.793 24.0414 114.305 23.7539 114.741 23.3701C115.176 22.9864 115.526 22.515 115.767 21.9868C116.403 20.5786 116.54 18.9955 116.156 17.4988C115.967 16.7842 115.591 16.1327 115.067 15.6116C114.543 15.0904 113.89 14.7184 113.174 14.5338C111.67 14.0375 110.095 13.7912 108.511 13.8048C105.359 13.7528 102.211 13.7788 99.0539 13.7568C98.6869 13.7568 98.5909 13.8568 98.5959 14.2198V32.8018C98.5959 33.5358 98.5959 33.3908 99.1679 33.3908H104.56C104.949 33.3908 105.045 33.2768 105.04 32.9018V26.9868C105.04 26.8078 105.005 26.6378 105.289 26.6418C106.258 26.6418 107.223 26.6418 108.189 26.6728C108.691 26.6704 109.177 26.8506 109.556 27.18C109.935 27.5093 110.182 27.9652 110.25 28.4628C110.342 28.9187 110.393 29.3819 110.403 29.8468C110.38 30.8763 110.425 31.9062 110.538 32.9298C110.599 33.2878 110.748 33.3928 111.106 33.3928H116.834C116.965 33.3928 117.179 33.5068 117.209 33.2748C117.239 33.0428 117.294 32.8198 117.011 32.6538ZM110.462 20.5808C110.441 20.9336 110.314 21.2718 110.098 21.5508C109.881 21.8299 109.585 22.0366 109.248 22.1438C108.798 22.3012 108.324 22.3793 107.848 22.3748H105.248C105.073 22.3748 104.916 22.3748 104.921 22.1298V18.4798C104.921 18.4358 104.965 18.3968 104.986 18.3528C105.909 18.3295 106.828 18.3295 107.745 18.3528C108.432 18.2739 109.125 18.4278 109.714 18.7898C110.003 18.9791 110.229 19.2511 110.361 19.5704C110.493 19.8897 110.526 20.2415 110.456 20.5798L110.462 20.5808Z" fill="white"/>
<path d="M35.1447 32.6582C34.8926 32.4929 34.6937 32.2583 34.572 31.9826C34.4503 31.7068 34.4109 31.4018 34.4587 31.1042C34.5061 29.9744 34.4814 28.8428 34.3847 27.7162C34.3588 27.0085 34.1233 26.3245 33.7081 25.7509C33.293 25.1773 32.7168 24.7399 32.0527 24.4942C31.8297 24.4112 31.6157 24.3192 31.3457 24.2152C31.8997 24.052 32.4127 23.773 32.8507 23.3966C33.2888 23.0203 33.6419 22.5552 33.8867 22.0322C34.4028 20.8661 34.5899 19.581 34.4277 18.3162C34.373 17.482 34.0666 16.684 33.5488 16.0276C33.031 15.3713 32.3263 14.8875 31.5277 14.6402C29.989 14.0846 28.3635 13.8083 26.7277 13.8242C23.5097 13.7802 20.2917 13.8022 17.0787 13.7852C16.7857 13.7852 16.7207 13.8852 16.7207 14.1522V33.0382C16.7207 33.3382 16.7997 33.4272 17.1047 33.4222H22.7197C23.0647 33.4222 23.1567 33.3302 23.1567 32.9852C23.1567 30.9982 23.1567 29.0122 23.1347 27.0252C23.1347 26.8072 23.1737 26.6712 23.4407 26.6762C24.3837 26.6762 25.3267 26.6762 26.2697 26.7022C26.7593 26.692 27.2364 26.8565 27.6157 27.1662C27.995 27.4759 28.2517 27.9105 28.3397 28.3922C28.4798 29.0432 28.5442 29.7083 28.5317 30.3742C28.5211 31.2157 28.5635 32.057 28.6587 32.8932C28.7107 33.2422 28.8507 33.3932 29.2477 33.3862H35.1857C35.3477 33.3862 35.4087 33.3072 35.3957 33.1502C35.3958 33.0541 35.373 32.9595 35.3294 32.874C35.2858 32.7884 35.2225 32.7145 35.1447 32.6582ZM27.9937 21.7912C27.4732 22.1958 26.8227 22.3961 26.1647 22.3542C25.2517 22.3802 24.3357 22.3542 23.4187 22.3542C23.1607 22.3542 23.0697 22.2802 23.0777 22.0052V20.3152V18.6212C23.0777 18.4682 23.0777 18.3282 23.2777 18.3332C24.5409 18.2688 25.8073 18.3096 27.0637 18.4552C27.4154 18.4928 27.7467 18.6392 28.0113 18.8741C28.2758 19.1089 28.4606 19.4204 28.5397 19.7652C28.651 20.1198 28.6588 20.4989 28.5621 20.8578C28.4654 21.2167 28.2682 21.5405 27.9937 21.7912Z" fill="white"/>
<path d="M177.724 12.8971C177.449 10.8756 176.886 8.9039 176.052 7.04208C175.357 5.42026 174.283 3.98884 172.921 2.86808C172.113 2.22978 171.186 1.75797 170.194 1.47991C169.203 1.20185 168.166 1.12306 167.144 1.24808C165.144 1.43715 163.281 2.34828 161.904 3.81108C160.572 5.22189 159.564 6.90549 158.948 8.74508C157.913 11.7845 157.405 14.9786 157.448 18.1891C157.44 19.1167 157.486 20.044 157.588 20.9661C157.794 23.2744 158.384 25.5322 159.334 27.6461C160.037 29.292 161.115 30.7511 162.482 31.9071C163.998 33.1763 165.95 33.8029 167.922 33.6531C169.523 33.5602 171.06 32.9916 172.336 32.0201C173.851 30.8457 175.051 29.314 175.829 27.5621C177.224 24.4169 177.966 21.0214 178.012 17.5811C178.067 16.0138 177.97 14.4449 177.724 12.8961V12.8971ZM173.124 27.3061C172.753 28.4127 172.193 29.4467 171.469 30.3621C171.111 30.8499 170.653 31.256 170.126 31.5534C169.599 31.8508 169.015 32.0327 168.413 32.0871C167.286 32.1543 166.176 31.7855 165.313 31.0571C164.099 30.0037 163.186 28.6477 162.667 27.1271C161.959 25.279 161.491 23.348 161.274 21.3811C161.006 19.3669 160.913 17.3333 160.995 15.3031C161.021 12.4434 161.526 9.60824 162.488 6.91508C162.938 5.62841 163.729 4.48793 164.776 3.61508C165.55 3.02548 166.508 2.72845 167.481 2.77638C168.453 2.82432 169.377 3.21415 170.09 3.87708C171.391 5.10255 172.358 6.64018 172.898 8.34408C173.614 10.3473 174.072 12.4339 174.26 14.5531C174.391 15.8101 174.46 17.0771 174.483 18.3821C174.521 21.4054 174.062 24.4145 173.125 27.2891L173.124 27.3061Z" fill="white"/>
<path d="M168.628 36.6801C167.816 36.1601 166.846 35.9417 165.889 36.063C164.931 36.1843 164.047 36.6377 163.389 37.3441C162.926 37.891 162.578 38.5263 162.367 39.2114C162.156 39.8965 162.087 40.6173 162.162 41.3301C162.193 42.1308 162.52 42.8916 163.079 43.4651C163.843 44.118 164.817 44.4709 165.822 44.458C166.826 44.4451 167.791 44.0674 168.537 43.3951C169.016 42.9118 169.392 42.3364 169.642 41.7037C169.892 41.071 170.011 40.3941 169.991 39.7141C170.022 39.1364 169.914 38.5598 169.677 38.032C169.44 37.5043 169.081 37.0409 168.628 36.6801ZM167.274 42.7271C167.01 42.9636 166.694 43.1345 166.352 43.2263C166.01 43.318 165.651 43.3279 165.304 43.2552C164.957 43.1825 164.632 43.0292 164.356 42.8077C164.079 42.5862 163.858 42.3027 163.711 41.9801C163.478 41.1966 163.48 40.3615 163.717 39.5791C163.955 38.7967 164.417 38.1015 165.047 37.5801C165.494 37.2821 166.03 37.1464 166.564 37.1957C167.099 37.245 167.601 37.4764 167.985 37.8511C168.417 38.4525 168.608 39.1941 168.518 39.9291C168.508 40.4548 168.392 40.9731 168.179 41.4536C167.965 41.934 167.658 42.367 167.274 42.7271Z" fill="white"/>
<path d="M151.771 43.8102C151.396 41.6532 151.024 39.4962 150.644 37.3392C150.583 36.9942 150.609 36.5572 150.408 36.3392C150.207 36.1212 149.718 36.2912 149.364 36.2392C149.23 36.2164 149.092 36.2398 148.973 36.3055C148.854 36.3713 148.761 36.4755 148.709 36.6012C147.744 38.2342 146.766 39.8542 145.792 41.4822C145.251 42.3822 144.718 43.2822 144.137 44.2632H145.303C145.413 44.28 145.527 44.2597 145.624 44.2055C145.722 44.1512 145.799 44.066 145.844 43.9632C146.132 43.4262 146.46 42.9022 146.761 42.3632C146.794 42.2899 146.85 42.229 146.919 42.189C146.989 42.149 147.07 42.1319 147.15 42.1402H149.77C149.984 42.1402 150.084 42.2052 150.106 42.4332C150.134 42.7265 150.179 43.0179 150.241 43.3062C150.298 43.6062 150.206 44.0312 150.441 44.1792C150.676 44.3272 151.041 44.2312 151.358 44.2312C151.854 44.2472 151.85 44.2472 151.771 43.8102ZM149.645 41.0852H147.802C147.61 41.0852 147.502 41.0592 147.627 40.8362C148.209 39.8362 148.775 38.8362 149.327 37.8362C149.327 37.8052 149.358 37.7712 149.414 37.6572C149.58 38.7792 149.733 39.7832 149.886 40.7922C149.917 40.9712 149.873 41.0762 149.641 41.0712L149.645 41.0852Z" fill="white"/>
<path d="M106.877 41.36C106.84 41.3354 106.806 41.3062 106.777 41.273C107.033 41.1238 107.232 40.8935 107.343 40.6184C107.453 40.3432 107.469 40.0391 107.388 39.754C107.317 39.4812 107.163 39.2368 106.949 39.054C106.734 38.8712 106.468 38.7588 106.188 38.732C105.388 38.632 104.588 38.684 103.782 38.667C103.59 38.667 103.516 38.732 103.516 38.929V43.976C103.516 44.155 103.555 44.255 103.765 44.251H106.175C106.518 44.2627 106.855 44.1546 107.127 43.9451C107.4 43.7356 107.591 43.4379 107.668 43.103C107.777 42.7661 107.756 42.4006 107.61 42.0782C107.464 41.7557 107.202 41.4996 106.877 41.36ZM104.995 39.352C105.322 39.352 105.646 39.378 105.969 39.409C106.066 39.4089 106.163 39.4286 106.252 39.4669C106.342 39.5053 106.423 39.5615 106.491 39.6321C106.558 39.7027 106.61 39.7863 106.644 39.8777C106.678 39.9691 106.693 40.0665 106.689 40.164C106.701 40.2642 106.693 40.3659 106.665 40.4628C106.637 40.5597 106.589 40.6497 106.524 40.7272C106.459 40.8046 106.379 40.8679 106.289 40.9129C106.198 40.958 106.099 40.9839 105.999 40.989C105.737 41.0043 105.474 41.0043 105.213 40.989C104.27 40.989 104.27 40.989 104.27 40.076C104.27 39.346 104.27 39.346 104.995 39.352ZM106.135 43.552C105.602 43.596 105.061 43.591 104.524 43.613C104.324 43.613 104.262 43.539 104.266 43.347V42.002C104.266 41.753 104.34 41.657 104.585 41.683H105.14C105.468 41.6682 105.797 41.6887 106.122 41.744C106.339 41.7748 106.539 41.8832 106.683 42.0493C106.827 42.2154 106.907 42.428 106.907 42.648C106.907 42.868 106.827 43.0806 106.683 43.2467C106.539 43.4128 106.339 43.5212 106.122 43.552H106.135Z" fill="white"/>
<path d="M26.1595 41.746L26.5965 41.602C26.9328 41.5014 27.2204 41.2809 27.4047 40.9822C27.5891 40.6836 27.6573 40.3276 27.5965 39.982C27.5616 39.6409 27.4027 39.3246 27.15 39.0929C26.8973 38.8612 26.5683 38.7303 26.2255 38.725C25.2995 38.642 24.3695 38.69 23.4445 38.668C23.2135 38.668 23.1445 38.738 23.1445 38.968V43.936C23.1445 44.277 23.3275 44.242 23.5445 44.255C23.7615 44.268 23.9335 44.224 23.9195 43.914C23.8935 43.298 23.9195 42.683 23.9195 42.067C23.9195 41.953 23.8715 41.818 24.0595 41.767C24.3962 41.6959 24.7459 41.7177 25.0712 41.8299C25.3965 41.9421 25.6852 42.1405 25.9065 42.404C26.2735 42.928 26.6185 43.465 26.9635 44.004C26.9993 44.0869 27.0617 44.1555 27.1409 44.1989C27.22 44.2424 27.3114 44.2583 27.4005 44.244H28.1005C27.5812 43.3195 26.9271 42.4776 26.1595 41.746ZM24.1075 41.146C23.9455 41.146 23.9245 41.059 23.9245 40.932V39.539C23.9245 39.369 24.0035 39.325 24.1555 39.329H25.9555C26.1848 39.3305 26.4049 39.4186 26.5719 39.5757C26.7388 39.7328 26.8401 39.9473 26.8555 40.176C26.8633 40.3992 26.7852 40.617 26.6374 40.7844C26.4895 40.9518 26.283 41.0561 26.0605 41.076C25.4127 41.1509 24.7601 41.1756 24.1085 41.15L24.1075 41.146Z" fill="white"/>
<path d="M99.119 43.9842C98.685 43.1546 98.1136 42.4047 97.429 41.7662C97.529 41.6442 97.652 41.6662 97.752 41.6312C98.0971 41.5434 98.398 41.332 98.5976 41.037C98.7972 40.7421 98.8817 40.3842 98.8349 40.0312C98.8089 39.6696 98.6447 39.3319 98.3764 39.088C98.1082 38.8441 97.7564 38.7128 97.394 38.7212C96.543 38.6382 95.613 38.7212 94.726 38.6602C94.426 38.6602 94.377 38.7692 94.377 39.0352V43.8952C94.377 44.1742 94.456 44.2572 94.735 44.2572C95.014 44.2572 95.119 44.2002 95.106 43.9032C95.084 43.3032 95.106 42.6982 95.106 42.0952C95.106 41.9732 95.075 41.8372 95.237 41.7762C95.5311 41.7282 95.8318 41.7389 96.1219 41.8075C96.4119 41.8761 96.6855 42.0014 96.927 42.1762C97.3554 42.6536 97.7195 43.1852 98.0099 43.7572C98.0906 43.9373 98.2299 44.0848 98.4052 44.1756C98.5804 44.2664 98.7813 44.2952 98.9749 44.2572C99.2059 44.2462 99.272 44.2072 99.119 43.9842ZM95.299 41.1502C95.12 41.1502 95.099 41.0502 95.099 40.9052V39.5952C95.099 39.3952 95.1729 39.3292 95.3649 39.3372H97.2079C97.4396 39.3262 97.6662 39.4076 97.8378 39.5637C98.0094 39.7197 98.1119 39.9375 98.123 40.1692C98.134 40.4008 98.0525 40.6274 97.8965 40.799C97.7404 40.9706 97.5226 41.0732 97.291 41.0842C96.6293 41.1571 95.963 41.1798 95.2979 41.1522L95.299 41.1502Z" fill="white"/>
<path d="M69.2292 43.5919C68.7142 43.1549 68.7012 43.0919 68.9632 42.4609C68.9982 42.3779 69.0242 42.2949 69.0552 42.2119C69.1952 41.7749 69.1772 41.7749 68.7362 41.6839C68.5572 41.6579 68.4172 41.6839 68.3742 41.8939C68.3283 42.0651 68.2684 42.2324 68.1952 42.3939C67.9552 42.0939 67.7582 41.8569 67.5662 41.6079C67.2432 41.1709 67.2472 41.1709 67.6662 40.8529C67.8349 40.7483 67.9756 40.6043 68.0761 40.4331C68.1766 40.262 68.2339 40.0689 68.243 39.8706C68.252 39.6723 68.2126 39.4749 68.1281 39.2953C68.0437 39.1156 67.9167 38.9593 67.7582 38.8399C67.4795 38.6544 67.1462 38.5687 66.8126 38.5964C66.4789 38.6242 66.1645 38.7639 65.9202 38.9929C65.6988 39.2117 65.57 39.5073 65.5603 39.8185C65.5506 40.1297 65.6608 40.4326 65.8682 40.6649C66.1132 40.9789 66.1042 41.1019 65.7502 41.3159C65.44 41.462 65.1865 41.7062 65.0287 42.0107C64.871 42.3152 64.8177 42.6631 64.8772 43.0009C64.945 43.272 65.0742 43.524 65.2547 43.7375C65.4352 43.9509 65.6623 44.12 65.9185 44.2319C66.1747 44.3437 66.4531 44.3953 66.7323 44.3827C67.0116 44.37 67.2842 44.2934 67.5292 44.1589C67.7952 44.0409 67.9662 43.6789 68.2232 43.7219C68.4802 43.7649 68.6602 44.0759 68.8692 44.2589C68.9392 44.3159 69.0222 44.4469 69.1222 44.3509C69.2744 44.2204 69.3977 44.0597 69.4842 43.8789C69.5372 43.7479 69.3292 43.6789 69.2292 43.5919ZM66.8932 39.1819C66.9748 39.1778 67.0563 39.1901 67.1331 39.2178C67.2099 39.2456 67.2804 39.2884 67.3405 39.3437C67.4006 39.3989 67.4492 39.4656 67.4833 39.5398C67.5174 39.614 67.5364 39.6942 67.5392 39.7759C67.5392 40.0899 67.1292 40.6489 66.8752 40.6489C66.7002 40.6489 66.2752 40.0199 66.2752 39.7759C66.2769 39.6961 66.2943 39.6175 66.3264 39.5445C66.3584 39.4715 66.4046 39.4056 66.4621 39.3504C66.5197 39.2952 66.5876 39.252 66.6619 39.2231C66.7362 39.1941 66.8155 39.1801 66.8952 39.1819H66.8932ZM67.6532 43.2249C67.5256 43.3786 67.3662 43.5029 67.186 43.5892C67.0058 43.6756 66.809 43.7218 66.6092 43.7249C66.416 43.7254 66.2275 43.6648 66.0708 43.5519C65.914 43.4389 65.7969 43.2793 65.7362 43.0959C65.646 42.9291 65.6126 42.7375 65.6409 42.5501C65.6692 42.3626 65.7578 42.1895 65.8932 42.0569C65.9422 41.9997 65.9946 41.9456 66.0502 41.8949C66.4872 41.4849 66.5132 41.4849 66.8932 41.9469C67.1592 42.2659 67.4082 42.5929 67.6702 42.9079C67.6936 42.9277 67.7122 42.9526 67.7245 42.9807C67.7367 43.0088 67.7423 43.0394 67.7409 43.0701C67.7394 43.1007 67.731 43.1306 67.7161 43.1574C67.7012 43.1843 67.6804 43.2074 67.6552 43.2249H67.6532Z" fill="white"/>
<path d="M78.3653 40.4691C78.2727 39.9814 78.0143 39.5406 77.634 39.2215C77.2537 38.9025 76.7747 38.7246 76.2783 38.7181C75.5883 38.7181 74.8983 38.7181 74.2083 38.6831C73.9463 38.6831 73.8633 38.7571 73.8673 39.0241V43.9581C73.8673 44.1681 73.9063 44.2811 74.1553 44.2771H76.2983C76.633 44.2853 76.9641 44.2067 77.2594 44.049C77.5546 43.8913 77.8041 43.6598 77.9833 43.3771C78.2388 42.9443 78.4042 42.4643 78.4695 41.9659C78.5348 41.4676 78.4987 40.9611 78.3633 40.4771L78.3653 40.4691ZM77.5833 42.3951C77.5277 42.7419 77.3437 43.0551 77.0678 43.2726C76.792 43.49 76.4445 43.5959 76.0943 43.5691H75.5703C74.6363 43.5691 74.6363 43.5691 74.6363 42.6391V39.6661C74.6363 39.4171 74.7103 39.3301 74.9553 39.3431C75.3923 39.3741 75.7853 39.3691 76.1953 39.3741C76.5636 39.3865 76.9145 39.534 77.181 39.7885C77.4476 40.043 77.6111 40.3867 77.6403 40.7541C77.7392 41.2989 77.7198 41.8585 77.5833 42.3951Z" fill="white"/>
<path d="M18.8679 38.5702C18.4906 38.5543 18.1143 38.6207 17.7653 38.7649C17.4163 38.9091 17.1029 39.1277 16.8469 39.4053C16.5908 39.6829 16.3984 40.0129 16.2829 40.3725C16.1673 40.732 16.1315 41.1124 16.1779 41.4872C16.1562 41.8483 16.2081 42.2101 16.3306 42.5506C16.453 42.891 16.6434 43.203 16.8901 43.4676C17.1369 43.7322 17.4348 43.9439 17.7659 44.0897C18.097 44.2356 18.4543 44.3127 18.816 44.3162C19.1778 44.3197 19.5365 44.2497 19.8704 44.1103C20.2043 43.9709 20.5063 43.7651 20.7582 43.5053C21.01 43.2456 21.2064 42.9374 21.3355 42.5994C21.4646 42.2614 21.5235 41.9007 21.5089 41.5392C21.4869 39.7622 20.4529 38.5702 18.8679 38.5702ZM20.4919 42.6792C20.3192 43.0311 20.0381 43.3183 19.6899 43.4983C19.3417 43.6783 18.9449 43.7418 18.5579 43.6792C18.1444 43.6138 17.765 43.4111 17.4807 43.1038C17.1965 42.7965 17.0239 42.4025 16.9909 41.9852C16.9445 41.5481 16.9637 41.1066 17.0479 40.6752C17.1326 40.2857 17.3415 39.9343 17.6434 39.6739C17.9452 39.4136 18.3234 39.2584 18.7211 39.2317C19.1188 39.2051 19.5144 39.3085 19.8482 39.5263C20.1821 39.7441 20.436 40.0645 20.5719 40.4392C20.7056 40.8026 20.7656 41.1889 20.7484 41.5757C20.7313 41.9626 20.6372 42.3421 20.4719 42.6922L20.4919 42.6792Z" fill="white"/>
<path d="M127.356 38.5699C126.98 38.5619 126.607 38.6334 126.261 38.7797C125.916 38.9261 125.605 39.1439 125.349 39.4189C125.093 39.6939 124.899 40.0199 124.778 40.3755C124.657 40.731 124.613 41.1081 124.649 41.4819C124.616 41.8474 124.66 42.2156 124.78 42.5626C124.899 42.9095 125.09 43.2274 125.341 43.4953C125.591 43.7632 125.896 43.9752 126.234 44.1173C126.572 44.2594 126.937 44.3285 127.304 44.3199C127.669 44.3386 128.035 44.2788 128.375 44.1446C128.716 44.0105 129.024 43.805 129.279 43.542C129.534 43.279 129.729 42.9646 129.852 42.6198C129.976 42.275 130.024 41.9078 129.994 41.5429C130.037 41.1703 130.001 40.7926 129.888 40.4347C129.776 40.0769 129.589 39.7468 129.34 39.4661C129.091 39.1855 128.785 38.9606 128.443 38.8062C128.101 38.6517 127.731 38.5712 127.356 38.5699ZM128.989 42.6519C128.819 43.0128 128.536 43.3083 128.183 43.4935C127.83 43.6788 127.426 43.7435 127.033 43.6779C126.613 43.6058 126.231 43.3941 125.947 43.0772C125.663 42.7602 125.495 42.3566 125.47 41.9319V41.4949C125.424 41.1394 125.47 40.7783 125.601 40.4448C125.732 40.1114 125.945 39.8163 126.221 39.5869C126.45 39.4148 126.716 39.2988 126.998 39.248C127.279 39.1973 127.569 39.2133 127.844 39.2947C128.119 39.3762 128.37 39.5209 128.579 39.7171C128.788 39.9134 128.947 40.1558 129.046 40.4249C129.186 40.7838 129.254 41.1673 129.244 41.5527C129.234 41.9381 129.147 42.3177 128.989 42.6689V42.6519Z" fill="white"/>
<path d="M54.2864 40.9492C54.2531 40.4594 54.0752 39.9905 53.7753 39.6019C53.4753 39.2133 53.0668 38.9224 52.6014 38.7662C52.1324 38.576 51.6178 38.528 51.1217 38.6281C50.6256 38.7282 50.1699 38.972 49.8114 39.3292C49.478 39.6697 49.232 40.0858 49.0944 40.5421C48.9569 40.9983 48.9318 41.4811 49.0214 41.9492C49.0453 42.3818 49.1768 42.8017 49.4037 43.1709C49.6307 43.54 49.9461 43.8468 50.3214 44.0634C50.6966 44.2801 51.12 44.3999 51.5532 44.4119C51.9863 44.4239 52.4157 44.3277 52.8024 44.1322C53.2993 43.9115 53.7136 43.5392 53.9858 43.0685C54.258 42.5978 54.3741 42.0529 54.3174 41.5122C54.3167 41.3241 54.3064 41.1362 54.2864 40.9492ZM52.3864 43.5692C52.0989 43.6898 51.7861 43.7374 51.4757 43.7078C51.1654 43.6781 50.8672 43.5721 50.6078 43.3993C50.3484 43.2264 50.1358 42.992 49.989 42.717C49.8422 42.442 49.7657 42.1349 49.7664 41.8232C49.7359 41.4346 49.7697 41.0437 49.8664 40.6662C49.9529 40.2423 50.1937 39.8656 50.5422 39.6091C50.8906 39.3527 51.3219 39.2347 51.7524 39.2782C52.1647 39.2888 52.5606 39.4416 52.8733 39.7105C53.186 39.9795 53.3962 40.3481 53.4684 40.7542C53.5251 41.0122 53.5516 41.276 53.5474 41.5402C53.5908 41.9579 53.5016 42.3786 53.2925 42.7428C53.0834 43.107 52.765 43.3961 52.3824 43.5692H52.3864Z" fill="white"/>
<path d="M14.7674 40.12C14.7439 39.7594 14.59 39.4195 14.3344 39.164C14.0788 38.9084 13.739 38.7545 13.3784 38.731C12.5054 38.648 11.6324 38.679 10.7844 38.666C10.5484 38.666 10.4844 38.74 10.4844 38.966V43.974C10.4844 44.274 10.6544 44.253 10.8464 44.245C11.0384 44.237 11.2614 44.319 11.2464 43.979V42.546C11.2464 41.996 11.2464 42.005 11.8054 41.996C12.4442 42.0434 13.0865 42.0007 13.7134 41.869C14.0645 41.7448 14.3616 41.5025 14.5539 41.1834C14.7461 40.8644 14.8216 40.4885 14.7674 40.12ZM13.0604 41.299H12.2784C12.0164 41.299 11.5364 41.452 11.3314 41.255C11.1264 41.058 11.2574 40.613 11.2524 40.281C11.2524 39.342 11.2524 39.338 12.1824 39.347C12.5088 39.3282 12.8362 39.3399 13.1604 39.382C13.3983 39.4155 13.6151 39.537 13.7679 39.7224C13.9207 39.9079 13.9986 40.1438 13.986 40.3838C13.9735 40.6238 13.8715 40.8504 13.7001 41.0188C13.5288 41.1873 13.3005 41.2855 13.0604 41.294V41.299Z" fill="white"/>
<path d="M38.6775 44.0228C37.9925 42.3028 37.2775 40.5908 36.5775 38.8748C36.5654 38.8203 36.5367 38.7708 36.4953 38.7332C36.454 38.6956 36.402 38.6717 36.3465 38.6648C35.8225 38.5858 35.7045 38.6648 35.5165 39.1448C35.4165 39.3938 35.3245 39.6378 35.2325 39.8828C34.7085 41.2361 34.1875 42.5925 33.6695 43.9518C33.6385 44.0348 33.5515 44.1348 33.6345 44.2228C33.7175 44.3108 34.3765 44.2228 34.4425 44.0228C34.5865 43.6338 34.7265 43.2458 34.8795 42.8568C34.8945 42.7706 34.9417 42.6934 35.0115 42.6406C35.0813 42.5879 35.1685 42.5637 35.2555 42.5728H37.0595C37.1332 42.5627 37.2079 42.5809 37.2686 42.6238C37.3294 42.6666 37.3715 42.731 37.3865 42.8038C37.5085 43.1578 37.6705 43.5038 37.7795 43.8608C37.8885 44.2178 38.0245 44.2978 38.3865 44.2228C38.4115 44.1148 38.8595 44.4728 38.6775 44.0228ZM35.3595 41.9618C35.1155 41.9618 35.2595 41.7918 35.2855 41.6958C35.5435 40.9488 35.8705 40.2288 36.0755 39.3908C36.4075 40.2908 36.7045 41.0908 37.0315 41.9668C36.4505 41.9668 35.8965 41.9798 35.3595 41.9618Z" fill="white"/>
</svg>
