<?xml version="1.0" encoding="UTF-8" standalone="no"?>
<!DOCTYPE svg PUBLIC "-//W3C//DTD SVG 1.1//EN" "http://www.w3.org/Graphics/SVG/1.1/DTD/svg11.dtd">
<svg width="100%" height="100%" viewBox="0 0 188 42" version="1.1" xmlns="http://www.w3.org/2000/svg" xmlns:xlink="http://www.w3.org/1999/xlink" xml:space="preserve" xmlns:serif="http://www.serif.com/" style="fill-rule:evenodd;clip-rule:evenodd;stroke-linejoin:round;stroke-miterlimit:2;">
    <g id="Artboard1" transform="matrix(1,0,0,0.977778,0.0136786,0.0584811)">
        <rect x="-0.014" y="-0.06" width="187.947" height="42.644" style="fill:none;"/>
        <g transform="matrix(0.289147,0,0,0.295718,-14.4098,13.2564)">
            <g transform="matrix(1,0,0,1,243.02,-16.361)">
                <path d="M0,30.137L0,5.39L-10.994,24.534L-12.734,24.534L-23.728,5.39L-23.728,30.137L-26.699,30.137L-26.699,0L-23.643,0L-11.885,20.629L-0.042,0L2.971,0L2.971,30.137L0,30.137Z" style="fill:white;fill-rule:nonzero;"/>
            </g>
            <g transform="matrix(1,0,0,1,259.872,-8.3397)">
                <path d="M0,22.54C-2.406,22.54 -4.196,21.741 -5.37,20.142C-6.544,18.544 -7.131,16.159 -7.131,12.99L-7.131,0L-4.245,0L-4.245,12.48C-4.245,17.489 -2.533,19.993 0.891,19.993C1.741,19.993 2.575,19.852 3.396,19.569C4.216,19.286 4.973,18.876 5.667,18.338C6.36,17.801 6.983,17.164 7.534,16.428C8.086,15.692 8.532,14.857 8.872,13.923L8.872,0L11.758,0L11.758,18.38C11.758,19.173 12.097,19.569 12.776,19.569L12.776,22.116C12.437,22.172 12.161,22.201 11.949,22.201L11.503,22.201C10.824,22.172 10.272,21.932 9.848,21.479C9.423,21.027 9.211,20.418 9.211,19.654L9.211,17.107C8.249,18.833 6.94,20.17 5.285,21.118C3.629,22.067 1.868,22.54 0,22.54" style="fill:white;fill-rule:nonzero;"/>
            </g>
            <g transform="matrix(1,0,0,1,296.758,-8.721)">
                <path d="M0,22.497L-2.886,22.497L-2.886,10.145C-2.886,7.513 -3.276,5.603 -4.054,4.415C-4.832,3.226 -6.028,2.632 -7.64,2.632C-8.489,2.632 -9.338,2.787 -10.187,3.099C-11.036,3.41 -11.821,3.849 -12.543,4.415C-13.265,4.981 -13.909,5.653 -14.474,6.431C-15.041,7.209 -15.451,8.051 -15.705,8.956L-15.705,22.497L-18.592,22.497L-18.592,0.382L-15.96,0.382L-15.96,5.391C-15.055,3.778 -13.76,2.477 -12.076,1.486C-10.393,0.495 -8.56,0 -6.579,0C-5.363,0 -4.33,0.227 -3.481,0.679C-2.632,1.132 -1.952,1.769 -1.443,2.589C-0.934,3.41 -0.567,4.415 -0.34,5.603C-0.113,6.792 0,8.107 0,9.551L0,22.497Z" style="fill:white;fill-rule:nonzero;"/>
            </g>
            <g transform="matrix(1,0,0,1,0,-185.24)">
                <path d="M302.913,176.901L305.799,176.901L305.799,199.016L302.913,199.016L302.913,176.901ZM302.913,168.03L305.799,168.03L305.799,172.275L302.913,172.275L302.913,168.03Z" style="fill:white;fill-rule:nonzero;"/>
            </g>
            <g transform="matrix(1,0,0,1,310.638,2.8247)">
                <path d="M0,-0.17C0,-1.726 0.268,-3.197 0.807,-4.585C1.344,-5.97 2.101,-7.18 3.077,-8.214C4.054,-9.246 5.221,-10.06 6.579,-10.654C7.938,-11.248 9.437,-11.546 11.078,-11.546C13.172,-11.546 14.998,-11.072 16.554,-10.124C18.11,-9.175 19.285,-7.895 20.077,-6.282L17.276,-5.391C16.653,-6.523 15.783,-7.407 14.665,-8.044C13.547,-8.68 12.31,-8.999 10.951,-8.999C9.819,-8.999 8.765,-8.772 7.789,-8.32C6.813,-7.867 5.964,-7.251 5.242,-6.473C4.521,-5.695 3.954,-4.768 3.544,-3.693C3.134,-2.617 2.929,-1.443 2.929,-0.17C2.929,1.076 3.141,2.25 3.566,3.353C3.99,4.457 4.57,5.412 5.306,6.218C6.041,7.025 6.898,7.662 7.874,8.128C8.85,8.596 9.89,8.829 10.994,8.829C11.701,8.829 12.401,8.73 13.095,8.532C13.788,8.334 14.432,8.058 15.026,7.704C15.62,7.351 16.13,6.947 16.554,6.494C16.979,6.042 17.276,5.56 17.446,5.051L20.29,5.9C19.978,6.693 19.526,7.422 18.932,8.086C18.337,8.751 17.637,9.332 16.83,9.826C16.024,10.322 15.132,10.704 14.156,10.972C13.18,11.241 12.168,11.376 11.121,11.376C9.508,11.376 8.023,11.071 6.664,10.463C5.306,9.855 4.131,9.02 3.141,7.959C2.15,6.898 1.379,5.674 0.828,4.287C0.276,2.901 0,1.415 0,-0.17" style="fill:white;fill-rule:nonzero;"/>
            </g>
            <g transform="matrix(1,0,0,1,0,-185.24)">
                <path d="M335.469,176.901L338.355,176.901L338.355,199.016L335.469,199.016L335.469,176.901ZM335.469,168.03L338.355,168.03L338.355,172.275L335.469,172.275L335.469,168.03Z" style="fill:white;fill-rule:nonzero;"/>
            </g>
            <g transform="matrix(1,0,0,1,355.206,2.4427)">
                <path d="M0,9.211C1.189,9.211 2.271,8.956 3.247,8.447C4.224,7.938 5.058,7.266 5.752,6.431C6.445,5.596 6.975,4.648 7.343,3.587C7.711,2.526 7.895,1.429 7.895,0.297C7.895,-0.891 7.683,-2.023 7.258,-3.099C6.834,-4.174 6.254,-5.122 5.518,-5.943C4.782,-6.763 3.912,-7.414 2.908,-7.895C1.903,-8.376 0.821,-8.617 -0.339,-8.617C-1.076,-8.617 -1.846,-8.468 -2.653,-8.171C-3.46,-7.874 -4.21,-7.477 -4.903,-6.983C-5.596,-6.487 -6.191,-5.907 -6.685,-5.242C-7.181,-4.577 -7.485,-3.877 -7.598,-3.141L-7.598,3.651C-7.258,4.443 -6.827,5.178 -6.303,5.858C-5.78,6.537 -5.186,7.125 -4.521,7.619C-3.856,8.115 -3.141,8.504 -2.377,8.787C-1.613,9.07 -0.821,9.211 0,9.211M0.807,11.758C-1.061,11.758 -2.71,11.284 -4.139,10.336C-5.568,9.388 -6.721,8.192 -7.598,6.749L-7.598,20.375L-10.484,20.375L-10.484,-10.782L-7.895,-10.782L-7.895,-6.494C-6.99,-7.881 -5.815,-9.005 -4.372,-9.869C-2.929,-10.732 -1.358,-11.164 0.34,-11.164C1.868,-11.164 3.269,-10.845 4.542,-10.209C5.815,-9.572 6.919,-8.723 7.853,-7.662C8.787,-6.601 9.515,-5.376 10.039,-3.99C10.562,-2.603 10.824,-1.174 10.824,0.297C10.824,1.854 10.583,3.325 10.102,4.712C9.621,6.098 8.935,7.315 8.044,8.362C7.153,9.409 6.091,10.237 4.86,10.845C3.629,11.453 2.278,11.758 0.807,11.758" style="fill:white;fill-rule:nonzero;"/>
            </g>
            <g transform="matrix(1,0,0,1,377.151,-6.5139)">
                <path d="M0,18.507C1.5,18.507 2.879,18.225 4.139,17.658C5.398,17.093 6.353,16.342 7.004,15.409C7.258,15.154 7.449,14.878 7.577,14.581C7.704,14.284 7.768,14.008 7.768,13.753L7.768,10.145C6.805,9.778 5.808,9.494 4.775,9.296C3.742,9.099 2.688,8.999 1.613,8.999C-0.424,8.999 -2.08,9.423 -3.353,10.273C-4.627,11.122 -5.264,12.239 -5.264,13.626C-5.264,14.305 -5.13,14.941 -4.86,15.536C-4.591,16.13 -4.224,16.647 -3.756,17.085C-3.29,17.524 -2.731,17.87 -2.08,18.125C-1.429,18.38 -0.736,18.507 0,18.507M-0.679,20.714C-1.727,20.714 -2.695,20.537 -3.587,20.184C-4.478,19.83 -5.257,19.342 -5.921,18.719C-6.587,18.097 -7.103,17.369 -7.471,16.534C-7.839,15.699 -8.023,14.8 -8.023,13.838C-8.023,12.876 -7.796,11.985 -7.343,11.164C-6.891,10.343 -6.254,9.636 -5.433,9.041C-4.613,8.447 -3.636,7.988 -2.505,7.662C-1.373,7.337 -0.127,7.174 1.231,7.174C2.362,7.174 3.509,7.273 4.669,7.471C5.829,7.669 6.862,7.952 7.768,8.32L7.768,6.325C7.768,4.372 7.216,2.823 6.113,1.677C5.009,0.531 3.481,-0.042 1.528,-0.042C0.396,-0.042 -0.764,0.185 -1.952,0.637C-3.141,1.09 -4.344,1.741 -5.56,2.589L-6.579,0.679C-3.721,-1.245 -0.948,-2.207 1.741,-2.207C4.514,-2.207 6.692,-1.429 8.277,0.128C9.862,1.684 10.654,3.835 10.654,6.58L10.654,16.555C10.654,17.347 11.008,17.743 11.716,17.743L11.716,20.29C11.234,20.375 10.866,20.417 10.612,20.417C9.876,20.417 9.302,20.234 8.893,19.866C8.482,19.498 8.263,18.989 8.235,18.338L8.15,16.597C7.131,17.928 5.85,18.946 4.309,19.653C2.766,20.36 1.103,20.714 -0.679,20.714" style="fill:white;fill-rule:nonzero;"/>
            </g>
            <g transform="matrix(1,0,0,1,394.172,14.0307)">
                <path d="M0,-31.241L2.886,-31.241L2.886,-5.263C2.886,-4.442 3.113,-3.799 3.566,-3.332C4.018,-2.865 4.655,-2.632 5.476,-2.632C5.787,-2.632 6.155,-2.674 6.579,-2.759C7.004,-2.844 7.4,-2.957 7.768,-3.099L8.277,-0.764C7.74,-0.537 7.082,-0.354 6.303,-0.212C5.525,-0.071 4.853,0 4.288,0C2.957,0 1.91,-0.375 1.146,-1.125C0.382,-1.874 0,-2.929 0,-4.287L0,-31.241Z" style="fill:white;fill-rule:nonzero;"/>
            </g>
            <g transform="matrix(1,0,0,1,0,-185.24)">
                <path d="M405.59,176.901L408.476,176.901L408.476,199.016L405.59,199.016L405.59,176.901ZM405.59,168.03L408.476,168.03L408.476,172.275L405.59,172.275L405.59,168.03Z" style="fill:white;fill-rule:nonzero;"/>
            </g>
            <g transform="matrix(1,0,0,1,424.563,-14.6633)">
                <path d="M0,26.317C0.707,26.317 1.465,26.176 2.271,25.893C3.077,25.61 3.834,25.221 4.542,24.725C5.249,24.231 5.85,23.65 6.346,22.985C6.841,22.32 7.145,21.605 7.258,20.841L7.258,14.007C6.975,13.243 6.565,12.529 6.028,11.864C5.49,11.199 4.874,10.612 4.181,10.102C3.488,9.593 2.745,9.197 1.953,8.914C1.16,8.631 0.382,8.489 -0.382,8.489C-1.571,8.489 -2.646,8.744 -3.608,9.253C-4.57,9.763 -5.398,10.435 -6.091,11.269C-6.785,12.104 -7.315,13.059 -7.683,14.135C-8.051,15.211 -8.234,16.314 -8.234,17.445C-8.234,18.634 -8.023,19.766 -7.598,20.841C-7.174,21.917 -6.594,22.857 -5.858,23.664C-5.122,24.471 -4.252,25.115 -3.247,25.595C-2.243,26.077 -1.161,26.317 0,26.317M-0.637,28.864C-2.165,28.864 -3.58,28.545 -4.881,27.909C-6.183,27.272 -7.301,26.43 -8.234,25.383C-9.168,24.337 -9.897,23.127 -10.421,21.754C-10.945,20.382 -11.206,18.946 -11.206,17.445C-11.206,15.89 -10.951,14.411 -10.442,13.01C-9.932,11.609 -9.232,10.385 -8.341,9.338C-7.449,8.291 -6.388,7.464 -5.157,6.855C-3.926,6.247 -2.575,5.942 -1.103,5.942C0.764,5.942 2.42,6.431 3.863,7.407C5.306,8.383 6.437,9.565 7.258,10.951L7.258,-2.547L10.145,-2.547L10.145,24.704C10.145,25.496 10.485,25.893 11.164,25.893L11.164,28.439C10.739,28.524 10.4,28.567 10.145,28.567C9.466,28.567 8.872,28.348 8.362,27.909C7.853,27.47 7.598,26.94 7.598,26.317L7.598,24.152C6.721,25.595 5.532,26.741 4.033,27.59C2.532,28.439 0.976,28.864 -0.637,28.864" style="fill:white;fill-rule:nonzero;"/>
            </g>
            <g transform="matrix(1,0,0,1,447.485,-6.5139)">
                <path d="M0,18.507C1.5,18.507 2.879,18.225 4.139,17.658C5.398,17.093 6.353,16.342 7.004,15.409C7.258,15.154 7.449,14.878 7.577,14.581C7.704,14.284 7.768,14.008 7.768,13.753L7.768,10.145C6.805,9.778 5.808,9.494 4.775,9.296C3.742,9.099 2.688,8.999 1.613,8.999C-0.424,8.999 -2.08,9.423 -3.353,10.273C-4.627,11.122 -5.264,12.239 -5.264,13.626C-5.264,14.305 -5.13,14.941 -4.86,15.536C-4.591,16.13 -4.224,16.647 -3.756,17.085C-3.29,17.524 -2.731,17.87 -2.08,18.125C-1.429,18.38 -0.736,18.507 0,18.507M-0.679,20.714C-1.727,20.714 -2.695,20.537 -3.587,20.184C-4.478,19.83 -5.257,19.342 -5.921,18.719C-6.587,18.097 -7.103,17.369 -7.471,16.534C-7.839,15.699 -8.023,14.8 -8.023,13.838C-8.023,12.876 -7.796,11.985 -7.343,11.164C-6.891,10.343 -6.254,9.636 -5.433,9.041C-4.613,8.447 -3.636,7.988 -2.505,7.662C-1.373,7.337 -0.127,7.174 1.231,7.174C2.362,7.174 3.509,7.273 4.669,7.471C5.829,7.669 6.862,7.952 7.768,8.32L7.768,6.325C7.768,4.372 7.216,2.823 6.113,1.677C5.009,0.531 3.481,-0.042 1.528,-0.042C0.396,-0.042 -0.764,0.185 -1.952,0.637C-3.141,1.09 -4.344,1.741 -5.56,2.589L-6.579,0.679C-3.721,-1.245 -0.948,-2.207 1.741,-2.207C4.513,-2.207 6.692,-1.429 8.277,0.128C9.862,1.684 10.654,3.835 10.654,6.58L10.654,16.555C10.654,17.347 11.008,17.743 11.715,17.743L11.715,20.29C11.234,20.375 10.866,20.417 10.612,20.417C9.876,20.417 9.302,20.234 8.893,19.866C8.482,19.498 8.263,18.989 8.235,18.338L8.15,16.597C7.131,17.928 5.85,18.946 4.309,19.653C2.766,20.36 1.103,20.714 -0.679,20.714" style="fill:white;fill-rule:nonzero;"/>
            </g>
            <g transform="matrix(1,0,0,1,474.099,-14.6633)">
                <path d="M0,26.317C0.707,26.317 1.465,26.176 2.271,25.893C3.077,25.61 3.834,25.221 4.542,24.725C5.249,24.231 5.85,23.65 6.346,22.985C6.841,22.32 7.145,21.605 7.258,20.841L7.258,14.007C6.975,13.243 6.565,12.529 6.028,11.864C5.49,11.199 4.874,10.612 4.181,10.102C3.488,9.593 2.745,9.197 1.953,8.914C1.16,8.631 0.382,8.489 -0.382,8.489C-1.571,8.489 -2.646,8.744 -3.608,9.253C-4.57,9.763 -5.398,10.435 -6.091,11.269C-6.785,12.104 -7.315,13.059 -7.683,14.135C-8.051,15.211 -8.234,16.314 -8.234,17.445C-8.234,18.634 -8.023,19.766 -7.598,20.841C-7.174,21.917 -6.594,22.857 -5.858,23.664C-5.122,24.471 -4.252,25.115 -3.247,25.595C-2.243,26.077 -1.161,26.317 0,26.317M-0.637,28.864C-2.165,28.864 -3.58,28.545 -4.881,27.909C-6.183,27.272 -7.301,26.43 -8.234,25.383C-9.168,24.337 -9.897,23.127 -10.421,21.754C-10.945,20.382 -11.206,18.946 -11.206,17.445C-11.206,15.89 -10.951,14.411 -10.442,13.01C-9.933,11.609 -9.232,10.385 -8.341,9.338C-7.449,8.291 -6.388,7.464 -5.157,6.855C-3.926,6.247 -2.575,5.942 -1.103,5.942C0.764,5.942 2.42,6.431 3.863,7.407C5.306,8.383 6.437,9.565 7.258,10.951L7.258,-2.547L10.145,-2.547L10.145,24.704C10.145,25.496 10.485,25.893 11.164,25.893L11.164,28.439C10.739,28.524 10.4,28.567 10.145,28.567C9.466,28.567 8.872,28.348 8.362,27.909C7.853,27.47 7.598,26.94 7.598,26.317L7.598,24.152C6.721,25.595 5.532,26.741 4.033,27.59C2.532,28.439 0.976,28.864 -0.637,28.864" style="fill:white;fill-rule:nonzero;"/>
            </g>
            <g transform="matrix(1,0,0,1,511.325,-14.6633)">
                <path d="M0,26.317C0.707,26.317 1.465,26.176 2.271,25.893C3.077,25.61 3.834,25.221 4.542,24.725C5.249,24.231 5.85,23.65 6.346,22.985C6.841,22.32 7.145,21.605 7.258,20.841L7.258,14.007C6.975,13.243 6.565,12.529 6.028,11.864C5.49,11.199 4.874,10.612 4.181,10.102C3.488,9.593 2.745,9.197 1.953,8.914C1.16,8.631 0.382,8.489 -0.382,8.489C-1.571,8.489 -2.646,8.744 -3.608,9.253C-4.57,9.763 -5.398,10.435 -6.091,11.269C-6.785,12.104 -7.315,13.059 -7.683,14.135C-8.051,15.211 -8.234,16.314 -8.234,17.445C-8.234,18.634 -8.023,19.766 -7.598,20.841C-7.174,21.917 -6.594,22.857 -5.858,23.664C-5.122,24.471 -4.252,25.115 -3.247,25.595C-2.243,26.077 -1.161,26.317 0,26.317M-0.637,28.864C-2.165,28.864 -3.58,28.545 -4.881,27.909C-6.183,27.272 -7.301,26.43 -8.234,25.383C-9.168,24.337 -9.897,23.127 -10.421,21.754C-10.945,20.382 -11.206,18.946 -11.206,17.445C-11.206,15.89 -10.951,14.411 -10.442,13.01C-9.933,11.609 -9.232,10.385 -8.341,9.338C-7.449,8.291 -6.388,7.464 -5.157,6.855C-3.926,6.247 -2.575,5.942 -1.103,5.942C0.764,5.942 2.42,6.431 3.863,7.407C5.306,8.383 6.437,9.565 7.258,10.951L7.258,-2.547L10.145,-2.547L10.145,24.704C10.145,25.496 10.485,25.893 11.164,25.893L11.164,28.439C10.739,28.524 10.4,28.567 10.145,28.567C9.466,28.567 8.872,28.348 8.362,27.909C7.853,27.47 7.598,26.94 7.598,26.317L7.598,24.152C6.721,25.595 5.532,26.741 4.033,27.59C2.532,28.439 0.976,28.864 -0.637,28.864" style="fill:white;fill-rule:nonzero;"/>
            </g>
            <g transform="matrix(1,0,0,1,545.707,3.9283)">
                <path d="M0,-2.377C-0.085,-3.566 -0.361,-4.648 -0.828,-5.624C-1.294,-6.601 -1.889,-7.442 -2.611,-8.15C-3.332,-8.857 -4.167,-9.409 -5.115,-9.805C-6.063,-10.201 -7.075,-10.4 -8.15,-10.4C-9.225,-10.4 -10.244,-10.201 -11.206,-9.805C-12.168,-9.409 -13.01,-8.857 -13.731,-8.15C-14.453,-7.442 -15.034,-6.593 -15.472,-5.603C-15.911,-4.612 -16.172,-3.537 -16.257,-2.377L0,-2.377ZM-8.15,10.272C-9.763,10.272 -11.242,9.968 -12.586,9.36C-13.93,8.751 -15.097,7.916 -16.088,6.855C-17.078,5.794 -17.849,4.57 -18.401,3.183C-18.953,1.797 -19.228,0.311 -19.228,-1.274C-19.228,-2.829 -18.953,-4.294 -18.401,-5.667C-17.849,-7.039 -17.085,-8.241 -16.109,-9.275C-15.132,-10.308 -13.965,-11.128 -12.607,-11.737C-11.248,-12.345 -9.778,-12.649 -8.192,-12.649C-6.579,-12.649 -5.101,-12.345 -3.756,-11.737C-2.413,-11.128 -1.259,-10.3 -0.297,-9.254C0.665,-8.206 1.415,-7.004 1.953,-5.646C2.49,-4.287 2.759,-2.844 2.759,-1.316L2.759,-0.637C2.759,-0.41 2.745,-0.255 2.716,-0.17L-16.215,-0.17C-16.13,1.019 -15.854,2.115 -15.387,3.12C-14.92,4.125 -14.319,4.995 -13.583,5.73C-12.847,6.467 -12.006,7.04 -11.057,7.45C-10.11,7.86 -9.098,8.065 -8.023,8.065C-7.315,8.065 -6.608,7.966 -5.9,7.768C-5.193,7.57 -4.542,7.301 -3.947,6.961C-3.353,6.622 -2.816,6.205 -2.335,5.709C-1.853,5.214 -1.486,4.669 -1.231,4.075L1.273,4.754C0.934,5.575 0.452,6.318 -0.17,6.982C-0.793,7.648 -1.514,8.228 -2.335,8.723C-3.156,9.219 -4.061,9.6 -5.051,9.869C-6.042,10.138 -7.075,10.272 -8.15,10.272" style="fill:white;fill-rule:nonzero;"/>
            </g>
            <g transform="matrix(1,0,0,1,214.239,57.335)">
                <path d="M0,-1.08C0,-4.422 0.629,-7.713 1.889,-10.952C3.149,-14.191 4.987,-17.095 7.404,-19.667C9.82,-22.238 12.751,-24.32 16.196,-25.914C19.64,-27.507 23.574,-28.305 27.996,-28.305C33.291,-28.305 37.881,-27.212 41.763,-25.027C45.645,-22.841 48.537,-19.949 50.44,-16.351L38.948,-8.176C38.434,-9.512 37.753,-10.617 36.904,-11.492C36.056,-12.366 35.117,-13.06 34.089,-13.574C33.06,-14.088 31.993,-14.448 30.889,-14.654C29.782,-14.859 28.716,-14.962 27.688,-14.962C25.528,-14.962 23.664,-14.538 22.096,-13.69C20.527,-12.841 19.243,-11.735 18.24,-10.374C17.237,-9.011 16.491,-7.468 16.004,-5.746C15.514,-4.023 15.271,-2.314 15.271,-0.617C15.271,1.286 15.553,3.111 16.119,4.859C16.684,6.607 17.507,8.15 18.587,9.486C19.667,10.824 20.99,11.89 22.559,12.687C24.127,13.485 25.887,13.882 27.842,13.882C28.87,13.882 29.925,13.767 31.004,13.535C32.084,13.304 33.125,12.918 34.128,12.378C35.13,11.838 36.029,11.144 36.827,10.296C37.624,9.448 38.254,8.406 38.717,7.172L50.98,14.499C50.157,16.505 48.909,18.305 47.239,19.898C45.568,21.492 43.665,22.829 41.532,23.908C39.398,24.988 37.109,25.811 34.667,26.376C32.225,26.942 29.847,27.225 27.533,27.225C23.471,27.225 19.756,26.415 16.389,24.795C13.021,23.176 10.116,21.03 7.674,18.355C5.231,15.683 3.342,12.648 2.005,9.255C0.668,5.861 0,2.417 0,-1.08" style="fill:white;fill-rule:nonzero;"/>
            </g>
            <g transform="matrix(1,0,0,1,281.956,56.7949)">
                <path d="M0,0C0,1.851 0.257,3.638 0.772,5.36C1.285,7.083 2.056,8.613 3.085,9.949C4.113,11.287 5.411,12.367 6.98,13.188C8.548,14.011 10.412,14.422 12.572,14.422C14.731,14.422 16.607,13.998 18.202,13.15C19.795,12.301 21.094,11.196 22.096,9.834C23.099,8.472 23.844,6.916 24.333,5.167C24.821,3.42 25.066,1.646 25.066,-0.154C25.066,-2.005 24.808,-3.791 24.294,-5.514C23.78,-7.237 22.995,-8.754 21.942,-10.065C20.888,-11.376 19.576,-12.429 18.009,-13.227C16.44,-14.023 14.602,-14.422 12.494,-14.422C10.335,-14.422 8.47,-14.01 6.903,-13.188C5.334,-12.365 4.036,-11.272 3.008,-9.911C1.979,-8.548 1.221,-7.005 0.733,-5.283C0.243,-3.56 0,-1.799 0,0M12.417,27.765C8.252,27.765 4.473,26.969 1.08,25.374C-2.314,23.781 -5.219,21.685 -7.635,19.088C-10.052,16.493 -11.929,13.523 -13.265,10.18C-14.603,6.839 -15.271,3.393 -15.271,-0.154C-15.271,-3.753 -14.577,-7.223 -13.188,-10.566C-11.8,-13.908 -9.86,-16.852 -7.365,-19.397C-4.872,-21.942 -1.916,-23.973 1.504,-25.49C4.923,-27.006 8.664,-27.765 12.726,-27.765C16.891,-27.765 20.67,-26.967 24.063,-25.374C27.457,-23.78 30.361,-21.672 32.778,-19.05C35.194,-16.428 37.059,-13.445 38.37,-10.103C39.681,-6.761 40.337,-3.342 40.337,0.154C40.337,3.754 39.643,7.211 38.254,10.528C36.866,13.844 34.938,16.775 32.47,19.32C30.002,21.865 27.058,23.909 23.639,25.451C20.219,26.993 16.479,27.765 12.417,27.765" style="fill:white;fill-rule:nonzero;"/>
            </g>
            <g transform="matrix(1,0,0,1,343.733,59.2636)">
                <path d="M0,-5.091L9.486,-5.091C10.412,-5.091 11.272,-5.604 12.07,-6.633C12.867,-7.661 13.266,-9.101 13.266,-10.952C13.266,-12.854 12.803,-14.307 11.878,-15.31C10.952,-16.313 10.026,-16.814 9.101,-16.814L0,-16.814L0,-5.091ZM-15.039,24.834L-15.039,-29.925L10.104,-29.925C12.776,-29.925 15.244,-29.372 17.508,-28.267C19.77,-27.161 21.711,-25.722 23.33,-23.948C24.95,-22.174 26.223,-20.142 27.148,-17.855C28.074,-15.566 28.536,-13.266 28.536,-10.952C28.536,-7.764 27.842,-4.795 26.454,-2.044C25.066,0.707 23.138,2.957 20.67,4.704L32.238,24.834L15.271,24.834L5.63,8.02L0,8.02L0,24.834L-15.039,24.834Z" style="fill:white;fill-rule:nonzero;"/>
            </g>
            <g transform="matrix(1,0,0,1,395.791,59.2636)">
                <path d="M0,-5.091L9.486,-5.091C10.412,-5.091 11.272,-5.604 12.07,-6.633C12.867,-7.661 13.266,-9.101 13.266,-10.952C13.266,-12.854 12.803,-14.307 11.878,-15.31C10.952,-16.313 10.026,-16.814 9.101,-16.814L0,-16.814L0,-5.091ZM-15.039,24.834L-15.039,-29.925L10.104,-29.925C12.776,-29.925 15.244,-29.372 17.508,-28.267C19.77,-27.161 21.711,-25.722 23.33,-23.948C24.95,-22.174 26.223,-20.142 27.148,-17.855C28.074,-15.566 28.536,-13.266 28.536,-10.952C28.536,-7.764 27.842,-4.795 26.454,-2.044C25.066,0.707 23.138,2.957 20.67,4.704L32.238,24.834L15.271,24.834L5.63,8.02L0,8.02L0,24.834L-15.039,24.834Z" style="fill:white;fill-rule:nonzero;"/>
            </g>
            <g transform="matrix(1,0,0,1,0,-68.3699)">
                <rect x="432.81" y="97.709" width="15.039" height="54.758" style="fill:white;"/>
            </g>
            <g transform="matrix(1,0,0,1,496.282,42.4497)">
                <path d="M0,28.536L0,41.647L-39.026,41.647L-39.026,-13.111L-0.694,-13.111L-0.694,-0L-23.986,-0L-23.986,7.712L-4.088,7.712L-4.088,19.898L-23.986,19.898L-23.986,28.536L0,28.536Z" style="fill:white;fill-rule:nonzero;"/>
            </g>
            <g transform="matrix(1,0,0,1,518.339,56.2547)">
                <path d="M0,0.926L0,27.842L-15.039,27.842L-15.039,-26.916L-3.316,-26.916L18.664,0.926L18.664,-26.916L33.704,-26.916L33.704,27.842L21.75,27.842L0,0.926Z" style="fill:white;fill-rule:nonzero;"/>
            </g>
            <g transform="matrix(1,0,0,1,604.101,70.9856)">
                <path d="M0,-28.536L-15.733,-28.536L-15.733,13.111L-30.773,13.111L-30.773,-28.536L-46.584,-28.536L-46.584,-41.647L0,-41.647L0,-28.536Z" style="fill:white;fill-rule:nonzero;"/>
            </g>
            <g transform="matrix(1,0,0,1,648.602,42.4497)">
                <path d="M0,28.536L0,41.647L-39.026,41.647L-39.026,-13.111L-0.694,-13.111L-0.694,-0L-23.986,-0L-23.986,7.712L-4.088,7.712L-4.088,19.898L-23.986,19.898L-23.986,28.536L0,28.536Z" style="fill:white;fill-rule:nonzero;"/>
            </g>
            <g transform="matrix(1,0,0,1,688.783,66.4355)">
                <path d="M0,-19.204C-1.543,-20.13 -3.137,-20.952 -4.782,-21.672C-6.17,-22.289 -7.726,-22.868 -9.448,-23.408C-11.171,-23.947 -12.854,-24.217 -14.499,-24.217C-15.837,-24.217 -16.904,-24.011 -17.7,-23.6C-18.498,-23.188 -18.896,-22.494 -18.896,-21.518C-18.896,-20.797 -18.664,-20.207 -18.202,-19.744C-17.739,-19.281 -17.071,-18.857 -16.196,-18.471C-15.323,-18.086 -14.256,-17.712 -12.995,-17.353C-11.736,-16.993 -10.31,-16.555 -8.715,-16.042C-6.197,-15.271 -3.922,-14.423 -1.889,-13.497C0.141,-12.571 1.876,-11.478 3.316,-10.219C4.755,-8.958 5.862,-7.429 6.633,-5.63C7.404,-3.83 7.79,-1.645 7.79,0.926C7.79,4.217 7.184,6.98 5.977,9.216C4.768,11.453 3.174,13.24 1.195,14.576C-0.785,15.914 -3.021,16.878 -5.514,17.469C-8.009,18.059 -10.515,18.356 -13.034,18.356C-15.039,18.356 -17.096,18.201 -19.204,17.893C-21.313,17.584 -23.407,17.148 -25.49,16.582C-27.572,16.017 -29.577,15.348 -31.506,14.576C-33.434,13.805 -35.221,12.932 -36.866,11.954L-30.387,-1.234C-28.588,-0.103 -26.712,0.9 -24.757,1.774C-23.112,2.545 -21.248,3.239 -19.165,3.856C-17.083,4.473 -14.962,4.782 -12.803,4.782C-11.158,4.782 -10.014,4.564 -9.371,4.126C-8.728,3.69 -8.407,3.111 -8.407,2.391C-8.407,1.62 -8.728,0.964 -9.371,0.424C-10.014,-0.116 -10.901,-0.59 -12.032,-1.003C-13.163,-1.414 -14.461,-1.824 -15.926,-2.237C-17.392,-2.647 -18.947,-3.136 -20.592,-3.702C-23.01,-4.524 -25.092,-5.411 -26.839,-6.363C-28.588,-7.314 -30.028,-8.394 -31.158,-9.602C-32.29,-10.81 -33.125,-12.186 -33.665,-13.728C-34.205,-15.271 -34.475,-17.044 -34.475,-19.05C-34.475,-22.083 -33.923,-24.757 -32.817,-27.071C-31.711,-29.384 -30.207,-31.313 -28.305,-32.855C-26.403,-34.397 -24.231,-35.567 -21.788,-36.364C-19.346,-37.161 -16.763,-37.56 -14.037,-37.56C-12.032,-37.56 -10.078,-37.367 -8.175,-36.981C-6.274,-36.596 -4.435,-36.106 -2.661,-35.516C-0.887,-34.924 0.771,-34.282 2.314,-33.588C3.856,-32.894 5.244,-32.238 6.479,-31.621L0,-19.204Z" style="fill:white;fill-rule:nonzero;"/>
            </g>
            <g transform="matrix(1,0,0,1,144.529,-12.2741)">
                <path d="M0,100.645C0.55,100.093 1.072,99.522 1.604,98.958C1.713,98.843 1.824,98.728 1.932,98.612C-8.344,99.73 -18.874,97.999 -28.528,93.326C-56.372,79.848 -68.06,46.228 -54.582,18.384C-49.321,7.52 -40.738,-1.301 -30.119,-6.857C-35.162,-6.619 -40.086,-5.733 -44.82,-4.32C-50.782,2.331 -55.775,9.912 -59.586,18.271C-69.456,39.911 -70.307,64.099 -61.982,86.379C-61.419,87.892 -60.806,89.4 -60.154,90.894C-59.934,91.397 -59.684,91.887 -59.454,92.387C-59.039,93.292 -58.627,94.198 -58.184,95.086C-53.225,98.54 -47.801,101.357 -42.036,103.432C-41.701,103.552 -41.368,103.674 -41.031,103.788C-40.163,104.086 -39.29,104.373 -38.407,104.636C-37.34,104.952 -36.266,105.246 -35.184,105.51C-35.071,105.538 -34.956,105.562 -34.842,105.589C-34.274,105.726 -33.7,105.846 -33.127,105.968C-32.189,106.166 -31.247,106.349 -30.299,106.508C-29.827,106.589 -29.358,106.68 -28.883,106.751C-28.868,106.753 -28.853,106.754 -28.839,106.756C-27.454,106.959 -26.058,107.113 -24.655,107.231C-24.367,107.256 -24.078,107.276 -23.789,107.297C-23.649,107.308 -23.509,107.319 -23.368,107.328C-21.828,107.43 -20.283,107.502 -18.728,107.502C-17.329,107.502 -15.935,107.444 -14.544,107.36C-14.395,107.351 -14.246,107.34 -14.097,107.33C-13.818,107.312 -13.541,107.288 -13.263,107.267C-12.176,107.181 -11.093,107.071 -10.014,106.935C-9.645,106.888 -9.276,106.846 -8.909,106.794C-8.021,106.667 -7.14,106.501 -6.258,106.34C-5.672,105.855 -5.109,105.353 -4.539,104.857C-4.068,104.447 -3.583,104.046 -3.123,103.628C-2.527,103.086 -1.959,102.524 -1.381,101.969C-0.922,101.527 -0.448,101.095 0,100.645" style="fill:white;fill-rule:nonzero;"/>
            </g>
            <g transform="matrix(1,0,0,1,83.0048,46.9716)">
                <path d="M0,-41.859C5.983,-54.977 14.796,-66.23 25.711,-75.014C9.607,-74.5 -5.545,-67.101 -15.946,-54.332L-19.035,-50.542L-18.236,-53.609C-18.647,-52.843 -19.043,-52.07 -19.426,-51.288C-19.495,-51.147 -19.569,-51.008 -19.637,-50.866C-20.034,-50.041 -20.408,-49.202 -20.772,-48.359C-20.903,-48.055 -21.034,-47.75 -21.16,-47.445C-21.496,-46.638 -21.819,-45.825 -22.125,-45.003C-22.249,-44.669 -22.362,-44.332 -22.481,-43.996C-23.362,-41.504 -24.099,-38.945 -24.694,-36.332C-24.835,-35.709 -24.98,-35.086 -25.104,-34.458C-25.223,-33.858 -25.325,-33.251 -25.428,-32.645C-25.55,-31.929 -25.663,-31.211 -25.762,-30.49C-25.838,-29.938 -25.911,-29.385 -25.974,-28.829C-26.068,-27.989 -26.143,-27.144 -26.207,-26.298C-26.242,-25.843 -26.285,-25.39 -26.311,-24.933C-26.386,-23.617 -26.433,-22.298 -26.433,-20.972C-26.433,-19.7 -26.393,-18.434 -26.324,-17.172C-26.307,-16.87 -26.275,-16.572 -26.255,-16.271C-26.188,-15.295 -26.112,-14.321 -26.004,-13.354C-25.972,-13.055 -25.927,-12.761 -25.891,-12.464C-25.769,-11.483 -25.634,-10.505 -25.47,-9.533C-25.428,-9.277 -25.379,-9.024 -25.334,-8.769C-25.15,-7.745 -24.947,-6.726 -24.717,-5.714C-24.673,-5.516 -24.627,-5.319 -24.58,-5.122C-24.325,-4.041 -24.046,-2.968 -23.74,-1.903C-23.703,-1.772 -23.666,-1.64 -23.628,-1.508C-23.286,-0.344 -22.916,0.812 -22.514,1.955C-22.503,1.987 -22.492,2.019 -22.481,2.051C-21.222,5.614 -19.669,9.064 -17.852,12.369C-17.667,12.704 -17.47,13.031 -17.28,13.363C-16.892,14.041 -16.498,14.714 -16.087,15.379C-15.773,15.886 -15.449,16.385 -15.122,16.883C-14.825,17.338 -14.523,17.791 -14.215,18.239C-13.798,18.844 -13.373,19.443 -12.938,20.033C-12.722,20.327 -12.5,20.617 -12.279,20.908C-11.75,21.602 -11.216,22.291 -10.662,22.964C-10.587,23.056 -10.508,23.145 -10.432,23.237C-7.401,26.881 -3.996,30.199 -0.289,33.155C-1.067,31.412 -1.792,29.649 -2.453,27.878C-10.975,5.066 -10.104,-19.701 0,-41.859" style="fill:white;fill-rule:nonzero;"/>
            </g>
            <g transform="matrix(1,0,0,1,194.943,89.4065)">
                <path d="M0,-66.741C-0.021,-67.17 -0.057,-67.596 -0.086,-68.024C-0.129,-68.671 -0.175,-69.318 -0.235,-69.964C-0.252,-70.141 -0.276,-70.317 -0.295,-70.494C-0.348,-70.162 -0.429,-69.838 -0.487,-69.507C-0.615,-68.782 -0.758,-68.063 -0.909,-67.346C-1.084,-66.512 -1.271,-65.684 -1.477,-64.861C-1.655,-64.154 -1.845,-63.454 -2.045,-62.755C-2.277,-61.942 -2.525,-61.135 -2.788,-60.334C-3.013,-59.648 -3.248,-58.967 -3.494,-58.291C-3.784,-57.498 -4.09,-56.714 -4.408,-55.935C-4.679,-55.274 -4.956,-54.616 -5.247,-53.965C-5.592,-53.195 -5.954,-52.437 -6.327,-51.683C-6.641,-51.047 -6.958,-50.414 -7.292,-49.79C-7.69,-49.046 -8.107,-48.316 -8.532,-47.59C-8.888,-46.981 -9.244,-46.374 -9.619,-45.778C-10.068,-45.063 -10.538,-44.365 -11.014,-43.669C-11.409,-43.09 -11.801,-42.512 -12.214,-41.947C-12.714,-41.262 -13.237,-40.596 -13.763,-39.931C-14.193,-39.386 -14.619,-38.839 -15.067,-38.309C-15.617,-37.656 -16.191,-37.025 -16.766,-36.393C-17.23,-35.884 -17.688,-35.37 -18.168,-34.875C-18.767,-34.257 -19.391,-33.664 -20.015,-33.069C-20.509,-32.598 -20.994,-32.119 -21.503,-31.662C-22.152,-31.079 -22.828,-30.526 -23.502,-29.968C-24.021,-29.538 -24.53,-29.097 -25.063,-28.682C-25.765,-28.136 -26.494,-27.623 -27.219,-27.105C-27.758,-26.719 -28.285,-26.32 -28.836,-25.95C-29.596,-25.44 -30.384,-24.969 -31.167,-24.489C-31.309,-24.402 -31.447,-24.31 -31.589,-24.224C-36.462,-13.876 -43.395,-4.331 -52.356,3.753C-52.27,3.732 -52.182,3.715 -52.096,3.693C-50.576,3.309 -49.087,2.857 -47.612,2.376C-47.052,2.193 -46.493,2.007 -45.939,1.809C-44.644,1.35 -43.368,0.855 -42.112,0.323C-41.37,0.008 -40.642,-0.331 -39.914,-0.672C-39.283,-0.966 -38.662,-1.275 -38.043,-1.586C-36.643,-2.293 -35.268,-3.042 -33.924,-3.839C-33.607,-4.027 -33.288,-4.214 -32.973,-4.407C-28.41,-7.214 -24.195,-10.535 -20.411,-14.29C-20.289,-14.411 -20.166,-14.532 -20.045,-14.655C-18.637,-16.073 -17.292,-17.553 -16.009,-19.089C-15.903,-19.216 -15.792,-19.339 -15.686,-19.467C-15.04,-20.253 -14.411,-21.054 -13.799,-21.868C-13.482,-22.29 -13.181,-22.723 -12.874,-23.153C-12.049,-24.302 -11.257,-25.476 -10.503,-26.677C-10.074,-27.362 -9.655,-28.054 -9.25,-28.755C-8.804,-29.521 -8.369,-30.294 -7.952,-31.078C-7.392,-32.138 -6.857,-33.213 -6.351,-34.303C-6.106,-34.829 -5.865,-35.357 -5.633,-35.89C-5.041,-37.255 -4.484,-38.638 -3.98,-40.046C-3.838,-40.442 -3.709,-40.845 -3.574,-41.244C-3.084,-42.694 -2.628,-44.159 -2.233,-45.649C-2.195,-45.794 -2.148,-45.936 -2.11,-46.082C-1.686,-47.723 -1.34,-49.392 -1.036,-51.075C-0.977,-51.404 -0.914,-51.731 -0.859,-52.061C-0.585,-53.721 -0.369,-55.399 -0.215,-57.093C-0.186,-57.408 -0.167,-57.726 -0.142,-58.042C-0.006,-59.816 0.086,-61.602 0.086,-63.407C0.086,-64.519 0.053,-65.631 0,-66.741" style="fill:white;fill-rule:nonzero;"/>
            </g>
            <g transform="matrix(1,0,0,1,117.275,54.5881)">
                <path d="M0,-84.421C15.462,-82.639 29.302,-74.944 38.976,-62.752C48.648,-50.56 52.993,-35.33 51.212,-19.869C49.77,-7.352 44.328,4.29 35.746,13.395C57.487,4.701 72.948,-15.303 75.654,-38.788C75.849,-40.467 75.977,-42.204 76.039,-43.951C68.964,-75.171 40.593,-97.816 8.526,-97.816C-13.968,-97.816 -35.127,-86.828 -48.102,-68.414C-48.281,-67.932 -48.454,-67.446 -48.62,-66.959C-36.038,-80.037 -18.196,-86.515 0,-84.421" style="fill:white;fill-rule:nonzero;"/>
            </g>
        </g>
    </g>
</svg>
