<svg width="132" height="64" viewBox="0 0 132 64" fill="none" xmlns="http://www.w3.org/2000/svg">
<g clip-path="url(#clip0_1970_1043)">
<path d="M69.4554 51.077C70.0698 51.1333 70.6358 51.1252 71.1693 51.2539C72.4386 51.5594 73.1743 52.4841 73.6836 53.6018C74.6133 55.6361 75.5268 57.6705 76.4404 59.7128C76.6667 60.2194 76.9659 60.6536 77.5641 60.6777C78.5827 60.726 78.3968 61.4657 78.3968 62.0688C78.3968 62.7281 78.0734 62.8648 77.3782 62.8327C75.5996 62.7523 73.821 62.8327 72.0424 62.8568C71.5897 62.8568 71.3148 62.8246 71.1774 62.2618C70.4579 59.3188 69.415 56.4884 67.7739 53.9073C67.305 53.1676 64.3461 52.1544 63.5619 52.5163C63.1334 52.7093 63.2628 53.0872 63.2628 53.4008C63.2547 55.1698 63.2466 56.9468 63.2628 58.7158C63.2708 60.3802 63.5861 60.6938 65.2192 60.8064C65.6962 60.8385 66.4319 60.5893 66.3106 61.4818C66.2217 62.117 66.4804 62.897 65.1545 62.8407C61.8642 62.696 58.5657 62.8086 55.2673 62.8729C54.4022 62.889 54.378 62.4548 54.3861 61.8276C54.3861 61.2004 54.3052 60.6617 55.2673 60.6456C57.3935 60.6054 57.4016 60.5571 57.4096 58.4424C57.4258 53.5455 57.4258 48.6406 57.4258 43.7437C57.4258 41.6772 57.1994 41.436 55.1541 41.5405C54.5073 41.5727 54.2244 41.2993 54.3618 40.8008C54.5154 40.254 53.8444 39.1765 54.9681 39.1926C59.8916 39.2489 64.815 38.879 69.7303 39.4017C70.3205 39.466 70.9106 39.6509 71.4765 39.8359C75.3166 41.0902 76.5374 46.164 73.6432 48.9703C72.6892 49.895 71.4442 50.3935 70.1345 50.691C69.9243 50.7392 69.6656 50.6428 69.4716 51.0689L69.4554 51.077ZM63.2547 46.1158C63.2547 47.0163 63.3032 47.925 63.2385 48.8175C63.1819 49.6537 63.5619 49.895 64.3137 49.7904C64.8716 49.7181 65.4294 49.6055 65.9953 49.5814C67.3131 49.517 68.7521 48.4798 69.1482 47.2656C69.6737 45.6896 69.3018 44.0171 68.1781 43.1407C67.0058 42.232 65.5749 42.4089 64.2086 42.3044C63.4406 42.2481 63.2142 42.5858 63.2466 43.2934C63.287 44.2342 63.2547 45.175 63.2466 46.1077L63.2547 46.1158Z" fill="white"/>
<path d="M38.6467 38.9512C39.7057 39.0799 41.1124 38.7502 42.4949 39.1523C44.8232 39.8277 46.909 41.0258 48.162 43.044C50.07 46.1156 50.6359 49.5812 50.2317 53.1996C50.0053 55.2339 49.4151 57.1718 48.3722 58.8845C47.1111 60.959 45.1304 62.3501 42.7697 62.8808C38.6467 63.8135 34.5398 63.9422 30.7725 61.5138C28.7028 60.1791 27.6276 58.1849 26.997 55.8772C25.8895 51.8246 25.9784 47.7962 27.8136 44.0411C29.3658 40.865 32.1791 39.1362 35.8171 38.9593C36.6498 38.9191 37.4825 38.9593 38.6467 38.9593V38.9512ZM44.1117 51.1331C44.3462 48.8495 44.0956 46.7106 43.2467 44.6602C42.9153 43.8561 42.5191 43.0681 41.7511 42.5937C39.7785 41.3715 37.717 41.267 35.615 42.248C35.0895 42.4892 34.6206 42.7546 34.176 43.237C32.5753 44.9819 32.5995 47.169 32.3732 49.2516C32.1225 51.5995 32.3408 53.9715 32.7936 56.3114C33.0523 57.6542 33.7879 58.8202 34.7257 59.6484C35.6069 60.4283 36.9085 60.7419 38.1778 60.8384C39.9159 60.9671 42.7616 59.2946 43.2305 57.7909C43.9177 55.6038 44.4432 53.3845 44.1117 51.1492V51.1331Z" fill="white"/>
<path d="M8.16934 39.1765C10.5542 39.265 13.6021 39.064 16.658 39.5786C21.4682 40.3907 22.9638 46.3007 20.8053 49.4045C19.1399 51.7926 16.8763 52.9666 13.9659 52.9666C12.5673 52.9666 11.1606 52.9907 9.76197 52.9585C9.13139 52.9425 8.89694 53.1596 8.91311 53.8109C8.95353 55.3547 8.91311 56.8985 8.91311 58.4424C8.92119 60.4044 9.34967 60.9351 11.3142 60.7903C12.543 60.7019 12.6077 61.2004 12.5511 62.1171C12.5188 62.7121 12.2924 62.8809 11.7184 62.8809C8.20168 62.8488 4.67687 62.8247 1.16014 62.8568C0.270857 62.8649 0.0768312 62.503 0.0283246 61.7311C-0.0282663 60.8948 0.367871 60.7019 1.09547 60.6777C2.97914 60.6134 3.0519 60.5893 3.03573 58.8042C2.99531 53.65 3.00339 48.4878 3.0519 43.3336C3.06807 41.7094 2.74469 41.4119 1.11972 41.5084C-0.0201818 41.5727 0.0687468 40.9938 0.0202402 40.2138C-0.0282663 39.3213 0.303195 39.1524 1.12781 39.1685C3.24593 39.2248 5.36404 39.1846 8.16126 39.1846L8.16934 39.1765ZM8.93736 46.349C8.93736 46.349 8.92119 46.349 8.91311 46.349C8.91311 46.952 8.91311 47.547 8.91311 48.1501C8.91311 50.6106 8.91311 50.6267 11.395 50.4659C12.729 50.3774 14.168 50.104 14.9279 49.0426C15.9061 47.6596 16.1244 45.9469 15.5423 44.2583C15.2998 43.5507 15.0249 42.8029 14.2003 42.5858C12.7451 42.1999 11.2576 42.0149 9.73772 42.0712C9.15564 42.0954 8.92119 42.2723 8.92928 42.8512C8.95353 44.0171 8.92928 45.175 8.92928 46.3409L8.93736 46.349Z" fill="white"/>
<path d="M125.804 62.8487C124.042 62.8487 122.498 62.8246 120.946 62.8567C120.081 62.8728 120.129 62.3421 120.097 61.7391C120.064 61.0878 120.21 60.8144 120.954 60.8063C123.29 60.7983 123.565 60.4043 122.756 58.1689C121.867 55.7326 122.465 56.1587 119.878 56.1266C117.987 56.1024 116.095 56.1346 114.203 56.1105C113.629 56.1024 113.33 56.2311 113.193 56.8583C113.007 57.6945 112.699 58.5147 112.352 59.3027C111.972 60.1631 112.392 60.4847 113.128 60.6535C113.419 60.7259 113.726 60.742 114.025 60.7822C115.012 60.9028 115.408 61.5461 115.092 62.4949C114.963 62.8889 114.688 62.8567 114.373 62.8567C111.915 62.8567 109.449 62.8648 106.992 62.905C106.369 62.913 106.151 62.6316 106.256 62.0929C106.353 61.5943 105.844 60.7018 106.903 60.7661C107.703 60.8144 108.027 60.3239 108.229 59.7932C109.401 56.7698 110.452 53.6982 111.568 50.6507C112.554 47.9571 113.524 45.2393 114.599 42.5697C114.947 41.7174 115.189 40.8168 115.44 39.9243C115.594 39.3694 115.869 39.1363 116.483 39.1604C117.922 39.2086 119.361 39.2086 120.8 39.1604C121.447 39.1443 121.811 39.3936 121.924 39.9966C122.207 41.5163 123.072 42.835 123.444 44.3146C123.929 46.1961 124.939 47.8767 125.376 49.7663C125.562 50.5623 125.974 51.3021 126.249 52.074C127.187 54.6712 128.092 57.2764 129.046 59.8656C129.224 60.356 129.588 60.7179 130.235 60.7259C131.229 60.734 130.994 61.5139 131.035 62.125C131.091 62.9693 130.485 62.7603 130.032 62.7522C128.553 62.7361 127.082 62.6959 125.812 62.8487H125.804ZM117.688 53.457C117.688 53.457 117.688 53.4972 117.688 53.5133C118.593 53.5133 119.498 53.5133 120.412 53.5133C120.962 53.5133 121.237 53.4088 121.01 52.7172C120.081 49.9271 119.224 47.1047 118.326 44.3065C118.237 44.0331 118.326 43.5828 117.979 43.5426C117.591 43.5024 117.502 43.9366 117.356 44.2422C116.685 45.7056 116.499 47.3379 115.82 48.8013C115.472 49.5411 115.214 50.3372 114.979 51.1171C114.292 53.4007 114.308 53.4088 116.677 53.449C117.017 53.449 117.356 53.449 117.696 53.449L117.688 53.457Z" fill="white"/>
<path d="M92.5693 39.1762C96.2073 39.1762 99.8453 39.1923 103.483 39.1602C104.211 39.1602 104.453 39.3371 104.437 40.0929C104.381 41.9745 104.389 43.864 104.437 45.7456C104.453 46.413 104.219 46.5979 103.605 46.5738C102.699 46.5416 101.794 46.5497 100.88 46.5497C100.338 46.5497 100.152 46.2763 100.169 45.7617C100.185 45.1184 100.128 44.4752 100.169 43.8399C100.233 42.875 99.6674 42.4489 98.8428 42.3604C97.9778 42.272 97.1046 42.3202 96.2315 42.3041C95.706 42.2961 95.7384 42.666 95.7384 43.0037C95.7465 48.6162 95.7626 54.2287 95.7626 59.8492C95.7626 60.4362 95.9971 60.6774 96.5549 60.6935C96.9672 60.7096 97.3876 60.782 97.7999 60.782C99.2551 60.7981 99.3198 60.8785 99.1904 62.3178C99.1581 62.7279 99.0853 62.8967 98.6003 62.8967C94.744 62.8404 90.8796 62.8083 87.0234 62.7922C86.3443 62.7922 85.9966 62.6072 85.9805 61.8273C85.9643 61.0875 86.1907 60.8865 86.9102 60.8463C89.8529 60.6935 89.8529 60.6694 89.861 57.7425C89.861 52.9582 89.8367 48.1739 89.8691 43.3896C89.8691 42.5453 89.6346 42.2237 88.7777 42.3202C87.7752 42.4408 86.7485 42.1674 85.7379 42.5051C85.2448 42.666 85.0588 42.8911 85.0831 43.3816C85.1074 43.9043 85.0831 44.4349 85.0831 44.9656C85.0831 46.0699 84.5064 46.6006 83.353 46.5577C81.6337 46.4988 80.7687 45.625 80.7579 43.9364C80.7498 42.6579 80.8064 41.3714 80.7094 40.0929C80.6448 39.2727 80.96 39.1682 81.6553 39.1682C85.2933 39.1923 88.9313 39.1843 92.5693 39.1843V39.1762Z" fill="white"/>
<path d="M65.4226 28.5306C65.5924 25.6761 66.0289 22.8457 66.0127 19.9832C66.0127 18.8655 66.6191 18.3991 67.7024 18.6564C69.2789 19.0263 70.823 19.5248 72.4075 19.8143C73.6283 20.0395 74.849 20.2164 76.0294 20.6023C76.6842 20.8194 77.428 20.9802 77.339 21.8808C77.2582 22.6929 76.571 23.0387 75.9 23.296C75.6009 23.4086 75.2452 23.3925 74.9218 23.5292C73.4504 24.1483 73.41 24.2287 73.8304 25.7485C73.9112 26.0299 73.9031 26.3435 73.9759 26.6329C74.1538 27.3245 74.5014 28.1687 73.8061 28.603C73.1109 29.0372 72.2701 28.603 71.5991 28.1848C69.4567 26.8581 69.1253 26.9224 67.7994 29.2221C67.4356 29.8493 66.9425 30.2272 66.2391 30.0664C65.463 29.8895 65.4145 29.1819 65.4226 28.5306Z" fill="white"/>
<path d="M58.6388 3.51507C59.4311 3.72414 60.2395 3.92516 61.0318 4.15834C61.7594 4.37544 62.2041 4.31112 62.4304 3.41054C62.6245 2.63058 63.0933 1.90691 63.4814 1.18323C63.926 0.355023 64.88 0.258532 65.5025 0.99829C65.7612 1.30384 65.9148 1.67372 66.0118 2.09989C66.4969 4.25483 66.982 4.49606 69.1324 3.9332C69.9247 3.72414 70.911 3.16128 71.4688 4.17442C71.9701 5.08304 71.1293 5.74239 70.5795 6.34545C68.9141 8.17876 67.2811 10.0442 65.8016 12.0223C64.9609 13.156 64.4677 13.1319 63.5218 12.0786C62.099 10.5106 60.854 8.79791 59.3583 7.28623C58.7763 6.69925 58.3155 5.95145 57.7172 5.34034C57.4181 5.03479 57.2079 4.64883 57.41 4.21463C57.6445 3.71609 58.1619 3.63569 58.6469 3.50703L58.6388 3.51507Z" fill="white"/>
<path d="M50.6593 18.2059C50.8291 17.5707 51.1929 16.9998 51.589 16.445C52.5673 15.078 52.4864 14.4589 51.1929 13.3573C50.8049 13.0276 50.3441 12.7864 50.053 12.312C49.4548 11.3149 49.5518 10.9611 50.6998 10.6234C51.1606 10.4867 51.6699 10.5028 52.155 10.4465C53.8042 10.2616 54.1114 9.92384 54.1761 8.25938C54.2003 7.73673 54.1437 7.22211 54.3216 6.69946C54.7258 5.5657 55.7283 5.28427 56.4235 6.27329C57.3613 7.60003 58.1051 9.05543 58.9378 10.4465C59.2854 11.0174 59.6654 11.5722 60.0211 12.1351C60.393 12.7301 60.7164 13.3492 60.9993 13.9925C61.4035 14.9092 61.2095 15.5765 60.2879 15.8821C57.4745 16.8148 54.8794 18.2461 52.1145 19.2834C51.2414 19.605 50.5704 19.0984 50.6513 18.1898L50.6593 18.2059Z" fill="white"/>
<path d="M77.5646 19.3801C77.225 19.3158 76.8693 19.348 76.6429 19.1952C74.9048 18.0534 72.8109 17.6835 71.0162 16.6462C70.3047 16.2361 69.4074 16.3568 68.6717 15.9065C67.6773 15.2873 67.4105 14.628 68.1462 13.6952C69.2376 12.3042 69.9086 10.6799 70.903 9.23257C71.477 8.38828 72.0429 7.50379 72.5926 6.6193C72.8918 6.13685 73.2798 5.71068 73.9427 5.77501C74.7269 5.85542 74.6703 6.53889 74.7673 7.03742C74.8886 7.65657 74.8644 8.30788 74.9048 8.9431C74.9533 9.71502 75.2928 10.1251 76.1417 10.2618C77.0957 10.4146 78.082 10.4789 78.9874 10.9292C79.7474 11.3071 79.8282 11.7011 79.2138 12.264C78.6074 12.8268 78.0658 13.4621 77.3948 13.9445C76.4893 14.5958 76.6914 15.2552 77.2897 15.8904C77.9041 16.5417 78.3487 17.2413 78.3892 18.1338C78.4134 18.7288 78.3892 19.3721 77.5565 19.3721L77.5646 19.3801Z" fill="white"/>
<path d="M63.6833 28.2408C63.6833 28.5785 63.7318 28.9243 63.6752 29.2539C63.5216 30.0339 62.8021 30.3073 62.1553 29.8409C61.5005 29.3745 60.9993 28.7554 60.5708 28.088C60.0049 27.2116 59.3824 26.9221 58.4284 27.6136C57.8302 28.0558 57.1753 28.4498 56.4397 28.675C55.3644 29.0127 54.7985 28.5624 54.9764 27.4769C55.1057 26.6969 55.1947 25.9009 55.4372 25.1611C55.7201 24.2927 55.3402 23.8826 54.6126 23.6173C53.982 23.3841 53.3272 23.2072 52.7047 22.958C52.1145 22.7248 51.8477 22.2825 51.8962 21.6232C51.9447 20.9558 52.4621 20.8673 52.9149 20.7548C55.7525 20.0391 58.6063 19.3637 61.4439 18.6481C62.503 18.3827 62.8183 19.0421 62.9476 19.8381C63.1012 20.803 63.2225 21.7759 63.2306 22.7489C63.2467 24.5902 63.6025 26.4075 63.6914 28.2327L63.6833 28.2408Z" fill="white"/>
</g>
<defs>
<clipPath id="clip0_1970_1043">
<rect width="131" height="63" fill="white" transform="translate(0.0273438 0.5)"/>
</clipPath>
</defs>
</svg>
