<svg width="107" height="64" viewBox="0 0 107 64" fill="none" xmlns="http://www.w3.org/2000/svg">
<path d="M46.7698 24.2598C46.3669 23.8945 45.9049 23.5951 45.3968 23.3795C44.9117 23.1699 44.419 22.9933 43.934 22.8556C43.4772 22.7208 43.0255 22.5771 42.5738 22.4274C42.1504 22.2867 41.7629 22.104 41.4216 21.8885C41.1033 21.6849 40.8467 21.4304 40.6568 21.125C40.4772 20.8435 40.3873 20.4692 40.3873 20.0141C40.3873 19.7057 40.4412 19.4033 40.5439 19.1159C40.6465 18.8345 40.8056 18.574 41.0238 18.3434C41.2445 18.1129 41.5319 17.9213 41.8861 17.7745C42.2428 17.6278 42.6791 17.553 43.1898 17.553C43.6414 17.553 44.0418 17.6039 44.3831 17.7087C44.7218 17.8105 45.0195 17.9422 45.2608 18.0979C45.5046 18.2536 45.7124 18.4243 45.8793 18.6039C46.0538 18.7925 46.1975 18.9692 46.3078 19.1339C46.3694 19.2267 46.4618 19.2836 46.5645 19.2956C46.6671 19.3075 46.7672 19.2746 46.8468 19.1997L47.5371 18.541C47.6859 18.4003 47.7116 18.1548 47.5961 17.9811C47.4344 17.7356 47.2317 17.4841 46.9956 17.2266C46.7492 16.9601 46.4413 16.7116 46.082 16.4931C45.7278 16.2745 45.3095 16.0918 44.845 15.9451C44.3728 15.8014 43.8313 15.7266 43.2308 15.7266C42.5276 15.7266 41.8886 15.8373 41.3292 16.0559C40.7671 16.2745 40.2795 16.5799 39.8869 16.9601C39.4866 17.3464 39.1786 17.8045 38.9682 18.3285C38.7577 18.8494 38.6499 19.4003 38.6499 19.9722C38.6499 20.7986 38.7937 21.4932 39.0785 22.0292C39.3557 22.5562 39.7252 22.9993 40.1769 23.3406C40.6106 23.673 41.1085 23.9424 41.6525 24.14C42.1761 24.3317 42.7022 24.5053 43.2103 24.655C43.6209 24.7898 44.0341 24.9365 44.437 25.1012C44.8168 25.2539 45.1581 25.4515 45.4532 25.691C45.733 25.9185 45.9614 26.206 46.1307 26.5443C46.295 26.8737 46.3771 27.2869 46.3771 27.7719C46.3771 28.257 46.3001 28.6432 46.1513 28.9815C46.0024 29.3229 45.7894 29.6073 45.52 29.8289C45.2402 30.0594 44.8989 30.2421 44.5037 30.3618C44.0957 30.4876 43.6414 30.5505 43.1487 30.5505C42.2941 30.5505 41.5627 30.3678 40.9776 30.0115C40.3771 29.6462 39.8561 29.1672 39.4275 28.5923C39.3608 28.5025 39.2659 28.4486 39.1606 28.4426C39.058 28.4336 38.9553 28.4785 38.8809 28.5594L38.17 29.3289C38.0392 29.4696 38.0186 29.6971 38.1238 29.8648C38.3317 30.1971 38.6037 30.5175 38.9348 30.8199C39.2607 31.1193 39.6405 31.3888 40.0665 31.6194C40.4874 31.8499 40.9622 32.0385 41.4729 32.1822C41.9887 32.326 42.5507 32.3978 43.1487 32.3978C43.8313 32.3978 44.4832 32.293 45.0888 32.0864C45.697 31.8768 46.2334 31.5685 46.6825 31.1762C47.1367 30.778 47.5012 30.287 47.7681 29.7151C48.0401 29.1372 48.1761 28.4815 48.1761 27.7659C48.1761 26.9485 48.0427 26.2419 47.7783 25.67C47.5191 25.1071 47.1778 24.6311 46.7672 24.2598H46.7698Z" fill="white"/>
<path d="M51.8004 16.0859H50.8252C50.6199 16.0859 50.4531 16.2716 50.4531 16.5021V31.6224C50.4531 31.85 50.6199 32.0356 50.8252 32.0356H51.8004C52.0057 32.0356 52.1726 31.85 52.1726 31.6224V16.5021C52.1726 16.2716 52.0057 16.0859 51.8004 16.0859Z" fill="white"/>
<path d="M63.829 30.1863H56.515V16.5002C56.515 16.2696 56.3482 16.084 56.1429 16.084H55.1651C54.9598 16.084 54.793 16.2696 54.793 16.5002V31.6205C54.793 31.848 54.9598 32.0337 55.1651 32.0337H63.829C64.0343 32.0337 64.2011 31.848 64.2011 31.6205V30.5995C64.2011 30.3719 64.0343 30.1863 63.829 30.1863Z" fill="white"/>
<path d="M78.1245 16.0859H77.1878C77.0569 16.0859 76.9363 16.1638 76.8696 16.2865L72.3734 24.6641L67.9747 16.2895C67.908 16.1638 67.7848 16.0859 67.654 16.0859H66.5966C66.399 16.0859 66.2348 16.2596 66.2245 16.4812L65.6137 31.6015C65.6086 31.7153 65.6471 31.826 65.7164 31.9069C65.7857 31.9877 65.8832 32.0356 65.9859 32.0356H66.9611C67.1612 32.0356 67.3255 31.859 67.3332 31.6374L67.7515 19.6519L71.6625 27.0714C71.7293 27.1971 71.8499 27.275 71.9833 27.275H72.6147C72.7455 27.275 72.8661 27.1971 72.9329 27.0744L76.9671 19.604L77.388 31.6404C77.3957 31.862 77.5599 32.0386 77.7601 32.0386H78.7353C78.838 32.0386 78.9355 31.9937 79.0048 31.9099C79.0741 31.829 79.1126 31.7182 79.1074 31.6045L78.4966 16.4842C78.4889 16.2626 78.3247 16.0889 78.1245 16.0889V16.0859Z" fill="white"/>
<path d="M87.7978 16.3434C87.7414 16.1877 87.6053 16.0859 87.4539 16.0859H86.4787C86.3273 16.0859 86.1913 16.1877 86.1349 16.3434L80.5839 31.4667C80.5377 31.5955 80.5506 31.7392 80.6198 31.856C80.6891 31.9698 80.8046 32.0386 80.9278 32.0386H81.9851C82.1365 32.0386 82.2751 31.9368 82.329 31.7781L83.9843 27.1642H89.8688L91.5446 31.7811C91.6011 31.9398 91.7371 32.0386 91.8885 32.0386H93.0074C93.1306 32.0386 93.2461 31.9698 93.3154 31.856C93.3847 31.7422 93.3975 31.5955 93.3513 31.4667L87.8004 16.3434H87.7978ZM89.2016 25.3138H84.649L86.9253 18.9962L89.2016 25.3138Z" fill="white"/>
<path d="M106.146 24.0442H101.549C101.344 24.0442 101.177 24.2298 101.177 24.4574V25.4784C101.177 25.7089 101.344 25.8945 101.549 25.8945H104.798V29.4545C104.418 29.73 103.946 29.9755 103.392 30.1881C102.763 30.4276 101.939 30.5504 100.941 30.5504C100.145 30.5504 99.4218 30.3857 98.7905 30.0564C98.1566 29.73 97.6125 29.2689 97.1686 28.691C96.722 28.1072 96.3756 27.4155 96.142 26.6281C95.9034 25.8376 95.7853 24.9693 95.7853 24.0502C95.7853 23.131 95.9085 22.2657 96.1523 21.4752C96.3935 20.6908 96.7425 20.0021 97.1891 19.4242C97.6331 18.8524 98.1848 18.3943 98.8315 18.0679C99.4782 17.7385 100.222 17.5739 101.046 17.5739C101.631 17.5739 102.147 17.6697 102.573 17.8613C103.017 18.0619 103.397 18.2865 103.702 18.538C104.005 18.7865 104.246 19.032 104.416 19.2685C104.603 19.529 104.737 19.7177 104.816 19.8374C104.937 20.0141 105.16 20.056 105.327 19.9273L106.058 19.3614C106.217 19.2356 106.264 18.9961 106.163 18.8074C106.074 18.6398 105.915 18.3973 105.681 18.0619C105.44 17.7176 105.104 17.3673 104.685 17.023C104.267 16.6756 103.746 16.3732 103.14 16.1187C102.524 15.8612 101.785 15.7295 100.946 15.7295C99.9222 15.7295 98.9675 15.9481 98.1104 16.3792C97.2532 16.8074 96.509 17.4092 95.9008 18.1697C95.2951 18.9242 94.8204 19.8135 94.4868 20.8195C94.1557 21.8195 93.9863 22.9094 93.9863 24.0561C93.9863 25.2628 94.1557 26.3916 94.4868 27.4066C94.8204 28.4276 95.2977 29.3228 95.9034 30.0594C96.5116 30.8049 97.2584 31.3858 98.1155 31.7959C98.9701 32.2002 99.9222 32.4067 100.944 32.4067C101.626 32.4067 102.252 32.3529 102.809 32.2421C103.366 32.1313 103.874 31.9816 104.321 31.79C104.767 31.6013 105.168 31.3858 105.509 31.1552C105.85 30.9247 106.148 30.6851 106.397 30.4426C106.477 30.3648 106.523 30.251 106.523 30.1312V24.4633C106.523 24.2358 106.356 24.0502 106.151 24.0502L106.146 24.0442Z" fill="white"/>
<path d="M38.1992 36.1016H39.0127V41.3053H41.0992V42.1557H38.1992V36.1016Z" fill="white"/>
<path d="M41.3438 40.785C41.3438 39.4766 41.9879 39.1083 43.3532 39.1083H43.5072C43.4918 38.5874 43.3737 38.3329 42.8707 38.3329C42.4498 38.3329 42.1213 38.4466 41.8981 38.5784L41.5747 37.8358C41.8904 37.6382 42.3446 37.5005 42.9554 37.5005C44.005 37.5005 44.2719 37.9736 44.2719 39.0934V40.9407C44.2719 41.2761 44.2924 41.3569 44.5645 41.3569V42.1563C44.4875 42.1653 44.4105 42.1653 44.3412 42.1653C43.9203 42.1653 43.7125 42.0905 43.6278 41.7551C43.4019 42.0905 43.0606 42.2042 42.5268 42.2042C41.6029 42.2042 41.3438 41.6503 41.3438 40.785ZM43.5072 40.3988V39.8449H43.3609C42.4498 39.8449 42.0931 39.9587 42.0931 40.6862C42.0931 41.2641 42.2882 41.4437 42.6962 41.4437C43.1504 41.4437 43.5072 41.2312 43.5072 40.3988Z" fill="white"/>
<path d="M46.4023 37.6471L47.026 37.5812L47.0901 37.9974C47.2518 37.704 47.5392 37.5063 48.2373 37.5063C48.9353 37.5063 49.0841 37.7189 49.1765 38.0124C49.351 37.701 49.6744 37.5063 50.3878 37.5063C51.3887 37.5063 51.4862 38.201 51.4862 39.1801V42.1532H50.7009V39.3926C50.7009 38.722 50.6727 38.3806 50.0978 38.3806C49.4383 38.3806 49.3279 38.7818 49.3279 39.719V42.1532H48.5503V39.3926C48.5503 38.722 48.5221 38.3806 47.9498 38.3806C47.2852 38.3806 47.1722 38.7908 47.1722 39.719V42.1532H46.4023V37.6441V37.6471Z" fill="white"/>
<path d="M52.0059 39.8627C52.0059 38.4345 52.3215 37.5093 53.5944 37.5093C54.9879 37.5093 54.9956 38.5303 54.9828 40.3028H52.7629C52.7963 41.0543 52.958 41.4316 53.6175 41.4316C54.1282 41.4316 54.3874 41.2909 54.6184 41.1621L54.9186 41.8657C54.5953 42.0693 54.1975 42.216 53.5739 42.216C52.2574 42.216 52.0059 41.3178 52.0059 39.8627ZM52.7629 39.5034H54.2617C54.254 38.7608 54.2334 38.3177 53.5764 38.3177C52.9195 38.3177 52.7912 38.7429 52.7629 39.5034Z" fill="white"/>
<path d="M55.4465 39.8532C55.4465 38.5867 55.6082 37.5088 56.7759 37.5088C57.3918 37.5088 57.6664 37.6555 57.846 37.934V35.874H58.6313V42.1228L58 42.1796L57.9359 41.7156C57.746 42.0269 57.4252 42.2156 56.7374 42.2156C55.5749 42.2156 55.4414 41.1107 55.4414 39.8532H55.4465ZM57.8486 39.8682C57.8486 38.9699 57.7716 38.3591 56.994 38.3591C56.3294 38.3591 56.2318 38.946 56.2318 39.8682C56.2318 40.7904 56.3165 41.4131 56.994 41.4131C57.7639 41.4131 57.8486 40.7904 57.8486 39.8682Z" fill="white"/>
<path d="M59.4023 36.0957H60.1928V37.0838H59.4023V36.0957ZM59.4023 37.5928H60.1876V42.1588H59.4023V37.5928Z" fill="white"/>
<path d="M60.8184 39.8627C60.8184 38.4165 61.0981 37.5093 62.4223 37.5093C62.8586 37.5093 63.164 37.5991 63.4232 37.7458L63.0793 38.5393C62.8971 38.4225 62.702 38.3686 62.4557 38.3686C61.791 38.3686 61.6165 38.8596 61.6165 39.8866C61.6165 40.9136 61.7782 41.4226 62.4711 41.4226C62.7585 41.4226 62.9741 41.3238 63.1717 41.219L63.4719 41.9226C63.1101 42.1262 62.8201 42.225 62.3735 42.225C61.1058 42.225 60.8184 41.3178 60.8184 39.8627Z" fill="white"/>
<path d="M64 36.0957H64.7904V37.0838H64V36.0957ZM64 37.5928H64.7853V42.1588H64V37.5928Z" fill="white"/>
<path d="M65.5684 37.6471L66.192 37.5812L66.2561 37.9974C66.4306 37.704 66.7386 37.5063 67.4392 37.5063C68.4272 37.5063 68.5735 38.201 68.5735 39.1801V42.1532H67.7882V39.3926C67.7882 38.722 67.7266 38.3806 67.1518 38.3806C66.4589 38.3806 66.3537 38.8208 66.3537 39.719V42.1532H65.5684V37.6441V37.6471Z" fill="white"/>
<path d="M69.1328 40.785C69.1328 39.4766 69.777 39.1083 71.1422 39.1083H71.2962C71.2834 38.5874 71.1628 38.3329 70.6598 38.3329C70.2389 38.3329 69.9104 38.4466 69.6871 38.5784L69.3663 37.8358C69.682 37.6382 70.1362 37.5005 70.7445 37.5005C71.7941 37.5005 72.061 37.9736 72.061 39.0934V40.9407C72.061 41.2761 72.0815 41.3569 72.3535 41.3569V42.1563C72.2765 42.1653 72.1996 42.1653 72.1303 42.1653C71.7094 42.1653 71.499 42.0905 71.4168 41.7551C71.1936 42.0905 70.8497 42.2042 70.3159 42.2042C69.392 42.2042 69.1328 41.6503 69.1328 40.785ZM71.2962 40.3988V39.8449H71.1499C70.2389 39.8449 69.8822 39.9587 69.8822 40.6862C69.8822 41.2641 70.0772 41.4437 70.4853 41.4437C70.9395 41.4437 71.2988 41.2312 71.2988 40.3988H71.2962Z" fill="white"/>
<path d="M74.0397 39.8627C74.0397 38.4345 74.3553 37.5093 75.6282 37.5093C77.0217 37.5093 77.0294 38.5303 77.014 40.3028H74.7942C74.8301 41.0543 74.9918 41.4316 75.6488 41.4316C76.1595 41.4316 76.4187 41.2909 76.6496 41.1621L76.9499 41.8657C76.6291 42.0693 76.2287 42.216 75.6051 42.216C74.2886 42.216 74.0371 41.3178 74.0371 39.8627H74.0397ZM74.7942 39.5034H76.2929C76.2852 38.7608 76.2647 38.3177 75.6051 38.3177C74.9456 38.3177 74.8224 38.7429 74.7916 39.5034H74.7942Z" fill="white"/>
<path d="M77.2662 37.5903H78.0849L78.9241 40.9797L79.7581 37.5903H80.5434L79.3167 42.1893H78.4827L77.2637 37.5903H77.2662Z" fill="white"/>
<path d="M80.7227 39.8627C80.7227 38.4913 80.9947 37.5093 82.3394 37.5093C83.6842 37.5093 83.9588 38.5063 83.9588 39.8627C83.9588 41.219 83.6919 42.225 82.3394 42.225C80.987 42.225 80.7227 41.2519 80.7227 39.8627ZM83.1658 39.8956C83.1658 38.9974 83.0888 38.3686 82.3394 38.3686C81.5901 38.3686 81.5131 38.9974 81.5131 39.8956C81.5131 40.7938 81.5978 41.4226 82.3394 41.4226C83.0811 41.4226 83.1658 40.7878 83.1658 39.8956Z" fill="white"/>
<path d="M85.5341 42.1647C84.8335 42.1647 84.582 41.8952 84.582 41.0119V35.874H85.3673V40.8982C85.3673 41.2575 85.3879 41.3563 85.8164 41.3563V42.1557C85.7754 42.1647 85.6984 42.1647 85.5367 42.1647H85.5341Z" fill="white"/>
<path d="M86.2955 40.4107V37.5933H87.0885V40.3628C87.0885 41.0664 87.1373 41.4108 87.7866 41.4108C88.4358 41.4108 88.4795 41.0664 88.4795 40.3538V37.5933H89.2494V40.4107C89.2494 41.6593 88.9979 42.2252 87.7712 42.2252C86.5445 42.2252 86.293 41.6593 86.293 40.4107H86.2955Z" fill="white"/>
<path d="M89.8262 39.8627C89.8262 38.4165 90.1059 37.5093 91.4301 37.5093C91.8638 37.5093 92.1718 37.5991 92.431 37.7458L92.0871 38.5393C91.9049 38.4225 91.7098 38.3686 91.4635 38.3686C90.7988 38.3686 90.6243 38.8596 90.6243 39.8866C90.6243 40.9136 90.786 41.4226 91.4789 41.4226C91.7663 41.4226 91.9844 41.3238 92.1795 41.219L92.4797 41.9226C92.1153 42.1262 91.8279 42.225 91.3814 42.225C90.1136 42.225 89.8262 41.3178 89.8262 39.8627Z" fill="white"/>
<path d="M93.0098 36.0957H93.8002V37.0838H93.0098V36.0957ZM93.0098 37.5928H93.7925V42.1588H93.0098V37.5928Z" fill="white"/>
<path d="M94.4219 39.8627C94.4219 38.4913 94.6965 37.5093 96.0387 37.5093C97.3808 37.5093 97.658 38.5063 97.658 39.8627C97.658 41.219 97.3911 42.225 96.0387 42.225C94.6862 42.225 94.4219 41.2519 94.4219 39.8627ZM96.8676 39.8956C96.8676 38.9974 96.7906 38.3686 96.0412 38.3686C95.2919 38.3686 95.2149 38.9974 95.2149 39.8956C95.2149 40.7938 95.2996 41.4226 96.0412 41.4226C96.7829 41.4226 96.8676 40.7878 96.8676 39.8956Z" fill="white"/>
<path d="M98.2623 37.6471L98.8859 37.5812L98.9475 37.9974C99.122 37.704 99.43 37.5063 100.131 37.5063C101.119 37.5063 101.265 38.201 101.265 39.1801V42.1532H100.48V39.3926C100.48 38.722 100.415 38.3806 99.8406 38.3806C99.1477 38.3806 99.0425 38.8208 99.0425 39.719V42.1532H98.2598V37.6441L98.2623 37.6471Z" fill="white"/>
<path d="M101.828 40.785C101.828 39.4766 102.472 39.1083 103.838 39.1083H103.992C103.979 38.5874 103.858 38.3329 103.355 38.3329C102.934 38.3329 102.606 38.4466 102.382 38.5784L102.059 37.8358C102.375 37.6382 102.829 37.5005 103.44 37.5005C104.489 37.5005 104.756 37.9736 104.756 39.0934V40.9407C104.756 41.2761 104.777 41.3569 105.051 41.3569V42.1563C104.974 42.1653 104.897 42.1653 104.828 42.1653C104.407 42.1653 104.199 42.0905 104.115 41.7551C103.889 42.0905 103.548 42.2042 103.016 42.2042C102.092 42.2042 101.833 41.6503 101.833 40.785H101.828ZM103.992 40.3988V39.8449H103.845C102.934 39.8449 102.577 39.9587 102.577 40.6862C102.577 41.2641 102.773 41.4437 103.181 41.4437C103.637 41.4437 103.994 41.2312 103.994 40.3988H103.992Z" fill="white"/>
<path d="M105.612 42.7463C105.976 42.5187 106.033 42.4618 106.033 42.1594H105.612V40.9917H106.536V42.0786C106.536 42.6564 106.443 42.878 105.835 43.2223L105.609 42.7492L105.612 42.7463Z" fill="white"/>
<path d="M38.1367 46.6944L38.7603 46.6286L38.8245 47.0447C38.999 46.7513 39.307 46.5537 40.0076 46.5537C40.9956 46.5537 41.1419 47.2484 41.1419 48.2274V51.2006H40.3566V48.44C40.3566 47.7693 40.2924 47.428 39.7201 47.428C39.0272 47.428 38.922 47.8681 38.922 48.7694V51.2036H38.1393V46.6944H38.1367Z" fill="white"/>
<path d="M41.7148 48.9071C41.7148 47.5328 41.9869 46.5537 43.3316 46.5537C44.6764 46.5537 44.9484 47.5508 44.9484 48.9071C44.9484 50.2634 44.6815 51.2665 43.3316 51.2665C41.9817 51.2665 41.7148 50.2934 41.7148 48.9071ZM44.158 48.94C44.158 48.0418 44.081 47.413 43.3316 47.413C42.5823 47.413 42.5053 48.0418 42.5053 48.94C42.5053 49.8383 42.59 50.467 43.3316 50.467C44.0733 50.467 44.158 49.8293 44.158 48.94Z" fill="white"/>
<path d="M45.2402 50.944L45.5405 50.2314C45.8074 50.3871 46.1923 50.5099 46.6106 50.5099C46.9879 50.5099 47.1932 50.3542 47.1932 49.9889C47.1932 49.6236 46.9982 49.4919 46.4028 49.2134C45.7304 48.902 45.366 48.6086 45.366 47.8571C45.366 46.9409 45.8767 46.5576 46.6825 46.5576C47.1958 46.5576 47.4883 46.6385 47.7963 46.7942L47.4883 47.5547C47.2702 47.4499 46.9982 47.36 46.6543 47.36C46.2488 47.36 46.1153 47.5307 46.1153 47.8331C46.1153 48.1505 46.2976 48.2822 46.8519 48.5367C47.5653 48.8631 47.9297 49.1326 47.9297 49.9829C47.9297 50.8332 47.4473 51.2644 46.6132 51.2644C46.082 51.2644 45.597 51.1566 45.2402 50.947V50.944Z" fill="white"/>
<path d="M48.2812 48.9071C48.2812 47.5328 48.5533 46.5537 49.898 46.5537C51.2428 46.5537 51.5174 47.5508 51.5174 48.9071C51.5174 50.2634 51.2505 51.2665 49.898 51.2665C48.5456 51.2665 48.2812 50.2934 48.2812 48.9071ZM50.7244 48.94C50.7244 48.0418 50.6474 47.413 49.898 47.413C49.1487 47.413 49.0717 48.0418 49.0717 48.94C49.0717 49.8383 49.1564 50.467 49.898 50.467C50.6397 50.467 50.7244 49.8293 50.7244 48.94Z" fill="white"/>
<path d="M51.8516 46.6351H52.488L52.6061 45.4824L53.2374 45.3267V46.6351H54.1484V47.4375H53.2374V49.8298C53.2374 50.2041 53.2861 50.4017 53.707 50.4017H54.1484V51.2011C54.0227 51.2101 53.7198 51.2251 53.6172 51.2251C52.6856 51.2251 52.4623 50.8418 52.4623 49.9256V47.4345H51.8516V46.6321V46.6351Z" fill="white"/>
<path d="M54.7858 46.696L55.4017 46.6301L55.471 47.1122C55.6327 46.8187 55.9201 46.5972 56.5642 46.5972V47.4625C55.6275 47.4774 55.5685 48.1571 55.5685 48.9326V51.2051H54.7832V46.696H54.7858Z" fill="white"/>
<path d="M56.7617 48.9071C56.7617 47.5328 57.0337 46.5537 58.3785 46.5537C59.7232 46.5537 59.9953 47.5508 59.9953 48.9071C59.9953 50.2634 59.7284 51.2665 58.3785 51.2665C57.0286 51.2665 56.7617 50.2934 56.7617 48.9071ZM59.2074 48.94C59.2074 48.0418 59.1279 47.413 58.3811 47.413C57.6343 47.413 57.5547 48.0418 57.5547 48.94C57.5547 49.8383 57.6394 50.467 58.3811 50.467C59.1227 50.467 59.2074 49.8293 59.2074 48.94Z" fill="white"/>
<path d="M60.2877 50.944L60.588 50.2314C60.8549 50.3871 61.2398 50.5099 61.6607 50.5099C62.038 50.5099 62.2433 50.3542 62.2433 49.9889C62.2433 49.6236 62.0482 49.4919 61.4503 49.2134C60.7779 48.902 60.4135 48.6086 60.4135 47.8571C60.4135 46.9409 60.9242 46.5576 61.73 46.5576C62.2407 46.5576 62.5358 46.6385 62.8438 46.7942L62.5358 47.5547C62.3177 47.4499 62.0456 47.36 61.7018 47.36C61.2963 47.36 61.1628 47.5307 61.1628 47.8331C61.1628 48.1505 61.345 48.2822 61.8968 48.5367C62.6128 48.8631 62.9747 49.1326 62.9747 49.9829C62.9747 50.8332 62.4922 51.2644 61.6581 51.2644C61.1269 51.2644 60.6419 51.1566 60.2852 50.947L60.2877 50.944Z" fill="white"/>
<path d="M64.4883 46.6351H65.1247L65.2453 45.4824L65.8741 45.3267V46.6351H66.7851V47.4375H65.8741V49.8298C65.8741 50.2041 65.9229 50.4017 66.3437 50.4017H66.7851V51.2011C66.6594 51.2101 66.3591 51.2251 66.2539 51.2251C65.3223 51.2251 65.0991 50.8418 65.0991 49.9256V47.4345H64.4909V46.6321L64.4883 46.6351Z" fill="white"/>
<path d="M67.1934 49.8295C67.1934 48.524 67.8375 48.1558 69.2028 48.1558H69.3568C69.3439 47.6348 69.2233 47.3803 68.7203 47.3803C68.302 47.3803 67.971 47.4941 67.7477 47.6228L67.4269 46.8803C67.7426 46.6827 68.1968 46.5449 68.8076 46.5449C69.8572 46.5449 70.1241 47.018 70.1241 48.1378V49.9852C70.1241 50.3205 70.1446 50.4014 70.4192 50.4014V51.2008C70.3422 51.2098 70.2652 51.2098 70.1934 51.2098C69.7725 51.2098 69.5646 51.1349 69.4799 50.8026C69.2567 51.1379 68.9128 51.2517 68.3816 51.2517C67.4577 51.2517 67.1985 50.6948 67.1985 49.8295H67.1934ZM69.3568 49.4462V48.8893H69.2105C68.2994 48.8893 67.9427 49.0031 67.9427 49.7307C67.9427 50.3115 68.1378 50.4912 68.5458 50.4912C69.0001 50.4912 69.3568 50.2786 69.3568 49.4462Z" fill="white"/>
<path d="M71.0117 46.6944L71.6353 46.6286L71.6969 47.0447C71.8586 46.7513 72.146 46.5537 72.8466 46.5537C73.5472 46.5537 73.6935 46.7663 73.7859 47.0627C73.9604 46.7513 74.2838 46.5537 74.9972 46.5537C75.9981 46.5537 76.0982 47.2484 76.0982 48.2274V51.2006H75.3154V48.44C75.3154 47.7693 75.2872 47.428 74.7124 47.428C74.0528 47.428 73.9425 47.8292 73.9425 48.7694V51.2036H73.1649V48.443C73.1649 47.7723 73.1366 47.431 72.5618 47.431C71.8971 47.431 71.7842 47.8382 71.7842 48.7724V51.2066H71.0143V46.6974L71.0117 46.6944Z" fill="white"/>
<path d="M76.7695 44.9199H77.5471V47.0368C77.7293 46.7194 78.0501 46.5547 78.6532 46.5547C79.8157 46.5547 79.9569 47.6655 79.9569 48.9081C79.9569 50.1506 79.7952 51.2615 78.6275 51.2615C77.8705 51.2615 77.6754 51.0818 77.465 50.7974L77.347 51.2375L76.7721 51.1806V44.9229L76.7695 44.9199ZM79.1665 48.947C79.1665 48.0248 79.0818 47.411 78.4017 47.411C77.6318 47.411 77.5548 48.0308 77.5548 48.947C77.5548 49.8632 77.6241 50.459 78.4017 50.459C79.0664 50.459 79.1665 49.8782 79.1665 48.947Z" fill="white"/>
<path d="M80.582 45.1406H81.3725V46.1287H80.582V45.1406ZM80.582 46.6347H81.3673V51.2007H80.582V46.6347Z" fill="white"/>
<path d="M81.9967 48.9068C81.9967 47.4756 82.3124 46.5534 83.5853 46.5534C84.9788 46.5534 84.9865 47.5744 84.9711 49.347H82.7512C82.7846 50.0985 82.9462 50.4728 83.6058 50.4728C84.1165 50.4728 84.3757 50.335 84.6066 50.2033L84.9069 50.9069C84.5836 51.1105 84.1858 51.2602 83.5622 51.2602C82.2456 51.2602 81.9941 50.362 81.9941 48.9068H81.9967ZM82.7538 48.5475H84.2525C84.2474 47.805 84.2243 47.3619 83.5647 47.3619C82.9052 47.3619 82.782 47.787 82.7538 48.5475ZM83.7341 44.7959H84.6092L83.6494 46.1762H82.9693L83.7315 44.7959H83.7341Z" fill="white"/>
<path d="M85.582 46.6944L86.2057 46.6286L86.2698 47.0447C86.4443 46.7513 86.7523 46.5537 87.4529 46.5537C88.4383 46.5537 88.5872 47.2484 88.5872 48.2274V51.2006H87.8019V48.44C87.8019 47.7693 87.7377 47.428 87.1655 47.428C86.4725 47.428 86.3673 47.8681 86.3673 48.7694V51.2036H85.5846V46.6944H85.582Z" fill="white"/>
<path d="M89.2812 50.0361H90.2051V51.2038H89.2812V50.0361Z" fill="white"/>
<path d="M28.0135 32.5686C26.9485 31.2482 24.5362 29.338 20.9895 26.6253C17.4429 23.9066 15.2307 22.694 14.235 20.9395L2.09375 28.6912C3.2101 31.2512 7.62416 35.1645 13.9347 39.5419C16.1289 41.0779 17.4788 42.3744 17.951 43.4343C17.9048 43.3325 17.8432 43.2217 17.7816 43.1139C17.7816 43.1199 17.7868 43.1229 17.7893 43.1289L29.8793 35.2903C29.5508 34.4519 28.5242 33.2034 28.0135 32.5686Z" fill="white"/>
<path d="M14.2302 20.9396C14.2302 20.9396 14.2354 20.9486 14.2379 20.9516C13.3577 20.1491 13.6502 15.5861 13.6502 13.4603C13.6502 12.1189 14.4612 10.8584 15.8804 10.8524C16.6605 10.8494 18.1413 11.5261 18.1105 13.4603V18.7689L31.2911 28.4608V18.173C31.2911 13.098 30.8522 9.51403 30.0105 7.42114C29.1636 5.29831 27.4442 3.52279 24.8419 2.14849C22.2448 0.7682 19.1037 0.0585938 15.4261 0.0585938C8.67415 0.0585938 3.74425 2.73833 1.58598 7.26844C0.541493 9.51403 0 13.098 0 17.9814C0 22.8648 0.821221 26.1763 2.09155 28.6914L14.2302 20.9396Z" fill="white"/>
<path d="M17.7595 43.0604C17.7595 43.0604 17.7543 43.0514 17.7518 43.0484C18.632 43.8508 18.3395 48.4139 18.3395 50.5397C18.3395 51.8811 17.5285 53.1416 16.1093 53.1476C15.3292 53.1506 13.8484 52.4739 13.8792 50.5397V45.2311L0.701172 35.5391V45.8269C0.701172 50.902 1.14001 54.4859 1.98176 56.5788C2.82865 58.7017 4.54808 60.4772 7.15032 61.8515C9.74744 63.2318 12.8886 63.9414 16.5661 63.9414C23.3181 63.9414 28.248 61.2616 30.4063 56.7315C31.4508 54.4859 31.9923 50.902 31.9923 46.0186C31.9923 41.1352 31.171 37.8237 29.8981 35.3086L17.7595 43.0604Z" fill="white"/>
</svg>
