<svg width="154" height="58" viewBox="0 0 154 58" fill="none" xmlns="http://www.w3.org/2000/svg">
<g clip-path="url(#clip0_1970_1054)">
<path d="M38.3371 15.516C41.7608 15.516 44.8002 17.149 46.7536 19.6786C47.4624 19.145 48.3826 18.4512 49.3629 17.7147C46.8136 14.3846 42.8292 12.2285 38.3371 12.2285C30.6434 12.2285 24.4023 18.5223 24.4023 26.2891C24.4023 34.0559 30.6398 40.3497 38.3371 40.3497C42.8856 40.3497 46.9123 38.1403 49.4581 34.7354L46.8418 32.7786C44.8919 35.3759 41.8137 37.0587 38.3371 37.0587C32.4416 37.0587 27.6639 32.2378 27.6639 26.2891C27.6639 20.3404 32.4416 15.5195 38.3371 15.5195V15.516Z" fill="white"/>
<path d="M18.5742 40.1074V46.2269H24.9774C22.3999 44.665 20.2173 42.5659 18.5742 40.1074Z" fill="white"/>
<path d="M60.7269 10.9046H57.832V8.30029H66.4143V10.9046H63.5054V26.488H60.7269V10.9046Z" fill="white"/>
<path d="M66.1688 17.1702C66.1688 14.8292 66.1935 13.833 66.1406 12.3956H68.7745C68.8028 12.666 68.8521 13.9219 68.8521 14.6762C69.4057 12.7727 70.6327 12.1892 71.9303 12.1821V15.6404C70.3366 15.6404 68.9473 16.0531 68.9473 18.9385V26.4847H66.1688V17.1667V17.1702Z" fill="white"/>
<path d="M73.2383 12.3953H76.0168V26.4879H73.2383V12.3953ZM73.263 7.50684H76.0414V10.5025H73.263V7.50684Z" fill="white"/>
<path d="M78.3641 7.50684H81.1426V13.5872C81.6045 12.6942 82.4719 12.1747 83.6179 12.1747C85.6947 12.1747 86.548 13.8896 86.548 16.4335V21.3042C86.548 24.5169 85.9979 26.6943 83.2759 26.6943C81.9184 26.6943 81.3084 26.0219 80.9663 25.2356C80.9417 25.7621 80.9205 26.1179 80.8641 26.4844H78.3359C78.3853 25.5273 78.3641 24.2785 78.3641 22.8554V7.50684ZM83.766 21.8272V16.8853C83.766 15.5582 83.5579 14.6901 82.5495 14.6901C81.4282 14.6901 81.1426 15.5903 81.1426 17.202V21.877C81.1426 23.4424 81.527 24.186 82.4684 24.186C83.3076 24.186 83.766 23.4638 83.766 21.8307V21.8272Z" fill="white"/>
<path d="M96.586 22.3717C96.586 24.4459 96.586 25.7481 96.6142 26.4881H93.9591C93.9097 26.1999 93.8568 25.5346 93.8568 25.1504C93.3632 26.3814 92.3936 26.7052 91.2511 26.7052C89.9501 26.7052 88.4727 26.0754 88.4727 23.037V12.3955H91.2511V22.3112C91.2511 23.6063 91.6214 24.1933 92.457 24.1933C93.3632 24.1933 93.804 23.617 93.804 21.7847V12.3955H96.5824V22.3717H96.586Z" fill="white"/>
<path d="M98.9208 16.7434C98.9208 13.8794 98.9208 13.0362 98.8926 12.3957H101.548C101.597 12.7195 101.65 13.271 101.65 13.6766C102.055 12.8583 102.803 12.1787 104.224 12.1787C105.923 12.1787 107.091 13.2176 107.091 15.8824V26.4884H104.312V16.4125C104.312 15.1388 103.878 14.6941 103.11 14.6941C102.119 14.6941 101.699 15.2242 101.699 17.1383V26.4884H98.9208V16.7434Z" fill="white"/>
<path d="M116.658 23.6028C116.658 24.4887 116.658 25.951 116.711 26.4882H114.172C114.115 26.2249 114.017 25.6557 113.992 25.4564C113.516 26.3174 112.761 26.7088 111.686 26.7088C109.588 26.7088 108.738 24.7449 108.738 22.6208V22.3754C108.738 18.9029 111.055 17.9814 113.572 17.9814H113.893V16.1811C113.893 15.0782 113.763 14.4556 112.917 14.4556C112.07 14.4556 111.901 15.1031 111.901 15.9783V16.2096H109.168V16.0282C109.168 13.9895 109.944 12.1821 113.012 12.1821C115.706 12.1821 116.651 13.6835 116.651 15.9606V23.6099L116.658 23.6028ZM113.95 20.1019H113.488C112.218 20.1019 111.386 20.5858 111.386 22.3433V22.5639C111.386 23.5566 111.742 24.2646 112.61 24.2646C113.541 24.2646 113.95 23.617 113.95 21.7172V20.1019Z" fill="white"/>
<path d="M119.02 26.4879V7.50684H121.798V26.4844H119.02V26.4879Z" fill="white"/>
<path d="M66.7952 27.922V42.993C66.7952 45.1384 66.7952 46.1346 66.8234 46.8996H64.1683C64.1189 46.5438 64.066 45.7824 64.066 45.5583C63.6288 46.4691 62.9659 47.1166 61.6049 47.1166C59.0979 47.1166 58.6113 45.0957 58.6113 42.3669V36.8486C58.6113 34.3973 59.5387 32.5899 61.8165 32.5899C62.7473 32.5899 63.6323 32.8674 64.0167 33.5825V27.9185H66.7952V27.922ZM61.3933 37.0265V42.5981C61.3933 43.9003 61.7001 44.6083 62.6592 44.6083C63.7945 44.6083 64.0167 43.5801 64.0167 41.9719V37.6349C64.0167 36.1122 63.8792 35.1089 62.6909 35.1089C61.7248 35.1089 61.3933 35.8489 61.3933 37.0301V37.0265Z" fill="white"/>
<path d="M71.44 40.6021V42.6728C71.44 43.7615 71.6904 44.7577 72.7446 44.7577C73.8518 44.7577 73.9893 43.7579 73.9893 42.7439V42.6763H76.6973V42.7404C76.6973 44.2204 76.3835 47.1201 72.8081 47.1201C69.2327 47.1201 68.7285 44.8964 68.7285 42.0466V37.4285C68.7285 35.5002 69.3315 32.5898 72.794 32.5898C75.777 32.5898 76.7466 34.6178 76.7466 37.4072V40.5986H71.44V40.6021ZM74.088 38.4069V36.966C74.088 35.6638 73.7918 34.9594 72.794 34.9594C71.8984 34.9594 71.4647 35.5998 71.4647 36.9696V38.4105H74.088V38.4069Z" fill="white"/>
<path d="M90.0143 41.4669V42.1749C90.0143 44.2562 89.6723 47.1701 85.8607 47.1701C82.5216 47.1701 81.8164 45.0639 81.8164 42.2888V33.1166C81.8164 30.3095 83.0787 28.4487 85.9101 28.4487C89.2915 28.4487 89.9368 30.708 89.9368 33.2305V34.0452H87.1512V32.9032C87.1512 31.6935 86.8692 31.0068 85.9066 31.0068C84.944 31.0068 84.6513 31.6686 84.6513 32.9138V42.5307C84.6513 43.7154 84.884 44.6405 85.9418 44.6405C86.9996 44.6405 87.2112 43.84 87.2112 42.4844V41.4669H90.0214H90.0143Z" fill="white"/>
<path d="M94.3156 28.7155V42.5484C94.3156 43.8755 94.7458 44.6333 95.8212 44.6333C96.8966 44.6333 97.281 43.7829 97.281 42.5519V28.7155H100.063V42.495C100.063 45.3662 98.7795 47.1665 95.7718 47.1665C92.7642 47.1665 91.5371 45.601 91.5371 42.5021V28.7119H94.3156V28.7155Z" fill="white"/>
<path d="M109.122 38.5955H105.159V44.3236H109.725L109.373 46.903H102.377V28.7153H109.337V31.3197H105.155V36.016H109.119V38.5955H109.122Z" fill="white"/>
<path d="M111.064 46.903V28.7153H114.284C115.003 31.2805 117.154 40.2605 117.344 41.2212H117.376C117.249 38.9833 117.242 36.4252 117.242 33.4366V28.7153H119.809V46.903H116.713C116.145 44.7292 113.744 34.7566 113.564 33.9916H113.536C113.667 36.1939 113.656 38.6595 113.656 41.9292V46.903H111.064Z" fill="white"/>
<path d="M123.938 31.3197H121.043V28.7153H129.625V31.3197H126.713V46.903H123.934V31.3197H123.938Z" fill="white"/>
<path d="M132.295 42.0395L131.664 46.903H128.836L131.738 28.7153H135.666L138.681 46.903H135.775L135.066 42.0395H132.295ZM134.738 39.46C134.326 36.3718 133.931 33.4402 133.726 31.3837H133.624C133.547 32.8816 133.004 36.7774 132.644 39.46H134.735H134.738Z" fill="white"/>
<path d="M142.52 41.5487V42.673C142.52 44.025 142.922 44.7792 143.98 44.7792C145.038 44.7792 145.345 43.7439 145.345 42.5627C145.345 40.6095 144.929 40.0011 142.993 38.4641C141.053 36.92 140.017 35.9309 140.017 33.2376C140.017 30.8396 140.736 28.4203 143.991 28.4238C147.316 28.4238 147.83 30.8183 147.83 32.7929V33.7642H145.073V32.8676C145.073 31.601 144.862 30.8361 143.938 30.8361C143.014 30.8361 142.795 31.6295 142.795 32.8356C142.795 34.1199 143.035 34.7497 144.622 35.9202C147.319 37.934 148.144 39.1009 148.144 42.1429C148.144 44.7223 147.249 47.1666 143.885 47.1666C140.521 47.1666 139.738 45.0247 139.738 42.6268V41.5487H142.517H142.52Z" fill="white"/>
<path d="M58.625 49.7031H60.6912C61.95 49.7031 62.8174 50.5001 62.8174 51.9552C62.8174 53.4104 62.0346 54.2963 60.5608 54.2963H59.503V57.7937H58.625V49.7067V49.7031ZM59.503 53.5456H60.4691C61.4317 53.5456 61.9253 53.0297 61.9253 51.9481C61.9253 51.0551 61.4634 50.4574 60.5714 50.4574H59.5065V53.5456H59.503Z" fill="white" stroke="white" stroke-width="0.5" stroke-miterlimit="10"/>
<path d="M64.0028 53.8125C64.0028 52.8483 64.0028 52.1866 63.9922 51.7561H64.8243C64.8349 51.9126 64.8525 52.1937 64.8525 52.8341C65.1064 52.1047 65.6847 51.6742 66.4357 51.6636V52.6242C65.4061 52.6562 64.8702 53.3109 64.8702 54.4209V57.7937H64.0063V53.8125H64.0028Z" fill="white" stroke="white" stroke-width="0.5" stroke-miterlimit="10"/>
<path d="M71.2844 54.7018C71.2844 56.8258 70.5757 57.9038 69.2252 57.9038C67.8747 57.9038 67.166 56.8649 67.166 54.7231C67.166 52.5813 67.977 51.6562 69.2605 51.6562C70.5439 51.6562 71.2844 52.6773 71.2844 54.7053V54.7018ZM68.051 54.7267C68.051 56.3704 68.4565 57.1496 69.2358 57.1496C70.015 57.1496 70.4029 56.3597 70.4029 54.7196C70.4029 53.1755 70.0221 52.4141 69.2322 52.4141C68.4424 52.4141 68.051 53.0901 68.051 54.7267Z" fill="white" stroke="white" stroke-width="0.5" stroke-miterlimit="10"/>
<path d="M73.0222 51.7524C73.5123 53.7093 74.1082 56.0681 74.2281 56.8081H74.2387C74.3198 56.1428 75.2154 52.9835 75.5045 51.7524H76.3754L74.6653 57.7901H73.731L72.1055 51.7524H73.0222Z" fill="white" stroke="white" stroke-width="0.5" stroke-miterlimit="10"/>
<path d="M77.459 51.7522H78.3229V57.7899H77.459V51.7522ZM77.4625 49.3115H78.3264V50.5603H77.4625V49.3115Z" fill="white" stroke="white" stroke-width="0.5" stroke-miterlimit="10"/>
<path d="M80.0223 53.6205C80.0223 52.3859 80.0152 52.0337 80.0117 51.7526H80.8474C80.865 51.8985 80.8791 52.1368 80.8791 52.546C81.0801 52.0764 81.4891 51.6494 82.2966 51.6494C83.164 51.6494 83.8339 52.1475 83.8339 53.4888V57.7903H82.963V53.6596C82.963 52.9231 82.7232 52.4215 82.0427 52.4215C81.2352 52.4215 80.8932 52.9551 80.8932 54.1933V57.7867H80.0223V53.6169V53.6205Z" fill="white" stroke="white" stroke-width="0.5" stroke-miterlimit="10"/>
<path d="M89.1161 55.9469C89.0914 56.2671 88.9645 57.8966 87.2156 57.8966C85.6501 57.8966 85.2305 56.502 85.2305 54.7479C85.2305 52.9939 85.777 51.6455 87.2967 51.6455C89.035 51.6455 89.1161 53.2643 89.1196 53.5525H88.2381C88.2276 53.307 88.1465 52.3962 87.2932 52.3962C86.4399 52.3962 86.1155 53.3462 86.1155 54.7444C86.1155 56.2458 86.4399 57.1424 87.2509 57.1424C88.1147 57.1424 88.2205 56.26 88.2628 55.9434H89.1196L89.1161 55.9469Z" fill="white" stroke="white" stroke-width="0.5" stroke-miterlimit="10"/>
<path d="M90.4199 51.7522H91.2838V57.7899H90.4199V51.7522ZM90.4235 49.3115H91.2873V50.5603H90.4235V49.3115Z" fill="white" stroke="white" stroke-width="0.5" stroke-miterlimit="10"/>
<path d="M96.3967 56.7262C96.3967 57.1033 96.4284 57.6014 96.4425 57.7935H95.6527C95.621 57.6583 95.5928 57.3346 95.5928 57.1069C95.3706 57.5978 94.9228 57.9003 94.1788 57.9003C93.0293 57.9003 92.6133 56.993 92.6133 56.1534C92.6133 55.0469 93.3537 54.2215 94.9228 54.2215C95.2049 54.2215 95.3706 54.2215 95.5469 54.2392V53.4352C95.5469 52.962 95.4588 52.3678 94.6478 52.3678C93.7698 52.3678 93.7134 53.0011 93.6781 53.4067H92.8425C92.8672 52.5422 93.2762 51.6562 94.6725 51.6562C95.8361 51.6562 96.3896 52.2255 96.3896 53.3391V56.7262H96.3967ZM95.5716 54.933C95.4235 54.9081 95.2578 54.901 94.9792 54.901C93.9144 54.901 93.4807 55.4169 93.4807 56.0858C93.4807 56.6408 93.7698 57.1531 94.4115 57.1531C95.286 57.1531 95.5716 56.5305 95.5716 55.2568V54.9295V54.933Z" fill="white" stroke="white" stroke-width="0.5" stroke-miterlimit="10"/>
<path d="M104.365 49.3154V56.2426C104.365 56.826 104.365 57.4344 104.376 57.7938H103.54C103.523 57.6372 103.509 57.2423 103.509 56.9826C103.325 57.5056 102.944 57.9005 102.102 57.9005C100.857 57.9005 100.328 56.8332 100.328 54.7127C100.328 52.7843 101.033 51.6565 102.289 51.6565C103.064 51.6565 103.368 51.9909 103.498 52.2862V49.319H104.362L104.365 49.3154ZM101.217 54.7198C101.217 56.4631 101.608 57.1249 102.341 57.1249C103.269 57.1249 103.519 56.3244 103.519 54.6878C103.519 52.9266 103.276 52.4285 102.408 52.4285C101.696 52.4285 101.217 53.0583 101.217 54.7198Z" fill="white" stroke="white" stroke-width="0.5" stroke-miterlimit="10"/>
<path d="M106.617 54.9366C106.617 56.1178 106.818 57.1531 107.767 57.1531C108.715 57.1531 108.825 56.2565 108.856 56.0715H109.703C109.689 56.2281 109.519 57.9038 107.756 57.9038C105.993 57.9038 105.75 56.2743 105.75 54.7729C105.75 52.8624 106.399 51.6562 107.806 51.6562C109.378 51.6562 109.752 52.962 109.752 54.4705C109.752 54.5844 109.748 54.7872 109.734 54.9366H106.617ZM108.888 54.2535C108.888 53.2146 108.67 52.4034 107.799 52.4034C106.706 52.4034 106.649 53.8408 106.635 54.2535H108.892H108.888Z" fill="white" stroke="white" stroke-width="0.5" stroke-miterlimit="10"/>
<path d="M117.902 55.552C117.867 56.0216 117.662 57.9108 115.723 57.9108C113.59 57.9108 113.428 55.6338 113.428 53.6876C113.428 51.3359 114.045 49.5854 115.822 49.5854C117.754 49.5854 117.86 51.4106 117.881 51.9052H116.996C116.978 51.6312 116.929 50.3753 115.808 50.3753C114.545 50.3753 114.352 52.1151 114.352 53.6912C114.352 55.399 114.538 57.1245 115.751 57.1245C116.82 57.1245 116.982 55.9576 117.017 55.5484H117.909L117.902 55.552Z" fill="white" stroke="white" stroke-width="0.5" stroke-miterlimit="10"/>
<path d="M123.148 54.702C123.148 56.8261 122.439 57.9041 121.088 57.9041C119.738 57.9041 119.029 56.8652 119.029 54.7234C119.029 52.5816 119.84 51.6565 121.124 51.6565C122.407 51.6565 123.148 52.6776 123.148 54.7056V54.702ZM119.914 54.7269C119.914 56.3707 120.32 57.1498 121.099 57.1498C121.878 57.1498 122.266 56.36 122.266 54.7198C122.266 53.1757 121.889 52.4143 121.096 52.4143C120.302 52.4143 119.914 53.0903 119.914 54.7269ZM122.83 49.1411L121.349 50.7991H120.542L121.808 49.1411H122.83Z" fill="white" stroke="white" stroke-width="0.5" stroke-miterlimit="10"/>
<path d="M124.538 53.8125C124.538 52.8483 124.538 52.1866 124.527 51.7561H125.359C125.37 51.9126 125.388 52.1937 125.388 52.8341C125.642 52.1047 126.22 51.6742 126.971 51.6636V52.6242C125.941 52.6562 125.405 53.3109 125.405 54.4209V57.7937H124.541V53.8125H124.538Z" fill="white" stroke="white" stroke-width="0.5" stroke-miterlimit="10"/>
<path d="M131.736 49.3154V56.2426C131.736 56.826 131.736 57.4344 131.747 57.7938H130.911C130.894 57.6372 130.88 57.2423 130.88 56.9826C130.696 57.5056 130.316 57.9005 129.473 57.9005C128.228 57.9005 127.699 56.8332 127.699 54.7127C127.699 52.7843 128.404 51.6565 129.66 51.6565C130.435 51.6565 130.739 51.9909 130.869 52.2862V49.319H131.733L131.736 49.3154ZM128.588 54.7198C128.588 56.4631 128.979 57.1249 129.713 57.1249C130.64 57.1249 130.89 56.3244 130.89 54.6878C130.89 52.9266 130.647 52.4285 129.78 52.4285C129.067 52.4285 128.588 53.0583 128.588 54.7198Z" fill="white" stroke="white" stroke-width="0.5" stroke-miterlimit="10"/>
<path d="M137.238 54.7018C137.238 56.8258 136.529 57.9038 135.178 57.9038C133.828 57.9038 133.119 56.8649 133.119 54.7231C133.119 52.5813 133.93 51.6562 135.214 51.6562C136.497 51.6562 137.238 52.6773 137.238 54.7053V54.7018ZM134.004 54.7267C134.004 56.3704 134.41 57.1496 135.189 57.1496C135.968 57.1496 136.356 56.3597 136.356 54.7196C136.356 53.1755 135.979 52.4141 135.185 52.4141C134.392 52.4141 134.004 53.0901 134.004 54.7267Z" fill="white" stroke="white" stroke-width="0.5" stroke-miterlimit="10"/>
<path d="M138.638 49.3154H139.501V52.5566C139.692 52.0941 140.108 51.6565 140.926 51.6565C142.072 51.6565 142.675 52.6242 142.675 54.6237C142.675 56.488 142.181 57.8934 140.76 57.8934C139.995 57.8934 139.653 57.5091 139.473 57.0822C139.473 57.2814 139.463 57.5554 139.441 57.7938H138.627C138.638 57.4736 138.638 56.8759 138.638 56.1358V49.3154ZM141.797 54.638C141.797 53.1259 141.444 52.425 140.697 52.425C139.773 52.425 139.47 53.254 139.47 54.7838C139.47 56.2319 139.706 57.1213 140.612 57.1213C141.409 57.1213 141.797 56.3386 141.797 54.6344V54.638Z" fill="white" stroke="white" stroke-width="0.5" stroke-miterlimit="10"/>
<path d="M147.498 56.7262C147.498 57.1033 147.53 57.6014 147.544 57.7935H146.754C146.723 57.6583 146.694 57.3346 146.694 57.1069C146.472 57.5978 146.024 57.9003 145.28 57.9003C144.131 57.9003 143.715 56.993 143.715 56.1534C143.715 55.0469 144.455 54.2215 146.024 54.2215C146.306 54.2215 146.472 54.2215 146.648 54.2392V53.4352C146.648 52.962 146.56 52.3678 145.749 52.3678C144.871 52.3678 144.815 53.0011 144.78 53.4067H143.944C143.969 52.5422 144.378 51.6562 145.774 51.6562C146.938 51.6562 147.491 52.2255 147.491 53.3391V56.7262H147.498ZM146.673 54.933C146.525 54.9081 146.359 54.901 146.081 54.901C145.016 54.901 144.582 55.4169 144.582 56.0858C144.582 56.6408 144.871 57.1531 145.513 57.1531C146.388 57.1531 146.673 56.5305 146.673 55.2568V54.9295V54.933Z" fill="white" stroke="white" stroke-width="0.5" stroke-miterlimit="10"/>
<path d="M51.6655 36.3824C48.6226 40.4668 43.792 43.1174 38.3408 43.1174C29.6316 43.1174 22.4879 36.3789 21.7334 27.7867V24.7767C22.4879 16.1845 29.6316 9.44598 38.3408 9.44598C43.7356 9.44598 48.5204 12.0432 51.5703 16.0493C52.4871 15.3591 53.358 14.7116 54.0562 14.1886C50.509 9.50291 44.9485 6.46451 38.6828 6.35777L38.711 6.33643H0.0273438V9.5207H12.795V12.3065H0.0273438V15.4908H12.795V46.2199H15.9507V9.52781H27.65C26.4159 10.3319 25.2735 11.2605 24.2474 12.3136H18.5741L18.5811 26.2853C18.5811 28.7864 18.7363 34.4114 24.0923 40.1075C30.4532 46.871 38.6687 46.2056 38.6687 46.2056C44.9979 46.0989 50.6077 43.0071 54.1514 38.2432L51.662 36.3789L51.6655 36.3824Z" fill="white"/>
<path d="M124.621 22.0727C134.229 23.5848 144.448 15.4018 147.723 6.45379L145.037 0.00341797C142.97 10.435 135.21 19.1802 124.621 22.0763V22.0727Z" fill="white"/>
<path d="M151.471 14.2705C147.515 20.1125 140.992 24.1542 133.982 25.1362C141.084 25.8833 148.164 23.1971 153.026 17.9991L151.471 14.2705Z" fill="white"/>
<path d="M150.741 13.1104L148.53 7.80566C145.085 16.2876 136.51 22.649 127.459 23.4353C136.066 26.3207 145.738 20.4609 150.741 13.1104Z" fill="white"/>
</g>
<defs>
<clipPath id="clip0_1970_1054">
<rect width="153" height="58" fill="white" transform="translate(0.0273438)"/>
</clipPath>
</defs>
</svg>
