<svg width="198" height="62" viewBox="0 0 198 62" fill="none" xmlns="http://www.w3.org/2000/svg">
<g clip-path="url(#clip0_1970_1097)">
<path d="M62.4567 61.9731C46.9316 61.9731 31.4065 61.9731 15.876 61.9731C10.9904 61.9731 6.09934 61.9569 1.2137 62C0.329326 62.0054 0.0273438 61.7846 0.0273438 60.8532C0.0543064 40.9601 0.0596989 21.0722 0.0273438 1.17906C0.0273438 0.161514 0.361681 0 1.2838 0C42.1538 0.0323029 83.0292 0.0430705 123.899 0.0269191C124.972 0.0269191 125.156 0.387635 125.156 1.34595C125.129 21.1099 125.123 40.8739 125.166 60.6325C125.166 61.7254 124.751 61.8977 123.835 61.8977C115.099 61.8869 106.363 61.8977 97.6268 61.8977C85.9034 61.8977 74.1855 61.8977 62.4621 61.8977V61.9677L62.4567 61.9731ZM31.0074 61.0201V61.0363C40.7356 61.0363 50.4637 61.0309 60.1918 61.0471C61.211 61.0471 61.8473 60.9878 61.8419 59.6257C61.7988 40.4271 61.8042 21.2338 61.8419 2.03508C61.8419 0.969086 61.486 0.764501 60.51 0.764501C41.0537 0.791421 21.5975 0.796804 2.14122 0.764501C1.01957 0.764501 0.809261 1.1306 0.809261 2.16429C0.836224 21.0615 0.825439 39.9533 0.825439 58.8505C0.825439 61.0255 0.825439 61.0148 2.99324 61.0148C12.3331 61.0148 21.673 61.0148 31.0128 61.0148L31.0074 61.0201ZM91.1558 29.4979C91.5225 29.8425 91.6465 29.9502 91.7543 30.0632C93.9006 32.2813 96.0414 34.4995 98.1876 36.7122C98.3925 36.9222 98.6298 37.2345 98.9372 37.1268C99.3848 36.976 99.1529 36.5346 99.1529 36.2277C99.1583 32.8736 99.1259 29.5248 99.1529 26.1707C99.1583 25.3524 98.9372 25.0563 98.069 25.0293C97.0498 25.0024 96.9366 25.5408 96.9419 26.2999C96.9419 28.2812 97.0875 30.2624 96.8718 32.3836C94.3643 29.681 91.9485 27.1452 89.2198 24.884C89.0581 28.7711 89.0527 32.5505 89.0581 36.3246C89.0581 37.3152 89.8346 36.863 90.2983 36.9437C90.8052 37.0299 91.1881 36.976 91.1719 36.2384C91.118 34.1065 91.1504 31.9691 91.1504 29.4979H91.1558ZM86.2216 29.6002C86.2216 28.5288 86.2324 27.4521 86.2216 26.3807C86.2108 25.7346 86.4427 24.9917 85.2617 25.0401C84.07 25.0886 84.3935 25.88 84.3827 26.4884C84.3558 28.4642 84.3935 30.4401 84.3827 32.4159C84.3719 33.8534 83.644 34.801 82.5169 35.1563C80.2521 35.867 78.6774 34.0957 78.6828 32.1683C78.6936 30.1063 78.6559 28.0443 78.699 25.9823C78.7152 25.2393 78.4833 24.9863 77.7445 25.0563C77.1352 25.1155 76.5528 24.9917 76.5797 25.9554C76.6391 28.3189 76.5636 30.6824 76.6175 33.0458C76.6606 35.054 77.998 36.6799 79.8746 37.1537C82.5223 37.8267 84.4582 37.1322 85.5907 35.1401C86.5883 33.385 86.1245 31.463 86.227 29.611L86.2216 29.6002ZM110.752 33.8857C109.55 34.3164 108.638 35.1994 107.35 35.1563C106.001 35.1078 104.934 34.5641 104.168 33.4981C103.03 31.926 103.219 29.1749 104.497 27.9258C106.303 26.1653 107.646 26.1761 110.612 28.0443C110.402 27.1237 111.405 26.0953 110.245 25.4224C107.824 24.0172 103.985 24.3456 102.248 27.1883C100.852 29.471 100.776 32.0014 102.065 34.408C103.278 36.6692 105.29 37.4337 107.803 37.2237C110.526 36.9976 111.243 36.4323 110.752 33.8911V33.8857Z" fill="white"/>
<path d="M140.966 46.3441C140.966 44.3682 140.955 42.5915 140.977 40.8095C140.977 40.4649 140.756 39.975 141.29 39.8135C142.061 39.582 142.276 39.9965 142.266 40.6964C142.244 42.8015 142.266 44.9066 142.239 47.017C142.239 47.3777 142.53 47.9323 141.84 48.0507C141.241 48.153 140.799 48.0077 140.448 47.4208C139.354 45.5849 138.205 43.7814 137.078 41.9616C136.965 41.784 136.841 41.6171 136.501 41.1271C136.501 43.1407 136.501 44.8258 136.501 46.511C136.501 46.8555 136.501 47.2001 136.517 47.5446C136.528 47.943 136.312 48.0615 135.951 48.0561C135.601 48.0507 135.525 47.8408 135.52 47.5554C135.52 45.1488 135.52 42.7423 135.52 40.3357C135.52 40.0827 135.503 39.8027 135.886 39.792C136.372 39.7758 136.771 39.8027 137.078 40.3196C138.205 42.1878 139.391 44.0182 140.556 45.8595C140.643 45.9941 140.761 46.1126 140.955 46.3548L140.966 46.3441Z" fill="white"/>
<path d="M140.989 29.9071C140.989 29.0457 141 28.1843 140.989 27.3229C140.984 26.8276 141.21 26.6445 141.695 26.623C142.305 26.5907 142.267 26.973 142.267 27.3714C142.267 29.0511 142.391 30.7416 142.229 32.4052C142.051 34.2357 140.908 35.2317 139.075 35.3555C137.317 35.474 136.157 34.6072 135.769 32.9921C135.311 31.0754 135.618 29.1372 135.532 27.2098C135.516 26.876 135.575 26.6284 136.006 26.6284C136.432 26.6284 136.659 26.8007 136.659 27.2314C136.659 28.1789 136.637 29.1265 136.637 30.074C136.637 30.9731 136.524 31.8615 136.767 32.7659C137.101 34.015 137.667 34.4834 139.08 34.4242C140.331 34.3703 140.887 33.8158 140.994 32.4914C141.027 32.066 141.027 31.6353 141.032 31.2046C141.038 30.7739 141.032 30.3432 141.032 29.9125H140.994L140.989 29.9071Z" fill="white"/>
<path d="M175.371 55.4803C175.614 54.7697 175.258 54.0536 175.361 53.343C175.42 52.9392 175.382 52.4977 175.922 52.5246C176.423 52.5515 176.45 52.9769 176.45 53.3914C176.45 55.6688 176.466 57.9407 176.482 60.2181C176.482 60.5949 176.234 61.1226 176.008 60.918C175.161 60.1589 174.654 61.0095 174.007 61.1764C172.551 61.5533 171.214 60.3096 170.95 58.3661C170.685 56.3956 172.357 54.4574 173.921 54.7212C174.563 54.8289 174.708 55.518 175.366 55.4857L175.371 55.4803ZM173.797 60.2235C175.016 60.3581 175.231 59.7443 175.442 57.8654C175.576 56.6701 174.606 55.5342 173.694 55.5611C172.724 55.5934 171.904 56.6809 171.936 57.8977C171.98 59.6097 172.481 60.2342 173.791 60.2235H173.797Z" fill="white"/>
<path d="M152.889 56.7564C152.679 59.1522 154.194 60.412 155.817 60.2666C156.922 60.1643 157.715 59.7874 158.017 58.6568C158.13 58.2261 158.33 57.7308 158.875 57.9623C159.446 58.2046 158.95 58.6407 158.853 58.9476C158.109 61.2465 155.316 61.9894 153.277 60.4335C151.627 59.1737 151.756 57.3378 151.902 55.5988C152.015 54.1883 152.862 53.1977 154.253 52.6647C156.184 51.9271 158.244 52.5947 158.864 54.2475C158.945 54.4682 159.182 54.7159 158.864 54.9259C158.54 55.1412 158.271 54.9851 158.114 54.689C157.332 53.2084 156.108 52.88 154.636 53.4561C153.121 54.0537 152.749 55.3243 152.878 56.7564H152.889Z" fill="white"/>
<path d="M185.595 55.7061C186.485 54.5593 187.58 54.4732 188.48 54.8985C189.57 55.4153 190.087 56.5136 190.001 57.7788C189.915 59.0817 189.737 60.3362 188.318 60.9607C187.634 61.2622 186.987 61.2945 186.383 60.8476C186.01 60.573 185.779 60.3631 185.309 60.7938C184.894 61.176 184.598 60.7938 184.592 60.3362C184.576 57.978 184.581 55.6199 184.592 53.2618C184.592 52.9011 184.711 52.5135 185.137 52.5404C185.547 52.5673 185.611 52.9496 185.606 53.321C185.595 54.0263 185.606 54.7316 185.606 55.7007L185.595 55.7061ZM185.557 57.9834C185.563 58.1126 185.574 58.2419 185.579 58.3657C185.638 59.7816 186.081 60.1962 187.418 60.2339C188.744 60.2715 188.966 59.4424 188.987 58.4087C188.998 57.9404 189.03 57.4612 188.971 57.0036C188.82 55.8461 187.957 55.3507 186.846 55.6576C185.584 56.0022 185.574 56.9767 185.563 57.978L185.557 57.9834Z" fill="white"/>
<path d="M182.796 29.7618C182.796 28.8681 182.796 28.1144 182.796 27.3553C182.796 27.0107 182.726 26.6608 183.266 26.6338C183.805 26.6069 183.789 26.9407 183.783 27.2961C183.783 29.7026 183.783 32.1092 183.778 34.5211C183.778 34.8172 183.659 35.3287 183.347 35.0326C182.656 34.3704 182.193 34.9142 181.632 35.1187C180.639 35.4795 179.793 35.248 179.054 34.4942C177.798 33.2021 178.1 30.3433 179.583 29.3473C180.737 28.5774 181.756 29.0135 182.791 29.7672L182.796 29.7618ZM183.007 32.2222C183.045 31.1455 182.02 29.7726 181.146 29.7295C180.106 29.6757 179.415 30.4133 179.367 31.6354C179.286 33.6167 179.744 34.4135 180.974 34.4404C182.031 34.4619 182.964 33.439 183.007 32.2222Z" fill="white"/>
<path d="M197.016 30.9841C197.016 32.1416 197.016 33.2991 197.016 34.4566C197.016 34.952 196.984 35.4419 196.342 34.882C196.056 34.6289 195.878 34.6935 195.566 34.8497C192.891 36.1795 191.597 34.0744 191.607 32.1201C191.618 29.5735 193.139 28.5829 195.571 29.3851C196.099 29.5574 196.17 29.3474 196.137 28.9059C196.099 28.3945 196.067 27.883 196.073 27.3715C196.073 27.0324 196.094 26.6501 196.59 26.6393C197.173 26.6286 197 27.0808 197 27.3769C197.016 28.5775 197.005 29.7781 197.011 30.9787L197.016 30.9841ZM192.594 32.0932C192.589 33.6706 193.247 34.5643 194.385 34.532C195.587 34.4997 196.24 33.6222 196.202 32.0878C196.17 30.6718 195.415 29.7081 194.363 29.7458C193.198 29.7889 192.6 30.5857 192.594 32.0878V32.0932Z" fill="white"/>
<path d="M139.419 55.4694C139.419 54.538 139.413 53.7681 139.419 53.0036C139.419 52.7182 139.543 52.4975 139.877 52.519C140.163 52.5406 140.19 52.7775 140.195 52.9874C140.222 55.4694 140.244 57.9567 140.255 60.4386C140.255 60.697 140.055 61.1008 139.845 60.8855C139.214 60.2448 138.782 60.8478 138.303 61.0255C137.192 61.4346 135.957 61.0255 135.385 59.8841C134.765 58.635 134.743 57.2891 135.45 56.0831C136.243 54.7318 137.494 54.1342 139.419 55.464V55.4694ZM139.408 57.9944C139.408 56.5569 138.739 55.6093 137.688 55.5609C136.755 55.5178 135.795 56.7023 135.768 57.9298C135.741 59.2703 136.474 60.2287 137.542 60.2448C138.96 60.2663 139.413 59.7226 139.408 57.9944Z" fill="white"/>
<path d="M177.549 45.2886C177.77 45.9938 177.08 46.9952 178.045 47.6844C178.212 47.8028 178.191 47.9966 178.002 48.0989C177.862 48.1743 177.592 48.2766 177.549 48.2281C176.616 47.0868 175.737 48.0182 174.826 48.2604C173.941 48.4919 173.132 48.255 172.739 47.4044C172.361 46.5968 172.345 45.7354 173.122 45.0678C173.715 44.5564 174.513 44.6963 175.203 44.481C175.683 44.3302 176.422 44.7125 176.508 43.8349C176.551 43.4258 176.665 42.8497 176.12 42.7366C175.392 42.5913 174.588 42.349 173.941 43.0112C173.666 43.2912 173.699 43.8942 173.105 43.8134C173.019 43.8026 172.922 43.5388 172.911 43.3881C172.868 42.8228 173.1 42.3651 173.634 42.139C174.664 41.6976 175.732 41.6976 176.751 42.1444C177.695 42.559 177.56 43.4527 177.56 44.2656C177.56 44.5671 177.56 44.8686 177.56 45.2886H177.549ZM176.519 45.8485C176.341 45.6331 176.891 45.0678 176.098 45.0786C174.545 45.1001 173.316 45.6654 173.402 46.4353C173.478 47.0814 173.812 47.5336 174.572 47.5498C175.786 47.5767 176.514 46.9683 176.519 45.8431V45.8485Z" fill="white"/>
<path d="M196.239 58.1507C196.417 58.8936 195.765 59.965 196.935 60.5572C197.053 60.6164 196.989 60.8641 196.827 60.9879C196.595 61.171 196.304 61.2356 196.12 61.031C195.403 60.2557 194.735 60.6703 193.985 60.9825C192.772 61.4832 191.585 60.9449 191.17 59.7981C190.83 58.8559 191.424 58.0753 192.766 57.6069C193.311 57.4185 193.85 57.3431 194.416 57.3862C194.875 57.4185 195.204 57.2031 195.295 56.7939C195.392 56.3471 195.209 55.981 194.745 55.7656C193.92 55.378 193.165 55.4157 192.524 56.1048C192.281 56.3632 192.135 56.9716 191.699 56.5894C191.326 56.2663 191.655 55.8033 191.957 55.4695C192.88 54.4251 194.104 54.5973 195.188 54.9042C196.104 55.1626 196.331 56.0887 196.25 57.0254C196.218 57.3646 196.25 57.7146 196.25 58.1614L196.239 58.1507ZM193.316 60.4388C194.54 60.4657 195.463 59.5397 195.436 58.4091C195.43 58.0968 195.339 57.9676 194.993 57.9568C193.327 57.9084 192.044 58.5491 192.092 59.4589C192.135 60.2827 192.842 60.2719 193.322 60.4388H193.316Z" fill="white"/>
<path d="M149.752 47.8136C149.32 48.1474 148.862 48.5566 148.565 48.1743C147.848 47.2429 147.244 47.889 146.576 48.142C145.422 48.5781 144.09 48.1205 143.842 47.216C143.453 45.8108 143.933 45.0732 145.422 44.6964C145.966 44.5564 146.495 44.4003 147.066 44.4433C147.573 44.4864 147.935 44.2334 147.945 43.7273C147.961 43.2104 147.649 42.7367 147.147 42.6936C146.349 42.629 145.384 42.2683 144.942 43.4258C144.866 43.625 144.575 43.7434 144.327 43.9426C144.014 43.5496 144.041 43.1997 144.197 42.839C144.575 41.9506 145.907 41.5361 147.411 41.8806C148.328 42.0906 148.792 42.6721 148.743 43.6465C148.706 44.4218 148.77 45.1971 148.722 45.9723C148.668 46.7961 148.754 47.5121 149.746 47.819L149.752 47.8136ZM144.602 46.43C144.661 46.5592 144.737 46.7099 144.796 46.866C145.006 47.4583 145.492 47.5767 146.026 47.539C146.829 47.4852 147.503 47.216 147.767 46.3384C147.875 45.9723 148.112 45.5955 147.913 45.2401C147.633 44.7341 147.233 45.2401 146.894 45.2401C146.392 45.2455 145.891 45.3855 145.4 45.4986C144.931 45.6062 144.704 45.9454 144.602 46.43Z" fill="white"/>
<path d="M147.152 59.3244C146.187 60.9664 144.849 61.5856 143.539 61.0418C142.142 60.4657 141.226 58.7914 141.662 57.4131C142.288 55.448 143.313 54.4951 144.968 54.7535C146.1 54.9312 146.656 55.7172 147.05 56.6217C147.535 57.7254 147.206 58.1399 145.987 58.1399C145.297 58.1399 144.607 58.0969 143.917 58.1507C143.517 58.183 142.887 57.8492 142.784 58.5922C142.692 59.2759 142.887 59.8843 143.561 60.2019C144.499 60.6434 145.346 60.4011 146.003 59.6635C146.327 59.2974 146.58 59.0444 147.147 59.3244H147.152ZM144.499 57.397V57.4131C144.715 57.4131 144.941 57.4508 145.141 57.4023C145.518 57.3108 146.133 57.6769 146.235 57.0847C146.311 56.6432 145.95 56.261 145.523 55.9541C145.022 55.5988 144.531 55.4103 143.976 55.6149C143.345 55.8464 142.768 56.3256 142.843 57.0039C142.93 57.7631 143.679 57.2678 144.116 57.3808C144.235 57.4131 144.375 57.3808 144.504 57.3808L144.499 57.397Z" fill="white"/>
<path d="M162.18 32.5558C161.792 32.5558 161.398 32.5181 161.015 32.5666C160.67 32.6097 160.109 32.3189 160.044 32.8465C160.001 33.2073 160.12 33.681 160.465 34.0094C161.263 34.774 162.25 34.7363 163.199 33.8479C163.506 33.5626 163.873 33.0673 164.218 33.4711C164.52 33.821 164.051 34.2463 163.733 34.5263C162.811 35.3285 161.727 35.5061 160.616 35.0862C159.597 34.6986 159.176 33.8479 159.085 32.7658C158.863 30.2192 159.964 28.8248 162.153 28.954C163.296 29.024 164.375 29.9824 164.547 31.1022C164.687 32.0174 164.596 32.7496 163.345 32.5558C162.967 32.4966 162.568 32.5451 162.18 32.5451V32.5558ZM161.7 31.8344C162.282 31.4844 163.382 32.3566 163.479 31.226C163.55 30.4077 162.854 29.6916 161.889 29.7455C160.999 29.7939 160.055 30.16 160.088 31.1937C160.125 32.3135 161.177 31.506 161.7 31.8344Z" fill="white"/>
<path d="M183.255 58.0267C183.54 59.9326 181.88 61.2947 180.407 61.2355C178.763 61.1709 177.555 59.8572 177.555 58.059C177.555 56.2016 178.924 54.5649 180.477 54.5649C182.025 54.5649 183.244 56.0832 183.255 58.0267ZM182.246 57.9998C182.257 56.5408 181.615 55.604 180.569 55.5556C179.361 55.4963 178.59 56.4439 178.579 58.0052C178.568 59.518 179.226 60.3633 180.445 60.4171C181.631 60.471 182.23 59.658 182.246 57.9998Z" fill="white"/>
<path d="M191.047 34.9088C190.449 35.0865 189.888 35.4364 189.451 34.7527C189.149 34.2789 188.928 34.6342 188.637 34.8119C188.049 35.1672 187.429 35.388 186.685 35.2426C185.639 35.038 185.062 34.4835 185.11 33.4175C185.153 32.3676 185.914 31.9369 186.809 31.8239C187.407 31.7485 188.011 31.7324 188.583 31.5278C188.955 31.3932 189.246 31.2155 189.257 30.7148C189.268 30.1495 188.912 29.9234 188.502 29.8157C187.666 29.5896 186.879 29.6596 186.324 30.4564C186.146 30.7094 185.914 30.9679 185.579 30.7579C185.105 30.4618 185.52 30.1226 185.655 29.8803C186.097 29.0728 187.65 28.6851 188.804 29.0243C189.85 29.3312 190.179 30.0795 190.12 31.0809C190.088 31.6785 190.12 32.2869 190.05 32.8791C189.937 33.7621 190.05 34.4889 191.053 34.9088H191.047ZM189.257 32.9491C189.079 32.7768 189.543 32.2438 188.783 32.2331C187.58 32.2169 186.178 32.7876 186.097 33.4336C185.984 34.2897 186.604 34.4673 187.186 34.5858C188.044 34.7581 189.171 33.8643 189.257 32.9545V32.9491Z" fill="white"/>
<path d="M164.564 44.9117C164.759 46.7637 163.351 48.4004 161.652 48.3466C159.986 48.2927 159.026 47.4529 158.924 45.0409C158.848 43.1512 159.862 41.8375 161.701 41.7999C163.427 41.7676 164.796 43.1781 164.564 44.9117ZM163.529 45.0732C163.615 44.5402 163.529 44.018 163.238 43.5065C162.952 42.9951 162.677 42.5805 161.981 42.6182C161.324 42.6559 160.682 42.6397 160.331 43.3289C159.76 44.4595 159.652 45.6116 160.261 46.753C160.833 47.8297 162.472 47.8567 163.114 46.8068C163.427 46.29 163.642 45.7354 163.529 45.0732Z" fill="white"/>
<path d="M165.858 57.8492C165.847 60.1104 164.936 61.2356 163.108 61.2302C161.496 61.2302 160.196 59.7981 160.18 58.0053C160.164 56.4009 161.717 54.5973 163.076 54.6404C164.893 54.6996 165.869 55.8248 165.858 57.8492ZM165.109 57.833C165.125 56.5947 164.251 55.5718 163.167 55.5503C162.013 55.5287 161.183 56.6001 161.199 58.0753C161.21 59.502 161.932 60.4172 163.043 60.4226C164.246 60.428 165.092 59.3674 165.109 57.8276V57.833Z" fill="white"/>
<path d="M172.231 35.3503C171.304 35.2265 170.382 35.1672 169.902 34.1928C169.762 33.902 169.648 33.5844 169.94 33.3852C170.225 33.1914 170.393 33.509 170.538 33.7028C171.288 34.6881 172.264 34.7796 173.299 34.2951C174.087 33.9236 174.097 33.2452 173.299 32.8899C172.652 32.5992 171.93 32.443 171.223 32.3138C170.296 32.1415 169.88 31.4632 169.832 30.6987C169.789 29.9557 170.296 29.3743 171.067 29.0889C172.248 28.6528 173.704 28.9866 174.211 29.8373C174.372 30.1011 174.577 30.4026 174.302 30.6448C173.995 30.914 173.731 30.6125 173.563 30.381C173.057 29.6811 172.339 29.6596 171.601 29.7457C171.218 29.7888 170.819 29.9449 170.759 30.4079C170.705 30.844 170.953 31.1294 171.374 31.2747C171.859 31.4416 172.329 31.6839 172.825 31.7862C173.812 31.98 174.723 32.2169 174.669 33.4821C174.62 34.6342 173.892 35.1134 172.83 35.2318C172.62 35.2534 172.409 35.318 172.226 35.3611L172.231 35.3503Z" fill="white"/>
<path d="M166.214 41.7783C166.866 42.3705 167.427 42.3113 168.101 42.0421C169.686 41.4068 170.9 42.1875 171.04 43.9372C171.132 45.0894 171.051 46.2523 171.062 47.4098C171.062 47.7974 170.997 48.0989 170.512 48.072C169.988 48.0451 170.048 47.6574 170.048 47.329C170.037 46.3869 170.059 45.4393 170.042 44.4971C170.026 43.7003 170.156 42.7743 168.985 42.6397C167.912 42.5159 167.001 43.2966 166.92 44.4487C166.855 45.3909 166.92 46.3384 166.893 47.2806C166.888 47.5713 167.077 48.0558 166.494 48.0235C166.057 47.9966 166.149 47.609 166.138 47.329C166.047 45.5416 166.063 43.7542 166.219 41.7783H166.214Z" fill="white"/>
<path d="M144.126 29.0836C144.741 29.6542 145.156 29.5843 145.814 29.2828C147.68 28.4214 148.953 29.2666 148.985 31.2963C149.001 32.33 148.996 33.3583 148.985 34.392C148.985 34.7096 149.109 35.1027 148.548 35.1296C147.939 35.1619 147.982 34.7581 147.982 34.3651C147.982 33.4175 147.95 32.4754 147.993 31.5278C148.036 30.5803 147.939 29.7565 146.731 29.735C145.706 29.7188 144.887 30.5533 144.854 31.6301C144.827 32.5723 144.865 33.5198 144.854 34.4674C144.854 34.7366 144.967 35.135 144.482 35.1242C144.029 35.1134 144.094 34.7419 144.094 34.4566C144.088 32.9115 144.088 31.3609 144.094 29.8158C144.094 29.5735 144.115 29.3312 144.132 29.0889L144.126 29.0836Z" fill="white"/>
<path d="M151.342 45.1002C151.342 45.3371 151.331 45.5094 151.342 45.6817C151.402 46.4946 151.66 47.243 152.502 47.496C153.359 47.7491 153.979 47.3506 154.389 46.5485C154.562 46.2093 154.777 45.6009 155.295 45.9186C155.726 46.1824 155.23 46.6077 155.128 46.9361C154.799 48.0129 153.909 48.3197 152.906 48.2982C151.968 48.282 151.251 47.9321 150.776 46.9738C150.026 45.4609 150.204 44.0611 151.024 42.726C151.617 41.7569 152.696 41.8376 153.699 41.8538C154.233 41.8645 154.637 42.096 154.896 42.4998C155.171 42.9305 155.786 43.5228 155.246 43.9158C154.713 44.3088 154.502 43.4958 154.216 43.1405C153.618 42.3868 152.421 42.4191 151.822 43.2266C151.385 43.8081 151.256 44.4649 151.337 45.1056L151.342 45.1002Z" fill="white"/>
<path d="M155.408 34.2087C156.06 32.5074 156.562 31.1722 157.096 29.8478C157.247 29.4763 157.414 28.8357 157.899 29.051C158.358 29.2556 157.996 29.7886 157.84 30.1762C157.306 31.5222 156.81 32.8789 156.26 34.2195C156.109 34.5802 156.082 35.124 155.494 35.124C154.949 35.124 154.836 34.661 154.674 34.2679C153.99 32.5774 153.526 30.7954 152.561 29.0833C153.601 28.8787 153.946 29.4333 154.173 30.1493C154.556 31.3822 154.922 32.6205 155.408 34.2141V34.2087Z" fill="white"/>
<path d="M167.785 54.8021C167.952 54.8129 168.14 54.8021 168.2 55.0121C168.448 55.8681 168.89 55.4589 169.203 55.109C169.467 54.8182 169.747 54.6567 170.098 54.7429C170.346 54.8021 170.254 55.0982 170.287 55.2974C170.362 55.8465 169.952 55.7443 169.623 55.8196C168.793 56.0134 168.426 56.5734 168.442 57.4186C168.459 58.3231 168.453 59.2276 168.448 60.1321C168.448 60.5143 168.502 60.9396 167.909 60.9612C167.375 60.9773 167.402 60.5789 167.396 60.2505C167.38 58.6623 167.38 57.0687 167.402 55.4804C167.402 55.2274 167.294 54.829 167.774 54.7967L167.785 54.8021Z" fill="white"/>
<path d="M180.402 43.862C180.402 45.0626 180.402 46.2632 180.402 47.4584C180.402 47.7006 180.451 47.9968 180.084 48.0398C179.647 48.0883 179.604 47.7868 179.599 47.4691C179.539 45.1164 179.475 42.7583 179.421 40.4056C179.41 40.0341 179.518 39.668 179.938 39.6518C180.418 39.6357 180.413 40.0341 180.407 40.3894C180.407 41.5469 180.407 42.7045 180.407 43.862H180.402Z" fill="white"/>
<path d="M157.801 44.9765C157.801 45.7895 157.791 46.6024 157.807 47.4154C157.818 47.83 157.688 48.0668 157.235 48.0668C156.836 48.0668 156.556 47.9592 156.556 47.5069C156.55 45.8379 156.545 44.169 156.545 42.4946C156.545 42.0639 156.815 41.8862 157.208 41.8862C157.629 41.8862 157.823 42.1231 157.818 42.5377C157.818 43.3506 157.818 44.1636 157.818 44.9765H157.801Z" fill="white"/>
<path d="M166.419 28.949C166.812 29.6219 167.227 29.8265 167.848 29.272C168.08 29.0674 168.484 28.7552 168.878 29.0728C168.975 29.1536 168.985 29.3904 168.969 29.552C168.915 30.0527 168.5 29.9234 168.182 29.9827C167.168 30.1549 166.942 30.9248 166.909 31.7701C166.872 32.6638 166.909 33.5629 166.899 34.462C166.899 34.742 166.974 35.1134 166.51 35.1134C166.154 35.1134 166.138 34.8227 166.133 34.5697C166.133 32.7499 166.133 30.9302 166.133 29.1105C166.23 29.0566 166.322 29.0028 166.419 28.9436V28.949Z" fill="white"/>
<path d="M176.002 32.0552C176.002 31.2799 176.013 30.5046 175.997 29.7294C175.986 29.3525 176.148 29.1641 176.509 29.1371C176.913 29.1102 177.021 29.374 177.021 29.7132C177.021 31.3499 177.021 32.9866 177.021 34.6233C177.021 34.9086 176.946 35.1186 176.595 35.1293C176.239 35.1401 176.013 35.0486 176.013 34.6394C176.018 33.778 176.013 32.9166 176.013 32.0552H176.002Z" fill="white"/>
<path d="M151.6 32.249C151.6 33.0189 151.605 33.7888 151.6 34.5533C151.6 34.7901 151.664 35.0916 151.276 35.1239C150.958 35.1509 150.769 34.957 150.753 34.6878C150.645 32.9435 150.607 31.1991 150.802 29.4602C150.829 29.2233 151.023 29.051 151.244 29.0887C151.546 29.1425 151.6 29.4117 151.6 29.6863C151.6 30.5423 151.6 31.393 151.6 32.249Z" fill="white"/>
<path d="M162.629 53.9242C163.06 53.2459 163.098 52.1099 164.479 52.2768C163.955 53.0682 163.416 53.6227 162.629 53.9242Z" fill="white"/>
<path d="M36.8198 14.4019C36.9438 13.1583 37.6017 12.5607 38.7126 12.733C39.4298 12.846 39.4352 13.4059 39.1386 13.912C38.4969 15.0211 37.8282 16.1194 37.138 17.2015C36.7443 17.8153 36.9438 18.1437 37.6017 18.0737C41.6515 17.6484 43.307 22.23 41.8403 25.5357C41.6192 26.031 41.5814 26.5209 41.5167 27.0324C41.4196 27.8076 41.5005 28.4106 42.3957 28.7821C43.3717 29.1913 43.485 29.9988 42.9296 30.9033C42.757 31.1887 42.1369 31.3933 42.5844 31.8347C42.9565 32.2062 43.2585 32.82 43.938 32.6692C44.5905 32.5292 45.1243 32.7554 45.6528 33.0622C47.0495 33.8698 47.222 34.3974 46.1489 35.5173C45.3939 36.3033 45.3292 36.9493 45.7822 37.8969C46.4724 39.3344 46.8445 40.8903 46.4778 42.4947C45.9763 44.6913 44.5311 46.1557 42.4065 46.7156C40.4058 47.2432 38.7773 48.1746 37.4292 49.7144C34.1559 53.4507 28.6933 53.5423 25.4254 49.8113C24.0179 48.2069 22.3517 47.2755 20.351 46.7425C16.916 45.8219 15.3198 42.3224 16.6625 38.7206C17.5145 36.4271 17.4498 36.1202 15.6973 34.4028C16.6464 33.6114 17.2719 32.3785 18.9058 32.7123C19.4181 32.8146 20.049 32.2923 20.3726 31.7863C20.7447 31.2102 20.0059 31.1456 19.774 30.8495C19.2725 30.2034 19.4181 29.1697 20.2755 28.8521C21.5967 28.3568 21.4295 27.4954 21.1869 26.4724C20.9011 25.2772 20.502 24.1143 20.529 22.833C20.5991 19.845 21.9526 18.2837 24.9131 18.0845C25.7759 18.0252 25.8838 17.7399 25.4847 17.0562C24.967 16.1678 24.4332 15.2903 23.9694 14.3696C23.7375 13.912 22.9556 13.2983 23.867 12.8999C24.541 12.6037 25.393 12.7383 25.8083 13.5459C25.9539 13.8313 25.846 14.262 26.3853 14.1974C26.725 14.1543 26.9677 13.9443 27.0593 13.6644C27.2319 13.1421 26.6819 13.1314 26.4338 13.0398C25.819 12.8245 25.8999 12.3346 26.0509 11.99C26.2936 11.4355 26.4931 10.7194 27.2211 10.6063C27.8143 10.5148 28.2241 11.0371 28.7148 11.2847C29.486 11.6723 28.9845 12.13 28.7742 12.5607C28.6609 12.7976 28.5045 13.1529 28.8335 13.1906C29.3619 13.2444 29.9821 13.3682 30.4297 12.9375C30.6993 12.6791 30.3596 12.5176 30.2194 12.313C29.9497 11.92 29.1624 11.6616 29.5129 11.1178C29.9282 10.4664 30.4674 9.68572 31.2278 9.50267C32.1768 9.26578 32.4788 10.3479 33.0504 10.8594C33.5519 11.3116 33.045 11.71 32.7916 12.0761C32.6029 12.3453 31.9288 12.4853 32.4249 12.9375C32.8509 13.3252 33.5034 13.3575 34.0211 13.1367C34.4417 12.9591 34.0804 12.5984 33.9132 12.4099C33.2284 11.667 33.8216 11.3062 34.3716 11.0801C34.9432 10.8432 35.6065 9.98721 36.1835 11.1393C36.5556 11.8823 37.4723 12.5822 35.984 13.2229C35.3261 13.5028 35.4879 13.8043 36.8252 14.3912L36.8198 14.4019ZM25.1288 37.7139C24.8538 41.181 27.3775 45.4558 29.7933 46.7317C31.217 47.4855 32.468 47.1947 33.7029 46.2257C37.413 43.3292 37.6934 39.0975 38.2003 34.9466C38.2542 34.5105 37.9576 34.3543 37.5478 34.3543C33.4441 34.3597 29.335 34.3651 25.2313 34.3651C24.7783 34.3651 24.3792 34.532 24.4925 35.0112C24.6597 35.7165 24.568 36.4971 24.9562 37.1808C25.4038 36.9278 25.3823 36.1149 25.873 36.3087C27.1133 36.7932 28.6393 36.8148 29.3889 38.2038C29.5291 38.4676 29.6154 38.7745 30.1385 38.5591C29.2379 37.7892 30.365 37.0893 30.1493 36.341C29.788 35.0865 31.1792 35.5549 31.4758 34.9573C31.891 35.2804 32.6999 35.8241 32.6568 35.8995C32.0798 36.944 33.0774 37.45 33.3147 38.3868C34.1289 37.3101 35.078 36.7932 36.232 36.6102C36.6095 36.5509 37.0355 36.2871 37.3051 36.6371C37.5748 36.9817 37.4939 37.4608 37.2836 37.8592C36.7281 38.9037 36.1458 39.9374 35.5849 40.9818C35.2182 41.6656 34.7383 42.0747 33.8809 42.1501C32.8725 42.2416 32.1553 44.0506 32.6783 44.9282C32.8078 45.1489 33.3578 45.2781 32.9803 45.6065C32.6244 45.9188 32.3386 45.5042 32.1553 45.2512C31.794 44.7613 31.5459 44.239 31.9719 43.6091C32.2847 43.1569 32.6136 42.6562 32.7161 42.134C32.8347 41.5525 33.1799 41.3748 33.6059 41.461C34.4633 41.6386 34.8246 41.1703 35.2506 40.5619C35.8168 39.7597 36.0109 38.7583 36.7174 38.0423C36.9115 37.8431 36.9708 37.5739 36.836 37.3262C36.6311 36.9332 36.2967 37.2132 36.0271 37.2293C34.5657 37.3208 33.8971 38.4622 33.1151 39.6197C32.8779 38.8983 32.7377 38.3115 32.4842 37.7731C32.1876 37.1432 31.7347 36.8309 30.942 37.1216C29.9551 37.4823 30.8449 37.7892 30.8988 38.1284C31.0067 38.7691 30.8233 39.3128 30.2355 39.6305C29.5129 40.0235 29.5075 39.2752 29.2649 38.9521C28.607 38.0746 27.9221 37.337 26.7196 37.1485C26.0348 37.0409 25.8137 37.3101 26.0509 37.73C26.7681 39.0113 27.1888 40.5403 28.4991 41.391C28.9953 41.714 29.3188 41.9455 29.2056 42.5539C29.0923 43.1623 29.2217 43.8999 28.1324 44.2336C28.8335 43.06 28.6933 42.2901 27.701 41.5579C27.0809 41.1003 26.5632 40.3896 26.3421 39.5713C26.148 38.8444 25.598 38.3868 25.118 37.6923L25.1288 37.7139ZM31.7131 51.9056C32.0043 51.8733 32.5921 51.911 33.2014 51.8033C35.132 51.4533 36.3129 50.0966 37.5694 48.8153C38.7557 47.6039 40.0661 46.4033 41.8025 46.3226C44.2345 46.2041 46.7043 42.8715 46.0357 40.3142C45.8092 39.4421 45.3454 38.6883 45.1567 37.7946C44.887 36.5186 45.0866 35.2211 44.7954 33.9613C44.7145 33.6006 44.6713 33.2722 44.2238 33.2507C43.938 33.2399 43.6629 33.3637 43.6899 33.6706C43.8732 35.6465 42.9188 37.5954 43.8085 39.6197C44.9356 42.1986 43.8732 44.0506 41.1231 44.6913C38.993 45.1866 37.1973 46.1718 35.9462 48.0185C35.6065 48.5192 35.1535 48.896 34.6197 49.2083C31.5351 51.0226 28.5315 50.1451 26.5686 47.6739C25.3014 46.0749 23.6836 45.1812 21.7369 44.7074C18.7818 43.9914 17.8489 42.2524 18.9382 39.469C19.3049 38.5268 19.472 37.6062 19.2833 36.6048C19.1269 35.7703 18.9274 34.9358 18.9975 34.0636C19.0245 33.6975 19.2348 33.1107 18.4852 33.1484C17.8219 33.1861 17.919 33.7137 17.9567 34.1175C18.1239 35.9964 17.6332 37.7515 17.0724 39.5174C16.0316 42.8016 17.8758 45.7788 21.0143 46.3064C22.7291 46.5971 24.115 47.5447 25.2852 48.9337C26.8436 50.7857 28.8011 52.094 31.7239 51.8948L31.7131 51.9056ZM38.0277 42.0424C38.9876 40.508 39.9583 39.006 40.875 37.4662C41.1554 36.9978 41.5437 36.3733 41.425 35.9426C41.2633 35.3557 40.5353 35.8241 40.0661 35.7218C40.023 35.7111 39.9744 35.7218 39.9421 35.7003C38.6587 34.9035 38.8151 35.8241 38.6587 36.664C37.9469 40.4973 37.2997 44.3629 33.8 46.9309C32.3872 47.9646 30.338 48.0131 28.9413 46.9417C25.5063 44.2983 24.5734 40.5404 24.2121 36.5348C24.1312 35.6411 24.2552 34.7474 22.9826 35.7057C22.7453 35.8834 22.4433 35.9049 22.1198 35.808C21.1761 35.528 21.1653 35.9803 21.4942 36.6532C21.7207 37.1162 21.9364 37.5846 22.2061 38.0207C23.0311 39.3505 23.8777 40.6588 24.9293 42.3062C23.5326 41.7894 22.1899 41.0034 22.0605 43.2323C21.3756 42.4947 21.1599 41.7463 20.8363 41.0572C20.5074 40.3627 20.502 39.4744 19.677 39.0167C18.4475 42.3708 18.9382 43.3776 22.2384 44.309C24.0611 44.8259 25.571 45.7142 26.8275 47.2001C29.5129 50.3658 33.2554 50.5273 35.682 47.5124C37.1811 45.6442 39.0254 44.6751 41.2687 44.1421C43.733 43.5607 44.4718 41.0949 42.7894 39.049C42.2339 40.4865 41.6246 41.854 40.8588 43.1892C40.4274 42.2668 39.4855 41.8863 38.0331 42.0478L38.0277 42.0424ZM29.8311 29.945H33.978C33.9995 29.8589 34.0211 29.7727 34.0427 29.6866C32.2847 28.5398 30.5213 27.3931 28.6501 26.171C28.6016 27.0754 28.5585 27.8076 28.4991 28.8359C27.7388 27.6569 26.9515 27.953 26.3206 28.2868C25.6734 27.6515 26.5039 26.8762 25.9215 26.0794C25.2151 28.0284 25.0371 29.8912 24.6543 31.7109C24.2067 33.8214 24.665 33.9936 26.7142 33.8214C30.1169 33.5414 33.5142 33.7783 36.9115 33.789C37.4507 33.789 38.1679 34.0259 38.2003 33.1753C38.2434 32.2116 37.4184 32.5885 36.96 32.5831C34.6574 32.5454 32.3548 32.5669 30.0576 32.5669C31.0013 31.7163 30.8287 30.9733 29.8311 29.945ZM37.4669 28.8521C37.3105 26.6663 36.4046 24.9165 35.3962 23.2314C34.7868 22.2192 33.7784 21.5893 32.7107 21.094C32.3818 20.9433 31.918 20.701 31.8102 21.2878C31.7616 21.557 31.9989 21.9177 31.5567 21.977C31.1145 22.0308 30.9581 21.7347 31.0228 21.3148C31.0929 20.8787 30.7532 20.9164 30.5267 20.9594C29.5453 21.1371 28.8658 21.8208 28.1648 22.4454C27.9922 22.6015 28.0623 22.8491 28.2619 22.9999C28.3643 23.0806 28.4884 23.1237 28.5962 23.1937C30.3757 24.3889 32.1229 25.6272 33.9402 26.7632C35.0565 27.4631 36.0541 28.3783 37.4615 28.8467L37.4669 28.8521ZM24.4655 20.5826C23.0311 21.1102 22.4757 22.0685 22.3786 23.3552C22.2923 24.5127 22.4379 25.6433 22.7507 26.7632C23.0419 27.8076 23.0257 28.9059 22.81 29.9396C22.4811 31.5225 22.4002 31.5063 24.115 31.9747C24.2768 29.1805 24.9724 26.5371 26.3044 24.0767C26.5363 23.6406 26.4985 23.3337 26.0024 23.1937C24.7244 22.8384 24.2498 21.9716 24.4655 20.5826ZM31.0013 18.5206C32.522 18.6175 33.7892 18.4613 35.0295 18.1222C35.5903 17.966 36.3776 17.9337 36.383 17.1854C36.3884 16.507 35.6604 16.2809 35.1158 16.0602C32.4465 15.0049 29.7987 15.118 27.178 16.2647C26.752 16.4478 26.3475 16.6793 26.3367 17.1208C26.3259 17.5945 26.7789 17.7884 27.2049 17.9283C28.5153 18.3537 29.8419 18.6282 31.0013 18.5206ZM38.4969 20.6687C38.4268 22.1815 38.1949 22.5207 36.712 23.156C36.2967 23.3337 36.0487 23.4144 36.3614 23.9474C37.6557 26.1817 38.2542 28.6529 38.691 31.1725C38.7449 31.4686 38.4699 32.1308 39.1602 31.9478C39.694 31.8024 40.5245 31.4686 40.2279 30.7849C39.4406 28.9921 39.996 27.2908 40.2009 25.5141C40.4652 23.2368 40.6539 21.6486 38.5023 20.6633L38.4969 20.6687ZM35.6874 21.0725C35.5148 20.6472 35.8923 20.4587 36.1296 20.2757C36.9924 19.6296 37.9253 19.8288 38.8204 20.1842C40.0715 20.6848 40.6863 21.7132 40.751 22.9837C40.8265 24.4266 40.7995 25.8641 40.3789 27.3016C40.0661 28.3622 40.0769 29.5143 40.7725 30.5211C41.0476 30.9195 41.3711 31.0702 41.878 30.8926C42.3202 30.7418 42.7085 30.5426 42.7624 30.085C42.8217 29.6166 42.5089 29.272 42.0614 29.1321C40.6755 28.7121 40.6593 27.7269 40.9667 26.5909C41.2201 25.6487 41.5383 24.7281 41.6246 23.7375C41.9643 19.8773 40.0715 18.3429 36.9007 18.6121C35.5256 18.7251 35.2614 19.7427 35.0079 20.8356C34.803 21.7185 35.1913 22.2085 35.8761 22.5961C36.534 22.9676 37.0948 22.6123 37.4777 22.1708C37.8228 21.7778 37.8174 21.234 37.413 20.771C36.836 20.1142 36.5448 20.771 36.1565 21.0133C36.0163 21.1048 35.8761 21.2125 35.6766 21.0671L35.6874 21.0725ZM23.3007 33.6706C22.8585 33.4553 22.7076 33.4014 22.5781 33.3207C22.082 33.0192 21.6291 32.9007 21.2624 33.5199C20.8741 34.1767 21.2462 34.5535 21.7369 34.9089C22.4703 35.4365 23.0689 35.0758 23.5811 34.5751C24.1797 33.9936 24.0827 33.3045 23.5758 32.7284C22.988 32.0608 22.2222 31.684 21.3163 31.9909C20.254 32.3516 19.5367 33.1215 19.5152 34.2467C19.4666 36.6963 20.626 38.8498 21.4295 41.0787C21.78 42.0371 22.3463 41.0841 22.7938 41.0572C23.3762 41.0141 23.1012 40.5834 22.9448 40.2927C22.2654 39.0544 21.5589 37.8269 20.9011 36.5779C20.4211 35.6626 20.4373 34.6666 20.6854 33.6921C20.8148 33.1807 21.0682 32.6854 21.656 32.5992C22.2869 32.5077 22.8316 32.7015 23.3007 33.676V33.6706ZM21.834 26.4617C22.1198 25.8372 22.0928 25.4657 21.9796 25.0457C21.6506 23.7859 21.8717 22.5799 22.4757 21.4547C23.4949 19.565 25.8298 19.3981 27.1564 21.1048C26.7843 21.3094 26.6118 21.0671 26.4284 20.8087C26.0887 20.3295 25.6681 20.3941 25.3445 20.7656C25.0371 21.1156 24.7567 21.5678 25.1504 22.0362C25.5171 22.4723 26.0186 22.833 26.601 22.6984C27.1348 22.5746 27.6255 22.2515 27.8035 21.6485C28.1271 20.5503 27.4799 19.2474 26.3961 18.8113C24.665 18.1168 22.4919 18.8705 21.6237 20.4964C20.5883 22.4346 21.052 24.3297 21.834 26.4724V26.4617ZM39.3543 33.6814C39.9205 32.9276 40.2387 32.3839 41.0314 32.5454C41.7756 32.6961 42.0829 33.2184 42.2285 33.8806C42.455 34.9143 42.3741 35.9049 41.8079 36.8417C41.1231 37.9777 40.4652 39.1352 39.8235 40.2981C39.7048 40.5188 39.2465 41.0626 39.8235 41.0141C40.3735 40.9657 40.7941 42.2255 41.2956 41.181C42.3957 38.866 43.3502 36.5025 43.1075 33.8537C43.0212 32.933 42.482 32.357 41.6192 32.1308C40.6323 31.8724 39.7156 32.0931 39.1278 32.9492C38.8474 33.3583 38.8312 33.9506 39.1764 34.4028C39.5161 34.8497 39.9043 35.3019 40.573 35.1296C41.0422 35.0058 41.4897 34.812 41.5491 34.2359C41.5868 33.8483 41.6192 33.4553 41.2201 33.1968C40.5838 32.7877 40.2117 33.4391 39.3597 33.6814H39.3543ZM38.0709 31.614C37.9522 30.5211 37.7905 29.9342 37.0517 29.4712C34.0481 27.5707 31.0714 25.6218 28.1432 23.6029C27.4799 23.1452 27.2966 23.5813 27.027 23.8882C26.5794 24.3997 27.1564 24.5397 27.4368 24.7227C28.8011 25.6218 30.1762 26.4994 31.5459 27.3823C33.6274 28.7336 35.7143 30.085 38.0709 31.6194V31.614ZM30.0899 11.4247C31.3734 11.457 31.163 12.2592 31.19 12.9698C31.2278 13.9066 30.5267 13.7074 30.0252 13.7397C28.4884 13.8474 27.1564 14.4504 25.846 15.2203C25.4793 15.4356 25.2852 15.511 25.4416 15.9363C25.6465 16.4962 26.024 16.3563 26.3691 16.1517C26.9191 15.8233 27.4045 15.4302 28.0569 15.2526C30.9743 14.445 33.7838 14.375 36.3992 16.184C36.8576 16.5016 37.1218 16.2217 37.3213 15.8502C37.5802 15.3656 37.1865 15.3872 36.8791 15.2041C35.531 14.4019 34.1235 13.8474 32.5489 13.7236C32.1984 13.6967 31.6538 13.8636 31.7239 13.239C31.7832 12.7114 31.3356 11.9846 32.1067 11.6885C32.5813 11.5054 32.7592 11.3547 32.2685 11.0747C31.8749 10.8486 31.8155 10.3802 31.341 10.0249C31.3086 10.7948 30.7586 11.0155 30.0845 11.4247H30.0899ZM35.8815 32.0608C36.2644 32.007 36.712 32.1039 36.809 31.6894C36.8899 31.3448 36.4909 31.2371 36.2482 31.0756C34.8947 30.1873 33.4279 30.9249 32.0205 30.7956C31.643 30.758 31.5675 31.1833 31.5621 31.4579C31.5621 31.867 31.9234 31.8832 32.2254 31.867C33.4657 31.8078 34.7113 31.6947 35.8761 32.0555L35.8815 32.0608ZM22.0658 26.6286C21.8555 27.7969 21.9256 29.0244 20.3834 29.3959C19.9196 29.5089 20.0005 30.0958 20.2809 30.4942C20.5452 30.8656 20.9226 31.1079 21.3756 30.9841C21.9149 30.8441 22.1845 30.3919 22.3355 29.8804C22.659 28.7929 22.5296 27.7269 22.0605 26.6286H22.0658ZM35.132 18.5152C34.3177 19.1343 33.1205 18.5367 32.9857 19.8719C32.8994 20.7548 33.4872 20.9325 34.2044 21.1748C34.2044 20.2541 34.981 19.6781 35.132 18.5152ZM27.6471 18.6552C27.9006 19.2904 28.0623 19.7211 28.2511 20.1411C28.3913 20.448 28.2133 20.9863 28.8389 20.9594C29.335 20.9379 29.6909 20.631 29.7987 20.2272C29.9066 19.8234 29.7448 19.3335 29.3188 19.1397C28.8658 18.9297 28.3535 18.849 27.6525 18.6498L27.6471 18.6552ZM27.3775 26.9893C28.0246 27.2746 28.057 26.8816 28.0893 26.4563C28.1432 25.7241 27.6795 25.2934 27.0971 25.1373C26.5902 25.0027 26.5255 25.5195 26.5201 25.9179C26.5201 26.5209 26.4014 27.2369 27.3775 26.9839V26.9893ZM31.3518 20.1788C31.6753 19.9634 32.4141 20.5449 32.4087 19.7319C32.4033 19.0859 31.767 19.1397 31.314 19.1666C30.8934 19.1935 30.2086 18.9674 30.2247 19.6835C30.2355 20.4103 30.9312 20.0711 31.3572 20.1788H31.3518ZM34.8947 13.4975C35.1481 12.8352 36.4531 12.4153 35.5472 11.4893C35.1481 11.0747 34.7329 11.9415 34.1937 11.8715C34.7041 12.173 34.9378 12.715 34.8947 13.4975Z" fill="white"/>
<path d="M29.1251 31.2906C29.1305 32.1736 28.1005 33.3203 27.3294 33.288C26.6122 33.2557 25.5121 32.0767 25.4851 31.3122C25.4528 30.4185 26.4612 29.4548 27.4049 29.4709C28.3108 29.4871 29.1197 30.3431 29.1305 31.2906H29.1251ZM27.2916 30.0362C26.72 30.2785 26.1969 30.5584 26.1808 31.2799C26.1646 31.9959 26.569 32.4858 27.2377 32.4858C27.9064 32.4858 28.5265 32.0928 28.5481 31.3337C28.5751 30.5638 27.8956 30.3108 27.2916 30.0308V30.0362Z" fill="white"/>
<path d="M33.2407 23.5274C33.2083 23.985 32.9711 24.0873 32.5559 23.9097C31.9573 23.6512 31.3641 23.5543 30.7062 23.7697C30.3018 23.8989 29.9297 23.7051 29.9297 23.1936C29.9297 22.736 30.1022 22.5045 30.6469 22.5853C31.0945 22.6552 31.6337 22.7037 32.022 22.526C33.1922 21.9984 32.9387 23.0644 33.2461 23.5274H33.2407Z" fill="white"/>
</g>
<defs>
<clipPath id="clip0_1970_1097">
<rect width="197" height="62" fill="white" transform="translate(0.0273438)"/>
</clipPath>
</defs>
</svg>
