<svg width="197" height="64" viewBox="0 0 197 64" fill="none" xmlns="http://www.w3.org/2000/svg">
<path d="M90.1367 35.0165C92.1734 32.1406 92.5466 28.6751 95.6422 26.8179C96.6849 26.1922 97.196 25.0009 97.7356 23.918C99.4031 20.5688 101.075 17.2195 102.75 13.8743C103.075 13.2286 103.298 12.4344 104.292 12.5788C105.245 12.7192 105.091 13.5976 105.205 14.1631C106.008 18.0779 106.726 22.0087 107.493 25.9315C107.793 27.4637 111.112 28.5226 112.333 27.4998C112.808 27.1027 112.552 26.6735 112.467 26.2203C111.465 21.0501 110.483 15.8799 109.473 10.7137C109.104 8.82446 108.203 7.47275 105.959 7.63319C104.868 7.71341 104.641 7.32033 105.18 6.34966C106.118 4.65299 106.88 2.86006 107.882 1.20752C109.063 -0.733823 111.088 0.224813 112.694 0.264924C114.289 0.301023 115.599 1.33186 115.988 3.05259C116.135 3.69435 116.163 4.37623 116.163 5.03805C116.167 13.5214 116.163 22.0007 116.155 30.484C116.155 33.6046 114.767 35.0004 111.595 35.0045C104.584 35.0165 97.5774 35.0045 90.1408 35.0045L90.1367 35.0165Z" fill="white"/>
<path d="M80.922 17.6965C80.922 13.3566 80.8977 9.01667 80.9301 4.67674C80.9545 1.5722 82.3988 0.188394 85.5512 0.184383C92.1034 0.168339 98.6515 0.192405 105.204 0.144272C106.518 0.13625 107.009 0.332791 106.202 1.65242C105.54 2.73139 105.054 3.91063 104.453 5.0257C103.739 6.35736 103.163 7.70908 101.427 8.2626C100.278 8.6276 99.7063 9.89108 99.1627 10.9821C97.3979 14.5078 95.6249 18.0295 93.8439 21.5511C93.5517 22.1287 93.3489 22.8627 92.4563 22.7745C91.4948 22.6782 91.6003 21.856 91.4826 21.2503C90.6956 17.2674 89.9409 13.2804 89.162 9.29744C89.024 8.59952 89.0037 7.69704 87.9895 7.69704C86.7237 7.69704 85.4051 7.33605 84.2042 7.90963C83.8107 8.09815 84.1474 8.63963 84.2164 9.01266C85.1941 14.1668 86.1678 19.325 87.1699 24.4752C87.5757 26.5529 88.6873 27.8725 91.0363 27.7161C92.2454 27.6359 92.4928 28.0209 91.8113 29.0798C91.2351 29.9743 90.8538 30.9851 90.3426 31.9237C88.5291 35.2729 88.099 35.4815 84.257 35.0081C82.2771 34.7675 80.9139 33.1149 80.9058 30.9129C80.8936 26.5088 80.9058 22.1007 80.9058 17.6965C80.9139 17.6965 80.922 17.6965 80.9342 17.6965H80.922Z" fill="white"/>
<path d="M107.459 53.8882C107.459 51.0363 107.524 48.1845 107.431 45.3447C107.382 43.9288 107.69 43.3432 109.305 43.3753C113.139 43.4515 113.139 43.3632 113.135 47.1537C113.135 51.4976 113.127 55.8456 113.135 60.1895C113.135 61.3968 113.33 62.7646 111.918 63.3061C110.396 63.8837 108.855 63.7674 107.613 62.5119C104.871 59.7443 102.14 56.9646 99.3855 54.2091C99.0325 53.8561 98.785 53.1301 98.1846 53.3186C97.4462 53.5513 97.9452 54.2532 97.9331 54.7305C97.8681 57.1371 97.7951 59.5437 97.8641 61.9463C97.9006 63.286 97.3813 63.643 96.0952 63.6671C92.172 63.7393 92.1882 63.7874 92.172 59.8927C92.1558 55.6129 92.1193 51.3372 92.0827 47.0574C92.0706 45.6696 92.2004 44.3139 93.7096 43.6881C95.2878 43.0343 96.6104 43.6601 97.7586 44.735C100.939 47.7192 104.108 50.7195 107.463 53.8842L107.459 53.8882Z" fill="white"/>
<path d="M147.634 63.6629C145.877 63.6629 144.121 63.699 142.364 63.6548C138.68 63.5586 136.644 61.4849 136.635 57.8709C136.631 54.7985 136.599 51.726 136.648 48.6536C136.696 45.4568 138.765 43.4473 142.015 43.4192C145.731 43.3911 149.448 43.4553 153.16 43.3751C154.47 43.347 154.909 43.696 154.876 45.0517C154.791 48.4611 154.86 48.4851 151.444 48.5092C148.742 48.5292 146.04 48.5052 143.338 48.4731C142.494 48.4651 141.743 48.3247 141.751 49.6243C141.76 50.7514 142.068 51.1284 143.232 51.0963C145.999 51.0201 148.774 51.1404 151.541 51.0402C152.977 50.988 153.525 51.4733 153.326 52.8612C153.27 53.2542 153.265 53.6714 153.334 54.0605C153.61 55.6609 152.815 55.9617 151.379 55.9055C148.75 55.8012 146.109 55.8815 143.476 55.8614C142.543 55.8534 141.755 55.8333 141.731 57.157C141.707 58.5448 142.478 58.625 143.541 58.617C146.717 58.5849 149.894 58.6772 153.067 58.5689C154.539 58.5207 154.888 59.0381 154.86 60.4059C154.787 63.6709 154.852 63.6709 151.484 63.6709C150.202 63.6709 148.916 63.6709 147.634 63.6709V63.6589V63.6629Z" fill="white"/>
<path d="M186.017 43.4073C190.594 43.1666 192.642 43.4193 194.054 49.6445C194.995 53.7919 195.868 57.9593 196.898 62.0867C197.243 63.4705 196.744 63.7633 195.551 63.7071C195.012 63.6831 194.464 63.647 193.933 63.7111C192.525 63.8796 191.965 63.314 191.661 61.9062C190.772 57.7588 190.691 57.7668 186.459 57.7708C184.772 57.7708 182.828 57.3256 181.469 57.9994C180 58.7294 180.39 60.9475 179.96 62.5038C179.562 63.9277 178.524 63.7151 177.57 63.6911C174.775 63.6149 174.243 64.3328 175.128 60.8553C176.029 57.3055 176.803 53.7197 177.57 50.1378C178.974 43.5838 180.986 43.0944 186.025 43.4073H186.017ZM185.859 52.6969C185.859 52.6969 185.859 52.6928 185.859 52.6888C186.735 52.6888 187.616 52.6969 188.492 52.6848C188.906 52.6768 189.271 52.6206 189.385 52.0912C189.758 50.3544 188.334 48.5334 186.557 48.5093C185.814 48.5013 185.068 48.5294 184.329 48.4813C183.412 48.4251 183.064 48.8503 182.824 49.7046C181.997 52.6487 181.997 52.6928 185.056 52.6928C185.327 52.6928 185.595 52.6928 185.867 52.6928L185.859 52.6969Z" fill="white"/>
<path d="M79.3163 43.4233C79.8559 43.4233 80.3955 43.4233 80.9351 43.4233C84.3998 43.4394 86.2742 44.8272 87.0937 48.2165C88.2054 52.8011 89.1953 57.4138 90.2785 62.0024C90.5706 63.2418 90.2096 63.6429 88.9113 63.663C85.4425 63.7151 85.3127 63.7873 84.7893 60.406C84.4647 58.3043 83.6574 57.4178 81.43 57.6745C79.6327 57.8831 77.7908 57.7668 75.9692 57.7347C74.8697 57.7187 74.1435 58.0275 74.0705 59.2469C74.0461 59.6399 73.8757 60.021 73.7986 60.4141C73.1211 63.8274 72.5937 64.1684 69.0965 63.663C68.1958 63.5346 67.9808 63.1897 68.1796 62.3434C69.2912 57.6103 70.2771 52.8452 71.4861 48.1403C72.4841 44.2536 74.0461 43.4113 79.3163 43.4273V43.4233ZM79.3366 52.7129C80.217 52.7129 81.0933 52.7129 81.9737 52.7129C82.5498 52.7129 82.7526 52.4762 82.7729 51.8545C82.8622 49.3998 82.0589 48.5013 79.6287 48.4933C78.9511 48.4933 78.2777 48.5133 77.6001 48.4933C76.9956 48.4732 76.5899 48.6698 76.3262 49.2474C75.0726 51.9588 75.5472 52.7209 78.5251 52.7129C78.797 52.7129 79.0647 52.7129 79.3366 52.7129Z" fill="white"/>
<path d="M134.232 51.8183C134.232 54.0244 134.249 56.2264 134.232 58.4325C134.208 61.1319 132.508 63.2137 129.782 63.5145C126.56 63.8675 123.303 63.8634 120.077 63.5145C117.351 63.2217 115.574 61.148 115.553 58.4766C115.517 54.0003 115.59 49.524 115.505 45.0517C115.48 43.692 115.947 43.3591 117.245 43.3952C121.14 43.5115 120.605 42.99 120.641 46.6682C120.674 50.0735 120.698 53.4829 120.641 56.8883C120.621 58.1517 120.974 58.7293 122.361 58.6411C124.512 58.5047 127.278 59.2909 128.662 58.24C130.175 57.0928 129.035 54.233 129.133 52.1232C129.238 49.7887 129.238 47.4463 129.177 45.1119C129.145 43.8324 129.542 43.3871 130.901 43.3911C134.249 43.4032 134.249 43.331 134.24 46.604C134.24 47.1374 134.24 47.6709 134.24 48.2084C134.24 49.4117 134.24 50.615 134.24 51.8143L134.232 51.8183Z" fill="white"/>
<path d="M10.8201 63.6952C7.46489 63.6832 6.5561 63.1016 5.44852 59.9689C3.66746 54.9351 1.97565 49.8732 0.19459 44.8393C-0.166491 43.8205 -0.113748 43.4355 1.12366 43.3873C4.7507 43.247 4.79127 43.1868 6.04491 46.6403C7.29449 50.0898 8.45888 53.5673 9.63543 57.0409C9.87886 57.7589 10.0574 58.5571 11.0067 58.5089C11.8709 58.4648 11.8871 57.6105 12.094 57.0128C13.4207 53.1622 14.8488 49.3397 15.9848 45.437C16.4797 43.7363 17.2871 43.3232 18.9383 43.3713C22.0623 43.4676 22.0745 43.3793 21.0642 46.2833C19.4901 50.8238 17.9241 55.3683 16.3175 59.8967C15.145 63.2018 14.3741 63.7112 10.8201 63.6952Z" fill="white"/>
<path d="M158.648 43.4116C160.214 42.9624 160.993 43.8207 161.541 45.6217C162.722 49.5044 164.186 53.3068 165.545 57.1334C165.765 57.743 165.878 58.5011 166.763 58.5292C167.724 58.5613 167.716 57.7109 167.911 57.1334C169.168 53.4753 170.511 49.8413 171.574 46.1311C172.187 43.9932 173.165 43.1188 175.498 43.3474C177.948 43.5881 177.952 43.3916 177.165 45.6297C175.51 50.3467 173.895 55.0757 172.223 59.7887C170.929 63.4427 167.355 64.9428 163.785 63.3745C163.014 63.0376 162.45 62.456 162.125 61.6939C159.691 56.0464 158.056 50.1181 155.942 44.3582C155.671 43.6202 155.975 43.3835 156.681 43.4036C157.22 43.4196 157.76 43.4036 158.644 43.4036L158.648 43.4116Z" fill="white"/>
<path d="M31.1214 51.7622C31.1214 49.4278 31.166 47.0894 31.1011 44.7549C31.0727 43.7 31.4419 43.3751 32.4968 43.3912C37.1299 43.4634 36.1725 43.0061 36.2658 46.8768C36.3469 50.2139 36.3226 53.5511 36.2658 56.8883C36.2455 58.1758 36.6837 58.6772 38.0225 58.6331C40.6515 58.5529 43.2886 58.6692 45.9217 58.5729C47.3416 58.5208 47.7757 58.9781 47.7473 60.3939C47.6743 63.6629 47.7473 63.6629 44.3921 63.675C41.893 63.683 39.3979 63.7151 36.8987 63.695C33.223 63.6669 31.1376 61.5852 31.1336 57.9753C31.1336 55.9056 31.1336 53.8359 31.1336 51.7662H31.1255L31.1214 51.7622Z" fill="white"/>
<path d="M49.9831 51.4697C49.9831 49.4682 50.0683 47.4587 49.9547 45.4652C49.8695 43.957 50.2387 43.3273 51.9346 43.3794C55.1031 43.4797 55.1072 43.3794 55.1072 46.5923C55.1072 49.9295 55.2167 53.2706 55.0666 56.6038C54.9895 58.3085 55.7036 58.6695 57.1804 58.6294C59.6755 58.5612 62.1787 58.6615 64.6738 58.5572C66.1912 58.493 66.8768 58.854 66.7876 60.5346C66.6212 63.6592 66.7064 63.6632 63.4892 63.6712C60.99 63.6753 58.4908 63.7033 55.9957 63.6793C52.2023 63.6432 50.117 61.6417 50.0034 57.8833C49.9385 55.7495 49.9912 53.6116 49.9912 51.4737H49.9831V51.4697Z" fill="white"/>
<path d="M28.3874 53.5954C28.3874 56.3951 28.3266 59.1948 28.4158 61.9904C28.4605 63.3221 27.9736 63.8074 26.6754 63.6871C26.0059 63.6269 25.3284 63.659 24.6549 63.667C23.7258 63.6751 23.3729 63.2499 23.381 62.3193C23.4175 56.4552 23.4378 50.5871 23.3972 44.723C23.3891 43.6279 23.7989 43.3672 24.8091 43.3873C29.1664 43.4835 28.2901 42.8378 28.3712 46.7926C28.4158 49.0589 28.3793 51.3251 28.3793 53.5913H28.3915L28.3874 53.5954Z" fill="white"/>
</svg>
