<svg width="103" height="60" viewBox="0 0 103 60" fill="none" xmlns="http://www.w3.org/2000/svg">
<g clip-path="url(#clip0_211_2343)">
<mask id="mask0_211_2343" style="mask-type:luminance" maskUnits="userSpaceOnUse" x="0" y="0" width="103" height="60">
<path d="M103 0H0V60H103V0Z" fill="white"/>
</mask>
<g mask="url(#mask0_211_2343)">
<path d="M103 55.373H0V60.0002H103V55.373Z" fill="#CB001C"/>
<path d="M103 50.7764H0V55.4035H103V50.7764Z" fill="white"/>
<path d="M103 46.1489H0V50.7455H103V46.1489Z" fill="#CB001C"/>
<path d="M103 41.5527H0V46.1799H103V41.5527Z" fill="white"/>
<path d="M103 36.9253H0V41.5525H103V36.9253Z" fill="#CB001C"/>
<path d="M103 32.2983H0V36.8949H103V32.2983Z" fill="white"/>
<path d="M103 27.7017H0V32.3288H103V27.7017Z" fill="#CB001C"/>
<path d="M103 23.0747H0V27.6712H103V23.0747Z" fill="white"/>
<path d="M103 18.478H0V23.1052H103V18.478Z" fill="#CB001C"/>
<path d="M103 13.8511H0V18.4782H103V13.8511Z" fill="white"/>
<path d="M103 9.22363H0V13.8508H103V9.22363Z" fill="#CB001C"/>
<path d="M103 4.62695H0V9.25412H103V4.62695Z" fill="white"/>
<path d="M103 0H0V4.62717H103V0Z" fill="#CB001C"/>
<path d="M47.0498 0H0V32.2983H47.0498V0Z" fill="#2A3560"/>
<path d="M4.23546 3.55469L4.66513 4.78043H5.95417L4.91066 5.54652L5.27896 6.77226L4.23546 6.00617L3.22264 6.77226L3.62163 5.54652L2.57812 4.78043H3.83647L4.23546 3.55469Z" fill="white"/>
<path d="M4.23546 8.94775L4.66513 10.1735H5.95417L4.91066 10.9396L5.27896 12.1653L4.23546 11.3992L3.22264 12.1653L3.62163 10.9396L2.57812 10.1735H3.83647L4.23546 8.94775Z" fill="white"/>
<path d="M4.23546 14.3413L4.66513 15.567H5.95417L4.91066 16.3331L5.27896 17.5589L4.23546 16.7928L3.22264 17.5589L3.62163 16.3331L2.57812 15.567H3.83647L4.23546 14.3413Z" fill="white"/>
<path d="M4.23546 19.7344L4.66513 20.9601H5.95417L4.91066 21.7262L5.27896 22.9213L4.23546 22.1859L3.22264 22.9213L3.62163 21.7262L2.57812 20.9601H3.83647L4.23546 19.7344Z" fill="white"/>
<path d="M4.23546 25.1274L4.66513 26.3532H5.95417L4.91066 27.1193L5.27896 28.3144L4.23546 27.5789L3.22264 28.3144L3.62163 27.1193L2.57812 26.3532H3.83647L4.23546 25.1274Z" fill="white"/>
<path d="M8.01053 6.4043L8.40952 7.63004H9.69855L8.65505 8.39613L9.05404 9.59122L8.01053 8.85578L6.96703 9.59122L7.36601 8.39613L6.32251 7.63004H7.61154L8.01053 6.4043Z" fill="white"/>
<path d="M8.01053 11.7979L8.40952 13.0236H9.69855L8.65505 13.759L9.05404 14.9848L8.01053 14.2493L6.96703 14.9848L7.36601 13.759L6.32251 13.0236H7.61154L8.01053 11.7979Z" fill="white"/>
<path d="M8.01053 17.1909L8.40952 18.4167H9.69855L8.65505 19.1521L9.05404 20.3778L8.01053 19.6424L6.96703 20.3778L7.36601 19.1521L6.32251 18.4167H7.61154L8.01053 17.1909Z" fill="white"/>
<path d="M8.01053 22.5845L8.40952 23.8102H9.69855L8.65505 24.5457L9.05404 25.7714L8.01053 25.0053L6.96703 25.7714L7.36601 24.5457L6.32251 23.8102H7.61154L8.01053 22.5845Z" fill="white"/>
<path d="M11.8162 3.55469L12.2152 4.78043H13.5042L12.4607 5.54652L12.8597 6.77226L11.8162 6.00617L10.7727 6.77226L11.1717 5.54652L10.1282 4.78043H11.4172L11.8162 3.55469Z" fill="white"/>
<path d="M11.8162 8.94775L12.2152 10.1735H13.5042L12.4607 10.9396L12.8597 12.1653L11.8162 11.3992L10.7727 12.1653L11.1717 10.9396L10.1282 10.1735H11.4172L11.8162 8.94775Z" fill="white"/>
<path d="M11.8162 14.3413L12.2152 15.567H13.5042L12.4607 16.3331L12.8597 17.5589L11.8162 16.7928L10.7727 17.5589L11.1717 16.3331L10.1282 15.567H11.4172L11.8162 14.3413Z" fill="white"/>
<path d="M11.8162 19.7344L12.2152 20.9601H13.5042L12.4607 21.7262L12.8597 22.9213L11.8162 22.1859L10.7727 22.9213L11.1717 21.7262L10.1282 20.9601H11.4172L11.8162 19.7344Z" fill="white"/>
<path d="M11.8162 25.1274L12.2152 26.3532H13.5042L12.4607 27.1193L12.8597 28.3144L11.8162 27.5789L10.7727 28.3144L11.1717 27.1193L10.1282 26.3532H11.4172L11.8162 25.1274Z" fill="white"/>
<path d="M15.5911 6.4043L15.9901 7.63004H17.2791L16.2356 8.39613L16.6346 9.59122L15.5911 8.85578L14.5476 9.59122L14.9466 8.39613L13.9031 7.63004H15.1921L15.5911 6.4043Z" fill="white"/>
<path d="M15.5911 11.7979L15.9901 13.0236H17.2791L16.2356 13.759L16.6346 14.9848L15.5911 14.2493L14.5476 14.9848L14.9466 13.759L13.9031 13.0236H15.1921L15.5911 11.7979Z" fill="white"/>
<path d="M15.5911 17.1909L15.9901 18.4167H17.2791L16.2356 19.1521L16.6346 20.3778L15.5911 19.6424L14.5476 20.3778L14.9466 19.1521L13.9031 18.4167H15.1921L15.5911 17.1909Z" fill="white"/>
<path d="M15.5911 22.5845L15.9901 23.8102H17.2791L16.2356 24.5457L16.6346 25.7714L15.5911 25.0053L14.5476 25.7714L14.9466 24.5457L13.9031 23.8102H15.1921L15.5911 22.5845Z" fill="white"/>
<path d="M19.397 3.55469L19.796 4.78043H21.085L20.0415 5.54652L20.4405 6.77226L19.397 6.00617L18.3535 6.77226L18.7525 5.54652L17.709 4.78043H18.998L19.397 3.55469Z" fill="white"/>
<path d="M19.397 8.94775L19.796 10.1735H21.085L20.0415 10.9396L20.4405 12.1653L19.397 11.3992L18.3535 12.1653L18.7525 10.9396L17.709 10.1735H18.998L19.397 8.94775Z" fill="white"/>
<path d="M19.397 14.3413L19.796 15.567H21.085L20.0415 16.3331L20.4405 17.5589L19.397 16.7928L18.3535 17.5589L18.7525 16.3331L17.709 15.567H18.998L19.397 14.3413Z" fill="white"/>
<path d="M19.397 19.7344L19.796 20.9601H21.085L20.0415 21.7262L20.4405 22.9213L19.397 22.1859L18.3535 22.9213L18.7525 21.7262L17.709 20.9601H18.998L19.397 19.7344Z" fill="white"/>
<path d="M19.397 25.1274L19.796 26.3532H21.085L20.0415 27.1193L20.4405 28.3144L19.397 27.5789L18.3535 28.3144L18.7525 27.1193L17.709 26.3532H18.998L19.397 25.1274Z" fill="white"/>
<path d="M23.1719 6.4043L23.5402 7.63004H24.8292L23.7857 8.39613L24.1847 9.59122L23.1719 8.85578L22.1284 9.59122L22.4967 8.39613L21.4839 7.63004H22.7422L23.1719 6.4043Z" fill="white"/>
<path d="M23.1719 11.7979L23.5402 13.0236H24.8292L23.7857 13.759L24.1847 14.9848L23.1719 14.2493L22.1284 14.9848L22.4967 13.759L21.4839 13.0236H22.7422L23.1719 11.7979Z" fill="white"/>
<path d="M23.1719 17.1909L23.5402 18.4167H24.8292L23.7857 19.1521L24.1847 20.3778L23.1719 19.6424L22.1284 20.3778L22.4967 19.1521L21.4839 18.4167H22.7422L23.1719 17.1909Z" fill="white"/>
<path d="M23.1719 22.5845L23.5402 23.8102H24.8292L23.7857 24.5457L24.1847 25.7714L23.1719 25.0053L22.1284 25.7714L22.4967 24.5457L21.4839 23.8102H22.7422L23.1719 22.5845Z" fill="white"/>
<path d="M26.9469 3.55469L27.3459 4.78043H28.6349L27.5914 5.54652L27.9904 6.77226L26.9469 6.00617L25.9341 6.77226L26.3024 5.54652L25.2896 4.78043H26.5479L26.9469 3.55469Z" fill="white"/>
<path d="M26.9469 8.94775L27.3459 10.1735H28.6349L27.5914 10.9396L27.9904 12.1653L26.9469 11.3992L25.9341 12.1653L26.3024 10.9396L25.2896 10.1735H26.5479L26.9469 8.94775Z" fill="white"/>
<path d="M26.9469 14.3413L27.3459 15.567H28.6349L27.5914 16.3331L27.9904 17.5589L26.9469 16.7928L25.9341 17.5589L26.3024 16.3331L25.2896 15.567H26.5479L26.9469 14.3413Z" fill="white"/>
<path d="M26.9469 19.7344L27.3459 20.9601H28.6349L27.5914 21.7262L27.9904 22.9213L26.9469 22.1859L25.9341 22.9213L26.3024 21.7262L25.2896 20.9601H26.5479L26.9469 19.7344Z" fill="white"/>
<path d="M26.9469 25.1274L27.3459 26.3532H28.6349L27.5914 27.1193L27.9904 28.3144L26.9469 27.5789L25.9341 28.3144L26.3024 27.1193L25.2896 26.3532H26.5479L26.9469 25.1274Z" fill="white"/>
<path d="M30.722 6.4043L31.1209 7.63004H32.41L31.3665 8.39613L31.7655 9.59122L30.722 8.85578L29.6785 9.59122L30.0774 8.39613L29.0339 7.63004H30.323L30.722 6.4043Z" fill="white"/>
<path d="M30.722 11.7979L31.1209 13.0236H32.41L31.3665 13.759L31.7655 14.9848L30.722 14.2493L29.6785 14.9848L30.0774 13.759L29.0339 13.0236H30.323L30.722 11.7979Z" fill="white"/>
<path d="M30.722 17.1909L31.1209 18.4167H32.41L31.3665 19.1521L31.7655 20.3778L30.722 19.6424L29.6785 20.3778L30.0774 19.1521L29.0339 18.4167H30.323L30.722 17.1909Z" fill="white"/>
<path d="M30.722 22.5845L31.1209 23.8102H32.41L31.3665 24.5457L31.7655 25.7714L30.722 25.0053L29.6785 25.7714L30.0774 24.5457L29.0339 23.8102H30.323L30.722 22.5845Z" fill="white"/>
<path d="M34.5277 3.55469L34.9267 4.78043H36.2157L35.1722 5.54652L35.5712 6.77226L34.5277 6.00617L33.5149 6.77226L33.8832 5.54652L32.8704 4.78043H34.1287L34.5277 3.55469Z" fill="white"/>
<path d="M34.5277 8.94775L34.9267 10.1735H36.2157L35.1722 10.9396L35.5712 12.1653L34.5277 11.3992L33.5149 12.1653L33.8832 10.9396L32.8704 10.1735H34.1287L34.5277 8.94775Z" fill="white"/>
<path d="M34.5277 14.3413L34.9267 15.567H36.2157L35.1722 16.3331L35.5712 17.5589L34.5277 16.7928L33.5149 17.5589L33.8832 16.3331L32.8704 15.567H34.1287L34.5277 14.3413Z" fill="white"/>
<path d="M34.5277 19.7344L34.9267 20.9601H36.2157L35.1722 21.7262L35.5712 22.9213L34.5277 22.1859L33.5149 22.9213L33.8832 21.7262L32.8704 20.9601H34.1287L34.5277 19.7344Z" fill="white"/>
<path d="M34.5277 25.1274L34.9267 26.3532H36.2157L35.1722 27.1193L35.5712 28.3144L34.5277 27.5789L33.5149 28.3144L33.8832 27.1193L32.8704 26.3532H34.1287L34.5277 25.1274Z" fill="white"/>
<path d="M38.3028 6.4043L38.7018 7.63004H39.9908L38.9473 8.39613L39.3156 9.59122L38.3028 8.85578L37.2593 9.59122L37.6583 8.39613L36.6147 7.63004H37.9038L38.3028 6.4043Z" fill="white"/>
<path d="M38.3028 11.7979L38.7018 13.0236H39.9908L38.9473 13.759L39.3156 14.9848L38.3028 14.2493L37.2593 14.9848L37.6583 13.759L36.6147 13.0236H37.9038L38.3028 11.7979Z" fill="white"/>
<path d="M38.3028 17.1909L38.7018 18.4167H39.9908L38.9473 19.1521L39.3156 20.3778L38.3028 19.6424L37.2593 20.3778L37.6583 19.1521L36.6147 18.4167H37.9038L38.3028 17.1909Z" fill="white"/>
<path d="M38.3028 22.5845L38.7018 23.8102H39.9908L38.9473 24.5457L39.3156 25.7714L38.3028 25.0053L37.2593 25.7714L37.6583 24.5457L36.6147 23.8102H37.9038L38.3028 22.5845Z" fill="white"/>
<path d="M42.1084 3.55469L42.5074 4.78043H43.7965L42.7529 5.54652L43.1519 6.77226L42.1084 6.00617L41.0649 6.77226L41.4639 5.54652L40.4204 4.78043H41.7094L42.1084 3.55469Z" fill="white"/>
<path d="M42.1084 8.94775L42.5074 10.1735H43.7965L42.7529 10.9396L43.1519 12.1653L42.1084 11.3992L41.0649 12.1653L41.4639 10.9396L40.4204 10.1735H41.7094L42.1084 8.94775Z" fill="white"/>
<path d="M42.1084 14.3413L42.5074 15.567H43.7965L42.7529 16.3331L43.1519 17.5589L42.1084 16.7928L41.0649 17.5589L41.4639 16.3331L40.4204 15.567H41.7094L42.1084 14.3413Z" fill="white"/>
<path d="M42.1084 19.7344L42.5074 20.9601H43.7965L42.7529 21.7262L43.1519 22.9213L42.1084 22.1859L41.0649 22.9213L41.4639 21.7262L40.4204 20.9601H41.7094L42.1084 19.7344Z" fill="white"/>
<path d="M42.1084 25.1274L42.5074 26.3532H43.7965L42.7529 27.1193L43.1519 28.3144L42.1084 27.5789L41.0649 28.3144L41.4639 27.1193L40.4204 26.3532H41.7094L42.1084 25.1274Z" fill="white"/>
</g>
</g>
<defs>
<clipPath id="clip0_211_2343">
<rect width="103" height="60" fill="white"/>
</clipPath>
</defs>
</svg>
