<svg width="103" height="60" viewBox="0 0 103 60" fill="none" xmlns="http://www.w3.org/2000/svg">
<g clip-path="url(#clip0_211_3302)">
<mask id="mask0_211_3302" style="mask-type:luminance" maskUnits="userSpaceOnUse" x="0" y="0" width="103" height="60">
<path d="M103 0H0V60H103V0Z" fill="white"/>
</mask>
<g mask="url(#mask0_211_3302)">
<path d="M103 20.0103H0V40.0205H103V20.0103Z" fill="white"/>
<path d="M103 39.9897H0V60H103V39.9897Z" fill="#2534A4"/>
<path d="M103 0H0V20.0102H103V0Z" fill="#BC0030"/>
<mask id="mask1_211_3302" style="mask-type:luminance" maskUnits="userSpaceOnUse" x="0" y="0" width="103" height="60">
<path d="M103 0H0V60H103V0Z" fill="white"/>
</mask>
<g mask="url(#mask1_211_3302)">
<path d="M59.1417 29.9999C59.1417 34.198 55.735 37.6301 51.4996 37.6301C47.2642 37.6301 43.8574 34.2287 43.8574 29.9999C43.8574 25.7711 47.2642 22.3696 51.4996 22.3696C55.735 22.3696 59.1417 25.7711 59.1417 29.9999Z" fill="white"/>
<path d="M51.4997 23.4727C47.9088 23.4727 44.9624 26.4144 44.9624 29.9997C44.9624 33.585 47.9088 36.5268 51.4997 36.5268C55.0905 36.5268 58.0369 33.6157 58.0369 29.9997C58.0369 26.3838 55.1212 23.4727 51.4997 23.4727ZM51.4997 34.9027C48.7988 34.9027 46.589 32.6964 46.589 29.9997C46.589 27.3031 48.7988 25.0968 51.4997 25.0968C54.2005 25.0968 56.4103 27.3031 56.4103 29.9997C56.4103 32.6964 54.2312 34.9027 51.4997 34.9027Z" fill="#BC0030"/>
<path d="M52.5431 26.4453C52.5431 26.4453 55.4894 27.7017 54.9677 30.337C54.4459 32.9417 52.8193 32.9417 52.1748 33.2175C51.5302 33.4933 51.1006 33.9223 50.8243 33.861C50.5788 33.7998 50.2412 33.6159 50.2412 33.6159C50.2412 33.6159 50.2412 34.0449 50.7323 34.1368C51.254 34.2288 51.9292 33.4627 52.2668 33.3707C52.6044 33.2788 54.5994 33.0643 55.0904 30.429C55.6736 27.5791 52.5737 26.5679 52.5737 26.476L52.5431 26.4453Z" fill="#2A690B"/>
<path d="M54.0163 26.9966C54.0777 27.2111 54.0777 27.395 54.0163 27.395C53.9549 27.395 53.8629 27.2111 53.8322 27.0273C53.7708 26.8128 53.7708 26.6289 53.8322 26.6289C53.8629 26.6289 53.9856 26.8128 54.0163 27.0273V26.9966Z" fill="#2A690B"/>
<path d="M53.9245 27.0275C54.0165 27.242 54.0779 27.4259 54.0165 27.4259C53.9552 27.4259 53.8631 27.3033 53.7403 27.0888C53.6482 26.8743 53.5869 26.7211 53.6482 26.6904C53.6789 26.6904 53.8324 26.813 53.9245 27.0275Z" fill="#2A690B"/>
<path d="M53.6172 27.2115C53.8321 27.2728 53.9855 27.3647 53.9855 27.426C53.9855 27.4873 53.8014 27.4873 53.5866 27.426C53.3717 27.3647 53.2183 27.2728 53.2183 27.2115C53.2183 27.1502 53.4024 27.1502 53.6172 27.2115Z" fill="#2A690B"/>
<path d="M53.6481 27.1195C53.8322 27.242 53.9857 27.3953 53.955 27.4259C53.955 27.4872 53.7709 27.4259 53.5867 27.2727C53.4026 27.1501 53.2491 26.9969 53.2798 26.9662C53.2798 26.9356 53.464 26.9662 53.6481 27.1195Z" fill="#2A690B"/>
<path d="M53.8018 27.0581C53.9552 27.2113 54.078 27.3952 54.0166 27.4258C54.0166 27.4564 53.8325 27.3645 53.6483 27.1807C53.4642 26.9968 53.3721 26.8436 53.4335 26.8129C53.4642 26.7823 53.6176 26.8742 53.8018 27.0581Z" fill="#2A690B"/>
<path d="M53.9859 27.4258L53.8631 27.4871C53.8631 27.4871 53.8018 27.4564 53.7404 27.4871C53.679 27.5177 53.6176 27.6096 53.5869 27.6403C53.5869 27.6709 53.5869 27.7016 53.7097 27.6403C53.8018 27.6096 53.8324 27.5177 53.8631 27.4871C53.8938 27.4871 53.9859 27.4258 54.0166 27.3951C54.0166 27.3645 54.1087 27.2725 54.1087 27.2113C54.1394 27.15 54.2621 27.0887 54.2928 26.9968C54.3235 26.9048 54.2928 26.8435 54.2928 26.8742C54.2314 26.8742 54.17 26.9968 54.1394 27.0274C54.1394 27.0887 54.1394 27.15 54.1087 27.2113C54.1087 27.2419 54.0166 27.3645 54.0166 27.3645L53.9859 27.4258Z" fill="#2A690B"/>
<path d="M54.9066 27.7324C54.9066 28.0695 54.8452 28.3146 54.7838 28.3146C54.6918 28.3146 54.6304 28.0082 54.6304 27.6711C54.6304 27.334 54.6918 27.0889 54.7531 27.0889C54.8452 27.0889 54.9066 27.3953 54.9066 27.7324Z" fill="#2A690B"/>
<path d="M54.7529 27.7017C54.845 28.0388 54.845 28.3146 54.7529 28.3146C54.6915 28.3146 54.5688 28.0388 54.4767 27.7017C54.4153 27.3647 54.4153 27.0889 54.4767 27.0889C54.5381 27.0889 54.6608 27.3647 54.7529 27.7017Z" fill="#2A690B"/>
<path d="M54.2927 27.8547C54.5689 28.0386 54.753 28.2531 54.7223 28.3143C54.7223 28.3756 54.4768 28.3143 54.2006 28.1305C53.9244 27.9466 53.7402 27.7321 53.7709 27.6708C53.7709 27.5789 54.0164 27.6708 54.2927 27.8547Z" fill="#2A690B"/>
<path d="M54.3846 27.7324C54.5994 28.0082 54.7529 28.2534 54.6915 28.3147C54.6301 28.376 54.446 28.1921 54.2004 27.9163C53.9856 27.6405 53.8321 27.3954 53.8935 27.3341C53.9549 27.2728 54.1697 27.4566 54.3846 27.7324Z" fill="#2A690B"/>
<path d="M54.569 27.7017C54.7225 28.0081 54.8146 28.2839 54.7532 28.3146C54.6918 28.3452 54.5076 28.1307 54.3235 27.8243C54.17 27.5178 54.078 27.2421 54.1393 27.2114C54.2007 27.1808 54.3849 27.3953 54.569 27.7017Z" fill="#2A690B"/>
<path d="M54.7221 28.3453C54.7221 28.3453 54.538 28.3759 54.5073 28.3759C54.4766 28.3759 54.4152 28.284 54.3231 28.3146C54.2004 28.3146 54.1083 28.4066 54.0776 28.4679C54.0469 28.5292 54.0776 28.5598 54.231 28.5292C54.3538 28.5292 54.4152 28.4066 54.5073 28.4066C54.5686 28.4066 54.6914 28.3759 54.7528 28.3759C54.7835 28.3146 54.9063 28.2227 54.9676 28.1614C55.029 28.1001 55.2132 28.0389 55.3052 27.9163C55.3973 27.8244 55.3973 27.7324 55.3052 27.7324C55.2132 27.7324 55.1211 27.8244 55.0597 27.8856C54.9983 27.9469 55.029 28.0695 54.9369 28.1308C54.8756 28.1614 54.7528 28.3146 54.7528 28.3146L54.7221 28.3453Z" fill="#2A690B"/>
<path d="M55.3975 28.958C55.3361 29.2951 55.244 29.5096 55.1826 29.4789C55.1212 29.4483 55.0905 29.1419 55.1826 28.8048C55.244 28.4677 55.3361 28.2225 55.3975 28.2838C55.4588 28.2838 55.4895 28.6209 55.3975 28.958Z" fill="#2A690B"/>
<path d="M55.244 28.8969C55.244 29.234 55.2133 29.5098 55.1212 29.5098C55.0598 29.5098 54.9985 29.2034 54.9678 28.8663C54.9678 28.4986 54.9985 28.2534 55.0905 28.2534C55.1519 28.2534 55.2133 28.5599 55.244 28.8969Z" fill="#2A690B"/>
<path d="M54.753 28.9581C54.9985 29.2032 55.1213 29.4484 55.0906 29.5097C55.0599 29.5709 54.8451 29.4484 54.5996 29.2339C54.354 29.0194 54.2313 28.7436 54.262 28.6823C54.2927 28.621 54.5075 28.7436 54.753 28.9581Z" fill="#2A690B"/>
<path d="M54.8756 28.8353C55.029 29.1417 55.1211 29.4175 55.0904 29.4788C55.029 29.5094 54.8449 29.3255 54.6914 28.9885C54.538 28.682 54.4459 28.4062 54.4766 28.345C54.538 28.2837 54.7221 28.4982 54.8756 28.8046V28.8353Z" fill="#2A690B"/>
<path d="M55.0601 28.8663C55.1828 29.2034 55.2135 29.5098 55.1214 29.5098C55.0601 29.5098 54.9066 29.2647 54.8145 28.9276C54.7225 28.5905 54.6611 28.2841 54.7225 28.2534C54.7838 28.2534 54.9373 28.4986 55.0294 28.8356L55.0601 28.8663Z" fill="#2A690B"/>
<path d="M55.0906 29.5093C55.0906 29.5093 54.9064 29.5093 54.8757 29.5093C54.845 29.5093 54.8144 29.4174 54.6916 29.4174C54.5688 29.4174 54.4767 29.4787 54.4154 29.5093C54.3847 29.5706 54.4154 29.6013 54.5381 29.6013C54.6916 29.6013 54.753 29.54 54.8144 29.5093C54.8757 29.5093 54.9985 29.5093 55.0599 29.5093C55.1213 29.4787 55.244 29.3868 55.3054 29.3561C55.3668 29.3255 55.5816 29.2948 55.6737 29.2029C55.7658 29.111 55.7965 29.019 55.7044 29.019C55.6123 29.019 55.4896 29.0803 55.4282 29.1416C55.3668 29.2029 55.3361 29.2948 55.2747 29.3561C55.2133 29.3868 55.0599 29.5093 55.0599 29.4787L55.0906 29.5093Z" fill="#2A690B"/>
<path d="M55.4281 30.3063C55.2439 30.5821 55.0598 30.766 54.9984 30.7047C54.937 30.6434 55.0598 30.3676 55.2439 30.0918C55.4281 29.816 55.6122 29.6322 55.6736 29.6935C55.735 29.7547 55.6122 30.0305 55.4281 30.3063Z" fill="#2A690B"/>
<path d="M55.3055 30.2142C55.1828 30.5512 55.0293 30.7658 54.9679 30.7351C54.9065 30.7045 54.9679 30.398 55.0907 30.061C55.2135 29.7239 55.3669 29.5094 55.4283 29.54C55.4897 29.5707 55.4283 29.8771 55.3055 30.2142Z" fill="#2A690B"/>
<path d="M54.8453 30.061C54.9681 30.3674 54.9988 30.6738 54.9374 30.7045C54.876 30.7658 54.7226 30.5513 54.5998 30.2448C54.4771 29.9384 54.4464 29.6319 54.5077 29.6013C54.5691 29.54 54.7226 29.7545 54.8453 30.061Z" fill="#2A690B"/>
<path d="M54.9985 30.0001C55.0292 30.3678 54.9985 30.6436 54.9371 30.6742C54.8757 30.6742 54.7836 30.4291 54.7529 30.0614C54.7529 29.6936 54.7529 29.4179 54.8143 29.3872C54.8757 29.3872 54.9678 29.6324 54.9985 30.0001Z" fill="#2A690B"/>
<path d="M55.1521 30.0918C55.1214 30.4595 55.0293 30.7353 54.968 30.7353C54.9066 30.7353 54.8759 30.4288 54.9066 30.0918C54.9373 29.724 55.0293 29.4482 55.0907 29.4482C55.1521 29.4482 55.1828 29.7547 55.1521 30.1224V30.0918Z" fill="#2A690B"/>
<path d="M54.937 30.7049C54.937 30.7049 54.7835 30.6436 54.7222 30.6129C54.7222 30.6129 54.7222 30.4903 54.5994 30.4597C54.5073 30.3984 54.3846 30.4291 54.3232 30.4597C54.2618 30.4597 54.2925 30.5516 54.4152 30.6129C54.538 30.6742 54.6301 30.6129 54.6915 30.6436C54.7528 30.6436 54.8756 30.7048 54.9063 30.7355C54.9677 30.7355 55.1211 30.7049 55.1825 30.6742C55.2746 30.6742 55.4588 30.7355 55.5815 30.6742C55.7043 30.6436 55.7657 30.5516 55.6736 30.521C55.6122 30.521 55.4588 30.521 55.3667 30.521C55.2746 30.521 55.2439 30.6436 55.1518 30.6436C55.0905 30.6436 54.9063 30.7049 54.9063 30.6742L54.937 30.7049Z" fill="#2A690B"/>
<path d="M55.0601 31.6851C54.7839 31.9303 54.5076 32.0528 54.477 31.9916C54.4463 31.8996 54.6304 31.6545 54.9373 31.3787C55.2135 31.1335 55.4898 31.011 55.5512 31.0723C55.5818 31.1642 55.367 31.4093 55.0908 31.6545L55.0601 31.6851Z" fill="#2A690B"/>
<path d="M54.9677 31.5323C54.7222 31.8387 54.4767 32.0532 54.4153 31.9919C54.3539 31.9307 54.5381 31.6242 54.7529 31.3178C54.9984 31.0114 55.244 30.7969 55.3053 30.8581C55.3667 30.9194 55.2133 31.2259 54.9677 31.5629V31.5323Z" fill="#2A690B"/>
<path d="M54.5076 31.1948C54.5076 31.5625 54.5076 31.8996 54.4155 31.9609C54.3234 31.9609 54.2314 31.7157 54.2007 31.3174C54.2007 30.9496 54.2007 30.6126 54.2928 30.5819C54.3848 30.5513 54.4769 30.8271 54.5076 31.2254V31.1948Z" fill="#2A690B"/>
<path d="M54.6919 31.195C54.5998 31.5934 54.477 31.9305 54.385 31.9305C54.2929 31.9305 54.2929 31.5934 54.385 31.195C54.477 30.7967 54.5998 30.4902 54.6919 30.4902C54.784 30.4902 54.784 30.8273 54.6919 31.2257V31.195Z" fill="#2A690B"/>
<path d="M54.8453 31.3481C54.6919 31.7465 54.5077 32.0223 54.4156 31.9916C54.3236 31.9916 54.4156 31.6239 54.5691 31.2562C54.7226 30.8578 54.9067 30.582 54.9988 30.6127C55.0602 30.6127 54.9988 30.9804 54.8453 31.3481Z" fill="#2A690B"/>
<path d="M54.3849 31.961C54.3849 31.961 54.2314 31.8384 54.2007 31.8078C54.2007 31.7771 54.2007 31.6852 54.1087 31.5933C53.9859 31.5013 53.8631 31.4707 53.8018 31.4707C53.7404 31.4707 53.7097 31.532 53.8324 31.6546C53.9552 31.7771 54.078 31.7465 54.1394 31.8078C54.2007 31.8691 54.2928 31.961 54.3542 31.9916C54.4156 31.9916 54.5997 32.0223 54.6611 32.0529C54.7532 32.0529 54.9373 32.2061 55.1215 32.2061C55.2442 32.2061 55.3363 32.1449 55.2749 32.0836C55.1829 32.0223 55.0601 31.961 54.968 31.961C54.8759 31.961 54.7839 32.0529 54.6611 32.0223C54.5997 32.0223 54.3849 32.0223 54.3849 31.961Z" fill="#2A690B"/>
<path d="M54.1087 32.8806C53.679 32.9419 53.3721 32.9112 53.3721 32.8193C53.3721 32.7273 53.7404 32.5741 54.1394 32.5128C54.569 32.4516 54.8759 32.4822 54.8759 32.5741C54.8759 32.6661 54.5076 32.8193 54.1087 32.8806Z" fill="#2A690B"/>
<path d="M54.0778 32.6967C53.6788 32.8499 53.3105 32.9112 53.3105 32.8193C53.3105 32.7273 53.6175 32.5128 54.0164 32.3596C54.4461 32.2064 54.7837 32.1451 54.7837 32.237C54.7837 32.329 54.4768 32.5435 54.0778 32.6967Z" fill="#2A690B"/>
<path d="M53.8324 32.1145C53.6483 32.4822 53.4334 32.7887 53.3107 32.758C53.2186 32.758 53.3107 32.4209 53.4641 32.0226C53.6483 31.6549 53.8631 31.3484 53.9552 31.3791C54.0473 31.3791 53.9859 31.7161 53.8017 32.1145H53.8324Z" fill="#2A690B"/>
<path d="M54.0167 32.2062C53.7098 32.5433 53.4028 32.7885 53.3415 32.7272C53.2801 32.6659 53.4335 32.3595 53.7405 32.0224C54.0474 31.6853 54.3543 31.4708 54.4157 31.5014C54.5077 31.5627 54.3236 31.8692 54.0167 32.2062Z" fill="#2A690B"/>
<path d="M54.078 32.4515C53.7097 32.7273 53.3721 32.8805 53.3107 32.8192C53.2493 32.7579 53.4948 32.4821 53.8631 32.2063C54.2314 31.9305 54.569 31.7773 54.6304 31.8386C54.6918 31.8999 54.4462 32.2063 54.078 32.4515Z" fill="#2A690B"/>
<path d="M53.3107 32.758C53.3107 32.758 53.2186 32.5435 53.2186 32.4822C53.2186 32.4209 53.3107 32.3596 53.2493 32.237C53.2186 32.0838 53.0959 31.9919 53.0038 31.9612C52.9424 31.9306 52.881 31.9612 52.9424 32.1757C53.0038 32.3596 53.1266 32.4209 53.1573 32.4822C53.1879 32.5741 53.2493 32.7273 53.2493 32.7886C53.3107 32.8193 53.4642 32.9418 53.5256 33.0338C53.6176 33.095 53.7097 33.3402 53.8632 33.4321C53.9859 33.4934 54.1087 33.4934 54.078 33.4015C54.0473 33.3095 53.9245 33.1563 53.8325 33.095C53.7404 33.0338 53.6176 33.095 53.5256 33.0031C53.4642 32.9418 53.28 32.8193 53.28 32.7886L53.3107 32.758Z" fill="#2A690B"/>
<path d="M52.8503 33.5545C52.4206 33.5545 52.083 33.4626 52.083 33.34C52.083 33.2174 52.4206 33.1255 52.8503 33.1255C53.28 33.1255 53.6176 33.2174 53.6176 33.34C53.6176 33.4626 53.28 33.5545 52.8503 33.5851V33.5545Z" fill="#2A690B"/>
<path d="M52.7582 32.8495C52.482 33.1866 52.2058 33.4318 52.1137 33.3398C52.0216 33.2479 52.1751 32.9108 52.4513 32.5737C52.7275 32.2367 53.0037 31.9915 53.0958 32.0834C53.1879 32.1447 53.0344 32.5125 52.7582 32.8495Z" fill="#2A690B"/>
<path d="M52.8809 33.2175C52.4819 33.4014 52.1136 33.432 52.0829 33.3094C52.0522 33.1868 52.3284 32.9723 52.7274 32.7885C53.1264 32.6353 53.4947 32.574 53.5254 32.6966C53.5561 32.8191 53.2799 33.0336 52.8809 33.2175Z" fill="#2A690B"/>
<path d="M53.0959 26.5067C53.2801 26.6906 53.4028 26.8438 53.3415 26.8745C53.2801 26.8745 53.0959 26.7825 52.9118 26.5987C52.7276 26.4148 52.6049 26.2616 52.6356 26.231C52.6969 26.231 52.8811 26.3229 53.0959 26.5067Z" fill="#2A690B"/>
<path d="M52.85 26.6905C53.1262 26.6905 53.3411 26.7825 53.3411 26.8438C53.3411 26.905 53.1569 26.905 52.8807 26.8744C52.6352 26.8438 52.3896 26.7518 52.3896 26.7212C52.3896 26.6599 52.5738 26.6599 52.85 26.6905Z" fill="#2A690B"/>
<path d="M52.9422 26.5677C53.1877 26.6903 53.3718 26.8435 53.3411 26.8741C53.3411 26.9048 53.0956 26.8741 52.8501 26.7209C52.6046 26.5983 52.4204 26.4451 52.4511 26.4145C52.4818 26.3838 52.6966 26.4145 52.9422 26.5677Z" fill="#2A690B"/>
<path d="M49.4434 32.819C49.4434 32.819 50.0879 32.9722 50.6403 33.1561C51.1928 33.3706 52.0521 34.0754 52.2977 34.106C52.5432 34.106 52.9115 34.0141 53.0649 33.6464C52.6659 33.7689 52.4204 33.9222 52.0521 33.7077C51.9293 33.6464 51.469 33.248 51.0086 33.0641C50.5176 32.8496 49.5661 32.6045 49.5661 32.6045L49.4741 32.819H49.4434Z" fill="#2A690B"/>
<path d="M50.1495 26.9662L50.8861 26.5679L50.0574 26.7824L49.9653 26.9356L50.1495 26.9662Z" fill="#2A690B"/>
<path d="M50.8551 27.15C50.5789 27.0887 50.1185 26.9968 49.8423 26.9662C50.0264 26.7517 50.3027 26.3839 50.4868 26.1694C50.364 26.3839 50.2106 26.6597 50.1492 26.8742C50.364 26.9662 50.671 27.0581 50.8858 27.15H50.8551Z" fill="#2A690B"/>
<path d="M49.9957 26.997L50.671 26.4761L49.9037 26.8438L49.8423 26.997H49.9957Z" fill="#2A690B"/>
<path d="M50.7325 27.1191C50.4563 27.0579 49.9959 26.9659 49.7197 26.9353C49.9039 26.7208 50.1801 26.3224 50.3335 26.1079C50.2415 26.3224 50.0573 26.6288 49.9959 26.8434C50.2108 26.9659 50.5177 27.0579 50.7325 27.1191Z" fill="#2A690B"/>
<path d="M49.9039 27.0583L50.6712 26.7212L49.8425 26.8438L49.7197 26.997L49.9039 27.0583Z" fill="#2A690B"/>
<path d="M50.6403 27.1499C50.3333 27.1499 49.9037 27.058 49.6274 27.058C49.7809 26.8128 49.9957 26.4145 50.1492 26.1387C50.0571 26.3838 49.9344 26.6903 49.9037 26.9048C50.1185 26.9967 50.4254 27.058 50.6709 27.1193L50.6403 27.1499Z" fill="#2A690B"/>
<path d="M49.8117 27.0581L50.3641 26.4146L49.6889 26.9048L49.6582 27.0887L49.8117 27.0581Z" fill="#2A690B"/>
<path d="M50.6405 27.1806C50.3336 27.1806 49.8426 27.1499 49.5356 27.1806C49.6891 26.9048 49.8733 26.4451 49.996 26.1387C49.9346 26.4145 49.8426 26.7515 49.8119 26.9967C50.0574 27.0886 50.395 27.1193 50.6405 27.1806Z" fill="#2A690B"/>
<path d="M49.7198 27.2115L50.3643 26.5986L49.5663 27.0276L49.5356 27.2115H49.7198Z" fill="#2A690B"/>
<path d="M50.487 27.2114C50.1494 27.2114 49.6276 27.2114 49.29 27.2114C49.5049 26.905 49.8118 26.3841 49.9959 26.0776C49.8732 26.3841 49.689 26.7518 49.6276 27.0276C49.8732 27.1195 50.2415 27.1502 50.487 27.2114Z" fill="#2A690B"/>
<path d="M49.5049 27.242L50.3029 26.5679L49.3821 27.0582L49.29 27.242H49.5049Z" fill="#2A690B"/>
<path d="M50.364 27.2113C50.0264 27.2726 49.5047 27.3032 49.1978 27.3952C49.3819 27.0581 49.5967 26.5065 49.7502 26.1694C49.6581 26.4759 49.5354 26.8742 49.5047 27.15C49.7502 27.2113 50.1185 27.1807 50.3947 27.2113H50.364Z" fill="#2A690B"/>
<path d="M49.3819 27.395L50.0264 26.5063L49.2284 27.2111L49.1978 27.4257L49.3819 27.395Z" fill="#2A690B"/>
<path d="M50.1799 27.3338C49.8423 27.3644 49.3205 27.395 48.9829 27.4563C49.1671 27.1192 49.4433 26.5983 49.5967 26.2612C49.5047 26.5677 49.3512 26.966 49.2898 27.2418C49.5354 27.3031 49.9037 27.3031 50.1799 27.3338Z" fill="#2A690B"/>
<path d="M49.2593 27.487L50.088 26.7822L49.1673 27.2725L49.0752 27.487H49.2593Z" fill="#2A690B"/>
<path d="M50.0881 27.3645C49.7505 27.4258 49.2287 27.5177 48.8911 27.6403C49.0446 27.3032 49.2594 26.7516 49.3822 26.4146C49.3208 26.721 49.198 27.1194 49.198 27.3951C49.4436 27.4258 49.8119 27.3951 50.0881 27.3951V27.3645Z" fill="#2A690B"/>
<path d="M49.1363 27.5178L49.658 26.5679L48.9521 27.3952V27.6098L49.1363 27.5178Z" fill="#2A690B"/>
<path d="M50.0879 27.426C49.7196 27.518 49.1672 27.6405 48.8296 27.7631C48.9524 27.3954 49.1058 26.7519 49.1979 26.3535C49.1979 26.6906 49.1058 27.1502 49.1058 27.4567C49.382 27.4567 49.781 27.426 50.0879 27.3954V27.426Z" fill="#2A690B"/>
<path d="M49.0444 27.7322L49.6889 26.7822L48.8603 27.5483L48.8296 27.7935L49.0444 27.7322Z" fill="#2A690B"/>
<path d="M49.9346 27.5176C49.5663 27.6402 49.0139 27.7934 48.6763 27.9159C48.799 27.5176 48.9218 26.9047 48.9832 26.5063C48.9832 26.8434 48.9218 27.3031 48.9525 27.6095C49.2287 27.6095 49.6277 27.5482 49.9346 27.5176Z" fill="#2A690B"/>
<path d="M48.9219 27.8855L49.4129 26.813L48.707 27.7323V27.9774L48.9219 27.8855Z" fill="#2A690B"/>
<path d="M49.812 27.6712C49.4437 27.7631 48.8606 27.855 48.5229 27.9776C48.6764 27.6099 48.8299 26.997 48.9526 26.5986C48.9219 26.9357 48.8299 27.3954 48.8299 27.7018C49.1061 27.7324 49.5051 27.7018 49.812 27.7018V27.6712Z" fill="#2A690B"/>
<path d="M48.7988 27.9773L49.5968 27.1499L48.6454 27.7628L48.584 27.9773H48.7988Z" fill="#2A690B"/>
<path d="M49.6275 27.7934C49.2592 27.8546 48.7067 27.8853 48.3691 27.9772C48.5533 27.6095 48.7374 26.9966 48.8909 26.6289C48.8295 26.966 48.7067 27.4256 48.6761 27.7321C48.9523 27.7934 49.3513 27.7934 49.6275 27.7934Z" fill="#2A690B"/>
<path d="M48.6455 27.8856L49.1673 26.8438L48.4307 27.7324V27.9776L48.6455 27.8856Z" fill="#2A690B"/>
<path d="M49.6892 27.7014C49.2902 27.8546 48.6764 28.0998 48.3081 28.2837C48.4309 27.824 48.5536 27.0886 48.6457 26.6289C48.6457 27.0273 48.5843 27.5482 48.6457 27.9159C48.9526 27.9159 49.3823 27.7627 49.7199 27.7014H49.6892Z" fill="#2A690B"/>
<path d="M48.5532 28.1917L49.1977 26.9966L48.3384 28.0078V28.2836L48.5532 28.1917Z" fill="#2A690B"/>
<path d="M49.5355 27.8242C49.1672 28.0081 48.5534 28.2532 48.1851 28.4677C48.2771 28.0081 48.3692 27.2726 48.4306 26.813C48.4306 27.2114 48.4306 27.7323 48.4306 28.0694C48.7375 28.0694 49.1672 27.8855 49.5048 27.7936L49.5355 27.8242Z" fill="#2A690B"/>
<path d="M48.4307 28.3759L48.9217 27.0889L48.2158 28.2227V28.4985L48.4614 28.3453L48.4307 28.3759Z" fill="#2A690B"/>
<path d="M49.3514 27.9469C48.9831 28.1308 48.3693 28.3759 48.001 28.6211C48.0931 28.1614 48.1851 27.426 48.2465 26.9663C48.2465 27.3647 48.2465 27.8856 48.2465 28.2227C48.5534 28.2227 48.9831 28.0388 49.3207 27.9469H49.3514Z" fill="#2A690B"/>
<path d="M48.3081 28.5289L49.0754 27.4258L48.124 28.3144L48.0933 28.6209L48.3081 28.5289Z" fill="#2A690B"/>
<path d="M49.3208 27.8857C48.9832 28.1615 48.4307 28.5599 48.1238 28.8663C48.1238 28.4066 48.0624 27.6712 48.0317 27.2422C48.1238 27.6099 48.2159 28.1308 48.308 28.4373C48.6149 28.3147 49.0139 28.0696 49.3208 27.9163V27.8857Z" fill="#2A690B"/>
<path d="M48.3388 28.5905L48.4309 27.2422L48.0933 28.5599L48.1853 28.805L48.3388 28.5905Z" fill="#2A690B"/>
<path d="M49.2285 28.0083C48.8909 28.2841 48.3384 28.6824 48.0315 28.9889C48.0315 28.5292 47.9701 27.7938 47.9395 27.3647C48.0315 27.7325 48.1236 28.2534 48.2157 28.5598C48.5226 28.4373 48.9216 28.1921 49.2285 28.0389V28.0083Z" fill="#2A690B"/>
<path d="M48.2772 28.805L48.6148 27.4873L48.001 28.713L48.0624 28.9888L48.2772 28.805Z" fill="#2A690B"/>
<path d="M49.1979 28.0389C48.8603 28.3453 48.3693 28.8356 48.0624 29.1727C48.001 28.6824 47.8782 27.947 47.7861 27.4873C47.9089 27.855 48.0624 28.376 48.2158 28.6824C48.5227 28.5292 48.891 28.2227 49.1979 28.0389Z" fill="#2A690B"/>
<path d="M48.2771 28.9887L48.3385 27.5791L47.9702 28.9581L48.093 29.2032L48.2771 28.9887Z" fill="#2A690B"/>
<path d="M49.1058 28.2533C48.7682 28.5291 48.2157 28.9581 47.9088 29.2645C47.9088 28.7742 47.8168 28.0388 47.7554 27.5791C47.8474 27.9468 47.9395 28.4984 48.0623 28.8355C48.3692 28.7129 48.7682 28.4371 49.0751 28.2839L49.1058 28.2533Z" fill="#2A690B"/>
<path d="M53.955 29.6937C53.955 31.042 52.8502 32.1451 51.4997 32.1451C50.1493 32.1451 49.0444 31.042 49.0444 29.6937C49.0444 28.3454 50.1493 27.2422 51.4997 27.2422C52.8502 27.2422 53.955 28.3454 53.955 29.6937Z" fill="#3E60BD"/>
<path d="M48.1542 29.1419L48.6453 27.8242L47.9087 28.9887L47.9394 29.2645L48.1542 29.1419Z" fill="#2A690B"/>
<path d="M49.075 28.2836C48.7681 28.6207 48.2771 29.0804 48.0008 29.4481C47.9394 28.9578 47.8167 28.2223 47.7246 27.7627C47.8474 28.1304 47.9701 28.6514 48.1236 28.9884C48.3998 28.8352 48.7681 28.5288 49.0443 28.3143L49.075 28.2836Z" fill="#2A690B"/>
<path d="M48.1849 29.2032L48.1235 27.8242L47.9087 29.2032L48.0315 29.4483L48.1849 29.2032Z" fill="#2A690B"/>
<path d="M48.9218 28.3759C48.6149 28.713 48.1545 29.1727 47.909 29.5404C47.8476 29.0501 47.6941 28.3146 47.6021 27.855C47.7248 28.2227 47.8783 28.7743 48.0317 29.0807C48.3079 28.9275 48.6762 28.5904 48.9218 28.4066V28.3759Z" fill="#2A690B"/>
<path d="M48.0932 29.3564L48.2466 27.9468L47.8477 29.2644L47.9397 29.5402L48.0932 29.3564Z" fill="#2A690B"/>
<path d="M48.8601 28.4369C48.5839 28.8047 48.1542 29.3256 47.9394 29.6933C47.8473 29.203 47.6325 28.4982 47.479 28.0386C47.6325 28.4063 47.8166 28.8966 48.0008 29.203C48.277 29.0192 48.5839 28.6821 48.8601 28.4369Z" fill="#2A690B"/>
<path d="M48.0932 29.4789L48.0011 28.0693L47.8477 29.4789L47.9704 29.7241L48.0932 29.4789Z" fill="#2A690B"/>
<path d="M48.8605 28.5291C48.615 28.8968 48.1853 29.4484 47.9705 29.8468C47.8477 29.3565 47.6022 28.6517 47.4487 28.2227C47.6329 28.5597 47.8477 29.0807 48.0319 29.3565C48.2774 29.1726 48.615 28.7742 48.8605 28.5597V28.5291Z" fill="#2A690B"/>
<path d="M48.185 29.6015L48.3384 28.1919L47.9395 29.5402L48.0008 29.816L48.185 29.6015Z" fill="#2A690B"/>
<path d="M48.7989 28.6514C48.5841 29.0497 48.2158 29.6626 48.0317 30.0916C47.8782 29.632 47.5406 28.9578 47.3564 28.5288C47.5713 28.8352 47.8168 29.3255 48.0317 29.5707C48.2772 29.3562 48.5534 28.9272 48.7682 28.6514H48.7989Z" fill="#2A690B"/>
<path d="M48.1237 29.7243L47.7554 28.376L47.8781 29.8162L48.0623 30.0001L48.1237 29.7243Z" fill="#2A690B"/>
<path d="M48.7989 28.8046C48.5533 29.2029 48.185 29.8158 48.0009 30.2142C47.8474 29.7545 47.5098 29.0804 47.3257 28.6514C47.5405 28.9884 47.8167 29.4481 48.0316 29.6932C48.2771 29.4787 48.5533 29.0497 48.7989 28.7739V28.8046Z" fill="#2A690B"/>
<path d="M48.1546 29.9998L48.0012 28.5596L47.8784 29.9998L48.0319 30.2143L48.1546 29.9998Z" fill="#2A690B"/>
<path d="M48.7989 28.9271C48.5533 29.3255 48.185 29.9384 47.9702 30.3367C47.8167 29.8771 47.5098 29.2029 47.3257 28.7739C47.5405 29.111 47.7861 29.5707 48.0009 29.8464C48.2464 29.6319 48.5533 29.2029 48.7682 28.9578L48.7989 28.9271Z" fill="#2A690B"/>
<path d="M48.1546 30.0918L47.8784 28.7129V30.1225L48.0319 30.3676L48.1546 30.0918Z" fill="#2A690B"/>
<path d="M48.7071 29.1416C48.4615 29.5094 48.0319 30.0916 47.817 30.4899C47.6943 30.0303 47.418 29.3255 47.2339 28.8965C47.418 29.2336 47.6636 29.7239 47.8784 29.9996C48.1239 29.8158 48.4615 29.4174 48.7071 29.1416Z" fill="#2A690B"/>
<path d="M48.0316 30.2451L48.1237 28.8354L47.7554 30.1838L47.8474 30.4596L48.0316 30.2451Z" fill="#2A690B"/>
<path d="M48.7071 29.1726C48.4922 29.6016 48.1239 30.2145 47.9705 30.6435C47.7863 30.1839 47.4487 29.5403 47.2339 29.1113C47.4487 29.4178 47.7249 29.8774 47.9705 30.1226C48.216 29.8774 48.4922 29.4484 48.7071 29.1726Z" fill="#2A690B"/>
<path d="M47.9702 30.3675L47.5405 29.0498L47.7247 30.4594L47.9088 30.6433L48.0009 30.3675H47.9702Z" fill="#2A690B"/>
<path d="M48.6763 29.2645C48.5228 29.7242 48.2773 30.3983 48.1546 30.858C47.909 30.4596 47.4793 29.8774 47.2031 29.5097C47.4487 29.7548 47.817 30.1532 48.0932 30.3371C48.308 30.0613 48.4922 29.571 48.6763 29.2339V29.2645Z" fill="#2A690B"/>
<path d="M48.3695 30.49L47.8784 29.1724L48.0933 30.582L48.2774 30.7658L48.3695 30.49Z" fill="#2A690B"/>
<path d="M48.6456 29.4175C48.4922 29.8771 48.2466 30.5513 48.1546 31.0109C47.909 30.6126 47.4793 30.0303 47.2031 29.6933C47.4793 29.9384 47.817 30.3368 48.0932 30.5206C48.2773 30.2449 48.4922 29.7546 48.6763 29.4175H48.6456Z" fill="#2A690B"/>
<path d="M48.3692 30.7047L47.7554 29.479L48.1237 30.8273L48.3385 30.9805L48.3692 30.7047Z" fill="#2A690B"/>
<path d="M48.6149 29.5098C48.5229 29.9694 48.3694 30.7049 48.308 31.1645C48.0011 30.7968 47.51 30.3065 47.2031 30.0001C47.51 30.2146 47.8783 30.5516 48.1852 30.7049C48.3387 30.3984 48.4922 29.8775 48.6149 29.5404V29.5098Z" fill="#2A690B"/>
<path d="M48.4002 30.8884L48.0933 29.54L48.124 30.9496L48.3081 31.1641L48.4002 30.8884Z" fill="#2A690B"/>
<path d="M48.6146 29.6626C48.5532 30.1529 48.4611 30.8883 48.4611 31.348C48.1235 31.0416 47.6018 30.5819 47.2642 30.3368C47.5711 30.5206 48.0008 30.7964 48.277 30.8883C48.3997 30.5513 48.5225 30.0303 48.6146 29.6626Z" fill="#2A690B"/>
<path d="M48.4306 31.0112L47.5713 30L48.2158 31.1951L48.4613 31.287L48.4306 31.0112Z" fill="#2A690B"/>
<path d="M48.6453 29.8467C48.584 30.337 48.4919 31.0724 48.4919 31.5321C48.1543 31.195 47.6325 30.766 47.2949 30.4902C47.6018 30.6741 48.0315 30.9498 48.3077 31.0724C48.4305 30.7353 48.5533 30.2144 48.6453 29.8467Z" fill="#2A690B"/>
<path d="M48.5229 31.2259L47.8477 30.0308L48.2773 31.3791L48.4922 31.5323L48.5229 31.2259Z" fill="#2A690B"/>
<path d="M48.6762 30.0308C48.6762 30.5211 48.5841 31.2565 48.5841 31.7162C48.2465 31.4097 47.694 31.0114 47.3564 30.7662C47.6634 30.9194 48.093 31.1646 48.3999 31.2565C48.5227 30.9194 48.5841 30.3985 48.6762 30.0308Z" fill="#2A690B"/>
<path d="M48.6148 31.4403L47.7861 30.3984L48.3693 31.6548L48.6148 31.7468V31.4403Z" fill="#2A690B"/>
<path d="M48.6761 30.2758C48.6454 30.7661 48.584 31.5015 48.584 31.9612C48.2464 31.6547 47.694 31.2564 47.3257 31.0112C47.6633 31.1644 48.093 31.4096 48.3692 31.5015C48.492 31.1644 48.5533 30.6435 48.6454 30.2451L48.6761 30.2758Z" fill="#2A690B"/>
<path d="M48.6764 31.6241L48.0933 30.3677L48.4309 31.7466L48.615 31.8999L48.6764 31.6241Z" fill="#2A690B"/>
<path d="M48.7067 30.3984C48.7067 30.8887 48.7067 31.6242 48.7987 32.1145C48.4304 31.8693 47.8473 31.5322 47.479 31.3484C47.8166 31.471 48.277 31.6548 48.5839 31.7161C48.676 31.3484 48.676 30.8274 48.7373 30.4291L48.7067 30.3984Z" fill="#2A690B"/>
<path d="M48.7681 31.5627L47.7246 30.8579L48.6147 31.8385H48.8602L48.7681 31.5627Z" fill="#2A690B"/>
<path d="M48.7375 30.4594C48.7682 30.9496 48.8296 31.6851 48.8909 32.1447C48.5227 31.8996 47.9088 31.6238 47.5405 31.4093C47.8781 31.5012 48.3385 31.6851 48.6454 31.7157C48.7068 31.348 48.7068 30.8271 48.7375 30.4287V30.4594Z" fill="#2A690B"/>
<path d="M48.891 31.8384L48.001 30.8271L48.6762 32.0529L48.9217 32.1448L48.891 31.8384Z" fill="#2A690B"/>
<path d="M48.7992 30.6436C48.8605 31.1339 48.9219 31.8693 49.0447 32.3289C48.6764 32.1144 48.0319 31.8387 47.6636 31.6854C48.0012 31.7774 48.4615 31.8999 48.7685 31.9306C48.8298 31.5629 48.7685 31.0419 48.7992 30.6436Z" fill="#2A690B"/>
<path d="M49.0752 32.0226L48.0317 31.2871L48.9218 32.2677L49.1366 32.2983L49.0752 32.0226Z" fill="#2A690B"/>
<path d="M48.8603 30.8579C48.9524 31.3482 49.0752 32.0837 49.1979 32.5127C48.7989 32.3288 48.1851 32.1449 47.7861 31.9917C48.1237 32.0224 48.5841 32.1449 48.9217 32.1449C48.9217 31.7772 48.891 31.2563 48.8603 30.8579Z" fill="#2A690B"/>
<path d="M49.1982 32.1757L48.3081 31.1338L48.9526 32.3595L49.1982 32.4515V32.1757Z" fill="#2A690B"/>
<path d="M48.8909 30.9805C49.0443 31.4401 49.2285 32.1756 49.3819 32.6046C48.983 32.482 48.3384 32.3594 47.9395 32.2675C48.2771 32.2675 48.7681 32.2981 49.075 32.2675C49.075 31.8998 48.9523 31.3788 48.9216 30.9805H48.8909Z" fill="#2A690B"/>
<path d="M49.2287 32.1757L48.0317 31.8999L49.1673 32.4821L49.4128 32.3902L49.2287 32.1757Z" fill="#2A690B"/>
<path d="M48.9832 31.1338C49.1059 31.5934 49.2901 32.3289 49.4742 32.7579C49.0752 32.6353 48.4307 32.5127 48.0317 32.4208C48.3693 32.4208 48.8604 32.4515 49.1673 32.4208C49.1673 32.0531 49.0446 31.5322 49.0139 31.1338H48.9832Z" fill="#2A690B"/>
<path d="M49.4436 32.2982L48.2773 31.7466L49.3208 32.574L49.5664 32.5433L49.4436 32.2982Z" fill="#2A690B"/>
<path d="M48.9219 31.1948C49.1367 31.6238 49.4743 32.298 49.7505 32.6657C49.3208 32.6351 48.6763 32.6657 48.2773 32.6657C48.6149 32.6044 49.0753 32.5431 49.3515 32.4206C49.2595 32.0528 49.0446 31.5625 48.9219 31.1948Z" fill="#2A690B"/>
<path d="M49.6276 32.4206L48.3999 32.0835L49.5355 32.727L49.781 32.6657L49.6276 32.4206Z" fill="#2A690B"/>
<path d="M49.0444 31.3788C49.2899 31.8078 49.5969 32.4513 49.8731 32.8497C49.4434 32.819 48.7989 32.8497 48.3999 32.8497C48.7375 32.7884 49.1979 32.6965 49.5048 32.5739C49.4127 32.2062 49.1979 31.7159 49.0751 31.3481L49.0444 31.3788Z" fill="#2A690B"/>
<path d="M49.7504 32.5125L48.6455 31.8384L49.6276 32.7883H49.8732L49.7504 32.5125Z" fill="#2A690B"/>
<path d="M49.1366 31.5015C49.4128 31.8998 49.8118 32.5127 50.088 32.8804C49.6583 32.8804 49.0138 33.0336 48.6455 33.0949C48.9524 32.9724 49.4128 32.8498 49.689 32.6966C49.5662 32.3288 49.29 31.8692 49.1366 31.5321V31.5015Z" fill="#2A690B"/>
<path d="M49.8425 32.6044L48.6455 32.5737L49.8425 32.9415L50.0573 32.8189L49.8425 32.6044Z" fill="#2A690B"/>
<path d="M50.5485 26.7518L51.4078 26.5986L50.5485 26.6293L50.395 26.7212L50.5485 26.7518Z" fill="#2A690B"/>
<path d="M51.0087 26.9354C50.7632 26.8741 50.3642 26.7209 50.1187 26.6902C50.3949 26.5677 50.7939 26.3838 51.0394 26.2612C50.8552 26.3838 50.5483 26.537 50.4256 26.6596C50.579 26.7515 50.8246 26.8741 51.0087 26.9354Z" fill="#2A690B"/>
<path d="M50.5177 26.7824L51.3464 26.5679L50.487 26.6598L50.3643 26.7517L50.5177 26.7824Z" fill="#2A690B"/>
<path d="M51.0699 26.9969C50.763 26.9969 50.3026 26.905 50.0264 26.905C50.2412 26.7211 50.5481 26.3841 50.7323 26.2002C50.6095 26.3841 50.3947 26.6292 50.3026 26.8131C50.4867 26.905 50.8243 26.9356 51.0392 26.9969H51.0699Z" fill="#2A690B"/>
<path d="M50.2106 26.8438L51.0699 26.7518L50.2106 26.7212L50.0571 26.7825L50.2106 26.8438Z" fill="#2A690B"/>
<path d="M50.8552 27.0277C50.579 26.9664 50.18 26.8745 49.9038 26.8438C50.1493 26.7212 50.5483 26.5067 50.7632 26.3535C50.579 26.4761 50.3335 26.6599 50.2107 26.7825C50.3642 26.8745 50.6404 26.9357 50.8552 26.997V27.0277Z" fill="#2A690B"/>
<path d="M50.1187 26.8434L50.886 26.5063L50.0573 26.7209L49.9346 26.8128L50.1187 26.8434Z" fill="#2A690B"/>
<path d="M50.8243 27.1503C50.6095 27.0583 50.2719 26.9051 50.0264 26.8438C50.1798 26.6906 50.4254 26.4148 50.5788 26.231C50.4867 26.4148 50.3026 26.6293 50.2412 26.7825C50.3947 26.9051 50.6402 27.0277 50.7936 27.1503H50.8243Z" fill="#2A690B"/>
<path d="M50.1491 26.9047L50.763 26.6289L50.1184 26.7208L50.0264 26.8434L50.1491 26.9047Z" fill="#2A690B"/>
<path d="M49.6583 32.5127H48.4307L49.689 32.8191L49.8732 32.6966L49.6583 32.5127Z" fill="#2A690B"/>
<path d="M49.8731 32.5741L48.6147 32.2983L49.8424 32.8806L50.0572 32.8193L49.8731 32.5741Z" fill="#2A690B"/>
<path d="M50.0879 32.6658L48.8296 32.6045L50.0879 32.9722L50.3028 32.8496L50.0879 32.6658Z" fill="#2A690B"/>
<path d="M49.2899 31.7773C49.6275 32.1451 50.1186 32.6966 50.4562 33.0337C50.0265 33.095 49.4127 33.2789 49.0137 33.3708C49.3206 33.2176 49.781 33.0644 50.0265 32.8805C49.873 32.5434 49.5354 32.1144 49.3206 31.808L49.2899 31.7773Z" fill="#2A690B"/>
<path d="M50.272 32.727L49.0137 32.3286L50.1799 33.0334L50.4255 32.9721L50.272 32.727Z" fill="#2A690B"/>
<path d="M49.4128 31.8691C49.7811 32.2062 50.3029 32.7272 50.6711 33.003C50.2722 33.1255 49.6583 33.3707 49.29 33.5239C49.5663 33.34 49.9959 33.1255 50.2108 32.911C50.0266 32.5739 49.6276 32.2062 49.4128 31.8998V31.8691Z" fill="#2A690B"/>
<path d="M50.364 32.8188L49.167 33.0334L50.4253 33.1253L50.6095 32.9414L50.364 32.8188Z" fill="#2A690B"/>
<path d="M50.1188 32.7271L48.8911 32.819L50.1495 33.0641L50.3643 32.9109L50.1188 32.7271Z" fill="#2A690B"/>
<path d="M50.3642 32.7884L49.0752 32.6045L50.3335 33.0948L50.5484 33.0029L50.3642 32.7884Z" fill="#2A690B"/>
<path d="M50.5791 32.8495H49.3208L50.6098 33.1253L50.8247 33.0027L50.6098 32.8188L50.5791 32.8495Z" fill="#2A690B"/>
<path d="M49.6891 32.0532C50.0574 32.3903 50.5792 32.9112 50.9474 33.2177C50.5178 33.3096 49.9039 33.5241 49.5356 33.6467C49.8426 33.4935 50.2722 33.279 50.4871 33.0951C50.3029 32.758 49.9346 32.3597 49.6891 32.0532Z" fill="#2A690B"/>
<path d="M50.7325 32.9109L49.4741 32.6045L50.6711 33.2174L50.9166 33.1561L50.7325 32.9109Z" fill="#2A690B"/>
<path d="M49.8115 32.1143C50.1798 32.4207 50.763 32.8803 51.1619 33.1561C50.763 33.3094 50.1798 33.5851 49.8422 33.769C50.1184 33.5545 50.5174 33.3094 50.7323 33.0949C50.5174 32.7884 50.1184 32.4207 49.8422 32.1449L49.8115 32.1143Z" fill="#2A690B"/>
<path d="M50.8552 32.9722L49.689 33.2786H50.9473L51.1008 33.0947L50.8552 32.9722Z" fill="#2A690B"/>
<path d="M52.8195 31.3787L51.4998 30.4594L50.1494 31.3787L50.6712 29.9078L49.5049 28.9885H51.0088L51.4998 27.5176L51.9909 28.9885H53.4948L52.3285 29.9078L52.8195 31.3787Z" fill="#F5CD28"/>
<path d="M56.5023 31.1644L56.932 31.3177L57.6379 31.1951L57.5765 31.3483L57.2082 31.4096C57.2082 31.4096 57.0547 31.4096 56.9934 31.4096C57.0241 31.4709 57.0854 31.5322 57.1468 31.5628L57.3924 31.8386L57.331 31.9918L56.8706 31.4096L56.4409 31.2564V31.1338L56.5023 31.1644Z" fill="#F8E72A"/>
<path d="M57.6995 29.5094V29.6319L57.0857 29.6932C56.963 29.6932 56.9016 29.6932 56.8402 29.6932C56.7788 29.6932 56.7174 29.6319 56.656 29.5706C56.5947 29.5094 56.564 29.4481 56.564 29.3561C56.564 29.2642 56.564 29.2029 56.564 29.1416C56.5947 29.0803 56.656 29.0497 56.6867 29.0191C56.7481 29.0191 56.8402 28.9578 56.9629 28.9578L57.5768 28.8965V29.0191L56.9629 29.0803C56.8709 29.0803 56.8095 29.0803 56.7481 29.111C56.7174 29.111 56.6867 29.1723 56.656 29.2029C56.656 29.2336 56.656 29.2948 56.656 29.3561C56.656 29.4481 56.6867 29.5094 56.7481 29.54C56.8095 29.54 56.9016 29.5706 57.0243 29.54L57.6382 29.4787L57.6995 29.5094Z" fill="#F8E72A"/>
<path d="M56.8398 28.2531H56.9626L57.0547 28.6208L56.6557 28.7128C56.6557 28.7128 56.5329 28.6208 56.5022 28.5595C56.4715 28.4983 56.4408 28.437 56.4102 28.3757C56.4102 28.2838 56.4102 28.1918 56.4102 28.1305C56.4408 28.0386 56.5022 27.9773 56.5636 27.916C56.6557 27.8547 56.7171 27.8241 56.8398 27.7935C56.9319 27.7935 57.024 27.7935 57.1468 27.7935C57.2388 27.7935 57.3309 27.8547 57.3923 27.916C57.4537 27.9773 57.4844 28.0692 57.515 28.1612C57.515 28.2225 57.515 28.2838 57.515 28.345C57.515 28.4063 57.4844 28.4676 57.423 28.4983C57.3923 28.5289 57.3309 28.5595 57.2695 28.6208L57.2081 28.4983C57.2081 28.4983 57.3002 28.437 57.3309 28.4063C57.3309 28.4063 57.3616 28.345 57.3923 28.2838C57.3923 28.2531 57.3923 28.1918 57.3923 28.1612C57.3923 28.0999 57.3923 28.0693 57.3309 28.008C57.3309 27.9773 57.2695 27.9467 57.2388 27.916C57.2388 27.916 57.1774 27.916 57.1161 27.8854C57.0547 27.8854 56.9626 27.8854 56.9012 27.8854C56.8091 27.8854 56.7171 27.9467 56.6557 27.9773C56.5943 28.008 56.5636 28.0693 56.5329 28.1305C56.5329 28.1918 56.5329 28.2531 56.5329 28.3144C56.5329 28.3757 56.5329 28.437 56.5943 28.4676C56.625 28.5289 56.6557 28.5595 56.6864 28.5595H56.8705L56.8091 28.2531H56.8398Z" fill="#F8E72A"/>
<path d="M52.2979 24.8211L52.482 23.7485L52.6048 23.7792L52.4206 24.7291L52.881 24.8211V24.9436L52.2979 24.8211Z" fill="#F8E72A"/>
<path d="M51.2236 24.76V23.6875H51.9295V23.8101H51.3464V24.1472H51.8988V24.2697H51.3464V24.6374H51.9295V24.76H51.2236Z" fill="#F8E72A"/>
<path d="M48.2159 25.4339L48.3386 25.3726C48.3386 25.3726 48.4307 25.5871 48.4 25.679C48.4 25.771 48.3386 25.8629 48.2773 25.9242C48.1852 25.9855 48.1238 26.0161 48.0317 26.0468C47.9397 26.0468 47.8783 26.0468 47.7862 25.9855C47.6941 25.9242 47.6327 25.8629 47.5407 25.8016C47.4486 25.7097 47.4179 25.6178 47.3872 25.5565C47.3872 25.4645 47.3872 25.3726 47.3872 25.3113C47.3872 25.2194 47.4486 25.1581 47.51 25.0968C47.5714 25.0355 47.6634 25.0049 47.7555 25.0049C47.8476 25.0049 47.909 25.0049 48.001 25.0968L47.9397 25.1887C47.9397 25.1887 47.8169 25.1275 47.7555 25.1275C47.6941 25.1275 47.6634 25.1275 47.602 25.1887C47.5407 25.25 47.51 25.2807 47.51 25.342C47.51 25.4033 47.51 25.4645 47.51 25.5258C47.5407 25.5871 47.5714 25.6484 47.6327 25.7097C47.6941 25.771 47.7555 25.8323 47.8169 25.8629C47.8783 25.8935 47.9397 25.9242 48.001 25.8935C48.0624 25.8935 48.1238 25.8935 48.1545 25.8323C48.2159 25.771 48.2466 25.7097 48.2466 25.6484C48.2466 25.5871 48.2466 25.4952 48.1852 25.4339H48.2159Z" fill="#F8E72A"/>
<path d="M47.7555 26.3841L46.9575 25.6793L47.0496 25.5874L47.8476 26.2922L47.7555 26.3841Z" fill="#F8E72A"/>
<path d="M47.2339 26.9967L46.3745 26.3532L46.4666 26.2612L47.2339 26.8128L47.5101 26.4451L47.6022 26.537L47.2339 26.9967Z" fill="#F8E72A"/>
<path d="M45.6378 27.6402L45.6991 27.5176L46.2823 27.7627C46.2823 27.7627 46.4664 27.8547 46.5278 27.8853C46.5892 27.9159 46.6199 27.9772 46.6199 28.0385C46.6199 28.0998 46.6199 28.1917 46.6199 28.2837C46.5892 28.3756 46.5278 28.4369 46.4971 28.4675C46.4357 28.4982 46.3744 28.5288 46.313 28.5288C46.2209 28.5288 46.1595 28.5288 46.0367 28.4675L45.4536 28.2224L45.515 28.0998L46.0981 28.345C46.0981 28.345 46.2516 28.4062 46.313 28.4062C46.3744 28.4062 46.405 28.4062 46.4357 28.4062C46.4664 28.4062 46.4971 28.345 46.5278 28.2837C46.5585 28.1917 46.5585 28.1304 46.5278 28.0692C46.5278 28.0079 46.405 27.9466 46.2823 27.9159L45.6991 27.6708L45.6378 27.6402Z" fill="#F8E72A"/>
<path d="M46.2514 30.2755H45.1772V29.5707H45.3V30.1529H45.6376V29.6013H45.7604V30.1529H46.1287V29.54H46.2514V30.2755Z" fill="#F8E72A"/>
<path d="M50.3027 24.9131L50.0879 23.8406L50.4255 23.7793C50.4255 23.7793 50.5483 23.7793 50.6096 23.7793C50.671 23.7793 50.7324 23.7793 50.7631 23.8406C50.8245 23.8712 50.8859 23.9325 50.9166 23.9938C50.9472 24.0551 50.9779 24.147 51.0086 24.2389C51.0086 24.3002 51.0086 24.3922 51.0086 24.4535C51.0086 24.5147 51.0086 24.576 50.9779 24.6067C50.9779 24.668 50.9472 24.6986 50.9166 24.7292C50.9166 24.7292 50.8552 24.7905 50.8245 24.8212C50.7938 24.8212 50.7324 24.8518 50.671 24.8825L50.3334 24.9438L50.3027 24.9131ZM50.3948 24.7599H50.6096C50.6096 24.7599 50.7324 24.6986 50.7631 24.668C50.7938 24.668 50.8245 24.6373 50.8245 24.6067C50.8245 24.576 50.8552 24.5147 50.8552 24.4535C50.8552 24.3922 50.8552 24.3309 50.8552 24.2389C50.8552 24.1164 50.7938 24.0551 50.7631 23.9938C50.7324 23.9325 50.671 23.9019 50.6096 23.9019C50.579 23.9019 50.5176 23.9019 50.4562 23.9019H50.2414L50.3948 24.7599Z" fill="#F8E72A"/>
<path d="M53.8324 25.342L54.3235 24.3921L54.6304 24.5453C54.6304 24.5453 54.7225 24.6066 54.7532 24.6372C54.7839 24.6372 54.8146 24.6985 54.8453 24.7292C54.8453 24.7598 54.8453 24.7905 54.8453 24.8517C54.8453 24.913 54.8453 24.9437 54.8146 25.005C54.7839 25.0969 54.7225 25.1275 54.6304 25.1888C54.569 25.2195 54.477 25.1888 54.3542 25.1582L54.1394 25.0356L53.9245 25.434L53.8018 25.3727L53.8324 25.342ZM54.2007 24.913L54.4156 25.0356C54.4156 25.0356 54.5383 25.0969 54.5997 25.0662C54.6304 25.0662 54.6918 25.005 54.7225 24.9743C54.7225 24.9437 54.7225 24.8824 54.7225 24.8517C54.7225 24.8211 54.7225 24.7905 54.6918 24.7598C54.6918 24.7598 54.6304 24.7292 54.5997 24.6985L54.3849 24.576L54.2007 24.913Z" fill="#F8E72A"/>
<path d="M54.3847 25.618L55.3975 25.0664L55.4896 25.1583L55.0599 26.2309L54.9371 26.1389L55.0599 25.8325L54.753 25.5567L54.4461 25.7406L54.354 25.6486L54.3847 25.618ZM54.9064 25.4648L55.152 25.6793L55.2747 25.4035C55.2747 25.4035 55.3361 25.2503 55.3668 25.189C55.3054 25.2196 55.2441 25.2809 55.2134 25.3116L54.9064 25.4648Z" fill="#F8E72A"/>
<path d="M55.1519 26.3534L56.0112 25.6792L56.2567 26.0163C56.2567 26.0163 56.3488 26.1389 56.3488 26.2001C56.3488 26.2308 56.3488 26.2921 56.3488 26.3534C56.3488 26.4146 56.2874 26.4453 56.2567 26.4759C56.1954 26.5066 56.134 26.5372 56.0726 26.5372C56.0112 26.5372 55.9498 26.5066 55.8578 26.4453C55.8578 26.4759 55.8578 26.5066 55.8578 26.5372C55.8578 26.5985 55.8578 26.6598 55.7964 26.7211L55.6736 27.0275L55.5815 26.9049L55.6736 26.6598C55.6736 26.6598 55.7043 26.5372 55.735 26.5066C55.735 26.4759 55.735 26.4453 55.735 26.4146C55.735 26.4146 55.735 26.384 55.735 26.3534C55.735 26.3534 55.735 26.3227 55.7043 26.2921L55.6122 26.1695L55.2439 26.4453L55.1825 26.3534H55.1519ZM55.7043 26.0776L55.8578 26.2921C55.8578 26.2921 55.9191 26.384 55.9498 26.384C55.9805 26.384 56.0112 26.384 56.0419 26.384C56.0726 26.384 56.1033 26.384 56.134 26.3534C56.1647 26.3227 56.1954 26.2921 56.1954 26.2308C56.1954 26.2001 56.1954 26.1389 56.134 26.0776L55.9498 25.8324L55.6736 26.0469L55.7043 26.0776Z" fill="#F8E72A"/>
<path d="M55.7354 27.0885L56.8709 26.874L56.9323 26.9966L56.165 27.8546L56.1036 27.732L56.3492 27.4562L56.165 27.1192L55.8274 27.1805L55.766 27.0579L55.7354 27.0885ZM56.2571 27.0885L56.4106 27.3643L56.6254 27.1192C56.6254 27.1192 56.7482 26.9966 56.7789 26.9353C56.7175 26.9353 56.6561 26.966 56.564 26.9966L56.2264 27.0579L56.2571 27.0885Z" fill="#F8E72A"/>
<path d="M56.6868 29.9077L57.7303 30.3674V30.4899L56.5947 30.7657V30.6125L56.963 30.5512V30.1529L56.6868 30.0303V29.9077ZM57.1165 30.2141V30.5512L57.3927 30.4899C57.4848 30.4899 57.5768 30.4593 57.6382 30.4593C57.5768 30.4593 57.5155 30.4287 57.4541 30.3674L57.1472 30.2448L57.1165 30.2141Z" fill="#F8E72A"/>
<path d="M46.4359 31.2561L45.3924 31.5012L45.3003 31.0722C45.3003 31.0722 45.3003 30.919 45.3003 30.8884C45.3003 30.8271 45.331 30.7964 45.3924 30.7658C45.4231 30.7351 45.4844 30.7045 45.5458 30.6739C45.6072 30.6739 45.6686 30.6739 45.7607 30.6739C45.822 30.6739 45.8527 30.7658 45.9141 30.8577C45.9141 30.8271 45.9141 30.7964 45.9448 30.7658C45.9755 30.7351 46.0062 30.6739 46.0676 30.6432L46.3131 30.4287V30.5819L46.1596 30.7658C46.0983 30.8271 46.0676 30.8577 46.0369 30.8884C46.0369 30.8884 45.9755 30.9496 45.9755 30.9803C45.9755 30.9803 45.9755 31.0109 45.9755 31.0416C45.9755 31.0416 45.9755 31.0722 45.9755 31.1029V31.2561L46.4666 31.1335V31.2561H46.4359ZM45.822 31.2561L45.7607 30.9803C45.7607 30.9803 45.7607 30.8884 45.6993 30.8577C45.6993 30.8577 45.6686 30.7964 45.6072 30.7964C45.5765 30.7964 45.5458 30.7964 45.5151 30.7964C45.4537 30.7964 45.4231 30.8271 45.3924 30.8577C45.3924 30.8884 45.3924 30.9496 45.3924 31.0109L45.4538 31.3174L45.7914 31.2254L45.822 31.2561Z" fill="#F8E72A"/>
<path d="M46.313 29.2953L45.2388 29.2033V28.8356C45.2388 28.8356 45.3002 28.713 45.3002 28.6824C45.3002 28.6211 45.3308 28.5905 45.3615 28.5598C45.3615 28.5598 45.4229 28.4985 45.4843 28.4985C45.5457 28.4985 45.5764 28.4985 45.6378 28.4985C45.7298 28.4985 45.7912 28.5292 45.8526 28.5905C45.914 28.6518 45.9447 28.7437 45.914 28.8663V29.1114L46.313 29.142V29.2646V29.2953ZM45.7605 29.1114V28.8663C45.7605 28.8663 45.7605 28.713 45.7605 28.6824C45.7298 28.6518 45.6684 28.6211 45.6071 28.6211C45.5764 28.6211 45.515 28.6211 45.4843 28.6211C45.4536 28.6211 45.4229 28.6518 45.4229 28.6824C45.4229 28.6824 45.4229 28.7437 45.4229 28.805V29.0501H45.7912L45.7605 29.1114Z" fill="#F8E72A"/>
<path d="M46.7426 27.7014L45.8525 27.0886L46.0674 26.7821C46.0674 26.7821 46.1595 26.6902 46.1901 26.6596C46.2208 26.6596 46.2822 26.6289 46.3436 26.6289C46.405 26.6289 46.4357 26.6289 46.4664 26.6902C46.4971 26.6902 46.5277 26.7515 46.5584 26.7821C46.5584 26.8128 46.5584 26.8741 46.5584 26.9353C46.6198 26.9047 46.6505 26.8741 46.7119 26.8741C46.7733 26.8741 46.8347 26.8741 46.8654 26.9353C46.896 26.9353 46.9267 26.9966 46.9574 27.0273C46.9574 27.0579 46.9881 27.0886 46.9881 27.1498C46.9881 27.1805 46.9881 27.2418 46.9881 27.2724C46.9881 27.3031 46.9574 27.3644 46.9267 27.395L46.7119 27.7014H46.7426ZM46.2822 27.2418L46.405 27.0579C46.405 27.0579 46.4664 26.966 46.4664 26.9353C46.4664 26.9047 46.4664 26.8741 46.4664 26.8434C46.4664 26.8434 46.4357 26.7821 46.405 26.7821C46.405 26.7821 46.3436 26.7515 46.3129 26.7515C46.2822 26.7515 46.2515 26.7515 46.2208 26.7515C46.2208 26.7515 46.1595 26.8128 46.1288 26.8741L46.0367 27.0273L46.3129 27.2111L46.2822 27.2418ZM46.7119 27.5176L46.8347 27.3337C46.8347 27.3337 46.8654 27.2724 46.8654 27.2418C46.8654 27.2418 46.8654 27.1805 46.8654 27.1498C46.8654 27.1192 46.8654 27.0886 46.8654 27.0886C46.8654 27.0886 46.8347 27.0273 46.804 27.0273C46.7733 27.0273 46.7426 26.9966 46.7119 26.9966C46.6812 26.9966 46.6505 26.9966 46.6198 27.0273C46.6198 27.0273 46.5584 27.0886 46.5277 27.1498L46.405 27.3337L46.7119 27.5482V27.5176Z" fill="#F8E72A"/>
<path d="M48.5536 25.6181L48.2773 24.5149L48.4001 24.4536L49.2902 25.1584L49.1674 25.2503L48.8912 25.0358L48.5536 25.2503L48.6456 25.5874L48.5229 25.6487L48.5536 25.6181ZM48.5536 25.0971L48.8298 24.9133L48.5843 24.6988C48.5843 24.6988 48.4615 24.5762 48.4001 24.5455C48.4001 24.6068 48.4615 24.6681 48.4615 24.7294L48.5536 25.0665V25.0971Z" fill="#F8E72A"/>
</g>
</g>
</g>
<defs>
<clipPath id="clip0_211_3302">
<rect width="103" height="60" fill="white"/>
</clipPath>
</defs>
</svg>
