<svg width="103" height="60" viewBox="0 0 103 60" fill="none" xmlns="http://www.w3.org/2000/svg">
<g clip-path="url(#clip0_211_2413)">
<mask id="mask0_211_2413" style="mask-type:luminance" maskUnits="userSpaceOnUse" x="0" y="0" width="103" height="60">
<path d="M103 0H0V60H103V0Z" fill="white"/>
</mask>
<g mask="url(#mask0_211_2413)">
<path d="M103 0H0V60H103V0Z" fill="#3C9242"/>
<path d="M15.8982 29.9998L51.5001 52.7067L87.1327 29.9998L51.5001 7.29297L15.8982 29.9998Z" fill="#EDC226"/>
<mask id="mask1_211_2413" style="mask-type:luminance" maskUnits="userSpaceOnUse" x="0" y="0" width="103" height="60">
<path d="M103 0H0V60H103V0Z" fill="white"/>
</mask>
<g mask="url(#mask1_211_2413)">
<path d="M66.508 30.0002C66.508 38.2739 59.7866 44.9849 51.5 44.9849C43.2133 44.9849 36.4919 38.2739 36.4919 30.0002C36.4919 21.7264 43.2133 14.9849 51.5 14.9849C59.7866 14.9849 66.508 21.7264 66.508 30.0002Z" fill="#2D146E"/>
<path d="M42.937 23.5649C41.1876 23.5649 39.4689 23.6875 37.7809 23.9327C37.4433 24.6681 37.1977 25.4342 36.9829 26.2309C38.9165 25.8938 40.9114 25.71 42.937 25.71C51.7454 25.71 59.7865 29.0195 65.8634 34.474C66.1089 33.7079 66.2931 32.9112 66.3852 32.1145C60.0321 26.7825 51.8682 23.5649 42.937 23.5649Z" fill="white"/>
<path fillRule="evenodd" clipRule="evenodd" d="M38.7016 25.6183C39.0392 25.5877 39.3155 25.22 39.2541 24.8216C39.2234 24.4233 38.8858 24.1475 38.5482 24.1781C38.1799 24.2087 37.9343 24.5765 37.9957 24.9748C38.0264 25.3732 38.364 25.649 38.7016 25.6183ZM38.7016 25.3426C38.8858 25.3426 39.0392 25.0974 39.0085 24.8523C39.0085 24.6071 38.7937 24.4233 38.5789 24.4539C38.364 24.4539 38.2106 24.699 38.2413 24.9442C38.2719 25.1893 38.4561 25.3732 38.6709 25.3426" fill="#3C9242"/>
<path fillRule="evenodd" clipRule="evenodd" d="M39.8679 25.4957H40.1134L40.0827 24.9441H40.6659C40.9114 24.8828 41.0955 24.6683 41.0648 24.4231C41.0648 24.178 40.8193 23.9941 40.5738 23.9941L39.7451 24.0554L39.8372 25.4957H39.8679ZM40.0827 24.6683H40.6352C40.6352 24.6683 40.7886 24.5457 40.7886 24.4231C40.7886 24.3312 40.6965 24.2393 40.6045 24.2699H40.052V24.6683H40.0827Z" fill="#3C9242"/>
<path d="M41.065 25.4038C41.065 25.1893 41.0343 24.7603 40.7274 24.7603H40.3284C40.758 24.7603 40.8194 25.2199 40.8194 25.4038" fill="#3C9242"/>
<path fillRule="evenodd" clipRule="evenodd" d="M41.6789 25.3732H42.3541C42.6917 25.3732 42.9679 25.0668 42.9679 24.7297V24.5152C42.9679 24.1781 42.661 23.9023 42.3234 23.9023H41.6482V25.3426L41.6789 25.3732ZM41.9244 25.0974H42.3234C42.5382 25.0974 42.7224 24.9136 42.6917 24.6991V24.5765C42.6917 24.362 42.5076 24.2088 42.3234 24.2088H41.9244V25.1281V25.0974Z" fill="#3C9242"/>
<path d="M43.4895 25.3422L44.7785 25.4035V25.1277L43.735 25.0971L43.7657 24.7293L44.5944 24.76V24.5148L43.7657 24.4842V24.2084L44.7478 24.2391V23.9633L43.5509 23.9326L43.4895 25.3422Z" fill="#3C9242"/>
<path d="M45.3003 25.4344H45.5458L45.6379 24.4844L45.822 25.465L46.0676 25.4957L46.4359 24.5457L46.3438 25.5263L46.5893 25.557L46.7121 24.1167L46.3745 24.0861L45.9755 25.036L45.7914 24.0248L45.4231 23.9941L45.3003 25.4344Z" fill="#3C9242"/>
<path d="M48.2468 25.7714L49.321 25.9246L49.3517 25.7101L48.5537 25.5569L48.6151 25.2505L49.2903 25.3424L49.321 25.0972L48.6458 25.0053L48.6765 24.7908L49.4745 24.9134L49.5052 24.6682L48.4924 24.4844L48.2468 25.7714Z" fill="#3C9242"/>
<path fillRule="evenodd" clipRule="evenodd" d="M50.9783 26.2924L51.2238 26.3537L51.3773 25.8328L51.9297 25.9553C52.1752 26.0166 52.4208 25.8634 52.4821 25.6489C52.5435 25.4038 52.3901 25.1586 52.1445 25.0973L51.3466 24.8828L50.9783 26.2618V26.2924ZM51.4386 25.5876L51.9604 25.7408C51.9604 25.7408 52.1445 25.7102 52.1752 25.6183C52.1752 25.5263 52.1445 25.4344 52.0525 25.4038L51.5307 25.2812L51.4386 25.6489V25.5876Z" fill="#3C9242"/>
<path fillRule="evenodd" clipRule="evenodd" d="M52.7275 26.7519L52.9731 26.8438L53.1265 26.3535L53.6483 26.5374C53.8938 26.5987 54.1393 26.4761 54.2314 26.2616C54.3235 26.0164 54.17 25.7713 53.9552 25.71L53.1572 25.4648L52.7275 26.8132V26.7519ZM53.2186 26.0777L53.7404 26.2309C53.7404 26.2309 53.9245 26.2309 53.9552 26.1084C53.9859 26.0164 53.9552 25.9245 53.8324 25.8939L53.3107 25.7406L53.1879 26.0777H53.2186Z" fill="#3C9242"/>
<path d="M53.894 27.1199C53.9553 26.936 54.0781 26.507 53.8019 26.4151L53.4336 26.2925C53.8633 26.4151 53.7098 26.8441 53.6484 27.0586" fill="#3C9242"/>
<path fillRule="evenodd" clipRule="evenodd" d="M55.0603 27.5488C55.3979 27.6714 55.7661 27.4876 55.9196 27.1198C56.0731 26.7521 55.9196 26.3538 55.582 26.2312C55.2444 26.1086 54.8454 26.2925 54.7226 26.6602C54.5692 27.0279 54.7226 27.4263 55.0909 27.5488M55.183 27.3037C55.3979 27.3956 55.6127 27.2424 55.7048 27.0279C55.7968 26.7828 55.7048 26.5376 55.5206 26.4763C55.3365 26.415 55.0909 26.5376 54.9989 26.7521C54.9068 26.9973 54.9989 27.2424 55.183 27.3037Z" fill="#3C9242"/>
<path fillRule="evenodd" clipRule="evenodd" d="M56.7483 28.2229C57.0859 28.3762 57.4849 28.1923 57.6383 27.8246C57.7918 27.4568 57.6383 27.0585 57.3314 26.9053C56.9938 26.752 56.6255 26.9359 56.4721 27.3036C56.3186 27.6714 56.4721 28.0697 56.779 28.2229M56.9017 27.9778C57.0859 28.0697 57.3314 27.9471 57.4235 27.702C57.5156 27.4875 57.4235 27.2117 57.27 27.1504C57.0859 27.0585 56.8404 27.1811 56.7483 27.4262C56.6562 27.6407 56.7176 27.9165 56.9017 27.9778Z" fill="#3C9242"/>
<path d="M57.1473 27.6099L57.6383 27.8244L57.5462 28.0082L57.0552 27.7937L57.1473 27.6099Z" fill="#3C9242"/>
<path d="M57.4542 27.7324L57.6384 27.8244L57.3314 28.4679L57.178 28.4066L57.4542 27.7324Z" fill="#3C9242"/>
<path fillRule="evenodd" clipRule="evenodd" d="M57.8225 28.7133L58.068 28.8359L58.3136 28.3456L58.8353 28.6214C59.0502 28.7439 59.3264 28.6214 59.4492 28.4069C59.5719 28.1924 59.4491 27.9166 59.265 27.794L58.5284 27.4263L57.8839 28.6827L57.8225 28.7133ZM58.4056 28.1311L58.8967 28.3762C58.8967 28.3762 59.0809 28.3762 59.1422 28.2843C59.1729 28.1924 59.1422 28.0698 59.0502 28.0391L58.5591 27.794L58.4056 28.1311Z" fill="#3C9242"/>
<path d="M58.9274 29.2342C59.0195 29.0504 59.2036 28.652 58.9274 28.4988L58.5591 28.3149C58.9581 28.5294 58.7739 28.9278 58.6819 29.1117" fill="#3C9242"/>
<path d="M59.449 29.5406L60.5845 30.1534L60.7073 29.9389L59.7866 29.418L59.9707 29.1116L60.6766 29.5099L60.7994 29.2648L60.0935 28.8971L60.2469 28.6213L61.0756 29.1116L61.2291 28.8971L60.1549 28.2842L59.449 29.5406Z" fill="#3C9242"/>
<path d="M61.536 30.2145C61.536 30.2145 61.536 30.4596 61.6894 30.5822C61.8736 30.7048 61.9656 30.6741 62.027 30.5822C62.1805 30.3371 61.2904 29.9693 61.5667 29.5403C61.8122 29.1726 62.2112 29.4484 62.3646 29.5403C62.5181 29.6323 62.7636 29.9081 62.5795 30.1838L62.3032 30C62.3032 30 62.3032 29.7548 62.1498 29.6629C62.027 29.571 61.9043 29.5403 61.8429 29.6629C61.7201 29.8468 62.6102 30.2145 62.3032 30.6741C62.1191 30.9806 61.7508 30.858 61.536 30.6741C61.3211 30.5516 61.0449 30.2451 61.2291 29.9387L61.5053 30.1226L61.536 30.2145Z" fill="#3C9242"/>
<path d="M63.0706 31.226C63.0706 31.226 63.0706 31.4712 63.2241 31.5937C63.3775 31.7163 63.531 31.7163 63.5617 31.655C63.7151 31.4099 62.8251 31.0115 63.1627 30.6131C63.4082 30.2454 63.8072 30.5518 63.9607 30.6744C64.1141 30.797 64.329 31.0421 64.1141 31.3486L63.8686 31.1647C63.8686 31.1647 63.8686 30.9196 63.7151 30.8276C63.5924 30.7357 63.5003 30.7051 63.4082 30.8276C63.2548 31.0115 64.1141 31.4405 63.8379 31.8389C63.6231 32.1453 63.2548 31.9921 63.0706 31.8389C62.8865 31.7163 62.5795 31.3792 62.7944 31.1034L63.0706 31.2873V31.226Z" fill="#3C9242"/>
<path fillRule="evenodd" clipRule="evenodd" d="M64.513 32.8805C64.7892 33.0951 65.2189 33.0338 65.4645 32.7273C65.71 32.4209 65.6793 31.9919 65.4031 31.7774C65.1268 31.5629 64.6972 31.6242 64.4516 31.9306C64.2061 32.237 64.2368 32.666 64.513 32.8805ZM64.6665 32.666C64.8199 32.7886 65.0962 32.758 65.2496 32.5435C65.4031 32.3596 65.3724 32.0838 65.2496 31.9612C65.0962 31.8387 64.8506 31.8693 64.6665 32.0838C64.513 32.2677 64.513 32.5435 64.6665 32.666Z" fill="#3C9242"/>
<path d="M39.2541 26.6602L39.0393 27.273L39.3462 27.365L39.2541 26.6602Z" fill="white"/>
<path d="M39.2541 26.6602L39.4383 27.273L39.1313 27.365L39.2541 26.6602Z" fill="white"/>
<path d="M39.8372 27.0889H39.2234V27.4259L39.8372 27.0889Z" fill="white"/>
<path d="M39.8372 27.0889L39.3462 27.4872L39.1313 27.2114L39.8372 27.0889Z" fill="white"/>
<path d="M38.6404 27.0889L39.1621 27.4872L39.3463 27.2114L38.6404 27.0889Z" fill="white"/>
<path d="M38.6404 27.0889H39.2849V27.4259L38.6404 27.0889Z" fill="white"/>
<path d="M39.6224 27.8243L39.4076 27.2114L39.1313 27.3034L39.6224 27.8243Z" fill="white"/>
<path d="M39.6223 27.8247L39.1006 27.4263L39.2847 27.1812L39.6223 27.8247Z" fill="white"/>
<path d="M38.8552 27.8247L39.377 27.4263L39.1928 27.1812L38.8552 27.8247Z" fill="white"/>
<path d="M38.8552 27.8243L39.0701 27.2114L39.377 27.3034L38.8552 27.8243Z" fill="white"/>
<path d="M40.574 32.9727L40.3591 33.5855L40.6967 33.6775L40.574 32.9727Z" fill="white"/>
<path d="M40.5738 32.9727L40.7579 33.5855L40.4817 33.6775L40.5738 32.9727Z" fill="white"/>
<path d="M41.1877 33.4019H40.5432V33.7389L41.1877 33.4019Z" fill="white"/>
<path d="M41.1876 33.4019L40.6658 33.8002L40.4817 33.5244L41.1876 33.4019Z" fill="white"/>
<path d="M39.96 33.4019L40.4817 33.8002L40.6659 33.5244L39.96 33.4019Z" fill="white"/>
<path d="M39.96 33.4019H40.6045V33.7389L39.96 33.4019Z" fill="white"/>
<path d="M40.9422 34.1373L40.7581 33.5244L40.4512 33.6163L40.9422 34.1373Z" fill="white"/>
<path d="M40.9422 34.1372L40.4204 33.7388L40.6046 33.4937L40.9422 34.1372Z" fill="white"/>
<path d="M40.1748 34.1372L40.7272 33.7388L40.5124 33.4937L40.1748 34.1372Z" fill="white"/>
<path d="M40.1748 34.1373L40.3896 33.5244L40.6966 33.6163L40.1748 34.1373Z" fill="white"/>
<path d="M38.7324 34.5049L38.6096 34.9339L38.7938 34.9952L38.7324 34.5049Z" fill="white"/>
<path d="M38.7325 34.5049L38.8553 34.9339L38.6711 34.9952L38.7325 34.5049Z" fill="white"/>
<path d="M39.1313 34.811H38.7017V35.0255L39.1313 34.811Z" fill="white"/>
<path d="M39.1315 34.811L38.7939 35.0868L38.6711 34.903L39.1315 34.811Z" fill="white"/>
<path d="M38.3335 34.811L38.6711 35.0868L38.7939 34.903L38.3335 34.811Z" fill="white"/>
<path d="M38.3335 34.811H38.7632V35.0255L38.3335 34.811Z" fill="white"/>
<path d="M38.978 35.3017L38.8552 34.9033L38.6404 34.9646L38.978 35.3017Z" fill="white"/>
<path d="M38.978 35.3016L38.6404 35.0564L38.7631 34.8726L38.978 35.3016Z" fill="white"/>
<path d="M38.4868 35.3016L38.8244 35.0564L38.7017 34.8726L38.4868 35.3016Z" fill="white"/>
<path d="M38.4868 35.3017L38.6096 34.9033L38.7937 34.9646L38.4868 35.3017Z" fill="white"/>
<path d="M42.0472 32.3901L41.9551 32.6659L42.0778 32.7272L42.0472 32.3901Z" fill="white"/>
<path d="M42.047 32.3901L42.139 32.6659L41.9856 32.7272L42.047 32.3901Z" fill="white"/>
<path d="M42.3233 32.605H42.0471V32.7582L42.3233 32.605Z" fill="white"/>
<path d="M42.3233 32.605L42.0777 32.7888L42.0164 32.6356L42.3233 32.605Z" fill="white"/>
<path d="M41.7402 32.605L42.0165 32.7888L42.0778 32.6356L41.7402 32.605Z" fill="white"/>
<path d="M41.7402 32.605H42.0471V32.7582L41.7402 32.605Z" fill="white"/>
<path d="M42.2311 32.9422L42.1084 32.6357L41.9856 32.697L42.2311 32.9422Z" fill="white"/>
<path d="M42.2311 32.9422L41.9856 32.7583L42.0777 32.6357L42.2311 32.9422Z" fill="white"/>
<path d="M41.863 32.9422L42.1086 32.7583L42.0165 32.6357L41.863 32.9422Z" fill="white"/>
<path d="M41.863 32.9422L41.9551 32.6357L42.1086 32.697L41.863 32.9422Z" fill="white"/>
<path d="M43.7045 34.5659L43.551 35.0562L43.7659 35.1481L43.7045 34.5659Z" fill="white"/>
<path d="M43.7044 34.5659L43.8578 35.0562L43.6123 35.1481L43.7044 34.5659Z" fill="white"/>
<path d="M44.1953 34.9336H43.6736V35.2094L44.1953 34.9336Z" fill="white"/>
<path d="M44.1954 34.9336L43.7658 35.24L43.6123 35.0255L44.1954 34.9336Z" fill="white"/>
<path d="M43.1826 34.9336L43.6123 35.24L43.7658 35.0255L43.1826 34.9336Z" fill="white"/>
<path d="M43.1826 34.9336H43.7351V35.2094L43.1826 34.9336Z" fill="white"/>
<path d="M44.0112 35.5162L43.8578 35.0259L43.5815 35.1178L44.0112 35.5162Z" fill="white"/>
<path d="M44.0112 35.5161L43.5815 35.2096L43.735 34.9951L44.0112 35.5161Z" fill="white"/>
<path d="M43.3975 35.5161L43.8271 35.2096L43.643 34.9951L43.3975 35.5161Z" fill="white"/>
<path d="M43.3975 35.5162L43.5509 35.0259L43.7964 35.1178L43.3975 35.5162Z" fill="white"/>
<path d="M43.244 36.0371L43.0906 36.558L43.3361 36.65L43.244 36.0371Z" fill="white"/>
<path d="M43.2439 36.0371L43.3974 36.558L43.1519 36.65L43.2439 36.0371Z" fill="white"/>
<path d="M43.7658 36.4355H43.2134V36.6807L43.7658 36.4355Z" fill="white"/>
<path d="M43.7657 36.4355L43.336 36.742L43.1519 36.5275L43.7657 36.4355Z" fill="white"/>
<path d="M42.7529 36.4355L43.1826 36.742L43.3361 36.5275L42.7529 36.4355Z" fill="white"/>
<path d="M42.7529 36.4355H43.2747V36.6807L42.7529 36.4355Z" fill="white"/>
<path d="M43.5508 37.0175L43.3974 36.4966L43.1519 36.5885L43.5508 37.0175Z" fill="white"/>
<path d="M43.551 37.0175L43.1213 36.7111L43.3055 36.4966L43.551 37.0175Z" fill="white"/>
<path d="M42.937 37.0175L43.3667 36.7111L43.2132 36.4966L42.937 37.0175Z" fill="white"/>
<path d="M42.937 37.0175L43.0905 36.4966L43.3667 36.5885L42.937 37.0175Z" fill="white"/>
<path d="M56.165 24.6987L55.9502 25.3116L56.2878 25.4035L56.165 24.6987Z" fill="white"/>
<path d="M56.165 24.6987L56.3798 25.3116L56.0422 25.4035L56.165 24.6987Z" fill="white"/>
<path d="M56.7788 25.1279H56.1343V25.465L56.7788 25.1279Z" fill="white"/>
<path d="M56.7789 25.1279L56.2571 25.5263L56.073 25.2505L56.7789 25.1279Z" fill="white"/>
<path d="M55.5513 25.1279L56.073 25.5263L56.2572 25.2505L55.5513 25.1279Z" fill="white"/>
<path d="M55.5513 25.1279H56.1958V25.465L55.5513 25.1279Z" fill="white"/>
<path d="M56.5333 25.8634L56.3492 25.2505L56.0422 25.3424L56.5333 25.8634Z" fill="white"/>
<path d="M56.5335 25.8632L56.0117 25.4955L56.1959 25.2197L56.5335 25.8632Z" fill="white"/>
<path d="M55.7969 25.8632L56.3186 25.4955L56.1345 25.2197L55.7969 25.8632Z" fill="white"/>
<path d="M55.7969 25.8634L55.981 25.2505L56.2879 25.3424L55.7969 25.8634Z" fill="white"/>
<path d="M62.0271 34.6274L61.8123 35.2403L62.1499 35.3322L62.0271 34.6274Z" fill="white"/>
<path d="M62.0271 34.6274L62.242 35.2403L61.9351 35.3322L62.0271 34.6274Z" fill="white"/>
<path d="M62.6409 35.0562H61.9963V35.3626L62.6409 35.0562Z" fill="white"/>
<path d="M62.641 35.0562L62.1192 35.4239L61.9351 35.1787L62.641 35.0562Z" fill="white"/>
<path d="M61.4133 35.0562L61.9351 35.4239L62.1192 35.1787L61.4133 35.0562Z" fill="white"/>
<path d="M61.4133 35.0562H62.0578V35.3626L61.4133 35.0562Z" fill="white"/>
<path d="M62.426 35.7916L62.2112 35.1787L61.9043 35.2706L62.426 35.7916Z" fill="white"/>
<path d="M62.426 35.792L61.9043 35.3936L62.0884 35.1484L62.426 35.792Z" fill="white"/>
<path d="M61.6587 35.792L62.1804 35.3936L61.9963 35.1484L61.6587 35.792Z" fill="white"/>
<path d="M61.6587 35.7916L61.8428 35.1787L62.1498 35.2706L61.6587 35.7916Z" fill="white"/>
<path d="M64.1142 34.9644L63.9915 35.3627L64.2063 35.4547L64.1142 34.9644Z" fill="white"/>
<path d="M64.1141 34.9644L64.2676 35.3627L64.0527 35.4547L64.1141 34.9644Z" fill="white"/>
<path d="M64.5132 35.271H64.0835V35.4855L64.5132 35.271Z" fill="white"/>
<path d="M64.5131 35.271L64.1755 35.5161L64.0527 35.3323L64.5131 35.271Z" fill="white"/>
<path d="M63.7151 35.271L64.0527 35.5161L64.1755 35.3323L63.7151 35.271Z" fill="white"/>
<path d="M63.7151 35.271H64.1448V35.4855L63.7151 35.271Z" fill="white"/>
<path d="M64.3596 35.761L64.2368 35.332L64.022 35.3933L64.3596 35.761Z" fill="white"/>
<path d="M64.3596 35.761L64.022 35.4852L64.1447 35.332L64.3596 35.761Z" fill="white"/>
<path d="M63.8687 35.761L64.2063 35.4852L64.0835 35.332L63.8687 35.761Z" fill="white"/>
<path d="M63.8687 35.761L63.9914 35.332L64.2063 35.3933L63.8687 35.761Z" fill="white"/>
<path d="M62.641 36.0371L62.4875 36.558L62.7331 36.65L62.641 36.0371Z" fill="white"/>
<path d="M62.6409 36.0371L62.7944 36.558L62.5488 36.65L62.6409 36.0371Z" fill="white"/>
<path d="M63.1628 36.4355H62.6104V36.6807L63.1628 36.4355Z" fill="white"/>
<path d="M63.1627 36.4355L62.733 36.742L62.5488 36.5275L63.1627 36.4355Z" fill="white"/>
<path d="M62.1499 36.4355L62.5796 36.742L62.733 36.5275L62.1499 36.4355Z" fill="white"/>
<path d="M62.1499 36.4355H62.6717V36.6807L62.1499 36.4355Z" fill="white"/>
<path d="M62.9478 37.0175L62.7944 36.4966L62.5488 36.5885L62.9478 37.0175Z" fill="white"/>
<path d="M62.9477 37.0175L62.5181 36.7111L62.6715 36.4966L62.9477 37.0175Z" fill="white"/>
<path d="M62.334 37.0175L62.7637 36.7111L62.6102 36.4966L62.334 37.0175Z" fill="white"/>
<path d="M62.334 37.0175L62.4874 36.4966L62.7637 36.5885L62.334 37.0175Z" fill="white"/>
<path d="M59.0194 39.1934L58.866 39.6837L59.1115 39.7756L59.0194 39.1934Z" fill="white"/>
<path d="M59.0193 39.1934L59.2035 39.6837L58.9272 39.7756L59.0193 39.1934Z" fill="white"/>
<path d="M59.5412 39.561H58.9888V39.8368L59.5412 39.561Z" fill="white"/>
<path d="M59.5411 39.561L59.1114 39.8675L58.9272 39.653L59.5411 39.561Z" fill="white"/>
<path d="M58.5283 39.561L58.958 39.8675L59.1115 39.653L58.5283 39.561Z" fill="white"/>
<path d="M58.5283 39.561H59.0501V39.8368L58.5283 39.561Z" fill="white"/>
<path d="M59.3262 40.1738L59.1728 39.6528L58.9272 39.7448L59.3262 40.1738Z" fill="white"/>
<path d="M59.3262 40.1737L58.8965 39.8366L59.0499 39.6221L59.3262 40.1737Z" fill="white"/>
<path d="M58.7124 40.1737L59.1421 39.8366L58.9886 39.6221L58.7124 40.1737Z" fill="white"/>
<path d="M58.7124 40.1738L58.8659 39.6528L59.1421 39.7448L58.7124 40.1738Z" fill="white"/>
<path d="M58.9887 40.8174L58.866 41.2157L59.0808 41.277L58.9887 40.8174Z" fill="white"/>
<path d="M58.9886 40.8174L59.1421 41.2157L58.9272 41.277L58.9886 40.8174Z" fill="white"/>
<path d="M59.4185 41.124H58.9888V41.3079L59.4185 41.124Z" fill="white"/>
<path d="M59.4183 41.124L59.05 41.3692L58.9272 41.1853L59.4183 41.124Z" fill="white"/>
<path d="M58.5896 41.124L58.9272 41.3692L59.0807 41.1853L58.5896 41.124Z" fill="white"/>
<path d="M58.5896 41.124H59.0193V41.3079L58.5896 41.124Z" fill="white"/>
<path d="M59.2648 41.5834L59.1114 41.1851L58.9272 41.2463L59.2648 41.5834Z" fill="white"/>
<path d="M59.2648 41.5833L58.8965 41.3382L59.0192 41.1543L59.2648 41.5833Z" fill="white"/>
<path d="M58.7432 41.5833L59.1115 41.3382L58.958 41.1543L58.7432 41.5833Z" fill="white"/>
<path d="M58.7432 41.5834L58.8966 41.1851L59.0808 41.2463L58.7432 41.5834Z" fill="white"/>
<path d="M60.5233 38.1206L60.3699 38.519L60.5847 38.5803L60.5233 38.1206Z" fill="white"/>
<path d="M60.5233 38.1206L60.6461 38.519L60.4619 38.5803L60.5233 38.1206Z" fill="white"/>
<path d="M60.9221 38.3965H60.4924V38.611L60.9221 38.3965Z" fill="white"/>
<path d="M60.9223 38.3965L60.5847 38.6723L60.4619 38.4884L60.9223 38.3965Z" fill="white"/>
<path d="M60.1243 38.3965L60.4619 38.6723L60.5846 38.4884L60.1243 38.3965Z" fill="white"/>
<path d="M60.1243 38.3965H60.5539V38.611L60.1243 38.3965Z" fill="white"/>
<path d="M60.7688 38.8866L60.646 38.4883L60.4312 38.5496L60.7688 38.8866Z" fill="white"/>
<path d="M60.7688 38.887L60.4312 38.6419L60.5539 38.458L60.7688 38.887Z" fill="white"/>
<path d="M60.2776 38.887L60.6152 38.6419L60.4924 38.458L60.2776 38.887Z" fill="white"/>
<path d="M60.2776 38.8866L60.4004 38.4883L60.6152 38.5496L60.2776 38.8866Z" fill="white"/>
<path d="M61.7201 37.2627L61.5667 37.753L61.8122 37.8449L61.7201 37.2627Z" fill="white"/>
<path d="M61.7202 37.2627L61.9044 37.753L61.6282 37.8449L61.7202 37.2627Z" fill="white"/>
<path d="M62.2419 37.6304H61.6895V37.8755L62.2419 37.6304Z" fill="white"/>
<path d="M62.2418 37.6304L61.8121 37.9368L61.6587 37.7223L62.2418 37.6304Z" fill="white"/>
<path d="M61.2292 37.6304L61.6589 37.9368L61.8124 37.7223L61.2292 37.6304Z" fill="white"/>
<path d="M61.2292 37.6304H61.751V37.8755L61.2292 37.6304Z" fill="white"/>
<path d="M62.0272 38.2125L61.8737 37.7222L61.6282 37.7835L62.0272 38.2125Z" fill="white"/>
<path d="M62.0271 38.2128L61.5974 37.9064L61.7509 37.6919L62.0271 38.2128Z" fill="white"/>
<path d="M61.4133 38.2128L61.843 37.9064L61.6896 37.6919L61.4133 38.2128Z" fill="white"/>
<path d="M61.4133 38.2125L61.5668 37.7222L61.8123 37.7835L61.4133 38.2125Z" fill="white"/>
<path d="M58.958 37.8145L58.8352 38.2435L59.0194 38.3047L58.958 37.8145Z" fill="white"/>
<path d="M58.9579 37.8145L59.1113 38.2435L58.8965 38.3047L58.9579 37.8145Z" fill="white"/>
<path d="M59.3876 38.1206H58.9272V38.3351L59.3876 38.1206Z" fill="white"/>
<path d="M59.3875 38.1206L59.0192 38.3658L58.8965 38.2125L59.3875 38.1206Z" fill="white"/>
<path d="M58.5591 38.1206L58.8967 38.3658L59.0195 38.2125L58.5591 38.1206Z" fill="white"/>
<path d="M58.5591 38.1206H58.9888V38.3351L58.5591 38.1206Z" fill="white"/>
<path d="M59.2343 38.6111L59.0808 38.1821L58.866 38.2741L59.2343 38.6111Z" fill="white"/>
<path d="M59.2343 38.6111L58.866 38.3353L58.9887 38.1821L59.2343 38.6111Z" fill="white"/>
<path d="M58.7124 38.6111L59.05 38.3353L58.9272 38.1821L58.7124 38.6111Z" fill="white"/>
<path d="M58.7124 38.6111L58.8352 38.1821L59.05 38.2741L58.7124 38.6111Z" fill="white"/>
<path d="M45.7913 30.0615L45.6072 30.5825L45.8834 30.6437L45.7913 30.0615Z" fill="white"/>
<path d="M45.7913 30.0615L45.9447 30.5825L45.6992 30.6437L45.7913 30.0615Z" fill="white"/>
<path d="M46.2825 30.4292H45.7607V30.705L46.2825 30.4292Z" fill="white"/>
<path d="M46.2824 30.4292L45.8527 30.7663L45.6992 30.5518L46.2824 30.4292Z" fill="white"/>
<path d="M45.2695 30.4292L45.6992 30.7663L45.8527 30.5518L45.2695 30.4292Z" fill="white"/>
<path d="M45.2695 30.4292H45.7913V30.705L45.2695 30.4292Z" fill="white"/>
<path d="M46.0984 31.0419L45.9449 30.521L45.6687 30.6129L46.0984 31.0419Z" fill="white"/>
<path d="M46.0984 31.0419L45.6687 30.7355L45.8222 30.521L46.0984 31.0419Z" fill="white"/>
<path d="M45.4539 31.0419L45.9142 30.7355L45.7608 30.521L45.4539 31.0419Z" fill="white"/>
<path d="M45.4539 31.0419L45.638 30.521L45.8835 30.6129L45.4539 31.0419Z" fill="white"/>
<path d="M55.582 28.8052L55.4592 29.2035L55.6741 29.2648L55.582 28.8052Z" fill="white"/>
<path d="M55.5819 28.8052L55.7353 29.2035L55.5205 29.2648L55.5819 28.8052Z" fill="white"/>
<path d="M56.0117 29.1113H55.582V29.3258L56.0117 29.1113Z" fill="white"/>
<path d="M56.0116 29.1113L55.6433 29.3565L55.5205 29.1726L56.0116 29.1113Z" fill="white"/>
<path d="M55.1829 29.1113L55.5205 29.3565L55.6432 29.1726L55.1829 29.1113Z" fill="white"/>
<path d="M55.1829 29.1113H55.6125V29.3258L55.1829 29.1113Z" fill="white"/>
<path d="M55.8581 29.6019L55.7047 29.1729L55.5205 29.2341L55.8581 29.6019Z" fill="white"/>
<path d="M55.858 29.6017L55.4897 29.3259L55.6125 29.1421L55.858 29.6017Z" fill="white"/>
<path d="M55.3364 29.6017L55.674 29.3259L55.5513 29.1421L55.3364 29.6017Z" fill="white"/>
<path d="M55.3364 29.6019L55.4592 29.1729L55.674 29.2341L55.3364 29.6019Z" fill="white"/>
<path d="M51.5 36.0981L51.2852 36.6804L51.6228 36.8029L51.5 36.0981Z" fill="white"/>
<path d="M51.5 36.0981L51.7149 36.6804L51.408 36.8029L51.5 36.0981Z" fill="white"/>
<path d="M52.1138 36.5273H51.4692V36.8644L52.1138 36.5273Z" fill="white"/>
<path d="M52.1139 36.5273L51.5921 36.8951L51.408 36.6499L52.1139 36.5273Z" fill="white"/>
<path d="M50.8862 36.5273L51.4387 36.8951L51.5921 36.6499L50.8862 36.5273Z" fill="white"/>
<path d="M50.8862 36.5273H51.5308V36.8644L50.8862 36.5273Z" fill="white"/>
<path d="M51.8683 37.2628L51.6841 36.6499L51.3772 36.7418L51.8683 37.2628Z" fill="white"/>
<path d="M51.8683 37.2627L51.3772 36.8643L51.5307 36.6191L51.8683 37.2627Z" fill="white"/>
<path d="M51.1316 37.2627L51.6533 36.8643L51.4692 36.6191L51.1316 37.2627Z" fill="white"/>
<path d="M51.1316 37.2628L51.3157 36.6499L51.6227 36.7418L51.1316 37.2628Z" fill="white"/>
<path d="M53.2493 33.2178L53.0652 33.7081L53.3414 33.8L53.2493 33.2178Z" fill="white"/>
<path d="M53.2493 33.2178L53.4028 33.7081L53.1572 33.8L53.2493 33.2178Z" fill="white"/>
<path d="M53.7405 33.5854H53.2188V33.8306L53.7405 33.5854Z" fill="white"/>
<path d="M53.7404 33.5854L53.3107 33.8919L53.1572 33.6774L53.7404 33.5854Z" fill="white"/>
<path d="M52.7275 33.5854L53.1572 33.8919L53.3414 33.6774L52.7275 33.5854Z" fill="white"/>
<path d="M52.7275 33.5854H53.28V33.8306L52.7275 33.5854Z" fill="white"/>
<path d="M53.5564 34.1675L53.4029 33.6772L53.1267 33.7692L53.5564 34.1675Z" fill="white"/>
<path d="M53.5564 34.1679L53.1267 33.8615L53.2802 33.647L53.5564 34.1679Z" fill="white"/>
<path d="M52.9119 34.1679L53.3722 33.8615L53.2188 33.647L52.9119 34.1679Z" fill="white"/>
<path d="M52.9119 34.1675L53.096 33.6772L53.3415 33.7692L52.9119 34.1675Z" fill="white"/>
<path d="M51.4999 31.8696L51.3464 32.3599L51.592 32.4519L51.4999 31.8696Z" fill="white"/>
<path d="M51.5001 31.8696L51.6536 32.3599L51.4387 32.4519L51.5001 31.8696Z" fill="white"/>
<path d="M52.0217 32.2373H51.4692V32.5131L52.0217 32.2373Z" fill="white"/>
<path d="M52.0219 32.2373L51.5922 32.5437L51.4387 32.3292L52.0219 32.2373Z" fill="white"/>
<path d="M51.009 32.2373L51.4387 32.5437L51.5922 32.3292L51.009 32.2373Z" fill="white"/>
<path d="M51.009 32.2373H51.5308V32.5131L51.009 32.2373Z" fill="white"/>
<path d="M51.8069 32.8194L51.6535 32.3291L51.408 32.3904L51.8069 32.8194Z" fill="white"/>
<path d="M51.8069 32.8193L51.3772 32.5128L51.5307 32.2983L51.8069 32.8193Z" fill="white"/>
<path d="M51.1931 32.8193L51.6228 32.5128L51.4693 32.2983L51.1931 32.8193Z" fill="white"/>
<path d="M51.1931 32.8194L51.3466 32.3291L51.6228 32.3904L51.1931 32.8194Z" fill="white"/>
<path d="M49.9962 33.3096L49.8428 33.7386L50.0576 33.7999L49.9962 33.3096Z" fill="white"/>
<path d="M49.9962 33.3096L50.119 33.7386L49.9348 33.7999L49.9962 33.3096Z" fill="white"/>
<path d="M50.395 33.6162H49.9653V33.8307L50.395 33.6162Z" fill="white"/>
<path d="M50.3952 33.6162L50.0576 33.8614L49.9348 33.6775L50.3952 33.6162Z" fill="white"/>
<path d="M49.5972 33.6162L49.9348 33.8614L50.0575 33.6775L49.5972 33.6162Z" fill="white"/>
<path d="M49.5972 33.6162H49.9962V33.8307L49.5972 33.6162Z" fill="white"/>
<path d="M50.2417 34.1063L50.1189 33.6772L49.9041 33.7385L50.2417 34.1063Z" fill="white"/>
<path d="M50.2417 34.1063L49.9041 33.8305L50.0268 33.6772L50.2417 34.1063Z" fill="white"/>
<path d="M49.7505 34.1063L50.0881 33.8305L49.9653 33.6772L49.7505 34.1063Z" fill="white"/>
<path d="M49.7505 34.1063L49.8733 33.6772L50.0881 33.7385L49.7505 34.1063Z" fill="white"/>
<path d="M50.7635 34.4741L50.6714 34.7806L50.7941 34.8112L50.7635 34.4741Z" fill="white"/>
<path d="M50.7633 34.4741L50.8554 34.7806L50.7019 34.8112L50.7633 34.4741Z" fill="white"/>
<path d="M51.0396 34.6885H50.7327V34.8417L51.0396 34.6885Z" fill="white"/>
<path d="M51.0395 34.6885L50.794 34.8723L50.7019 34.7498L51.0395 34.6885Z" fill="white"/>
<path d="M50.4565 34.6885L50.7021 34.8723L50.7941 34.7498L50.4565 34.6885Z" fill="white"/>
<path d="M50.4565 34.6885H50.7635V34.8417L50.4565 34.6885Z" fill="white"/>
<path d="M50.9167 35.0258L50.8247 34.75L50.7019 34.7806L50.9167 35.0258Z" fill="white"/>
<path d="M50.9169 35.0257L50.6714 34.8725L50.7635 34.7192L50.9169 35.0257Z" fill="white"/>
<path d="M50.5793 35.0257L50.8249 34.8725L50.7328 34.7192L50.5793 35.0257Z" fill="white"/>
<path d="M50.5793 35.0258L50.6714 34.75L50.8249 34.7806L50.5793 35.0258Z" fill="white"/>
<path d="M56.0115 39.561L55.8274 40.082L56.1036 40.1433L56.0115 39.561Z" fill="white"/>
<path d="M56.0115 39.561L56.165 40.082L55.9194 40.1433L56.0115 39.561Z" fill="white"/>
<path d="M56.5027 39.9287H55.981V40.2045L56.5027 39.9287Z" fill="white"/>
<path d="M56.5026 39.9287L56.0729 40.2351L55.9194 40.0206L56.5026 39.9287Z" fill="white"/>
<path d="M55.4897 39.9287L55.9194 40.2351L56.1036 40.0206L55.4897 39.9287Z" fill="white"/>
<path d="M55.4897 39.9287H56.0422V40.2045L55.4897 39.9287Z" fill="white"/>
<path d="M56.3186 40.5414L56.1345 40.0205L55.8889 40.1124L56.3186 40.5414Z" fill="white"/>
<path d="M56.3186 40.5413L55.8889 40.2042L56.0424 39.9897L56.3186 40.5413Z" fill="white"/>
<path d="M55.6741 40.5413L56.1344 40.2042L55.9503 39.9897L55.6741 40.5413Z" fill="white"/>
<path d="M55.6741 40.5414L55.8582 40.0205L56.1038 40.1124L55.6741 40.5414Z" fill="white"/>
<path d="M57.3007 38.3354L57.1472 38.7338L57.3621 38.8257L57.3007 38.3354Z" fill="white"/>
<path d="M57.3006 38.3354L57.4233 38.7338L57.2085 38.8257L57.3006 38.3354Z" fill="white"/>
<path d="M57.6997 38.6416H57.27V38.8561L57.6997 38.6416Z" fill="white"/>
<path d="M57.6996 38.6416L57.362 38.8867L57.2085 38.7029L57.6996 38.6416Z" fill="white"/>
<path d="M56.8708 38.6416L57.2084 38.8867L57.3619 38.7029L56.8708 38.6416Z" fill="white"/>
<path d="M56.8708 38.6416H57.3005V38.8561L56.8708 38.6416Z" fill="white"/>
<path d="M57.5461 39.1015L57.3926 38.7031L57.2085 38.7644L57.5461 39.1015Z" fill="white"/>
<path d="M57.5461 39.1014L57.2085 38.8562L57.3313 38.6724L57.5461 39.1014Z" fill="white"/>
<path d="M57.0552 39.1014L57.3928 38.8562L57.2393 38.6724L57.0552 39.1014Z" fill="white"/>
<path d="M57.0552 39.1015L57.1779 38.7031L57.3928 38.7644L57.0552 39.1015Z" fill="white"/>
<path d="M54.8147 37.9673L54.6919 38.3657L54.876 38.4576L54.8147 37.9673Z" fill="white"/>
<path d="M54.8146 37.9673L54.9373 38.3657L54.7532 38.4576L54.8146 37.9673Z" fill="white"/>
<path d="M55.2136 38.2739H54.7839V38.4884L55.2136 38.2739Z" fill="white"/>
<path d="M55.2135 38.2739L54.8759 38.5191L54.7532 38.3352L55.2135 38.2739Z" fill="white"/>
<path d="M54.4158 38.2739L54.7534 38.5191L54.8761 38.3352L54.4158 38.2739Z" fill="white"/>
<path d="M54.4158 38.2739H54.8455V38.4884L54.4158 38.2739Z" fill="white"/>
<path d="M55.0603 38.7338L54.9375 38.3354L54.7227 38.3967L55.0603 38.7338Z" fill="white"/>
<path d="M55.0603 38.7338L54.7227 38.4887L54.8454 38.3354L55.0603 38.7338Z" fill="white"/>
<path d="M54.5691 38.7338L54.9067 38.4887L54.7839 38.3354L54.5691 38.7338Z" fill="white"/>
<path d="M54.5691 38.7338L54.6919 38.3354L54.9067 38.3967L54.5691 38.7338Z" fill="white"/>
<path d="M45.4844 37.2935L45.2695 37.9063L45.5764 38.0289L45.4844 37.2935Z" fill="white"/>
<path d="M45.4846 37.2935L45.6687 37.9063L45.3618 38.0289L45.4846 37.2935Z" fill="white"/>
<path d="M46.0984 37.7529H45.4539V38.09L46.0984 37.7529Z" fill="white"/>
<path d="M46.0982 37.7529L45.5765 38.1207L45.3923 37.8755L46.0982 37.7529Z" fill="white"/>
<path d="M44.8706 37.7529L45.3924 38.1207L45.5765 37.8755L44.8706 37.7529Z" fill="white"/>
<path d="M44.8706 37.7529H45.5151V38.09L44.8706 37.7529Z" fill="white"/>
<path d="M45.8529 38.4577L45.6687 37.8755L45.3618 37.9674L45.8529 38.4577Z" fill="white"/>
<path d="M45.8528 38.4576L45.3311 38.0899L45.5152 37.8447L45.8528 38.4576Z" fill="white"/>
<path d="M45.0854 38.4576L45.6072 38.0899L45.4231 37.8447L45.0854 38.4576Z" fill="white"/>
<path d="M45.0854 38.4577L45.3003 37.8755L45.6072 37.9674L45.0854 38.4577Z" fill="white"/>
<path d="M51.5001 41.522L51.4387 41.7058L51.5308 41.7365L51.5001 41.522Z" fill="white"/>
<path d="M51.4999 41.522L51.5613 41.7058L51.4692 41.7365L51.4999 41.522Z" fill="white"/>
<path d="M51.7148 41.6753H51.5V41.7672L51.7148 41.6753Z" fill="white"/>
<path d="M51.7148 41.6753L51.5306 41.7979L51.4692 41.7059L51.7148 41.6753Z" fill="white"/>
<path d="M51.2852 41.6753L51.4693 41.7979L51.5307 41.7059L51.2852 41.6753Z" fill="white"/>
<path d="M51.2852 41.6753H51.5V41.7672L51.2852 41.6753Z" fill="white"/>
<path d="M51.6227 41.8899L51.5613 41.7061L51.4692 41.7367L51.6227 41.8899Z" fill="white"/>
<path d="M51.6227 41.8899L51.4692 41.7673L51.4999 41.7061L51.6227 41.8899Z" fill="white"/>
<path d="M51.3772 41.8899L51.5307 41.7673L51.5 41.7061L51.3772 41.8899Z" fill="white"/>
<path d="M51.3772 41.8899L51.4386 41.7061L51.5307 41.7367L51.3772 41.8899Z" fill="white"/>
</g>
</g>
</g>
<defs>
<clipPath id="clip0_211_2413">
<rect width="103" height="60" fill="white"/>
</clipPath>
</defs>
</svg>
