<svg width="103" height="60" viewBox="0 0 103 60" fill="none" xmlns="http://www.w3.org/2000/svg">
<g clip-path="url(#clip0_211_2878)">
<mask id="mask0_211_2878" style="mask-type:luminance" maskUnits="userSpaceOnUse" x="0" y="0" width="103" height="60">
<path d="M103 0H0V60H103V0Z" fill="white"/>
</mask>
<g mask="url(#mask0_211_2878)">
<path d="M103 0H0V60H103V0Z" fill="white"/>
<path d="M0 53.3196H103V46.6393H0V53.3196ZM0 39.9897H103V33.3094H0V39.9897ZM33.3921 26.6597H103V20.0101H33.3921V26.6597ZM33.3921 13.3298H103V6.68018H33.3921V13.3298Z" fill="#3E73B7"/>
<mask id="mask1_211_2878" style="mask-type:luminance" maskUnits="userSpaceOnUse" x="0" y="0" width="103" height="60">
<path d="M103 0H0V60H103V0Z" fill="white"/>
</mask>
<g mask="url(#mask1_211_2878)">
<path fillRule="evenodd" clipRule="evenodd" d="M16.7575 16.7007L17.0644 21.6343C12.5221 24.9131 15.315 26.8437 12.031 27.9162C14.2715 25.7099 11.3558 25.7099 13.8725 20.6537" fill="#EAC126"/>
<path d="M16.8495 16.7007L17.1258 21.6343H16.9416L16.5733 16.7007H16.8802H16.8495ZM17.1258 21.6343V21.7262L17.0337 21.6343H17.1258ZM17.1258 21.7262C14.7011 23.4729 14.4249 24.8212 14.118 25.7712H13.8111C14.118 24.6986 14.4863 23.2584 16.9109 21.5117L17.0951 21.6956L17.1258 21.7262ZM14.118 25.7712C13.8111 26.8437 13.6269 27.5178 12.0924 27.9775L12.0003 27.7936C13.4428 27.3033 13.6576 26.6292 13.8418 25.7712H14.1487H14.118ZM12.0924 27.9775L11.6013 28.1614L11.9082 27.8856H12.0003L12.0924 27.9775ZM11.9082 27.8856C12.8904 26.813 12.8904 26.2308 12.6755 25.4647H12.9824C13.0745 26.2308 13.1666 26.905 12.1231 27.9775L11.9389 27.8856H11.9082ZM12.6755 25.4647C12.5834 24.4841 12.3993 23.2584 13.7497 20.6231L13.9339 20.715C12.6755 23.3197 12.7676 24.4841 12.9517 25.4341H12.6448L12.6755 25.4647Z" fill="#292C2F"/>
<path d="M15.1922 20.4699C14.0259 22.4923 13.7497 24.0552 13.6576 25.3115L13.3814 25.2196C13.5656 24.0551 13.8725 22.431 15.0388 20.3779L15.2229 20.4699H15.1922ZM13.6576 25.3115C13.4735 26.5679 13.2587 27.5179 12.1231 28.0082L12.031 27.8243C13.1052 27.334 13.1973 26.476 13.3814 25.2196L13.6576 25.3115Z" fill="#292C2F"/>
<path fillRule="evenodd" clipRule="evenodd" d="M16.7574 16.7005L16.3584 11.675C20.9007 8.39613 18.1078 6.46559 21.3918 5.39307C19.2434 7.72197 22.067 7.72197 19.5503 12.6249" fill="#EAC126"/>
<path d="M16.5426 16.7003L16.2664 11.7667L16.4505 11.6748L16.8495 16.7003H16.5426ZM16.2664 11.7667V11.6748H16.3584L16.2664 11.7667ZM16.2664 11.6748C18.691 9.92809 19.0593 8.57977 19.2434 7.53789L19.5503 7.62982C19.2434 8.70234 18.8751 10.0507 16.4505 11.7973L16.2664 11.7054V11.6748ZM19.2434 7.53789C19.5503 6.5573 19.7345 5.79121 21.269 5.30091L21.3611 5.48478C19.9186 5.97507 19.7038 6.64923 19.5196 7.59918L19.2127 7.50725L19.2434 7.53789ZM21.269 5.30091L21.7601 5.20898L21.4532 5.48478L21.3611 5.39285L21.269 5.30091ZM21.4532 5.48478C20.4711 6.5573 20.4711 7.01695 20.6859 7.81368L20.379 7.90561C20.2869 7.04759 20.1948 6.46537 21.2383 5.30091L21.4225 5.48478H21.4532ZM20.6859 7.81368C20.778 8.76363 20.9621 10.02 19.6117 12.7473L19.4276 12.6554C20.6859 10.0507 20.5938 8.79428 20.4097 7.93626L20.7166 7.84433L20.6859 7.81368Z" fill="#292C2F"/>
<path d="M18.2 12.8392C19.3662 10.8167 19.6424 9.25391 19.8573 8.1201H20.0414C19.8573 9.37649 19.5504 10.9393 18.3841 12.9618L18.2 12.8698V12.8392ZM19.8573 8.1201C20.0414 6.77179 20.1335 5.91377 21.2998 5.33154L21.3918 5.5154C20.3177 6.0057 20.2256 6.86372 20.0414 8.1201H19.8573Z" fill="#292C2F"/>
<path fillRule="evenodd" clipRule="evenodd" d="M16.7575 16.7004L11.7241 16.9762C8.44012 12.441 6.50657 15.2295 5.43237 11.9507C7.76491 14.1877 7.64215 11.3685 12.6755 13.7893" fill="#EAC126"/>
<path d="M16.7573 16.7923L11.7239 17.1906V16.9148L16.6652 16.6084L16.7573 16.7923ZM11.7239 17.1906L11.6319 17.0987L11.7239 17.0068V17.1906ZM11.6319 17.0987C9.97454 14.6779 8.62412 14.4021 7.58062 14.0956V13.9118C8.74689 14.2182 10.0973 14.494 11.8467 17.0068L11.6626 17.0987H11.6319ZM7.58062 14.0956C6.5985 13.8199 5.83121 13.6053 5.34015 12.0732L5.5243 11.9812C6.01536 13.4215 6.69057 13.636 7.54993 13.9118V14.0956H7.58062ZM5.34015 12.0732L5.15601 11.6748L5.5243 11.9506H5.43223L5.34015 12.0425V12.0732ZM5.5243 11.9812C6.5985 12.9618 7.05887 12.8393 7.85684 12.7473L7.94891 12.9312C7.08956 13.0231 6.50642 13.1151 5.34015 12.0732L5.5243 11.9812ZM7.85684 12.7473C8.80827 12.5635 10.0973 12.349 12.7981 13.7279L12.614 13.9118C10.0052 12.6554 8.83896 12.8393 7.97961 12.9618L7.88753 12.778L7.85684 12.7473Z" fill="#292C2F"/>
<path d="M12.8901 15.2603C10.8645 14.0039 9.29927 13.8201 8.133 13.6056V13.2991C9.39134 13.483 10.9259 13.7894 12.9822 15.0458L12.8901 15.2297V15.2603ZM8.133 13.6056C6.78258 13.4217 5.92322 13.2072 5.34009 12.0734L5.52424 11.9814C6.0153 13.054 6.87465 13.2378 8.133 13.3298V13.6362V13.6056Z" fill="#292C2F"/>
<path fillRule="evenodd" clipRule="evenodd" d="M16.7573 16.7006L21.6986 16.3022C24.9826 20.8375 26.9161 18.1409 27.9903 21.3278C25.6578 19.1827 25.7499 22.0019 20.7472 19.4892" fill="#EAC126"/>
<path d="M16.6345 16.6084L21.6679 16.2407V16.4246L16.7266 16.8229L16.6345 16.6391V16.6084ZM21.6679 16.2407H21.76L21.6679 16.3327V16.2407ZM21.76 16.2407C23.4173 18.6616 24.7677 19.0293 25.8112 19.3357V19.5196C24.6449 19.2438 23.2945 18.8454 21.5451 16.4246L21.7293 16.2407H21.76ZM25.8112 19.3357C26.7933 19.5196 27.5606 19.7034 28.0517 21.3582H27.8675C27.3765 19.9179 26.7013 19.7034 25.8419 19.5196V19.3357H25.8112ZM28.0517 21.3582L28.2358 21.7566L27.8675 21.4501L27.9596 21.3582H28.0517ZM27.8675 21.4501C26.8854 20.4695 26.333 20.5615 25.535 20.684L25.4429 20.5002C26.3023 20.3163 26.8854 20.2244 28.0517 21.2663L27.8675 21.4501ZM25.535 20.684C24.5836 20.776 23.2945 20.9598 20.6858 19.6115L20.7778 19.4276C23.3866 20.776 24.5529 20.5921 25.4122 20.5002L25.5043 20.684H25.535Z" fill="#292C2F"/>
<path d="M20.5325 18.1714C22.5581 19.3358 24.1234 19.6116 25.3817 19.8261L25.2897 20.01C24.1234 19.8261 22.4967 19.6116 20.4404 18.3552L20.5325 18.1714ZM25.3817 19.8261C26.6401 20.01 27.4994 20.1019 28.0826 21.3583L27.8984 21.4502C27.4074 20.2858 26.548 20.1939 25.2897 20.01L25.3817 19.8261Z" fill="#292C2F"/>
<path fillRule="evenodd" clipRule="evenodd" d="M16.7575 16.7007L13.4735 20.4698C7.85699 19.4892 8.44012 22.8907 5.43237 21.3279C8.62427 21.2359 6.59864 19.3054 11.8162 17.4668" fill="#EAC126"/>
<path d="M16.7573 16.7003L13.5654 20.4695L13.3813 20.3776L16.6652 16.6084L16.7573 16.7003ZM13.5654 20.4695L13.4733 20.5614V20.4695H13.5654ZM13.4733 20.5614C10.5577 20.0711 9.29933 20.7453 8.43997 21.3275L8.25582 21.1436C9.20725 20.5614 10.4963 19.7953 13.4733 20.255V20.5308V20.5614ZM8.43997 21.3275C7.58061 21.8178 6.87471 22.1855 5.34015 21.4194L5.43222 21.2356C6.87471 21.9097 7.45785 21.6339 8.22513 21.1436L8.40928 21.3275H8.43997ZM5.34015 21.4194L4.94116 21.2356H5.43222V21.3275L5.34015 21.4194ZM5.43222 21.2356C6.87471 21.1436 7.18163 20.7453 7.642 20.0711L7.82614 20.255C7.33508 20.9291 6.9361 21.4194 5.40153 21.4194V21.2356H5.43222ZM7.642 20.0711C8.22513 19.305 8.99241 18.3244 11.816 17.3745L11.9081 17.5583C9.11518 18.5389 8.3172 19.4889 7.85684 20.255L7.67269 20.0711H7.642Z" fill="#292C2F"/>
<path d="M12.9824 18.3551C10.6499 18.9374 9.39155 19.8873 8.44012 20.5615L8.34805 20.3776C9.33017 19.7034 10.5885 18.7229 12.8904 18.1406L12.9824 18.3245V18.3551ZM8.44012 20.5615C7.36592 21.3276 6.69072 21.9098 5.43237 21.4501V21.2663C6.59864 21.6646 7.27385 21.1743 8.34805 20.4082L8.44012 20.5921V20.5615Z" fill="#292C2F"/>
<path fillRule="evenodd" clipRule="evenodd" d="M16.7573 16.7006L19.9492 12.9315C25.5657 13.7895 24.9826 10.4187 27.9903 11.9509C24.7984 12.0428 26.8241 14.0653 21.6065 15.812" fill="#EAC126"/>
<path d="M16.6345 16.6087L19.8264 12.8395L20.0106 13.0234L16.7266 16.7006L16.6345 16.6087ZM19.8264 12.8395H19.9185V12.9314L19.8264 12.8395ZM19.9185 12.8395C22.8342 13.3298 24.0925 12.5637 24.9519 12.0734L25.136 12.2573C24.1846 12.8395 22.9262 13.5137 19.9185 13.0234V12.8395ZM24.9519 12.0734C25.934 11.4912 26.5171 11.1848 28.0517 11.8896L27.9596 12.0734C26.5171 11.3993 25.934 11.767 25.136 12.2573L24.9519 12.0734ZM28.0517 11.8896L28.4507 12.0734L27.9596 12.1654V11.9815L28.0517 11.8896ZM27.9596 12.1654C26.5171 12.1654 26.2102 12.6556 25.7191 13.2379L25.535 13.1459C26.1181 12.4718 26.425 11.9815 27.9596 11.8896V12.1654ZM25.7191 13.2379C25.136 14.004 24.3687 14.9846 21.5451 15.9345L21.4531 15.7506C24.246 14.862 25.0439 13.8201 25.5043 13.1459L25.6885 13.2379H25.7191Z" fill="#292C2F"/>
<path d="M20.4097 14.9843C22.7422 14.494 24.0005 13.5441 24.952 12.7474L25.0441 12.9312C24.0619 13.6973 22.8036 14.6779 20.5017 15.2601L20.4097 14.9843ZM24.952 12.7474C26.0262 11.9813 26.7935 11.491 27.9597 11.8893V12.0732C26.7935 11.6748 26.1182 12.2571 25.0747 12.9312L24.9827 12.7474H24.952Z" fill="#292C2F"/>
<path fillRule="evenodd" clipRule="evenodd" d="M16.7572 16.7005L12.9822 13.4217C13.8416 7.8139 10.4655 8.39613 12.0001 5.39307C12.0922 8.57999 14.1178 6.55752 15.8672 11.7669" fill="#EAC126"/>
<path d="M16.6345 16.7924L12.8595 13.5135L13.0436 13.3297L16.7266 16.6085L16.6345 16.7924ZM12.8595 13.5135V13.4216H12.9516L12.8595 13.5135ZM12.8595 13.4216C13.2278 10.5105 12.5526 9.25408 12.0922 8.39606L12.2764 8.30413C12.7674 9.25408 13.5347 10.4185 13.0436 13.4216H12.8595ZM12.0922 8.39606C11.5091 7.53804 11.1101 6.86388 11.9081 5.39299L12.0922 5.48493C11.417 6.83324 11.816 7.41547 12.2764 8.30413L12.0922 8.39606ZM11.9081 5.39299L12.0922 4.99463V5.39299H11.9081ZM12.0922 5.39299C12.1843 6.83324 12.5833 7.13967 13.2585 7.59933L13.1664 7.78319C12.4912 7.29289 12.0001 6.92517 11.9081 5.36235H12.0922V5.39299ZM13.2585 7.59933C14.0258 8.18155 15.0079 8.94764 15.9593 11.7668L15.7752 11.8588C14.793 9.03957 13.8416 8.36542 13.1664 7.81383L13.2585 7.62997V7.59933Z" fill="#292C2F"/>
<path d="M15.0079 12.9314C14.5169 10.6025 13.5654 9.34608 12.7675 8.39613L12.9516 8.3042C13.7189 9.25415 14.701 10.5105 15.2842 12.9314H15.0079ZM12.7675 8.39613C12.0002 7.32361 11.5091 6.64945 11.9081 5.39307H12.0923C11.6933 6.55752 12.1843 7.23168 12.9516 8.3042L12.7675 8.39613Z" fill="#292C2F"/>
<path fillRule="evenodd" clipRule="evenodd" d="M16.7573 16.7007L20.4403 19.8876C19.5809 25.4954 22.957 24.9131 21.4224 27.9162C21.3303 24.8212 19.274 26.8437 17.5553 21.5424" fill="#EAC126"/>
<path d="M16.7574 16.6084L20.5324 19.7953L20.4403 19.9792L16.6653 16.7923L16.7574 16.6084ZM20.5324 19.7953L20.6245 19.8873L20.5324 19.9792L20.4403 19.8873L20.5324 19.7953ZM20.5324 19.9792C20.1641 22.8903 20.8086 24.0241 21.2997 25.0047L21.1155 25.0967C20.6245 24.1161 19.8572 22.8903 20.3482 19.8873L20.5324 19.9792ZM21.2997 25.0047C21.8828 25.8627 22.2818 26.5675 21.4838 28.0078L21.2997 27.9159C21.9749 26.5675 21.5759 25.8934 21.1155 25.1273L21.2997 25.0354V25.0047ZM21.4838 28.0078L21.2997 28.4062V27.9159H21.3917L21.4838 28.0078ZM21.2997 27.9159C21.2076 26.5675 20.8086 26.1692 20.1334 25.7095L20.2255 25.6176C20.9007 26.1079 21.3917 26.3837 21.4838 27.9465H21.2997V27.9159ZM20.1334 25.7095C19.3661 25.2192 18.384 24.4531 17.4326 21.542H17.6167C18.5988 24.2386 19.5503 25.0047 20.2255 25.5869L20.1334 25.6789V25.7095Z" fill="#292C2F"/>
<path d="M18.3841 20.3779C18.9672 22.7068 19.8266 23.9632 20.5939 24.9132L20.4097 25.097C19.6424 24.0245 18.6603 22.7681 18.2 20.4699L18.3841 20.3779ZM20.5939 24.9132C21.3612 25.9857 21.8522 26.7518 21.4532 28.0082L21.2691 27.9162C21.6681 26.7518 21.177 26.0776 20.4097 25.1277L20.5939 24.9438V24.9132Z" fill="#292C2F"/>
<path fillRule="evenodd" clipRule="evenodd" d="M16.7573 16.7007H18.875L16.7573 28.8968L14.5168 16.7007H16.7573V28.8968V16.7007Z" fill="#EAC126"/>
<path d="M16.7574 16.6088H18.8751V16.7926H16.7574V16.6088ZM18.8751 16.6088H19.0592V16.7007H18.8751V16.6088ZM19.0592 16.7007L16.8494 28.8662H16.5425L18.7523 16.7007H19.0285H19.0592ZM16.8494 28.8662L16.7574 29.4484L16.5732 28.8662H16.8801H16.8494ZM16.5425 28.8662L14.3328 16.7007H14.609L16.8494 28.8662H16.5425ZM14.3328 16.5781H14.5169V16.6701H14.3328V16.5781ZM14.5169 16.5781H16.7574V16.762H14.5169V16.5781ZM16.7574 16.5781H16.8494V16.6701H16.7574V16.5781ZM16.8494 28.8662H16.5425V16.7007H16.8494V28.8662Z" fill="#292C2F"/>
<path fillRule="evenodd" clipRule="evenodd" d="M16.7573 16.7003H14.5168L16.7573 4.44287L18.875 16.7003H16.7573V4.44287V16.7003Z" fill="#EAC126"/>
<path d="M16.7574 16.7924H14.5169V16.6085H16.7574V16.7924ZM14.5169 16.7924H14.3328V16.7005H14.5169V16.7924ZM14.3328 16.7005L16.5425 4.44307L16.8494 4.535L14.609 16.7005H14.3328ZM16.5425 4.44307L16.7267 3.86084L16.8188 4.44307H16.5118H16.5425ZM16.8494 4.44307L19.0592 16.7005H18.783L16.5732 4.535L16.8801 4.44307H16.8494ZM19.0592 16.823H18.8751V16.7311H19.0592V16.823ZM18.8751 16.823H16.7574V16.6392H18.8751V16.823ZM16.7574 16.823H16.5732V16.7311H16.7574V16.823ZM16.5732 4.44307H16.8801V16.7005H16.5732V4.44307Z" fill="#292C2F"/>
<path fillRule="evenodd" clipRule="evenodd" d="M16.7574 16.7005V18.9374L4.4502 16.7005L16.7574 14.4941V16.7005H4.4502H16.7574Z" fill="#EAC126"/>
<path d="M16.8494 18.9373H16.5425V16.731H16.8494V18.9373ZM16.8494 18.9373V19.0293H16.6653L16.7574 18.9373H16.8494ZM16.6653 19.0293L4.48084 16.8229L4.57291 16.6391L16.7574 18.8761L16.6653 19.0599V19.0293ZM4.48084 16.8229L3.89771 16.731L4.48084 16.6391V16.8229ZM4.48084 16.6391L16.6653 14.4328L16.7574 14.6166L4.57291 16.8229L4.48084 16.6391ZM16.6653 14.4328L16.8494 14.3408V14.5247H16.7574L16.6653 14.4328ZM16.8494 16.7617H16.5425V14.5247H16.8494V16.7617ZM16.8494 16.8536H16.7574V16.7617H16.8494V16.8536ZM16.7574 16.8536H4.45015V16.6697H16.7267V16.8536H16.7574Z" fill="#292C2F"/>
<path fillRule="evenodd" clipRule="evenodd" d="M16.7573 16.7005V14.4941L28.9418 16.7005L16.7573 18.9374V16.7005H28.9418H16.7573Z" fill="#EAC126"/>
<path d="M16.5425 14.4939H16.8494V16.7309H16.5425V14.4939ZM16.5425 14.4939V14.3101L16.7266 14.402V14.4939H16.5425ZM16.7266 14.402L28.9111 16.6083L28.819 16.7922L16.6346 14.5859L16.7266 14.402ZM28.9111 16.6083L29.4942 16.7003L28.9111 16.7922V16.6083ZM28.9111 16.7922L16.7266 18.9985L16.6346 18.8147L28.819 16.5777L28.9111 16.7615V16.7922ZM16.7266 18.9985H16.5425V18.9066H16.7266V18.9985ZM16.5425 16.7003H16.8494V18.9066H16.5425V16.7003ZM16.5425 16.6083H16.7266V16.7003H16.5425V16.6083ZM16.7266 16.6083H28.9111V16.7922H16.7266V16.6083Z" fill="#292C2F"/>
<path fillRule="evenodd" clipRule="evenodd" d="M16.7573 16.7003L18.2919 18.2631L8.04102 25.3111L15.1 15.0762L16.7573 16.7003L8.04102 25.3111L16.7573 16.7003Z" fill="#EAC126"/>
<path d="M16.7575 16.6085L18.4148 18.1713L18.2307 18.3552L16.6961 16.823L16.7882 16.6391L16.7575 16.6085ZM18.4148 18.1713L18.5069 18.2632L18.3227 18.3552V18.2632L18.4148 18.1713ZM18.3227 18.3552L8.16391 25.4032L8.07184 25.2193L18.2307 18.1713L18.3227 18.3552ZM8.16391 25.4032L7.67285 25.8015L7.94907 25.2193L8.04115 25.3112L8.13322 25.4032H8.16391ZM7.97976 25.2193L15.0388 15.0763L15.2229 15.1682L8.16391 25.4032L7.97976 25.2193ZM15.0388 15.0763L15.1308 14.9844L15.2229 15.0763H15.0388ZM15.2229 15.0763L16.7575 16.6085L16.6654 16.7923L15.0081 15.1376L15.1922 15.0457L15.2229 15.0763ZM16.7575 16.6085L16.8495 16.7004L16.7575 16.7923V16.6085ZM16.7575 16.7923L8.13322 25.4032L8.04115 25.2193L16.6654 16.6085L16.7575 16.7923Z" fill="#292C2F"/>
<path fillRule="evenodd" clipRule="evenodd" d="M16.7574 16.7004L15.1001 15.0763L25.351 8.02832L18.292 18.2633L16.7574 16.7004L25.351 8.02832L16.7574 16.7004Z" fill="#EAC126"/>
<path d="M16.6346 16.7922L14.9773 15.1374L15.1614 15.0455L16.696 16.5777L16.6039 16.7615L16.6346 16.7922ZM14.9773 15.1374V15.0455H15.0694L14.9773 15.1374ZM15.0694 15.0455L25.2282 7.90556L25.3203 8.08942L15.1614 15.1374L15.0694 15.0455ZM25.2282 7.90556L25.7192 7.59912L25.443 8.08942L25.351 7.99749L25.2589 7.90556H25.2282ZM25.4123 8.08942L18.3533 18.3244L18.1692 18.1405L25.2282 7.99749L25.4123 8.08942ZM18.3533 18.3244L18.2613 18.4163L18.1692 18.3244L18.2613 18.2324L18.3533 18.3244ZM18.1692 18.3244L16.6346 16.7922L16.7267 16.6083L18.384 18.1711L18.1999 18.355L18.1692 18.3244ZM16.6346 16.7922L16.5426 16.7002L16.6346 16.6083L16.7267 16.7002L16.6346 16.7922ZM16.6346 16.6083L25.2589 8.02813L25.443 8.12006L16.7267 16.8228L16.6346 16.639V16.6083Z" fill="#292C2F"/>
<path fillRule="evenodd" clipRule="evenodd" d="M16.7573 16.7004L15.1 18.2633L8.04102 8.02832L18.2919 15.0763L16.7573 16.7004L8.04102 8.02832L16.7573 16.7004Z" fill="#EAC126"/>
<path d="M16.7573 16.7922L15.2227 18.3244L15.0386 18.1405L16.6959 16.5777L16.788 16.7615L16.7573 16.7922ZM15.2227 18.3244L15.1307 18.4163L15.0386 18.3244L15.1307 18.2324L15.2227 18.3244ZM15.0386 18.3244L7.97959 8.08942L8.16374 7.99749L15.2227 18.1405L15.0386 18.3244ZM7.97959 8.08942L7.70337 7.59912L8.19443 7.90556L8.10236 7.99749L8.01028 8.08942H7.97959ZM8.16374 7.90556L18.3226 15.0455L18.2305 15.1374L8.07167 8.08942L8.16374 7.90556ZM18.3226 15.0455H18.5067L18.4146 15.1374L18.3226 15.0455ZM18.4146 15.1374L16.7573 16.7922L16.6652 16.6083L18.1998 15.0761L18.3839 15.1681L18.4146 15.1374ZM16.7573 16.7922H16.6652L16.7573 16.7002V16.7922ZM16.6652 16.7922L8.04097 8.08942L8.13305 7.99749L16.7573 16.5777L16.6652 16.7615V16.7922Z" fill="#292C2F"/>
<path fillRule="evenodd" clipRule="evenodd" d="M16.7574 16.7003L18.292 15.0762L25.351 25.3111L15.1001 18.2631L16.7574 16.7003L25.351 25.3111L16.7574 16.7003Z" fill="#EAC126"/>
<path d="M16.6346 16.6085L18.1692 15.0763L18.3533 15.1682L16.696 16.823L16.6039 16.6391L16.6346 16.6085ZM18.1692 15.0763L18.2613 14.9844L18.3533 15.0763H18.1692ZM18.3533 15.0763L25.4123 25.2193L25.2282 25.4032L18.1692 15.1682L18.3533 15.0763ZM25.4123 25.2193L25.6886 25.8015L25.1975 25.4032L25.2896 25.3112L25.3816 25.2193H25.4123ZM25.2282 25.4032L15.0694 18.3552L15.1614 18.1713L25.3203 25.2193L25.2282 25.4032ZM15.0694 18.3552L14.9773 18.2632V18.1713L15.0694 18.2632V18.3552ZM14.9773 18.1713L16.6346 16.6085L16.7267 16.7923L15.1921 18.3245L15.008 18.1407L14.9773 18.1713ZM16.6346 16.6085L16.7267 16.5166V16.7004L16.6346 16.6085ZM16.7267 16.6085L25.443 25.2193L25.2589 25.4032L16.6346 16.7923L16.7267 16.6085Z" fill="#292C2F"/>
<path fillRule="evenodd" clipRule="evenodd" d="M20.8085 16.7007C20.8085 14.3718 18.967 12.6558 16.7573 12.6558C14.5475 12.6558 12.5833 14.4024 12.5833 16.7007C12.5833 18.999 14.4247 20.7456 16.7573 20.7456C19.0898 20.7456 20.8085 18.907 20.8085 16.7007Z" fill="#EAC126"/>
<path d="M20.6244 16.7004C20.6244 15.5359 20.2254 14.586 19.4581 13.8812L19.6423 13.6973C20.4096 14.4634 20.9006 15.5359 20.9006 16.7004H20.6244ZM19.4581 13.8812C18.7829 13.1151 17.8315 12.7167 16.7573 12.7167V12.4409C17.8315 12.4409 18.875 12.9312 19.673 13.6973L19.4888 13.8812H19.4581ZM16.7573 12.7167C15.591 12.7167 14.6396 13.1151 13.9644 13.8812L13.7802 13.6973C14.5475 12.9312 15.6217 12.4409 16.788 12.4409V12.7167H16.7573ZM13.9644 13.8812C13.1971 14.5553 12.7981 15.5359 12.7981 16.7004H12.4912C12.4912 15.5359 12.9823 14.4634 13.7496 13.6973L13.9337 13.8812H13.9644ZM12.7981 16.7004C12.7981 17.7729 13.1664 18.7228 13.9644 19.4889L13.7802 19.5809C13.013 18.8148 12.5219 17.8342 12.5219 16.6697H12.8288L12.7981 16.7004ZM13.9644 19.4889C14.6396 20.1631 15.591 20.6534 16.7573 20.6534V20.8372C15.591 20.8372 14.5168 20.3469 13.7496 19.5809L13.9337 19.4889H13.9644ZM16.7573 20.6534C17.8315 20.6534 18.7829 20.1631 19.4581 19.4889L19.6423 19.5809C18.875 20.3469 17.8008 20.8372 16.7266 20.8372V20.6534H16.7573ZM19.4581 19.4889C20.2254 18.7228 20.6244 17.7422 20.6244 16.7004H20.9006C20.9006 17.8648 20.4096 18.8148 19.6423 19.6115L19.4581 19.5196V19.4889Z" fill="#292C2F"/>
<path fillRule="evenodd" clipRule="evenodd" d="M19.6424 15.0762C19.4583 15.3826 19.2435 14.8923 18.3841 14.8923C17.4327 14.8923 17.3099 15.3826 17.1258 15.2907C17.0337 15.1987 17.893 14.5246 18.2 14.5246C18.4762 14.4327 19.3662 14.7084 19.6424 15.1068" fill="#292C2F"/>
<path fillRule="evenodd" clipRule="evenodd" d="M18.5989 15.3521C18.8751 15.6278 18.6909 16.1181 18.4147 16.1181C18.1385 16.1181 17.6474 15.6278 17.9237 15.3521" fill="#292C2F"/>
<path fillRule="evenodd" clipRule="evenodd" d="M17.4326 15.7507C17.4326 15.2604 17.8316 15.1685 18.384 15.1685C18.9365 15.1685 19.2434 15.6588 19.4582 15.7507C19.2741 15.7507 18.9672 15.3523 18.384 15.3523C17.8009 15.3523 17.8009 15.3523 17.4326 15.7507Z" fill="#292C2F"/>
<path fillRule="evenodd" clipRule="evenodd" d="M17.5246 15.8425C17.6167 15.6586 17.8008 16.0263 18.2919 16.0263C18.6602 16.0263 18.875 15.9344 19.1513 15.7505C19.3354 15.5667 18.7523 16.2408 18.384 16.2408C18.0157 16.2408 17.4325 15.965 17.5246 15.8731" fill="#292C2F"/>
<path fillRule="evenodd" clipRule="evenodd" d="M18.783 16.0262C19.274 15.8423 18.9671 15.444 18.783 15.3521C18.875 15.444 19.1819 15.8423 18.783 16.0262Z" fill="#292C2F"/>
<path fillRule="evenodd" clipRule="evenodd" d="M16.7574 18.2633C16.9415 18.2633 17.0643 18.1714 17.3405 18.1714C17.6167 18.1714 18.3226 18.6617 18.6909 18.4778C17.8316 18.8455 18.1999 18.5698 16.7574 18.5698H16.5732" fill="#292C2F"/>
<path fillRule="evenodd" clipRule="evenodd" d="M18.8751 18.8455C18.6909 18.5391 18.783 18.6617 18.384 18.1714C18.783 18.4778 18.783 18.5698 18.8751 18.8455Z" fill="#292C2F"/>
<path fillRule="evenodd" clipRule="evenodd" d="M16.7574 19.1214C17.6167 19.1214 17.5247 18.9376 18.6909 18.4473C17.8316 18.5392 17.6167 18.815 16.7574 18.815H16.5732" fill="#292C2F"/>
<path fillRule="evenodd" clipRule="evenodd" d="M16.7573 17.7731C16.9414 17.7731 17.0642 17.5892 17.3404 17.5892C17.6166 17.5892 18.0156 17.6811 18.1997 17.8956C18.2918 17.8956 18.1077 17.5892 17.8314 17.5892C17.5552 17.4973 17.6473 17.007 17.3404 16.915C17.3404 17.0989 17.4325 17.0989 17.4325 17.3134C17.4325 17.5279 17.1562 17.4973 17.0335 17.3134C17.1256 17.5892 16.8493 17.5892 16.7266 17.5892" fill="#292C2F"/>
<path fillRule="evenodd" clipRule="evenodd" d="M13.7495 15.0762C13.9337 15.3826 14.1178 14.8923 15.0079 14.8923C15.9593 14.8923 16.0821 15.3826 16.2662 15.2907C16.3583 15.1987 15.4989 14.5246 15.192 14.5246C14.9158 14.4327 14.0257 14.7084 13.7495 15.1068" fill="#292C2F"/>
<path fillRule="evenodd" clipRule="evenodd" d="M14.8239 15.3521C14.5477 15.6278 14.7318 16.1181 15.008 16.1181C15.2843 16.1181 15.7753 15.6278 15.4991 15.3521" fill="#292C2F"/>
<path fillRule="evenodd" clipRule="evenodd" d="M15.9595 15.7507C15.9595 15.2604 15.5605 15.1685 15.008 15.1685C14.4556 15.1685 14.118 15.6588 13.9338 15.7507C14.2101 15.7507 14.4249 15.3523 15.008 15.3523C15.5912 15.3523 15.5912 15.3523 15.9595 15.7507Z" fill="#292C2F"/>
<path fillRule="evenodd" clipRule="evenodd" d="M15.8673 15.8425C15.7752 15.6586 15.5604 16.0263 15.1 16.0263C14.701 16.0263 14.5169 15.9344 14.2406 15.7505C14.0565 15.5667 14.6396 16.2408 15.0079 16.2408C15.499 16.2408 15.9594 15.965 15.8673 15.8731" fill="#292C2F"/>
<path fillRule="evenodd" clipRule="evenodd" d="M14.6089 16.0262C14.1179 15.8423 14.4248 15.444 14.6089 15.3521C14.5168 15.444 14.2099 15.8423 14.6089 16.0262Z" fill="#292C2F"/>
<path fillRule="evenodd" clipRule="evenodd" d="M16.7573 18.2633C16.4811 18.2633 16.3583 18.1714 16.0821 18.1714C15.8059 18.1714 15.1 18.6617 14.7317 18.4778C15.591 18.8455 15.2227 18.5698 16.7573 18.5698H16.8494" fill="#292C2F"/>
<path fillRule="evenodd" clipRule="evenodd" d="M14.5168 18.8455C14.701 18.5391 14.701 18.6617 15.0079 18.1714C14.701 18.4778 14.6089 18.5698 14.5168 18.8455Z" fill="#292C2F"/>
<path fillRule="evenodd" clipRule="evenodd" d="M16.7573 19.1214C15.7752 19.1214 15.99 18.9376 14.7317 18.4473C15.591 18.5392 15.8059 18.815 16.7573 18.815H16.8494" fill="#292C2F"/>
<path fillRule="evenodd" clipRule="evenodd" d="M16.7572 17.7731C16.481 17.7731 16.3583 17.5892 16.082 17.5892C15.8058 17.5892 15.4068 17.6811 15.2227 17.8956C15.1306 17.8956 15.3148 17.5892 15.591 17.5892C15.8979 17.4973 15.7751 17.007 16.082 16.915C16.082 17.0989 15.99 17.0989 15.99 17.3134C15.99 17.5279 16.2969 17.4973 16.389 17.3134C16.2969 17.5892 16.5731 17.5892 16.7879 17.5892" fill="#292C2F"/>
<path fillRule="evenodd" clipRule="evenodd" d="M16.7575 19.5195C16.5733 19.5195 16.0823 19.6115 16.7575 19.6115C17.3406 19.6115 16.8495 19.5195 16.7575 19.5195Z" fill="#292C2F"/>
</g>
</g>
</g>
<defs>
<clipPath id="clip0_211_2878">
<rect width="103" height="60" fill="white"/>
</clipPath>
</defs>
</svg>
