<svg width="103" height="60" viewBox="0 0 103 60" fill="none" xmlns="http://www.w3.org/2000/svg">
<g clip-path="url(#clip0_211_2745)">
<mask id="mask0_211_2745" style="mask-type:luminance" maskUnits="userSpaceOnUse" x="0" y="0" width="103" height="60">
<path d="M103 0H0V60H103V0Z" fill="white"/>
</mask>
<g mask="url(#mask0_211_2745)">
<path d="M103 20.0103H0V40.0205H103V20.0103Z" fill="white"/>
<path d="M103 0H0V20.0102H103V0Z" fill="#80A7D8"/>
<path d="M103 39.9897H0V59.9693H103V39.9897Z" fill="#80A7D8"/>
<mask id="mask1_211_2745" style="mask-type:luminance" maskUnits="userSpaceOnUse" x="0" y="0" width="103" height="60">
<path d="M103 0H0V60H103V0Z" fill="white"/>
</mask>
<g mask="url(#mask1_211_2745)">
<path d="M51.101 30L51.4079 38.1818C51.4079 38.1818 51.4079 38.335 51.5 38.335C51.5921 38.335 51.5921 38.1818 51.5921 38.1818L51.899 30H51.0703H51.101Z" fill="#F1BD51"/>
<path d="M51.5 38.3349C51.5 38.3349 51.3772 38.2123 51.3772 38.1511L51.0703 29.9692H51.1317L51.4386 38.1511C51.4386 38.1511 51.4386 38.2736 51.5307 38.2736C51.5921 38.2736 51.5921 38.1511 51.5921 38.1511L51.899 29.9692L51.6534 38.1511C51.6534 38.1511 51.6228 38.3349 51.5307 38.3349H51.5Z" fill="#7A361D"/>
<path d="M51.2852 30L51.5 35.6078L51.7148 30H51.2852Z" fill="#7A361D"/>
<path d="M50.7328 32.6353C50.2724 33.6771 50.6407 34.5045 50.211 35.3932C49.72 36.2818 50.0269 37.0173 49.9962 37.4463C49.9655 37.8447 49.6279 37.9672 49.72 38.0592C49.812 38.1511 50.1496 37.9672 50.3031 37.4156C50.4259 36.8641 50.1189 36.5576 50.6714 35.4545C51.2545 34.3513 50.7942 33.861 51.3773 32.8804L50.7635 32.6353H50.7328Z" fill="#F1BD51"/>
<path d="M49.7815 38.1204H49.6587C49.6587 38.1204 49.6587 37.9672 49.7201 37.9059C49.8122 37.814 49.9349 37.6914 49.9349 37.4463C49.9349 37.3237 49.9349 37.2011 49.9349 37.0479C49.8735 36.6189 49.8122 36.0673 50.1805 35.3932C50.3953 34.9335 50.426 34.5045 50.426 34.0755C50.426 33.6158 50.4567 33.1562 50.7022 32.6353H50.7329C50.4874 33.1562 50.4874 33.6465 50.4567 34.0755C50.4567 34.5352 50.426 34.9642 50.1805 35.4238C49.8428 36.0673 49.9042 36.6496 49.9349 37.0786C49.9349 37.2318 49.9349 37.3544 49.9349 37.4769C49.9349 37.7221 49.7815 37.8753 49.6894 37.9672C49.628 38.0285 49.5973 38.0592 49.628 38.0898C49.8428 38.0898 50.0577 37.8753 50.1805 37.4463C50.2111 37.2624 50.2111 37.1092 50.1805 36.9253C50.1805 36.5883 50.1804 36.1899 50.5181 35.4545C50.7943 34.9029 50.825 34.5045 50.8557 34.1368C50.8557 33.7384 50.917 33.3707 51.1933 32.8804C50.9477 33.4013 50.917 33.7691 50.8863 34.1368C50.8863 34.5045 50.825 34.9335 50.5487 35.4851C50.1804 36.2205 50.1805 36.5883 50.2111 36.9253C50.2111 37.1092 50.2111 37.2624 50.2111 37.4463C50.1191 37.8447 49.8735 38.0898 49.7201 38.1204H49.7815Z" fill="#7A361D"/>
<path d="M50.8556 32.8804C50.4873 33.9223 50.8556 34.5964 50.3645 35.4544C50.9169 34.8416 50.5487 34.0142 51.009 32.9723L50.8249 32.8804H50.8556Z" fill="#7A361D"/>
<path d="M51.899 30.0001L51.5921 21.8183C51.5921 21.8183 51.5921 21.665 51.5001 21.665C51.408 21.665 51.408 21.8183 51.408 21.8183L51.1011 30.0001H51.9297H51.899Z" fill="#F1BD51"/>
<path d="M51.8991 30L51.5922 21.8181C51.5922 21.8181 51.5922 21.6956 51.5308 21.6956C51.4388 21.6956 51.4388 21.8181 51.4388 21.8181L51.1318 30L51.3774 21.8181C51.3774 21.8181 51.3774 21.6343 51.5001 21.6343C51.5922 21.6343 51.6229 21.7569 51.6229 21.8181L51.9298 30H51.8684H51.8991Z" fill="#7A361D"/>
<path d="M51.7148 29.9999L51.5 24.3921L51.2852 29.9999H51.7148Z" fill="#7A361D"/>
<path d="M52.2674 27.3342C52.7278 26.3229 52.3288 25.4649 52.7891 24.5763C53.2802 23.6876 52.9733 22.9215 53.004 22.5231C53.0347 22.1248 53.3723 22.0022 53.2802 21.9103C53.1881 21.8183 52.8505 22.0022 52.6971 22.5538C52.5743 23.1054 52.8812 23.4118 52.3288 24.515C51.7763 25.6181 52.206 26.1084 51.6536 27.089L52.2674 27.3342Z" fill="#F1BD51"/>
<path d="M52.2981 27.3647H52.2674C52.4823 26.8438 52.513 26.3841 52.5436 25.9245C52.5436 25.4648 52.5743 25.0358 52.8199 24.5761C53.1575 23.9326 53.0961 23.381 53.0347 22.952C53.0347 22.7988 53.0347 22.6456 53.0347 22.5537C53.0347 22.3085 53.1882 22.1553 53.2495 22.0634C53.3109 22.0021 53.3416 21.9714 53.3109 21.9408C53.1268 21.9408 52.8813 22.1553 52.7892 22.5843C52.7278 22.7682 52.7585 22.9214 52.7892 23.1053C52.7892 23.4423 52.7892 23.8407 52.4516 24.5761C52.1754 25.1277 52.1447 25.5261 52.114 25.8938C52.114 26.2922 52.0526 26.6599 51.7764 27.1502C52.0219 26.6293 52.0526 26.2615 52.0526 25.8938C52.0526 25.4954 52.114 25.1277 52.3902 24.5455C52.7585 23.8407 52.7585 23.4423 52.7278 23.1053C52.7278 22.952 52.7278 22.7682 52.7585 22.5843C52.8813 22.1553 53.1268 21.9408 53.2495 21.9102H53.3723C53.4337 21.9714 53.3723 22.0327 53.3109 22.094C53.2495 22.1859 53.0961 22.3085 53.0961 22.5537C53.0961 22.6762 53.0961 22.7988 53.0961 22.952C53.1268 23.381 53.2189 23.9633 52.8506 24.6068C52.605 25.0358 52.605 25.4954 52.5743 25.9245C52.5743 26.3841 52.5436 26.8438 52.2981 27.3647Z" fill="#7A361D"/>
<path d="M52.1446 27.0887C52.5129 26.0775 52.1446 25.3727 52.6357 24.5146C52.0832 25.1275 52.4515 25.9243 51.9604 26.9968L52.1446 27.0887Z" fill="#7A361D"/>
<path d="M51.5001 29.5708L43.3056 29.8772C43.3056 29.8772 43.1521 29.8772 43.1521 29.9692C43.1521 30.0917 43.3056 30.0917 43.3056 30.0917L51.5001 30.3982V29.5708Z" fill="#F1BD51"/>
<path d="M51.5001 30.3675L43.3055 30.1224C43.3055 30.1224 43.1213 30.1224 43.1213 29.9998C43.1213 29.9079 43.2441 29.8772 43.3055 29.8772L51.5001 29.5708V29.6321L43.3055 29.9385C43.3055 29.9385 43.1827 29.9385 43.1827 29.9998C43.1827 30.0917 43.3055 30.0917 43.3055 30.0917L51.5001 30.3982V30.3675Z" fill="#7A361D"/>
<path d="M51.5001 29.7856L45.8835 30.0001L51.5001 30.184V29.7856Z" fill="#7A361D"/>
<path d="M48.8607 29.234C47.8479 28.7743 46.9886 29.1727 46.0985 28.6824C45.1778 28.2227 44.4412 28.4985 44.0422 28.4679C43.6432 28.4373 43.5204 28.1002 43.4284 28.1921C43.3363 28.284 43.5204 28.6211 44.0729 28.7743C44.6253 28.9275 44.9322 28.5905 46.0371 29.1421C47.142 29.7243 47.6331 29.2646 48.6459 29.8162L48.8914 29.2033L48.8607 29.234Z" fill="#F1BD51"/>
<path d="M48.6152 29.7852C48.0934 29.5401 47.7251 29.5094 47.3568 29.4788C46.9578 29.4788 46.5588 29.4175 46.0064 29.1417C45.3005 28.774 44.9015 28.774 44.5639 28.8046C44.3798 28.8046 44.2263 28.8046 44.0422 28.774C43.6432 28.6821 43.3976 28.4369 43.3669 28.2837V28.1611C43.4283 28.0998 43.4897 28.1611 43.5511 28.2224C43.6432 28.3143 43.7659 28.4369 44.0115 28.4369C44.1035 28.4369 44.257 28.4369 44.4104 28.4369C44.8401 28.4063 45.4233 28.3143 46.0985 28.6821C46.5588 28.9272 46.9578 28.9272 47.4182 28.9579C47.8786 28.9579 48.3389 28.9885 48.8607 29.2337V29.2949C48.3082 29.0498 47.8786 29.0498 47.4182 29.0191C46.9578 29.0191 46.5281 29.0191 46.0678 28.7434C45.4233 28.4063 44.8401 28.4676 44.4411 28.5289C44.2877 28.5289 44.1342 28.5289 44.0422 28.5289C43.7966 28.5289 43.6432 28.3756 43.5511 28.2837C43.4897 28.2224 43.459 28.2224 43.4283 28.2224C43.4283 28.4369 43.6432 28.6514 44.0728 28.7434C44.257 28.774 44.4104 28.774 44.5946 28.774C44.9322 28.774 45.3312 28.7434 46.0371 29.1111C46.5895 29.3869 46.9885 29.4175 47.3568 29.4482C47.7558 29.4482 48.1241 29.5094 48.6152 29.7852Z" fill="#7A361D"/>
<path d="M48.5844 29.3566C47.5716 28.9889 46.8964 29.3566 46.0063 28.897C46.6202 29.4486 47.4488 29.0808 48.4923 29.5711L48.5844 29.3873V29.3566Z" fill="#7A361D"/>
<path d="M51.5 30.3982L59.6946 30.0917C59.6946 30.0917 59.848 30.0917 59.848 29.9692C59.848 29.8772 59.6946 29.8772 59.6946 29.8772L51.5 29.5708V30.3982Z" fill="#F1BD51"/>
<path d="M51.5 30.4289V30.3677L59.6946 30.0612C59.6946 30.0612 59.8173 30.0612 59.8173 29.9693C59.8173 29.908 59.6946 29.908 59.6946 29.908L51.5 29.6016L59.6946 29.8467C59.6946 29.8467 59.848 29.8467 59.848 29.9693C59.848 30.0919 59.7253 30.0919 59.6946 30.0919L51.5 30.3983V30.4289Z" fill="#7A361D"/>
<path d="M51.5 30.184L57.1165 30.0001L51.5 29.7856V30.184Z" fill="#7A361D"/>
<path d="M54.1394 30.7658C55.1829 31.2255 56.0116 30.8271 56.9323 31.3174C57.8224 31.7771 58.559 31.5013 58.9886 31.5319C59.3876 31.5319 59.5104 31.8996 59.6025 31.8077C59.6945 31.7158 59.5104 31.3787 58.9579 31.2255C58.4055 31.1029 58.0986 31.4093 56.9937 30.8577C55.8888 30.3062 55.3671 30.7352 54.4156 30.1836L54.1701 30.7965L54.1394 30.7658Z" fill="#F1BD51"/>
<path d="M59.5718 31.8383C59.5718 31.8383 59.4797 31.8077 59.449 31.7464C59.3569 31.6545 59.2342 31.5319 58.9886 31.5319C58.8659 31.5319 58.7431 31.5319 58.5896 31.5319C58.16 31.5626 57.5768 31.6238 56.9323 31.2868C56.4719 31.0416 56.0423 31.0416 55.5819 31.011C55.1215 31.011 54.6612 30.9803 54.1394 30.7352C54.6612 30.919 55.0908 30.9497 55.5512 30.9497C56.0116 30.9497 56.4413 30.9803 56.9016 31.2255C57.5461 31.5625 58.0986 31.5013 58.5283 31.4706C58.6817 31.4706 58.8352 31.44 58.9273 31.4706C59.1728 31.4706 59.3262 31.6238 59.4183 31.6851C59.5104 31.7464 59.5104 31.7464 59.5411 31.7464C59.5411 31.5625 59.3262 31.3174 58.9273 31.2255C58.7431 31.1642 58.5896 31.1948 58.4055 31.1948C58.0679 31.1948 57.6689 31.2255 56.9323 30.8577C56.3799 30.582 55.9809 30.5513 55.6126 30.5207C55.2136 30.49 54.8453 30.4594 54.3542 30.1836C54.876 30.4287 55.2443 30.4594 55.6126 30.49C55.9809 30.49 56.3799 30.5513 56.963 30.8271C57.6689 31.1948 58.0679 31.1642 58.4055 31.1642C58.559 31.1642 58.7431 31.1642 58.9273 31.1948C59.3569 31.3174 59.5718 31.5626 59.6025 31.6851L59.5718 31.8077C59.5718 31.8077 59.5718 31.8077 59.5411 31.8077L59.5718 31.8383Z" fill="#7A361D"/>
<path d="M54.4158 30.6433C55.4593 31.0111 56.1345 30.6433 56.9938 31.103C56.38 30.5514 55.5514 30.9191 54.5078 30.4595L54.4158 30.6433Z" fill="#7A361D"/>
<path d="M51.2239 29.6934L45.6381 35.6995C45.6381 35.6995 45.546 35.8221 45.6381 35.8834C45.6995 35.9446 45.8222 35.8527 45.8222 35.8527L51.8377 30.2756L51.2546 29.6934H51.2239Z" fill="#F1BD51"/>
<path d="M45.6687 35.9446C45.6687 35.9446 45.5767 35.7301 45.638 35.6995L51.2239 29.6934H51.2546L45.6687 35.7301C45.6687 35.7301 45.5767 35.8221 45.638 35.8834C45.6994 35.9446 45.7915 35.8527 45.7915 35.8527L51.807 30.3062L45.8222 35.914C45.8222 35.914 45.7608 35.9753 45.6687 35.9753V35.9446Z" fill="#7A361D"/>
<path d="M51.3465 29.8467L47.5408 33.9529L51.6534 30.1225L51.3465 29.8467Z" fill="#7A361D"/>
<path d="M49.0754 31.3178C48.0012 31.7161 47.6943 32.6048 46.7429 32.8806C45.7608 33.187 45.4539 33.9225 45.147 34.1982C44.84 34.474 44.5024 34.3208 44.5024 34.4434C44.5024 34.566 44.8707 34.6885 45.3618 34.3821C45.8222 34.1063 45.8222 33.6467 47.0191 33.2483C48.2161 32.8806 48.2468 32.2064 49.3517 31.9L49.1061 31.2871L49.0754 31.3178Z" fill="#F1BD51"/>
<path d="M44.7786 34.5966C44.7786 34.5966 44.5944 34.5966 44.5331 34.5353L44.4717 34.4434C44.4717 34.4434 44.5638 34.3515 44.6251 34.3515C44.7479 34.3515 44.932 34.3515 45.1162 34.1676C45.2083 34.1063 45.2697 33.9837 45.3617 33.8612C45.6379 33.5241 46.0062 33.0644 46.7121 32.8499C47.2032 32.6967 47.5101 32.4209 47.8477 32.1145C48.1853 31.808 48.5229 31.471 49.0754 31.2871C48.5536 31.5323 48.216 31.8387 47.8784 32.1451C47.5408 32.4516 47.2339 32.758 46.7428 32.9112C46.0369 33.1257 45.6686 33.5854 45.4231 33.9225C45.331 34.045 45.239 34.137 45.1469 34.2289C44.9627 34.3821 44.7786 34.4127 44.6251 34.4127C44.5331 34.4127 44.5024 34.4127 44.5024 34.4434C44.6558 34.566 44.9627 34.5966 45.331 34.3821C45.4845 34.2902 45.6073 34.1676 45.73 34.045C45.9449 33.7999 46.2211 33.5241 47.0191 33.2483C47.6022 33.0644 47.9091 32.7886 48.1853 32.5435C48.4922 32.2983 48.7685 32.0532 49.3516 31.9C48.7992 32.0838 48.5229 32.329 48.2467 32.5741C47.9705 32.8193 47.6636 33.0951 47.0497 33.2789C46.2825 33.5241 46.0369 33.7999 45.7914 34.045C45.6686 34.1676 45.5766 34.2902 45.3924 34.3821C45.1776 34.5047 44.9627 34.566 44.7786 34.566V34.5966Z" fill="#7A361D"/>
<path d="M48.9834 31.5933C48.0012 32.0529 47.7864 32.819 46.835 33.0948C47.6636 33.0335 47.9705 32.2061 49.0447 31.8078L48.9527 31.6239L48.9834 31.5933Z" fill="#7A361D"/>
<path d="M51.807 30.2755L57.3928 24.2694C57.3928 24.2694 57.5156 24.1468 57.4235 24.0855C57.3314 24.0242 57.2394 24.1162 57.2394 24.1162L51.2239 29.6933L51.807 30.2755Z" fill="#F1BD51"/>
<path d="M51.807 30.3062L57.3928 24.2694C57.3928 24.2694 57.4849 24.1775 57.3928 24.1162C57.3314 24.0549 57.2394 24.1468 57.2394 24.1468L51.2239 29.7239L57.2087 24.1162C57.2087 24.1162 57.3621 24.0242 57.4235 24.0855C57.4849 24.1468 57.4235 24.2694 57.3928 24.3L51.807 30.3062Z" fill="#7A361D"/>
<path d="M51.6536 30.1223L55.49 26.0161L51.3467 29.8466L51.6536 30.1223Z" fill="#7A361D"/>
<path d="M53.9247 28.6825C54.9682 28.2841 55.3058 27.3954 56.2573 27.1196C57.2087 26.8132 57.5463 26.0778 57.8532 25.802C58.1601 25.5262 58.4977 25.6794 58.4977 25.5568C58.4977 25.4342 58.1294 25.3117 57.6384 25.6181C57.1473 25.8939 57.1473 26.3535 55.981 26.7519C54.8148 27.1196 54.7534 27.7938 53.6792 28.1002L53.9247 28.7131V28.6825Z" fill="#F1BD51"/>
<path d="M53.9246 28.6821C54.4463 28.4369 54.7839 28.1305 55.1215 27.824C55.4591 27.5176 55.766 27.2112 56.2878 27.0579C56.963 26.8434 57.3313 26.3838 57.6075 26.0774C57.6996 25.9548 57.7917 25.8322 57.8837 25.7709C58.0679 25.6177 58.252 25.5871 58.3748 25.5871C58.4669 25.5871 58.4976 25.5871 58.4976 25.5564C58.3441 25.4338 58.0372 25.4032 57.6689 25.6177C57.5154 25.7096 57.3927 25.8322 57.3006 25.9548C57.0551 26.1999 56.8095 26.4757 56.0116 26.7515C55.4284 26.9354 55.1215 27.1805 54.8453 27.4257C54.5384 27.6708 54.2622 27.916 53.7097 28.0692C54.2315 27.8853 54.5384 27.6402 54.8146 27.3644C55.0908 27.1192 55.4284 26.8741 56.0116 26.6596C56.7788 26.4144 57.0244 26.1386 57.2392 25.8935C57.362 25.7709 57.4847 25.6483 57.6382 25.5564C58.0065 25.3419 58.3134 25.3419 58.4669 25.4338L58.5282 25.5564C58.5282 25.5564 58.4362 25.6483 58.3441 25.6483C58.2213 25.6483 58.0372 25.6483 57.8837 25.8016C57.7917 25.8629 57.7303 25.9854 57.6075 26.108C57.3313 26.4451 56.963 26.9047 56.2571 27.1192C55.766 27.2725 55.4591 27.5789 55.1215 27.8853C54.7839 28.1918 54.4463 28.5288 53.9246 28.7127V28.6821Z" fill="#7A361D"/>
<path d="M54.0167 28.3757C54.9988 27.916 55.2137 27.1499 56.1651 26.9048C55.3364 26.9661 55.0295 27.7934 53.9553 28.1918L54.0167 28.3757Z" fill="#7A361D"/>
<path d="M51.807 29.6933L45.7915 24.1162C45.7915 24.1162 45.6687 24.0242 45.6074 24.0855C45.546 24.1468 45.6074 24.2694 45.6074 24.2694L51.1932 30.2755L51.7763 29.6933H51.807Z" fill="#F1BD51"/>
<path d="M51.2238 30.2758L45.6073 24.3003C45.6073 24.3003 45.5153 24.1471 45.6073 24.0858C45.6687 24.0245 45.7608 24.0858 45.8222 24.0858L51.8377 29.663L45.8222 24.1471C45.8222 24.1471 45.7301 24.0552 45.6687 24.1165C45.6073 24.1778 45.6687 24.2697 45.6994 24.2697L51.2852 30.2758H51.2238Z" fill="#7A361D"/>
<path d="M51.6534 29.8466L47.5408 26.0161L51.3465 30.1223L51.6534 29.8466Z" fill="#7A361D"/>
<path d="M50.1804 27.5791C49.8121 26.5065 48.922 26.2001 48.6151 25.2502C48.3082 24.2696 47.6023 23.9631 47.3261 23.6567C47.0498 23.3503 47.2033 23.0132 47.0805 23.0132C46.9578 23.0132 46.835 23.3809 47.1112 23.8712C47.4181 24.3615 47.8785 24.3309 48.2468 25.526C48.6151 26.6904 49.2903 26.7517 49.5972 27.8242L50.211 27.5791H50.1804Z" fill="#F1BD51"/>
<path d="M49.5973 27.8245C49.3825 27.3035 49.1676 27.0277 48.9221 26.7213C48.6766 26.4455 48.4003 26.1084 48.2162 25.5262C47.9707 24.7601 47.6944 24.4843 47.4489 24.2698C47.3262 24.1472 47.2034 24.0553 47.0806 23.8715C46.8658 23.4731 46.8658 23.1667 46.9579 23.0441L47.0806 22.9521C47.0806 22.9521 47.1727 23.0441 47.1727 23.136C47.1727 23.2586 47.1727 23.4424 47.3262 23.6263C47.3875 23.7182 47.5103 23.8102 47.6331 23.9021C47.9707 24.1779 48.4003 24.515 48.6459 25.2504C48.7993 25.7407 49.0756 26.0471 49.4132 26.3842C49.7201 26.7213 50.027 27.0584 50.2418 27.5793H50.1804C49.9963 27.089 49.6587 26.7213 49.3518 26.4149C49.0449 26.0778 48.738 25.7714 48.5845 25.2504C48.3697 24.5456 47.9093 24.2085 47.6024 23.9327C47.4796 23.8408 47.3568 23.7489 47.2955 23.6569C47.142 23.4731 47.142 23.2892 47.1113 23.136C47.1113 23.0441 47.1113 23.0134 47.0806 23.0134C46.9579 23.1667 46.9272 23.4731 47.142 23.8408C47.2341 23.994 47.3568 24.1166 47.4796 24.2085C47.7251 24.4537 48.0014 24.6988 48.2776 25.4956C48.4617 26.0778 48.7073 26.3842 48.9528 26.66C49.1983 26.9664 49.4439 27.2422 49.5973 27.7938V27.8245Z" fill="#7A361D"/>
<path d="M49.904 27.4873C49.413 26.5067 48.6764 26.2922 48.4001 25.3423C48.4615 26.1697 49.2902 26.4761 49.6892 27.5793L49.904 27.518V27.4873Z" fill="#7A361D"/>
<path d="M51.2239 30.2756L57.2394 35.8527C57.2394 35.8527 57.3621 35.9753 57.4235 35.8834C57.4849 35.8221 57.3928 35.6995 57.3928 35.6995L51.807 29.6934L51.2239 30.2756Z" fill="#F1BD51"/>
<path d="M57.3314 35.9141L57.2086 35.8835L51.1931 30.337L57.2086 35.8528C57.2086 35.8528 57.3007 35.9448 57.3621 35.8835C57.4234 35.8222 57.3621 35.7302 57.3621 35.7302L51.7763 29.7241L57.3928 35.6996C57.3928 35.6996 57.4848 35.8528 57.4234 35.9141C57.4234 35.9141 57.3928 35.9141 57.3314 35.9141Z" fill="#7A361D"/>
<path d="M51.3467 30.1225L55.49 33.9529L51.6536 29.8467L51.3467 30.1225Z" fill="#7A361D"/>
<path d="M52.8197 32.4209C53.2187 33.4628 54.1088 33.7692 54.4157 34.7498C54.7226 35.7304 55.4592 36.0369 55.7047 36.3433C55.981 36.6497 55.8275 36.9868 55.9503 36.9868C56.073 36.9868 56.1958 36.6191 55.8889 36.1288C55.6127 35.6385 55.1523 35.6385 54.7533 34.474C54.3543 33.2789 53.6791 33.2483 53.4029 32.1758L52.7891 32.4209H52.8197Z" fill="#F1BD51"/>
<path d="M55.9503 37.0173C55.9503 37.0173 55.8582 36.9254 55.8582 36.8335C55.8582 36.7109 55.8582 36.527 55.7047 36.3432C55.6127 36.2512 55.5206 36.19 55.3978 36.0674C55.0602 35.7916 54.5998 35.4545 54.385 34.7191C54.2315 34.2288 53.9553 33.9223 53.6177 33.5853C53.3108 33.2482 53.0039 32.9111 52.7891 32.3902H52.8504C53.0653 32.8805 53.3722 33.2175 53.6791 33.5546C53.986 33.8917 54.2929 34.1981 54.4464 34.7191C54.6612 35.4239 55.1216 35.761 55.4285 36.0367C55.5513 36.1287 55.674 36.2206 55.7354 36.3125C55.8889 36.4964 55.9196 36.6803 55.9196 36.8028C55.9196 36.8948 55.9196 36.9254 55.981 36.9254C56.1037 36.7722 56.1344 36.4658 55.9196 36.098C55.8275 35.9448 55.7047 35.8222 55.582 35.6997C55.3364 35.4852 55.0602 35.2094 54.784 34.4433C54.5998 33.8611 54.3543 33.5546 54.0781 33.2788C53.8326 32.9724 53.587 32.6966 53.4336 32.145C53.6177 32.666 53.8633 32.9418 54.1088 33.2482C54.3543 33.524 54.6305 33.8304 54.8147 34.4433C55.0602 35.2094 55.3364 35.4545 55.582 35.6997C55.7047 35.8222 55.8275 35.9142 55.9196 36.098C56.1344 36.4658 56.1344 36.7722 56.0423 36.9254L55.9196 36.9867L55.9503 37.0173Z" fill="#7A361D"/>
<path d="M53.0959 32.5129C53.5563 33.4935 54.3236 33.708 54.5998 34.658C54.5384 33.8306 53.7098 33.5242 53.3108 32.4517L53.1266 32.5129H53.0959Z" fill="#7A361D"/>
<path d="M51.1317 29.8467L48.2774 37.5382C48.2774 37.5382 48.216 37.6914 48.3081 37.7221C48.4001 37.7527 48.4615 37.6301 48.4615 37.6301L51.8682 30.1838L51.101 29.8773L51.1317 29.8467Z" fill="#F1BD51"/>
<path d="M48.3695 37.7221C48.2161 37.6914 48.2161 37.5688 48.2468 37.5076L51.101 29.8467H51.1624L48.3081 37.5382C48.3081 37.5382 48.2774 37.6608 48.3081 37.6914L48.4309 37.5995L51.8376 30.1531L48.4616 37.6301C48.4616 37.6301 48.4616 37.7221 48.3388 37.7527L48.3695 37.7221Z" fill="#7A361D"/>
<path d="M51.3158 29.9082L49.3516 35.1789L51.6841 30.0614L51.3158 29.9082Z" fill="#7A361D"/>
<path d="M49.7813 32.145C48.9527 32.9111 49.0141 33.8304 48.2161 34.5046C47.4488 35.1481 47.4181 35.9448 47.234 36.3125C47.0498 36.6803 46.6815 36.6496 46.7429 36.7722C46.7736 36.8948 47.1726 36.8641 47.5102 36.4045C47.8478 35.9448 47.6636 35.5158 48.6151 34.7191C49.5665 33.9223 49.321 33.2788 50.2417 32.6047L49.7813 32.145Z" fill="#F1BD51"/>
<path d="M46.8656 36.864C46.8656 36.864 46.8656 36.864 46.8349 36.864L46.7122 36.8027C46.7122 36.8027 46.7735 36.6801 46.8349 36.6495C46.9577 36.5882 47.1111 36.5269 47.2032 36.3124C47.2646 36.2205 47.2953 36.0673 47.326 35.9141C47.4487 35.5157 47.6022 34.9641 48.1853 34.4738C48.5536 34.1367 48.7378 33.769 48.9526 33.34C49.1368 32.9416 49.3209 32.5126 49.7506 32.1143H49.7813C49.3823 32.5433 49.1675 32.9416 48.9833 33.3706C48.7992 33.7997 48.615 34.198 48.216 34.5045C47.6636 34.9641 47.5101 35.5157 47.3874 35.9141C47.3567 36.0673 47.2953 36.1898 47.2646 36.3124C47.1418 36.5269 46.9884 36.6189 46.8656 36.6801C46.7735 36.7108 46.7428 36.7414 46.7735 36.7721C46.9577 36.8334 47.2339 36.7414 47.5101 36.4044C47.6329 36.2511 47.6636 36.0979 47.725 35.9447C47.8477 35.6076 47.9705 35.2705 48.615 34.719C49.0754 34.3206 49.2595 33.9835 49.4437 33.6158C49.6278 33.2787 49.7813 32.9416 50.2417 32.5739C49.812 32.9416 49.6585 33.2787 49.4744 33.6158C49.2902 33.9529 49.1061 34.3206 48.6457 34.719C48.0319 35.2399 47.9091 35.6076 47.7864 35.9141C47.725 36.0673 47.6636 36.2205 47.5715 36.3737C47.3567 36.6801 47.0498 36.8027 46.8963 36.8027L46.8656 36.864Z" fill="#7A361D"/>
<path d="M49.8119 32.4209C49.0754 33.2176 49.1674 33.9837 48.4001 34.6272C49.1367 34.2595 49.106 33.3708 49.9654 32.5741L49.8426 32.4209H49.8119Z" fill="#7A361D"/>
<path d="M51.8683 30.1534L54.7226 22.4925C54.7226 22.4925 54.784 22.3699 54.6612 22.3086C54.5691 22.278 54.5077 22.4006 54.5077 22.4006L51.0703 29.8469L51.8376 30.1534H51.8683Z" fill="#F1BD51"/>
<path d="M51.8991 30.1532H51.8377L54.692 22.4617C54.692 22.4617 54.7534 22.3391 54.692 22.3085L54.5693 22.4004L51.1318 29.8468L54.5079 22.4004C54.5079 22.4004 54.5693 22.3085 54.6306 22.2778L54.7841 22.3391V22.4923L51.9298 30.1532H51.8991Z" fill="#7A361D"/>
<path d="M51.6842 30.0612L53.6485 24.7905L51.3159 29.908L51.6842 30.0612Z" fill="#7A361D"/>
<path d="M53.2494 27.8548C54.0781 27.0887 54.0167 26.1388 54.8147 25.4952C55.582 24.8517 55.6127 24.055 55.7661 23.6873C55.981 23.3196 56.3186 23.3502 56.2879 23.2276C56.2265 23.1051 55.8582 23.1357 55.5206 23.5953C55.183 24.055 55.3671 24.484 54.4157 25.2807C53.4643 26.0775 53.6791 26.721 52.7891 27.3951L53.2494 27.8548Z" fill="#F1BD51"/>
<path d="M53.2494 27.8549H53.2187C53.6177 27.4259 53.8326 27.0275 54.0167 26.5985C54.2009 26.1695 54.385 25.8018 54.784 25.4647C55.3671 25.005 55.5206 24.4534 55.6433 24.0551C55.7047 23.9019 55.7354 23.7793 55.7661 23.6567C55.8889 23.4422 56.073 23.3503 56.1651 23.289C56.2265 23.2583 56.2879 23.2277 56.2879 23.1971C56.073 23.1358 55.7968 23.2277 55.5513 23.5648C55.4285 23.718 55.3978 23.8712 55.3057 24.0244C55.183 24.3615 55.0602 24.7292 54.4157 25.2502C53.9553 25.6485 53.7712 25.9856 53.587 26.3227C53.4029 26.6598 53.2494 26.9969 52.7891 27.3646C53.188 26.9969 53.3722 26.6598 53.5563 26.3227C53.7098 25.9856 53.9246 25.6179 54.385 25.2195C54.9988 24.6986 55.1216 24.3309 55.2444 24.0244C55.3057 23.8712 55.3671 23.718 55.4899 23.5341C55.7354 23.1971 56.0116 23.0745 56.1958 23.1051L56.3186 23.1664C56.3186 23.1664 56.2879 23.2583 56.1958 23.3196C56.073 23.3809 55.9196 23.4422 55.8275 23.6567C55.7661 23.7486 55.7354 23.8712 55.7047 24.0244C55.582 24.4228 55.4285 25.005 54.8454 25.4647C54.4464 25.7711 54.2929 26.1695 54.0781 26.5985C53.8939 27.0275 53.7098 27.4259 53.2801 27.8242L53.2494 27.8549Z" fill="#7A361D"/>
<path d="M53.2189 27.5486C53.9555 26.7519 53.8634 25.9552 54.6307 25.3423C53.8941 25.71 53.8941 26.5987 53.0654 27.3954L53.2189 27.5486Z" fill="#7A361D"/>
<path d="M51.6536 29.6018L43.9808 26.7519C43.9808 26.7519 43.858 26.6907 43.7966 26.7826C43.7966 26.8745 43.9194 26.9358 43.9194 26.9358L51.3774 30.3372L51.6843 29.5711L51.6536 29.6018Z" fill="#F1BD51"/>
<path d="M51.3465 30.3371L43.8885 26.9663C43.8885 26.9663 43.7351 26.8744 43.7658 26.7825C43.8272 26.6905 43.9192 26.7212 43.9806 26.7518L51.6534 29.6017V29.663L43.9499 26.8131C43.9499 26.8131 43.8272 26.7518 43.7965 26.8131C43.7965 26.8744 43.8885 26.9357 43.8885 26.9357L51.3465 30.3371Z" fill="#7A361D"/>
<path d="M51.5614 29.816L46.3132 27.8242L51.408 30.1838L51.5614 29.816Z" fill="#7A361D"/>
<path d="M49.3516 28.2534C48.5843 27.426 47.6636 27.4873 46.9884 26.6906C46.3439 25.9245 45.5459 25.8939 45.1776 25.71C44.8093 25.5261 44.84 25.1584 44.7172 25.2197C44.5945 25.2503 44.6251 25.6487 45.0855 25.9858C45.5152 26.3229 45.9449 26.139 46.7428 27.089C47.5408 28.0389 48.1853 27.8244 48.8912 28.7131L49.3516 28.2534Z" fill="#F1BD51"/>
<path d="M48.9219 28.7131C48.5229 28.2841 48.216 28.1309 47.8477 27.947C47.4794 27.7631 47.1418 27.5793 46.7428 27.1196C46.2211 26.5068 45.8528 26.3842 45.5459 26.2616C45.3924 26.2003 45.239 26.139 45.0548 26.0165C44.7172 25.7713 44.5945 25.4649 44.6251 25.3117L44.7172 25.2197C44.7172 25.2197 44.84 25.2504 44.8707 25.3423C44.9321 25.4649 44.9934 25.6181 45.2083 25.71C45.3004 25.7713 45.4231 25.802 45.5766 25.8326C45.9756 25.9552 46.5587 26.1084 47.0191 26.6906C47.3567 27.0583 47.725 27.2422 48.1546 27.4567C48.5843 27.6406 49.014 27.8244 49.3823 28.2534H49.3516C48.9833 27.8857 48.5536 27.6712 48.1546 27.4873C47.725 27.3035 47.326 27.1196 46.9884 26.7213C46.528 26.139 45.9756 25.9858 45.5766 25.8939C45.4231 25.8632 45.3004 25.802 45.2083 25.7713C44.9934 25.6487 44.9014 25.4955 44.84 25.3729C44.8093 25.281 44.7786 25.2504 44.7479 25.281C44.6865 25.4649 44.7786 25.7713 45.1469 26.0165C45.3004 26.139 45.4538 26.1697 45.6073 26.231C45.9449 26.3535 46.2825 26.4761 46.8349 27.1196C47.2339 27.5793 47.5715 27.7631 47.9398 27.947C48.3081 28.1309 48.615 28.2841 48.9833 28.7437L48.9219 28.7131Z" fill="#7A361D"/>
<path d="M49.0755 28.2841C48.2775 27.5487 47.4795 27.6406 46.8657 26.8745C47.234 27.61 48.1241 27.5793 48.922 28.4373L49.0755 28.2841Z" fill="#7A361D"/>
<path d="M51.3467 30.3678L59.0195 33.2176C59.0195 33.2176 59.1423 33.2789 59.2037 33.187C59.2343 33.095 59.1116 33.0338 59.1116 33.0338L51.6536 29.6323L51.3467 30.3984V30.3678Z" fill="#F1BD51"/>
<path d="M59.1116 33.2484C59.1116 33.2484 59.0502 33.2484 59.0195 33.2484L51.3467 30.3985L59.0502 33.1871C59.0502 33.1871 59.173 33.2177 59.2037 33.1871C59.2343 33.1258 59.1116 33.0645 59.1116 33.0645L51.6536 29.6631L59.1423 33.0339C59.1423 33.0339 59.2957 33.1258 59.265 33.2177C59.265 33.279 59.2037 33.279 59.1423 33.279L59.1116 33.2484Z" fill="#7A361D"/>
<path d="M51.408 30.1836L56.6869 32.1448L51.5614 29.8159L51.408 30.1836Z" fill="#7A361D"/>
<path d="M53.6484 31.716C54.4157 32.5434 55.3672 32.4821 56.0117 33.2788C56.6562 34.0449 57.4542 34.0756 57.8225 34.2594C58.1908 34.4433 58.1601 34.811 58.3135 34.7497C58.4363 34.7191 58.3749 34.3207 57.9452 33.9836C57.4848 33.6465 57.0859 33.8304 56.2879 32.8805C55.4592 31.9305 54.8454 32.145 54.1395 31.2563L53.6791 31.716H53.6484Z" fill="#F1BD51"/>
<path d="M58.2828 34.7804C58.2828 34.7804 58.1907 34.7191 58.16 34.6578C58.0986 34.5352 58.0372 34.382 57.8224 34.2901C57.7303 34.2288 57.5769 34.1981 57.4234 34.1675C57.0244 34.0449 56.4413 33.8917 55.9809 33.3095C55.674 32.9417 55.2443 32.7579 54.8453 32.5434C54.4463 32.3595 53.986 32.145 53.6177 31.7466C53.986 32.1144 54.4157 32.2982 54.8453 32.5127C55.275 32.6966 55.6433 32.8805 55.9809 33.2788C56.4413 33.861 56.9937 34.0143 57.3927 34.1062C57.5462 34.1368 57.6689 34.1981 57.761 34.2288C57.9758 34.3513 58.0679 34.5046 58.1293 34.6271C58.16 34.7191 58.1907 34.7497 58.2214 34.7191C58.2828 34.5352 58.1907 34.2288 57.8531 33.9836C57.6996 33.861 57.5462 33.8304 57.3927 33.7691C57.0858 33.6465 56.7175 33.524 56.1651 32.8805C55.7968 32.4208 55.4285 32.2369 55.0602 32.0531C54.7226 31.8692 54.385 31.716 54.0474 31.2563C54.4157 31.6854 54.7533 31.8386 55.0909 32.0224C55.4285 32.2063 55.7968 32.3902 56.1957 32.8498C56.7175 33.4627 57.0858 33.5853 57.3927 33.7078C57.5462 33.7691 57.6996 33.8304 57.8531 33.953C58.2214 34.2288 58.3134 34.5352 58.2828 34.6578L58.2214 34.7497L58.2828 34.7804Z" fill="#7A361D"/>
<path d="M53.9553 31.6854C54.7533 32.4209 55.5206 32.329 56.1344 33.095C55.7661 32.3596 54.8761 32.3596 54.1088 31.5322L53.9553 31.6548V31.6854Z" fill="#7A361D"/>
<path d="M51.3465 29.6014L43.8885 33.0029C43.8885 33.0029 43.7351 33.0642 43.7658 33.1561C43.7965 33.248 43.9499 33.1867 43.9499 33.1867L51.6227 30.3369L51.3158 29.5708L51.3465 29.6014Z" fill="#F1BD51"/>
<path d="M43.8886 33.2481C43.8886 33.2481 43.7966 33.2481 43.7659 33.1869C43.7659 33.0949 43.8273 33.0336 43.8886 33.003L51.3466 29.6016L43.8886 33.0643C43.8886 33.0643 43.7659 33.1256 43.7966 33.1869C43.7966 33.2481 43.95 33.1869 43.95 33.1869L51.6228 30.337L43.95 33.2175C43.95 33.2175 43.8886 33.2175 43.8579 33.2175L43.8886 33.2481Z" fill="#7A361D"/>
<path d="M51.408 29.8159L46.3132 32.1448L51.5614 30.1836L51.408 29.8159Z" fill="#7A361D"/>
<path d="M48.7685 30.2759C47.633 30.2453 47.0191 30.9194 46.0063 30.8275C44.9935 30.7356 44.4411 31.2872 44.0421 31.4097C43.6431 31.5323 43.3976 31.2565 43.3669 31.4097C43.3055 31.5323 43.6124 31.7774 44.1649 31.6855C44.7173 31.5936 44.9014 31.1952 46.1291 31.2872C47.3567 31.3791 47.6637 30.7969 48.7992 30.9194V30.2759H48.7685Z" fill="#F1BD51"/>
<path d="M43.9192 31.7465C43.5816 31.7465 43.3975 31.624 43.3054 31.532V31.4095C43.3054 31.4095 43.3975 31.3788 43.4589 31.4095C43.5816 31.4401 43.7351 31.5014 43.9499 31.4095C44.0727 31.3788 44.1955 31.3175 44.3182 31.2256C44.6865 31.0111 45.2083 30.7353 45.9449 30.7966C46.4359 30.8579 46.8656 30.7047 47.2953 30.5208C47.725 30.3676 48.1546 30.2144 48.7378 30.2144V30.2756C48.1853 30.2756 47.725 30.4289 47.326 30.5514C46.8963 30.7047 46.4973 30.8579 45.9756 30.8272C45.2697 30.7659 44.7479 31.0417 44.3796 31.2562C44.2569 31.3175 44.1341 31.3788 44.0113 31.4401C43.7658 31.5014 43.5816 31.4401 43.4896 31.4401C43.3975 31.4095 43.3668 31.4095 43.3668 31.4401C43.4589 31.624 43.7351 31.7465 44.1648 31.6852C44.3489 31.6852 44.5024 31.5933 44.6558 31.532C44.9628 31.3788 45.3004 31.2256 46.129 31.2869C46.7428 31.3482 47.1111 31.2256 47.4794 31.103C47.8477 30.9804 48.216 30.8579 48.7685 30.9498C48.1853 30.9498 47.8477 31.0417 47.4794 31.1643C47.1111 31.2869 46.7428 31.4095 46.0983 31.3482C45.3004 31.2869 44.9321 31.4401 44.6558 31.5933C44.5024 31.6546 44.3489 31.7465 44.1648 31.7772C44.0727 31.7772 44.0113 31.7772 43.9499 31.7772L43.9192 31.7465Z" fill="#7A361D"/>
<path d="M48.5844 30.521C47.4795 30.5823 47.0192 31.1952 46.0063 31.0726C46.8043 31.3484 47.3875 30.7049 48.5537 30.7355V30.521H48.5844Z" fill="#7A361D"/>
<path d="M51.6536 30.3675L59.1116 26.9661C59.1116 26.9661 59.265 26.9048 59.2037 26.8129C59.1423 26.7209 59.0195 26.7822 59.0195 26.7822L51.3467 29.6321L51.6536 30.3982V30.3675Z" fill="#F1BD51"/>
<path d="M51.6536 30.3985L59.1116 26.9358C59.1116 26.9358 59.2343 26.8745 59.2037 26.8132C59.173 26.7519 59.0502 26.8132 59.0502 26.8132L51.3467 29.6631L59.0195 26.7826C59.0195 26.7826 59.2037 26.7519 59.2343 26.8132C59.265 26.9051 59.173 26.9664 59.1116 26.9971L51.6536 30.3985Z" fill="#7A361D"/>
<path d="M51.5614 30.1838L56.6869 27.8242L51.408 29.816L51.5614 30.1838Z" fill="#7A361D"/>
<path d="M54.2622 29.6934C55.3978 29.7241 56.0116 29.0499 57.0244 29.1419C58.0372 29.2338 58.6204 28.6822 58.9887 28.5596C59.3877 28.4371 59.6332 28.7129 59.6946 28.5596C59.756 28.4371 59.449 28.1919 58.8659 28.2838C58.3135 28.3758 58.16 28.8048 56.9017 28.6822C55.674 28.5903 55.3671 29.1725 54.2622 29.0499V29.6934Z" fill="#F1BD51"/>
<path d="M54.3543 29.7243H54.2622V29.663C54.8147 29.663 55.2443 29.5098 55.674 29.3566C56.1037 29.2034 56.5334 29.0502 57.0244 29.0808C57.761 29.1421 58.2521 28.8663 58.6204 28.6518C58.7431 28.5599 58.8659 28.4986 58.9887 28.4679C59.2342 28.376 59.3877 28.4679 59.5411 28.4679C59.6332 28.4986 59.6639 28.4986 59.6639 28.4679C59.5718 28.2841 59.2956 28.1615 58.8966 28.2228C58.7124 28.2228 58.559 28.3147 58.4055 28.376C58.0679 28.5292 57.7303 28.6824 56.9323 28.6212C56.3185 28.5599 55.9502 28.6824 55.5819 28.805C55.2136 28.9276 54.8453 29.0502 54.2929 28.9582C54.8453 28.9582 55.2136 28.8663 55.5819 28.7437C55.9502 28.6212 56.3185 28.4986 56.963 28.5599C57.761 28.6212 58.1293 28.4679 58.4055 28.3147C58.559 28.2228 58.7124 28.1615 58.8966 28.1309C59.3263 28.0696 59.6332 28.1921 59.7253 28.3454V28.4679C59.7253 28.4679 59.6332 28.4986 59.5411 28.4679C59.4183 28.4373 59.2649 28.376 59.05 28.4679C58.958 28.4986 58.8352 28.5599 58.6818 28.6518C58.3135 28.8663 57.7917 29.1421 57.0551 29.0808C56.5641 29.0195 56.1651 29.2034 55.7354 29.3566C55.3364 29.5098 54.9374 29.663 54.385 29.663L54.3543 29.7243Z" fill="#7A361D"/>
<path d="M54.4465 29.4789C55.5207 29.4176 56.0118 28.8047 56.9939 28.9273C56.2266 28.6515 55.6128 29.295 54.4465 29.2644V29.4789Z" fill="#7A361D"/>
<path d="M51.8682 29.8467L48.4615 22.4003C48.4615 22.4003 48.4001 22.2471 48.3081 22.3084C48.216 22.3391 48.2774 22.4923 48.2774 22.4923L51.1317 30.1532L51.8989 29.8467H51.8682Z" fill="#F1BD51"/>
<path d="M51.1318 30.1532L48.2468 22.4923C48.2468 22.4923 48.2161 22.4004 48.2468 22.3391L48.3696 22.2778L48.4923 22.4004L51.8991 29.8468H51.8684L48.4003 22.3085H48.3389V22.4617L51.1932 30.1226L51.1318 30.1532Z" fill="#7A361D"/>
<path d="M51.6841 29.908L49.3516 24.7905L51.3158 30.0612L51.6841 29.908Z" fill="#7A361D"/>
<path d="M51.2239 27.2418C51.2546 26.108 50.5794 25.4951 50.6408 24.4839C50.7329 23.4727 50.1804 22.8904 50.027 22.5227C49.9042 22.1243 50.1804 21.9098 50.0577 21.8486C49.9349 21.7873 49.6894 22.0937 49.7814 22.6453C49.8735 23.1969 50.3032 23.3807 50.1804 24.6065C50.0883 25.8322 50.6715 26.1386 50.5487 27.2418H51.1932H51.2239Z" fill="#F1BD51"/>
<path d="M51.2238 27.2421H51.1624C51.1624 26.6906 51.009 26.2616 50.8555 25.8325C50.7021 25.4035 50.5486 25.0052 50.5793 24.4842C50.6407 23.7488 50.3645 23.2585 50.1803 22.8908C50.0882 22.7375 50.0269 22.615 49.9962 22.523C49.9348 22.2779 49.9962 22.094 50.0268 21.9715C50.0268 21.8795 50.0575 21.8489 50.0268 21.8489C49.8427 21.9408 49.7199 22.2166 49.7813 22.615C49.812 22.7988 49.8734 22.9521 49.9348 23.1053C50.0882 23.4117 50.2417 23.7488 50.1803 24.5762C50.1189 25.189 50.2724 25.5567 50.3645 25.9245C50.4872 26.2922 50.61 26.6599 50.5179 27.2115C50.5179 26.6599 50.4258 26.2922 50.3031 25.9245C50.1803 25.5567 50.0575 25.189 50.1189 24.5455C50.1803 23.7488 50.0269 23.3811 49.8734 23.1053C49.812 22.9521 49.7199 22.7988 49.7199 22.615C49.6586 22.186 49.7813 21.9102 49.9041 21.7876H50.0268C50.0268 21.7876 50.0575 21.8795 50.0268 21.9715C49.9655 22.094 49.9348 22.2472 49.9962 22.4618C50.0269 22.5537 50.1189 22.6763 50.1803 22.8295C50.3645 23.1972 50.6714 23.7181 50.61 24.4536C50.5793 24.9439 50.7021 25.3422 50.8862 25.7713C51.0397 26.2003 51.1931 26.6293 51.1931 27.2115L51.2238 27.2421Z" fill="#7A361D"/>
<path d="M50.9784 27.0579C50.917 25.9548 50.3032 25.4951 50.4259 24.4839C50.1497 25.25 50.7942 25.8628 50.7635 27.0273H50.9784V27.0579Z" fill="#7A361D"/>
<path d="M51.1318 30.153L54.5693 37.5994C54.5693 37.5994 54.6306 37.7526 54.7227 37.6913C54.8148 37.6607 54.7841 37.5074 54.7841 37.5074L51.9298 29.8159L51.1625 30.1224L51.1318 30.153Z" fill="#F1BD51"/>
<path d="M54.692 37.7221L54.5078 37.5995L51.1011 30.1531H51.1625L54.5999 37.5688C54.5999 37.5688 54.6613 37.6914 54.7226 37.6608C54.784 37.6608 54.7226 37.5076 54.7226 37.5076L51.8684 29.8467L54.784 37.5076C54.784 37.5076 54.8454 37.6914 54.7226 37.7221H54.692Z" fill="#7A361D"/>
<path d="M51.3159 30.0614L53.6485 35.1789L51.6842 29.9082L51.3159 30.0614Z" fill="#7A361D"/>
<path d="M51.807 32.7271C51.7456 33.8609 52.4515 34.4737 52.3595 35.485C52.2674 36.4962 52.8198 37.0478 52.9426 37.4768C53.0654 37.8752 52.7891 38.0897 52.9426 38.151C53.0654 38.2122 53.3109 37.9058 53.2188 37.3236C53.1267 36.772 52.6971 36.5881 52.8198 35.3624C52.9119 34.1367 52.3288 33.8302 52.4515 32.7271H51.807Z" fill="#F1BD51"/>
<path d="M52.9118 38.1816C52.9118 38.1816 52.8811 38.059 52.9118 37.9977C52.9425 37.8752 53.0039 37.7219 52.9118 37.4768C52.8811 37.3542 52.8198 37.2623 52.7277 37.1091C52.5435 36.7413 52.2366 36.2204 52.298 35.485C52.3594 34.9947 52.2059 34.5963 52.0525 34.1673C51.899 33.7383 51.7149 33.3093 51.7456 32.7271H51.8069C51.8069 33.2786 51.9604 33.7383 52.1139 34.1367C52.2673 34.5657 52.4208 34.964 52.3901 35.485C52.3287 36.2204 52.6049 36.7107 52.7891 37.0784C52.8812 37.201 52.9425 37.3236 52.9732 37.4462C53.0653 37.6913 52.9732 37.8445 52.9732 37.9977C52.9732 38.0897 52.9732 38.1203 52.9732 38.1203C53.1574 38.0284 53.2801 37.7526 53.2188 37.3236C53.2188 37.1397 53.1267 36.9865 53.0653 36.8333C52.9425 36.5268 52.7584 36.1898 52.8198 35.3624C52.8505 34.7495 52.7277 34.3818 52.6049 34.0141C52.4822 33.6464 52.3594 33.2786 52.4515 32.7271C52.4515 33.2786 52.5435 33.6464 52.6663 34.0141C52.7891 34.3818 52.9118 34.7802 52.8505 35.393C52.7891 36.1898 52.9425 36.5575 53.096 36.8639C53.1881 37.0171 53.2494 37.1704 53.2801 37.3542C53.3415 37.7832 53.2187 38.059 53.096 38.1816H52.9732H52.9118Z" fill="#7A361D"/>
<path d="M52.0217 32.9111C52.0831 33.9837 52.6969 34.474 52.5742 35.4545C52.8504 34.6578 52.2059 34.0756 52.2366 32.9111H52.0217Z" fill="#7A361D"/>
<path d="M51.5001 26.6597C53.3416 26.6597 54.8455 28.1612 54.8455 29.9998C54.8455 31.8384 53.3723 33.34 51.5001 33.34C49.628 33.34 48.1548 31.8384 48.1548 29.9998C48.1548 28.1612 49.6587 26.6597 51.5001 26.6597Z" fill="#F1BD51"/>
<path d="M51.5001 33.3403C49.6279 33.3403 48.124 31.8388 48.124 29.9695C48.124 28.1003 49.6279 26.6294 51.5001 26.6294C53.3722 26.6294 54.8761 28.1309 54.8761 29.9695C54.8761 31.8081 53.3722 33.3403 51.5001 33.3403ZM51.5001 26.6907C49.6586 26.6907 48.1854 28.1616 48.1854 30.0002C48.1854 31.8388 49.6893 33.3097 51.5001 33.3097C53.3109 33.3097 54.8147 31.8388 54.8147 30.0002C54.8147 28.1616 53.3415 26.6907 51.5001 26.6907Z" fill="#7A361D"/>
<path d="M53.6178 29.2645C53.004 28.7436 52.2674 28.6823 51.8684 29.0807C51.5615 29.479 51.5922 29.9387 51.9605 30.429C51.9298 30.429 51.8684 30.429 51.8377 30.4596C51.5922 29.9693 51.5308 29.4484 51.715 29.0194C52.2981 28.5597 53.0654 28.4984 53.6178 29.2645Z" fill="#7A361D"/>
<path d="M52.697 29.1113C52.3594 29.1113 52.298 29.2033 52.1139 29.3258C51.9604 29.4484 51.8683 29.4178 51.8376 29.4484C51.8376 29.4484 51.8376 29.5403 51.899 29.5097C51.9604 29.5097 52.0525 29.4484 52.2059 29.2952C52.3594 29.1726 52.5129 29.1726 52.6663 29.1726C53.1267 29.1726 53.3722 29.5403 53.4336 29.5403C53.495 29.5403 53.1574 29.1113 52.6663 29.1113H52.697Z" fill="#7A361D"/>
<path d="M53.2802 29.5711C52.9733 29.2034 52.3288 29.1727 52.0833 29.5711H52.1753C52.4209 29.1727 53.0654 29.3259 53.0961 29.5098V29.5711H53.2802Z" fill="#7A361D"/>
<path d="M52.6357 29.2949C52.6357 29.2949 52.8812 29.4175 52.8812 29.5401C52.8812 29.6626 52.7584 29.7852 52.6357 29.7852C52.5129 29.7852 52.3901 29.6933 52.3901 29.5401C52.3901 29.3869 52.5129 29.2949 52.6357 29.2949Z" fill="#7A361D"/>
<path d="M52.0525 29.5711C52.298 29.7856 52.8812 29.8162 53.2495 29.5711H53.0653C52.8198 29.8162 52.3901 29.7856 52.1446 29.5711V29.5098L52.0525 29.5711Z" fill="#7A361D"/>
<path d="M53.3109 29.6936C52.8812 30.0307 52.4208 30 52.1753 29.8468C51.9298 29.6936 51.9298 29.6323 51.9605 29.6323C52.0219 29.6323 52.0525 29.6936 52.2674 29.7855C52.4822 29.8775 52.7891 29.8775 53.2802 29.6936H53.3109Z" fill="#7A361D"/>
<path d="M52.0525 30.4595C52.0525 30.4595 52.1753 30.582 52.1446 30.6433C52.1446 30.7353 52.0219 30.7659 51.9605 30.7353C51.8991 30.7353 51.8684 30.674 51.8377 30.6127C51.8377 30.674 51.7149 30.8272 51.5001 30.8272H51.4387L51.5001 30.9191C51.5001 30.9191 51.6842 30.9191 51.807 30.8272C51.8991 30.9191 52.0219 30.9498 52.1446 30.8885C52.2367 30.7966 52.2981 30.674 52.206 30.5514C52.206 30.4901 52.1139 30.4595 52.0525 30.4595Z" fill="#7A361D"/>
<path d="M52.3288 31.5323C52.1139 31.3791 51.9912 31.1646 51.7456 31.1646C51.6843 31.1646 51.5922 31.1645 51.5001 31.2565H51.4387L51.5001 31.3178C51.5001 31.3178 51.7456 31.1952 51.9298 31.3178C52.1139 31.4097 52.206 31.5323 52.3288 31.5629V31.5323Z" fill="#7A361D"/>
<path d="M52.2674 31.532C51.7456 31.3788 51.6536 31.4707 51.5001 31.4707H51.4387L51.5001 31.5933C51.6843 31.5933 51.807 31.4401 52.2674 31.532Z" fill="#7A361D"/>
<path d="M52.3288 31.5324C51.7763 31.4711 51.9605 31.8081 51.5001 31.8081H51.4387L51.5001 31.9001C52.0525 31.9001 51.807 31.5936 52.3288 31.5324Z" fill="#7A361D"/>
<path d="M51.9605 32.3596C51.9605 32.1144 51.7457 31.8999 51.5002 31.8999C51.2546 31.8999 51.0398 32.1144 51.0398 32.3596C51.1012 32.1144 51.3467 31.9612 51.6229 32.0225C51.8071 32.0531 51.9298 32.2063 51.9912 32.3596H51.9605Z" fill="#7A361D"/>
<path d="M49.3823 29.2645C49.9654 28.7436 50.7327 28.6823 51.1317 29.0807C51.4386 29.479 51.4079 29.9387 51.0396 30.429C51.0396 30.429 51.1317 30.429 51.1317 30.4596C51.3772 29.9693 51.4386 29.4484 51.2544 29.0194C50.6713 28.5597 49.904 28.4984 49.3516 29.2645H49.3823Z" fill="#7A361D"/>
<path d="M50.3338 29.1113C50.6714 29.1113 50.7328 29.2033 50.8863 29.3258C51.0397 29.4484 51.1011 29.4178 51.1318 29.4484C51.1318 29.4484 51.1318 29.5403 51.0704 29.5097C51.009 29.5097 50.917 29.4484 50.7635 29.2952C50.61 29.1726 50.4566 29.1726 50.3031 29.1726C49.8428 29.1726 49.5972 29.5403 49.5358 29.5403C49.4745 29.5403 49.7814 29.1113 50.3031 29.1113H50.3338Z" fill="#7A361D"/>
<path d="M49.7199 29.5711C50.0575 29.2034 50.6713 29.1727 50.9169 29.5711H50.7941C50.5486 29.1727 49.9347 29.3259 49.8734 29.5098V29.5711H49.6892H49.7199Z" fill="#7A361D"/>
<path d="M50.3644 29.2949C50.3644 29.2949 50.1189 29.4175 50.1189 29.5401C50.1189 29.6626 50.211 29.7852 50.3644 29.7852C50.4872 29.7852 50.5793 29.6933 50.5793 29.5401C50.5793 29.3869 50.4872 29.2949 50.3644 29.2949Z" fill="#7A361D"/>
<path d="M50.9477 29.5711C50.6715 29.7856 50.119 29.8162 49.7507 29.5711H49.9349C50.1804 29.8162 50.5794 29.7856 50.8556 29.5711V29.5098L50.9784 29.5711H50.9477Z" fill="#7A361D"/>
<path d="M49.6892 29.6936C50.1189 30.0307 50.5793 30 50.8248 29.8468C51.0703 29.6936 51.0703 29.6323 51.0396 29.6323C50.9782 29.6323 50.9476 29.6936 50.7327 29.7855C50.5179 29.8775 50.211 29.8775 49.6892 29.6936Z" fill="#7A361D"/>
<path d="M50.9782 30.4595C50.9782 30.4595 50.8554 30.582 50.8861 30.6433C50.8861 30.7353 51.0089 30.7659 51.0703 30.7353C51.1317 30.7353 51.1623 30.674 51.1623 30.6127C51.1623 30.674 51.2851 30.8272 51.5 30.8272H51.5613L51.5 30.9191C51.5 30.9191 51.2851 30.9191 51.193 30.8272C51.1317 30.9191 50.9782 30.9498 50.8861 30.8885C50.7634 30.7966 50.7634 30.674 50.8247 30.5514C50.8861 30.4901 50.9168 30.4595 50.9782 30.4595Z" fill="#7A361D"/>
<path d="M50.6406 31.5323C50.8862 31.3791 50.9782 31.1646 51.2238 31.1646C51.2851 31.1646 51.3772 31.1645 51.4693 31.2565H51.5307L51.4693 31.3178C51.4693 31.3178 51.2238 31.1952 51.0396 31.3178C50.8555 31.4403 50.7634 31.5323 50.6406 31.5629V31.5323Z" fill="#7A361D"/>
<path d="M50.7327 31.532C51.2544 31.3788 51.3465 31.4707 51.4999 31.4707H51.5613L51.4999 31.5933C51.2851 31.5933 51.193 31.4401 50.7327 31.532Z" fill="#7A361D"/>
<path d="M50.6406 31.5324C51.2238 31.4711 51.0089 31.8081 51.5 31.8081H51.5614L51.5 31.9001C50.9475 31.9001 51.1931 31.5936 50.6406 31.5324Z" fill="#7A361D"/>
<path d="M51.0397 32.3596C51.0397 32.1144 51.2546 31.8999 51.5001 31.8999C51.7456 31.8999 51.9605 32.1144 51.9605 32.3596C51.8991 32.1144 51.6535 31.9612 51.3773 32.0225C51.2239 32.0531 51.0704 32.2063 51.009 32.3596H51.0397Z" fill="#7A361D"/>
</g>
</g>
</g>
<defs>
<clipPath id="clip0_211_2745">
<rect width="103" height="60" fill="white"/>
</clipPath>
</defs>
</svg>
