<svg width="34" height="28" viewBox="0 0 34 28" fill="none" xmlns="http://www.w3.org/2000/svg">
<path d="M18.765 21.514C18.765 19.754 19.2247 18.278 20.1441 17.08C20.7956 16.256 21.679 15.714 22.7962 15.456C23.8955 15.2 24.9347 15.182 25.8741 15.4C26.1939 13.5 25.6742 11.488 24.3551 9.356C23.036 7.226 21.3272 5.622 19.2427 4.55L22.4025 0C24.0014 0.792 25.5203 1.796 26.9194 3.01C28.3384 4.224 29.5975 5.62 30.7167 7.198C31.8359 8.776 32.6754 10.558 33.215 12.578C33.7546 14.598 33.9045 16.658 33.6467 18.778C33.3109 21.578 32.4075 23.818 30.9366 25.478C29.4676 27.16 27.6349 28 25.4444 28C23.5157 28 21.9148 27.42 20.6477 26.244C19.3926 25.092 18.769 23.514 18.769 21.508L18.765 21.514ZM0.529678 21.514C0.529678 19.754 0.989361 18.278 1.90872 17.08C2.56027 16.24 3.44765 15.696 4.56088 15.446C5.6801 15.198 6.70539 15.186 7.63874 15.402C7.95852 13.522 7.45887 11.502 6.13579 9.362C4.8167 7.242 3.11189 5.642 1.02734 4.562L4.17915 0C5.77803 0.792 7.28699 1.796 8.69601 3.01C10.128 4.24199 11.3997 5.64899 12.4814 7.198C13.5926 8.778 14.42 10.558 14.9597 12.578C15.5057 14.5968 15.653 16.7028 15.3934 18.778C15.0616 21.578 14.1622 23.818 12.6952 25.478C11.2302 27.146 9.40352 27.982 7.21304 27.982C5.28038 27.982 3.67949 27.402 2.41237 26.228C1.15924 25.076 0.529678 23.498 0.529678 21.492V21.514Z" fill="url(#paint0_linear_1336_923)"/>
<defs>
<linearGradient id="paint0_linear_1336_923" x1="26.5927" y1="13.7021" x2="4.83251" y2="19.3144" gradientUnits="userSpaceOnUse">
<stop stop-color="#074A9E"/>
<stop offset="1" stop-color="#00C6F1"/>
</linearGradient>
</defs>
</svg>
