<svg width="414" height="184" viewBox="0 0 414 184" fill="none" xmlns="http://www.w3.org/2000/svg">
<path d="M162.41 54.0287C162.479 56.8333 160.246 59.1429 157.447 59.2116C154.635 59.2804 152.32 57.0533 152.251 54.2625C152.182 51.4579 154.415 49.1483 157.213 49.0796C160.025 49.0108 162.341 51.2379 162.41 54.0287Z" fill="#E54459"/>
<path d="M160.88 53.1214C160.852 52.0766 159.998 51.2655 158.95 51.2792C158.206 51.293 157.572 51.7329 157.282 52.3653C156.965 51.7467 156.303 51.3342 155.573 51.348C154.525 51.3755 153.712 52.2278 153.726 53.2727C153.726 53.3689 153.726 53.4514 153.753 53.5339C153.753 53.5339 153.753 53.5751 153.767 53.6438C153.767 53.6438 153.767 53.6438 153.767 53.6576C153.877 54.1388 154.498 55.9535 157.392 57.3832C160.687 55.5685 160.866 53.3826 160.866 53.3826C160.866 53.3001 160.88 53.2039 160.88 53.1214Z" fill="white"/>
<path d="M161.569 120.183C161.625 122.644 159.667 124.692 157.2 124.747C154.732 124.802 152.678 122.85 152.623 120.389C152.568 117.928 154.525 115.88 156.993 115.825C159.46 115.77 161.514 117.722 161.569 120.183Z" fill="#E54459"/>
<path d="M160.232 119.399C160.205 118.478 159.447 117.763 158.537 117.777C157.889 117.791 157.324 118.176 157.076 118.739C156.786 118.203 156.221 117.832 155.573 117.846C154.663 117.873 153.933 118.629 153.946 119.537C153.946 119.619 153.946 119.688 153.974 119.77C153.974 119.77 153.974 119.798 153.988 119.867C153.988 119.867 153.988 119.867 153.988 119.88C154.084 120.307 154.622 121.901 157.172 123.152C160.067 121.558 160.218 119.633 160.218 119.633C160.218 119.551 160.232 119.482 160.218 119.399H160.232Z" fill="white"/>
<path d="M91.3228 29.1452C91.5434 33.2008 88.4143 36.6652 84.3616 36.8852C80.2951 37.1052 76.8214 33.9982 76.6008 29.9426C76.3803 25.887 79.5094 22.4226 83.5621 22.2026C87.6285 21.9826 91.1023 25.1034 91.3228 29.1452Z" fill="#48ADE2"/>
<path d="M84.844 28.4303C84.844 28.4303 85.3816 27.6879 85.3541 27.1792C85.3541 27.1792 85.3541 25.7907 84.4856 25.832C84.4856 25.832 83.9067 25.8595 83.948 26.5881C83.948 26.5881 84.0583 27.0555 83.7413 27.3855C83.438 27.7291 82.3352 29.0627 82.3628 29.4476C82.3904 29.8326 82.5282 32.5409 82.5282 32.5409C82.5282 32.5409 82.6109 32.9258 82.9969 32.8983C83.3829 32.8708 87.022 32.6783 87.022 32.6783C87.022 32.6783 87.5045 32.5821 87.4769 32.1559C87.4769 32.1559 87.5183 31.6335 87.1736 31.6473C87.1736 31.6473 87.6285 31.6473 87.601 31.0836C87.601 31.0836 87.601 30.6437 87.3391 30.6574C87.3391 30.6574 87.8215 30.5474 87.794 30.0388C87.794 29.8463 87.7388 29.4889 87.2701 29.5164C87.2701 29.5164 87.794 29.5164 87.7388 28.8565C87.725 28.6777 87.6699 28.2653 87.1874 28.2928L84.844 28.4165V28.4303Z" fill="white"/>
<path d="M80.4403 29.4228L81.6791 29.3576C81.8168 29.3503 81.9465 29.4536 81.9545 29.6047L82.1426 33.1604C82.1498 33.2977 82.0463 33.427 81.8948 33.435L80.6559 33.5002C80.5183 33.5074 80.3886 33.4041 80.3806 33.2531L80.1925 29.6974C80.1852 29.5601 80.2888 29.4307 80.4403 29.4228Z" fill="white"/>
<path d="M113.915 130.109C114.053 132.652 112.096 134.824 109.546 134.962C106.996 135.099 104.818 133.147 104.68 130.604C104.542 128.06 106.499 125.888 109.049 125.751C111.6 125.613 113.778 127.565 113.915 130.109Z" fill="#48ADE2"/>
<path d="M109.849 129.669C109.849 129.669 110.193 129.201 110.166 128.885C110.166 128.885 110.166 128.019 109.628 128.047C109.628 128.047 109.27 128.06 109.284 128.514C109.284 128.514 109.353 128.803 109.16 129.023C108.967 129.229 108.277 130.068 108.291 130.315C108.291 130.563 108.401 132.253 108.401 132.253C108.401 132.253 108.457 132.487 108.691 132.487C108.939 132.487 111.214 132.35 111.214 132.35C111.214 132.35 111.517 132.295 111.503 132.02C111.503 132.02 111.531 131.69 111.31 131.704C111.31 131.704 111.6 131.704 111.572 131.346C111.572 131.346 111.572 131.071 111.407 131.085C111.407 131.085 111.71 131.016 111.696 130.7C111.696 130.59 111.655 130.356 111.365 130.37C111.365 130.37 111.696 130.37 111.655 129.958C111.655 129.848 111.613 129.586 111.31 129.6L109.849 129.683V129.669Z" fill="white"/>
<path d="M108.154 132.625C108.154 132.707 108.085 132.79 108.002 132.79L107.216 132.831C107.134 132.831 107.051 132.762 107.051 132.68L106.927 130.453C106.927 130.356 106.996 130.288 107.078 130.288L107.85 130.246C107.933 130.246 108.016 130.315 108.016 130.398L108.14 132.625H108.154Z" fill="white"/>
<path d="M159.088 28.0729C159.212 30.465 157.379 32.5134 154.966 32.6371C152.568 32.7609 150.514 30.9324 150.376 28.5266C150.252 26.1344 152.085 24.086 154.498 23.9486C156.896 23.8248 158.95 25.6533 159.088 28.0591V28.0729Z" fill="#48ADE2"/>
<path d="M155.27 27.6604C155.27 27.6604 155.587 27.2205 155.573 26.918C155.573 26.918 155.573 26.0932 155.063 26.1207C155.063 26.1207 154.719 26.1344 154.746 26.5606C154.746 26.5606 154.815 26.8356 154.622 27.028C154.443 27.2342 153.795 28.0179 153.809 28.2516C153.809 28.4853 153.905 30.08 153.905 30.08C153.905 30.08 153.96 30.3 154.181 30.3C154.415 30.3 156.552 30.1763 156.552 30.1763C156.552 30.1763 156.841 30.1213 156.828 29.8601C156.828 29.8601 156.855 29.5576 156.648 29.5576C156.648 29.5576 156.91 29.5576 156.897 29.2139C156.897 29.2139 156.897 28.9527 156.745 28.9665C156.745 28.9665 157.034 28.8977 157.007 28.5953C157.007 28.4853 156.965 28.2791 156.69 28.2928C156.69 28.2928 156.993 28.2928 156.965 27.9079C156.965 27.7979 156.924 27.5642 156.648 27.5779L155.27 27.6467V27.6604Z" fill="white"/>
<path d="M153.67 30.4512C153.67 30.5337 153.615 30.6024 153.533 30.6161L152.802 30.6574C152.719 30.6574 152.65 30.6024 152.637 30.5062L152.526 28.4027C152.526 28.3203 152.582 28.2515 152.664 28.2378L153.395 28.1965C153.478 28.1965 153.546 28.2515 153.56 28.334L153.67 30.4374V30.4512Z" fill="white"/>
<path d="M119.554 110.656C119.678 113.089 117.803 115.179 115.363 115.303C112.923 115.44 110.828 113.57 110.704 111.123C110.58 108.69 112.455 106.6 114.895 106.476C117.334 106.339 119.43 108.222 119.554 110.656Z" fill="#48ADE2"/>
<path d="M115.667 110.23C115.667 110.23 115.998 109.79 115.97 109.473C115.97 109.473 115.97 108.635 115.446 108.662C115.446 108.662 115.102 108.676 115.115 109.116C115.115 109.116 115.184 109.391 114.991 109.597C114.812 109.803 114.15 110.601 114.164 110.834C114.164 111.068 114.261 112.69 114.261 112.69C114.261 112.69 114.316 112.924 114.55 112.91C114.785 112.91 116.963 112.787 116.963 112.787C116.963 112.787 117.252 112.732 117.238 112.47C117.238 112.47 117.266 112.154 117.059 112.168C117.059 112.168 117.335 112.168 117.307 111.824C117.307 111.824 117.307 111.563 117.142 111.577C117.142 111.577 117.431 111.508 117.417 111.206C117.417 111.096 117.376 110.876 117.1 110.889C117.1 110.889 117.417 110.889 117.376 110.491C117.376 110.381 117.335 110.133 117.045 110.147L115.639 110.216L115.667 110.23Z" fill="white"/>
<path d="M114.04 113.075C114.04 113.158 113.985 113.24 113.888 113.24L113.144 113.282C113.061 113.282 112.978 113.227 112.978 113.13L112.868 110.999C112.868 110.917 112.923 110.834 113.02 110.834L113.764 110.793C113.847 110.793 113.93 110.848 113.93 110.944L114.04 113.075Z" fill="white"/>
<path d="M145.214 48.0871C145.476 43.9345 142.312 40.3569 138.148 40.0964C133.984 39.8358 130.397 42.991 130.136 47.1436C129.875 51.2962 133.038 54.8738 137.202 55.1343C141.366 55.3949 144.953 52.2397 145.214 48.0871Z" fill="#EFCE61"/>
<path d="M142.532 47.6772C142.56 48.4196 142.422 49.1208 142.16 49.7669C141.457 51.4441 139.831 52.6402 137.901 52.7227C135.971 52.8052 134.248 51.7466 133.393 50.1518C133.062 49.5332 132.869 48.8458 132.842 48.1034L142.532 47.6772Z" fill="#24293E"/>
<path d="M142.161 49.7669C141.458 51.4441 139.831 52.6402 137.901 52.7226C135.971 52.8051 134.248 51.7466 133.394 50.1518C134.717 49.5332 136.192 49.1757 137.736 49.107C139.293 49.0383 140.782 49.272 142.161 49.7669Z" fill="#E32B56"/>
<path d="M142.202 46.1512C142.202 46.1512 142.119 46.1512 142.077 46.1374L139.886 45.4226C139.762 45.3813 139.665 45.2713 139.651 45.1339C139.651 44.9964 139.707 44.8727 139.817 44.8039L141.926 43.6354C142.091 43.5391 142.298 43.6079 142.381 43.7591C142.477 43.9241 142.408 44.1303 142.257 44.2128L140.823 45.0101L142.284 45.4776C142.463 45.5325 142.56 45.725 142.505 45.9037C142.463 46.0412 142.339 46.1237 142.202 46.1374V46.1512Z" fill="#24293E"/>
<path d="M133.035 46.5499C132.897 46.5499 132.773 46.4812 132.704 46.3437C132.635 46.1787 132.704 45.9725 132.883 45.9038L134.289 45.2989L132.787 44.639C132.621 44.5565 132.539 44.364 132.621 44.199C132.69 44.0341 132.897 43.9516 133.062 44.0341L135.268 45.0102C135.392 45.0652 135.475 45.1889 135.461 45.3264C135.461 45.4638 135.378 45.5738 135.254 45.6288L133.131 46.5224C133.131 46.5224 133.049 46.5499 133.021 46.5499H133.035Z" fill="#24293E"/>
<path d="M88.9928 119.441C89.1306 123.221 86.1807 126.397 82.39 126.534C78.5992 126.672 75.4149 123.73 75.2771 119.949C75.1393 116.169 78.0892 112.993 81.8799 112.855C85.6707 112.718 88.855 115.66 88.9928 119.441Z" fill="#EFCE61"/>
<path d="M86.1942 117.612C86.3182 118.341 86.0012 119.001 85.5049 119.083C84.9949 119.166 84.4987 118.643 84.3746 117.915C84.2505 117.186 84.5676 116.526 85.0638 116.444C85.5739 116.361 86.0701 116.883 86.1942 117.612Z" fill="#24293E"/>
<path d="M79.9774 118.203C80.1014 118.932 79.7844 119.592 79.2881 119.674C78.7781 119.757 78.2819 119.234 78.1578 118.506C78.0337 117.777 78.3508 117.117 78.847 117.035C79.3571 116.952 79.8533 117.475 79.9774 118.203Z" fill="#24293E"/>
<path d="M84.182 122.176C84.2372 123.592 83.3963 124.775 82.3211 124.816C81.2459 124.857 80.3224 123.744 80.2672 122.328C80.2121 120.912 81.0529 119.729 82.1281 119.688C83.2171 119.647 84.1269 120.76 84.182 122.176Z" fill="#24293E"/>
<path d="M86.0984 115.206C85.9605 115.206 85.8365 115.124 85.7951 115C85.6986 114.698 85.3678 114.491 84.9956 114.505C84.651 114.505 84.3477 114.725 84.2512 115.014C84.1961 115.179 84.0307 115.261 83.8653 115.206C83.6999 115.151 83.6171 114.986 83.6723 114.821C83.8377 114.285 84.3615 113.914 84.9818 113.886C85.6297 113.859 86.2087 114.244 86.3879 114.808C86.443 114.972 86.3465 115.137 86.1949 115.192C86.1673 115.192 86.1397 115.192 86.1122 115.206H86.0984Z" fill="#24293E"/>
<path d="M127.439 26.2582C127.521 29.9838 124.558 33.0771 120.822 33.1596C117.086 33.2421 113.985 30.2863 113.902 26.5607C113.819 22.835 116.783 19.7418 120.519 19.6593C124.254 19.5768 127.356 22.5326 127.439 26.2582Z" fill="#E54459"/>
<path d="M125.412 25.0621C125.385 23.6736 124.227 22.5875 122.848 22.615C121.856 22.6425 121.015 23.2337 120.629 24.0585C120.202 23.2337 119.333 22.6838 118.341 22.7112C116.949 22.7387 115.86 23.8936 115.887 25.2683C115.887 25.3921 115.901 25.502 115.929 25.6258C115.929 25.6258 115.929 25.6808 115.956 25.7632C115.956 25.7632 115.956 25.777 115.956 25.7907C116.108 26.4369 116.921 28.8427 120.781 30.7537C125.164 28.3478 125.399 25.4196 125.399 25.4196C125.399 25.2958 125.426 25.1858 125.412 25.0621Z" fill="white"/>
<path d="M142.022 81.703C139.693 81.5793 137.143 83.9576 136.357 86.9959L131.477 105.927C130.691 108.965 132.249 111.604 134.923 111.769C137.611 111.948 140.341 109.57 141.002 106.49L145.055 87.532C145.717 84.4525 144.352 81.8267 142.009 81.703H142.022Z" fill="#40A9E0"/>
<path d="M156.152 76.5062L149.536 75.6401L148.061 86.8033L154.677 87.6694C157.007 87.9719 159.143 86.3496 159.447 84.0263L159.819 81.263C160.122 78.9396 158.496 76.8087 156.166 76.5062H156.152Z" fill="#7BC8F0"/>
<path d="M134.551 67.1028C123.84 61.6587 113.874 53.8637 109.78 46.5774C103.053 34.6306 95.5542 33.6407 95.5542 33.6407L85.1055 112.443C85.1055 112.443 92.5078 114.106 102.129 104.318C107.905 98.4477 119.278 93.5535 130.829 91.0376C134.84 81.9366 135.033 72.8494 134.565 67.1028H134.551Z" fill="#7BC8F0"/>
<path d="M154.663 73.9217C152.953 73.7017 151.161 73.3305 149.328 72.8494C149.466 80.6168 148.432 85.8273 147.302 89.1817C149.149 89.2092 150.927 89.3192 152.595 89.5391C152.595 89.5391 154.856 88.5081 155.724 81.8816C156.606 75.269 154.663 73.9079 154.663 73.9079V73.9217Z" fill="#7BC8F0"/>
<path d="M149.328 72.8493C144.572 71.6258 139.486 69.6049 134.551 67.1028C135.02 72.8493 134.841 81.9366 130.815 91.0376C136.481 89.8003 142.188 89.1404 147.302 89.1954C148.446 85.8272 149.466 80.6168 149.328 72.8631V72.8493Z" fill="#40A9E0"/>
<path d="M101.22 74.4716C98.3391 96.2343 91.116 113.227 85.0921 112.443C79.0682 111.646 76.5319 93.361 79.4128 71.5983C82.2938 49.8356 89.517 32.8434 95.5409 33.627C101.565 34.4244 104.101 52.7089 101.22 74.4716Z" fill="#40A9E0"/>
<path d="M88.773 70.526L88.2078 74.7328C87.7116 78.4447 90.3306 81.8542 94.0663 82.3491L99.8007 83.1052C100.338 80.3419 100.821 77.4411 101.22 74.4716C101.634 71.3784 101.923 68.3539 102.13 65.4393L96.4097 64.6832C92.6878 64.1883 89.2692 66.8004 88.773 70.526Z" fill="#3E5FA9"/>
<path d="M59.3695 91.4089C56.8745 88.0819 55.3169 84.0676 54.4484 79.957C53.5938 75.8189 53.4835 71.5709 53.9522 67.3503C54.4209 63.1985 55.5374 59.0054 57.3983 55.211C59.273 51.4167 61.7681 48.0485 64.6904 45.1064C62.9673 48.8733 61.1753 52.5027 59.9071 56.2559C58.6114 59.9953 57.8257 63.8171 57.3708 67.7627C56.9297 71.6534 56.8056 75.6265 57.1089 79.5583C57.3983 83.5177 58.1565 87.4358 59.342 91.3951L59.3695 91.4089Z" fill="#7BC8F0"/>
<path d="M52.4358 95.4369C50.5886 93.6772 49.3342 91.3676 48.259 89.0442C47.2252 86.6934 46.4257 84.2463 45.8743 81.7304C44.7164 76.7125 44.4407 71.5021 45.0196 66.3467C45.6124 61.2188 47.1149 56.1871 49.3894 51.5816C50.5059 49.272 51.843 47.0723 53.3731 45.0102C54.9446 43.003 56.6401 40.9958 58.8318 39.676C57.1639 41.5732 55.9371 43.7179 54.8067 45.9038C53.6764 48.0897 52.7253 50.358 51.8706 52.6402C50.2027 57.2319 49.0034 61.9474 48.452 66.7591C47.9006 71.5433 47.9558 76.4375 48.5209 81.2767C48.8242 83.6963 49.2377 86.116 49.858 88.4943C50.4646 90.8727 51.2227 93.2235 52.4496 95.4369H52.4358Z" fill="#7BC8F0"/>
<path d="M66.9373 84.5899C65.5313 82.1841 64.7042 79.5033 64.2355 76.7675C63.7806 74.0179 63.7255 71.2271 64.0563 68.4226C64.3734 65.6868 65.0764 62.9372 66.1378 60.3664C67.213 57.8093 68.6466 55.3759 70.5627 53.3688C69.9148 56.0633 69.2531 58.6204 68.7293 61.1775C68.1917 63.7346 67.7782 66.2504 67.4749 68.8488C67.1854 71.3783 67.0062 73.9767 66.9373 76.575C66.8546 79.1871 66.9098 81.8129 66.9373 84.5899Z" fill="#7BC8F0"/>
<path d="M137.267 183.01C137.267 183.01 111.449 126.493 128.307 116.292C145.166 106.091 149.522 163.172 149.522 163.172C149.522 163.172 151.989 154.167 156.304 155.322C160.618 156.477 158.109 162.265 156.304 167.626C156.304 167.626 161.225 163.337 163.775 167.269C166.325 171.201 162.741 179.436 153.602 183.01H137.281H137.267Z" fill="#7DC8EF"/>
<path d="M145.207 181.91L130.443 130.769" stroke="#29519A" stroke-width="0.45" stroke-miterlimit="10"/>
<path d="M131.408 149.479L136.646 152.243" stroke="#29519A" stroke-width="0.45" stroke-miterlimit="10"/>
<path d="M150.349 182.048L153.588 162.086" stroke="#29519A" stroke-width="0.45" stroke-miterlimit="10"/>
<path d="M127.328 182.79C127.328 177.305 122.035 172.864 115.487 172.864C108.94 172.864 103.646 177.305 103.646 182.79H127.315H127.328Z" fill="#7DC8EF"/>
<path d="M75.4294 183.945H95.7342C95.7342 183.945 93.0324 175.38 85.5749 181.525C85.5749 181.525 101.152 164.203 97.7605 159.9C94.3695 155.597 83.2039 170.486 79.1375 178.748C79.1375 178.748 93.5011 152.284 86.8293 148.201C80.1575 144.118 73.6236 172.644 75.4156 183.959L75.4294 183.945Z" fill="#7DC8EF"/>
<path d="M3.29413 184H29.7468C29.7468 184 30.2017 175.6 26.3282 175.394C20.1527 175.064 19.8495 179.944 19.8495 179.944C19.8495 179.944 22.4272 157.962 12.8744 155.35C3.30791 152.738 8.55985 179.408 8.55985 179.408C8.55985 179.408 7.11247 172.149 1.99837 173.923C-3.11573 175.696 3.30791 184.014 3.30791 184.014L3.29413 184Z" fill="#7DC8EF"/>
<path d="M38.6104 181.718C38.6104 181.718 48.8523 186.447 65.4352 181.718C65.4352 181.718 64.4152 162.471 51.5541 162.471C38.6931 162.471 38.6104 181.718 38.6104 181.718Z" fill="#343D75"/>
<path d="M136.881 93.7598C135.971 93.856 135.268 94.7084 135.309 95.6707C135.309 95.6707 135.309 95.6845 135.309 95.6982L135.378 104.126C135.378 105.102 136.109 105.858 137.032 105.858L142.601 105.5C143.511 105.404 144.214 104.552 144.173 103.589C144.173 103.589 144.173 103.576 144.173 103.562L144.104 95.1346C144.104 94.1585 143.373 93.4023 142.45 93.4023L136.881 93.7598Z" fill="#E8A77C"/>
<path d="M139.528 90.419C138.963 89.9378 138.136 90.0616 137.653 90.6802C137.653 90.6802 137.639 90.7077 137.626 90.7215C137.308 91.4776 137.543 92.3437 138.191 92.7561L141.72 95.2307C142.285 95.7119 143.112 95.5882 143.594 94.9695C143.594 94.9695 143.608 94.942 143.622 94.9283C143.939 94.1722 143.705 93.3061 143.057 92.8936L139.528 90.419Z" fill="#E8A77C"/>
<path d="M131.409 104.304C130.513 104.758 130.086 105.885 130.471 106.834C130.485 106.875 130.513 106.93 130.54 106.971C131.092 107.865 132.222 108.099 133.104 107.508L138.039 104.524C138.935 104.071 139.363 102.943 138.977 101.995C138.963 101.953 138.935 101.898 138.908 101.857C138.356 100.964 137.226 100.73 136.344 101.321L131.409 104.304Z" fill="#E8A77C"/>
<path d="M128.555 101.912C127.452 102.283 126.777 103.493 127.011 104.676C127.383 105.624 128.679 105.83 129.947 105.225L136.247 102.118C137.336 101.734 138.011 100.537 137.791 99.3551C137.419 98.4066 136.123 98.2003 134.855 98.8052L128.555 101.912Z" fill="#E8A77C"/>
<path d="M129.327 97.3754C128.293 97.8154 127.728 99.0389 128.058 100.125C128.665 101.074 129.878 101.321 130.829 100.702L136.536 97.6366C137.584 97.2105 138.149 95.9732 137.804 94.8871C137.198 93.9385 135.985 93.691 135.033 94.3097L129.327 97.3754Z" fill="#E8A77C"/>
<g opacity="0.6">
<path d="M143.581 92.0276L141.21 91.9176L143.277 94.6534L140.755 96.2756L142.671 98.2003L141.141 100.414L143.098 101.404L140.934 103.906L143.098 105.322L143.912 104.731L144.504 100.812L144.794 95.437L143.567 92.0001L143.581 92.0276Z" fill="#1C1B19"/>
</g>
<path d="M177.808 106.036L143.636 107.04L141.389 107.507L143.691 104.277L140.865 103.259L143.098 100.895L140.92 98.9426L143.705 97.6916L140.948 95.272L143.429 93.5672L141.499 91.2714L145.635 91.835L177.918 90.9827C178.663 91.0102 179.393 91.1751 180.055 91.5051C181.682 92.4399 182.812 94.1172 183.143 96.0968C183.749 99.3001 181.695 103.383 177.808 106.023V106.036Z" fill="#71421A"/>
<path d="M168.737 95.4507L198.099 68.3814C204.054 62.9235 206.976 64.4083 209.567 67.3228C213.041 71.2684 205.018 81.0706 198.498 87.1059L177.987 105.954" fill="#71421A"/>
<path d="M415 182.598C415 177.47 411.016 173.304 406.109 173.304C401.202 173.304 397.218 177.47 397.218 182.598H414.986H415Z" fill="#7DC8EF"/>
<path d="M404.841 176.989L405.875 182.831" stroke="#29519A" stroke-width="0.45" stroke-miterlimit="10"/>
<path d="M316.246 183.175C316.246 183.175 307.727 152.408 316.246 152.229C320.712 152.133 319.872 165.413 319.872 165.413C319.872 165.413 322.821 131.58 335.986 131.923C349.15 132.267 332.567 171.984 332.567 171.984C332.567 171.984 337.226 166.485 339.845 168.932C342.464 171.38 340.08 178.666 330.996 183.189H316.246V183.175Z" fill="#7DC8EF"/>
<path d="M316.467 158.044L319.196 183.175" stroke="#29519A" stroke-width="0.45" stroke-miterlimit="10"/>
<path d="M332.208 145.493L325.247 183.175" stroke="#29519A" stroke-width="0.45" stroke-miterlimit="10"/>
<path d="M323.883 158.044L327.88 168.919" stroke="#29519A" stroke-width="0.45" stroke-miterlimit="10"/>
<path d="M330.623 154.071L335.834 149.589" stroke="#29519A" stroke-width="0.45" stroke-miterlimit="10"/>
<path d="M327.205 172.603L330.844 167.929" stroke="#29519A" stroke-width="0.45" stroke-miterlimit="10"/>
<path d="M124.268 183.216H413.676" stroke="#343D75" stroke-width="0.68" stroke-miterlimit="10"/>
<path d="M298.45 0H208.754C204.666 0 201.352 3.30528 201.352 7.38255V176.04C201.352 180.117 204.666 183.423 208.754 183.423H298.45C302.539 183.423 305.853 180.117 305.853 176.04V7.38255C305.853 3.30528 302.539 0 298.45 0Z" fill="#30B9E5"/>
<path d="M297.403 159.873C297.403 163.956 294.177 167.255 290.207 167.255H217.604C213.62 167.255 210.408 163.942 210.408 159.873V23.5499C210.408 19.4668 213.634 16.1674 217.604 16.1674H290.207C294.177 16.1674 297.403 19.4668 297.403 23.5499V159.873Z" fill="white"/>
<path d="M291.848 90.8865H258.53V146.579H291.848V90.8865Z" fill="#C5D6EA"/>
<path opacity="0.3" d="M287.817 128.519C289.399 122.167 285.519 115.739 279.15 114.161C272.781 112.583 266.335 116.453 264.753 122.805C263.171 129.157 267.052 135.585 273.421 137.163C279.789 138.741 286.235 134.871 287.817 128.519Z" fill="#EC877C"/>
<path d="M267.987 8.49616C267.987 9.47225 267.201 10.2559 266.222 10.2559H233.153C232.174 10.2559 231.389 9.47225 231.389 8.49616C231.389 7.52007 232.174 6.73645 233.153 6.73645H266.222C267.201 6.73645 267.987 7.52007 267.987 8.49616Z" fill="#343D75"/>
<path d="M272.728 10.3383C273.748 10.3383 274.575 9.51355 274.575 8.49613C274.575 7.47871 273.748 6.65393 272.728 6.65393C271.708 6.65393 270.881 7.47871 270.881 8.49613C270.881 9.51355 271.708 10.3383 272.728 10.3383Z" fill="#343D75"/>
<path d="M253.595 180.728C256.914 180.728 259.605 178.044 259.605 174.734C259.605 171.424 256.914 168.74 253.595 168.74C250.276 168.74 247.585 171.424 247.585 174.734C247.585 178.044 250.276 180.728 253.595 180.728Z" fill="#343D75"/>
<path d="M291.847 149.961H215.949V159.502H291.847V149.961Z" stroke="#343D75" stroke-width="0.45" stroke-miterlimit="10"/>
<path d="M290.621 19.1781H217.19V24.0998H290.621V19.1781Z" fill="#7DC8EF"/>
<path d="M265.312 28.2654H262.845" stroke="#343D75" stroke-width="0.45" stroke-miterlimit="10"/>
<path d="M257.909 28.2654H220.884" stroke="#343D75" stroke-width="0.45" stroke-miterlimit="10"/>
<path d="M218.417 28.2654H215.949V30.7262" stroke="#343D75" stroke-width="0.45" stroke-miterlimit="10"/>
<path d="M215.949 35.4967V61.7274" stroke="#343D75" stroke-width="0.45" stroke-miterlimit="10"/>
<path d="M215.949 64.1058V66.5667H218.417" stroke="#343D75" stroke-width="0.45" stroke-miterlimit="10"/>
<path d="M223.352 66.5667H260.377" stroke="#343D75" stroke-width="0.45" stroke-miterlimit="10"/>
<path d="M262.845 66.5667H265.312" stroke="#343D75" stroke-width="0.45" stroke-miterlimit="10"/>
<path d="M252.354 90.2678H215.949V146.579H252.354V90.2678Z" fill="#B6BDD5"/>
<path d="M252.354 77.7573H215.949V84.3288H252.354V77.7573Z" fill="#FBD901"/>
<path d="M292.165 77.7573H258.53V84.3288H292.165V77.7573Z" fill="#29519A"/>
<path d="M285.262 127.882C286.495 122.93 283.469 117.919 278.503 116.69C273.538 115.461 268.514 118.479 267.281 123.431C266.049 128.383 269.075 133.394 274.04 134.623C279.006 135.852 284.03 132.834 285.262 127.882Z" fill="#FBD901"/>
<path d="M283.99 143.114C283.99 144.297 283.894 145.451 283.701 146.579H258.53V123.152C260.088 122.768 261.715 122.575 263.396 122.575C268.924 122.575 273.941 124.747 277.636 128.28C281.551 132.02 283.99 137.285 283.99 143.114Z" fill="#29519A"/>
<path d="M291.848 127.799V146.579H260.405C262.597 137.918 269.172 130.989 277.636 128.28C280.145 127.469 282.819 127.043 285.604 127.043C287.754 127.043 289.849 127.304 291.848 127.799Z" fill="#5683C3"/>
<path opacity="0.6" d="M279.924 95.2719H271.433L269.586 86.5009H278.077L279.924 95.2719Z" fill="#B6BDD5"/>
<path d="M219.341 109.185H248.964" stroke="#343D75" stroke-width="0.45" stroke-miterlimit="10"/>
<path d="M234.159 103.039H248.964" stroke="#343D75" stroke-width="0.45" stroke-miterlimit="10"/>
<path d="M234.159 96.8805H248.964" stroke="#343D75" stroke-width="0.45" stroke-miterlimit="10"/>
<path d="M219.341 115.344H248.964" stroke="#343D75" stroke-width="0.45" stroke-miterlimit="10"/>
<path d="M219.341 121.503H248.964" stroke="#343D75" stroke-width="0.45" stroke-miterlimit="10"/>
<path d="M219.341 127.648H248.964" stroke="#343D75" stroke-width="0.45" stroke-miterlimit="10"/>
<path d="M219.341 133.807H248.964" stroke="#343D75" stroke-width="0.45" stroke-miterlimit="10"/>
<path d="M219.341 139.966H248.964" stroke="#343D75" stroke-width="0.45" stroke-miterlimit="10"/>
<path d="M231.526 93.0311H218.568V105.954H231.526V93.0311Z" fill="#5683C3"/>
<path d="M286.844 156.037C287.567 156.037 288.153 155.452 288.153 154.731C288.153 154.01 287.567 153.425 286.844 153.425C286.12 153.425 285.534 154.01 285.534 154.731C285.534 155.452 286.12 156.037 286.844 156.037Z" fill="#343D75"/>
<path d="M280.668 156.037C281.391 156.037 281.977 155.452 281.977 154.731C281.977 154.01 281.391 153.425 280.668 153.425C279.945 153.425 279.358 154.01 279.358 154.731C279.358 155.452 279.945 156.037 280.668 156.037Z" fill="#343D75"/>
<path d="M274.507 156.037C275.23 156.037 275.816 155.452 275.816 154.731C275.816 154.01 275.23 153.425 274.507 153.425C273.784 153.425 273.197 154.01 273.197 154.731C273.197 155.452 273.784 156.037 274.507 156.037Z" fill="#343D75"/>
<path d="M375.852 180.453C375.852 180.989 375.328 181.429 374.666 181.443L369.194 181.47C368.532 181.47 367.994 181.03 367.994 180.494V177.085C367.981 176.549 368.504 176.109 369.166 176.095L374.639 176.068C375.3 176.068 375.824 176.507 375.838 177.044V180.453H375.852Z" fill="#EBA87C"/>
<path d="M377.781 180.604C378.029 181.195 377.864 181.814 377.436 181.993C376.995 182.171 376.458 181.842 376.209 181.25L374.955 178.24C374.707 177.648 374.872 177.03 375.3 176.851C375.741 176.672 376.278 177.002 376.526 177.593L377.767 180.604H377.781Z" fill="#EBA87C"/>
<path d="M365.913 183.065C365.251 183.161 364.659 182.776 364.576 182.213C364.493 181.649 364.962 181.127 365.623 181.03L369.001 180.563C369.662 180.467 370.255 180.852 370.338 181.415C370.421 181.979 369.952 182.501 369.29 182.598L365.913 183.065Z" fill="#EBA87C"/>
<path d="M368.655 183.849C367.939 184.096 367.194 183.849 367.015 183.285C366.822 182.735 367.249 182.075 367.966 181.842L371.647 180.59C372.364 180.343 373.108 180.59 373.287 181.154C373.48 181.704 373.053 182.364 372.336 182.598L368.655 183.849Z" fill="#EBA87C"/>
<path d="M372.116 183.546C371.523 183.849 370.848 183.725 370.614 183.258C370.379 182.79 370.669 182.171 371.261 181.869L374.308 180.316C374.901 180.013 375.576 180.151 375.81 180.604C376.045 181.072 375.755 181.69 375.162 181.993L372.116 183.546Z" fill="#EBA87C"/>
<path d="M358.8 180.481C358.8 181.017 358.276 181.457 357.614 181.47L352.142 181.498C351.48 181.498 350.956 181.058 350.943 180.522V177.112C350.929 176.576 351.453 176.136 352.114 176.122L357.587 176.095C358.249 176.095 358.772 176.535 358.786 177.071V180.481H358.8Z" fill="#EBA87C"/>
<path d="M360.744 180.646C360.992 181.237 360.84 181.855 360.399 182.034C359.972 182.213 359.42 181.883 359.172 181.292L357.932 178.281C357.683 177.69 357.849 177.071 358.276 176.892C358.703 176.714 359.255 177.044 359.503 177.635L360.744 180.646Z" fill="#EBA87C"/>
<path d="M348.861 183.106C348.2 183.203 347.607 182.818 347.524 182.254C347.441 181.69 347.91 181.168 348.572 181.072L351.949 180.604C352.611 180.508 353.203 180.893 353.286 181.457C353.369 182.02 352.886 182.543 352.238 182.639L348.861 183.106Z" fill="#EBA87C"/>
<path d="M351.618 183.876C350.902 184.124 350.157 183.876 349.978 183.313C349.785 182.763 350.212 182.103 350.929 181.869L354.61 180.618C355.326 180.371 356.057 180.618 356.25 181.182C356.443 181.732 356.016 182.391 355.299 182.625L351.618 183.876Z" fill="#EBA87C"/>
<path d="M355.078 183.588C354.485 183.89 353.81 183.766 353.575 183.299C353.341 182.831 353.631 182.213 354.223 181.91L357.27 180.357C357.862 180.054 358.538 180.192 358.772 180.646C359.007 181.113 358.717 181.732 358.124 182.034L355.078 183.588Z" fill="#EBA87C"/>
<path d="M366.987 178.35L367.456 175.806L367.553 155.927L367.663 131.758C367.69 126.878 369.868 126.136 372.556 126.149C376.196 126.163 377.395 133.738 377.367 139.141L377.285 155.982L377.229 177.016L377.464 178.405L375.41 176.989L374.679 178.721L373.177 177.36L371.881 178.707L371.109 177.002L369.524 178.693L368.476 177.181L366.974 178.363L366.987 178.35Z" fill="#71421A"/>
<path d="M350.226 178.281L350.694 175.738L350.791 155.858L350.901 131.69C350.929 126.809 353.107 126.067 355.795 126.081C359.434 126.094 360.633 133.669 360.606 139.072L360.523 155.913L360.468 176.947L360.702 178.336L358.648 176.92L357.918 178.652L356.415 177.291L355.119 178.638L354.347 176.934L352.762 178.625L351.714 177.112L350.212 178.295L350.226 178.281Z" fill="#71421A"/>
<g style="mix-blend-mode:multiply" opacity="0.5">
<path d="M345.388 110.889C348.641 104.043 354.748 97.3203 361.929 97.3615H366.037C376.513 97.4303 384.963 107.384 384.908 119.605L384.853 131.415C384.798 143.636 376.252 153.507 365.775 153.466H361.667C357.711 153.425 354.058 151.995 351.026 149.576C351.067 148.531 351.329 146.276 349.909 146.125V145.396C349.909 144.915 349.537 144.503 349.054 144.434C348.958 143.788 348.793 143.155 348.613 142.482C348.531 142.138 348.269 141.918 347.965 141.836C347.993 141.492 348.034 141.162 348.076 140.873C348.255 139.663 346.284 139.113 346.174 140.351C346.077 141.533 344.133 115.399 344.96 113.625L342.989 111.013C342.989 111.013 345.098 110.821 345.388 110.889Z" fill="#1D1E1B"/>
</g>
<path d="M344.023 130.645C343.968 142.867 352.266 152.82 362.549 152.875H366.588C376.871 152.944 385.266 143.073 385.321 130.837L385.377 119.028C385.432 106.806 377.133 96.853 366.85 96.798H362.811C352.528 96.7292 344.133 106.6 344.078 118.836L344.023 130.645Z" fill="#71421A"/>
<path d="M347.827 134.247C347.8 142.468 353.079 149.177 359.627 149.218H362.191C368.739 149.273 374.073 142.633 374.101 134.412L374.128 126.466C374.156 118.231 368.876 111.535 362.329 111.494H359.765C353.217 111.439 347.882 118.079 347.855 126.314L347.827 134.261V134.247Z" fill="#EBA87C"/>
<g style="mix-blend-mode:multiply" opacity="0.5">
<path d="M387.652 111.054L382.51 117.213L375.935 111.439C375.935 111.439 378.292 109.996 379.105 110.559L383.833 115.509L387.652 111.068V111.054Z" fill="#1D1E1B"/>
</g>
<g style="mix-blend-mode:multiply" opacity="0.5">
<path d="M376.734 111.728L361.529 115.99L350.474 106.834L345.856 108.277L344.809 108.69C344.946 108.332 345.153 107.796 345.443 107.15C345.636 106.724 345.815 106.353 345.856 106.284C346.518 105.06 351.797 105.899 352.955 106.091C356.429 109.198 359.903 112.305 363.39 115.399L376.72 111.728H376.734Z" fill="#1D1E1B"/>
</g>
<path d="M376.982 49.3681C376.982 49.3681 375.355 51.4578 376.899 51.8152C383.378 53.2725 399.478 58.0155 399.368 69.1924C399.216 84.6311 394.075 106.971 394.075 106.971L392.393 106.353L393.744 110.394L390.546 109.02L390.587 112.842L387.555 110.807L383.364 115.687L378.967 111.096L363.459 115.412L353.534 106.545L346.793 108.58L344.74 103.369L341.859 103.947L343.223 99.9599L339.915 99.5337L342.493 95.4231L339.088 96.7567C339.088 96.7567 342.755 71.1446 347 59.349C350.322 50.1105 361.515 49.6706 368.311 50.3442C368.945 50.413 370.338 48.9282 370.889 48.9969C370.889 48.9969 371.468 51.0866 371.95 50.8391C373.591 49.973 377.009 49.3819 377.009 49.3819L376.982 49.3681Z" fill="#71421A"/>
<g filter="url(#filter0_d_1005_2072)">
<path d="M348.558 69.6324C348.558 69.6324 350.694 60.3389 358.262 61.1912C366.602 62.1398 369.276 66.7041 370.13 69.3711C371.867 67.0203 376.03 63.4046 384.136 65.8517C392.145 68.2713 391.056 77.4548 391.056 77.4548C391.056 77.4548 389.636 88.0956 383.708 89.0304L382.619 94.6808C382.619 94.6808 379.256 105.322 364.961 103.507C364.713 103.479 364.479 103.452 364.231 103.411C363.996 103.369 363.762 103.342 363.514 103.287C349.357 100.551 349.66 89.4704 349.66 89.4704L350.653 83.7513C345.938 80.7955 348.558 69.6186 348.558 69.6186V69.6324Z" fill="#EBA87C"/>
</g>
<path d="M371.661 81.7854C371.827 80.8093 372.75 80.1494 373.729 80.3143C374.707 80.4793 375.369 81.4004 375.204 82.3765C375.038 83.3526 374.115 84.0125 373.136 83.8475C372.157 83.6825 371.496 82.7614 371.661 81.7854Z" fill="#71421A"/>
<path d="M356.925 78.6372C357.077 77.7161 357.959 77.0837 358.896 77.2349C359.82 77.3861 360.454 78.266 360.302 79.2008C360.151 80.1357 359.269 80.7543 358.331 80.6031C357.394 80.4519 356.774 79.572 356.925 78.6372Z" fill="#71421A"/>
<path d="M377.257 93.4847C377.257 93.4847 362.48 101.018 355.133 88.1643C361.033 94.1721 377.271 93.4709 377.271 93.4709L377.257 93.4847Z" fill="#432918"/>
<path d="M362.356 86.5421C362.356 86.5421 363.184 88.0544 364.107 87.092L364.383 85.8685L362.37 85.4148V86.5421H362.356Z" fill="#432918"/>
<path d="M367.361 87.6419C367.361 87.6419 365.968 88.6592 365.541 87.3944L365.803 86.1709L367.829 86.6108L367.361 87.6419Z" fill="#432918"/>
<path d="M358.111 29.0902H266.512V66.0854H358.111V29.0902Z" fill="#7DC8EF"/>
<path d="M353.354 37.5588H308.94V40.8308H353.354V37.5588Z" fill="#1699D5"/>
<path d="M308.94 45.3401H353.341" stroke="#343D75" stroke-width="0.45" stroke-miterlimit="10"/>
<path d="M308.94 51.2928H353.341" stroke="#343D75" stroke-width="0.45" stroke-miterlimit="10"/>
<path d="M308.94 57.2319H353.341" stroke="#343D75" stroke-width="0.45" stroke-miterlimit="10"/>
<path d="M301.676 47.5946C301.676 50.6054 300.546 53.355 298.671 55.4446C296.507 57.8642 293.35 59.3902 289.849 59.3902C286.347 59.3902 283.191 57.8642 281.027 55.4446C279.166 53.3687 278.021 50.6054 278.021 47.5946C278.021 41.0782 283.315 35.7991 289.849 35.7991C296.383 35.7991 301.676 41.0782 301.676 47.5946Z" fill="#1699D5"/>
<path d="M292.992 50.0693C294.233 49.1344 295.032 47.6497 295.032 45.9724C295.032 43.1266 292.717 40.817 289.863 40.817C287.01 40.817 284.694 43.1266 284.694 45.9724C284.694 47.6497 285.493 49.1344 286.734 50.0693C284.156 50.9491 282.075 52.9288 281.041 55.4309C283.205 57.8505 286.362 59.3765 289.863 59.3765C293.364 59.3765 296.521 57.8505 298.685 55.4309C297.651 52.915 295.57 50.9491 292.992 50.0693Z" fill="#FBD901"/>
<g style="mix-blend-mode:multiply" opacity="0.5">
<path d="M381.131 119.605C380.345 119.22 379.201 118.616 377.947 117.681C377.396 117.282 376.224 116.347 374.818 114.766C372.902 112.594 369.083 107.507 364.424 100.565C363.432 99.5062 362.412 98.2964 361.405 96.9354C360.923 96.2892 360.468 95.6431 360.054 95.0244C357.587 89.7178 355.244 83.8062 353.231 77.3036C352.638 75.3789 352.087 73.4817 351.604 71.6257C351.729 71.7495 351.922 71.9557 352.17 72.2169C363.184 83.7375 363.611 93.9658 371.661 106.119C373.343 108.662 376.155 112.47 380.483 116.636C380.704 117.626 380.924 118.629 381.131 119.619V119.605Z" fill="#1D1E1B"/>
</g>
<path d="M313.131 64.7932C312.607 64.4907 311.904 64.697 311.574 65.2606L308.803 69.9761C308.472 70.5398 308.624 71.2546 309.147 71.5571L312.483 73.5093C313.007 73.8117 313.71 73.6055 314.041 73.0418L316.812 68.3264C317.142 67.7627 316.991 67.0478 316.467 66.7454L313.131 64.7932Z" fill="#E8A97D"/>
<path d="M315.805 63.982C315.57 63.4459 315.047 63.1847 314.619 63.4046C314.192 63.6246 314.04 64.2295 314.261 64.7656L315.433 67.5152C315.667 68.0514 316.191 68.3126 316.618 68.0926C317.045 67.8864 317.197 67.2677 316.976 66.7316L315.805 63.982Z" fill="#E8A97D"/>
<path d="M306.473 68.5188C305.715 68.4638 305.095 68.9588 305.054 69.6324C305.026 70.306 305.605 70.8834 306.363 70.9247L310.209 71.1859C310.967 71.2409 311.601 70.746 311.629 70.0723C311.657 69.4124 311.078 68.8213 310.319 68.78L306.473 68.5326V68.5188Z" fill="#E8A97D"/>
<path d="M305.66 66.1129C304.75 65.9755 303.937 66.4016 303.854 67.0615C303.757 67.7214 304.433 68.3676 305.343 68.5051L310.002 69.2062C310.912 69.3437 311.725 68.9175 311.808 68.2576C311.904 67.5977 311.229 66.9516 310.319 66.8141L305.66 66.1129Z" fill="#E8A97D"/>
<path d="M307.604 63.8995C306.763 63.7895 306.019 64.2432 305.95 64.9031C305.867 65.563 306.501 66.1816 307.328 66.2916L311.629 66.8278C312.47 66.9378 313.214 66.4841 313.283 65.8104C313.366 65.1505 312.732 64.5319 311.905 64.4219L307.604 63.8858V63.8995Z" fill="#E8A97D"/>
<g style="mix-blend-mode:multiply" opacity="0.6">
<path d="M309.809 72.4507L308.981 71.0897L311.215 71.4608L311.297 69.4674L313.034 70.0448L313.765 68.4226L315.033 69.3299L315.681 67.254L317.238 68.1339L317.211 68.8075L315.171 70.3198L312.221 72.162L309.809 72.4507Z" fill="#1C1B19"/>
</g>
<path d="M329.672 88.838L318.369 67.9276L317.831 66.4429L316.77 68.8212L315.198 67.4465L314.606 69.5086L312.745 68.7662L312.979 70.8284L310.677 69.8798L310.567 71.8732L308.609 71.4058L310.374 73.7154L321.084 93.4572C321.277 93.7734 321.594 94.2133 322.118 94.5845C323.635 95.6569 325.496 95.1482 325.785 95.0657C327.894 94.4883 329.507 91.9725 329.658 88.8242L329.672 88.838Z" fill="#71421A"/>
<path d="M321.554 93.6771L340.439 113.433C344.243 117.42 346.421 116.54 348.365 114.684C350.998 112.182 345.98 105.156 341.762 100.73L328.598 86.9545" fill="#71421A"/>
<path d="M356.842 64.5868C356.36 64.2157 355.629 64.3394 355.243 64.8618L351.921 69.2061C351.521 69.7285 351.59 70.4571 352.087 70.8283L355.161 73.1655C355.643 73.5366 356.36 73.4129 356.76 72.8905L360.082 68.5462C360.481 68.0238 360.412 67.2952 359.93 66.924L356.856 64.5868H356.842Z" fill="#E8A97D"/>
<path d="M358.703 63.4458C358.482 62.9096 357.959 62.6484 357.531 62.8546C357.104 63.0609 356.939 63.6657 357.159 64.2157L358.303 66.9652C358.524 67.5014 359.048 67.7763 359.475 67.5564C359.902 67.3501 360.068 66.7315 359.847 66.2091L358.703 63.4595V63.4458Z" fill="#E8A97D"/>
<path d="M352.059 66.869C351.425 66.4565 350.625 66.594 350.281 67.1577C349.922 67.7213 350.157 68.5187 350.791 68.9174L354.03 70.9933C354.664 71.4057 355.464 71.2683 355.808 70.7046C356.167 70.1409 355.932 69.3436 355.298 68.9449L352.059 66.869Z" fill="#E8A97D"/>
<path d="M353.037 65.0956C352.265 64.5869 351.355 64.6419 350.997 65.2056C350.639 65.7692 350.969 66.6354 351.741 67.144L355.684 69.7286C356.442 70.2373 357.366 70.1823 357.71 69.6186C358.069 69.055 357.738 68.1888 356.966 67.6802L353.037 65.0956Z" fill="#E8A97D"/>
<path d="M353.947 62.8822C353.244 62.401 352.389 62.456 352.017 63.0197C351.645 63.5696 351.907 64.4082 352.596 64.8894L356.166 67.3365C356.869 67.8176 357.738 67.7626 358.096 67.199C358.468 66.6491 358.206 65.8105 357.517 65.3293L353.947 62.8822Z" fill="#E8A97D"/>
<g style="mix-blend-mode:multiply" opacity="0.6">
<path d="M352.127 71.887L351.466 70.4435L353.63 71.0759L353.961 69.0962L355.615 69.8798L356.525 68.3538L357.683 69.4124L358.579 67.4327L360.012 68.4776L359.902 69.1512L357.71 70.416L354.554 71.887H352.127Z" fill="#1C1B19"/>
</g>
<path d="M369.91 90.5152L361.171 68.4088L360.812 66.869L359.475 69.1099L358.083 67.5564L357.256 69.5361L355.491 68.5737V70.6497L353.3 69.4398L352.955 71.4195L351.066 70.7184L352.555 73.2205L360.854 94.0896C361.005 94.4333 361.267 94.9007 361.749 95.3406C363.128 96.5779 365.03 96.303 365.334 96.248C367.498 95.918 369.4 93.6222 369.924 90.5152H369.91Z" fill="#71421A"/>
<path d="M361.267 94.3646L377.67 116.224C380.979 120.637 383.239 120.018 385.403 118.396C388.326 116.21 384.177 108.648 380.51 103.768L369.083 88.5355" fill="#71421A"/>
<defs>
<filter id="filter0_d_1005_2072" x="347.832" y="61.136" width="43.8734" height="43.1791" filterUnits="userSpaceOnUse" color-interpolation-filters="sRGB">
<feFlood flood-opacity="0" result="BackgroundImageFix"/>
<feColorMatrix in="SourceAlpha" type="matrix" values="0 0 0 0 0 0 0 0 0 0 0 0 0 0 0 0 0 0 127 0" result="hardAlpha"/>
<feOffset dx="0.6" dy="0.6"/>
<feColorMatrix type="matrix" values="0 0 0 0 0.00392157 0 0 0 0 0.00392157 0 0 0 0 0.00392157 0 0 0 0.42 0"/>
<feBlend mode="normal" in2="BackgroundImageFix" result="effect1_dropShadow_1005_2072"/>
<feBlend mode="normal" in="SourceGraphic" in2="effect1_dropShadow_1005_2072" result="shape"/>
</filter>
</defs>
</svg>
