<svg width="180" height="33" viewBox="0 0 180 33" fill="none" xmlns="http://www.w3.org/2000/svg">
<path d="M85.748 16.7581C85.748 15.8497 86.0173 14.9617 86.5219 14.2064C87.0264 13.451 87.7435 12.8622 88.5826 12.5143C89.4217 12.1665 90.3451 12.0751 91.2361 12.2519C92.1271 12.4287 92.9457 12.8656 93.5884 13.5075C94.2311 14.1494 94.6691 14.9674 94.847 15.8581C95.025 16.7489 94.9349 17.6724 94.5881 18.512C94.2413 19.3515 93.6534 20.0694 92.8987 20.5749C92.144 21.0804 91.2564 21.3509 90.3481 21.3521C89.1291 21.3521 87.96 20.8682 87.0975 20.0069C86.235 19.1455 85.7496 17.977 85.748 16.7581Z" fill="#00214B"/>
<path d="M107.213 16.7574C107.213 15.8872 107.471 15.0365 107.954 14.3129C108.438 13.5893 109.125 13.0254 109.929 12.6924C110.733 12.3593 111.618 12.2722 112.471 12.442C113.325 12.6117 114.109 13.0308 114.724 13.6462C115.34 14.2615 115.759 15.0455 115.928 15.899C116.098 16.7525 116.011 17.6372 115.678 18.4412C115.345 19.2452 114.781 19.9324 114.057 20.4159C113.334 20.8994 112.483 21.1574 111.613 21.1574C110.446 21.1574 109.327 20.6939 108.502 19.8687C107.676 19.0435 107.213 17.9244 107.213 16.7574Z" fill="#00214B"/>
<path d="M2.42403 13.2563C2.41739 14.6581 2.70065 16.0462 3.25603 17.3333C4.33373 19.8688 6.35046 21.8891 8.88403 22.9713C10.168 23.5193 11.5495 23.8018 12.9455 23.8018C14.3415 23.8018 15.7231 23.5193 17.007 22.9713C18.7978 22.2028 20.3432 20.9576 21.475 19.3713H24.349C23.7553 20.4941 22.9965 21.5215 22.098 22.4193C20.9134 23.6011 19.5149 24.5469 17.977 25.2063C16.3888 25.882 14.6805 26.2303 12.9545 26.2303C11.2285 26.2303 9.52027 25.882 7.93203 25.2063C4.82469 23.8786 2.34922 21.4034 1.02103 18.2963C0.347239 16.7077 0 14.9998 0 13.2743C0 11.5488 0.347239 9.84085 1.02103 8.2523C2.35031 5.14565 4.82539 2.67057 7.93203 1.3413C9.52077 0.667532 11.2288 0.320312 12.9545 0.320312C14.6802 0.320312 16.3883 0.667532 17.977 1.3413C19.5147 2.00211 20.913 2.94849 22.098 4.1303C22.9967 5.02788 23.7555 6.05534 24.349 7.1783H21.44C21.1154 6.7115 20.7442 6.27894 20.332 5.8873C19.3843 4.91108 18.2548 4.12974 17.007 3.5873C15.7297 3.0268 14.3489 2.74096 12.954 2.7483C11.5544 2.74189 10.1686 3.02552 8.88403 3.5813C6.35631 4.66345 4.34133 6.67592 3.25603 9.2023C2.69944 10.4827 2.41607 11.8652 2.42403 13.2613" fill="#00214B"/>
<path d="M26.8428 1.14844H29.3369V9.60144C29.6211 9.22668 29.9528 8.89052 30.3239 8.60144C30.7174 8.29496 31.1477 8.03898 31.6048 7.83944C32.0792 7.63189 32.572 7.4695 33.0768 7.35444C33.5768 7.24024 34.088 7.18221 34.6008 7.18144C35.6381 7.17589 36.665 7.38849 37.6149 7.80544C39.48 8.60927 40.967 10.0962 41.7708 11.9614C42.1873 12.9111 42.3999 13.9375 42.3949 14.9744V15.0094L42.4288 25.4004H39.9359L39.9008 15.0094V14.9744C39.9061 14.2755 39.7708 13.5827 39.5029 12.9371C39.2351 12.2916 38.8403 11.7064 38.3418 11.2164C37.8497 10.7392 37.2733 10.3574 36.6418 10.0904C35.996 9.81413 35.3003 9.67323 34.5979 9.67644C33.9088 9.67499 33.2283 9.8288 32.6069 10.1264C31.9831 10.4176 31.4191 10.8225 30.9438 11.3204C30.47 11.8188 30.0836 12.3936 29.8009 13.0204C29.5144 13.6454 29.3667 14.325 29.3678 15.0124V25.3964H26.8398L26.8428 1.14844Z" fill="#00214B"/>
<path d="M44.7129 2.60532C44.721 2.27863 44.8416 1.96474 45.0543 1.71662C45.2669 1.46849 45.5587 1.30131 45.8803 1.24328C46.2019 1.18524 46.5336 1.23991 46.8196 1.39805C47.1056 1.55619 47.3283 1.80813 47.4501 2.11137C47.5719 2.41461 47.5854 2.75058 47.4883 3.06262C47.3912 3.37465 47.1895 3.64365 46.9171 3.82422C46.6447 4.0048 46.3184 4.08591 45.9932 4.05386C45.668 4.02182 45.3638 3.87858 45.1319 3.64832C44.9954 3.51265 44.8882 3.35047 44.8168 3.17177C44.7455 2.99308 44.7115 2.80166 44.7169 2.60932M44.9239 8.08232H47.3489V25.3963H44.9239V8.08232Z" fill="#00214B"/>
<path d="M49.8418 8.0774H52.3358V9.6354C52.9329 8.86241 53.7125 8.24975 54.6048 7.8524C55.542 7.40639 56.5669 7.17543 57.6048 7.1764C58.9016 7.15926 60.1779 7.50083 61.2928 8.16339C62.3858 8.81831 63.3158 9.71278 64.0128 10.7794C64.7169 9.68262 65.6879 8.78251 66.8348 8.16339C68.0163 7.50797 69.3467 7.16804 70.6978 7.1764C71.7347 7.17135 72.7612 7.38393 73.7108 7.8004C74.6345 8.20013 75.4748 8.77004 76.1878 9.4804C77.6428 10.9505 78.458 12.936 78.4558 15.0044L78.4908 25.3954H75.9928L75.9578 15.0044C75.9629 14.2903 75.8216 13.5828 75.5428 12.9254C75.2759 12.2939 74.8941 11.7175 74.4168 11.2254C73.9424 10.7393 73.3774 10.3507 72.7538 10.0814C72.1012 9.80815 71.4008 9.66743 70.6933 9.66743C69.9858 9.66743 69.2854 9.80815 68.6328 10.0814C68.0057 10.3534 67.4356 10.7415 66.9528 11.2254C66.4657 11.7131 66.0776 12.2903 65.8098 12.9254C65.5306 13.5827 65.3891 14.2903 65.3938 15.0044L65.4288 25.3954H62.9348L62.8998 15.0044C62.8607 14.2704 62.6914 13.5491 62.3998 12.8744C62.1286 12.2412 61.7409 11.6645 61.2568 11.1744C60.7852 10.7022 60.2266 10.326 59.6118 10.0664C58.9762 9.79822 58.2927 9.66213 57.6028 9.6664C56.9022 9.66226 56.2097 9.81608 55.5768 10.1164C54.9497 10.4103 54.3806 10.8148 53.8968 11.3104C53.4151 11.8024 53.0277 12.3786 52.7538 13.0104C52.4782 13.6383 52.3365 14.3167 52.3378 15.0024L52.3728 25.3934H49.8788L49.8418 8.0774Z" fill="#00214B"/>
<path d="M80.8401 16.7379C80.8312 15.4645 81.0848 14.203 81.5851 13.0319C82.5536 10.746 84.3732 8.92642 86.6591 7.95791C87.8327 7.46615 89.0925 7.21289 90.3651 7.21289C91.6376 7.21289 92.8974 7.46615 94.0711 7.95791C96.3564 8.92722 98.1757 10.7466 99.1451 13.0319C99.6368 14.2056 99.8901 15.4654 99.8901 16.7379C99.8901 18.0104 99.6368 19.2702 99.1451 20.4439C98.1757 22.7293 96.3564 24.5486 94.0711 25.5179C92.9 26.0184 91.6385 26.2723 90.3651 26.2639C88.9492 26.2383 87.5598 25.8756 86.3121 25.2059C85.075 24.6314 84.0204 23.7269 83.2641 22.5919V32.2919H80.8401V16.7379ZM83.2641 16.7379C83.2595 17.6841 83.4483 18.6213 83.8191 19.4919C84.5369 21.2043 85.8987 22.5661 87.6111 23.2839C88.4828 23.6502 89.419 23.8389 90.3646 23.8389C91.3102 23.8389 92.2463 23.6502 93.1181 23.2839C94.831 22.5666 96.1933 21.2047 96.9111 19.4919C97.2767 18.6198 97.4651 17.6836 97.4651 16.7379C97.4651 15.7922 97.2767 14.856 96.9111 13.9839C96.1933 12.2712 94.831 10.9092 93.1181 10.1919C92.2463 9.8256 91.3102 9.63692 90.3646 9.63692C89.419 9.63692 88.4828 9.8256 87.6111 10.1919C85.8987 10.9097 84.5369 12.2715 83.8191 13.9839C83.4482 14.8545 83.2593 15.7917 83.2641 16.7379Z" fill="#00214B"/>
<path d="M102.072 16.7027C102.064 15.4294 102.317 14.1678 102.817 12.9967C103.787 10.711 105.607 8.8912 107.892 7.92074C109.066 7.43028 110.326 7.17773 111.598 7.17773C112.871 7.17773 114.13 7.43028 115.304 7.92074C117.589 8.89168 119.408 10.7114 120.378 12.9967C120.878 14.168 121.131 15.4295 121.122 16.7027V25.3967H118.698V23.0757L118.317 23.4567C117.452 24.3186 116.429 25.0064 115.304 25.4827C114.131 25.9745 112.871 26.2278 111.598 26.2278C110.326 26.2278 109.066 25.9745 107.892 25.4827C105.607 24.5138 103.787 22.6944 102.817 20.4087C102.317 19.2376 102.064 17.9761 102.072 16.7027ZM104.497 16.7027C104.493 17.6489 104.682 18.5859 105.051 19.4567C105.77 21.1689 107.132 22.5306 108.844 23.2487C109.716 23.6144 110.652 23.8027 111.598 23.8027C112.543 23.8027 113.48 23.6144 114.351 23.2487C115.199 22.892 115.969 22.3748 116.62 21.7257C117.267 21.0782 117.784 20.3136 118.144 19.4727C118.467 18.6904 118.654 17.8589 118.698 17.0137V16.7027C118.703 15.7566 118.515 14.8194 118.144 13.9487C117.426 12.2365 116.064 10.8746 114.351 10.1557C113.48 9.79008 112.543 9.60176 111.598 9.60176C110.652 9.60176 109.716 9.79008 108.844 10.1557C107.132 10.8746 105.77 12.2365 105.051 13.9487C104.681 14.8194 104.493 15.7566 104.497 16.7027Z" fill="#00214B"/>
<path d="M136.673 15.0049C136.678 14.2911 136.537 13.5839 136.258 12.9269C135.717 11.6465 134.698 10.6275 133.417 10.0859C132.772 9.80923 132.077 9.66798 131.374 9.67085C130.668 9.66846 129.97 9.82248 129.33 10.1219C128.695 10.4125 128.119 10.8172 127.63 11.3159C127.145 11.8137 126.751 12.3941 126.469 13.0299C126.186 13.65 126.039 14.3232 126.036 15.0049L126.071 25.3959H123.611V8.07785H126.035V9.67085C126.288 9.27838 126.606 8.93231 126.975 8.64785C127.375 8.33044 127.812 8.06188 128.275 7.84785C128.758 7.62577 129.263 7.45807 129.782 7.34785C131.327 7.00976 132.939 7.16686 134.389 7.79685C136.26 8.60184 137.749 10.0967 138.546 11.9709C138.961 12.9274 139.173 13.9594 139.169 15.0019L139.204 25.3929H136.711L136.673 15.0049Z" fill="#00214B"/>
<path d="M143.74 16.7027C143.735 17.6489 143.924 18.586 144.294 19.4567C145.013 21.1686 146.374 22.5302 148.086 23.2487C148.958 23.6144 149.894 23.8027 150.84 23.8027C151.785 23.8027 152.721 23.6144 153.593 23.2487C154.441 22.8922 155.212 22.375 155.863 21.7257C156.331 21.2543 156.727 20.7173 157.04 20.1317H159.712L159.612 20.4087C159.142 21.5419 158.453 22.5717 157.586 23.4397C156.716 24.3083 155.687 25.0018 154.555 25.4827C153.382 25.9744 152.122 26.2277 150.85 26.2277C149.577 26.2277 148.318 25.9744 147.144 25.4827C144.858 24.5139 143.039 22.6944 142.069 20.4087C141.577 19.235 141.324 17.9752 141.324 16.7027C141.324 15.4302 141.577 14.1704 142.069 12.9967C143.039 10.711 144.859 8.89116 147.144 7.9207C148.318 7.43027 149.578 7.17773 150.85 7.17773C152.122 7.17773 153.381 7.43027 154.555 7.9207C155.687 8.40189 156.716 9.09615 157.586 9.9657C158.453 10.8337 159.142 11.8635 159.612 12.9967L159.712 13.2377H157.012C156.713 12.6633 156.328 12.1379 155.87 11.6797C155.219 11.0301 154.448 10.5126 153.6 10.1557C152.728 9.79004 151.792 9.60172 150.847 9.60172C149.901 9.60172 148.965 9.79004 148.093 10.1557C146.382 10.8751 145.02 12.2368 144.301 13.9487C143.93 14.8192 143.742 15.7565 143.747 16.7027" fill="#00214B"/>
<path d="M99.6906 7.56032C99.6906 7.56032 99.3486 7.39532 98.7486 7.13132C98.1486 6.86732 97.2866 6.50632 96.2486 6.12232C95.0742 5.68722 93.8713 5.33306 92.6485 5.06232C91.9699 4.91348 91.283 4.80463 90.5916 4.73632C89.8885 4.66384 89.1806 4.6518 88.4756 4.70032C87.7808 4.73905 87.0929 4.85818 86.4256 5.05532C86.1005 5.15057 85.7804 5.26204 85.4666 5.38932C85.1556 5.51332 84.8666 5.67632 84.5726 5.82132C84.0272 6.145 83.5121 6.51717 83.0336 6.93332C82.8166 7.14732 82.5875 7.34332 82.3925 7.55732L81.8266 8.18732C81.6576 8.39932 81.5105 8.61632 81.3555 8.81432C81.2048 8.9987 81.0678 9.19389 80.9456 9.39832C80.7126 9.78132 80.4695 10.0983 80.3255 10.3933C80.0065 10.9653 79.8105 11.2933 79.8105 11.2933C79.8105 11.2933 79.9006 10.9283 80.0826 10.2873C80.1973 9.90254 80.3356 9.52516 80.4966 9.15732C80.6985 8.67102 80.9344 8.19952 81.2025 7.74632L81.7025 6.98832C81.8825 6.72632 82.1136 6.48832 82.3296 6.22932C82.5657 5.97161 82.8147 5.72596 83.0755 5.49332C83.3365 5.24532 83.6545 5.05332 83.9525 4.82332C84.6014 4.39747 85.3047 4.0611 86.0435 3.82332C86.8023 3.58187 87.5866 3.42984 88.3806 3.37032C89.165 3.33111 89.9513 3.36055 90.7305 3.45832C91.4751 3.55547 92.2107 3.71163 92.9306 3.92532C93.5982 4.1156 94.2531 4.34773 94.8916 4.62032C95.4986 4.87732 96.0586 5.15032 96.5596 5.42032C97.3705 5.8536 98.1477 6.34733 98.8846 6.89732C99.4146 7.29732 99.6936 7.55232 99.6936 7.55232" fill="#00214B"/>
<path d="M122.013 11.2938C122.013 11.2938 121.923 10.8938 121.786 10.2068C121.653 9.88179 121.531 9.49179 121.339 9.06779C121.103 8.59772 120.824 8.15105 120.505 7.7338C120.339 7.48678 120.146 7.25991 119.928 7.0578C119.701 6.8498 119.507 6.5978 119.248 6.40079L118.448 5.8008L117.548 5.2868L117.317 5.1558L117.067 5.0558L116.567 4.8558C116.396 4.7928 116.232 4.7158 116.057 4.6628L115.519 4.5288C114.792 4.33966 114.05 4.2198 113.301 4.1708H112.161C111.971 4.1708 111.782 4.1598 111.593 4.1808L111.029 4.2528C110.655 4.3048 110.283 4.3458 109.913 4.3848L108.836 4.6328C108.149 4.78151 107.473 4.97594 106.813 5.2148C106.494 5.3228 106.176 5.4148 105.881 5.5278L105.03 5.8848C104.491 6.1278 103.963 6.2968 103.53 6.5228L102.4 7.08179C101.766 7.38679 101.393 7.5518 101.393 7.5518C101.393 7.5518 101.701 7.2948 102.259 6.8578C102.538 6.6408 102.878 6.37479 103.277 6.08179C103.731 5.76281 104.202 5.46839 104.688 5.19979L105.513 4.7168C105.803 4.5548 106.126 4.4378 106.447 4.2908L107.447 3.8548C107.799 3.71148 108.161 3.59351 108.531 3.5018L109.669 3.1698C110.064 3.0978 110.469 3.0358 110.875 2.9778L111.488 2.8888C111.693 2.8618 111.904 2.8728 112.113 2.8628L113.375 2.8418C114.216 2.912 115.048 3.06235 115.861 3.2908L116.461 3.4598C116.655 3.5318 116.841 3.6288 117.029 3.7098C117.217 3.7908 117.402 3.8818 117.586 3.9658L117.86 4.0938L118.114 4.2568C118.448 4.4778 118.787 4.6788 119.091 4.9098L119.922 5.6698C120.166 5.92579 120.394 6.19664 120.606 6.4808C120.813 6.73699 120.992 7.01495 121.14 7.3098C121.427 7.80417 121.652 8.33218 121.81 8.8818C121.912 9.30836 121.991 9.74038 122.046 10.1758C122.031 10.8808 122.011 11.2848 122.011 11.2848" fill="#00214B"/>
<path d="M163.068 16.6842C163.063 17.63 163.252 18.5668 163.622 19.4372C164.341 21.1494 165.703 22.5113 167.415 23.2302C168.287 23.5965 169.223 23.7852 170.168 23.7852C171.114 23.7852 172.05 23.5965 172.922 23.2302C173.769 22.8734 174.54 22.3559 175.191 21.7062C175.659 21.2358 176.056 20.6991 176.368 20.1132H179.035L178.935 20.3902C178.464 21.5233 177.775 22.553 176.908 23.4212C176.038 24.2899 175.009 24.9835 173.878 25.4642C172.704 25.9566 171.444 26.2102 170.171 26.2102C168.899 26.2102 167.639 25.9566 166.465 25.4642C164.18 24.4949 162.36 22.6755 161.391 20.3902C160.9 19.2162 160.646 17.9563 160.646 16.6837C160.646 15.4111 160.9 14.1511 161.391 12.9772C162.36 10.6919 164.179 8.87274 166.465 7.90419C167.639 7.4118 168.899 7.1582 170.171 7.1582C171.444 7.1582 172.704 7.4118 173.878 7.90419C175.009 8.38571 176.037 9.0788 176.908 9.94619C177.775 10.8147 178.463 11.8444 178.935 12.9772C179.349 13.9204 179.595 14.9285 179.662 15.9562H163.102C163.08 16.2122 163.068 16.4562 163.068 16.6842ZM175.191 11.6612C174.539 11.0125 173.769 10.4951 172.922 10.1372C172.05 9.77154 171.114 9.58321 170.168 9.58321C169.223 9.58321 168.287 9.77154 167.415 10.1372C165.842 10.8006 164.558 12.0048 163.796 13.5322H176.507C176.165 12.8459 175.721 12.2152 175.191 11.6612Z" fill="#00214B"/>
<path d="M168.441 4.7L171.721 0H175.611L170.569 4.7H168.441Z" fill="#00214B"/>
</svg>
