<svg width="166" height="30" viewBox="0 0 166 30" fill="none" xmlns="http://www.w3.org/2000/svg">
<g clip-path="url(#clip0_250_2752)">
<path d="M79.2292 15.5682C79.2292 14.7241 79.4781 13.899 79.9442 13.1971C80.4104 12.4952 81.073 11.9481 81.8483 11.6248C82.6236 11.3015 83.4768 11.2167 84.3001 11.3809C85.1233 11.5452 85.8797 11.9512 86.4735 12.5477C87.0674 13.1441 87.4721 13.9042 87.6365 14.7319C87.8009 15.5597 87.7177 16.4178 87.3972 17.1979C87.0768 17.9781 86.5336 18.6451 85.8363 19.1149C85.139 19.5846 84.3188 19.8359 83.4796 19.837C82.3533 19.837 81.273 19.3875 80.4761 18.587C79.6792 17.7866 79.2307 16.7009 79.2292 15.5682Z" fill="white"/>
<path d="M99.0615 15.5681C99.0615 14.7594 99.3 13.9689 99.7467 13.2966C100.193 12.6242 100.828 12.1002 101.571 11.7907C102.314 11.4813 103.132 11.4003 103.92 11.5581C104.709 11.7158 105.433 12.1052 106.002 12.677C106.57 13.2488 106.958 13.9773 107.114 14.7704C107.271 15.5635 107.191 16.3856 106.883 17.1327C106.575 17.8798 106.054 18.5184 105.386 18.9676C104.717 19.4169 103.931 19.6567 103.127 19.6567C102.049 19.6567 101.015 19.2259 100.252 18.4591C99.4898 17.6924 99.0615 16.6524 99.0615 15.5681Z" fill="white"/>
<path d="M2.23975 12.3139C2.23361 13.6165 2.49534 14.9063 3.0085 16.1023C4.00427 18.4584 5.86768 20.3357 8.20865 21.3413C9.39498 21.8505 10.6715 22.1131 11.9614 22.1131C13.2513 22.1131 14.5278 21.8505 15.7141 21.3413C17.3687 20.6272 18.7967 19.4701 19.8425 17.9961H22.498C21.9493 19.0394 21.2483 19.9941 20.4181 20.8284C19.3235 21.9265 18.0314 22.8054 16.6104 23.4181C15.1429 24.046 13.5645 24.3697 11.9697 24.3697C10.3749 24.3697 8.79651 24.046 7.32902 23.4181C4.4579 22.1844 2.17062 19.8844 0.943413 16.9972C0.320841 15.5211 0 13.934 0 12.3306C0 10.7272 0.320841 9.14017 0.943413 7.66405C2.17163 4.77728 4.45855 2.47738 7.32902 1.24218C8.79698 0.616102 10.3752 0.293457 11.9697 0.293457C13.5642 0.293457 15.1424 0.616102 16.6104 1.24218C18.0311 1.85623 19.3232 2.73563 20.4181 3.83379C21.2485 4.66784 21.9496 5.62258 22.498 6.66606H19.8101C19.5102 6.2323 19.1672 5.83036 18.7863 5.46643C17.9107 4.55931 16.867 3.83327 15.7141 3.32922C14.5339 2.80839 13.2581 2.54278 11.9692 2.5496C10.676 2.54365 9.39557 2.8072 8.20865 3.32364C5.87309 4.3292 4.01129 6.19924 3.0085 8.54681C2.49422 9.73661 2.2324 11.0212 2.23975 12.3185" fill="white"/>
<path d="M24.8023 1.06299H27.1067V8.91772C27.3693 8.56949 27.6759 8.25712 28.0187 7.98849C28.3823 7.70371 28.7799 7.46584 29.2023 7.28043C29.6406 7.08756 30.096 6.93667 30.5624 6.82975C31.0244 6.72364 31.4967 6.66972 31.9706 6.669C32.929 6.66384 33.8778 6.8614 34.7554 7.24883C36.4788 7.99578 37.8527 9.37751 38.5955 11.1107C38.9803 11.9931 39.1767 12.9469 39.172 13.9104V13.943L39.2035 23.5985H36.9L36.8676 13.943V13.9104C36.8725 13.261 36.7474 12.6172 36.5 12.0173C36.2525 11.4174 35.8877 10.8737 35.4272 10.4184C34.9724 9.97498 34.4398 9.62021 33.8564 9.37211C33.2596 9.11536 32.6169 8.98443 31.9678 8.98741C31.3311 8.98607 30.7024 9.12899 30.1282 9.40556C29.5518 9.67612 29.0307 10.0524 28.5916 10.5151C28.1538 10.9782 27.7967 11.5122 27.5355 12.0947C27.2708 12.6755 27.1343 13.3069 27.1354 13.9457V23.5948H24.7996L24.8023 1.06299Z" fill="white"/>
<path d="M41.3129 2.4165C41.3205 2.11293 41.4319 1.82126 41.6284 1.5907C41.8249 1.36013 42.0944 1.20479 42.3916 1.15086C42.6887 1.09693 42.9953 1.14773 43.2595 1.29468C43.5237 1.44163 43.7295 1.67574 43.8421 1.95751C43.9546 2.23929 43.9671 2.55148 43.8774 2.84143C43.7876 3.13138 43.6012 3.38134 43.3496 3.54914C43.0979 3.71693 42.7964 3.7923 42.4959 3.76252C42.1954 3.73274 41.9143 3.59965 41.7001 3.38568C41.574 3.25961 41.4749 3.10891 41.409 2.94286C41.343 2.77682 41.3116 2.59895 41.3166 2.42022M41.5079 7.50586H43.7485V23.5944H41.5079V7.50586Z" fill="white"/>
<path d="M46.052 7.50235H48.3564V8.95008C48.9081 8.23181 49.6285 7.66251 50.4529 7.29328C51.3188 6.87884 52.2659 6.66422 53.2248 6.66512C54.4231 6.6492 55.6023 6.9666 56.6325 7.58227C57.6423 8.19082 58.5017 9.02199 59.1457 10.0131C59.7963 8.99396 60.6934 8.15756 61.7532 7.58227C62.8448 6.97323 64.0741 6.65736 65.3225 6.66512C66.2806 6.66043 67.229 6.85796 68.1064 7.24496C68.9599 7.6164 69.7363 8.14597 70.3951 8.80605C71.7395 10.1721 72.4927 12.0171 72.4907 13.9391L72.523 23.5947H70.2149L70.1826 13.9391C70.1873 13.2756 70.0568 12.6181 69.7992 12.0072C69.5525 11.4205 69.1998 10.8848 68.7588 10.4275C68.3204 9.97584 67.7984 9.61472 67.2222 9.36452C66.6192 9.11061 65.972 8.97985 65.3183 8.97985C64.6646 8.97985 64.0174 9.11061 63.4145 9.36452C62.835 9.61725 62.3083 9.97793 61.8622 10.4275C61.4122 10.8807 61.0535 11.4171 60.8061 12.0072C60.5481 12.618 60.4173 13.2755 60.4217 13.9391L60.454 23.5947H58.1496L58.1173 13.9391C58.0812 13.257 57.9248 12.5868 57.6553 11.9598C57.4048 11.3714 57.0465 10.8356 56.5992 10.3802C56.1635 9.94142 55.6473 9.59178 55.0793 9.35058C54.492 9.10138 53.8604 8.97492 53.223 8.97889C52.5757 8.97505 51.9358 9.11798 51.351 9.39704C50.7715 9.67015 50.2457 10.046 49.7987 10.5065C49.3536 10.9637 48.9957 11.4991 48.7426 12.0862C48.488 12.6697 48.3571 13.3001 48.3583 13.9372L48.3906 23.5928H46.0862L46.052 7.50235Z" fill="white"/>
<path d="M74.6953 15.5486C74.6871 14.3654 74.9214 13.1931 75.3836 12.1049C76.2785 9.98082 77.9598 8.29001 80.0719 7.39004C81.1563 6.93309 82.3204 6.69775 83.4962 6.69775C84.6719 6.69775 85.836 6.93309 86.9204 7.39004C89.032 8.29075 90.7131 9.98132 91.6087 12.1049C92.0631 13.1955 92.2971 14.3662 92.2971 15.5486C92.2971 16.7311 92.0631 17.9017 91.6087 18.9923C90.7131 21.1159 89.032 22.8065 86.9204 23.7072C85.8384 24.1723 84.6728 24.4082 83.4962 24.4004C82.1879 24.3767 80.9042 24.0396 79.7513 23.4173C78.6083 22.8835 77.6338 22.043 76.935 20.9883V30.0018H74.6953V15.5486ZM76.935 15.5486C76.9307 16.4279 77.1053 17.2987 77.4478 18.1077C78.111 19.6989 79.3693 20.9643 80.9515 21.6313C81.757 21.9717 82.622 22.147 83.4957 22.147C84.3694 22.147 85.2344 21.9717 86.0399 21.6313C87.6226 20.9648 88.8813 19.6992 89.5445 18.1077C89.8824 17.2973 90.0564 16.4274 90.0564 15.5486C90.0564 14.6699 89.8824 13.7999 89.5445 12.9895C88.8813 11.398 87.6226 10.1325 86.0399 9.46593C85.2344 9.12554 84.3694 8.95022 83.4957 8.95022C82.622 8.95022 81.757 9.12554 80.9515 9.46593C79.3693 10.1329 78.111 11.3984 77.4478 12.9895C77.1052 13.7985 76.9306 14.6694 76.935 15.5486Z" fill="white"/>
<path d="M94.3123 15.5169C94.3041 14.3336 94.5384 13.1614 95.0006 12.0732C95.8969 9.94925 97.5781 8.25821 99.6898 7.35643C100.775 6.90069 101.938 6.66602 103.114 6.66602C104.29 6.66602 105.454 6.90069 106.538 7.35643C108.65 8.25865 110.33 9.94959 111.227 12.0732C111.688 13.1615 111.922 14.3337 111.914 15.5169V23.5956H109.674V21.4388L109.322 21.7929C108.523 22.5937 107.578 23.2328 106.538 23.6755C105.454 24.1324 104.29 24.3678 103.114 24.3678C101.938 24.3678 100.774 24.1324 99.6898 23.6755C97.5777 22.7751 95.8963 21.0845 95.0006 18.9606C94.5386 17.8724 94.3043 16.7001 94.3123 15.5169ZM96.5529 15.5169C96.5488 16.396 96.723 17.2668 97.0648 18.076C97.7288 19.667 98.9872 20.9323 100.569 21.5996C101.375 21.9394 102.24 22.1144 103.114 22.1144C103.987 22.1144 104.852 21.9394 105.658 21.5996C106.441 21.2681 107.153 20.7875 107.754 20.1844C108.352 19.5827 108.829 18.8722 109.162 18.0908C109.461 17.3638 109.634 16.5912 109.674 15.8059V15.5169C109.679 14.6377 109.505 13.7669 109.162 12.9578C108.498 11.3668 107.24 10.1013 105.658 9.43325C104.852 9.09347 103.987 8.91848 103.114 8.91848C102.24 8.91848 101.375 9.09347 100.569 9.43325C98.9874 10.1013 97.7291 11.3668 97.0648 12.9578C96.7226 13.7669 96.5484 14.6377 96.5529 15.5169Z" fill="white"/>
<path d="M126.284 13.9389C126.289 13.2756 126.158 12.6185 125.9 12.008C125.4 10.8183 124.458 9.87137 123.275 9.36803C122.679 9.11099 122.036 8.97974 121.388 8.9824C120.735 8.98018 120.09 9.1233 119.499 9.40148C118.912 9.67157 118.38 10.0476 117.928 10.511C117.479 10.9736 117.116 11.5129 116.856 12.1037C116.594 12.6799 116.458 13.3055 116.455 13.9389L116.488 23.5945H114.215V7.50215H116.455V8.9824C116.688 8.61771 116.981 8.29613 117.323 8.03181C117.693 7.73686 118.096 7.48731 118.524 7.28843C118.97 7.08206 119.437 6.92623 119.917 6.82382C121.344 6.50965 122.833 6.65563 124.173 7.24104C125.902 7.98905 127.278 9.37813 128.014 11.1196C128.397 12.0084 128.593 12.9674 128.59 13.9361L128.622 23.5917H126.319L126.284 13.9389Z" fill="white"/>
<path d="M132.813 15.5168C132.808 16.396 132.982 17.2669 133.324 18.0759C133.988 19.6667 135.246 20.9319 136.828 21.5995C137.634 21.9393 138.499 22.1143 139.372 22.1143C140.246 22.1143 141.111 21.9393 141.917 21.5995C142.7 21.2683 143.412 20.7877 144.014 20.1843C144.446 19.7463 144.812 19.2473 145.102 18.7032H147.57L147.478 18.9605C147.043 20.0136 146.407 20.9705 145.606 21.777C144.802 22.5841 143.851 23.2286 142.805 23.6754C141.721 24.1324 140.557 24.3677 139.382 24.3677C138.206 24.3677 137.042 24.1324 135.958 23.6754C133.846 22.7752 132.164 21.0845 131.269 18.9605C130.814 17.8699 130.58 16.6993 130.58 15.5168C130.58 14.3344 130.814 13.1637 131.269 12.0731C132.165 9.94921 133.846 8.25817 135.958 7.35639C137.042 6.90068 138.206 6.66602 139.382 6.66602C140.557 6.66602 141.721 6.90068 142.805 7.35639C143.851 7.80353 144.802 8.44865 145.606 9.25666C146.407 10.0632 147.043 11.0201 147.478 12.0731L147.57 12.2971H145.076C144.799 11.7633 144.443 11.2751 144.02 10.8493C143.419 10.2457 142.706 9.76483 141.923 9.43321C141.117 9.09343 140.252 8.91844 139.379 8.91844C138.505 8.91844 137.64 9.09343 136.835 9.43321C135.253 10.1017 133.995 11.3671 133.331 12.9578C132.988 13.7667 132.814 14.6376 132.819 15.5168" fill="white"/>
<path d="M92.1114 7.02186C92.1114 7.02186 91.7954 6.86854 91.241 6.62322C90.6866 6.37791 89.8901 6.04245 88.931 5.68563C87.8459 5.28133 86.7345 4.95223 85.6047 4.70066C84.9776 4.56235 84.343 4.4612 83.7041 4.39773C83.0545 4.33038 82.4004 4.31919 81.749 4.36428C81.107 4.40027 80.4714 4.51096 79.8548 4.69415C79.5545 4.78266 79.2587 4.88624 78.9687 5.00451C78.6813 5.11974 78.4143 5.2712 78.1427 5.40594C77.6388 5.70671 77.1628 6.05254 76.7207 6.43923C76.5202 6.63809 76.3086 6.82021 76.1284 7.01907L75.6054 7.60448C75.4493 7.80148 75.3134 8.00312 75.1702 8.1871C75.0309 8.35843 74.9043 8.53981 74.7914 8.72977C74.5761 9.08566 74.3516 9.38023 74.2185 9.65435C73.9238 10.1859 73.7427 10.4907 73.7427 10.4907C73.7427 10.4907 73.8258 10.1515 73.994 9.55585C74.1 9.1983 74.2278 8.84764 74.3765 8.50583C74.5631 8.05394 74.7811 7.61582 75.0289 7.19469L75.4908 6.49034C75.6572 6.24688 75.8706 6.02573 76.0702 5.78506C76.2884 5.54559 76.5184 5.31733 76.7595 5.10115C77.0006 4.8707 77.2944 4.69229 77.5698 4.47857C78.1693 4.08286 78.8192 3.7703 79.5018 3.54935C80.2029 3.32499 80.9276 3.18372 81.6612 3.12841C82.3859 3.09197 83.1125 3.11933 83.8325 3.21018C84.5205 3.30046 85.2002 3.44556 85.8653 3.64413C86.4821 3.82094 87.0873 4.03664 87.6772 4.28994C88.238 4.52875 88.7555 4.78243 89.2184 5.03332C89.9677 5.43593 90.6858 5.89472 91.3666 6.40578C91.8563 6.77747 92.1141 7.01442 92.1141 7.01442" fill="white"/>
<path d="M112.736 10.4905C112.736 10.4905 112.653 10.1188 112.527 9.48045C112.404 9.17845 112.291 8.81606 112.114 8.42207C111.896 7.98527 111.638 7.57021 111.343 7.18248C111.19 6.95295 111.011 6.74214 110.81 6.55433C110.6 6.36105 110.421 6.12688 110.182 5.94383L109.442 5.38629L108.611 4.90867L108.397 4.78694L108.166 4.69402L107.704 4.50818C107.546 4.44963 107.395 4.37808 107.233 4.32884L106.736 4.20432C106.065 4.02857 105.379 3.91719 104.687 3.87166H103.633C103.458 3.87166 103.283 3.86144 103.109 3.88095L102.587 3.94785C102.242 3.99617 101.898 4.03427 101.556 4.07051L100.561 4.30096C99.9268 4.43914 99.3023 4.61982 98.6919 4.84177C98.3972 4.94212 98.1034 5.02761 97.8308 5.13262L97.0445 5.46435C96.5465 5.69015 96.0586 5.84719 95.6585 6.05719L94.6144 6.57663C94.0286 6.86004 93.684 7.01336 93.684 7.01336C93.684 7.01336 93.9685 6.77455 94.4841 6.36848C94.7419 6.16684 95.0561 5.91967 95.4247 5.6474C95.8444 5.35099 96.2796 5.07741 96.7285 4.82783L97.4908 4.37901C97.7587 4.22848 98.0571 4.11976 98.3537 3.98316L99.2777 3.57802C99.6034 3.44485 99.9381 3.33523 100.279 3.25001L101.331 2.9415C101.696 2.8746 102.07 2.81699 102.445 2.76309L103.012 2.68039C103.201 2.6553 103.396 2.66552 103.589 2.65623L104.755 2.63672C105.532 2.70195 106.301 2.84166 107.052 3.05394L107.606 3.21098C107.786 3.27788 107.958 3.36802 108.131 3.44329C108.305 3.51855 108.476 3.60311 108.646 3.68117L108.899 3.80011L109.134 3.95157C109.442 4.15693 109.756 4.3437 110.037 4.55835L110.804 5.26456C111.03 5.50244 111.241 5.75412 111.436 6.01817C111.628 6.25622 111.794 6.51451 111.93 6.78849C112.195 7.24788 112.403 7.73852 112.549 8.24923C112.644 8.64561 112.717 9.04705 112.767 9.45165C112.753 10.1068 112.735 10.4822 112.735 10.4822" fill="white"/>
<path d="M150.67 15.5002C150.666 16.3791 150.84 17.2496 151.182 18.0584C151.846 19.6494 153.105 20.9149 154.687 21.5829C155.492 21.9233 156.357 22.0986 157.231 22.0986C158.105 22.0986 158.97 21.9233 159.775 21.5829C160.558 21.2514 161.27 20.7705 161.872 20.1668C162.304 19.7297 162.671 19.2309 162.959 18.6865H165.423L165.331 18.9439C164.896 19.9968 164.259 20.9537 163.458 21.7604C162.654 22.5676 161.704 23.2121 160.658 23.6588C159.574 24.1163 158.41 24.352 157.234 24.352C156.058 24.352 154.894 24.1163 153.809 23.6588C151.697 22.7581 150.016 21.0675 149.121 18.9439C148.667 17.8531 148.433 16.6823 148.433 15.4998C148.433 14.3172 148.667 13.1464 149.121 12.0556C150.016 9.932 151.697 8.24163 153.809 7.34163C154.894 6.88409 156.058 6.64844 157.234 6.64844C158.41 6.64844 159.574 6.88409 160.658 7.34163C161.703 7.78907 162.654 8.4331 163.458 9.23911C164.259 10.0462 164.895 11.0029 165.331 12.0556C165.713 12.932 165.941 13.8688 166.003 14.8237H150.702C150.681 15.0616 150.67 15.2884 150.67 15.5002ZM161.872 10.8327C161.27 10.2299 160.558 9.74913 159.775 9.41659C158.97 9.07681 158.105 8.90182 157.231 8.90182C156.357 8.90182 155.492 9.07681 154.687 9.41659C153.234 10.0331 152.047 11.152 151.343 12.5713H163.088C162.771 11.9336 162.362 11.3475 161.872 10.8327Z" fill="white"/>
<path d="M155.637 4.36345L158.667 -0.00390625H162.262L157.603 4.36345H155.637Z" fill="white"/>
</g>
<defs>
<clipPath id="clip0_250_2752">
<rect width="166" height="30" fill="white"/>
</clipPath>
</defs>
</svg>
